<?xml version="1.0" encoding="utf-8" ?>
<svg baseProfile="full" height="300mm" version="1.1" viewBox="0,0,200,300" width="200mm" xmlns="http://www.w3.org/2000/svg" xmlns:ev="http://www.w3.org/2001/xml-events" xmlns:xlink="http://www.w3.org/1999/xlink"><defs /><rect fill="#222222" height="300" width="200" x="0" y="0" /><text fill="#FFFFFF" style="font-size:12px; font-family:Arial; font-weight:bold;" x="10" y="20">Over 2km Workouts</text><text fill="#FFFFFF" style="font-size:4px; font-family:Arial" x="10" y="280">ATHLETE</text><text fill="#FFFFFF" style="font-size:9px; font-family:Arial" x="10" y="290">Koobai</text><text fill="#FFFFFF" style="font-size:4px; font-family:Arial" x="120" y="280">STATISTICS</text><text fill="#FFFFFF" style="font-size:3px; font-family:Arial" x="120" y="285">Number: 13</text><text fill="#FFFFFF" style="font-size:3px; font-family:Arial" x="120" y="290">Weekly: 4.3</text><text fill="#FFFFFF" style="font-size:3px; font-family:Arial" x="141" y="285">Total: 34.7 km</text><text fill="#FFFFFF" style="font-size:3px; font-family:Arial" x="141" y="290">Avg: 2.7 km</text><text fill="#FFFFFF" style="font-size:3px; font-family:Arial" x="167" y="285">Min: 2.0 km</text><text fill="#FFFFFF" style="font-size:3px; font-family:Arial" x="167" y="290">Max: 4.1 km</text><polyline fill="none" points="15.511357340728864,63.50707817735383 14.972853185376152,61.56406364304712 14.374515235656872,60.03740545286564 13.7761772852391,59.13528763112845 12.818836565129459,57.95559328061063 12.459833794971928,57.33104838052532 12.399999999906868,56.8452908374602 12.519667590036988,56.35953294567298 13.05817174515687,55.80438064230839 13.89584487513639,55.17983375699259 16.887534626061097,53.583766876428854 19.340720221865922,52.47345726104686 19.879224376752973,51.98769623163389 22.152908587129787,49.42009642749326 23.88808864238672,47.962805718765594 25.802770082838833,47.13006676227087 31.905817174585536,44.90942453563912 38.18836565082893,43.8684959836537 42.017728531733155,42.61937960801879 44.71024930733256,41.50905200536363 46.385595567757264,41.09267868468305 47.7617728530895,40.60690948687261 48.47977839340456,40.60690948687261 49.13795013842173,41.02328310633311 50.21495844866149,42.41119332128437 50.4542936286889,42.96635661023902 50.51412742375396,43.52151944395155 50.33462603879161,44.14607708720723 49.55678670341149,45.11761005385779 49.25761772831902,45.67277112288866 49.13795013842173,46.297326781146694 49.19778393302113,46.85248688235879 49.7961218834389,48.0322005857015 51.1124653739389,50.11404328094795 52.907479224260896,53.51437257876387 53.98448753450066,55.87377470522188 55.36066481960006,58.094380958005786 55.5999999998603,59.06589390261797 55.5999999998603,60.10679908178281 55.36066481960006,60.52316070505185 54.46315789455548,61.14770265988773 51.41163434879854,62.6049649802153 50.39445983362384,62.95193173678126 43.93240997218527,64.13161737885093 41.00055401655845,64.40919017227134 38.60720221581869,64.75615600403398 32.62382271466777,65.8664454704267 31.486980609130114,66.21341055515222 30.230470914160833,67.18491184624145 29.75180055387318,67.39309051306918" stroke="#4dd2ff" stroke-linecap="round" stroke-linejoin="round" stroke-width="0.5"><title>2023-04-13 2.0km</title></polyline><polyline fill="none" points="82.15911602205597,65.28005059820134 81.62209944752976,63.82681997312466 81.14475138112903,61.61236729013035 80.60773480660282,60.15912876848597 80.07071823207662,59.32870535145048 78.8176795579493,57.944664052454755 78.51933701639064,57.39104673831025 78.39999999990687,56.76822671701666 78.51933701639064,56.28381074767094 78.8773480663076,55.730192071117926 79.41436464083381,55.24577535671415 80.19005524856038,54.76135829463601 82.0397790055722,53.930928236513864 85.02320441999473,52.27006505493773 85.79889502748847,51.64724030822981 88.30497237574309,49.22513860743493 91.22872928157449,47.4950606423663 92.4817679557018,46.94143475708552 94.80883977888152,46.318605092936195 98.20994475111365,45.003740581683815 100.1790055250749,44.38090912968619 101.96906077326275,44.03489140776219 104.77348066284321,43.68887350894511 105.96685082861222,43.27365179575281 107.39889502734877,42.51241132494761 109.00994475139305,42.44320760323899 110.14364640880376,42.16639264521655 111.93370165745728,41.61276238900609 114.08176795579493,40.713112253695726 114.6784530384466,40.713112253695726 115.33480662945658,41.19753939844668 116.17016574600711,42.37400387437083 116.40883977874182,43.41205906186951 116.17016574600711,44.38090912968619 115.09613259672187,46.11099507729523 115.09613259672187,46.387808417435735 115.21546961297281,46.94143475708552 115.69281767960638,48.04868607374374 117.24419889505953,50.47079199622385 118.97458563512191,53.377307630027644 120.10828729276545,55.86859678279143 121.36132596665993,57.87546191306319 121.54033149173483,58.49828091269592 121.5999999998603,59.05189731880091 121.4806629831437,59.53631130157737 121.241988950409,60.08992685616249 120.64530386729166,60.57434009399731 120.04861878440715,60.98955116403522 117.84088397794403,62.235182841541246 116.70718232030049,62.65039289003471 114.6784530384466,62.99640106840525 111.93370165745728,63.61921534285648 108.83093922655098,64.03442453977186 106.26519337017089,64.3112305290415 98.44861878454685,65.69525877345586 97.37458563526161,66.04126539110439 96.00220994465053,66.87168054992799 94.62983425403945,67.28688774630427" stroke="#4dd2ff" stroke-linecap="round" stroke-linejoin="round" stroke-width="0.5"><title>2023-04-12 2.0km</title></polyline><polyline fill="none" points="149.18995815888047,66.05396482429933 148.91882845154032,65.73951832042076 148.91882845154032,64.6913626093883 147.74393305415288,61.546889028395526 147.11129707098007,59.031303200055845 145.5748953972943,57.03979336260818 144.9422594141215,56.0964452434564 144.5807531378232,55.048279646085575 144.49037656886503,54.209746393957175 144.76150627620518,53.3712124543963 146.7497907942161,49.80743553733919 148.91882845154032,47.6062730003614 149.91297071101144,46.76773364446126 151.8108786609955,45.61474090674892 153.8895397488959,44.67138224514201 160.5774058578536,42.47020864917431 163.01757322158664,42.26057282136753 171.6937238490209,40.68830274324864 172.95899581583217,40.26903031382244 174.85690376535058,39.220848488505 176.0317991632037,38.80157545709517 176.84518828475848,38.80157545709517 177.83933054376394,39.01121199445333 178.47196652693674,39.744939535507 179.64686192478985,41.631665080203675 182.53891213377938,46.76773364446126 183.62343096220866,49.38816684822086 185.88284518802539,52.95194522663951 186.87698744796216,53.895296247210354 187.5096234306693,55.362729437998496 187.60000000009313,56.0964452434564 187.41924686171114,57.35424254229292 187.14811715483665,58.29758950055111 186.78661087853834,58.82167076820042 185.3405857742764,59.97464861103799 181.99665271956474,61.651704970165156 180.0083682006225,62.070968630257994 177.74895397480577,62.90949543437455 172.50711297011003,64.16728435084224 168.9824267779477,64.48173133807722 165.1866108784452,64.58654697891325 160.93891213368624,65.42507172003388 156.78158995788544,66.05396482429933 152.62426778208464,67.31174987240229 151.17824267735705,67.41656522336416 150.6359832631424,67.10211913846433 150.27447698730975,66.26359577313997 149.18995815888047,62.804679621360265 147.74393305415288,59.13611939968541 145.93640167312697,56.51571118179709 144.67112970678136,54.94346302689519 144.39999999990687,54.209746393957175 144.39999999990687,52.95194522663951 145.394142259378,50.43633824912831 146.56903765629977,49.07371521834284 149.09958158945665,47.29182082216721 152.53389121312648,45.300288116093725 153.70878661051393,44.566564562148415 155.33556485315785,43.9376582398545 162.56569037633017,42.15575489157345 166.0,42.050936950952746 169.70543933054432,41.212393037974834 171.24184100376442,40.79312082356773 174.49539748951793,39.325666719232686 176.84518828475848,38.80157545709517 177.74895397480577,38.80157545709517 178.2912133890204,39.325666719232686 180.55062761483714,43.8328404816566 182.17740585748106,46.453281208407134 183.8945606695488,50.01706981763709 185.88284518802539,52.323044062708504 187.32887029275298,54.94346302689519 187.5096234306693,55.88681221019942 187.14811715483665,58.19277321489062 186.69623430911452,58.92648698936682 185.70209205010906,59.76501637278125 182.17740585748106,61.651704970165156 180.09874476958066,62.38541626220103 177.1163179911673,62.90949543437455 173.5012552300468,63.85283726663329 171.0610878658481,64.27210002427455 168.80167364003137,64.58654697891325 166.54225941421464,64.58654697891325 154.9740585773252,66.47322667879052 151.35899581573904,67.41656522336416 150.6359832631424,67.83582651882898 149.91297071101144,68.67434859462082 149.37071129633114,68.88397900632117 147.83430962311104,68.77916380600072 144.67112970678136,69.19842454302125" stroke="#4dd2ff" stroke-linecap="round" stroke-linejoin="round" stroke-width="0.5"><title>2023-04-11 2.4km</title></polyline><polyline fill="none" points="28.62755719386041,105.32313313754275 27.194905780255795,106.98466989491135 25.045928658917546,112.3846596532967 27.911231487989426,119.86155666713603 26.83674292638898,121.10770482872613 25.045928658917546,120.69232215010561 24.32960294932127,119.86155666713603 23.613277243450284,114.04619351541623 26.83674292638898,109.47697375505231 23.9714400973171,104.90774884121493 18.59899729117751,102.83082672278397 17.524508729577065,101.58467294089496 16.80818301998079,97.01543912640773 19.315322997048497,92.86158573254943 28.269394339993596,86.63079765764996 38.65611709840596,85.38463889225386 42.23774563521147,85.80002519022673 48.32651415094733,90.36927165160887 49.759165566414595,96.1846687886864 49.04283985868096,99.50774911767803 47.25202558748424,102.83082672278397 40.446931367740035,107.81543801841326 36.865302830934525,107.81543801841326 27.911231487989426,107.81543801841326 16.450020167976618,101.58467294089496 15.733694460242987,99.09236422600225 16.450020167976618,91.20004318258725 30.060208609327674,83.30770676606335 34.358162853866816,81.6461602980271 38.29795424453914,80.8153868096415 41.52141992934048,81.6461602980271 45.81937417574227,85.80002519022673 49.04283985868096,92.0308145438321 48.32651415094733,98.26159431342967 44.74488561414182,102.41544217057526 40.446931367740035,104.90774884121493 31.492860024794936,105.73851739056408 26.120417218655348,107.40005397843197 18.95716014318168,103.66159569681622 17.882671581581235,101.58467294089496 18.240834437310696,99.09236422600225 22.18062582798302,94.10774219757877 27.911231487989426,90.78465743875131 34.000000001862645,84.13847974454984 37.22346568480134,83.72309327707626 40.08876851387322,84.96925255306996 44.74488561414182,89.12311403849162 46.89386273548007,92.86158573254943 47.6101884432137,97.84620929369703 46.17753702774644,101.58467294089496 43.670397052541375,104.0769801212009 39.73060566186905,106.1539016009774 31.13469717092812,105.73851739056408 25.762254362925887,106.56928576854989 21.46430012024939,103.66159569681622 16.80818301998079,102.00005757715553 15.017368752509356,100.33851877436973 14.65920589864254,97.4308242322877 15.733694460242987,89.95388582302257 17.16634587571025,87.876956039574 21.822462974116206,83.72309327707626 25.045928658917546,82.06154697807506 34.000000001862645,80.4000000001397 39.73060566186905,81.2307735751383 42.23774563521147,82.89232021360658 46.535699881613255,87.46156995533966 48.68467700481415,91.61542888451368 48.68467700481415,93.2769712631125 48.32651415094733,95.76928355474956 46.535699881613255,98.67697929032147 44.38672275841236,101.16928825993091 39.37244280613959,103.66159569681622 27.55306863412261,106.56928576854989 25.762254362925887,106.1539016009774 22.896951533854008,103.66159569681622 18.59899729117751,101.58467294089496 17.524508729577065,99.50774911767803 17.882671581581235,94.10774219757877 20.03164870478213,90.78465743875131 31.85102287866175,82.47693361691199 35.79081427119672,81.6461602980271 37.93979139253497,82.47693361691199 41.8795827832073,85.38463889225386 45.46121132001281,89.12311403849162 46.535699881613255,91.61542888451368 46.535699881613255,94.52312760148197 45.46121132001281,99.50774911767803 42.23774563521147,104.49236450297758 38.65611709840596,106.1539016009774 27.194905780255795,106.98466989491135 18.240834437310696,101.16928825993091 16.80818301998079,99.09236422600225 16.450020167976618,97.01543912640773 17.16634587571025,91.20004318258725 18.59899729117751,88.70772808114998 34.358162853866816,80.8153868096415 36.865302830934525,80.8153868096415 42.59590849094093,84.55386616941541 49.04283985868096,91.20004318258725 49.759165566414595,93.69235675223172 49.40100271254778,96.6000539783854 48.68467700481415,98.67697929032147 47.25202558748424,101.16928825993091 41.52141992934048,104.90774884121493 29.343882901594043,108.23082201718353 25.404091510921717,107.81543801841326 21.46430012024939,105.73851739056408 19.673485850915313,103.66159569681622 19.315322997048497,99.50774911767803 21.106137266382575,94.52312760148197 26.120417218655348,92.0308145438321 34.358162853866816,86.63079765764996 37.22346568480134,85.38463889225386 39.01427995413542,85.80002519022673 42.23774563521147,87.876956039574 45.81937417574227,90.78465743875131 46.89386273548007,92.44620015844703 47.6101884432137,98.26159431342967 46.89386273548007,101.16928825993091 45.46121132001281,102.83082672278397 43.312234196811914,104.0769801212009 35.79081427119672,104.90774884121493 26.478580072522163,106.98466989491135 18.95716014318168,102.00005757715553 16.80818301998079,98.26159431342967 16.450020167976618,95.76928355474956 17.16634587571025,91.61542888451368 17.882671581581235,89.95388582302257 20.747974414378405,87.46156995533966 28.269394339993596,85.80002519022673 36.14897712320089,81.2307735751383 39.73060566186905,82.06154697807506 46.535699881613255,88.70772808114998 47.96835129708052,90.36927165160887 49.04283985868096,94.52312760148197 47.96835129708052,99.09236422600225 46.17753702774644,102.00005757715553 44.38672275841236,103.66159569681622 29.702045757323503,107.40005397843197 23.25511438958347,111.5538924660068 23.25511438958347,114.87696019024588 25.404091510921717,121.52308746357448 26.83674292638898,123.18461757735349 29.343882901594043,123.60000000009313 41.163257075473666,121.938470055582 44.38672275841236,122.76923511293717 48.68467700481415,120.69232215010561 53.340794103220105,117.36925919516943" stroke="#4dd2ff" stroke-linecap="round" stroke-linejoin="round" stroke-width="0.5"><title>2023-04-10 2.2km</title></polyline><polyline fill="none" points="84.35786510643084,123.60000000000582 84.28465698682703,122.95021333667682 84.18704616068862,122.66769692141679 83.91861638857517,122.07441151313833 83.84540826897137,121.4811248361948 83.84540826897137,120.63357024011202 83.9918245082954,119.70125719407224 84.16264345415402,119.10796544278855 84.72390570468269,117.44109135240433 84.9679327699123,116.84779476819676 85.23636254202574,115.77420724791591 85.7000139662996,114.44634325249353 86.26127621671185,113.25973600728321 86.99335741298273,111.31029880099231 87.28618989151437,110.77349484612932 87.5546196635114,109.72813679551473 88.01827108778525,108.45675007411046 88.14028462057468,107.49614290933823 88.3843116859207,106.70505215841695 88.87236581672914,105.63142538827378 89.62884971953463,102.83432560533402 89.92168219806626,101.9302065129159 90.50734715501312,100.48926061877864 90.80017963354476,99.44386381463846 91.11741481872741,98.62449599805404 91.36144188407343,98.14417580788722 91.48345541674644,97.91814248941955 91.82509330834728,97.52258373898803 91.92270413448568,97.2965499140555 92.31314743927214,95.96859747293638 93.04522863542661,94.18856614362448 93.48447735328227,93.28441887168447 93.8017125382321,92.15423063730123 94.14335042994935,91.3348412879277 94.46058561489917,90.3459198839846 94.75341809354722,89.6678003121051 95.04625057196245,89.1026994024578 95.21706951770466,88.96142399517703 95.5099019962363,88.9896790823841 97.92576994397677,89.6960553273966 98.2918105419958,89.86558535849326 98.80426737945527,89.61129027302377 99.60955669544637,88.3115561948216 100.36604059813544,87.20960296646808 100.75648390280548,86.67275237175636 101.17132991401013,86.22066685452592 102.14743817562703,85.40125997626456 103.80682222056203,84.29929518539575 104.83173589548096,83.79069457444712 105.2953873196384,83.64941646138323 105.66142791789025,83.64941646138323 105.92985768977087,83.28209303077892 105.92985768977087,83.14081465872005 106.56432805978693,82.71697911075898 106.68634159257635,82.34965444522095 106.85716053843498,80.7955831697036 106.93036865792237,80.62604759464739 107.1987984299194,80.39999999999418 108.46773917018436,80.76732724768226 108.85818247473799,80.82383908875636 111.64009102073032,80.90860682877246 112.54299116274342,81.04988633785979 112.61619928234722,81.10639812139561 112.71381010848563,81.2194216538337 112.83582364115864,81.78453862527385 112.81142093474045,82.0953524687502 112.71381010848563,82.46267747099046 112.73821281502023,82.68872338457732 112.95783717394806,82.71697911075898 113.27507235889789,80.9368627363292 113.42148859822191,80.76732724768226 113.73872378317174,80.73907132277964 113.88514002249576,80.7955831697036 113.98275084875058,80.99337454291526 114.05595896835439,82.0953524687502 114.1291670879582,82.34965444522095 114.22677791421302,82.5191889666894 114.56841580581386,82.68872338457732 115.37370512157213,82.94302481692284 115.81295383942779,82.94302481692284 116.15459173102863,82.85825769871008" stroke="#4dd2ff" stroke-linecap="round" stroke-linejoin="round" stroke-width="0.5"><title>2023-04-09 2.8km</title></polyline><polyline fill="none" points="177.2984615387395,80.88678862334928 176.71692307665944,83.6762916498119 176.5507692308165,83.9648604579852 176.3015384618193,84.06105004140409 176.63384615443647,83.6762916498119 177.38153846142814,85.02294533402892 177.2153846155852,86.75435439223656 177.04923076927662,87.3314900394762 176.63384615443647,87.81243614293635 176.63384615443647,89.64002910198178 176.88307692296803,90.7942965166294 176.0523076923564,93.39139304187847 175.7200000002049,94.06471319723641 175.0553846154362,94.73803287261399 175.0553846154362,94.93040983466199 175.38769230805337,95.02659830078483 175.0553846154362,95.02659830078483 174.8061538459733,95.50754048541421 173.9753846153617,97.71987137908582 172.8123076921329,99.25888111803215 172.06461538467556,100.8940762176644 171.89846153836697,101.37501541426172 171.98153846152127,102.04832987772534 172.31384615367278,102.52926848642528 172.39692307682708,102.81783153390279 171.15076923090965,106.47295583825326 169.57230769190937,110.22425291541731 169.57230769190937,110.51281361177098 169.73846153821796,110.51281361177098 170.4861538456753,109.8395051829284 170.40307692345232,111.57086874451488 169.82153846137226,112.34036264166934 169.40615384606645,113.97553509217687 168.07692307699472,113.49460231233388 166.91384615423158,113.3022291319794 166.6646153847687,113.3984157271334 166.6646153847687,113.78316200955305 166.83076923107728,113.20604252710473 166.5815384616144,112.91748265339993 164.67076923092827,111.76324227760779 163.09230769239366,111.08993473998271 161.84615384601057,110.99374790984439 161.59692307701334,111.57086874451488 161.34769230755046,110.22425291541731 162.17846153862774,108.30051268602256 162.17846153862774,107.9157641698257 161.18153846170753,108.39669979037717 160.93230769224465,108.39669979037717 161.09846153855324,108.20432557171443 161.09846153855324,108.4928868850111 160.51692307693884,109.8395051829284 160.68307692324743,110.03187906870153 161.01538461539894,109.7433182252571 161.18153846170753,110.60900049109478 160.93230769224465,110.41662672261009 159.52000000001863,110.51281361177098 158.85538461524993,110.22425291541731 157.94153846148401,109.7433182252571 157.85846153879538,109.7433182252571 157.85846153879538,109.93569213082083 158.19076923048124,110.03187906870153 158.52307692309842,109.93569213082083 158.7723076925613,109.7433182252571 158.7723076925613,109.26238329033367 158.6061538462527,108.68526104534976 157.6923076924868,108.01195131364511 156.94461538502946,107.819577016111 155.20000000018626,108.01195131364511 151.87692307680845,106.56914312887238 150.63076923042536,106.18439390766434 148.80307692289352,107.05007943545934 147.8061538459733,107.9157641698257 147.05846153851599,108.20432557171443 147.8892307691276,108.30051268602256 149.0523076923564,107.819577016111 147.4738461538218,108.20432557171443 147.3076923075132,108.20432557171443 147.22461538482457,108.4928868850111 147.72307692281902,109.07000924780732 147.8892307691276,109.45475729368627 147.64000000013039,110.80137422011467 148.13846153812483,110.99374790984439 149.38461538450792,111.18612156057497 148.47076923027635,111.474681963271 147.05846153851599,112.24417593888938 146.47692307690158,112.72510935558239 145.8123076921329,113.87934855592903 145.56307692313567,114.45646762708202 145.6461538458243,114.74502703041071 145.6461538458243,114.55265410465654 144.39999999990687,116.6687541330466 144.64923076936975,116.95731286035152 145.39692307682708,117.43824387673521 147.4738461538218,118.01536077325 150.63076923042536,119.84289528551744 152.29230769211426,120.42001071275445 153.28923076903448,120.51619658281561 153.45538461534306,120.42001071275445 153.1230769227259,120.227638942888 153.1230769227259,120.13145304343197 154.36923076910898,119.36196549364831 155.78153846180066,117.72680236928863 156.8615384614095,115.4183319619624 158.10769230732694,114.93739991699113 158.52307692309842,114.64884057221934 164.67076923092827,117.24587149970466 168.2430769233033,118.11154688842362 168.4092307696119,118.40010517509654 170.56923076929525,119.65052339842077 176.3015384618193,122.05516917456407 177.54769230727106,121.38186897448031 178.46153846150264,121.38186897448031 180.70461538480595,122.53609759517713 181.70153846172616,122.72846889484208 182.4492307691835,122.4399119305308 183.529230769258,121.28568319225451 184.0276923077181,121.28568319225451 185.6061538462527,121.86279773776187 187.60000000009313,123.11321137665072" stroke="#4dd2ff" stroke-linecap="round" stroke-linejoin="round" stroke-width="0.5"><title>2023-04-09 2.5km</title></polyline><polyline fill="none" points="19.81836443382781,137.57686023696442 19.456161560839973,137.64148506577476 18.676032295799814,138.4492943091318 16.112750425352715,140.03259442036506 16.084888665936887,140.93733377044555 15.945579868508503,141.48663853734615 16.140612184768543,142.06825430615572 16.419229779508896,142.58524519955972 17.06005024712067,143.52228903281502 17.812317752512172,144.75013535635662 19.5676085986197,147.8197302413464 20.375599623075686,149.49991688830778 20.96069657173939,150.46925126493443 21.10000536905136,151.0831614950439 22.18661398801487,152.21404563143733 23.18963732861448,153.92651960082003 23.914043074590154,155.50974197589676 24.304107707110234,156.09133187189582 25.334992807358503,157.54530191779486 26.53304846410174,159.3869876828685 27.062421893933788,160.48553196387365 28.149030513013713,162.29489067036775 28.204754031961784,162.52105977851897 28.149030513013713,162.7795385607751 29.152053853613324,163.81345156999305 32.82980610255618,170.21071292238776 33.024838418816216,170.63073059148155 33.108423697180115,171.11536566817085 33.49848832981661,171.60000000000582 33.63779712701216,171.60000000000582 35.978184921783395,169.53222165963962 36.619005389511585,168.886038147175 38.903669665334746,167.07671726652188 40.35248115728609,166.10743395233294 43.19438062258996,163.74883210629923 43.94664812798146,163.264185706008 45.562630176893435,161.87486189621268 47.09502694720868,160.71170237008482 49.74189409613609,158.28843957386562 50.856364474631846,157.0283355587162 51.16284382867161,156.73754160906537 51.60863198013976,156.18826341698878 51.80366429628339,155.50974197589676 51.99869661254343,154.24962685376522 52.0544201314915,153.60341201676056 51.99869661254343,153.34492571098963 50.661332158371806,150.8246731227846 49.18465890688822,148.4982682345726 47.29005926346872,144.97631705220556 46.81640935258474,144.20083627654822 45.479044898296706,141.80975854137796 44.61533035512548,140.38802804626175 43.86306284961756,138.86935429743608 42.99934830632992,137.5445478176116 42.442113117082044,136.445923586376 41.57839857367799,134.95954353149864 39.15442550042644,130.56498758873204 38.26284919783939,129.14320637099445 37.956369843683206,128.8200733815902 37.259825857006945,128.52925340781803 36.45183483266737,128.39999999999418 36.033908440731466,128.4323133568687 35.39308797311969,128.6585067625565 32.52332674851641,130.4034218642919 29.54211848601699,132.11601432983298 28.873436258989386,132.60070862111752 27.396763007505797,133.50546930381097 23.997628353070468,135.44423344999086 21.657240558299236,136.639798728982 20.877111293259077,137.15679852612084 20.487046660855412,137.31836078883498 20.180567306815647,137.3829856707598" stroke="#ffb800" stroke-linecap="round" stroke-linejoin="round" stroke-width="0.5"><title>2023-04-09 4.1km</title></polyline><polyline fill="none" points="88.59249439649284,145.6800850359723 88.825300632976,149.19008845440112 88.825300632976,155.40008304268122 90.92055676318705,152.43008745787665 93.94703784305602,150.0000885790214 96.0422939741984,149.19008845440112 101.62964365724474,148.11008790088817 104.88893097173423,145.95008546486497 106.0529621578753,142.71007849019952 106.0529621578753,139.74006859352812 105.3545434474945,137.3100580063183 103.9577060258016,135.42004822031595 102.32806236762553,134.07004040060565 100.23280623648316,133.26003537676297 98.83596881572157,133.26003537676297 97.20632515847683,133.5300370787736 91.85178171098232,135.96005115448497 86.73004450183362,135.96005115448497 85.79881955403835,137.04005669103935 85.10040084365755,139.2000664351508 85.33320708107203,141.090073507512 87.42846321221441,143.79008125769906 95.34387526381761,148.92008835729212 105.58734968397766,145.4100845796056 107.68260581418872,145.4100845796056 106.98418710380793,143.79008125769906 106.0529621578753,142.71007849019952 104.19051226228476,141.6300752782263 102.0952561320737,141.090073507512 99.53438752610236,140.82007257989608 93.48142537008971,141.090073507512 89.05810686945915,140.2800706422422 84.63478837069124,140.55007162457332 87.89407568518072,141.6300752782263 91.61897547449917,145.4100845796056 93.71423160564154,145.95008546486497 101.86244989465922,145.95008546486497 105.3545434474945,144.8700835823547 106.51857463084161,144.060081880074 106.75138086732477,142.71007849019952 106.28576839435846,138.93006531358697 106.51857463084161,139.2000664351508 106.28576839435846,138.6600641645491 102.0952561320737,136.23005258082412 99.53438752610236,135.6900497013703 98.60316257923841,135.6900497013703 94.41265031602234,137.58005929319188 93.48142537008971,137.3100580063183 90.45494429115206,132.99003364611417 90.45494429115206,131.91002644971013 90.92055676318705,131.64002458075993 93.71423160564154,130.290014823433 99.30158128868788,128.4000000001397 102.0952561320737,128.4000000001397 103.2592873154208,129.4800086361356 103.9577060258016,130.5600168297533 103.9577060258016,133.8000387540087 101.16403118427843,140.55007162457332 98.60316257923841,144.60008304286748 96.50790644716471,145.1400840941351 93.01581289526075,141.6300752782263 89.05810686945915,139.47006752737798 87.89407568518072,139.47006752737798 86.49723826441914,140.01006963127293 85.10040084365755,141.6300752782263 84.63478837069124,142.44007772835903 85.33320708107203,142.71007849019952 89.05810686945915,142.44007772835903 90.22213805373758,143.79008125769906 90.68775052763522,148.11008790088817 89.52371934428811,151.89008790021762 89.52371934428811,156.75007992819883 90.45494429115206,158.64007440581918 92.31739418487996,159.720070641255 93.94703784305602,160.2600685930811 102.79367484152317,159.18007257883437 107.2169933412224,160.2600685930811 109.3122494732961,161.880061783595 110.70908689312637,164.31004970078357 110.24347442016006,166.74003537534736 109.3122494732961,167.82002828991972 100.0,170.52000863617286 96.50790644716471,169.71001482289284 94.87826278991997,168.6300226834137 93.48142537008971,166.47003707801923 91.61897547449917,164.58004821953364 90.68775052763522,161.880061783595 90.68775052763522,159.18007257883437 92.55020042229444,154.0500854642596 92.31739418487996,151.89008790021762 91.15336300060153,150.0000885790214 86.96285073831677,145.4100845796056 85.79881955403835,142.98007922293618 85.79881955403835,140.55007162457332 86.73004450183362,138.39006298803724 88.59249439649284,136.23005258082412 94.1798440804705,134.61004361184314 100.0,131.64002458075993 102.32806236762553,131.64002458075993 104.88893097173423,132.450030103093 106.51857463084161,134.07004040060565 107.2169933412224,135.6900497013703 106.98418710380793,140.55007162457332 105.82015592046082,143.52008060668595 104.19051226228476,145.1400840941351 102.56086860504001,145.95008546486497 94.64545655343682,148.38008808041923 93.01581289526075,148.65008823247626 91.38616923801601,147.57008745800704 88.59249439649284,144.33008247590624 86.03162579145283,142.71007849019952 85.10040084365755,141.090073507512 85.56601331848651,138.6600641645491 87.19565697479993,136.77005534805357 95.34387526381761,132.180028290255 97.20632515847683,131.64002458075993 100.46561247296631,131.91002644971013 104.19051226228476,132.99003364611417 106.28576839435846,134.61004361184314 107.2169933412224,136.50005397829227 107.44979957863688,139.2000664351508 107.2169933412224,141.090073507512 106.28576839435846,143.79008125769906 105.12173721008003,145.6800850359723 100.93122494779527,148.11008790088817 90.92055676318705,152.16008769278415 89.52371934428811,153.24008658598177 89.05810686945915,155.6700824748259 90.22213805373758,164.58004821953364 91.15336300060153,167.55003010248765 92.55020042229444,169.17001880914904 94.87826278991997,170.2500107260421 101.16403118427843,171.60000000009313 102.79367484152317,171.60000000009313 104.19051226228476,171.0600043735467 108.14821828901768,167.82002828991972 108.84663699846715,163.50005397736095 109.3122494732961,162.69005800504237 111.40750560443848,161.0700653125532 114.66679291985929,159.45007162354887 115.36521162930876,158.64007440581918 114.89959915541112,157.83007693849504 114.20118044596165,157.56007772730663 108.61383076198399,157.2900784886442" stroke="#4dd2ff" stroke-linecap="round" stroke-linejoin="round" stroke-width="0.5"><title>2023-04-06 2.2km</title></polyline><polyline fill="none" points="148.56071968376637,133.1127509479411 152.6242413111031,134.68366664205678 155.67188253067434,137.4327675565146 155.67188253067434,138.21822459832765 154.3173753209412,139.78913819836453 150.59248049743474,139.78913819836453 150.93110729940236,140.1818664984312 155.67188253067434,136.6473103549797 159.0581505522132,137.04003897611983 163.12167217954993,135.86185298953205 167.18519380688667,131.93456375482492 170.2328350264579,131.14910542452708 173.95772985182703,132.32729285908863 179.03713188506663,137.04003897611983 180.73026589490473,140.574594757054 182.08477310463786,145.28733072709292 179.37575868703425,152.3564238108229 178.02125147730112,153.14187779137865 168.5397010166198,153.14187779137865 164.81480618938804,153.9273316131439 162.10579177178442,152.74915082124062 156.6877629365772,146.4655138135422 150.25385369360447,143.71641938155517 148.56071968376637,140.574594757054 150.25385369360447,137.8254960970953 153.3014949131757,136.6473103549797 159.39677735604346,136.6473103549797 167.5238206088543,131.93456375482492 170.2328350264579,131.14910542452708 173.61910304799676,131.93456375482492 175.3122370596975,133.1127509479411 180.3916390929371,138.61095305881463 181.40751950070262,140.9673229767941 182.08477310463786,144.89460295112804 181.74614630453289,148.82187889982015 180.73026589490473,150.785515363561 177.6826246753335,152.3564238108229 172.26459584012628,152.3564238108229 163.12167217954993,153.53460472240113 150.59248049743474,142.93096346687526 150.25385369360447,142.14550739270635 150.93110729940236,140.1818664984312 158.04227014444768,135.0763954659924 169.89420822262764,131.5418346102815 174.63498345576227,132.72002192446962 180.0530122909695,138.21822459832765 180.73026589490473,139.39640986011364 181.74614630453289,145.68005846231245 181.40751950070262,149.2146062727552 179.37575868703425,151.9636967596598 175.65086386166513,153.14187779137865 167.5238206088543,151.9636967596598 162.4444185756147,152.74915082124062 160.41265776008368,151.57096966775134 158.71952375024557,148.4291514866054 156.01050933264196,146.07278615864925 152.28561450727284,144.109147278592 150.93110729940236,142.93096346687526 149.57660008966923,139.00368147948757 150.93110729940236,135.86185298953205 153.64012171700597,134.68366664205678 156.01050933264196,134.68366664205678 159.0581505522132,136.25458169262856 163.46029898151755,135.4691242480185 167.86244741082191,135.0763954659924 171.92596903815866,132.72002192446962 174.63498345576227,131.93456375482492 176.66674426943064,132.72002192446962 181.40751950070262,137.04003897611983 182.42339990660548,140.1818664984312 182.76202671043575,142.93096346687526 182.08477310463786,146.07278615864925 181.06889269687235,148.4291514866054 178.35987827926874,150.0000608987175 163.12167217954993,153.53460472240113 152.28561450727284,146.4655138135422 149.9152268934995,142.5382354487665 149.9152268934995,141.36005115509033 151.26973409950733,137.04003897611983 153.3014949131757,135.86185298953205 157.70364334248006,137.04003897611983 161.42853816971183,136.25458169262856 167.5238206088543,133.1127509479411 170.57146182842553,132.32729285908863 172.6032226420939,132.32729285908863 174.9736102577299,133.5054799320642 179.03713188506663,137.04003897611983 180.0530122909695,139.39640986011364 181.06889269687235,144.109147278592 180.73026589490473,148.82187889982015 179.37575868703425,150.785515363561 177.34399787336588,151.9636967596598 164.47617938928306,153.53460472240113 160.07403095811605,151.57096966775134 152.28561450727284,146.07278615864925 150.59248049743474,144.5018751360476 149.9152268934995,142.93096346687526 149.9152268934995,140.574594757054 151.26973409950733,135.0763954659924 152.96286811307073,134.29093777923845 156.6877629365772,134.68366664205678 158.71952375024557,133.89820887544192 166.1693134009838,129.1854588945862 169.55558142066002,128.4000000001397 172.94184944406152,129.1854588945862 178.02125147730112,133.1127509479411 179.71438548900187,136.25458169262856 180.3916390929371,141.36005115509033 179.03713188506663,146.8582414293196 176.32811746560037,148.82187889982015 170.57146182842553,149.60733360634185 164.81480618938804,149.60733360634185 162.10579177178442,148.4291514866054 159.39677735604346,147.64369653747417 154.65600212290883,145.68005846231245 152.6242413111031,144.109147278592 151.94698770530522,141.7527792940382 152.6242413111031,138.61095305881463 153.9787485189736,136.6473103549797 158.38089694827795,138.21822459832765 163.79892578348517,137.8254960970953 168.5397010166198,131.14910542452708 170.2328350264579,130.36364693264477 172.94184944406152,131.14910542452708 178.35987827926874,135.0763954659924 180.73026589490473,138.21822459832765 182.08477310463786,141.7527792940382 182.08477310463786,145.68005846231245 181.40751950070262,148.03642403124832 180.0530122909695,149.60733360634185 177.34399787336588,150.785515363561 164.47617938928306,152.3564238108229 162.4444185756147,151.9636967596598 160.07403095811605,150.0000608987175 158.71952375024557,150.39278815081343 152.96286811307073,148.4291514866054 150.25385369360447,145.28733072709292 148.89934648387134,141.36005115509033 148.89934648387134,138.61095305881463 150.59248049743474,137.04003897611983 152.28561450727284,136.6473103549797 156.34913613460958,137.04003897611983 161.42853816971183,135.4691242480185 165.83068659715354,134.68366664205678 170.57146182842553,131.93456375482492 173.95772985182703,133.1127509479411 178.698505083099,138.61095305881463 180.0530122909695,142.93096346687526 180.3916390929371,148.03642403124832 180.0530122909695,150.0000608987175 178.698505083099,151.9636967596598 176.66674426943064,152.74915082124062 171.92596903815866,152.3564238108229 167.86244741082191,152.74915082124062 159.0581505522132,158.2473247477319 158.38089694827795,160.2109563809354 159.0581505522132,168.85092360619456 160.07403095811605,170.02909944579005 161.7671649698168,171.20727492240258 167.5238206088543,170.81454980396666 171.5873422343284,171.60000000009313 173.95772985182703,171.20727492240258 180.3916390929371,167.67274740501307 183.439280314371,166.88729640329257" stroke="#4dd2ff" stroke-linecap="round" stroke-linejoin="round" stroke-width="0.5"><title>2023-04-04 2.2km</title></polyline><polyline fill="none" points="28.966348024085164,200.33521611243486 27.707935030572116,200.0433244453743 27.20456983242184,200.62710775062442 26.701204635202885,201.502782483818 27.20456983242184,202.96223977324553 28.21130022779107,202.96223977324553 35.006730396300554,197.12440612516366 45.57739954534918,193.32980783493258 46.584129941649735,192.16223811241798 46.83581253886223,190.41088263131678 46.080764742568135,184.86491650086828 45.57739954534918,183.11355653055944 43.56393875554204,180.77840822865255 39.285334574989974,177.2756821832154 37.02019118517637,176.4000000001397 34.25168260000646,177.2756821832154 28.714665425010026,180.48651455622166 26.197839437052608,180.48651455622166 24.184378647245467,180.19462085375562 21.919235257431865,181.36219548410736 21.16418746113777,182.82166309771128 20.912504862993956,183.6973433070816 21.41587006021291,184.28112996462733 25.69447423890233,187.7838473902084 29.973078418523073,193.03791544935666 33.496634802781045,194.7892693139147 40.292064969427884,194.7892693139147 46.83581253886223,193.62170019070618 48.09422553423792,192.45413058740087 47.59086033515632,190.9946679121349 47.339177737012506,187.7838473902084 44.82235174905509,184.28112996462733 41.80216056294739,182.52976963552646 35.25841299444437,181.65408906619996 30.22476101759821,182.52976963552646 26.701204635202885,182.23787614284083 23.177648250944912,178.15136409923434 20.660822263918817,176.98378815222532 19.15072667133063,177.2756821832154 18.89904407132417,177.56757618533447 18.89904407132417,178.73515189322643 21.919235257431865,181.9459826196544 25.442791640758514,184.86491650086828 29.721395820379257,193.32980783493258 32.74158700648695,195.9568379591219 35.51009559351951,197.70819002878852 39.285334574989974,197.12440612516366 43.56393875554204,195.08116152044386 45.32571694534272,193.32980783493258 46.332447341643274,191.57845307164825 46.332447341643274,186.61627539270557 45.57739954534918,184.28112996462733 44.82235174905509,183.11355653055944 40.543747569434345,180.48651455622166 37.27187378425151,179.61083335918374 35.25841299444437,179.90272712148726 31.734856610186398,181.65408906619996 28.21130022779107,181.9459826196544 25.1911090426147,181.36219548410736 21.919235257431865,183.98923665075563 21.667552658356726,186.03248921595514 22.170917857438326,188.07574031525292 23.177648250944912,189.24331171251833 27.707935030572116,190.9946679121349 30.979808813892305,196.2487300450448 32.238221808336675,196.54062210209668 40.543747569434345,195.66494584316388 43.815621353685856,194.49737707758322 45.074034347198904,193.03791544935666 45.82908214442432,191.57845307164825 46.332447341643274,188.65952607314102 46.080764742568135,185.4487029183656 45.57739954534918,183.6973433070816 44.31898655183613,181.65408906619996 41.29879536572844,178.73515189322643 38.27860417962074,177.56757618533447 36.76850858703256,177.85947015788406 30.72812621667981,181.07030187174678 27.20456983242184,181.36219548410736 24.68774384446442,180.19462085375562 23.177648250944912,180.77840822865255 22.170917857438326,181.65408906619996 21.919235257431865,182.82166309771128 22.42260045465082,184.57302324683405 25.442791640758514,186.90816843719222 27.707935030572116,188.95141890714876 29.721395820379257,194.49737707758322 32.238221808336675,195.08116152044386 38.53028677869588,195.08116152044386 43.31225615553558,193.62170019070618 44.82235174905509,192.16223811241798 45.82908214442432,190.11898994655348 46.080764742568135,188.65952607314102 45.57739954534918,185.15680972416885 45.074034347198904,183.98923665075563 43.56393875554204,182.52976963552646 41.80216056294739,181.65408906619996 36.2651433898136,180.77840822865255 26.952887234278023,182.52976963552646 23.429330850951374,180.77840822865255 21.41587006021291,182.23787614284083 20.40913966484368,183.98923665075563 20.660822263918817,185.4487029183656 22.42260045465082,188.65952607314102 26.952887234278023,191.28656050679274 29.46971322223544,195.08116152044386 32.489904407411814,195.9568379591219 41.55047796480358,195.37305369623937 44.06730395182967,194.20548481191508 45.32571694534272,192.74602303327993 46.332447341643274,190.11898994655348 46.332447341643274,188.65952607314102 46.080764742568135,185.7405960818287 44.31898655183613,183.6973433070816 42.557208359241486,182.52976963552646 40.79543016757816,182.23787614284083 32.74158700648695,183.11355653055944 29.973078418523073,182.52976963552646 25.442791640758514,179.90272712148726 22.92596565373242,179.90272712148726 20.912504862993956,180.77840822865255 23.429330850951374,185.15680972416885 27.456252431496978,189.24331171251833 29.218030623160303,193.03791544935666 31.483174012973905,193.91359251644462 39.78869977220893,194.7892693139147 45.82908214442432,193.62170019070618 46.83581253886223,191.87034560739994 47.339177737012506,189.24331171251833 46.332447341643274,185.15680972416885 43.56393875554204,182.82166309771128 39.78869977220893,181.36219548410736 30.979808813892305,181.9459826196544 25.442791640758514,179.90272712148726 23.68101344909519,179.90272712148726 21.16418746113777,181.07030187174678 20.912504862993956,182.23787614284083 21.919235257431865,184.57302324683405 28.21130022779107,190.11898994655348 30.72812621667981,195.08116152044386 32.238221808336675,196.54062210209668 33.748317401856184,197.12440612516366 41.55047796480358,196.2487300450448 45.32571694534272,194.20548481191508 47.08749513793737,192.45413058740087 47.339177737012506,190.11898994655348 45.57739954534918,183.98923665075563 44.57066914997995,182.52976963552646 38.78196937777102,176.69189409120008 37.52355638332665,176.4000000001397 35.25841299444437,177.56757618533447 32.74158700648695,180.48651455622166 30.979808813892305,181.36219548410736 28.966348024085164,181.9459826196544 22.67428305465728,181.65408906619996 20.912504862993956,182.52976963552646 21.667552658356726,184.28112996462733 23.177648250944912,185.7405960818287 27.707935030572116,189.53520448692143 30.72812621667981,193.91359251644462 31.483174012973905,194.49737707758322 33.24495220370591,195.08116152044386 37.27187378425151,195.66494584316388 41.55047796480358,197.4162980923429 45.57739954534918,197.4162980923429 46.83581253886223,196.8325141291134 48.345908131450415,191.87034560739994 48.09422553423792,188.36763320863247 47.339177737012506,186.32438232027926 44.57066914997995,182.23787614284083 40.04038237221539,180.19462085375562 34.25168260000646,179.90272712148726 28.714665425010026,180.19462085375562 26.44952203705907,179.61083335918374 24.93942644353956,179.61083335918374 23.429330850951374,180.19462085375562 20.912504862993956,182.52976963552646 20.912504862993956,183.6973433070816 21.667552658356726,185.15680972416885 24.436061247251928,187.4919544358272 28.46298282686621,190.11898994655348 31.483174012973905,194.7892693139147 33.496634802781045,195.66494584316388 37.52355638332665,195.37305369623937 40.543747569434345,195.9568379591219 43.06057355646044,195.66494584316388 45.32571694534272,195.08116152044386 46.332447341643274,194.20548481191508 47.08749513793737,192.45413058740087 47.59086033515632,187.7838473902084 46.332447341643274,185.7405960818287 44.31898655183613,183.98923665075563 38.53028677869588,181.65408906619996 36.51682598795742,181.36219548410736 30.47644361667335,182.23787614284083 25.442791640758514,181.07030187174678 24.436061247251928,181.36219548410736 21.919235257431865,183.98923665075563 21.667552658356726,185.7405960818287 23.177648250944912,187.4919544358272 27.20456983242184,190.9946679121349 28.966348024085164,194.7892693139147 29.218030623160303,196.2487300450448 27.707935030572116,198.5838656593114 27.707935030572116,202.0865654887166 29.721395820379257,208.2162798217032 32.238221808336675,209.67573367082514 35.006730396300554,209.9676243502181 41.0471127666533,208.80006145173684 45.82908214442432,208.50817065150477 47.84254293516278,209.67573367082514 48.84927332960069,211.1351867709309 48.84927332960069,212.01085827173665 47.59086033515632,214.0540907268878 42.30552576109767,216.3892117375508 39.033651975914836,218.7243308336474 36.51682598795742,219.60000000009313 35.006730396300554,219.30811030813493 32.489904407411814,218.14055123901926 31.483174012973905,213.76220046635717 31.483174012973905,212.3027487124782 32.238221808336675,211.1351867709309 37.02019118517637,207.34060715441592 39.53701717313379,206.4649342163466 46.83581253886223,202.3784569464624 48.84927332960069,202.0865654887166 48.84927332960069,203.83791378792375 48.597590731456876,203.83791378792375 49.10095592867583,203.25413114135154 48.597590731456876,202.67034837510437 48.84927332960069,202.96223977324553" stroke="#ffd700" stroke-linecap="round" stroke-linejoin="round" stroke-width="0.5"><title>2023-04-01 3.2km</title></polyline><polyline fill="none" points="97.03431378118694,194.56059426814318 94.89901970513165,197.0370294204913 91.3401962434873,200.33893940178677 93.00098052620888,198.412825739244 97.50882357638329,195.6612323957961 99.88137255050242,194.83575384202413 104.86372539680451,195.11091338773258 106.9990194728598,194.56059426814318 108.42254885751754,193.45995568926446 109.60882334411144,191.258677177364 110.0833331393078,187.68159574479796 109.37156844697893,184.6548308096826 108.18529396038502,182.4535450770054 105.33823519106954,179.70193537068553 102.96568621695042,178.8764519081451 100.35588234569877,179.15161309065297 94.18725501280278,182.72870589210652 91.81470603868365,182.4535450770054 88.73039237316698,180.80257959174924 86.83235319331288,181.62806246080436 87.78137278277427,182.72870589210652 92.76372562814504,185.20515196141787 95.6107843965292,189.60771710891277 97.27156867925078,190.4331972701475 104.62647049874067,190.4331972701475 108.42254885751754,189.60771710891277 109.60882334411144,188.50707649905235 110.0833331393078,187.4064354384318 108.42254885751754,183.82934887171723 106.04999988339841,182.4535450770054 103.20294111408293,181.62806246080436 100.35588234569877,182.17838423280045 95.13627460226417,184.10450954572298 92.52647073101252,183.82934887171723 89.67941196169704,182.17838423280045 88.96764726936817,182.4535450770054 88.01862768083811,183.55418816953897 87.54411788471043,184.92999139940366 88.01862768083811,186.30579392472282 93.2382354233414,189.88287719059736 96.79705888498574,195.11091338773258 97.98333337157965,195.9363918567542 100.35588234569877,196.48671069485135 106.04999988339841,195.11091338773258 107.94803906232119,194.28543466585688 109.13431354984641,193.45995568926446 110.0833331393078,191.258677177364 110.32058803737164,189.33255699882284 109.84607824124396,186.5809543458745 108.42254885751754,184.37967019155622 104.62647049874067,181.62806246080436 101.30490193516016,180.80257959174924 93.95000011567026,184.10450954572298 92.05196093674749,183.82934887171723 89.44215706456453,182.72870589210652 87.78137278277427,183.0038666788023 86.83235319331288,184.37967019155622 86.83235319331288,185.75547299906611 87.78137278277427,186.8561147376895 91.81470603868365,189.33255699882284 95.37352949939668,192.63447645911947 97.03431378118694,193.18479597358964 103.9147058064118,193.45995568926446 106.28725478146225,193.18479597358964 107.94803906232119,192.08415683126077 109.13431354984641,190.4331972701475 109.60882334411144,188.50707649905235 109.60882334411144,186.8561147376895 109.13431354984641,185.75547299906611 106.28725478146225,183.2790274382569 102.7284313198179,182.17838423280045 95.13627460226417,183.2790274382569 90.62843155208975,182.72870589210652 88.2558825770393,183.82934887171723 87.78137278277427,184.92999139940366 87.78137278277427,186.03063347632997 88.73039237316698,187.68159574479796 92.76372562814504,190.70835726801306 95.6107843965292,194.28543466585688 96.79705888498574,195.11091338773258 98.93235296104103,195.6612323957961 105.33823519106954,195.38607290573418 108.65980375465006,194.01027503516525 109.60882334411144,192.9096362304408 110.32058803737164,190.98351723654196 110.55784293357283,189.33255699882284 109.84607824124396,186.03063347632997 106.9990194728598,182.17838423280045 104.86372539680451,180.80257959174924 102.01666662655771,179.97709646844305 94.66176480799913,183.2790274382569 92.28921583388001,183.55418816953897 89.44215706456453,183.0038666788023 87.54411788471043,183.0038666788023 87.0696080904454,183.55418816953897 87.30686298757792,184.92999139940366 88.2558825770393,186.5809543458745 91.10294134635478,189.33255699882284 93.47549031954259,193.18479597358964 95.37352949939668,195.11091338773258 99.16960785817355,197.0370294204913 103.20294111408293,196.76187007129192 106.9990194728598,195.11091338773258 109.37156844697893,192.35931665892713 110.0833331393078,189.88287719059736 110.0833331393078,182.72870589210652 104.62647049874067,180.5274185782764 100.59313724283129,179.97709646844305 94.89901970513165,183.0038666788023 88.96764726936817,183.2790274382569 87.0696080904454,184.37967019155622 86.59509829618037,185.48031249502674 87.30686298757792,186.8561147376895 90.62843155208975,189.0573968612589 93.47549031954259,192.9096362304408 94.66176480799913,193.73511537653394 100.8303921399638,194.56059426814318 105.33823519106954,194.28543466585688 107.23627436999232,193.45995568926446 108.42254885751754,192.08415683126077 109.37156844697893,190.15803724480793 109.60882334411144,188.23191627650522 108.65980375465006,186.03063347632997 103.9147058064118,181.62806246080436 102.25392152462155,181.35290153254755 100.59313724283129,181.62806246080436 93.95000011567026,184.10450954572298 91.81470603868365,183.82934887171723 88.96764726936817,182.17838423280045 88.01862768083811,182.72870589210652 87.30686298757792,184.37967019155622 87.78137278277427,187.4064354384318 89.20490216743201,189.60771710891277 93.95000011567026,191.80899697518907 97.27156867925078,194.83575384202413 98.22058826964349,195.11091338773258 102.01666662655771,194.01027503516525 106.52450967766345,193.73511537653394 108.18529396038502,192.9096362304408 109.60882334411144,191.258677177364 110.32058803737164,188.78223669412546 110.55784293357283,186.5809543458745 110.0833331393078,183.55418816953897 109.37156844697893,181.90322336088866 107.94803906232119,180.2522575375624 106.28725478146225,178.8764519081451 103.9147058064118,178.6012906981632 101.77941172942519,179.15161309065297 96.79705888498574,183.2790274382569 95.13627460226417,184.10450954572298 93.00098052620888,184.10450954572298 90.39117665402591,183.0038666788023 88.2558825770393,183.2790274382569 87.30686298757792,184.10450954572298 87.30686298757792,185.20515196141787 87.78137278277427,187.68159574479796 88.49313747510314,188.78223669412546 92.76372562814504,190.4331972701475 95.37352949939668,194.28543466585688 97.50882357638329,195.11091338773258 105.57549008820206,194.56059426814318 107.71078416425735,194.01027503516525 109.13431354984641,192.63447645911947 110.0833331393078,189.88287719059736 109.84607824124396,187.95675602462143 108.42254885751754,186.03063347632997 105.81274498533458,184.37967019155622 102.01666662655771,183.55418816953897 95.13627460226417,184.92999139940366 90.15392175782472,184.10450954572298 88.2558825770393,184.92999139940366 87.78137278277427,186.5809543458745 88.2558825770393,187.95675602462143 89.44215706456453,189.0573968612589 94.89901970513165,191.80899697518907 96.79705888498574,194.83575384202413 98.45784316584468,196.2115512904711 99.88137255050242,196.48671069485135 106.52450967766345,194.83575384202413 108.42254885751754,193.18479597358964 109.13431354984641,191.80899697518907 109.37156844697893,189.0573968612589 109.13431354984641,183.55418816953897 108.65980375465006,181.35290153254755 107.71078416425735,179.97709646844305 103.67745090927929,176.67516143550165 102.49117642175406,176.4000000001397 101.54215683229268,176.95032284315675 97.27156867925078,181.0777405758854 94.66176480799913,182.72870589210652 92.76372562814504,183.0038666788023 89.91666685976088,182.72870589210652 88.73039237316698,183.2790274382569 87.54411788471043,184.37967019155622 87.0696080904454,185.75547299906611 87.0696080904454,186.8561147376895 88.01862768083811,188.23191627650522 93.00098052620888,191.258677177364 94.89901970513165,194.83575384202413 95.13627460226417,197.31218874105252 93.00098052620888,199.788621353684 92.76372562814504,202.26505168131553 93.71274521760643,205.0166382554453 94.89901970513165,206.94274717825465 98.22058826964349,208.04338022740558 103.9147058064118,207.49306375952438 108.8970586527139,208.3185384196695 111.0323527297005,209.41917090537027 113.1676468057558,212.1707501448691 113.40490170288831,213.54653870570473 113.1676468057558,214.64716904819943 111.2696076259017,216.29811371397227 103.9147058064118,219.32484296429902 100.35588234569877,219.60000000009313 98.22058826964349,219.0496859003324 96.08529419265687,217.39874292700551 95.13627460226417,213.82169633382 95.37352949939668,211.89559234748594 97.50882357638329,208.8688547189813 99.88137255050242,208.04338022740558 104.86372539680451,208.5936965837609 108.8970586527139,204.74147972511128 112.21862721629441,203.91600396414287" stroke="#ffda00" stroke-linecap="round" stroke-linejoin="round" stroke-width="0.5"><title>2023-03-31 3.1km</title></polyline><polyline fill="none" points="163.8704225346446,206.99720067856833 163.26197182945907,209.1141730148811 159.30704225227237,212.28962907753885 156.26478873193264,212.99528558179736 153.22253520973027,212.64245734759606 152.91830985806882,211.93680077046156 155.9605633802712,207.35002949205227 161.13239436596632,203.1160813467577 163.26197182945907,202.41042281594127 170.56338028237224,201.3519347482361 173.9098591543734,199.234957637731 175.43098591454327,196.05948952957988 175.73521126806736,192.53118819603696 175.12676056101918,188.29722181917168 173.60563380271196,184.76891252677888 172.3887323923409,183.00475652469322 167.8253521118313,179.82927344064228 162.34929577447474,178.77077842713334 161.13239436596632,179.4764418064151 158.09014084376395,183.35758779686876 155.35211267508566,185.47457467508502 150.48450704105198,187.23872941127047 145.00845070369542,190.76703617163002 147.1380281690508,193.5896789766848 153.52676056325436,196.7651493619196 159.00281690061092,201.3519347482361 160.82816901430488,201.704764140537 169.95492957532406,200.646275856765 175.43098591454327,198.88212799234316 176.64788732491434,196.41231946414337 176.03943661786616,191.82552749384195 173.30140845105052,187.9443910527043 162.65352112613618,184.06325023411773 155.9605633802712,185.82740569417365 152.30985915474594,185.47457467508502 150.18028168939054,184.76891252677888 146.52957746386528,186.18023667833768 146.52957746386528,187.9443910527043 147.4422535188496,189.7085445234552 154.74366197176278,196.41231946414337 158.39436619728804,202.41042281594127 161.13239436596632,204.17456887220033 163.56619718112051,204.17456887220033 172.0845070425421,201.3519347482361 175.73521126806736,198.1764685944654 177.25633802823722,195.35382955218665 176.03943661786616,188.65005255001597 172.0845070425421,187.59156024968252 168.73802816867828,183.35758779686876 163.56619718112051,182.65192521479912 161.13239436596632,183.00475652469322 154.4394366182387,186.18023667833768 149.26760563254356,185.82740569417365 145.92112675867975,188.29722181917168 147.4422535188496,190.41420565894805 152.30985915474594,192.88401849172078 154.4394366182387,195.00099950958975 156.56901408359408,198.52929831133224 158.09014084376395,199.94061681977473 161.7408450692892,200.646275856765 169.65070422366261,199.94061681977473 171.17183098569512,199.234957637731 173.60563380271196,197.11797922546975 175.73521126806736,192.17835786286741 176.03943661786616,190.41420565894805 174.82253520935774,185.47457467508502 174.5183098576963,181.59343107091263 173.30140845105052,180.88776812679134 166.6084507033229,180.88776812679134 159.9154929574579,185.12174361967482 155.9605633802712,186.18023667833768 153.8309859149158,185.82740569417365 149.57183098606765,183.71041903388686 148.65915492922068,184.76891252677888 146.22535211220384,189.00288324453868 148.96338028088212,191.82552749384195 154.4394366182387,194.2953393147327 156.56901408359408,197.4708090510685 157.48169014044106,199.94061681977473 158.69859154708683,200.9991053205449 166.91267605684698,201.3519347482361 171.780281689018,200.29344635666348 173.60563380271196,199.234957637731 174.5183098576963,198.52929831133224 175.73521126806736,195.35382955218665 176.03943661786616,193.23684875201434 175.43098591454327,190.76703617163002 173.30140845105052,188.29722181917168 170.86760563217103,186.53306762618013 166.6084507033229,184.76891252677888 163.56619718112051,184.06325023411773 155.65633802860975,186.18023667833768 151.39718309789896,184.76891252677888 147.4422535188496,186.18023667833768 148.3549295756966,187.9443910527043 150.18028168939054,190.0613751085475 155.04788732342422,193.94250916340388 158.09014084376395,199.5877872472629 159.30704225227237,200.646275856765 162.04507042095065,202.05759349674918 169.95492957532406,201.3519347482361 174.82253520935774,199.234957637731 176.03943661786616,194.6481694295071 174.82253520935774,189.7085445234552 170.86760563217103,186.18023667833768 169.95492957532406,184.06325023411773 163.8704225346446,183.00475652469322 157.48169014044106,185.82740569417365 154.74366197176278,186.18023667833768 151.09295774623752,185.82740569417365 149.26760563254356,184.76891252677888 147.7464788723737,187.23872941127047 146.52957746386528,190.41420565894805 147.7464788723737,193.5896789766848 153.52676056325436,196.05948952957988 156.87323943525553,200.29344635666348 158.09014084376395,201.3519347482361 162.04507042095065,202.05759349674918 167.52112676016986,202.05759349674918 172.0845070425421,200.646275856765 174.82253520935774,197.82363884034567 175.12676056101918,196.05948952957988 174.82253520935774,193.23684875201434 172.3887323923409,188.65005255001597 167.8253521118313,186.53306762618013 163.26197182945907,185.12174361967482 156.87323943525553,186.53306762618013 150.48450704105198,183.71041903388686 148.3549295756966,184.76891252677888 144.70422535203397,185.12174361967482 144.70422535203397,186.53306762618013 147.1380281690508,189.00288324453868 154.4394366182387,192.53118819603696 155.35211267508566,194.6481694295071 156.87323943525553,200.29344635666348 158.69859154708683,201.704764140537 165.08732394129038,200.9991053205449 169.95492957532406,201.3519347482361 174.5183098576963,199.234957637731 176.03943661786616,196.05948952957988 176.34366197139025,193.94250916340388 173.9098591543734,187.9443910527043 169.65070422366261,185.47457467508502 165.39154929481447,184.4160813987255 155.9605633802712,186.18023667833768 150.48450704105198,185.47457467508502 148.3549295756966,186.18023667833768 145.92112675867975,188.65005255001597 146.52957746386528,190.76703617163002 148.96338028088212,192.88401849172078 152.30985915474594,195.00099950958975 156.56901408359408,201.3519347482361 157.7859154921025,202.05759349674918 168.73802816867828,201.704764140537 173.60563380271196,199.94061681977473 175.43098591454327,195.35382955218665 175.12676056101918,189.7085445234552 175.73521126806736,186.53306762618013 171.47605633735657,183.35758779686876 163.56619718112051,180.88776812679134 162.65352112613618,181.24059961759485 160.5239436607808,184.4160813987255 156.56901408359408,185.82740569417365 151.39718309789896,185.47457467508502 148.96338028088212,184.06325023411773 146.83380281552672,185.12174361967482 144.40000000037253,185.47457467508502 144.70422535203397,187.9443910527043 146.52957746386528,191.82552749384195 147.1380281690508,192.17835786286741 148.65915492922068,191.47269709059037 152.61408450640738,192.53118819603696 154.4394366182387,195.35382955218665 157.48169014044106,200.9991053205449 159.6112676039338,202.41042281594127 169.04225352033973,202.41042281594127 172.99718309752643,200.29344635666348 175.43098591454327,197.11797922546975 175.43098591454327,193.5896789766848 174.82253520935774,190.41420565894805 173.9098591543734,189.00288324453868 171.47605633735657,186.53306762618013 168.12957746349275,185.12174361967482 162.95774647779763,185.47457467508502 153.52676056325436,188.29722181917168 151.7014084495604,187.59156024968252 149.57183098606765,185.47457467508502 146.22535211220384,187.59156024968252 146.22535211220384,189.35571390111 146.83380281552672,190.76703617163002 150.78873239457607,192.88401849172078 154.4394366182387,196.7651493619196 155.04788732342422,201.704764140537 153.8309859149158,203.46891055745073 151.7014084495604,205.5858850639779 151.09295774623752,206.99720067856833 152.61408450640738,210.8783156326972 152.91830985806882,212.28962907753885 155.35211267508566,216.5235659366008 157.7859154921025,217.2292215730995 162.04507042095065,216.87639377336018 179.9943661969155,214.75942621170543 185.16619718261063,214.05377006856725 187.59999999962747,212.99528558179736 185.77464788593352,212.28962907753885 182.7323943655938,211.93680077046156" stroke="#ffdc00" stroke-linecap="round" stroke-linejoin="round" stroke-width="0.5"><title>2023-03-30 3.1km</title></polyline><polyline fill="none" points="12.704225351568311,255.70299344928935 12.780281689483672,255.70299344928935 12.932394365780056,255.614786227874 13.616901407949626,255.70299344928935 14.377464788034558,256.2322365875589 15.442253520712256,255.614786227874 16.35492957709357,255.614786227874 17.343661971390247,255.7912006615661 18.63661971781403,255.70299344928935 20.842253520619124,255.17374998534797 22.591549295000732,255.0855427099159 23.276056337170303,254.732713516918 23.428169013932347,254.1152620810317 23.428169013932347,252.5275277827168 22.591549295000732,250.41054416069528 21.907042253296822,247.0586427723174 21.14647887274623,245.64731196523644 19.016901408322155,242.91285193804651 18.71267605619505,242.20718342333566 18.78873239411041,241.50151432998246 20.46197183057666,239.73733906412963 22.43943661917001,238.14957823150326 27.30704225320369,235.50330366630806 30.95774647826329,233.91553501959424 38.563380281440914,232.6806018241914 42.670422534924,231.62208624574123 46.092957745771855,230.2107301155338 47.00563380261883,230.2107301155338 47.6901408447884,230.8281987074297 49.059154929593205,232.5923922425136 51.569014084059745,236.5618144692271 52.785915492568165,239.11987686622888 53.77464788686484,240.70763590803836 54.15492957690731,241.76614030782366 55.295774647500366,243.97135362465633 55.44788732333109,244.94164569338318 55.295774647500366,246.17656128911767 54.83943661954254,246.88222654809942 54.15492957690731,247.67609927244484 52.177464788313955,248.9992188520846 50.58028169022873,249.79308962309733 47.309859154745936,250.67516739846906 43.73521126713604,251.64545190660283 40.540845070034266,251.91007476457162 35.36901408433914,252.8803578799707 32.554929577279836,253.14498035790166 25.48169014044106,254.64450619585114 24.340845070313662,254.55629886611132 23.808450703974813,254.1152620810317 23.352112675551325,253.14498035790166 21.602816901169717,247.14685087098042 20.157746478449553,244.67702069244115 19.092957746237516,243.6185198739986 18.78873239411041,243.0010604618583 18.78873239411041,242.47180918429513 19.24507042206824,241.67793165741023 20.233802816830575,240.53121838148218 21.983098591212183,238.76704112591688 23.12394366133958,237.79674209328368 26.926760563161224,235.6797222236637 30.501408450305462,234.35658215993317 35.67323943646625,233.2980686434894 37.954929577186704,233.12164959765505 42.51830985909328,232.15134419774404 43.583098591305315,231.79850559943588 46.3211267599836,230.3871497582295 47.08169014053419,230.3871497582295 47.53802816895768,230.8281987074297 48.83098591538146,232.4159730518586 50.04788732342422,234.62121033546282 51.569014084059745,236.7382328097592 52.55774647835642,238.85525007470278 53.69859154894948,240.70763590803836 55.59999999962747,244.50060397962807 55.52394366171211,246.70581028755987 55.143661971669644,247.41147511225427 54.30704225273803,248.028931359353 52.02535211248323,249.175634641957 51.03661971818656,249.96950525039574 50.276056337635964,250.23412862367695 45.408450704067945,251.20441362942802 44.039436619728804,251.64545190660283 38.18309859139845,252.43932023609523 36.814084506593645,252.8803578799707 33.771830985322595,253.40960275463294 30.805633802432567,253.58601764048217 25.025352112483233,254.82092082861345 23.884507041890174,255.52657899737824 22.591549295000732,256.67327228729846 19.92957746423781,257.7317570447922 18.940845069941133,257.6435500312946 18.71267605619505,257.81996404897654 18.63661971781403,258.0845850079786 19.169014084152877,259.2312748885597 19.016901408322155,259.67230905097676 18.332394365686923,260.2897564987652 17.49577464722097,260.7307901189197 15.974647886585444,261.7892698844662 15.214084506966174,261.7892698844662 14.301408450119197,261.43644344067434 13.692957746330649,260.3779632410151 13.160563379526138,259.2312748885597 12.399999999906868,258.3492058851989 12.856338027864695,258.172791976016 14.45352112641558,257.99637803056976 14.681690140161663,258.0845850079786 14.833802816458046,258.3492058851989 15.290140844881535,258.6138266810449" stroke="#4dd2ff" stroke-linecap="round" stroke-linejoin="round" stroke-width="0.5"><title>2023-03-28 2.9km</title></polyline></svg>