<?xml version="1.0" encoding="utf-8" ?>
<svg baseProfile="full" height="300mm" version="1.1" viewBox="0,0,200,300" width="200mm" xmlns="http://www.w3.org/2000/svg" xmlns:ev="http://www.w3.org/2001/xml-events" xmlns:xlink="http://www.w3.org/1999/xlink"><defs /><rect fill="#222222" height="300" width="200" x="0" y="0" /><text fill="#FFFFFF" style="font-size:12px; font-family:Arial; font-weight:bold;" x="10" y="20">Over 2km Workouts</text><text fill="#FFFFFF" style="font-size:4px; font-family:Arial" x="10" y="280">ATHLETE</text><text fill="#FFFFFF" style="font-size:9px; font-family:Arial" x="10" y="290">Koobai</text><text fill="#FFFFFF" style="font-size:4px; font-family:Arial" x="120" y="280">STATISTICS</text><text fill="#FFFFFF" style="font-size:3px; font-family:Arial" x="120" y="285">Number: 10</text><text fill="#FFFFFF" style="font-size:3px; font-family:Arial" x="120" y="290">Weekly: 3.3</text><text fill="#FFFFFF" style="font-size:3px; font-family:Arial" x="141" y="285">Total: 28.2 km</text><text fill="#FFFFFF" style="font-size:3px; font-family:Arial" x="141" y="290">Avg: 2.8 km</text><text fill="#FFFFFF" style="font-size:3px; font-family:Arial" x="167" y="285">Min: 2.2 km</text><text fill="#FFFFFF" style="font-size:3px; font-family:Arial" x="167" y="290">Max: 4.1 km</text><polyline fill="none" points="33.284446492791176,64.15391642181203 31.493632223457098,66.23083736840636 28.80741082318127,72.98082456644624 32.38903935998678,82.32694583386183 31.0459286570549,83.88463103584945 28.80741082318127,83.36540268734097 27.912003686651587,82.32694583386183 27.016596553847194,75.05774189438671 31.0459286570549,69.34621719364077 27.46430012024939,63.63468605140224 20.748746613040566,61.038533403072506 19.40563591197133,59.4808411761187 18.510228775441647,53.76929890783504 21.644153747707605,48.576982165686786 32.83674292638898,40.78849707171321 45.820146372541785,39.2307986151427 50.297182044014335,39.75003148755059 57.90814268775284,45.461589564569294 59.69895695708692,52.73083598585799 58.80354982428253,56.884686396922916 56.56503198482096,61.038533403072506 48.058664210140705,67.26929752295837 43.581628538668156,67.26929752295837 32.38903935998678,67.26929752295837 18.06252520903945,59.4808411761187 17.16711807437241,56.36545528238639 18.06252520903945,46.50005397805944 35.07526076026261,36.634633457288146 40.44770356826484,34.55770037230104 45.37244280613959,33.51923351176083 49.40177491120994,34.55770037230104 54.774217719212174,39.75003148755059 58.80354982428253,47.5385181796737 57.90814268775284,55.32699289172888 53.43110701628029,60.519302713219076 48.058664210140705,63.63468605140224 36.86607503145933,64.6731467382051 30.150521522387862,66.75006747292355 21.196450179442763,62.07699462072924 19.853339476510882,59.4808411761187 20.301043044775724,56.36545528238639 25.225782284513116,50.13467774679884 32.38903935998678,45.98082179808989 40.000000001862645,37.673099680338055 44.029332106933,37.15386659651995 47.61096064373851,38.71156569104642 53.43110701628029,43.90389254782349 56.11732842028141,48.576982165686786 57.012735553085804,54.80776161700487 55.22192128561437,59.4808411761187 52.08799631521106,62.59622515132651 47.163257075473666,65.19237700104713 36.41837146319449,64.6731467382051 29.70281795412302,65.71160721080378 24.330375149846077,62.07699462072924 18.510228775441647,60.00007197121158 16.271710939705372,57.923148467671126 15.824007373303175,54.2885302901268 17.16711807437241,44.94235727889463 18.95793234370649,42.34619504911825 24.77807871811092,37.15386659651995 28.80741082318127,35.076933722477406 40.000000001862645,33.0 47.163257075473666,34.03846696857363 50.297182044014335,36.1154002668336 55.66962485201657,41.826962443999946 58.355846256017685,47.019286105409265 58.355846256017685,49.09621407883242 57.90814268775284,52.21160444337875 55.66962485201657,55.84622411290184 52.98340344801545,58.961610324680805 46.715553507208824,62.07699462072924 31.94133579172194,65.71160721080378 29.70281795412302,65.19237700104713 26.12118941731751,62.07699462072924 20.748746613040566,59.4808411761187 19.40563591197133,56.884686396922916 19.853339476510882,50.13467774679884 22.539560880512,45.98082179808989 37.31377859786153,35.59616702096537 42.23851783759892,34.55770037230104 44.92473923973739,35.59616702096537 49.84947847761214,39.2307986151427 54.32651414908469,43.90389254782349 55.66962485201657,47.019286105409265 55.66962485201657,50.65390950161964 54.32651414908469,56.884686396922916 50.297182044014335,63.11545562837273 45.820146372541785,65.19237700104713 31.493632223457098,66.23083736840636 20.301043044775724,58.961610324680805 18.510228775441647,56.36545528238639 18.06252520903945,53.76929890783504 18.95793234370649,46.50005397805944 20.748746613040566,43.38466010103002 40.44770356826484,33.51923351176083 43.581628538668156,33.51923351176083 50.74488561227918,38.19233271153644 58.80354982428253,46.50005397805944 59.69895695708692,49.615445940289646 59.251253390684724,53.25006747292355 58.355846256017685,55.84622411290184 56.56503198482096,58.961610324680805 49.40177491120994,63.63468605140224 34.179853627458215,67.78852752130479 29.25511438958347,67.26929752295837 24.330375149846077,64.6731467382051 22.091857314109802,62.07699462072924 21.644153747707605,56.884686396922916 23.882671581581235,50.65390950161964 30.150521522387862,47.5385181796737 40.44770356826484,40.78849707171321 44.029332106933,39.2307986151427 46.26784994080663,39.75003148755059 50.297182044014335,42.34619504911825 54.774217719212174,45.98082179808989 56.11732842028141,48.05775019759312 57.012735553085804,55.32699289172888 56.11732842028141,58.961610324680805 54.32651414908469,61.038533403072506 51.640292746946216,62.59622515132651 42.23851783759892,63.63468605140224 30.598225090652704,66.23083736840636 21.196450179442763,60.00007197121158 18.510228775441647,55.32699289172888 18.06252520903945,52.21160444337875 18.95793234370649,47.019286105409265 19.853339476510882,44.94235727889463 23.434968017041683,41.826962443999946 32.83674292638898,39.75003148755059 42.68622140400112,34.03846696857363 47.163257075473666,35.076933722477406 55.66962485201657,43.38466010103002 57.460439121350646,45.461589564569294 58.80354982428253,50.65390950161964 57.460439121350646,56.36545528238639 55.22192128561437,60.00007197121158 52.98340344801545,62.07699462072924 34.62755719572306,66.75006747292355 26.56889298558235,71.94236558210105 26.56889298558235,76.09620023751631 29.25511438958347,84.4038593294099 31.0459286570549,86.48077197140083 34.179853627458215,87.0 48.954071344807744,84.9230875694193 52.98340344801545,85.96154389111325 58.355846256017685,83.36540268734097 64.17599262855947,79.21157399378717" stroke="#4dd2ff" stroke-linecap="round" stroke-linejoin="round" stroke-width="0.5"><title>2023-04-10 2.2km</title></polyline><polyline fill="none" points="80.44733138312586,87.0 80.355821233592,86.18776667083148 80.23380770091899,85.83462115176371 79.89827048580628,85.09301439140108 79.80676033627242,84.35140604525805 79.80676033627242,83.29196280011092 79.98978063534014,82.12657149258303 80.20330431777984,81.38495680349297 80.90488213079516,79.30136419049813 81.20991596253589,78.55974346023868 81.54545317753218,77.21775905988761 82.12501745799091,75.55792906560237 82.82659527088981,74.07467000911129 83.74169676622842,71.63787350122584 84.10773736448027,70.9668685576471 84.44327457936015,69.66017099437886 85.02283885981888,68.07093759262352 85.17535577574745,66.87017863665824 85.48038960737176,65.88131519799936 86.09045727096964,64.53928173534223 87.03606214944739,61.04290700666024 87.40210274769925,59.91275814111577 88.13418394385371,58.11157577345148 88.50022454198916,56.80482976831263 88.89676852338016,55.78061999756028 89.2018023552373,55.180219759844476 89.35431927104946,54.89767811176716 89.7813666354632,54.40322967371321 89.90338016813621,54.12068739256938 90.39143429917749,52.460746841155924 91.30653579439968,50.235707679530606 91.85559669160284,49.10552358959103 92.25214067287743,47.69278829661198 92.67918803740758,46.668551609880524 93.07573201868217,45.43239985499531 93.44177261693403,44.58475039014593 93.80781321506947,43.87837425307953 94.02133689727634,43.70177999394946 94.38737749529537,43.7370988529583 97.40721243002918,44.62006915922393 97.86476317758206,44.8319816981093 98.5053342244355,44.51411284127971 99.51194586930797,42.88944524351973 100.45755074778572,41.51200370807783 100.94560487847775,40.840940464666346 101.46416239254177,40.275833568157395 102.6842977196211,39.25157497031614 104.75852777576074,37.87411898173741 106.0396698693512,37.23836821803707 106.61923414969351,37.06177057669265 107.07678489736281,37.06177057669265 107.4123221123591,36.602616288437275 107.4123221123591,36.42601832340006 108.20541007479187,35.896223888441455 108.35792699083686,35.43706805651891 108.57145067304373,33.49447896212223 108.66296082246117,33.282559493294684 108.99849803745747,33.0 110.58467396278866,33.45915905959555 111.0727280935971,33.529798860952724 114.5501137758838,33.635758535936475 115.67873895354569,33.81235792231746 115.77024910307955,33.882997651729966 115.89226263563614,34.024277067306684 116.04477955156472,34.73067328159232 116.01427616842557,35.119190585945034 115.89226263563614,35.57834683873807 115.9227660188917,35.86090423070709 116.19729646749329,35.896223888441455 116.59384044876788,33.67107842038968 116.7768607478356,33.45915905959555 117.17340472899377,33.423839153459994 117.35642502829432,33.49447896212223 117.47843856096733,33.74171817864408 117.5699487105012,35.119190585945034 117.66145886003505,35.43706805651891 117.78347239282448,35.648986208369024 118.21051975723822,35.86090423070709 119.21713140211068,36.178781021153554 119.76619229931384,36.178781021153554 120.193239663844,36.072822123387596" stroke="#4dd2ff" stroke-linecap="round" stroke-linejoin="round" stroke-width="0.5"><title>2023-04-09 2.8km</title></polyline><polyline fill="none" points="174.1230769236572,33.608485779259354 173.39615384628996,37.09536456235219 173.1884615388699,37.456075572641566 172.8769230772741,37.57631255185697 173.2923076930456,37.09536456235219 174.22692307690158,38.77868166763801 174.0192307694815,40.94294299033936 173.81153846206143,41.66436254943255 173.2923076930456,42.26554517878685 173.2923076930456,44.55003637750633 173.6038461541757,45.99287064583041 172.56538461567834,49.23924130236264 172.15000000037253,50.08089149661828 171.31923076929525,50.922541090869345 171.31923076929525,51.16301229340024 171.73461538506672,51.28324787609745 171.31923076929525,51.28324787609745 171.00769230769947,51.88442560681142 169.9692307692021,54.64983922394458 168.51538461539894,56.57360139768571 167.58076923107728,58.617595272138715 167.37307692319155,59.218769267899916 167.47692307736725,60.06041234720033 167.89230769267306,60.661585608148016 167.9961538463831,61.02228941745125 166.4384615388699,65.59119479788933 164.4653846155852,70.2803161443444 164.4653846155852,70.64101701485924 164.67307692300528,70.64101701485924 165.6076923077926,69.79938147880603 165.50384615454823,71.96358593076002 164.77692307718098,72.92545330210123 164.25769230816513,74.9694188652793 162.59615384647623,74.36825289053377 161.14230769313872,74.12778641504701 160.83076923107728,74.2480196589604 160.83076923107728,74.72895251202863 161.03846153896302,74.00755315891001 160.72692307736725,73.64685331680812 158.33846153877676,72.2040528471116 156.36538461549208,71.3624184250366 154.80769230797887,71.24218488740735 154.4961538463831,71.96358593076002 154.18461538478732,70.2803161443444 155.22307692328468,67.87564085761551 155.22307692328468,67.39470521232579 153.97692307736725,67.99587473808788 153.6653846153058,67.99587473808788 153.87307692319155,67.7554069646867 153.87307692319155,68.11610860633664 153.14615384628996,69.79938147880603 153.3538461541757,70.03984883590601 153.7692307694815,69.67914778168779 153.97692307736725,70.76125061395578 153.6653846153058,70.52078340330627 151.90000000037253,70.64101701485924 151.06923076929525,70.2803161443444 149.92692307708785,69.67914778168779 149.8230769233778,69.67914778168779 149.8230769233778,69.91961516358424 150.23846153868362,70.03984883590601 150.65384615398943,69.91961516358424 150.9653846155852,69.67914778168779 150.9653846155852,69.0779791129753 150.75769230816513,68.35657630674541 149.61538461595774,67.51493914215825 148.68076923117042,67.27447127026971 146.50000000046566,67.51493914215825 142.34615384647623,65.71142891119234 140.78846153849736,65.23049238463864 138.50384615408257,66.31259929446969 137.25769230769947,67.39470521232579 136.3230769233778,67.7554069646867 137.36153846187517,67.87564085761551 138.81538461567834,67.27447127026971 136.84230769239366,67.7554069646867 136.63461538450792,67.7554069646867 136.53076923126355,68.11610860633664 137.15384615398943,68.83751155983191 137.36153846187517,69.31844661722425 137.0500000002794,71.0017177752452 137.67307692300528,71.24218488740735 139.23076923098415,71.48265195079148 138.0884615383111,71.84335245424882 136.3230769233778,72.80521992372815 135.59615384647623,73.40638669452164 134.76538461539894,74.84918569494039 134.45384615426883,75.57058453396894 134.5576923075132,75.93128378817346 134.5576923075132,75.69081763084978 133.0,78.33594266639557 133.31153846159577,78.69664107554127 134.2461538463831,79.29780484596267 136.84230769239366,80.01920096669346 140.78846153849736,82.30361910699867 142.86538461549208,83.02501339104492 144.11153846187517,83.14524572866503 144.31923076929525,83.02501339104492 143.90384615398943,82.78454867866822 143.90384615398943,82.66431630437728 145.4615384619683,81.70245686720591 147.2269230778329,79.65850296174176 148.57692307746038,76.7729149524821 150.13461538497359,76.17174989625346 150.65384615398943,75.81105071539059 158.33846153877676,79.0573393747909 162.80384615436196,80.13943361060228 163.0115384622477,80.50013146898709 165.7115384619683,82.06315424805507 172.8769230772741,85.0689614682924 174.43461538432166,84.22733621823136 175.57692307746038,84.22733621823136 178.38076923135668,85.67012199398596 179.6269230772741,85.91058611869812 180.56153846206143,85.54988991329446 181.91153846215457,84.1071039903909 182.53461538488045,84.1071039903909 184.50769230816513,84.82849717221688 187.0,86.39151422085706" stroke="#4dd2ff" stroke-linecap="round" stroke-linejoin="round" stroke-width="0.5"><title>2023-04-09 2.5km</title></polyline><polyline fill="none" points="22.272955542313866,104.47107529619825 21.82020195107907,104.55185633222573 20.84504036977887,105.56161788641475 17.640938031719998,107.54074302548543 17.60611083242111,108.67166721305693 17.431974835693836,109.35829817168997 17.675765231018886,110.0853178827092 18.024037224357016,110.7315564994642 18.825062808929943,111.90286129101878 19.765397190698422,113.4376691954676 21.959510748274624,117.27466280170484 22.969499528873712,119.37489611038473 23.700870714732446,120.58656408116804 23.87500671145972,121.35395186880487 25.233267485164106,122.76755703927483 26.487046660855412,124.90814950101776 27.392553843325004,126.88717746984912 27.880134633975103,127.61416483987705 29.16874100919813,129.43162739725085 30.666310580214486,131.7337346035929 31.328027367475443,133.10691495484207 32.686288141296245,135.3686133379524 32.75594254001044,135.65132472314872 32.686288141296245,135.9744232009689 33.94006731710397,137.2668144624913 38.53725762828253,145.2633911529847 38.78104802360758,145.78841323935194 38.88552962162066,146.39420708519174 39.37311041227076,147.0 39.54724640888162,147.0 42.472731152316555,144.4152770745277 43.27375673688948,143.60754768396146 46.12958708172664,141.3458965831378 47.94060144666582,140.13429244043073 51.49297577829566,137.1860401328886 52.43331016006414,136.58023213248816 54.4532877211459,134.8435773702513 56.36878368409816,133.38962796260603 59.677367620170116,130.36054946732474 61.07045559328981,128.78541944839526 61.45355478581041,128.421927011339 62.01078997529112,127.73532927123597 62.25458037038334,126.88717746984912 62.49837076570839,125.31203356722835 62.56802516442258,124.5042650209507 62.49837076570839,124.18115713875159 60.82666519796476,121.03084140349529 58.98082363361027,118.12283529323759 56.612574079306796,113.7203963152715 56.02051169076003,112.751045345678 54.3488061230164,109.76219817672973 53.26916294405237,107.98503505781991 52.32882856205106,106.08669287181692 51.24918538285419,104.43068477199995 50.55264139629435,103.05740448299912 49.4729982172139,101.19942941435147 46.44303187553305,95.7062344859005 45.32856149727013,93.92900796374306 44.94546230463311,93.52509172700229 44.07478232134599,93.16156675975071 43.06479354086332,93.0 42.54238555091433,93.04039169609314 41.74135996645782,93.3231334532029 38.15415843576193,95.50427733035758 34.427648107521236,97.64501791229122 33.59179532376584,98.25088577638962 31.74595375941135,99.38183662979282 27.497035441338085,101.80529181248858 24.571550698019564,103.29974841122748 23.59638911660295,103.9459981576656 23.10880832618568,104.147950986051 22.725709133548662,104.22873208846431" stroke="#ffbb00" stroke-linecap="round" stroke-linejoin="round" stroke-width="0.5"><title>2023-04-09 4.1km</title></polyline><polyline fill="none" points="85.74061799421906,114.60010629496537 86.0316257905215,118.98761056805961 86.0316257905215,126.75010380311869 88.65069595351815,123.0376093222294 92.4337973035872,120.00011072354391 95.0528674684465,118.98761056805961 102.03705457039177,117.6376098759938 106.11116371490061,114.93760683084838 107.5662026964128,110.8875981126912 107.5662026964128,107.17508574179374 106.69317930936813,104.13757250783965 104.9471325315535,101.77506027533673 102.91007795929909,100.08755050064065 100.29100779630244,99.07504422077909 98.54496102035046,99.07504422077909 96.50790644809604,99.41254634852521 89.8147271387279,102.45006394316442 83.41255562752485,102.45006394316442 82.2485244423151,103.80007086391561 81.37550105340779,106.50008304370567 81.66650885157287,108.86259188433178 84.28557901456952,112.2376015719492 94.17984407953918,118.65011044638231 106.98418710380793,114.2626057243906 109.60325726866722,114.2626057243906 108.73023387975991,112.2376015719492 107.5662026964128,110.8875981126912 105.23814032785594,109.53759409766644 102.6190701648593,108.86259188433178 99.41798440739512,108.52509072469547 91.85178171284497,108.86259188433178 86.32263358682394,107.85008830251172 80.79348546266556,108.18758953060023 84.8675946071744,109.53759409766644 89.52371934242547,114.2626057243906 92.14278950728476,114.93760683084838 102.32806236855686,114.93760683084838 106.69317930936813,113.5876044780016 108.14821828901768,112.57510234997608 108.43922608345747,110.8875981126912 107.85721049271524,106.1625816419255 108.14821828901768,106.50008304370567 107.85721049271524,105.82508020545356 102.6190701648593,102.78756572585553 99.41798440739512,102.11256212671287 98.25395322404802,102.11256212671287 93.01581289432943,104.47507411637343 91.85178171284497,104.13757250783965 88.06868036463857,98.73754205740988 88.06868036463857,97.38753306213766 88.65069595351815,97.05003072577529 92.14278950728476,95.36251852917485 99.12697661109269,93.0 102.6190701648593,93.0 104.07410914450884,94.3500107950531 104.9471325315535,95.70002103713341 104.9471325315535,99.75004844227806 101.45503897964954,108.18758953060023 98.25395322404802,113.25010380335152 95.63488305918872,113.92510511772707 91.26976611837745,109.53759409766644 86.32263358682394,106.83758440916426 84.8675946071744,106.83758440916426 83.12154783122241,107.51258703903295 81.37550105340779,109.53759409766644 80.79348546266556,110.550097160507 81.66650885157287,110.8875981126912 86.32263358682394,110.550097160507 87.77767256647348,112.2376015719492 88.35968815907836,117.6376098759938 86.90464917942882,122.36260987515561 86.90464917942882,128.43759991019033 88.06868036463857,130.80009300704114 90.39674273133278,132.15008830139413 92.4337973035872,132.8250857410021 103.49209355190396,131.47509072325192 109.02124167606235,132.8250857410021 111.64031184092164,134.85007722955197 113.38635861687362,137.88756212592125 112.80434302426875,140.92504421900958 111.64031184092164,142.27503536222503 100.0,145.65001079509966 95.63488305918872,144.63751852861606 93.5978284869343,143.28752835420892 91.85178171284497,140.58754634740762 89.52371934242547,138.225060274126 88.35968815907836,134.85007722955197 88.35968815907836,131.47509072325192 90.68775052763522,125.06260683014989 90.39674273133278,122.36260987515561 88.94170375168324,120.00011072354391 83.70356342382729,114.2626057243906 82.2485244423151,111.22509902855381 82.2485244423151,108.18758953060023 83.41255562752485,105.48757873498835 85.74061799421906,102.78756572585553 92.72480509988964,100.76255451468751 100.0,97.05003072577529 102.91007795929909,97.05003072577529 106.11116371490061,98.06253762869164 108.14821828901768,100.08755050064065 109.02124167606235,102.11256212671287 108.73023387975991,108.18758953060023 107.27519490011036,111.9001007580664 105.23814032785594,113.92510511772707 103.20108575560153,114.93760683084838 93.30682069249451,117.97511010058224 91.26976611837745,118.31261029024608 89.23271154798567,116.9626093225088 85.74061799421906,112.91260309470817 82.53953223861754,110.8875981126912 81.37550105340779,108.86259188433178 81.95751664787531,105.82508020545356 83.99457121826708,103.46256918483414 94.17984407953918,97.72503536264412 96.50790644809604,97.05003072577529 100.58201559074223,97.38753306213766 105.23814032785594,98.73754205740988 107.85721049271524,100.76255451468751 109.02124167606235,103.12506747292355 109.31224947422743,106.50008304370567 109.02124167606235,108.86259188433178 107.85721049271524,112.2376015719492 106.40217151120305,114.60010629496537 101.1640311833471,117.6376098759938 88.65069595351815,122.70010961592197 86.90464917942882,124.05010823230259 86.32263358682394,127.08760309335776 87.77767256647348,138.225060274126 88.94170375168324,141.93753762799315 90.68775052763522,143.9625235113781 93.5978284869343,145.31251340731978 101.45503897964954,147.0 103.49209355190396,147.0 105.23814032785594,146.32500546681695 110.1852728612721,142.27503536222503 111.05829624831676,136.87506747152656 111.64031184092164,135.86257250607014 114.25938200578094,133.83758164057508 118.33349115028977,131.81258952943608 119.20651453733444,130.80009300704114 118.62449894472957,129.7875961731188 117.7514755576849,129.45009715901688 110.76728845201433,129.11259811092168" stroke="#4dd2ff" stroke-linecap="round" stroke-linejoin="round" stroke-width="0.5"><title>2023-04-06 2.2km</title></polyline><polyline fill="none" points="138.20089960470796,98.89093868480995 143.2803016398102,100.85458330251276 147.08985316567123,104.29095944575965 147.08985316567123,105.27278074808419 145.39671915210783,107.23642274783924 140.74060062132776,107.23642274783924 141.16388412564993,107.72733312286437 147.08985316567123,103.30913794366643 151.3226881902665,103.80004872009158 156.40209022536874,102.32731623668224 161.481492260471,97.41820469358936 165.29104378446937,96.43638178054243 169.94716231524944,97.90911607351154 176.29641485773027,103.80004872009158 178.4128323700279,108.21824344620109 180.10596638172865,114.10916340863332 176.7196983601898,122.94552976312116 175.0265643466264,123.9273472391069 163.1746262703091,123.9273472391069 158.518507739529,124.90916451625526 155.13223971612751,123.43643852649257 148.35970367118716,115.58189226686954 140.3173171170056,112.14552422706038 138.20089960470796,108.21824344620109 140.3173171170056,104.78187012113631 144.1268686428666,103.30913794366643 151.74597169458866,103.30913794366643 161.9047757629305,97.41820469358936 165.29104378446937,96.43638178054243 169.52387881278992,97.41820469358936 171.64029632508755,98.89093868480995 177.98954886756837,105.76369132334366 179.2593993768096,108.70915372110903 180.10596638172865,113.61825368879363 179.68268288113177,118.52734862454236 178.4128323700279,120.98189420439303 174.60328084602952,122.94552976312116 167.83074480108917,122.94552976312116 156.40209022536874,124.41825590282679 140.74060062132776,111.16370433336124 140.3173171170056,110.18188424082473 141.16388412564993,107.72733312286437 150.0528376828879,101.34549433225766 164.8677602801472,96.9272932629101 170.7937293201685,98.40002740547061 177.56626536510885,105.27278074808419 178.4128323700279,106.745512324851 179.68268288113177,114.60007307771593 179.2593993768096,119.01825784053653 176.7196983601898,122.45462094945833 172.06357982940972,123.9273472391069 161.9047757629305,122.45462094945833 155.5555232204497,123.43643852649257 153.01582220196724,121.96371208457276 150.8994046896696,118.03643935825676 147.5131366662681,115.09098269836977 142.85701813548803,112.63643409823999 141.16388412564993,111.16370433336124 139.47075011394918,106.25460184924304 141.16388412564993,102.32731623668224 144.55015214718878,100.85458330251276 147.5131366662681,100.85458330251276 151.3226881902665,102.81822711555287 156.82537372782826,101.83640530984849 162.3280592635274,101.34549433225766 167.40746129862964,98.40002740547061 170.7937293201685,97.41820469358936 173.3334303367883,98.40002740547061 179.2593993768096,103.80004872009158 180.52924988605082,107.72733312286437 180.95253338851035,111.16370433336124 180.10596638172865,115.09098269836977 178.83611587248743,118.03643935825676 175.44984785094857,120.00007612304762 156.40209022536874,124.41825590282679 142.85701813548803,115.58189226686954 139.8940336164087,110.67279431084171 139.8940336164087,109.20006394386292 141.5871676262468,103.80004872009158 144.1268686428666,102.32731623668224 149.62955417856574,103.80004872009158 154.2856727130711,102.81822711555287 161.9047757629305,98.89093868480995 165.7143272869289,97.90911607351154 168.2540283035487,97.90911607351154 171.21701282262802,99.3818499147892 176.29641485773027,103.80004872009158 177.56626536510885,106.745512324851 178.83611587248743,112.63643409823999 178.4128323700279,118.52734862454236 176.7196983601898,120.98189420439303 174.17999734170735,122.45462094945833 158.09522423893213,124.41825590282679 152.5925386995077,121.96371208457276 142.85701813548803,115.09098269836977 140.74060062132776,113.1273439200595 139.8940336164087,111.16370433336124 139.8940336164087,108.21824344620109 141.5871676262468,101.34549433225766 143.70358514226973,100.36367222387344 148.35970367118716,100.85458330251276 150.8994046896696,99.87276109447703 160.21164175122976,93.98182361805812 164.44447677768767,93.0 168.67731180600822,93.98182361805812 175.0265643466264,98.89093868480995 177.14298186264932,102.81822711555287 177.98954886756837,109.20006394386292 176.29641485773027,116.07280178647488 172.91014683432877,118.52734862454236 165.7143272869289,119.50916700763628 158.518507739529,119.50916700763628 155.13223971612751,118.03643935825676 151.74597169458866,117.05462067155167 145.82000265456736,114.60007307771593 143.2803016398102,112.63643409823999 142.4337346330285,109.6909741172567 143.2803016398102,105.76369132334366 144.9734356496483,103.30913794366643 150.47612118721008,105.27278074808419 157.2486572302878,104.78187012113631 163.1746262703091,96.43638178054243 165.29104378446937,95.45455866586417 168.67731180600822,96.43638178054243 175.44984785094857,101.34549433225766 178.4128323700279,105.27278074808419 180.10596638172865,109.6909741172567 180.10596638172865,114.60007307771593 179.2593993768096,117.54553003888577 177.56626536510885,119.50916700763628 174.17999734170735,120.98189420439303 158.09522423893213,122.94552976312116 155.5555232204497,122.45462094945833 152.5925386995077,120.00007612304762 150.8994046896696,120.49098518816754 143.70358514226973,118.03643935825676 140.3173171170056,114.10916340863332 138.62418310716748,109.20006394386292 138.62418310716748,105.76369132334366 140.74060062132776,103.80004872009158 142.85701813548803,103.30913794366643 147.93642016872764,103.80004872009158 154.2856727130711,101.83640530984849 159.7883582469076,100.85458330251276 165.7143272869289,97.41820469358936 169.94716231524944,98.89093868480995 175.87313135527074,105.76369132334366 177.56626536510885,111.16370433336124 177.98954886756837,117.54553003888577 177.56626536510885,120.00007612304762 175.87313135527074,122.45462094945833 173.3334303367883,123.43643852649257 167.40746129862964,122.94552976312116 162.3280592635274,123.43643852649257 151.3226881902665,130.30915593449026 150.47612118721008,132.76369547611102 151.3226881902665,143.56365450751036 152.5925386995077,145.03637430723757 154.708956213668,146.509093652945 161.9047757629305,146.01818725466728 166.98417779430747,147.0 169.94716231524944,146.509093652945 177.98954886756837,142.0909342560917 181.7991003934294,141.1091205039993" stroke="#4dd2ff" stroke-linecap="round" stroke-linejoin="round" stroke-width="0.5"><title>2023-04-04 2.2km</title></polyline><polyline fill="none" points="33.70793502777815,182.91902014054358 32.13491878658533,182.5541555567179 31.505712289363146,183.2838846880477 30.87650579214096,184.3784781047143 31.505712289363146,186.2027997164987 32.76412528194487,186.2027997164987 41.25841299444437,178.90550765627995 54.47174943052232,174.1622597933747 55.73016242496669,172.70279764034785 56.04476567171514,170.51360328891315 55.10095592588186,163.58114562602714 54.47174943052232,161.3919456631411 51.95492344349623,158.47301028575748 46.606668217107654,154.09460272896104 43.77523897960782,153.0 40.31460324861109,154.09460272896104 33.3933317810297,158.10814319527708 30.247299294918776,158.10814319527708 27.73047330789268,157.7432760670781 24.899044070392847,159.20274435495958 23.95523432455957,161.0270788720809 23.640631077811122,162.12167913396843 24.269837573170662,162.85141245578416 29.61809279769659,167.22980923764408 34.96634802222252,173.7973943115212 39.370793502777815,175.98658664221875 47.86508120968938,175.98658664221875 56.04476567171514,174.5271252382081 57.61778191663325,173.06766323419288 56.98857541754842,171.24333489011042 56.673972168937325,167.22980923764408 53.527939684689045,162.85141245578416 49.752700701355934,160.66221204423346 41.57301624119282,159.56761133274995 35.28095127083361,160.66221204423346 30.87650579214096,160.29734517843463 26.47206031344831,155.18920512404293 23.32602782920003,153.72973519028164 21.438408337533474,154.09460272896104 21.12380508892238,154.45947023155168 21.12380508892238,155.91893986635841 24.899044070392847,159.93247827445157 29.303489549085498,163.58114562602714 34.651744773611426,174.1622597933747 38.42698375694454,177.44604744878598 41.88761948980391,179.63523753592744 46.606668217107654,178.90550765627995 51.95492344349623,176.351451900322 54.157146180048585,174.1622597933747 55.4155591763556,171.9730663395021 55.4155591763556,165.77034424082376 54.47174943052232,162.85141245578416 53.527939684689045,161.3919456631411 48.17968446016312,158.10814319527708 44.08984223008156,157.01354169868864 41.57301624119282,157.37840890185907 37.16857076250017,159.56761133274995 32.76412528194487,159.93247827445157 28.98888630233705,159.20274435495958 24.899044070392847,162.48654581350274 24.584440821781754,165.04061151994392 25.213647320866585,167.5946753937751 26.47206031344831,169.0541396404151 32.13491878658533,171.24333489011042 36.22476101666689,177.81091255624779 37.79777725972235,178.17577762762085 48.17968446016312,177.08118230383843 52.269526690244675,175.6217213468626 53.84254293330014,173.7973943115212 54.786352679133415,171.9730663395021 55.4155591763556,168.32440759125166 55.10095592588186,164.310878647957 54.47174943052232,162.12167913396843 52.89873318746686,159.56761133274995 49.123494205996394,155.91893986635841 45.34825522266328,154.45947023155168 43.46063573099673,154.82433769712225 35.91015776991844,158.83787733968347 31.505712289363146,159.20274435495958 28.35967980325222,157.7432760670781 26.47206031344831,158.47301028575748 25.213647320866585,159.56761133274995 24.899044070392847,161.0270788720809 25.528250567615032,163.21627905848436 29.303489549085498,166.13521054643206 32.13491878658533,168.68927363399416 34.651744773611426,175.6217213468626 37.79777725972235,176.351451900322 45.66285847313702,176.351451900322 51.64032019302249,174.5271252382081 53.527939684689045,172.70279764034785 54.786352679133415,170.14873743290082 55.10095592588186,168.32440759125166 54.47174943052232,163.94601215492003 53.84254293330014,162.48654581350274 51.95492344349623,160.66221204423346 49.752700701355934,159.56761133274995 42.83142923563719,158.47301028575748 31.191109040752053,160.66221204423346 26.786663562059402,158.47301028575748 24.269837573170662,160.29734517843463 23.01142457872629,162.48654581350274 23.32602782920003,164.310878647957 25.528250567615032,168.32440759125166 31.191109040752053,171.60820063343272 34.33714152686298,176.351451900322 38.1123805064708,177.44604744878598 49.43809745460749,176.716317120241 52.58412993885577,175.25685601471923 54.157146180048585,173.4325287914835 55.4155591763556,170.14873743290082 55.4155591763556,168.32440759125166 55.10095592588186,164.67574510211125 52.89873318746686,162.12167913396843 50.69651044718921,160.66221204423346 48.49428770877421,160.29734517843463 38.42698375694454,161.3919456631411 34.96634802222252,160.66221204423346 29.303489549085498,157.37840890185907 26.157457066699862,157.37840890185907 23.640631077811122,158.47301028575748 26.786663562059402,163.94601215492003 31.82031553797424,169.0541396404151 34.022538278251886,173.7973943115212 36.853967513889074,174.89199064532295 47.23587471432984,175.98658664221875 54.786352679133415,174.5271252382081 56.04476567171514,172.3379320090171 56.673972168937325,169.0541396404151 55.4155591763556,163.94601215492003 51.95492344349623,161.0270788720809 47.23587471432984,159.20274435495958 36.22476101666689,159.93247827445157 29.303489549085498,157.37840890185907 27.101266810670495,157.37840890185907 23.95523432455957,158.83787733968347 23.640631077811122,160.29734517843463 24.899044070392847,163.21627905848436 32.76412528194487,170.14873743290082 35.91015776991844,176.351451900322 37.79777725972235,178.17577762762085 39.68539674952626,178.90550765627995 49.43809745460749,177.81091255624779 54.157146180048585,175.25685601471923 56.35936892218888,173.06766323419288 56.673972168937325,170.14873743290082 54.47174943052232,162.48654581350274 53.21333643607795,160.66221204423346 45.97746171988547,153.3648676138837 44.404445476830006,153.0 41.57301624119282,154.45947023155168 38.42698375694454,158.10814319527708 36.22476101666689,159.20274435495958 33.70793502777815,159.93247827445157 25.842853816226125,159.56761133274995 23.640631077811122,160.66221204423346 24.584440821781754,162.85141245578416 26.47206031344831,164.67574510211125 32.13491878658533,169.41900560841896 35.91015776991844,174.89199064532295 36.853967513889074,175.6217213468626 39.05619025230408,176.351451900322 44.08984223008156,177.08118230383843 49.43809745460749,179.27037261542864 54.47174943052232,179.27037261542864 56.04476567171514,178.54064266127534 57.932385163381696,172.3379320090171 57.61778191663325,167.9595415107906 56.673972168937325,165.40547790029086 53.21333643607795,160.29734517843463 47.55047796294093,157.7432760670781 40.31460324861109,157.37840890185907 33.3933317810297,157.7432760670781 30.561902545392513,157.01354169868864 28.674283053725958,157.01354169868864 26.786663562059402,157.7432760670781 23.640631077811122,160.66221204423346 23.640631077811122,162.12167913396843 24.584440821781754,163.94601215492003 28.045076556503773,166.8649430447258 33.07872853241861,170.14873743290082 36.853967513889074,175.98658664221875 39.370793502777815,177.08118230383843 44.404445476830006,176.716317120241 48.17968446016312,177.44604744878598 51.3257169444114,177.08118230383843 54.157146180048585,176.351451900322 55.4155591763556,175.25685601471923 56.35936892218888,173.06766323419288 56.98857541754842,167.22980923764408 55.4155591763556,164.67574510211125 52.89873318746686,162.48654581350274 45.66285847313702,159.56761133274995 43.14603248424828,159.20274435495958 35.595554519444704,160.29734517843463 29.303489549085498,158.83787733968347 28.045076556503773,159.20274435495958 24.899044070392847,162.48654581350274 24.584440821781754,164.67574510211125 26.47206031344831,166.8649430447258 31.505712289363146,171.24333489011042 33.70793502777815,175.98658664221875 34.022538278251886,177.81091255624779 32.13491878658533,180.72983207413927 32.13491878658533,185.10820686095394 34.651744773611426,192.7703497770708 37.79777725972235,194.59466708824039 41.25841299444437,194.959530437598 48.808890955522656,193.50007681455463 54.786352679133415,193.13521331432275 57.30317866615951,194.59466708824039 58.56159166060388,196.4189834636636 58.56159166060388,197.5135728395544 56.98857541754842,200.06761340843514 50.38190719857812,202.98651467170566 46.29206496849656,205.90541354194283 43.14603248424828,207.0 41.25841299444437,206.63513788511045 38.1123805064708,205.17568904859945 36.853967513889074,199.70275058294646 36.853967513889074,197.87843589065596 37.79777725972235,196.4189834636636 43.77523897960782,191.6757589429617 46.921271465718746,190.58116777054965 56.04476567171514,185.47307118284516 58.56159166060388,185.10820686095394 58.56159166060388,187.29739223467186 58.24698841199279,187.29739223467186 58.87619490921497,186.5676639266312 58.24698841199279,185.83793546864763 58.56159166060388,186.2027997164987" stroke="#ffdb00" stroke-linecap="round" stroke-linejoin="round" stroke-width="0.5"><title>2023-04-01 3.2km</title></polyline><polyline fill="none" points="96.29289222881198,175.70074283517897 93.62377463281155,178.79628677549772 89.17524530552328,182.92367425211705 91.25122565962374,180.5160321739968 96.88602947257459,177.0765404945705 99.85171568952501,176.04469230258837 106.07965674810112,176.38864173460752 108.7487743422389,175.70074283517897 110.52818607352674,174.32494461140595 112.01102918200195,171.5733464716468 112.60416642576456,167.10199468093924 111.71446056105196,163.31853851210326 110.23161745257676,160.56693134619854 106.67279399000108,157.1274192132987 103.70710777305067,156.09556488506496 100.44485293328762,156.4395163631998 92.73406876809895,160.91088236519136 89.76838254928589,160.56693134619854 85.91299046762288,158.50322448974475 83.54044149257243,159.53507807594724 84.72671598009765,160.91088236519136 90.95465703681111,164.00643995171413 94.51348049752414,169.50964638614096 96.58946085162461,170.54149658768438 105.78308812528849,170.54149658768438 110.52818607352674,169.50964638614096 112.01102918200195,168.13384562381543 112.60416642576456,166.75804429803975 110.52818607352674,162.28668608982116 107.56249985657632,160.56693134619854 104.00367639400065,159.53507807594724 100.44485293328762,160.22298029088415 93.92034325376153,162.6306369320955 90.65808841586113,162.28668608982116 87.09926495328546,160.22298029088415 86.20955908857286,160.56693134619854 85.02328460291028,161.94273521192372 84.43014735728502,163.662489249371 85.02328460291028,165.38224240601994 91.54779428057373,169.8535964882467 95.996323607862,176.38864173460752 97.4791667163372,177.42048982088454 100.44485293328762,178.10838836873882 107.56249985657632,176.38864173460752 109.93504882976413,175.3567933323793 111.41789194010198,174.32494461140595 112.60416642576456,171.5733464716468 112.90073504857719,169.16569624864496 112.30759780295193,165.7261929323431 110.52818607352674,162.97458773921244 105.78308812528849,159.53507807594724 101.63112742081285,158.50322448974475 92.43750014714897,162.6306369320955 90.06495117209852,162.28668608982116 86.80269633233547,160.91088236519136 84.72671598009765,161.25483334832825 83.54044149257243,162.97458773921244 83.54044149257243,164.69434124883264 84.72671598009765,166.0701434223447 89.76838254928589,169.16569624864496 94.21691187657416,173.29309557401575 96.29289222881198,173.98099496704526 104.89338226057589,174.32494461140595 107.85906847938895,173.98099496704526 109.93504882976413,172.60519603895955 111.41789194010198,170.54149658768438 112.01102918200195,168.13384562381543 112.01102918200195,166.0701434223447 111.41789194010198,164.69434124883264 107.85906847938895,161.59878429793753 103.41053915210068,160.22298029088415 93.92034325376153,161.59878429793753 88.28553944267333,160.91088236519136 85.31985322386026,162.28668608982116 84.72671598009765,163.662489249371 84.72671598009765,165.03829184547067 85.91299046762288,167.10199468093924 90.95465703681111,170.88544658501633 94.51348049752414,175.3567933323793 95.996323607862,176.38864173460752 98.66544120386243,177.0765404945705 106.67279399000108,176.73259113216773 110.82475469447672,175.01284379395656 112.01102918200195,173.6370452879928 112.90073504857719,171.22939654579386 113.19730366952717,169.16569624864496 112.30759780295193,165.03829184547067 108.7487743422389,160.22298029088415 106.07965674810112,158.50322448974475 102.52083328552544,157.47137058572844 93.32720601186156,161.59878429793753 90.36151979491115,161.94273521192372 86.80269633233547,161.25483334832825 84.43014735728502,161.25483334832825 83.83701011538506,161.94273521192372 84.13357873633504,163.662489249371 85.31985322386026,165.7261929323431 88.87867668457329,169.16569624864496 91.84436290152371,173.98099496704526 94.21691187657416,176.38864173460752 98.96200982481241,178.79628677549772 104.00367639400065,178.4523375891149 108.7487743422389,176.38864173460752 111.71446056105196,172.94914582371712 112.60416642576456,169.8535964882467 112.60416642576456,160.91088236519136 105.78308812528849,158.1592732227873 100.74142155610025,157.47137058572844 93.62377463281155,161.25483334832825 86.20955908857286,161.59878429793753 83.83701011538506,162.97458773921244 83.24387287162244,164.35039061889984 84.13357873633504,166.0701434223447 88.28553944267333,168.82174607669003 91.84436290152371,173.6370452879928 93.32720601186156,174.66889422060922 101.03799017705023,175.70074283517897 106.67279399000108,175.3567933323793 109.04534296505153,174.32494461140595 110.52818607352674,172.60519603895955 111.71446056105196,170.19754655612633 112.01102918200195,167.7898953454569 110.82475469447672,165.03829184547067 104.89338226057589,159.53507807594724 102.81740190833807,159.19112691562623 100.74142155610025,159.53507807594724 92.43750014714897,162.6306369320955 89.76838254928589,162.28668608982116 86.20955908857286,160.22298029088415 85.02328460291028,160.91088236519136 84.13357873633504,162.97458773921244 84.72671598009765,166.75804429803975 86.50612771138549,169.50964638614096 92.43750014714897,172.26124621904455 96.58946085162461,176.04469230258837 97.77573533914983,176.38864173460752 102.52083328552544,175.01284379395656 108.15563709847629,174.66889422060922 110.23161745257676,173.6370452879928 112.01102918200195,171.5733464716468 112.90073504857719,168.4777958674822 113.19730366952717,165.7261929323431 112.60416642576456,161.94273521192372 111.71446056105196,159.87902920111082 109.93504882976413,157.81532192183658 107.85906847938895,156.09556488506496 104.89338226057589,155.751613372704 102.22426466271281,156.4395163631998 95.996323607862,161.59878429793753 93.92034325376153,162.6306369320955 91.25122565962374,162.6306369320955 87.9889708198607,161.25483334832825 85.31985322386026,161.59878429793753 84.13357873633504,162.6306369320955 84.13357873633504,164.00643995171413 84.72671598009765,167.10199468093924 85.61642184481025,168.4777958674822 90.95465703681111,170.54149658768438 94.21691187657416,175.3567933323793 96.88602947257459,176.38864173460752 106.96936261281371,175.70074283517897 109.6384802069515,175.01284379395656 111.41789194010198,173.29309557401575 112.60416642576456,169.8535964882467 112.30759780295193,167.44594503077678 110.52818607352674,165.03829184547067 107.2659312337637,162.97458773921244 102.52083328552544,161.94273521192372 93.92034325376153,163.662489249371 87.69240219891071,162.6306369320955 85.31985322386026,163.662489249371 84.72671598009765,165.7261929323431 85.31985322386026,167.44594503077678 86.80269633233547,168.82174607669003 93.62377463281155,172.26124621904455 95.996323607862,176.04469230258837 98.07230395823717,177.76443911297247 99.85171568952501,178.10838836873882 108.15563709847629,176.04469230258837 110.52818607352674,173.98099496704526 111.41789194010198,172.26124621904455 111.71446056105196,168.82174607669003 111.41789194010198,161.94273521192372 110.82475469447672,159.19112691562623 109.6384802069515,157.47137058572844 104.59681363776326,153.34395179455169 103.11397052928805,153.0 101.92769604176283,153.68790355394594 96.58946085162461,158.84717571991496 93.32720601186156,160.91088236519136 90.95465703681111,161.25483334832825 87.39583357609808,160.91088236519136 85.91299046762288,161.59878429793753 84.43014735728502,162.97458773921244 83.83701011538506,164.69434124883264 83.83701011538506,166.0701434223447 85.02328460291028,167.7898953454569 91.25122565962374,171.5733464716468 93.62377463281155,176.04469230258837 93.92034325376153,179.14023592625745 91.25122565962374,182.2357766921632 90.95465703681111,185.33131460170262 92.14093152433634,188.77079781936482 93.62377463281155,191.17843397287652 97.77573533914983,192.55422528414056 104.89338226057589,191.86632969952188 111.12132331728935,192.89817302441224 113.79044091328979,194.27396363182925 116.45955850929022,197.71343768108636 116.7561271302402,199.4331733819563 116.45955850929022,200.80896131019108 114.08700953423977,202.87264214246534 104.89338226057589,206.65605370537378 100.44485293328762,207.0 97.77573533914983,206.3121073753573 95.1066177431494,204.2484286588151 93.92034325376153,199.7771204172168 94.21691187657416,197.3694904341828 96.88602947257459,193.58606839855202 99.85171568952501,192.55422528414056 106.07965674810112,193.24212072975934 111.12132331728935,188.4268496565055 115.273284021765,187.39500495512038" stroke="#ffde00" stroke-linecap="round" stroke-linejoin="round" stroke-width="0.5"><title>2023-03-31 3.1km</title></polyline><polyline fill="none" points="157.33802816830575,191.24650084786117 156.5774647872895,193.8927162680775 151.63380281627178,197.86203634692356 147.8309859149158,198.74410697678104 144.02816901355982,198.30307168420404 143.6478873230517,197.4210009626113 147.45070422440767,191.68753686454147 153.9154929574579,186.3951016832143 156.5774647872895,185.51302851969376 165.70422535203397,184.1899184351787 169.88732394389808,181.54369704704732 171.78873239271343,177.57436191197485 172.1690140850842,173.16398524446413 171.4084507022053,167.87152727367356 169.5070422515273,163.46114065824077 167.98591549135745,161.25594565551728 162.28169013932347,157.2865918003954 155.43661971762776,155.96347303362563 153.9154929574579,156.84555225772783 150.11267605610192,161.69698474556208 146.69014084339142,164.34321834379807 140.60563380271196,166.54841176373884 133.7605633791536,170.95879521407187 136.42253521084785,174.48709872039035 144.40845070406795,178.45643670205027 151.25352112576365,184.1899184351787 153.53521126694977,184.63095517549664 164.94366196915507,183.30784482089803 171.78873239271343,181.1026599900797 173.30985915474594,178.01539932982996 172.54929577372968,172.2819093670696 169.12676056288183,167.43048881553113 155.8169014081359,162.57906279247254 147.45070422440767,164.7842571171932 142.88732394389808,164.34321834379807 140.2253521103412,163.46114065824077 135.66197182796896,165.22529584774747 135.66197182796896,167.43048881553113 136.80281689949334,169.63568065408617 145.9295774642378,178.01539932982996 150.49295774661005,185.51302851969376 153.9154929574579,187.71821108972654 156.95774647779763,187.71821108972654 167.60563380271196,184.1899184351787 172.1690140850842,180.22058574249968 174.07042253389955,176.69228693982586 172.54929577372968,168.3125656871125 167.60563380271196,166.9894503117539 163.42253521084785,161.69698474556208 156.95774647779763,160.81490651797503 153.9154929574579,161.25594565551728 145.54929577372968,165.22529584774747 139.08450704067945,164.7842571171932 134.90140844881535,167.87152727367356 136.80281689949334,170.51775707304478 142.88732394389808,173.60502311447635 145.54929577372968,176.25124938646331 148.21126760356128,180.66162288887426 150.11267605610192,182.4257710245438 154.67605633847415,183.30784482089803 164.5633802805096,182.4257710245438 166.46478873118758,181.54369704704732 169.5070422515273,178.89747403142974 172.1690140850842,172.72294732835144 172.54929577372968,170.51775707304478 171.02816901355982,164.34321834379807 170.6478873230517,159.4917888380587 169.12676056288183,158.60971015831456 160.7605633791536,158.60971015831456 152.39436619728804,163.90217952430248 147.45070422440767,165.22529584774747 144.78873239271343,164.7842571171932 139.46478873118758,162.1380237918347 138.32394366152585,163.46114065824077 135.28169013932347,168.7536040553823 138.70422535017133,172.2819093670696 145.54929577372968,175.3691741428338 148.21126760356128,179.33851131331176 149.35211267508566,182.4257710245438 150.87323943525553,183.74888165062293 161.14084506966174,184.1899184351787 167.2253521103412,182.8668079455383 169.5070422515273,181.54369704704732 170.6478873230517,180.66162288887426 172.1690140850842,176.69228693982586 172.54929577372968,174.0460609397851 171.78873239271343,170.95879521407187 169.12676056288183,167.87152727367356 166.08450704067945,165.66633453266695 160.7605633791536,163.46114065824077 156.95774647779763,162.57906279247254 147.07042253389955,165.22529584774747 141.7464788723737,163.46114065824077 136.80281689949334,165.22529584774747 137.94366196915507,167.43048881553113 140.2253521103412,170.07671888545156 146.30985915474594,174.92813645396382 150.11267605610192,181.9847340588458 151.63380281627178,183.30784482089803 155.056338025257,185.07199187064543 164.94366196915507,184.1899184351787 171.02816901355982,181.54369704704732 172.54929577372968,175.81021178653464 171.02816901355982,169.63568065408617 166.08450704067945,165.22529584774747 164.94366196915507,162.57906279247254 157.33802816830575,161.25594565551728 149.35211267508566,164.7842571171932 145.9295774642378,165.22529584774747 141.36619718186557,164.7842571171932 139.08450704067945,163.46114065824077 137.18309859000146,166.54841176373884 135.66197182796896,170.51775707304478 137.18309859000146,174.48709872039035 144.40845070406795,177.57436191197485 148.5915492940694,182.8668079455383 150.11267605610192,184.1899184351787 155.056338025257,185.07199187064543 161.90140844881535,185.07199187064543 167.60563380271196,183.30784482089803 171.02816901355982,179.77954855002463 171.4084507022053,177.57436191197485 171.02816901355982,174.0460609397851 167.98591549135745,168.3125656871125 162.28169013932347,165.66633453266695 156.5774647872895,163.90217952430248 148.5915492940694,165.66633453266695 140.60563380271196,162.1380237918347 137.94366196915507,163.46114065824077 133.38028168864548,163.90217952430248 133.38028168864548,165.66633453266695 136.42253521084785,168.7536040553823 145.54929577372968,173.16398524446413 146.69014084339142,175.81021178653464 148.5915492940694,182.8668079455383 150.87323943525553,184.63095517549664 158.85915492661297,183.74888165062293 164.94366196915507,184.1899184351787 170.6478873230517,181.54369704704732 172.54929577372968,177.57436191197485 172.9295774642378,174.92813645396382 169.88732394389808,167.43048881553113 164.5633802805096,164.34321834379807 159.23943661898375,163.02010174794123 147.45070422440767,165.22529584774747 140.60563380271196,164.34321834379807 137.94366196915507,165.22529584774747 134.90140844881535,168.3125656871125 135.66197182796896,170.95879521407187 138.70422535017133,173.60502311447635 142.88732394389808,176.25124938646331 148.21126760356128,184.1899184351787 149.73239436373115,185.07199187064543 163.42253521084785,184.63095517549664 169.5070422515273,182.4257710245438 171.78873239271343,176.69228693982586 171.4084507022053,169.63568065408617 172.1690140850842,165.66633453266695 166.8450704216957,161.69698474556208 156.95774647779763,158.60971015831456 155.8169014081359,159.05074952170253 153.15492957644165,163.02010174794123 148.21126760356128,164.7842571171932 141.7464788723737,164.34321834379807 138.70422535017133,162.57906279247254 136.04225352033973,163.90217952430248 133.0,164.34321834379807 133.38028168864548,167.43048881553113 135.66197182796896,172.2819093670696 136.42253521084785,172.72294732835144 138.32394366152585,171.84087136294693 143.26760563254356,173.16398524446413 145.54929577372968,176.69228693982586 149.35211267508566,183.74888165062293 152.01408450491726,185.51302851969376 163.80281689949334,185.51302851969376 168.7464788723737,182.8668079455383 171.78873239271343,178.89747403142974 171.78873239271343,174.48709872039035 171.02816901355982,170.51775707304478 169.88732394389808,168.7536040553823 166.8450704216957,165.66633453266695 162.66197182796896,163.90217952430248 156.19718309864402,164.34321834379807 144.40845070406795,167.87152727367356 142.12676056101918,166.9894503117539 139.46478873118758,164.34321834379807 135.28169013932347,166.9894503117539 135.28169013932347,169.19464237615466 136.04225352033973,170.95879521407187 140.98591549135745,173.60502311447635 145.54929577372968,178.45643670205027 146.30985915474594,184.63095517549664 144.78873239271343,186.83613819628954 142.12676056101918,189.48235632944852 141.36619718186557,191.24650084786117 143.26760563254356,196.09789454052225 143.6478873230517,197.86203634692356 146.69014084339142,203.15445742057636 149.73239436373115,204.03652696637437 155.056338025257,203.59549221629277 177.4929577447474,200.94928276445717 183.95774647966027,200.0672125853598 187.0,198.74410697678104 184.71830985881388,197.86203634692356 180.9154929574579,197.4210009626113" stroke="#ffe000" stroke-linecap="round" stroke-linejoin="round" stroke-width="0.5"><title>2023-03-30 3.1km</title></polyline><polyline fill="none" points="13.380281689576805,252.1287418116117 13.475352112203836,252.1287418116117 13.6654929574579,252.01848278485704 14.521126760169864,252.1287418116117 15.47183098550886,252.7902957344195 16.80281690089032,252.01848278485704 17.94366197148338,252.01848278485704 19.17957746470347,252.23900082695764 20.795774647500366,252.1287418116117 23.552816901355982,251.4671874816995 25.739436619449407,251.35692838742398 26.59507042169571,250.9158918961184 26.785211267415434,250.14407760137692 26.785211267415434,248.1594097284833 25.739436619449407,245.51318020094186 24.883802816737443,241.3233034653822 23.933098591398448,239.55913995660376 21.271126760635525,236.14106492255814 20.89084507059306,235.25897927919868 20.98591549275443,234.37689291255083 23.077464788686484,232.17167383024935 25.549295774661005,230.18697278946638 31.633802816737443,226.87912958289962 36.19718309817836,224.8944187745219 45.70422535203397,223.35075228032656 50.838028168771416,222.0276078071911 55.116197182796896,220.26341264438815 56.257042253389955,220.26341264438815 57.11267605610192,221.03524838434532 58.82394366199151,223.2404903032584 61.96126760542393,228.20226808649022 63.48239436605945,231.3998460827861 64.71830985927954,233.38454488501884 65.19366197148338,234.70767538482323 66.61971830995753,237.46419203083497 66.80985915474594,238.67705711675808 66.61971830995753,240.22070161136799 66.049295774661,241.10278318519704 65.19366197148338,242.09512409055606 62.72183098550886,243.7490235650912 60.7253521126695,244.74136202887166 56.63732394389808,245.84395924815908 52.16901408415288,247.05681488336995 48.17605633800849,247.38759345572907 41.71126760542393,248.6004473499488 38.19366197194904,248.93122544744983 29.352112676016986,250.80563274491578 27.926056338008493,250.6953735826537 27.260563380084932,250.14407760137692 26.690140844788402,248.93122544744983 24.503521126694977,241.43356358876918 22.697183098178357,238.34627586556599 21.366197182796896,237.0231498425128 20.98591549275443,236.25132557738107 20.98591549275443,235.58976148045622 21.556338027585298,234.5974145717919 22.79225352127105,233.16402297688182 24.978873239364475,230.958801407367 26.404929576907307,229.7459276166046 31.158450704067945,227.09965277963784 35.62676056288183,225.44572770001832 42.09154929546639,224.12258580431808 44.94366197194904,223.90206199709792 50.647887323983014,222.6891802472528 51.978873239364475,222.24813199939672 55.40140845021233,220.48393719783053 56.352112676016986,220.48393719783053 56.922535211313516,221.03524838434532 58.53873239457607,223.0199663147796 60.059859154745936,225.77651291934308 61.96126760542393,228.42279101221357 63.19718309864402,231.06906259339303 64.62323943618685,233.38454488501884 67.0,238.12575497454964 66.90492957737297,240.8822628594935 66.42957746516913,241.7643438903615 65.38380281627178,242.53616419923492 62.53169014072046,243.96954330254812 61.29577464796603,244.96188156295102 60.34507042262703,245.29266077955253 54.26056338008493,246.50551703677047 52.549295774661005,247.05681488336995 45.228873239364475,248.04915029508993 43.517605633474886,248.6004473499488 39.714788732118905,249.26200344332028 36.007042253389955,249.48252205061726 28.781690141186118,251.02615103579592 27.355633802711964,251.9082237466937 25.739436619449407,253.34159035922494 22.411971830762923,254.66469630599022 21.176056337542832,254.55443753919099 20.89084507059306,254.77495506126434 20.795774647500366,255.10573126003146 21.461267605423927,256.5390936107142 21.271126760635525,257.0903863137355 20.4154929574579,257.8621956234565 19.369718309491873,258.4134876485914 17.468309858813882,259.73658735561185 16.517605633940548,259.73658735561185 15.376760563347489,259.2955543008866 14.616197182796896,257.9724540512543 13.950704224873334,256.5390936107142 13.0,255.43650735646952 13.57042253529653,255.21598997002002 15.566901408601552,254.99547253828496 15.852112675551325,255.10573126003146 16.04225352080539,255.43650735646952 16.612676056101918,255.76728335139342" stroke="#4dd2ff" stroke-linecap="round" stroke-linejoin="round" stroke-width="0.5"><title>2023-03-28 2.9km</title></polyline></svg>