<?xml version="1.0" encoding="utf-8" ?>
<svg baseProfile="full" height="300mm" version="1.1" viewBox="0,0,200,300" width="200mm" xmlns="http://www.w3.org/2000/svg" xmlns:ev="http://www.w3.org/2001/xml-events" xmlns:xlink="http://www.w3.org/1999/xlink"><defs /><rect fill="#222222" height="300" width="200" x="0" y="0" /><text fill="#FFFFFF" style="font-size:12px; font-family:Arial; font-weight:bold;" x="10" y="20">Over 2km Workouts</text><text fill="#FFFFFF" style="font-size:4px; font-family:Arial" x="10" y="280">ATHLETE</text><text fill="#FFFFFF" style="font-size:9px; font-family:Arial" x="10" y="290">Koobai</text><text fill="#FFFFFF" style="font-size:4px; font-family:Arial" x="120" y="280">STATISTICS</text><text fill="#FFFFFF" style="font-size:3px; font-family:Arial" x="120" y="285">Number: 19</text><text fill="#FFFFFF" style="font-size:3px; font-family:Arial" x="120" y="290">Weekly: 4.8</text><text fill="#FFFFFF" style="font-size:3px; font-family:Arial" x="141" y="285">Total: 53.9 km</text><text fill="#FFFFFF" style="font-size:3px; font-family:Arial" x="141" y="290">Avg: 2.8 km</text><text fill="#FFFFFF" style="font-size:3px; font-family:Arial" x="167" y="285">Min: 2.0 km</text><text fill="#FFFFFF" style="font-size:3px; font-family:Arial" x="167" y="290">Max: 6.5 km</text><polyline fill="none" points="39.53518805332715,71.60108493523148 39.10446225409396,71.81754781515338 38.444016028777696,72.30042550776852 37.88407248974545,72.6500946648448 37.69742464349838,72.7333491150639 37.59692195703974,72.75 37.5107767971931,72.71669822842523 37.45334669062868,72.66674555829377 36.85033057181863,71.61773593626276 36.56318003899651,71.23476248128281 35.543795647565275,69.30323042481905 34.4095510430634,67.32172108371742 34.19418814353412,66.98869193073187 34.136758036969695,66.83882858912693 33.89268008409999,66.47249539408949 33.806534924253356,66.30598003226623 33.792177397583146,66.18941917741904 33.63424460461829,65.95629721677687 33.07430106564425,64.957199309516 32.77279300621012,64.3244341226382 32.29899462714093,63.45854092425725 31.940056461142376,62.90902938458021 31.42318550212076,61.993172686416074 31.193465075921267,61.52691638327087 31.064247336180415,61.17722327740921 30.590448957053013,60.32796545680321 30.46123121737037,59.89500878014951 30.37508605752373,59.76179110899102 30.159723157878034,59.52865992145962 29.8582150983857,59.012439672253095 29.47056187922135,58.44626073783729 29.054193606658373,57.69690323046234 28.81011565378867,57.23063459173136 28.60911028087139,56.747712090218556 28.149669428355992,55.881778490918805 28.063524268509354,55.665294369580806 28.092239321849775,55.43215730074735 28.03480921528535,55.28228329407284 27.919949002214707,55.13240914896596 27.733301155793015,55.049145675307955 27.632798469392583,54.94922945051803 27.04413987713633,53.95006382110296 26.59905655134935,53.08411530224839 26.297548491915222,52.61783341769478 26.08218559238594,52.13489719707286 26.096543118939735,52.018326170000364 25.93861032591667,51.63530649174936 25.49352700012969,50.76934562782117 25.42173936695326,50.48624203589861 25.321236680436414,50.319710280688014 24.947940987884067,49.82011399010662 24.904868407873437,49.72019454750989 24.775650668190792,49.52035547788546 24.545930241933092,49.087369983200915 24.230064655886963,48.37127605408023 24.014701756299473,48.00490119458118 23.382970584149007,46.75588977828738 22.622021672257688,45.32367819461797 22.464088879234623,44.874027765821666 22.076435660012066,44.19122288143262 22.047720606729854,44.09129997450509 22.062078133400064,43.87480013196182 21.947217920213006,43.691607731976546 21.731855020683724,43.475107356352964 21.516492121038027,43.17533712886507 20.79861578915734,41.72643989263452 20.52582278288901,41.26012538780924 20.324817410029937,40.860426174651366 20.02330935059581,40.227567074485705 19.664371184655465,39.59470550714468 19.29107549204491,38.81195226086129 18.530126580153592,37.313052531928406 18.48705400014296,37.179816330666654 18.530126580153592,37.01327092527936 18.788562059635296,36.86337991434266 20.095096983772237,36.4470152688009 20.884760948945768,36.13057742395904 22.966602311644237,35.4477357621945 23.598333483794704,35.181260188124725 24.3162098157336,34.96474846213823 24.531572715379298,34.98140322047402 24.718220561626367,34.91478417660983 24.818723248085007,34.86481987575826 25.005371094390284,34.68161730762222 25.263806573930196,34.51506933904602 25.72324742638739,34.28190189592715 26.153973225562368,34.098698669928126 26.527268918172922,33.89884036933654 27.001067297300324,33.59905245710979 27.561010836157948,33.33257384804892 27.977379108720925,33.08274975478707 28.393747381225694,32.89954517529986 29.685924778750632,32.26665503696131 29.8582150983857,32.25 30.00179036485497,32.333275167722604 30.47558874398237,33.18267943825049 31.136034969356842,34.56503374761087 31.62419087503804,35.49769988366461 31.825196248013526,36.03064955533773 32.65793279308127,37.579524606408086 32.95944085257361,38.045849684174755 33.792177397583146,39.74459399605985 34.23726072337013,40.56065111895441 34.96949458203744,41.97625068353955 35.17049995495472,42.45921712258132 35.45765048771864,42.975490002994775 35.94580639351625,43.95806933636777 36.00323650002247,44.124607617020956 36.07502413331531,44.44102987959923 36.27602950617438,44.79075903129706 36.46267735247966,44.99060392254614 36.60625261889072,45.22375598475628 37.209268737758975,46.339550504198996 37.15183863113634,46.22297531613731 37.08005099801812,46.22297531613731 37.295413897547405,46.489432765811216 37.61127948365174,47.07230691250879 37.76921227667481,47.42203039607557 38.67373645491898,49.03741004411131 38.78859666804783,49.38712929477333 38.80295419471804,49.60362178678042 38.860384301282465,49.72019454750989 38.960886987741105,49.88672691768443 39.10446225409396,50.00329947513819 39.262395047117025,50.253097530745436 39.79362353286706,51.31889824999962 40.20999180531362,52.034979178977665 40.54021491797175,52.817668675023015 40.927868137310725,53.533742994230124 41.18630361679243,53.98336944113544 41.32987888320349,54.38303634869226 41.459096622944344,54.599522179574706 43.61272561881924,58.89587358244171 43.81373099179473,59.29552839921962 44.2588143175235,59.96161757479422 44.56032237701584,60.54444336226152 45.30691376229515,61.743392690463224 45.622779348283075,62.39281988074072 46.22579546715133,63.391933563907514 46.512945999915246,63.95809525594814" stroke="red" stroke-linecap="round" stroke-linejoin="round" stroke-width="0.5"><title>2023-04-22 6.5km</title></polyline><polyline fill="none" points="68.61417910433374,65.6449471898959 68.07014925335534,65.57484244101215 66.92164179077372,65.71505193132907 64.9268656715285,65.43463292199885 63.05298507446423,65.78515666583553 62.62985074613243,65.71505193132907 62.14626865671016,65.2944233744056 61.66268656728789,64.38306061300682 60.33283582050353,60.59738691023085 59.12388059659861,56.461163905391004 58.64029850717634,55.54978937108535 57.55223880545236,54.147672330902424 57.25,53.65693068760447 57.25,53.02597662853077 57.612686567008495,52.39502198732225 59.30522388056852,50.99289847811451 62.62985074613243,49.0299207350472 64.56417910452001,47.978323197283316 65.04776119394228,47.55768372945022 66.19626865675673,46.08544355380582 66.80074626859277,45.524589319713414 69.88358208956197,43.351274817599915 70.72985074622557,42.86052542558173 71.39477611915208,42.65020414965693 73.32910447753966,42.299668546183966 75.56567164184526,41.24806065740995 77.37910447758622,40.687202455534134 78.95074626849964,40.40677318198141 82.21492537297308,40.12634379352676 84.08880596980453,39.77580689598108 89.40820895531215,37.812796949467156 92.73283582064323,36.76118215965107 93.51865671644919,36.76118215965107 94.30447761178948,37.32204358209856 94.72761194035411,37.882904544705525 95.15074626845308,38.79430262721144 95.33208955219015,39.42526981892297 95.39253731351346,40.056236428325064 95.21119403000921,40.827417048916686 94.30447761178948,42.2295614038012 94.30447761178948,42.72031124890782 94.72761194035411,43.70180988195352 95.87611940293573,45.66480292152846 96.9037313433364,47.838110070093535 97.68955223890953,49.10002717998577 97.75,49.2402400484425 95.81567164161243,50.0815166553366 93.94179104454815,51.13311095844256 91.88656716397963,51.904279086214956 91.40298507455736,52.39502198732225 90.97985074622557,53.65693068760447 90.19402985065244,54.147672330902424 87.29253731342033,55.12915456085466 82.94029850745574,55.61989514756715 79.07164179068059,56.53126958856592 78.46716417907737,56.81169224885525 78.22537313424982,57.16222041292349 77.8626865670085,58.143698315892834 77.56044776085764,58.634436739142984 77.19776119408198,58.914858537202235 75.92835820885375,59.54580716218334 75.38432835810818,60.10664989572251 75.20298507460393,60.87780790310353 75.32388059678487,62.42012130911462 75.2634328356944,62.980961685301736 74.96119402954355,63.61190655839164 74.17537313420326,64.10264105722308 73.14776119403541,64.5933752040728 72.24104477581568,64.80368973058648 71.27388059697114,64.87379455845803 69.7626865671482,64.5933752040728 68.19104477623478,64.52327034750488 67.46567164175212,64.6634800535976 66.98208955209702,65.08410899870796 66.80074626859277,65.78515666583553 66.80074626859277,66.55630826944252 67.0425373131875,67.32745900325244 67.5261194028426,67.81819083576556 68.0097014924977,68.09860886761453 68.79552238783799,68.23881784040714 69.7626865671482,68.16871335776523 70.48805970139802,67.88829535455443 70.91119402972981,67.53777268901467 71.15298507455736,66.97693605022505 71.15298507455736,66.34599428181536 70.91119402972981,65.78515666583553 70.60895522357896,65.43463292199885 70.18582089524716,65.22431858960772 69.58134328341112,65.08410899870796 68.67462686542422,65.08410899870796" stroke="#4dd2ff" stroke-linecap="round" stroke-linejoin="round" stroke-width="0.5"><title>2023-04-17 2.1km</title></polyline><polyline fill="none" points="111.52653631311841,63.914824382867664 107.11452513979748,64.17722751112888 106.66201117332093,64.04602596029872 106.32262569852173,63.78362277825363 105.9832402234897,62.66840805334505 105.58729050285183,60.50357392121805 104.34287709509954,56.04268049268285 103.72067039110698,54.46824009262491 102.53282122919336,52.69699001178378 102.3065642460715,52.1721742314985 102.25,51.712960070581175 102.53282122919336,51.253745580033865 103.26815642486326,50.72892861580476 105.6438547486905,49.54808887245599 108.47206703945994,47.8424276181031 111.52653631311841,45.152721786056645 113.56284916214645,43.70946033671498 115.09008379885927,42.922225446789525 117.35265363124199,42.266195631818846 119.38896648050286,41.34775276097935 121.25558659224771,40.75732450484065 123.06564245815389,40.42930857167812 126.28980446932837,40.101292470120825 127.87360335187986,39.77327620075084 135.0572625696659,37.214743526419625 135.84916201140732,37.14913998992415 136.35824022372253,37.2803470561048 136.98044692748226,37.67396809312049 137.37639664812014,38.133192330249585 137.82891061459668,38.98603646754054 137.94203910627402,39.510863063973375 137.94203910627402,39.97008598264074 137.602653631242,40.691721331793815 136.75418994412757,41.61016514431685 136.69762569805607,42.13498958823038 138.33798882667907,45.218324501940515 139.412709497381,47.6456202576519 142.29748603352346,52.43458217539592 142.58030726248398,53.15620346646756 142.75,53.812222115986515 142.63687150832266,54.73064709518803 142.29748603352346,55.51786745642312 141.8449720670469,56.04268049268285 141.05307262577116,56.63309464399936 139.3561452513095,57.48591412283713 137.31983240228146,58.14192833309062 131.83310055872425,59.191549670591485 128.83519553067163,59.32275221665623 124.36662011174485,59.7819609164726 121.65153631288558,60.372371617355384 120.46368715073913,60.7659784485586 119.78491620114073,61.09398395655444 118.65363128483295,62.01239848375553 116.39106145268306,62.66840805334505 115.82541899452917,62.996412585896906 115.59916201117449,63.586820320924744 115.71229050308466,65.29243960633175 115.59916201117449,66.0796469738707 115.25977653660811,66.99805434548762 114.80726256966591,67.32605665869778 113.61941340775229,67.39165710110683 111.52653631311841,67.85086001007585 110.9608938547317,67.85086001007585 109.49022346362472,66.40764975803904 107.45391061459668,65.1612382842577 107.0579608939588,64.76763415656751 106.88826815667562,64.30842903495068 107.0579608939588,63.98042517493013 107.68016759771854,63.849223583820276 108.35893854754977,63.849223583820276 109.99930167593993,64.17722751112888 111.41340782120824,64.04602596029872" stroke="#4dd2ff" stroke-linecap="round" stroke-linejoin="round" stroke-width="0.5"><title>2023-04-16 2.2km</title></polyline><polyline fill="none" points="154.08304996346124,40.96984875755152 153.77193228132091,41.090120721026324 153.25340281135868,41.39080041376292 152.68302039441187,41.901955184090184 151.38669671921525,42.83405864847009 150.86816724936944,43.43541415029904 150.79038782871794,43.61582056042971 150.6348289877642,43.97663304780144 150.6089025143301,44.277309781551594 150.9459466697881,45.119202996225795 151.10150551074184,45.840823828504654 151.46447613975033,46.772914775821846 152.00893208337948,47.73507006635191 153.87563817529008,50.531315965170506 154.88677064189687,52.36539826160879 155.7682707408676,54.07920250232564 156.13124136987608,54.319735629542265 156.77940320735797,55.191666562488535 157.27200620388612,55.973395540437195 157.972020988469,57.326383079140214 158.3349916174775,57.95777512845234 158.9831534549594,58.919893733167555 160.02021239500027,60.332999713136815 160.79800660011824,61.77616475216928 161.13505075545982,62.557876184000634 161.93877143412828,63.910833355243085 161.99062438111287,64.21148965708562 161.9128449605778,64.30168648750987 162.56100679805968,64.93306352433865 163.1313892150065,65.74483200354734 164.5054923107382,68.33044996633544 166.3981248761993,71.4872782122693 166.52775724360254,71.69773222095682 166.60553666413762,71.9983805429365 166.86480139929336,72.35915812259191 166.9685072931461,72.59967626264552 167.07221318723168,72.71993525861762 167.17591908131726,72.75 169.12040459376294,71.21669426496373 169.76856643136125,70.55526578775607 171.01303715934046,69.563120276056 171.58341957640368,69.05201370289433 173.7353168769041,67.42849280001246 174.4094051879365,66.82718648188165 175.93906712450553,65.62457014838583 176.22425833297893,65.2337187785306 176.76871427649166,64.99319459983963 177.77984674298204,64.27162088037585 179.02431747107767,62.978796861483715 180.03544993756805,62.37748142311466 181.07250887760893,61.565703626169125 182.1354942910839,60.51339573127916 183.25033265165985,59.220555150095606 183.6651562275365,58.79962908022571 183.87256801570766,58.529033430619165 184.15775922418106,57.627046129258815 184.3392445386853,56.93552065343829 184.3910974856699,56.544657706836006 184.3392445386853,55.82306320650969 183.87256801570766,54.68053495060303 183.32811207219493,53.6282023570966 181.53918540058658,50.65158400806831 180.1391558315372,47.82527196305455 178.5835674215341,45.02900026747375 178.16874384554103,44.15703912495519 177.85762616351712,43.70602372387657 177.39094964053947,43.25500762919546 177.02797901141457,42.71378740016371 176.79464074992575,42.2627697798016 176.66500838240609,41.691479798348155 175.57609649549704,40.007671274768654 174.22791987343226,37.542077067366336 173.65753745648544,36.57988833950367 172.7501108838478,34.92611908813706 172.179728466901,33.663234471314354 171.71305194380693,33.00172131121508 171.29822836793028,32.70103301797644 170.70191947731655,32.430413290363504 170.00190469285008,32.25 169.587081116857,32.28006888949312 168.9389192793751,32.490551029273774 168.18705154780764,32.911514855659334 164.63512467814144,35.28694226563675 163.23509510909207,36.15892977837939 162.30174206313677,36.549819890846265 160.953565441072,37.331598552904325 160.14984476263635,37.87282871356001 159.6053888190072,38.1735117045464 159.19056524313055,38.3238530845847 157.6868297799956,39.10562701791059 156.83125615457539,39.64685390496743 155.7682707408676,40.06780745991273 154.86084416834638,40.669168633263325 154.39416764536873,40.78944071996375" stroke="#ffb600" stroke-linecap="round" stroke-linejoin="round" stroke-width="0.5"><title>2023-04-15 4.2km</title></polyline><polyline fill="none" points="20.932219420094043,109.12800311355386 20.166141235968098,109.6610820980859 19.400063051609322,109.83877498377115 16.999684741487727,109.6610820980859 16.38682219432667,109.42415816575522 15.978247162653133,108.71338578528957 14.650378310121596,105.15951076685451 13.935372005216777,102.19793155172374 13.373581336811185,101.1909911602852 12.403215636732057,99.71019327861723 12.25,99.35480122221634 12.25,99.05864100827603 12.454287515720353,98.46632012486225 13.118221941869706,97.81476645148359 18.12326607829891,94.67545208986849 20.523644388187677,92.36537968314951 22.872950819553807,90.64762754645199 24.14974779332988,89.99606505496195 25.886191677302122,89.64066702255514 28.03121059271507,88.75217098521534 30.431588902836666,88.10060635593254 32.01481714984402,87.80444037239067 34.82377049187198,87.56750747619662 38.807377049233764,86.0866746736574 41.973833543481305,85.25740664603654 42.84205548558384,85.19817317015259 43.55706179048866,85.61280737508787 44.06778058013879,86.2051414376474 44.220996216870844,86.44207489240216 44.27206809562631,87.15287467418239 43.65920554846525,89.04833648283966 43.60813366970979,89.81836606614524 43.81242118519731,90.41069581639022 45.24243379570544,93.60926597297657 45.753152585122734,94.49775454029441 46.26387137454003,95.03084702492924 46.87673392170109,95.26777686004061 47.285308953374624,95.26777686004061 48.51103404792957,94.97161455091555 48.97068095835857,95.09007949277293 50.04319041618146,96.27472757548094 51.21784363174811,96.9262829857762 51.72856242116541,97.34090877312701 52.29035308933817,98.11092730326345 52.64785624202341,98.82171272771666 52.75,99.41403324669227 52.64785624202341,100.00635315862019 52.341424968559295,100.65790436009411 51.7796343001537,101.30945482681273 50.19640605291352,102.61255355575122 45.54886506916955,105.7518247878761 39.93095838581212,108.65415471419692 35.99842370743863,111.61570083390689 34.51733921817504,112.56339238607325 33.08732660789974,113.21492942649638 30.227301387349144,114.28107936237939 27.469419924076647,115.70260954974219 25.937263556057587,116.23568246822106 24.354035309050232,116.94644559471635 24.047604035353288,117.12413623958128 23.8943883983884,117.30182682984741 24.14974779332988,117.30182682984741 25.017969735199586,116.5318338770885 25.3244010086637,116.05799155012937 25.477616645628586,115.40645771572599 25.375472887884825,114.5772317731753 25.222257250919938,114.28107936237939 24.60939470375888,113.68877408537082 23.4347414879594,112.85954567726003 22.209016393404454,111.7341623629909" stroke="#4dd2ff" stroke-linecap="round" stroke-linejoin="round" stroke-width="0.5"><title>2023-04-15 2.1km</title></polyline><polyline fill="none" points="66.41981132072397,109.61037826933898 65.75754716992378,110.02395249262918 65.14622641517781,110.20119849743787 63.05754716997035,109.96487047895789 61.37641509436071,110.02395249262918 61.121698113391176,109.9057884591166 60.96886792453006,109.61037826933898 60.51037735841237,107.71974946878618 59.74622641503811,105.65186711627757 58.727358490694314,102.46140550193377 57.35188679257408,100.33442127937451 57.25,99.86175705259666 57.35188679257408,99.3890924382722 57.912264151033014,98.62101161299506 58.77830188674852,97.91201301931869 60.81603773590177,96.8485134934308 63.36320754699409,95.37142756249523 65.24811320751905,93.30350089841522 68.05000000004657,91.35373467527097 69.06886792462319,90.8219791057636 71.15754717006348,90.34930707659805 73.55188679252751,89.34487772680586 76.50660377368331,88.69495192077011 80.12358490563929,88.45861508219969 83.84245283040218,86.92242326890118 86.03301886818372,86.39066361013101 87.56132075493224,85.79981896933168 88.0707547168713,85.85890346061205 89.29339622659609,86.86333888681838 89.54811320756562,87.45418243703898 89.54811320756562,87.9268568410771 89.39528301893733,88.3404466265929 88.37641509436071,90.11297091637971 88.27452830201946,90.40839110140223 88.3254716983065,90.7038111347938 88.63113207556307,91.41281859722221 90.77075471705757,95.31234404660063 91.33113207574934,95.90317893394968 91.84056603792123,96.08042928192299 92.50283018872142,96.02134583861334 93.67452830215916,95.48959457635647 94.13301886827685,95.54867807420669 95.61037735873833,96.73034675832605 96.78207547194324,97.91201301931869 97.34245283040218,98.68009478965541 97.69905660394579,99.6254247938632 97.75,100.21625525905984 97.69905660394579,100.74800215970026 97.49528301879764,101.22066565940622 97.13867924548686,101.7524116334971 96.42547169839963,102.40232271287823 93.57264150958508,104.588381874084 91.89150943397544,105.4746197120403 89.19150943425484,107.18800900119822 84.35188679257408,109.78762440133141 82.87452830187976,110.91018197161611 81.09150943416171,112.44630984030664 79.20660377363674,113.15529055264778 75.69150943378918,114.69141243695049 73.09339622640982,116.16844884917373 72.17641509440728,116.58201836619992 71.61603773618117,116.70018103072653 71.25943396240473,116.52293702476891 70.95377358491533,116.16844884917373 70.59716981160454,115.51855329418322 70.34245283016935,115.1640645005973 69.4254716981668,114.45508625963703 68.30471698124893,113.80518877261784 67.94811320770532,113.45069892529864 67.43867924530059,112.38722807500744 67.03113207546994,110.02395249262918 66.67452830192633,109.19680374924792" stroke="#4dd2ff" stroke-linecap="round" stroke-linejoin="round" stroke-width="0.5"><title>2023-04-14 2.2km</title></polyline><polyline fill="none" points="112.683518005535,111.4965460919193 111.67382271471433,110.65081895783078 111.39335180050693,110.58576297783293 111.11288088653237,110.58576297783293 110.66412742412649,110.97609875828493 109.59833795018494,112.5374394787359 109.03739612200297,113.05788553174352 108.47645429358818,113.38316409831168 107.85941828251816,113.51327547820983 107.41066482011229,113.51327547820983 107.07409972301684,113.31810839823447 106.79362880904227,112.86271831183694 106.17659279773943,110.91104281164007 105.16689750691876,108.56902428745525 104.66204986162484,106.6823919681483 104.21329639898613,105.5113759827218 103.70844875345938,104.60058427799959 102.64265927998349,103.299451003375 102.30609418288805,102.7139401595341 102.25,102.19348562229425 102.41828254866414,101.73808755219216 102.86703601130284,101.28268915496301 103.65235457057133,100.69717644999037 106.45706371194683,99.20086374942912 108.7569252080284,98.15994848503033 109.26177285332233,97.70454751997022 110.83240997232497,95.88294039125321 112.12257617758587,94.64684686111286 113.18836565106176,93.80109726887895 114.25415512477048,93.34569317533169 120.5367036012467,91.06866780493874 126.42659279773943,90.09279728744878 130.01662049861625,88.92175068531651 132.54085872578435,87.8808185578091 134.111495844787,87.49046856974019 135.40166204981506,87.03505994670559 135.85041551245376,86.97000154532725 136.29916897485964,87.10011834144825 136.69182825484313,87.42541021498619 137.30886426591314,88.14105174975703 137.8698060940951,89.11692526901606 137.9819944598712,89.89762300380971 137.75761772855185,90.41808762669098 137.0844875345938,91.26384172827238 136.8040166203864,91.78430523048155 136.69182825484313,92.36982616013847 136.74792243749835,92.89028875500662 137.30886426591314,93.99627035186859 138.542936288286,95.94799787871307 140.22576177306473,99.13580659538275 141.23545706365258,101.34774608898442 142.52562326844782,103.42956445092568 142.75,104.34035783651052 142.75,105.31620644195937 142.52562326844782,105.70654546376318 141.68421052629128,106.29205354646547 138.82340720226057,107.65823697176529 137.75761772855185,108.04857455275487 131.81163434917107,109.08947359549347 129.06301939068362,109.349698089296 126.81925207749009,109.67497855657712 120.5367036012467,110.91104281164007 119.80747922416776,111.23632247844944 118.79778393357992,112.0169929987751 116.72229916905053,112.66755103203468 115.93698060954921,113.05788553174352 115.71260387822986,113.38316409831168 115.48822714714333,114.87944335618522 115.26385041559115,115.13966547575546 114.81509695295244,115.33483199519105 112.73961218842305,115.52999845467275 112.34695290867239,115.46494297479512 112.01038781157695,115.26977649546461 111.67382271471433,114.74933225638233 111.72991689760238,114.22888759057969 112.01038781157695,113.83855381113244 112.62742382287979,113.51327547820983" stroke="#4dd2ff" stroke-linecap="round" stroke-linejoin="round" stroke-width="0.5"><title>2023-04-13 2.0km</title></polyline><polyline fill="none" points="157.8225138122216,113.21989041444613 157.20718232053332,113.41451827879064 156.70372928166762,113.349642330606 155.08149171294644,112.70088248327374 154.41022099461406,112.50625439931173 153.4033149171155,112.6360064620385 152.22859116038308,112.96038650203263 152.00483425427228,112.89551050728187 151.7810773481615,112.70088248327374 150.43853591172956,109.13269143353682 149.93508287286386,106.92689053941285 149.37569060758688,105.36984998453408 148.92817679559812,104.52645141782705 147.7534530388657,103.29378995182924 147.3618784530554,102.58014274243033 147.25,102.19088028901024 147.3059392266441,101.7367404573597 147.80939226527698,100.89333704806631 148.64848066307604,100.3094417215907 150.66229281784035,99.33628164697438 153.4592541437596,97.77922241424676 154.18646408850327,97.19532421417534 156.53591160243377,94.92460386967286 159.2769337017089,93.3026557774865 160.45165745867416,92.78363150998484 162.63328729290515,92.19972869986668 165.82182320440188,90.9670432205894 167.66781767993234,90.38313873432344 169.34599447529763,90.05874712002696 171.97513812151738,89.73435533989687 173.09392265207134,89.34508498373907 174.43646408850327,88.63142204238102 175.9468232046347,88.56654355331557 177.00966850831173,88.30702953011496 178.68784530390985,87.78800116496859 180.70165745867416,86.94457916310057 181.26104972371832,86.94457916310057 181.87638121540658,87.39872961130459 182.6595303870272,88.50166505743982 182.82734806649387,89.15044971578754 182.88328729290515,89.60459858097602 182.6595303870272,90.38313873432344 181.7085635359399,91.87533801712561 181.65262430952862,92.26460681663593 181.76450276235119,92.78363150998484 182.2120165748056,93.82167961937375 183.66643646429293,96.09240392170614 185.28867403324693,98.81726232840447 186.3515193371568,101.15284590912051 187.5262430938892,103.0342819687794 187.69406077358872,103.61817478091689 187.75,104.13719016168034 187.6381215469446,104.59132827050053 187.41436464106664,105.1103428528877 186.85497237555683,105.56448026339058 186.29558011051267,105.95374064153293 184.2258287295699,107.1215203392203 183.16298342542723,107.5107797596138 181.26104972371832,107.83516242686892 178.68784530390985,108.41905080917059 175.77900552516803,108.80830943130422 173.37361878459342,109.06781504623359 165.82182320440188,110.36534152535023 165.03867403324693,110.68972272938117 163.97582872933708,111.33848463877803 162.63328729290515,111.79261757957283 160.50759668508545,112.70088248327374 158.38190607749857,112.83063450595364 157.1512430938892,113.02526249026414 156.64779005525634,113.349642330606 156.36809392273426,113.86864972976036 156.31215469632298,114.38765670312569 156.36809392273426,114.84178745560348 156.64779005525634,115.16616636497201 157.0393646408338,115.36079363094177 157.59875690634362,115.55542083689943 158.27002762444317,115.55542083689943 159.7244475139305,115.10129059635801" stroke="#4dd2ff" stroke-linecap="round" stroke-linejoin="round" stroke-width="0.5"><title>2023-04-12 2.0km</title></polyline><polyline fill="none" points="16.740585773717612,161.30059202277334 16.486401673406363,161.0057984252926 16.486401673406363,160.02315244625788 15.38493723794818,157.07520846405532 14.791841004043818,154.71684675000142 13.351464434992522,152.84980627743062 12.758368200622499,151.96541741571855 12.419456066563725,150.98276216810336 12.334728033281863,150.19663724431302 12.588912134058774,149.41051167598926 14.452928869519383,146.06947081623366 16.486401673406363,144.00588093773695 17.418410041369498,143.21975029166788 19.197698744479567,142.138819600048 21.146443514619023,141.25442085473333 27.416317991446704,139.19082060852088 29.70397489517927,138.99428702000296 37.837866108398885,137.5202838217374 39.02405857760459,137.12721591920126 40.80334727978334,136.14454545796616 41.90481171570718,135.75147699093213 42.66736401664093,135.75147699093213 43.59937238506973,135.9480112447054 44.19246861943975,136.63588081451599 45.29393305443227,138.40468601259636 48.00523012550548,143.21975029166788 49.02196652721614,145.67640642018523 51.14016736391932,149.01744864985812 52.072175732348114,149.9018402317306 52.665271966252476,151.277558848029 52.75,151.96541741571855 52.58054393297061,153.1446023833705 52.326359832659364,154.02899015671574 51.98744769860059,154.5203163451515 50.63179916329682,155.60123307275353 47.49686192441732,157.17347340949345 45.632845188491046,157.56653309083777 43.514644351322204,158.3526519697043 38.600418409798294,159.5318290788564 35.29602510435507,159.82662312942557 31.73744769860059,159.92488779267296 27.755230125505477,160.71100473747356 23.857740585692227,161.30059202277334 19.960251045878977,162.4797655052971 18.604602510109544,162.57802989683114 18.096234309021384,162.2832366921939 17.75732217542827,161.49712103727506 16.740585773717612,158.25438714498887 15.38493723794818,154.81511193717597 13.690376568585634,152.35847923281835 12.50418410031125,150.88449658773607 12.25,150.19663724431302 12.25,149.01744864985812 13.182008367963135,146.65906710847048 14.283472802955657,145.3816080171964 16.655857739970088,143.71108202071628 19.875523012131453,141.84402010880876 20.976987447589636,141.15615427691955 22.502092049922794,140.56655459979083 29.280334727838635,138.89602021075552 32.5,138.79775339143816 35.973849372472614,138.0116184730432 37.41422594105825,137.618550772022 40.46443514665589,136.2428125492297 42.66736401664093,135.75147699093213 43.514644351322204,135.75147699093213 44.0230125519447,136.2428125492297 46.141213388647884,140.46828795148758 47.666317991446704,142.92495113285258 49.276150627527386,146.26600295398384 51.14016736391932,148.4278538087383 52.49581589968875,150.88449658773607 52.665271966252476,151.76888644701103 52.326359832659364,153.93072488892358 51.902719664853066,154.61858155252412 50.97071129688993,155.4047028493951 47.666317991446704,157.17347340949345 45.71757322177291,157.8613277457771 42.92154811695218,158.3526519697043 39.53242677822709,159.23703493742505 37.24476987449452,159.630093772721 35.12656903779134,159.92488779267296 33.00836820108816,159.92488779267296 22.163179916329682,161.69365001126425 18.77405857713893,162.57802989683114 18.096234309021384,162.97108736133669 17.418410041369498,163.75720180739881 16.910041840747,163.95373031834606 15.469665271695703,163.85546606802382 12.50418410031125,164.24852300900966" stroke="#4dd2ff" stroke-linecap="round" stroke-linejoin="round" stroke-width="0.5"><title>2023-04-11 2.4km</title></polyline><polyline fill="none" points="72.46333486773074,153.11543731647544 71.1202241666615,154.67312802630477 69.10555811412632,159.7356184250675 71.79177951812744,166.74520937539637 70.78444649092853,167.9134732768871 69.10555811412632,167.52405201573856 68.43400276452303,166.74520937539637 67.76244741305709,161.29330642079003 70.78444649092853,157.0096628954634 68.09822508879006,152.7260145386681 63.06155995838344,150.7789000524208 62.054226933047175,149.61063088220544 61.38267157971859,145.3269741809927 63.733115307986736,141.4327366242651 72.12755719199777,135.59137280401774 81.86510977707803,134.42309896158986 85.22288653254509,134.81252361577936 90.93110701441765,139.09619217342697 92.27421771548688,144.54812698927708 91.60266236588359,147.6635147978086 89.92377398721874,150.7789000524208 83.54399815574288,155.4519731423352 80.18622140213847,155.4519731423352 71.79177951812744,155.4519731423352 61.04689390398562,149.61063088220544 60.375338554382324,147.2740914619062 61.04689390398562,139.875040483661 73.80644556879997,132.47597509319894 77.83577767387033,130.9182752794586 81.52933210320771,130.13942513405345 84.55133118107915,130.9182752794586 88.5806632861495,134.81252361577936 91.60266236588359,140.6538886348717 90.93110701441765,146.4952446690295 87.57333026081324,150.38947703503072 83.54399815574288,152.7260145386681 75.14955627173185,153.50486005377024 70.11289113946259,155.06255060480908 63.397337632253766,151.55774596589617 62.390004605054855,149.61063088220544 62.72578228265047,147.2740914619062 66.41933671012521,142.60100831021555 71.79177951812744,139.48561634891666 77.49999999813735,133.2548247606028 80.52199907787144,132.86539994738996 83.20822048000991,134.03367426851764 87.57333026081324,137.92791941110045 89.58799631334841,141.4327366242651 90.25955166295171,146.10582121275365 88.91644096188247,149.61063088220544 86.56599723361433,151.9471688636113 82.87244280613959,153.89428275101818 74.81377859413624,153.50486005377024 69.77711346372962,154.28370540821925 65.74778136052191,151.55774596589617 61.38267157971859,150.0000539785251 59.703783202916384,148.4423613511026 59.36800552904606,145.71639771782793 60.375338554382324,138.70676795905456 61.71844925545156,136.7596462869551 66.08355903625488,132.86539994738996 69.10555811412632,131.30770029197447 77.49999999813735,129.75 82.87244280613959,130.52885022666305 85.22288653254509,132.0865502001252 89.25221863761544,136.3702218332328 91.26688469015062,140.26446457928978 91.26688469015062,141.8221605590079 90.93110701441765,144.1587033327669 89.25221863761544,146.8846680847928 87.23755258508027,149.22120774374343 82.53666512854397,151.55774596589617 71.45600184239447,154.28370540821925 69.77711346372962,153.89428275101818 67.09089206159115,151.55774596589617 63.06155995838344,149.61063088220544 62.054226933047175,147.6635147978086 62.390004605054855,142.60100831021555 64.40467065759003,139.48561634891666 75.48533394560218,131.69712526584044 79.1788883768022,130.9182752794586 81.19355442747474,131.69712526584044 84.88710885681212,134.42309896158986 88.24488561041653,137.92791941110045 89.25221863761544,140.26446457928978 89.25221863761544,142.99043212644756 88.24488561041653,147.6635147978086 85.22288653254509,152.33659172151238 81.86510977707803,153.89428275101818 71.1202241666615,154.67312802630477 62.72578228265047,149.22120774374343 61.38267157971859,147.2740914619062 61.04689390398562,145.3269741809927 61.71844925545156,139.875040483661 63.06155995838344,137.53849507588893 77.83577767387033,130.13942513405345 80.18622140213847,130.13942513405345 85.55866420827806,133.64424953376874 91.60266236588359,139.875040483661 92.27421771548688,142.21158445533365 91.93844004161656,144.93755060480908 91.26688469015062,146.8846680847928 89.92377398721874,149.22120774374343 84.55133118107915,152.7260145386681 73.13489021919668,155.8413956409786 69.4413357898593,155.4519731423352 65.74778136052191,153.50486005377024 64.0688929837197,151.55774596589617 63.733115307986736,147.6635147978086 65.41200368478894,142.99043212644756 70.11289113946259,140.6538886348717 77.83577767387033,135.59137280401774 80.52199907787144,134.42309896158986 82.20088745467365,134.81252361577936 85.22288653254509,136.7596462869551 88.5806632861495,139.48561634891666 89.58799631334841,141.0433126485441 90.25955166295171,146.4952446690295 89.58799631334841,149.22120774374343 88.24488561041653,150.7789000524208 86.23021955788136,151.9471688636113 79.1788883768022,152.7260145386681 70.4486688170582,154.67312802630477 63.397337632253766,150.0000539785251 61.38267157971859,146.4952446690295 61.04689390398562,144.1587033327669 61.71844925545156,140.26446457928978 62.390004605054855,138.70676795905456 65.07622601091862,136.3702218332328 72.12755719199777,134.81252361577936 79.51466605067253,130.52885022666305 82.87244280613959,131.30770029197447 89.25221863761544,137.53849507588893 90.59532933868468,139.09619217342697 91.60266236588359,142.99043212644756 90.59532933868468,147.2740914619062 88.91644096188247,150.0000539785251 87.23755258508027,151.55774596589617 73.47066789492965,155.06255060480908 67.42666973732412,158.95677418680862 67.42666973732412,162.07215017848648 69.4413357898593,168.30289449705742 70.78444649092853,169.86057897889987 73.13489021919668,170.25 84.21555350720882,168.6923156771809 87.23755258508027,169.47115791821852 91.26688469015062,167.52405201573856 95.6319944690913,164.4086804955732" stroke="#4dd2ff" stroke-linecap="round" stroke-linejoin="round" stroke-width="0.5"><title>2023-04-10 2.2km</title></polyline><polyline fill="none" points="107.8354985374026,170.25 107.7668659251649,169.6408250030945 107.67535577574745,169.3759658638155 107.42370286444202,168.8197607935581 107.35507025220431,168.26355453391443 107.35507025220431,167.46897210009047 107.49233547656331,166.59492861942272 107.65247823833488,166.03871760261245 108.17866159812547,164.47602314286632 108.40743697190192,163.91980759517173 108.65908988320734,162.91331929489388 109.09376309346408,161.66844679918722 109.61994645325467,160.55600250681164 110.30627257481683,158.72840512590483 110.58080302341841,158.2251514182135 110.83245593460742,157.24512824576232 111.26712914486416,156.05320319446037 111.38151683181059,155.15263397747185 111.61029220558703,154.41098639849224 112.06784295325633,153.40446130148484 112.77704661211465,150.7821802549879 113.05157706083264,149.93456860582228 113.60063795791939,148.5836818300886 113.87516840652097,147.60362232621992 114.17257639265154,146.83546499814838 114.40135176642798,146.38516481989063 114.51573945325799,146.1732585838181 114.83602497668471,145.80242225527763 114.92753512621857,145.5905155444052 115.29357572447043,144.34556013083784 115.97990184579976,142.67678075961885 116.39169751876034,141.82914269217872 116.68910550465807,140.76959122245898 117.00939102808479,140.00141370741767 117.30679901398253,139.07429989121738 117.58132946281694,138.43856279258034 117.8558599113021,137.90878068978782 118.01600267295726,137.7763349954621 118.29053312155884,137.80282413971145 120.55540932249278,138.46505186942522 120.89857238321565,138.62398627356743 121.37900066829752,138.38558463094523 122.13395940198097,137.1670839326398 122.84316306083929,136.13400278103654 123.20920365897473,135.63070534850704 123.59812179440632,135.20687517611077 124.51322328974493,134.438681227708 126.06889583182056,133.40558923629578 127.02975240210071,132.92877616352052 127.46442561224103,132.79632793250494 127.80758867308032,132.79632793250494 128.05924158426933,132.45196221632068 128.05924158426933,132.31951374252094 128.65405755618121,131.92216791631654 128.76844524312764,131.5778010423819 128.9285880047828,130.1208592215553 128.9972206169041,129.96191961996374 129.24887352820951,129.75 130.4385054721497,130.09436929467483 130.80454607016873,130.1473491457 133.41258533205837,130.22681890195236 134.25905421515927,130.359268441709 134.32768682739697,130.41224823877565 134.41919697681442,130.51820780045819 134.53358466376085,131.04800496116513 134.51070712634828,131.33939293943695 134.41919697681442,131.68376012903173 134.442074514227,131.89567817302304 134.64797235070728,131.92216791631654 134.945380336605,130.25330881529953 135.082645560964,130.09436929467483 135.38005354686175,130.06787936508772 135.51731877122074,130.1208592215553 135.6088289207546,130.30628863399033 135.6774615328759,131.33939293943695 135.7460941451136,131.5778010423819 135.83760429464746,131.73673965624766 136.15788981807418,131.89567817302304 136.91284855164122,132.13408576583606 137.3246442246018,132.13408576583606 137.6449297479121,132.05461659253342" stroke="#4dd2ff" stroke-linecap="round" stroke-linejoin="round" stroke-width="0.5"><title>2023-04-09 2.8km</title></polyline><polyline fill="none" points="178.09230769239366,130.2063643343863 177.54711538460106,132.82152342167683 177.39134615380317,133.09205667936476 177.15769230760634,133.18223441380542 177.46923076966777,132.82152342167683 178.17019230732694,134.0840112506412 178.01442307699472,135.70720724272542 177.85865384619683,136.2482719119871 177.46923076966777,136.69915888400283 177.46923076966777,138.41252728307154 177.70288461539894,139.4946529843146 176.9240384614095,141.92943097674288 176.6125000002794,142.5606686224346 175.9894230766222,143.1919058180647 175.9894230766222,143.37225921993377 176.30096153868362,143.46243590698577 175.9894230766222,143.46243590698577 175.75576923042536,143.91331920510856 174.97692307690158,145.98737941787113 173.88653846131638,147.43020104814786 173.18557692319155,148.96319645404583 173.029807691928,149.41407695086673 173.1076923077926,150.04530926031293 173.41923076892272,150.4961892060237 173.49711538432166,150.76671706303023 172.32884615380317,154.19339609832969 170.84903846122324,157.710237108171 170.84903846122324,157.98076276102802 171.00480769202113,157.98076276102802 171.70576923061162,157.3495361090172 171.62788461567834,158.9726894479827 171.08269230742007,159.69408997654682 170.69326923089102,161.22706414887216 169.44711538450792,160.77618966781301 168.35673076938838,160.59583981119795 168.12307692319155,160.6860147441621 168.12307692319155,161.04671438393416 168.27884615398943,160.5056648691534 168.0451923077926,160.23513998754788 166.2538461536169,159.15303963521728 164.77403846150264,158.52181381871924 163.60576923098415,158.4316386654973 163.37211538478732,158.9726894479827 163.1384615385905,157.710237108171 163.91730769211426,155.90673064312432 163.91730769211426,155.54602890915703 162.9826923077926,155.9969060534495 162.7490384611301,155.9969060534495 162.90480769239366,155.81655522348592 162.90480769239366,156.08708145469427 162.35961538460106,157.3495361090172 162.51538461539894,157.5298866268713 162.82692307699472,157.25936083617853 162.9826923077926,158.07093796040863 162.7490384611301,157.8905875524506 161.4250000002794,157.98076276102802 160.80192307708785,157.710237108171 159.94519230769947,157.25936083617853 159.86730769230053,157.25936083617853 159.86730769230053,157.43971137265908 160.17884615343064,157.5298866268713 160.49038461549208,157.43971137265908 160.7240384616889,157.25936083617853 160.7240384616889,156.80848433467327 160.56826923089102,156.26743223000085 159.71153846150264,155.63620435656048 159.0105769233778,155.45585345261497 157.375,155.63620435656048 154.25961538450792,154.28357168333605 153.09134615352377,153.92286928842077 151.37788461521268,154.73444947076496 150.44326923042536,155.54602890915703 149.74230769230053,155.81655522348592 150.52115384628996,155.90673064312432 151.6115384614095,155.45585345261497 150.13173076929525,155.81655522348592 149.9759615380317,155.81655522348592 149.89807692309842,156.08708145469427 150.36538461549208,156.62813366978662 150.52115384628996,156.98883496283088 150.28750000009313,158.2512883313466 150.75480769202113,158.4316386654973 151.92307692300528,158.6119889630354 151.0663461536169,158.8825143405702 149.74230769230053,159.6039149427088 149.19711538450792,160.05479002080392 148.57403846131638,161.13688927114708 148.3403846155852,161.6779384003603 148.4182692305185,161.94846284104278 148.4182692305185,161.76811322307913 147.25,163.75195699970936 147.48365384619683,164.02248080656864 148.18461538478732,164.4733536344138 150.13173076929525,165.01440072490368 153.09134615352377,166.72771433013259 154.64903846150264,167.26876004319638 155.58365384628996,167.35893429641146 155.7394230766222,167.26876004319638 155.42788461502641,167.08841150894295 155.42788461502641,166.99823722819565 156.59615384601057,166.27684265031712 157.9201923077926,164.7438772211899 158.9326923075132,162.57968621433247 160.10096153849736,162.128812422161 160.49038461549208,161.85828803642653 166.2538461536169,164.29300453100586 169.6028846153058,165.1045752078644 169.7586538461037,165.3750986016239 171.78365384601057,166.5473656859831 177.15769230760634,168.8017211011611 178.32596153812483,168.1705021635862 179.18269230797887,168.1705021635862 181.28557692328468,169.25259149546036 182.22019230760634,169.43293958890717 182.92115384619683,169.16241743485443 183.9336538463831,168.08032799273496 184.4009615383111,168.08032799273496 185.88076923089102,168.62137287913356 187.75,169.7936356656137" stroke="#4dd2ff" stroke-linecap="round" stroke-linejoin="round" stroke-width="0.5"><title>2023-04-09 2.5km</title></polyline><polyline fill="none" points="19.204716656706296,187.10330647215596 18.865151463192888,187.1638922491693 18.133780277334154,187.92121341484017 15.73070352373179,189.40555726911407 15.704583124257624,190.25375040981453 15.573981126770377,190.76872362877475 15.756823923205957,191.3139884120319 16.018027918296866,191.79866737461998 16.618797106668353,192.67714596827864 17.324047892936505,193.8282518966007 18.96963306120597,196.70599710129318 19.727124646655284,198.28117208281765 20.275653035962023,199.1899230608833 20.406255033565685,199.76546390162548 21.424950613756664,200.82566777948523 22.365284995525144,202.43111212577787 23.044415382435545,203.9153831024014 23.41010097542312,204.46062362991506 24.37655575678218,205.8237205479527 25.499732935102656,207.5503009527165 25.996020525461063,208.58018621613155 27.014716105884872,210.27646000348614 27.06695690494962,210.48849354239064 27.014716105884872,210.73081740076304 27.955050487769768,211.70011084686848 31.40294322115369,217.6975433647458 31.58578601758927,218.0913099295285 31.664147216128185,218.54565531390836 32.02983280911576,219.0 32.16043480660301,219.0 34.35454836417921,217.0614578059176 34.95531755266711,216.45566076299292 37.097190311178565,214.75942243737518 38.45545108499937,213.8507193303376 41.11973183369264,211.63953009966644 41.82498261996079,211.1851740993734 43.33996579074301,209.8826830277103 44.77658776298631,208.79222097198362 47.25802571501117,206.5204121005081 48.30284169490915,205.33906458629644 48.59016608935781,205.06644525850425 49.00809248141013,204.55149695344153 49.190935277729295,203.9153831024014 49.373778074164875,202.73402517542127 49.42601887322962,202.12819876574213 49.373778074164875,201.88586785405641 48.11999889847357,199.5231310526433 46.7356177251786,197.34212646994274 44.95943055942189,194.04029723646818 44.515383768011816,193.3132840092876 43.261604592204094,191.07164863258367 42.45187220792286,189.7387762933795 41.74662142142188,188.31501965387724 40.936889037140645,187.07301357900724 40.41448104719166,186.04305336225661 39.604748662910424,184.6495720607927 37.33227390656248,180.52967586443992 36.49642112292349,179.1967559728073 36.20909672835842,178.89381879527355 35.55608674092218,178.6211750698276 34.79859515558928,178.5 34.40678916312754,178.5302937720844 33.80601997487247,178.74235008991673 31.11561882670503,180.3782079977682 28.32073608052451,181.9837634342257 27.693846492795274,182.4381643322995 26.309465319500305,183.28637747233734 23.12277658097446,185.10396885935916 20.928663023398258,186.22481130843516 20.19729183742311,186.70949861826375 19.83160624455195,186.86096323953825 19.54428185010329,186.92154906634823" stroke="#ffb800" stroke-linecap="round" stroke-linejoin="round" stroke-width="0.5"><title>2023-04-09 4.1km</title></polyline><polyline fill="none" points="66.80546349659562,194.70007972116582 67.02371934335679,197.9907079259865 67.02371934335679,203.8125778522808 68.98802196513861,201.02820699149743 71.8253479776904,198.75008304254152 73.78965060133487,197.9907079259865 79.02779092825949,196.97820740705356 82.08337278664112,194.95320512307808 83.17465202324092,191.91569858440198 83.17465202324092,189.1313143062871 82.5198844820261,186.85317938076332 81.21034939959645,185.08129520644434 79.68255846947432,183.8156628755387 77.71825584676117,183.0562831654679 76.40872076433152,183.0562831654679 74.88092983607203,183.3094097613357 69.86104535404593,185.5875479571987 65.05941672064364,185.5875479571987 64.18639333173633,186.6000531478785 63.5316257905215,188.62506228266284 63.74988163821399,190.3969439130742 65.71418426185846,192.9282011790201 73.13488306012005,197.73758283467032 82.73814032878727,194.44695429317653 84.7024429505691,194.44695429317653 84.04767540935427,192.9282011790201 83.17465202324092,191.91569858440198 81.42860524635762,190.90319557324983 79.46430262364447,190.3969439130742 77.06348830554634,190.1438180434052 71.38883628416806,190.3969439130742 67.24197519011796,189.6375662270002 63.09511409699917,189.89069214789197 66.1506959553808,190.90319557324983 69.64278950728476,194.44695429317653 71.60709212999791,194.95320512307808 79.24604677595198,194.95320512307808 82.5198844820261,193.94070335826837 83.61116371676326,193.18132676254027 83.8294195625931,191.91569858440198 83.39290787000209,188.37193623138592 83.61116371676326,188.62506228266284 83.39290787000209,188.11881015403196 79.46430262364447,185.84067429439165 77.06348830554634,185.33442159486003 76.19046491757035,185.33442159486003 72.26185967121273,187.10630558733828 71.38883628416806,186.85317938076332 68.5515102725476,182.8031565430574 68.5515102725476,181.79064979660325 68.98802196513861,181.53752304427326 71.60709212999791,180.27188889682293 76.84523245785385,178.5 79.46430262364447,178.5 80.55558185838163,179.5125080961734 81.21034939959645,180.52501577790827 81.21034939959645,183.56253633159213 78.59127923473716,189.89069214789197 76.19046491757035,193.68757785251364 74.2261622948572,194.1938288381789 70.95232458878309,190.90319557324983 67.24197519011796,188.87818830669858 66.1506959553808,188.87818830669858 64.84116087295115,189.3844402791001 63.5316257905215,190.90319557324983 63.09511409699917,191.66257287026383 63.74988163821399,191.91569858440198 67.24197519011796,191.66257287026383 68.33325442578644,192.9282011790201 68.76976611930877,196.97820740705356 67.67848688550293,200.5219574063085 67.67848688550293,205.07819993258454 68.5515102725476,206.85006975522265 70.29755704849958,207.86256622592919 71.8253479776904,208.368814305868 80.11907016392797,207.35631804238074 84.26593125704676,208.368814305868 86.23023388069123,209.88755792193115 87.53976896218956,212.16567159444094 87.10325726866722,214.44378316425718 86.23023388069123,215.45627652155235 77.5,217.98750809626654 74.2261622948572,217.22813889640383 72.69837136566639,216.21564626554027 71.38883628416806,214.1906597604975 69.64278950728476,212.4187952056527 68.76976611930877,209.88755792193115 68.76976611930877,207.35631804238074 70.51581289526075,202.54695512261242 70.29755704849958,200.5219574063085 69.2062778128311,198.75008304254152 65.2776725674048,194.44695429317653 64.18639333173633,192.16882427129894 64.18639333173633,189.89069214789197 65.05941672064364,187.86568405129947 66.80546349659562,185.84067429439165 72.04360382538289,184.32191588613205 77.5,181.53752304427326 79.68255846947432,181.53752304427326 82.08337278664112,182.29690322140232 83.61116371676326,183.8156628755387 84.26593125704676,185.33442159486003 84.04767540935427,189.89069214789197 82.95639617554843,192.6750755684916 81.42860524635762,194.1938288381789 79.9008143171668,194.95320512307808 72.48011551890522,197.23133257520385 70.95232458878309,197.48445771774277 69.4245336605236,196.4719569918234 66.80546349659562,193.43445232091472 64.40464917942882,191.91569858440198 63.5316257905215,190.3969439130742 63.96813748590648,188.11881015403196 65.49592841416597,186.3469268886838 73.13488306012005,182.04377652192488 74.88092983607203,181.53752304427326 77.93651169352233,181.79064979660325 81.42860524635762,182.8031565430574 83.39290787000209,184.32191588613205 84.26593125704676,186.09380060457624 84.48418710473925,188.62506228266284 84.26593125704676,190.3969439130742 83.39290787000209,192.9282011790201 82.30162863433361,194.70007972116582 78.37302338797599,196.97820740705356 68.98802196513861,200.77508221194148 67.67848688550293,201.78758117416874 67.24197519011796,204.0657023198437 68.33325442578644,212.4187952056527 69.2062778128311,215.20315322093666 70.51581289526075,216.72189263347536 72.69837136566639,217.73438505548984 78.59127923473716,219.0 80.11907016392797,219.0 81.42860524635762,218.4937541000545 85.13895464595407,215.45627652155235 85.79372218623757,211.40630060364492 86.23023388069123,210.6469293795526 88.1945365043357,209.1281862303149 91.25011836178601,207.60944214696065 91.90488590206951,206.85006975522265 91.46837420854717,206.09069712972268 90.81360666826367,205.83757286914624 85.5754663394764,205.58444858295843" stroke="#4dd2ff" stroke-linecap="round" stroke-linejoin="round" stroke-width="0.5"><title>2023-04-06 2.2km</title></polyline><polyline fill="none" points="106.15067470446229,182.91820401349105 109.96022623032331,184.39093747688457 112.81738987378776,186.96821958431974 112.81738987378776,187.70458556106314 111.54753936454654,189.17731706099585 108.0554504673928,189.17731706099585 108.37291309423745,189.54549984214827 112.81738987378776,186.2318534576334 115.99201614409685,186.6000365400687 119.80156766995788,185.4954871777445 123.6111191958189,181.8136535200756 126.46828283928335,181.07728633540682 129.96037173829973,182.1818370553665 134.72231114283204,186.6000365400687 136.3096242789179,189.91368258465081 137.5794747862965,194.3318725565914 135.03977376967669,200.95914732245728 133.76992326043546,201.695510429563 124.88096970319748,201.695510429563 121.3888808041811,202.43187338742428 118.8491797875613,201.327328894753 113.7697777543217,195.43641920015216 107.73798783868551,192.85914317029528 106.15067470446229,189.91368258465081 107.73798783868551,187.33640259108506 110.5951514840126,186.2318534576334 116.3094787709415,186.2318534576334 123.92858182266355,181.8136535200756 126.46828283928335,181.07728633540682 129.64290910959244,181.8136535200756 131.23022224381566,182.91820401349105 135.99216165207326,188.07276849262416 136.9445495326072,190.28186529083177 137.5794747862965,193.96369026671164 137.2620121613145,197.64551146840677 136.3096242789179,199.48642065329477 133.45246063545346,200.95914732245728 128.37305860221386,200.95914732245728 119.80156766995788,202.06369192735292 108.0554504673928,192.12277825013734 107.73798783868551,191.38641318050213 108.37291309423745,189.54549984214827 115.03962826170027,184.75912074930966 126.15082021057606,181.44546994706616 130.59529699012637,182.55002055410296 135.67469902522862,187.70458556106314 136.3096242789179,188.80913424375467 137.2620121613145,194.70005480828695 136.9445495326072,198.01369338063523 135.03977376967669,200.59096571197733 131.54768487252295,201.695510429563 123.92858182266355,200.59096571197733 119.16664241626859,201.327328894753 117.26186665147543,200.222784063546 115.6745535172522,197.27732951869257 113.1348525006324,195.0682370236609 109.64276360161602,193.22732557356358 108.37291309423745,192.12277825013734 107.10306258499622,188.44095138716511 108.37291309423745,185.4954871777445 110.91261411085725,184.39093747688457 113.1348525006324,184.39093747688457 115.99201614409685,185.86367033678107 120.11903029680252,185.1273039826192 124.24604444950819,184.75912074930966 128.05559597536922,182.55002055410296 130.59529699012637,181.8136535200756 132.50007275305688,182.55002055410296 136.9445495326072,186.6000365400687 137.89693741500378,189.54549984214827 138.21440004184842,192.12277825013734 137.5794747862965,195.0682370236609 136.62708690576255,197.27732951869257 134.08738588914275,198.75005709240213 119.80156766995788,202.06369192735292 109.64276360161602,195.43641920015216 107.42052521370351,191.75459573301487 107.42052521370351,190.6500479578972 108.69037572108209,186.6000365400687 110.5951514840126,185.4954871777445 114.72216563485563,186.6000365400687 118.21425453387201,185.86367033678107 123.92858182266355,182.91820401349105 126.78574546426535,182.1818370553665 128.69052122719586,182.1818370553665 130.91275961697102,183.2863874360919 134.72231114283204,186.6000365400687 135.67469902522862,188.80913424375467 136.62708690576255,193.22732557356358 136.3096242789179,197.64551146840677 135.03977376967669,199.48642065329477 133.13499800674617,200.59096571197733 121.0714181791991,202.06369192735292 116.94440402463078,200.222784063546 109.64276360161602,195.0682370236609 108.0554504673928,193.59550794004463 107.42052521370351,192.12277825013734 107.42052521370351,189.91368258465081 108.69037572108209,184.75912074930966 110.27768885716796,184.02275416790508 113.7697777543217,184.39093747688457 115.6745535172522,183.65457082074136 122.65873131342232,179.23636771366 125.83335758373141,178.5 129.0079838540405,179.23636771366 133.76992326043546,182.91820401349105 135.35723639838398,185.86367033678107 135.99216165207326,190.6500479578972 134.72231114283204,195.80460133985616 132.18261012621224,197.64551146840677 126.78574546426535,198.38187525584362 121.3888808041811,198.38187525584362 118.8491797875613,197.27732951869257 116.3094787709415,196.54096550378017 111.86500199139118,194.70005480828695 109.96022623032331,193.22732557356358 109.32530097477138,191.01823058794253 109.96022623032331,188.07276849262416 111.23007673770189,186.2318534576334 115.35709089040756,187.70458556106314 120.43649292364717,187.33640259108506 124.88096970319748,181.07728633540682 126.46828283928335,180.34091899939813 129.0079838540405,181.07728633540682 134.08738588914275,184.75912074930966 136.3096242789179,187.70458556106314 137.5794747862965,191.01823058794253 137.5794747862965,194.70005480828695 136.9445495326072,196.90914752916433 135.67469902522862,198.38187525584362 133.13499800674617,199.48642065329477 121.0714181791991,200.95914732245728 119.16664241626859,200.59096571197733 116.94440402463078,198.75005709240213 115.6745535172522,199.11823889124207 110.27768885716796,197.27732951869257 107.73798783868551,194.3318725565914 106.46813733130693,190.6500479578972 106.46813733130693,188.07276849262416 108.0554504673928,186.6000365400687 109.64276360161602,186.2318534576334 113.45231512747705,186.6000365400687 118.21425453387201,185.1273039826192 122.34126868657768,184.39093747688457 126.78574546426535,181.8136535200756 129.96037173829973,182.91820401349105 134.4048485159874,188.07276849262416 135.67469902522862,192.12277825013734 135.99216165207326,196.90914752916433 135.67469902522862,198.75005709240213 134.4048485159874,200.59096571197733 132.50007275305688,201.327328894753 128.05559597536922,200.95914732245728 124.24604444950819,201.327328894753 115.99201614409685,206.48186695110053 115.35709089040756,208.32277160719968 115.99201614409685,216.42274088063277 116.94440402463078,217.52728073042817 118.53171716071665,218.63182023959234 123.92858182266355,218.26364044100046 127.73813334666193,219.0 129.96037173829973,218.63182023959234 135.99216165207326,215.31820069206879 138.8493252955377,214.58184037799947" stroke="#4dd2ff" stroke-linecap="round" stroke-linejoin="round" stroke-width="0.5"><title>2023-04-04 2.2km</title></polyline><polyline fill="none" points="162.78095127176493,200.93926510540769 161.60118909087032,200.66561666759662 161.12928421795368,201.2129135162104 160.65737934503704,202.03385857865214 161.12928421795368,203.40209978749044 162.07309396285564,203.40209978749044 168.44380974583328,197.92913074232638 178.3538120733574,194.37169484514743 179.297621820122,193.2770982303191 179.53357425518334,191.63520246674307 178.82571694534272,186.43585921963677 178.3538120733574,184.79395924741402 176.46619258262217,182.6047577143181 172.4550011632964,179.3209520468954 170.3314292356372,178.5 167.73595243692398,179.3209520468954 162.54499883577228,182.33110739663243 160.1854744721204,182.33110739663243 158.29785498138517,182.05745705030859 156.17428305372596,183.1520582663361 155.46642574481666,184.52030915417708 155.230473308824,185.34125935053453 155.70237818080932,185.88855934189633 159.71356959920377,189.17235692823306 163.7247610175982,194.09804573375732 167.02809512801468,195.7399399818387 173.39881090912968,195.7399399818387 179.53357425518334,194.6453439288307 180.7133364379406,193.55074742576107 180.24143156409264,192.1825011675246 180.00547912809998,189.17235692823306 177.6459547644481,185.88855934189633 174.81452552694827,184.2466590332333 168.67976218182594,183.42570849950425 163.96071345359087,184.2466590332333 160.65737934503704,183.97300888388418 157.3540452355519,180.1419038430322 154.99452087283134,179.04730139276944 153.57880625408143,179.3209520468954 153.34285381715745,179.59460267378017 153.34285381715745,180.68920489982702 156.17428305372596,183.69935870589688 159.4776171632111,186.43585921963677 163.48880858160555,194.37169484514743 166.32023781817406,196.8345355866477 168.9157146178186,198.476428152062 172.4550011632964,197.92913074232638 176.46619258262217,196.0135889253579 178.11785963643342,194.37169484514743 179.0616693822667,192.7297997546848 179.0616693822667,188.07775818067603 178.3538120733574,185.88855934189633 177.6459547644481,184.79395924741402 173.63476334605366,182.33110739663243 170.56738167256117,181.5101562740747 168.67976218182594,181.78380667651072 165.3764280723408,183.42570849950425 162.07309396285564,183.69935870589688 159.24166472721845,183.1520582663361 156.17428305372596,185.61490936018527 155.93833061680198,187.53045863984153 156.41023549064994,189.44600654556416 157.3540452355519,190.54060473036952 161.60118909087032,192.1825011675246 164.66857076250017,197.10818441724405 165.84833294525743,197.38183322083205 173.63476334605366,196.56088672787882 176.70214501861483,195.46629101014696 177.88190720044076,194.09804573375732 178.58976451028138,192.7297997546848 179.0616693822667,189.99330569338053 178.82571694534272,186.98315898608416 178.3538120733574,185.34125935053453 177.1740498924628,183.42570849950425 174.34262065496296,180.68920489982702 171.51119141839445,179.59460267378017 170.09547679964453,179.8682532729581 164.43261832743883,182.8784080047626 161.12928421795368,183.1520582663361 158.7697598533705,182.05745705030859 157.3540452355519,182.6047577143181 156.41023549064994,183.42570849950425 156.17428305372596,184.52030915417708 156.64618792571127,186.1622092940379 159.4776171632111,188.35140790999867 161.60118909087032,190.26695522549562 163.48880858160555,195.46629101014696 165.84833294525743,196.0135889253579 171.74714385531843,196.0135889253579 176.2302401456982,194.6453439288307 177.6459547644481,193.2770982303191 178.58976451028138,191.36155307479203 178.82571694534272,189.99330569338053 178.3538120733574,186.70950911636464 177.88190720044076,185.61490936018527 176.46619258262217,184.2466590332333 174.81452552694827,183.42570849950425 169.6235719276592,182.6047577143181 160.89333178196102,184.2466590332333 157.58999767247587,182.6047577143181 155.70237818080932,183.97300888388418 154.75856843590736,185.61490936018527 154.99452087283134,186.98315898608416 156.64618792571127,189.99330569338053 160.89333178196102,192.45615047519095 163.2528561456129,196.0135889253579 166.08428538125008,196.8345355866477 174.57857309188694,196.28723784023896 176.9380974546075,195.19264201121405 178.11785963643342,193.82439659372903 179.0616693822667,191.36155307479203 179.0616693822667,189.99330569338053 178.82571694534272,187.25680882669985 177.1740498924628,185.34125935053453 175.5223828367889,184.2466590332333 173.87071578204632,183.97300888388418 166.32023781817406,184.79395924741402 163.7247610175982,184.2466590332333 159.4776171632111,181.78380667651072 157.11809280049056,181.78380667651072 155.230473308824,182.6047577143181 157.58999767247587,186.70950911636464 161.36523665487766,190.54060473036952 163.01690370962024,194.09804573375732 165.14047563727945,194.91899298410863 172.92690603621304,195.7399399818387 178.58976451028138,194.6453439288307 179.53357425518334,193.00344900693744 180.00547912809998,190.54060473036952 179.0616693822667,186.70950911636464 176.46619258262217,184.52030915417708 172.92690603621304,183.1520582663361 164.66857076250017,183.69935870589688 159.4776171632111,181.78380667651072 157.82595010846853,181.78380667651072 155.46642574481666,182.8784080047626 155.230473308824,183.97300888388418 156.17428305372596,186.1622092940379 162.07309396285564,191.36155307479203 164.43261832743883,196.0135889253579 165.84833294525743,197.38183322083205 167.26404756400734,197.92913074232638 174.57857309188694,197.10818441724405 178.11785963643342,195.19264201121405 179.76952669210732,193.55074742576107 180.00547912809998,191.36155307479203 178.3538120733574,185.61490936018527 177.41000232845545,184.2466590332333 171.98309629131109,178.77365071047097 170.80333410855383,178.5 168.67976218182594,179.59460267378017 166.32023781817406,182.33110739663243 164.66857076250017,183.1520582663361 162.78095127176493,183.69935870589688 156.88214036356658,183.42570849950425 155.230473308824,184.2466590332333 155.93833061680198,185.88855934189633 157.3540452355519,187.25680882669985 161.60118909087032,190.81425420637242 164.43261832743883,194.91899298410863 165.14047563727945,195.46629101014696 166.79214269015938,196.0135889253579 170.56738167256117,196.56088672787882 174.57857309188694,198.2027794616297 178.3538120733574,198.2027794616297 179.53357425518334,197.65548199601471 180.94928887300193,193.00344900693744 180.7133364379406,189.71965613309294 180.00547912809998,187.80410842527635 177.41000232845545,183.97300888388418 173.16285847406834,182.05745705030859 167.73595243692398,181.78380667651072 162.54499883577228,182.05745705030859 160.42142690904438,181.5101562740747 159.0057122912258,181.5101562740747 157.58999767247587,182.05745705030859 155.230473308824,184.2466590332333 155.230473308824,185.34125935053453 155.93833061680198,186.70950911636464 158.53380741830915,188.89870728366077 162.30904639977962,191.36155307479203 165.14047563727945,195.7399399818387 167.02809512801468,196.56088672787882 170.80333410855383,196.28723784023896 173.63476334605366,196.8345355866477 175.9942877087742,196.56088672787882 178.11785963643342,196.0135889253579 179.0616693822667,195.19264201121405 179.76952669210732,193.55074742576107 180.24143156409264,189.17235692823306 179.0616693822667,187.25680882669985 177.1740498924628,185.61490936018527 171.74714385531843,183.42570849950425 169.85952436365187,183.1520582663361 164.19666589051485,183.97300888388418 159.4776171632111,182.8784080047626 158.53380741830915,183.1520582663361 156.17428305372596,185.61490936018527 155.93833061680198,187.25680882669985 157.3540452355519,188.89870728366077 161.12928421795368,192.1825011675246 162.78095127176493,195.7399399818387 163.01690370962024,197.10818441724405 161.60118909087032,199.29737405572087 161.60118909087032,202.58115514577366 163.48880858160555,208.3277623327449 165.84833294525743,209.69600031641312 168.44380974583328,209.9696478282567 174.10666821803898,208.87505761091597 178.58976451028138,208.6014099859167 180.47738400101662,209.69600031641312 181.4211937468499,211.06423759786412 181.4211937468499,211.88517962978221 180.24143156409264,213.80071005644277 175.28643040079623,215.98988600377925 172.21904872730374,218.17906015645713 169.85952436365187,219.0 168.44380974583328,218.72635341389105 166.08428538125008,217.631766786566 165.14047563727945,213.52706293715164 165.14047563727945,212.1588269181084 165.84833294525743,211.06423759786412 170.3314292356372,207.50681920722127 172.69095359928906,206.68587582791224 179.53357425518334,202.8548033873085 181.4211937468499,202.58115514577366 181.4211937468499,204.2230441761203 181.18524131085724,204.2230441761203 181.65714618284255,203.6757479449734 181.18524131085724,203.12845160160214 181.4211937468499,203.40209978749044" stroke="#ffd700" stroke-linecap="round" stroke-linejoin="round" stroke-width="0.5"><title>2023-04-01 3.2km</title></polyline><polyline fill="none" points="29.719669170677662,244.2755571261514 27.71783097460866,246.59721508133225 24.38143397960812,249.69275568891317 25.938419244252145,247.88702413020656 30.164522103965282,245.30740537075326 32.388786766678095,244.53351922682486 37.059742560610175,244.7914813007228 39.06158075667918,244.2755571261514 40.396139554679394,243.24370845849626 41.5082718860358,241.18000985356048 41.95312481932342,237.82649601064622 41.28584542032331,234.98890388407744 40.173713088966906,232.92519850935787 37.50459549296647,230.34556440962479 35.28033082932234,229.5716736635659 32.833639699965715,229.82963727228343 27.05055157560855,233.1831617737189 24.826286911964417,232.92519850935787 21.93474285118282,231.37741836719215 20.15533111989498,232.1513085567858 21.045036984607577,233.1831617737189 25.715992777608335,235.50482996366918 28.385110372677445,239.6322347894311 29.942095637321472,240.40612244047225 36.837316093966365,240.40612244047225 40.396139554679394,239.6322347894311 41.5082718860358,238.60038421768695 41.95312481932342,237.5685332233552 40.396139554679394,234.21501456713304 38.17187489196658,232.92519850935787 35.502757295034826,232.1513085567858 32.833639699965715,232.6672352179885 27.940257440321147,234.4729776987806 25.493566310964525,234.21501456713304 22.824448714964092,232.6672352179885 22.157169315963984,232.92519850935787 21.267463451251388,233.95705140870996 20.822610517963767,235.2468669367954 21.267463451251388,236.53668180434033 26.160845709964633,239.8901973660104 29.497242705896497,244.7914813007228 30.609375037252903,245.56536736548878 32.833639699965715,246.08129127626307 38.17187489196658,244.7914813007228 39.951286622323096,244.01759499916807 41.0634189536795,243.24370845849626 41.95312481932342,241.18000985356048 42.17555128596723,239.3742721863091 41.73069835174829,236.7946446989663 40.396139554679394,234.73094080435112 36.837316093966365,232.1513085567858 33.723345565609634,231.37741836719215 26.82812510896474,234.4729776987806 25.04871337953955,234.21501456713304 22.602022249251604,233.1831617737189 21.045036984607577,233.44112501107156 20.15533111989498,234.73094080435112 20.15533111989498,236.02075593639165 21.045036984607577,237.0526075665839 24.826286911964417,239.3742721863091 28.162683906964958,242.4698216803372 29.719669170677662,242.98574622510932 36.170036694034934,243.24370845849626 38.39430135861039,242.98574622510932 39.951286622323096,241.95389702916145 41.0634189536795,240.40612244047225 41.5082718860358,238.60038421768695 41.5082718860358,237.0526075665839 41.0634189536795,236.02075593639165 38.39430135861039,233.69908822327852 35.05790436360985,232.6672352179885 27.940257440321147,233.69908822327852 23.71415458060801,233.1831617737189 21.489889916963875,234.21501456713304 21.045036984607577,235.2468669367954 21.045036984607577,236.27871888387017 21.93474285118282,237.82649601064622 25.715992777608335,240.66408493858762 28.385110372677445,244.01759499916807 29.497242705896497,244.7914813007228 31.4990809019655,245.30740537075326 37.50459549296647,245.04944334900938 40.618566021323204,243.75963284540921 41.5082718860358,242.7277839658782 42.17555128596723,240.92204740899615 42.39797775167972,239.3742721863091 41.73069835174829,236.27871888387017 39.06158075667918,232.6672352179885 37.059742560610175,231.37741836719215 34.39062496367842,230.60352793894708 27.495404508896172,233.69908822327852 25.271139845252037,233.95705140870996 22.602022249251604,233.44112501107156 20.822610517963767,233.44112501107156 20.37775758560747,233.95705140870996 20.600184051319957,235.2468669367954 21.489889916963875,236.7946446989663 24.15900751296431,239.3742721863091 26.38327217567712,242.98574622510932 28.162683906964958,244.7914813007228 31.721507367677987,246.59721508133225 35.502757295034826,246.33925319160335 39.06158075667918,244.7914813007228 41.28584542032331,242.211859367555 41.95312481932342,239.8901973660104 41.95312481932342,233.1831617737189 36.837316093966365,231.11945491703227 33.0560661656782,230.60352793894708 27.71783097460866,233.44112501107156 22.157169315963984,233.69908822327852 20.37775758560747,234.73094080435112 19.93290465325117,235.76279296400025 20.600184051319957,237.0526075665839 23.71415458060801,239.1163095573429 26.38327217567712,242.7277839658782 27.495404508896172,243.5016706653405 33.27849263232201,244.2755571261514 37.50459549296647,244.01759499916807 39.28400722332299,243.24370845849626 40.396139554679394,241.95389702916145 41.28584542032331,240.14815991697833 41.5082718860358,238.34242150909267 40.618566021323204,236.27871888387017 36.170036694034934,232.1513085567858 34.61305143032223,231.89334518648684 33.0560661656782,232.1513085567858 26.82812510896474,234.4729776987806 24.826286911964417,234.21501456713304 22.157169315963984,232.6672352179885 21.267463451251388,233.1831617737189 20.600184051319957,234.73094080435112 21.045036984607577,237.5685332233552 22.379595782607794,239.6322347894311 26.82812510896474,241.6959346642252 29.942095637321472,244.53351922682486 30.831801503896713,244.7914813007228 34.39062496367842,243.75963284540921 38.61672782339156,243.5016706653405 40.173713088966906,242.7277839658782 41.5082718860358,241.18000985356048 42.17555128596723,238.85834690043703 42.39797775167972,236.7946446989663 41.95312481932342,233.95705140870996 41.28584542032331,232.4092719007749 39.951286622323096,230.86149144126102 38.39430135861039,229.5716736635659 36.170036694034934,229.3137100294698 34.16819849703461,229.82963727228343 29.497242705896497,233.69908822327852 27.940257440321147,234.4729776987806 25.938419244252145,234.4729776987806 23.4917281139642,233.44112501107156 21.489889916963875,233.69908822327852 20.600184051319957,234.4729776987806 20.600184051319957,235.50482996366918 21.045036984607577,237.82649601064622 21.712316383607686,238.85834690043703 25.715992777608335,240.40612244047225 28.162683906964958,244.01759499916807 30.164522103965282,244.7914813007228 37.72702195867896,244.2755571261514 39.72886015474796,243.75963284540921 41.0634189536795,242.4698216803372 41.95312481932342,239.8901973660104 41.73069835174829,238.08445877279155 40.396139554679394,236.27871888387017 37.94944842439145,234.73094080435112 34.39062496367842,233.95705140870996 27.940257440321147,235.2468669367954 23.269301649183035,234.4729776987806 21.489889916963875,235.2468669367954 21.045036984607577,236.7946446989663 21.489889916963875,238.08445877279155 22.602022249251604,239.1163095573429 27.71783097460866,241.6959346642252 29.497242705896497,244.53351922682486 31.05422796867788,245.82332933461294 32.388786766678095,246.08129127626307 38.61672782339156,244.53351922682486 40.396139554679394,242.98574622510932 41.0634189536795,241.6959346642252 41.28584542032331,239.1163095573429 41.0634189536795,233.95705140870996 40.618566021323204,231.89334518648684 39.72886015474796,230.60352793894708 35.947610228322446,227.50796384573914 34.83547789603472,227.25 33.94577203132212,227.76592766516842 29.942095637321472,231.63538178964518 27.495404508896172,233.1831617737189 25.715992777608335,233.44112501107156 23.046875181607902,233.1831617737189 21.93474285118282,233.69908822327852 20.822610517963767,234.73094080435112 20.37775758560747,236.02075593639165 20.37775758560747,237.0526075665839 21.267463451251388,238.34242150909267 25.938419244252145,241.18000985356048 27.71783097460866,244.53351922682486 27.940257440321147,246.85517694451846 25.938419244252145,249.17683251900598 25.715992777608335,251.49848595121875 26.60569864232093,254.07809836417437 27.71783097460866,255.88382547954097 30.831801503896713,256.915668962989 36.170036694034934,256.3997472743504 40.840992487967014,257.17362976819277 42.84283068496734,258.2054727235809 44.84466888103634,260.78507826058194 45.06709534768015,262.0748800362926 44.84466888103634,263.1067209823523 43.06525715067983,264.65448160655797 36.170036694034934,267.4920402788557 32.833639699965715,267.75 30.831801503896713,267.23408053140156 28.82996330689639,265.6863214939367 27.940257440321147,262.33284031273797 28.162683906964958,260.5271178255789 30.164522103965282,257.6895512987394 32.388786766678095,256.915668962989 37.059742560610175,257.43159054708667 40.840992487967014,253.8201372420881 43.954963016323745,253.04625371610746" stroke="#ffda00" stroke-linecap="round" stroke-linejoin="round" stroke-width="0.5"><title>2023-03-31 3.1km</title></polyline><polyline fill="none" points="75.50352112576365,255.93487563589588 74.93309859000146,257.9195372010581 71.22535211220384,260.89652726007625 68.37323943525553,261.5580802327022 65.52112676016986,261.22730376315303 65.23591549135745,260.5657507220749 68.08802816830575,256.2656526484061 72.93661971762776,252.29632626241073 74.93309859000146,251.6347713896539 81.77816901355982,250.6424388261512 84.9154929574579,248.6577727852855 86.34154929593205,245.6807714337483 86.62676056288183,242.3729889334645 86.05633802711964,238.40364545513876 84.63028168864548,235.09585549356416 83.4894366171211,233.44195924163796 79.21126760356128,230.46494385018013 74.0774647872895,229.47260477533564 72.93661971762776,230.13416419317946 70.08450704067945,233.77273855917156 67.51760563254356,235.75741375773214 62.95422535203397,237.41130882268772 57.820422533899546,240.7190964105539 59.81690140813589,243.36532404040918 65.80633802711964,246.3423275265377 70.94014084525406,250.6424388261512 72.65140845067799,250.97321638162248 81.20774647779763,249.9808836155571 86.34154929593205,248.32699499255978 87.48239436559379,246.01154949725606 86.9119718298316,241.71143202506937 84.34507042169571,238.07286661164835 74.36267605610192,234.4342970943544 68.08802816830575,236.0881928380113 64.6654929574579,235.75741375773214 62.669014083221555,235.09585549356416 59.2464788723737,236.4189718856942 59.2464788723737,238.07286661164835 60.102112675085664,239.7267604903318 66.94718309864402,246.01154949725606 70.36971830949187,251.6347713896539 72.93661971762776,253.28865831741132 75.21830985881388,253.28865831741132 83.20422535203397,250.6424388261512 86.62676056288183,247.66543930699117 88.05281690135598,245.01921520475298 86.9119718298316,238.73442426533438 83.20422535203397,237.742087733699 80.06690140813589,233.77273855917156 75.21830985881388,233.11117988848127 72.93661971762776,233.44195924163796 66.6619718298316,236.4189718856942 61.81338028050959,236.0881928380113 58.67605633661151,238.40364545513876 60.102112675085664,240.38831780478358 64.6654929574579,242.70376733574085 66.6619718298316,244.6884370399639 68.6584507022053,247.9962171667721 70.08450704067945,249.31932826829143 73.50704225338995,249.9808836155571 80.92253521084785,249.31932826829143 82.34859154932201,248.6577727852855 84.63028168864548,246.6731055234559 86.62676056288183,242.04221049603075 86.9119718298316,240.38831780478358 85.77112676016986,235.75741375773214 85.48591549135745,232.11884162854403 84.34507042169571,231.4572826186195 78.07042253389955,231.4572826186195 71.79577464796603,235.42663464322686 68.08802816830575,236.4189718856942 66.09154929593205,236.0881928380113 62.09859154932201,234.10351784387603 61.242957746610045,235.09585549356416 58.96126760356128,239.06520304153673 61.52816901355982,241.71143202506937 66.6619718298316,244.02688060724176 68.6584507022053,247.00388348498382 69.51408450677991,249.31932826829143 70.65492957644165,250.31166123785079 78.35563380271196,250.6424388261512 82.91901408322155,249.65010595903732 84.63028168864548,248.6577727852855 85.48591549135745,247.9962171667721 86.62676056288183,245.01921520475298 86.9119718298316,243.0345457047224 86.34154929593205,240.7190964105539 84.34507042169571,238.40364545513876 82.06338028050959,236.7497508993838 78.07042253389955,235.09585549356416 75.21830985881388,234.4342970943544 67.80281690135598,236.4189718856942 63.80985915288329,235.09585549356416 60.102112675085664,236.4189718856942 60.95774647779763,238.07286661164835 62.669014083221555,240.05753916408867 67.23239436559379,243.69610234024003 70.08450704067945,248.98855054401793 71.22535211220384,249.9808836155571 73.79225351847708,251.30399390286766 81.20774647779763,250.6424388261512 85.77112676016986,248.6577727852855 86.9119718298316,244.3576588400174 85.77112676016986,239.7267604903318 82.06338028050959,236.4189718856942 81.20774647779763,234.4342970943544 75.50352112576365,233.44195924163796 69.51408450677991,236.0881928380113 66.94718309864402,236.4189718856942 63.52464788593352,236.0881928380113 61.81338028050959,235.09585549356416 60.38732394203544,237.41130882268772 59.2464788723737,240.38831780478358 60.38732394203544,243.36532404040918 65.80633802711964,245.6807714337483 68.94366196915507,249.65010595903732 70.08450704067945,250.6424388261512 73.79225351847708,251.30399390286766 78.92605633661151,251.30399390286766 83.20422535203397,249.9808836155571 85.77112676016986,247.33466141251847 86.05633802711964,245.6807714337483 85.77112676016986,243.0345457047224 83.4894366171211,238.73442426533438 79.21126760356128,236.7497508993838 74.93309859000146,235.42663464322686 68.94366196915507,236.7497508993838 62.95422535203397,234.10351784387603 60.95774647779763,235.09585549356416 57.53521126694977,235.42663464322686 57.53521126694977,236.7497508993838 59.81690140813589,239.06520304153673 66.6619718298316,242.3729889334645 67.51760563254356,244.3576588400174 68.94366196915507,249.65010595903732 70.65492957644165,250.97321638162248 76.64436619542539,250.31166123785079 81.20774647779763,250.6424388261512 85.48591549135745,248.6577727852855 86.9119718298316,245.6807714337483 87.19718309864402,243.69610234024003 84.9154929574579,238.07286661164835 80.92253521084785,235.75741375773214 76.92957746423781,234.76507631107233 68.08802816830575,236.4189718856942 62.95422535203397,235.75741375773214 60.95774647779763,236.4189718856942 58.67605633661151,238.73442426533438 59.2464788723737,240.7190964105539 61.52816901355982,242.70376733574085 64.6654929574579,244.6884370399639 68.6584507022053,250.6424388261512 69.79929577372968,251.30399390286766 80.06690140813589,250.97321638162248 84.63028168864548,249.31932826829143 86.34154929593205,245.01921520475298 86.05633802711964,239.7267604903318 86.62676056288183,236.7497508993838 82.63380281627178,233.77273855917156 75.21830985881388,231.4572826186195 74.36267605610192,231.78806214104407 72.36619718186557,234.76507631107233 68.6584507022053,236.0881928380113 63.80985915288329,235.75741375773214 61.52816901355982,234.4342970943544 59.53169013932347,235.42663464322686 57.25,235.75741375773214 57.53521126694977,238.07286661164835 59.2464788723737,241.71143202506937 59.81690140813589,242.04221049603075 61.242957746610045,241.3806535222102 64.95070422440767,242.3729889334645 66.6619718298316,245.01921520475298 69.51408450677991,250.31166123785079 71.51056337915361,251.6347713896539 80.35211267508566,251.6347713896539 84.05985915474594,249.65010595903732 86.34154929593205,246.6731055234559 86.34154929593205,243.36532404040918 85.77112676016986,240.38831780478358 84.9154929574579,239.06520304153673 82.63380281627178,236.7497508993838 79.4964788723737,235.42663464322686 74.64788732305169,235.75741375773214 65.80633802711964,238.40364545513876 64.09507042169571,237.742087733699 62.09859154932201,235.75741375773214 58.96126760356128,237.742087733699 58.96126760356128,239.395981782116 59.53169013932347,240.7190964105539 63.239436618983746,242.70376733574085 66.6619718298316,246.3423275265377 67.23239436559379,250.97321638162248 66.09154929593205,252.62710364721715 64.09507042169571,254.6117672470864 63.52464788593352,255.93487563589588 64.95070422440767,259.57342090527527 65.23591549135745,260.89652726007625 67.51760563254356,264.86584306531586 69.79929577372968,265.52739522466436 73.79225351847708,265.196619162336 90.61971830949187,263.21196207311004 95.46830985881388,262.55040943901986 97.75,261.5580802327022 96.03873239271343,260.89652726007625 93.18661971762776,260.5657507220749" stroke="#ffdc00" stroke-linecap="round" stroke-linejoin="round" stroke-width="0.5"><title>2023-03-30 3.1km</title></polyline><polyline fill="none" points="102.53521126694977,256.59655635873787 102.60651408415288,256.59655635873787 102.74911971762776,256.5138620886719 103.3908450701274,256.59655635873787 104.10387323889881,257.0927218008437 105.10211267555133,256.5138620886719 105.95774647872895,256.5138620886719 106.88468309817836,256.67925062024733 108.09683098550886,256.59655635873787 110.16461267601699,256.10039061127463 111.80457746423781,256.017696290568 112.44630281627178,255.6869189221179 112.58890845021233,255.1080582010327 112.58890845021233,253.61955729633337 111.80457746423781,251.6348851507064 111.16285211220384,248.49247759906575 110.44982394343242,247.16935496742371 108.4533450701274,244.6057986919186 108.16813380271196,243.9442344593699 108.2394366194494,243.28266968438402 109.80809859139845,241.6287553726579 111.66197183076292,240.14022959204158 116.22535211220384,237.6593471871456 119.64788732351735,236.17081408086233 126.77816901355982,235.01306421024492 130.62852112622932,234.02070585539332 133.83714788686484,232.69755948329112 134.69278169004247,232.69755948329112 135.33450704207644,233.276436288259 136.61795774661005,234.9303677274147 138.97095070406795,238.65170106489677 140.111795774661,241.04988456214778 141.0387323941104,242.53840866376413 141.39524647872895,243.53075653861742 142.4647887321189,245.59814402315533 142.60739436605945,246.50779283756856 142.4647887321189,247.665526208526 142.03697183076292,248.32708738883957 141.39524647872895,249.07134306791704 139.5413732388988,250.3117676738184 138.04401408461854,251.05602152168285 134.9779929574579,251.8829694361193 131.62676056288183,252.79261116246926 128.63204225338995,253.0406950918259 123.78345070406795,253.9503355124616 121.14524647872895,254.19841908558737 114.51408450677991,255.60422455862863 113.44454225338995,255.52153018699028 112.94542253483087,255.1080582010327 112.51760563347489,254.19841908558737 110.8776408447884,248.57517269160599 109.52288732351735,246.2597068991745 108.52464788686484,245.2673623818555 108.2394366194494,244.6884941830067 108.2394366194494,244.19232111028396 108.66725352080539,243.44806092884392 109.59419014072046,242.37301723263226 111.23415492940694,240.71910105558345 112.3036971827969,239.80944571248256 115.86883802805096,237.82473958469927 119.22007042216137,236.58429577498464 124.06866197148338,235.59193935326766 126.20774647872895,235.42654649785254 130.48591549275443,234.5168851854396 131.48415492940694,234.18609899951844 134.05105633754283,232.8629528983729 134.7640845067799,232.8629528983729 135.19190140860155,233.276436288259 136.4040492954664,234.7649747361429 137.54489436605945,236.8323846895364 138.97095070406795,238.81709325913107 139.89788732351735,240.80179694504477 140.9674295769073,242.53840866376413 142.75,246.09431623091223 142.6786971827969,248.16169714462012 142.32218309864402,248.8232579177129 141.53785211220384,249.4021231494262 139.39876760542393,250.47715747688198 138.47183098597452,251.22141117224237 137.75880281673744,251.4694955846644 133.19542253483087,252.37913777760696 131.91197183076292,252.79261116246926 126.42165492940694,253.53686272131745 125.13820422487333,253.9503355124616 122.28609154885635,254.44650258251932 119.50528169004247,254.61189153802115 114.08626760542393,255.76961327681784 113.01672535203397,256.4311678100494 111.80457746423781,257.5061927693896 109.30897887283936,258.49852222949266 108.3820422529243,258.41582815436414 108.16813380271196,258.58121629594825 108.09683098550886,258.8292984450236 108.59595070406795,259.90432020806475 108.4533450701274,260.31778973533073 107.81161971809343,260.8966467176215 107.0272887321189,261.31011573650176 105.60123239364475,262.3024405167089 104.888204225339,262.3024405167089 104.03257042216137,261.97166572563583 103.46214788686484,260.97934053844074 102.96302816830575,259.90432020806475 102.25,259.07738051738124 102.67781690135598,258.9119924775441 104.17517605610192,258.7466044037137 104.38908450677991,258.8292984450236 104.5316901402548,259.07738051738124 104.95950704207644,259.32546251348685" stroke="#4dd2ff" stroke-linecap="round" stroke-linejoin="round" stroke-width="0.5"><title>2023-03-28 2.9km</title></polyline></svg>