<?xml version="1.0" encoding="utf-8" ?>
<svg baseProfile="full" height="300mm" version="1.1" viewBox="0,0,200,300" width="200mm" xmlns="http://www.w3.org/2000/svg" xmlns:ev="http://www.w3.org/2001/xml-events" xmlns:xlink="http://www.w3.org/1999/xlink"><defs /><rect fill="#222222" height="300" width="200" x="0" y="0" /><text fill="#FFFFFF" style="font-size:12px; font-family:Arial; font-weight:bold;" x="10" y="20">Over 2km Workouts</text><text fill="#FFFFFF" style="font-size:4px; font-family:Arial" x="10" y="280">ATHLETE</text><text fill="#FFFFFF" style="font-size:9px; font-family:Arial" x="10" y="290">Koobai</text><text fill="#FFFFFF" style="font-size:4px; font-family:Arial" x="120" y="280">STATISTICS</text><text fill="#FFFFFF" style="font-size:3px; font-family:Arial" x="120" y="285">Number: 6</text><text fill="#FFFFFF" style="font-size:3px; font-family:Arial" x="120" y="290">Weekly: 3.0</text><text fill="#FFFFFF" style="font-size:3px; font-family:Arial" x="141" y="285">Total: 16.6 km</text><text fill="#FFFFFF" style="font-size:3px; font-family:Arial" x="141" y="290">Avg: 2.8 km</text><text fill="#FFFFFF" style="font-size:3px; font-family:Arial" x="167" y="285">Min: 2.2 km</text><text fill="#FFFFFF" style="font-size:3px; font-family:Arial" x="167" y="290">Max: 3.2 km</text><polyline fill="none" points="30.987490659579635,62.800141726620495 31.375501055270433,68.65014742407948 31.375501055270433,79.00013840431347 34.86759460531175,74.05014576297253 39.911729738116264,70.00014763185754 43.40382329188287,68.65014742407948 52.71607276238501,66.85014650179073 58.14821828715503,63.250142441596836 60.08827026374638,57.85013081692159 60.08827026374638,52.90011432254687 58.92423907853663,48.850096677429974 56.59617670997977,45.70008036727086 53.88010394573212,43.45006733434275 50.3880103956908,42.10005896119401 48.05994802713394,42.10005896119401 45.34387526474893,42.550061798188835 36.4196361862123,46.600085257552564 27.88340750336647,46.600085257552564 26.331365924328566,48.40009448537603 25.167334739118814,52.00011072540656 25.555345134809613,55.15012251259759 29.04743868857622,59.65013542957604 42.23979210667312,68.20014726230875 59.31224947236478,62.35014096600935 62.804343024268746,62.35014096600935 61.64031184092164,59.65013542957604 60.08827026374638,57.85013081692159 56.984187103807926,56.0501254638657 53.49209355376661,55.15012251259759 49.22397921048105,54.70012096641585 39.13570895045996,55.15012251259759 31.763511449098587,53.80011773714796 24.391313951462507,54.25011937413365 29.82345947623253,56.0501254638657 36.03162579238415,62.35014096600935 39.523719342425466,63.250142441596836 53.10408315807581,63.250142441596836 58.92423907853663,61.45013930415735 60.86429105140269,60.10013646678999 61.25230144523084,57.85013081692159 60.476280657574534,51.550108856055886 60.86429105140269,52.00011072540656 60.476280657574534,51.10010694107041 53.49209355376661,47.0500876349397 49.22397921048105,46.150082835927606 47.67193763330579,46.150082835927606 40.68775052763522,49.30009882198647 39.13570895045996,48.850096677429974 34.09157381951809,41.65005607670173 34.09157381951809,39.85004408285022 34.86759460531175,39.4000409678556 39.523719342425466,37.15002470603213 48.83596881479025,34.0 53.49209355376661,34.0 55.43214552663267,35.800014393404126 56.59617670997977,37.600028049666435 56.59617670997977,43.00006459001452 51.94005197286606,54.25011937413365 47.67193763330579,61.000138404779136 44.17984407953918,61.90014015696943 38.35968815907836,56.0501254638657 31.763511449098587,52.450112545862794 29.82345947623253,52.450112545862794 27.49539710767567,53.350116052199155 25.167334739118814,56.0501254638657 24.391313951462507,57.40012954734266 25.555345134809613,57.85013081692159 31.763511449098587,57.40012954734266 33.70356342382729,59.65013542957604 34.47958421334624,66.85014650179073 32.539532240480185,73.15014650067315 32.539532240480185,81.2501332135871 34.09157381951809,84.40012400969863 37.195656975731254,86.20011773565784 39.911729738116264,87.10011432180181 54.656124737113714,85.30012096464634 62.02832223661244,87.10011432180181 65.5204157885164,89.80010297289118 67.84847815521061,93.85008283471689 67.0724573675543,97.90005895867944 65.5204157885164,99.70004714978859 50.0,104.20001439377666 44.17984407953918,102.85002470482141 41.46377131715417,101.05003780592233 39.13570895045996,97.45006179669872 36.03162579238415,94.300080365967 34.47958421334624,89.80010297289118 34.47958421334624,85.30012096464634 37.58366736955941,76.75014244066551 37.195656975731254,73.15014650067315 35.25560500100255,70.00014763185754 28.271417897194624,62.35014096600935 26.331365924328566,58.30013203853741 26.331365924328566,54.25011937413365 27.88340750336647,50.65010498045012 30.987490659579635,47.0500876349397 40.29974013380706,44.35007268656045 50.0,39.4000409678556 53.88010394573212,39.4000409678556 58.14821828715503,40.75005017174408 60.86429105140269,43.45006733434275 62.02832223661244,46.150082835927606 61.64031184092164,54.25011937413365 59.70025986805558,59.200134344398975 56.984187103807926,61.90014015696943 54.268114341422915,63.250142441596836 41.075760923326015,67.30014680093154 38.35968815907836,67.75014705397189 35.64361539669335,65.95014576334506 30.987490659579635,60.55013745976612 26.719376320019364,57.85013081692159 25.167334739118814,55.15012251259759 25.943355530500412,51.10010694107041 28.659428292885423,47.95009224675596 42.23979210667312,40.30004715034738 45.34387526474893,39.4000409678556 50.77602078951895,39.85004408285022 56.984187103807926,41.65005607670173 60.476280657574534,44.35007268656045 62.02832223661244,47.50008996389806 62.41633263230324,52.00011072540656 62.02832223661244,55.15012251259759 60.476280657574534,59.65013542957604 58.53622868284583,62.800141726620495 51.552041579037905,66.85014650179073 34.86759460531175,73.60014615487307 32.539532240480185,75.40014431020245 31.763511449098587,79.45013745781034 33.70356342382729,94.300080365967 35.25560500100255,99.25005017081276 37.58366736955941,101.95003134850413 41.46377131715417,103.75001787673682 51.94005197286606,106.0 54.656124737113714,106.0 56.984187103807926,105.10000728955492 63.580363815650344,99.70004714978859 64.74439499899745,92.50008996250108 65.5204157885164,91.1500966749154 69.01250934042037,88.45010885410011 74.44465486705303,85.75011937273666 75.60868604853749,84.40012400969863 74.83266525901854,83.05012823082507 73.66863407567143,82.60012954566628 64.3563846051693,82.15013081487268" stroke="#4dd2ff" stroke-linecap="round" stroke-linejoin="round" stroke-width="0.5"><title>2023-04-06 2.2km</title></polyline><polyline fill="none" points="120.93453280627728,41.854584912769496 127.70706885308027,44.47277773683891 132.78647088631988,49.054612594190985 132.78647088631988,50.36370766395703 130.52895887196064,52.98189699696377 124.32080082967877,52.98189699696377 124.8851788341999,53.636444163974375 132.78647088631988,47.745517258066684 138.4302509240806,48.40006496012211 145.20278696715832,46.43642164953053 151.97532301396132,39.89093959145248 157.05472504720092,38.58184237405658 163.26288308948278,40.54548809863627 171.7285531423986,48.40006496012211 174.55044316127896,54.29099126160145 176.8079551756382,62.145551211666316 172.29293114691973,73.9273730176501 170.0354191288352,75.23646298563108 154.23283502832055,75.23646298563108 148.02467698603868,76.54555268865079 143.5096529573202,74.5819180351682 134.47960489615798,64.1091896891594 123.75642282515764,59.5273656360805 120.93453280627728,54.29099126160145 123.75642282515764,49.7091601616703 128.83582485839725,47.745517258066684 138.99462892860174,47.745517258066684 152.53970101848245,39.89093959145248 157.05472504720092,38.58184237405658 162.69850508496165,39.89093959145248 165.52039510011673,41.854584912769496 173.98606516048312,51.01825509779155 175.67919917032123,54.9455382945016 176.8079551756382,61.49100491870195 176.24357717484236,68.03646483272314 174.55044316127896,71.30919227283448 169.47104112803936,73.9273730176501 160.44099307060242,73.9273730176501 145.20278696715832,75.89100787090138 124.32080082967877,58.21827244479209 123.75642282515764,56.909178987611085 124.8851788341999,53.636444163974375 136.73711691051722,45.127325776498765 156.4903470426798,39.236391017213464 164.39163909479976,41.20003654062748 173.421687155962,50.36370766395703 174.55044316127896,52.32734976662323 176.24357717484236,62.8000974371098 175.67919917032123,68.69101045420393 172.29293114691973,73.27282793261111 166.08477310836315,75.23646298563108 152.53970101848245,73.27282793261111 144.07403096184134,74.5819180351682 140.68776293843985,72.61828277958557 137.86587291955948,67.38191914418712 133.350848890841,63.45464359782636 127.14269084855914,60.18191213114187 124.8851788341999,58.21827244479209 122.62766681984067,51.672802465967834 124.8851788341999,46.43642164953053 129.40020286664367,44.47277773683891 133.350848890841,44.47277773683891 138.4302509240806,47.09096948755905 145.76716497167945,45.78187374677509 153.1040790192783,45.127325776498765 159.87661506608129,41.20003654062748 164.39163909479976,39.89093959145248 167.77790711820126,41.20003654062748 175.67919917032123,48.40006496012211 177.37233318015933,53.636444163974375 177.93671118840575,58.21827244479209 176.8079551756382,63.45464359782636 175.1148211658001,67.38191914418712 170.59979713708162,70.00010149786249 145.20278696715832,75.89100787090138 127.14269084855914,64.1091896891594 123.1920448243618,57.563725747633725 123.1920448243618,55.60008525848389 125.44955683499575,48.40006496012211 128.83582485839725,46.43642164953053 136.17273890599608,48.40006496012211 142.38089695200324,47.09096948755905 152.53970101848245,41.854584912769496 157.61910304799676,40.54548809863627 161.00537107139826,40.54548809863627 164.9560170993209,42.50913321971893 171.7285531423986,48.40006496012211 173.421687155962,52.32734976662323 175.1148211658001,60.18191213114187 174.55044316127896,68.03646483272314 172.29293114691973,71.30919227283448 168.90666312351823,73.27282793261111 147.46029898524284,75.89100787090138 140.12338493391871,72.61828277958557 127.14269084855914,63.45464359782636 124.32080082967877,60.836458560079336 123.1920448243618,58.21827244479209 123.1920448243618,54.29099126160145 125.44955683499575,45.127325776498765 128.2714468576014,43.81822963198647 134.47960489615798,44.47277773683891 137.86587291955948,43.16368145914748 150.2821890041232,35.30909815756604 155.92596903815866,34.0 161.5697490759194,35.30909815756604 170.0354191288352,41.854584912769496 172.85730915144086,47.09096948755905 173.98606516048312,55.60008525848389 171.7285531423986,64.76373571529984 167.21352911368012,68.03646483272314 157.61910304799676,69.34555601049215 148.02467698603868,69.34555601049215 143.5096529573202,67.38191914418712 138.99462892860174,66.07282756222412 131.09333687275648,62.8000974371098 127.70706885308027,60.18191213114187 126.57831284403801,56.25463215634227 127.70706885308027,51.01825509779155 129.9645808674395,47.745517258066684 137.30149491503835,50.36370766395703 146.33154297620058,49.7091601616703 154.23283502832055,38.58184237405658 157.05472504720092,37.27274488797411 161.5697490759194,38.58184237405658 170.59979713708162,45.127325776498765 174.55044316127896,50.36370766395703 176.8079551756382,56.25463215634227 176.8079551756382,62.8000974371098 175.67919917032123,66.72737338533625 173.421687155962,69.34555601049215 168.90666312351823,71.30919227283448 147.46029898524284,73.9273730176501 144.07403096184134,73.27282793261111 140.12338493391871,70.00010149786249 137.86587291955948,70.65464691771194 128.2714468576014,67.38191914418712 123.75642282515764,62.145551211666316 121.4989108107984,55.60008525848389 121.4989108107984,51.01825509779155 124.32080082967877,48.40006496012211 127.14269084855914,47.745517258066684 133.91522689536214,48.40006496012211 142.38089695200324,45.78187374677509 149.7178109958768,44.47277773683891 157.61910304799676,39.89093959145248 163.26288308948278,41.854584912769496 171.16417514160275,51.01825509779155 173.421687155962,58.21827244479209 173.98606516048312,66.72737338533625 173.421687155962,70.00010149786249 171.16417514160275,73.27282793261111 167.77790711820126,74.5819180351682 159.87661506608129,73.9273730176501 153.1040790192783,74.5819180351682 138.4302509240806,83.74554124614224 137.30149491503835,87.01826063496992 138.4302509240806,101.41820601001382 140.12338493391871,103.38183240965009 142.94527495279908,105.34545820392668 152.53970101848245,104.69091633986682 159.31223706156015,106.0 163.26288308948278,105.34545820392668 173.98606516048312,99.4545790082775 179.06546719372272,98.14549400564283" stroke="#4dd2ff" stroke-linecap="round" stroke-linejoin="round" stroke-width="0.5"><title>2023-04-04 2.2km</title></polyline><polyline fill="none" points="41.610580038279295,153.89202685374767 39.51322504878044,153.40554074198008 38.67428305186331,154.37851291755214 37.83534105680883,155.83797080628574 38.67428305186331,158.27039962168783 40.352167043834925,158.27039962168783 51.67788399197161,148.54067687503994 69.29566590674222,142.21634639101103 70.97354990057647,140.27039685379714 71.39302089624107,137.35147105203941 70.1346079017967,128.10819416772574 69.29566590674222,125.18926088418812 65.93989792466164,121.2973470473662 58.8088909573853,115.45947030512616 55.03365197405219,114.0 50.41947099752724,115.45947030512616 41.19110904075205,120.81085759354755 36.996399061754346,120.81085759354755 33.64063107781112,120.32436808943748 29.86539209447801,122.27032580645755 28.60697910003364,124.70277182944119 28.1875081025064,126.16223884513602 29.026450097560883,127.13521660724655 36.15745706483722,132.97307898337021 43.28846403025091,141.72985908202827 49.16105800308287,144.64878218946978 60.48677494749427,144.64878218946978 71.39302089624107,142.70283365109935 73.49037588946521,140.75688431225717 72.65143389068544,138.32444651983678 72.2319628931582,132.97307898337021 68.03725291416049,127.13521660724655 63.00360093638301,124.21628272533417 52.097354989498854,122.75681511033326 43.70793502777815,124.21628272533417 37.83534105680883,123.72979357140139 31.962747083976865,116.91894016508013 27.768037104979157,114.97298025386408 25.251211117953062,115.45947030512616 24.831740118563175,115.94596030889079 24.831740118563175,117.89191982150078 29.86539209447801,123.2433043657802 35.737986067309976,128.10819416772574 42.868993032723665,142.21634639101103 47.902645010501146,146.5947299315594 52.516825987026095,149.51365004759282 58.8088909573853,148.54067687503994 65.93989792466164,145.13526920042932 68.87619490921497,142.21634639101103 70.55407890118659,139.29742178600281 70.55407890118659,131.02712565427646 69.29566590674222,127.13521660724655 68.03725291416049,125.18926088418812 60.906245946884155,120.81085759354755 55.45312297344208,119.35138893174008 52.097354989498854,119.83787853550166 46.22476101666689,122.75681511033326 40.352167043834925,123.2433043657802 35.318515069782734,122.27032580645755 29.86539209447801,126.64872775133699 29.445921095088124,130.05414869310334 30.284863093867898,133.45956719154492 31.962747083976865,135.40551952039823 39.51322504878044,138.32444651983678 44.96634802222252,147.08121674135327 47.06370301358402,147.56770350318402 60.906245946884155,146.10824307147413 66.35936892218888,144.1622951286845 68.45672391168773,141.72985908202827 69.7151369061321,139.29742178600281 70.55407890118659,134.43254345469177 70.1346079017967,129.0811715302989 69.29566590674222,126.16223884513602 67.198310919106,122.75681511033326 62.164658941328526,117.89191982150078 57.13100696541369,115.94596030889079 54.61418097652495,116.43245026282966 44.54687702655792,121.78383645275608 38.67428305186331,122.27032580645755 34.479573072865605,120.32436808943748 31.962747083976865,121.2973470473662 30.284863093867898,122.75681511033326 29.86539209447801,124.70277182944119 30.704334089532495,127.6217054114677 35.737986067309976,131.5136140617542 39.51322504878044,134.91903151199222 42.868993032723665,144.1622951286845 47.06370301358402,145.13526920042932 57.55047796480358,145.13526920042932 65.52042692527175,142.70283365109935 68.03725291416049,140.27039685379714 69.7151369061321,136.86498324386775 70.1346079017967,134.43254345469177 69.29566590674222,128.5946828732267 68.45672391168773,126.64872775133699 65.93989792466164,124.21628272533417 63.00360093638301,122.75681511033326 53.775238981470466,121.2973470473662 38.25481205433607,124.21628272533417 32.38221808336675,121.2973470473662 29.026450097560883,123.72979357140139 27.348566107451916,126.64872775133699 27.768037104979157,129.0811715302989 30.704334089532495,134.43254345469177 38.25481205433607,138.8109341780655 42.44952203519642,145.13526920042932 47.48317401111126,146.5947299315594 62.58412994071841,145.62175616016611 66.77883991971612,143.67580801947042 68.87619490921497,141.24337172182277 70.55407890118659,136.86498324386775 70.55407890118659,134.43254345469177 70.1346079017967,129.56766013614833 67.198310919106,126.16223884513602 64.26201393082738,124.21628272533417 61.3257169444114,123.72979357140139 47.902645010501146,125.18926088418812 43.28846403025091,124.21628272533417 35.737986067309976,119.83787853550166 31.54327608831227,119.83787853550166 28.1875081025064,121.2973470473662 32.38221808336675,128.5946828732267 39.0937540512532,135.40551952039823 42.03005103766918,141.72985908202827 45.80529002100229,143.1893208604306 59.647832952439785,144.64878218946978 69.7151369061321,142.70283365109935 71.39302089624107,139.78390934551135 72.2319628931582,135.40551952039823 70.55407890118659,128.5946828732267 65.93989792466164,124.70277182944119 59.647832952439785,122.27032580645755 44.96634802222252,123.2433043657802 35.737986067309976,119.83787853550166 32.80168908089399,119.83787853550166 28.60697910003364,121.78383645275608 28.1875081025064,123.72979357140139 29.86539209447801,127.6217054114677 40.352167043834925,136.86498324386775 44.54687702655792,145.13526920042932 47.06370301358402,147.56770350318402 49.58052900061011,148.54067687503994 62.58412994071841,147.08121674135327 68.87619490921497,143.67580801947042 71.81249189563096,140.75688431225717 72.2319628931582,136.86498324386775 69.29566590674222,126.64872775133699 67.61778191663325,124.21628272533417 57.96994896233082,114.48649015184492 55.87259397096932,114.0 52.097354989498854,115.94596030889079 47.902645010501146,120.81085759354755 44.96634802222252,122.27032580645755 41.610580038279295,123.2433043657802 31.12380508892238,122.75681511033326 28.1875081025064,124.21628272533417 29.445921095088124,127.13521660724655 31.962747083976865,129.56766013614833 39.51322504878044,135.8920074775815 44.54687702655792,143.1893208604306 45.80529002100229,144.1622951286845 48.74158700555563,145.13526920042932 55.45312297344208,146.10824307147413 62.58412994071841,149.02716348692775 69.29566590674222,149.02716348692775 71.39302089624107,148.05419021472335 73.90984688512981,139.78390934551135 73.49037588946521,133.94605534756556 72.2319628931582,130.5406372002326 67.61778191663325,123.72979357140139 60.06730395182967,120.32436808943748 50.41947099752724,119.83787853550166 41.19110904075205,120.32436808943748 37.41587006114423,119.35138893174008 34.89904407225549,119.35138893174008 32.38221808336675,120.32436808943748 28.1875081025064,124.21628272533417 28.1875081025064,126.16223884513602 29.445921095088124,128.5946828732267 34.06010207720101,132.48659072630107 40.77163804322481,136.86498324386775 45.80529002100229,144.64878218946978 49.16105800308287,146.10824307147413 55.87259397096932,145.62175616016611 60.906245946884155,146.5947299315594 65.10095592588186,146.10824307147413 68.87619490921497,145.13526920042932 70.55407890118659,143.67580801947042 71.81249189563096,140.75688431225717 72.65143389068544,132.97307898337021 70.55407890118659,129.56766013614833 67.198310919106,126.64872775133699 57.55047796480358,122.75681511033326 54.19470997899771,122.27032580645755 44.127406027168036,123.72979357140139 35.737986067309976,121.78383645275608 34.06010207720101,122.27032580645755 29.86539209447801,126.64872775133699 29.445921095088124,129.56766013614833 31.962747083976865,132.48659072630107 38.67428305186331,138.32444651983678 41.610580038279295,144.64878218946978 42.03005103766918,147.08121674135327 39.51322504878044,150.97310943203047 39.51322504878044,156.81094248127192 42.868993032723665,167.0271330359392 47.06370301358402,169.45955611765385 51.67788399197161,169.9460405833088 61.74518794193864,168.00010241940618 69.7151369061321,167.5136177521199 73.07090489007533,169.45955611765385 74.74878888204694,171.89197795139626 74.74878888204694,173.35143045289442 72.65143389068544,176.7568178777583 63.84254293330014,180.64868622878566 58.38941995985806,184.5405513891019 54.19470997899771,186.0 51.67788399197161,185.51351717999205 47.48317401111126,183.56758539797738 45.80529002100229,176.27033411012962 45.80529002100229,173.83791452087462 47.06370301358402,171.89197795139626 55.03365197405219,165.5676785907708 59.22836195491254,164.108223693911 71.39302089624107,157.29742824379355 74.74878888204694,156.81094248127192 74.74878888204694,159.7298563127406 74.3293178845197,159.7298563127406 75.16825987957418,158.75688523519784 74.3293178845197,157.78391395835206 74.74878888204694,158.27039962168783" stroke="#ff0000" stroke-linecap="round" stroke-linejoin="round" stroke-width="0.5"><title>2023-04-01 3.2km</title></polyline><polyline fill="none" points="145.05718963593245,144.26765711326152 141.49836617521942,148.39504903368652 135.56699373945594,153.8982323356904 138.33496754430234,150.68804289819673 145.8480392936617,146.10205399245024 149.8022875841707,144.72625640314072 158.10620899498463,145.18485564598814 161.66503245569766,144.26765711326152 164.03758142888546,142.43325948156416 166.01470557413995,138.7644619620405 166.80555523186922,132.80265957443044 165.619280744344,127.75805134931579 163.64215660095215,124.08924179477617 158.8970586527139,119.50322561757639 154.9428103622049,118.12741984659806 150.5931372437626,118.58602181728929 140.3120916876942,124.54784315312281 136.3578433971852,124.08924179477617 131.21732062101364,121.33763265283778 128.05392198823392,122.71343743428588 129.63562130369246,124.54784315312281 137.93954271264374,128.67525326879695 142.684640660882,136.0128618478775 145.4526144657284,137.38866211660206 157.71078416518867,137.38866211660206 164.03758142888546,136.0128618478775 166.01470557413995,134.1784608317539 166.80555523186922,132.344059064053 164.03758142888546,126.3822481194511 160.08333313837647,124.08924179477617 155.33823519013822,122.71343743428588 150.5931372437626,123.6306403875351 141.89379100315273,126.84084924217314 137.54411788471043,126.3822481194511 132.79901993647218,123.6306403875351 131.61274544894695,124.08924179477617 130.03104613535106,125.92364694876596 129.2401964738965,128.21665233233944 130.03104613535106,130.50965654104948 138.73039237223566,136.47146198386326 144.66176480799913,145.18485564598814 146.63888895325363,146.56065309420228 150.5931372437626,147.47785115800798 160.08333313837647,145.18485564598814 163.2467317711562,143.80905777635053 165.22385591641068,142.43325948156416 166.80555523186922,138.7644619620405 167.20098006166518,135.5542616643943 166.41013040207326,130.9682572428137 164.03758142888546,127.2994503187947 157.71078416518867,122.71343743428588 152.17483655922115,121.33763265283778 139.91666685976088,126.84084924217314 136.75326822698116,126.3822481194511 132.40359510667622,124.54784315312281 129.63562130369246,125.00644446443766 128.05392198823392,127.2994503187947 128.05392198823392,129.5924549982883 129.63562130369246,131.42685789614916 136.3578433971852,135.5542616643943 142.28921583294868,141.05746076488867 145.05718963593245,141.9746599555947 156.52450967766345,142.43325948156416 160.47875797003508,141.9746599555947 163.2467317711562,140.14026138512418 165.22385591641068,137.38866211660206 166.01470557413995,134.1784608317539 166.01470557413995,131.42685789614916 165.22385591641068,129.5924549982883 160.47875797003508,125.46504573011771 154.54738553240895,123.6306403875351 141.89379100315273,125.46504573011771 134.38071925379336,124.54784315312281 130.42647096142173,126.3822481194511 129.63562130369246,128.21665233233944 129.63562130369246,130.05105579365045 131.21732062101364,132.80265957443044 137.93954271264374,137.84726211288944 142.684640660882,143.80905777635053 144.66176480799913,145.18485564598814 148.22058826871216,146.10205399245024 158.8970586527139,145.64345484273508 164.43300625868142,143.35045839194208 166.01470557413995,141.5160603839904 167.20098006166518,138.30586206074804 167.5964048895985,135.5542616643943 166.41013040207326,130.05105579365045 161.66503245569766,123.6306403875351 158.10620899498463,121.33763265283778 153.36111104488373,119.96182744717225 141.1029413472861,125.46504573011771 137.14869305677712,125.92364694876596 132.40359510667622,125.00644446443766 129.2401964738965,125.00644446443766 128.44934681802988,125.92364694876596 128.8447716459632,128.21665233233944 130.42647096142173,130.9682572428137 135.17156890965998,135.5542616643943 139.12581719830632,141.9746599555947 142.28921583294868,145.18485564598814 148.61601309664547,148.39504903368652 155.33823519013822,147.93645011866465 161.66503245569766,145.18485564598814 165.619280744344,140.59886109782383 166.80555523186922,136.47146198386326 166.80555523186922,124.54784315312281 157.71078416518867,120.87903096340597 150.98856207169592,119.96182744717225 141.49836617521942,125.00644446443766 131.61274544894695,125.46504573011771 128.44934681802988,127.2994503187947 127.65849716030061,129.13385415822268 128.8447716459632,131.42685789614916 134.38071925379336,135.09566143527627 139.12581719830632,141.5160603839904 141.1029413472861,142.89185896050185 151.38398689962924,144.26765711326152 158.8970586527139,143.80905777635053 162.06045728363097,142.43325948156416 164.03758142888546,140.14026138512418 165.619280744344,136.93006207467988 166.01470557413995,133.7198604606092 164.43300625868142,130.05105579365045 156.52450967766345,122.71343743428588 153.75653587467968,122.25483588734642 150.98856207169592,122.71343743428588 139.91666685976088,126.84084924217314 136.3578433971852,126.3822481194511 131.61274544894695,123.6306403875351 130.03104613535106,124.54784315312281 128.8447716459632,127.2994503187947 129.63562130369246,132.344059064053 132.0081702787429,136.0128618478775 139.91666685976088,139.68166162539274 145.4526144657284,144.72625640314072 147.03431378304958,145.18485564598814 153.36111104488373,143.35045839194208 160.87418279610574,142.89185896050185 163.64215660095215,141.5160603839904 166.01470557413995,138.7644619620405 167.20098006166518,134.6370611563325 167.5964048895985,130.9682572428137 166.80555523186922,125.92364694876596 165.619280744344,123.17203893465921 163.2467317711562,120.420429228805 160.47875797003508,118.12741984659806 156.52450967766345,117.66881783027202 152.96568621508777,118.58602181728929 144.66176480799913,125.46504573011771 141.89379100315273,126.84084924217314 138.33496754430234,126.84084924217314 133.9852944239974,125.00644446443766 130.42647096142173,125.46504573011771 128.8447716459632,126.84084924217314 128.8447716459632,128.67525326879695 129.63562130369246,132.80265957443044 130.82189579121768,134.6370611563325 137.93954271264374,137.38866211660206 142.28921583294868,143.80905777635053 145.8480392936617,145.18485564598814 159.2924834806472,144.26765711326152 162.85130694136024,143.35045839194208 165.22385591641068,141.05746076488867 166.80555523186922,136.47146198386326 166.41013040207326,133.26126004057005 164.03758142888546,130.05105579365045 159.68790830858052,127.2994503187947 153.36111104488373,125.92364694876596 141.89379100315273,128.21665233233944 133.5898695960641,126.84084924217314 130.42647096142173,128.21665233233944 129.63562130369246,130.9682572428137 130.42647096142173,133.26126004057005 132.40359510667622,135.09566143527627 141.49836617521942,139.68166162539274 144.66176480799913,144.72625640314072 147.42973860912025,147.01925215031952 149.8022875841707,147.47785115800798 160.87418279610574,144.72625640314072 164.03758142888546,141.9746599555947 165.22385591641068,139.68166162539274 165.619280744344,135.09566143527627 165.22385591641068,125.92364694876596 164.43300625868142,122.25483588734642 162.85130694136024,119.96182744717225 156.12908484973013,114.45860239258036 154.151960702613,114.0 152.57026138715446,114.91720473812893 145.4526144657284,121.7962342929095 141.1029413472861,124.54784315312281 137.93954271264374,125.00644446443766 133.19444476626813,124.54784315312281 131.21732062101364,125.46504573011771 129.2401964738965,127.2994503187947 128.44934681802988,129.5924549982883 128.44934681802988,131.42685789614916 130.03104613535106,133.7198604606092 138.33496754430234,138.7644619620405 141.49836617521942,144.72625640314072 141.89379100315273,148.8536479016766 138.33496754430234,152.9810355892405 137.93954271264374,157.10841946862638 139.52124202996492,161.6943970923312 141.49836617521942,164.9045786303468 147.03431378304958,166.7389670452103 156.52450967766345,165.82177293207496 164.82843108847737,167.19756403239444 168.3872545491904,169.03195150895044 171.94607800990343,173.6179169076495 172.34150283783674,175.9108978426084 171.94607800990343,177.745281746611 168.7826793771237,180.49685618979856 156.52450967766345,185.54140494018793 150.5931372437626,186.0 147.03431378304958,185.08280983334407 143.4754903204739,182.33123821159825 141.89379100315273,176.3694938896224 142.28921583294868,173.1593205789104 145.8480392936617,168.11475786473602 149.8022875841707,166.7389670452103 158.10620899498463,167.65616097301245 164.82843108847737,161.2357995416969 170.3643786944449,159.86000660667196" stroke="#ff1000" stroke-linecap="round" stroke-linejoin="round" stroke-width="0.5"><title>2023-03-31 3.1km</title></polyline><polyline fill="none" points="46.45070422627032,244.99533446412534 45.436619717627764,248.5236216909252 38.84507042169571,253.81604846240953 33.77464788593352,254.99214263632894 28.704225352033973,254.40409557893872 28.197183098644018,253.22800128394738 33.26760563440621,245.58338248636574 41.88732394389808,238.52680224413052 45.436619717627764,237.3507046927698 57.60563380457461,235.5865579135716 63.18309859186411,232.05826272955164 65.71830985881388,226.7658158824779 66.22535211406648,220.88531365944073 65.21126760356128,213.82870303140953 62.676056338474154,207.94818754447624 60.647887321189046,205.0079275406897 53.04225352033973,199.71545573417097 43.9154929574579,197.95129737863317 41.88732394389808,199.12740301014856 36.81690140813589,205.5959796612151 32.253521125763655,209.12429112475365 24.14084507152438,212.0645490186289 15.01408450677991,217.9450602857396 18.563380282372236,222.6494649606757 29.211267607286572,227.9419156028889 38.338028168305755,235.5865579135716 41.38028169050813,236.17460690066218 56.59154929406941,234.41045976104215 65.71830985881388,231.47021332010627 67.74647887423635,227.3538657729514 66.73239436559379,219.70921248942614 62.1690140850842,213.24065175419673 44.4225352127105,206.77208372345194 33.26760563440621,209.71234282338992 27.18309859186411,209.12429112475365 23.633802816271782,207.94818754447624 17.549295773729682,210.30039446381852 17.549295773729682,213.24065175419673 19.070422533899546,216.18090753862634 31.23943662084639,227.3538657729514 37.32394366338849,237.3507046927698 41.88732394389808,240.29094811994582 45.94366197101772,240.29094811994582 60.14084507152438,235.5865579135716 66.22535211406648,230.29411432379857 68.76056338101625,225.58971591992304 66.73239436559379,214.41675424948335 60.14084507152438,212.6526004159823 54.563380282372236,205.5959796612151 45.94366197101772,204.4198753577657 41.88732394389808,205.0079275406897 30.73239436559379,210.30039446381852 22.112676056101918,209.71234282338992 16.535211266949773,213.82870303140953 19.070422533899546,217.35700943134725 27.18309859186411,221.47336415247992 30.73239436559379,225.00166584877297 34.28169013932347,230.88216385198757 36.81690140813589,233.23436136590317 42.90140845067799,234.41045976104215 56.0845070425421,233.23436136590317 58.61971830949187,232.05826272955164 62.676056338474154,228.5299653755501 66.22535211406648,220.29726310446858 66.73239436559379,217.35700943134725 64.70422535203397,209.12429112475365 64.19718309864402,202.65571845136583 62.1690140850842,201.4796135444194 51.01408450677991,201.4796135444194 39.85915493033826,208.53623936604708 33.26760563440621,210.30039446381852 29.718309858813882,209.71234282338992 22.619718309491873,206.1840317226015 21.09859154932201,207.94818754447624 17.042253520339727,215.00480540748686 21.605633802711964,219.70921248942614 30.73239436559379,223.82556552439928 34.28169013932347,229.11801508488134 35.80281690321863,233.23436136590317 37.8309859149158,234.99850886734203 51.52112676203251,235.5865579135716 59.63380281627178,233.8224105942063 62.676056338474154,232.05826272955164 64.19718309864402,230.88216385198757 66.22535211406648,225.58971591992304 66.73239436559379,222.06141458638012 65.71830985881388,217.9450602857396 62.1690140850842,213.82870303140953 58.11267605610192,210.8884460432455 51.01408450677991,207.94818754447624 45.94366197101772,206.77208372345194 32.760563381016254,210.30039446381852 25.6619718298316,207.94818754447624 19.070422533899546,210.30039446381852 20.59154929406941,213.24065175419673 23.633802816271782,216.76895851409063 31.7464788723737,223.2375152716413 36.81690140813589,232.64631207846105 38.84507042169571,234.41045976104215 43.4084507022053,236.76265582768247 56.59154929406941,235.5865579135716 64.70422535203397,232.05826272955164 66.73239436559379,224.41361571568996 64.70422535203397,216.18090753862634 58.11267605610192,210.30039446381852 56.59154929406941,206.77208372345194 46.45070422627032,205.0079275406897 35.80281690321863,209.71234282338992 31.23943662084639,210.30039446381852 25.154929576441646,209.71234282338992 22.112676056101918,207.94818754447624 19.577464789152145,212.0645490186289 17.549295773729682,217.35700943134725 19.577464789152145,222.6494649606757 29.211267607286572,226.7658158824779 34.78873239271343,233.8224105942063 36.81690140813589,235.5865579135716 43.4084507022053,236.76265582768247 52.53521126694977,236.76265582768247 60.14084507152438,234.41045976104215 64.70422535203397,229.7060647336766 65.21126760356128,226.7658158824779 64.70422535203397,222.06141458638012 60.647887321189046,214.41675424948335 53.04225352033973,210.8884460432455 45.436619717627764,208.53623936604708 34.78873239271343,210.8884460432455 24.14084507152438,206.1840317226015 20.59154929406941,207.94818754447624 14.507042253389955,208.53623936604708 14.507042253389955,210.8884460432455 18.563380282372236,215.00480540748686 30.73239436559379,220.88531365944073 32.253521125763655,224.41361571568996 34.78873239271343,233.8224105942063 37.8309859149158,236.17460690066218 48.47887323796749,234.99850886734203 56.59154929406941,235.5865579135716 64.19718309864402,232.05826272955164 66.73239436559379,226.7658158824779 67.23943662084639,223.2375152716413 63.18309859186411,213.24065175419673 56.0845070425421,209.12429112475365 48.98591549322009,207.36013566423208 33.26760563440621,210.30039446381852 24.14084507152438,209.12429112475365 20.59154929406941,210.30039446381852 16.535211266949773,214.41675424948335 17.549295773729682,217.9450602857396 21.605633802711964,221.47336415247992 27.18309859186411,225.00166584877297 34.28169013932347,235.5865579135716 36.30985915288329,236.76265582768247 54.563380282372236,236.17460690066218 62.676056338474154,233.23436136590317 65.71830985881388,225.58971591992304 65.21126760356128,216.18090753862634 66.22535211406648,210.8884460432455 59.12676056288183,205.5959796612151 45.94366197101772,201.4796135444194 44.4225352127105,202.06766602909192 40.87323943525553,207.36013566423208 34.28169013932347,209.71234282338992 25.6619718298316,209.12429112475365 21.605633802711964,206.77208372345194 18.056338027119637,208.53623936604708 14.0,209.12429112475365 14.507042253389955,213.24065175419673 17.549295773729682,219.70921248942614 18.563380282372236,220.29726310446858 21.09859154932201,219.121161817573 27.690140845254064,220.88531365944073 30.73239436559379,225.58971591992304 35.80281690321863,234.99850886734203 39.352112675085664,237.3507046927698 55.070422533899546,237.3507046927698 61.661971831694245,233.8224105942063 65.71830985881388,228.5299653755501 65.71830985881388,222.6494649606757 64.70422535203397,217.35700943134725 63.18309859186411,215.00480540748686 59.12676056288183,210.8884460432455 53.54929577372968,208.53623936604708 44.929577466100454,209.12429112475365 29.211267607286572,213.82870303140953 26.169014083221555,212.6526004159823 22.619718309491873,209.12429112475365 17.042253520339727,212.6526004159823 17.042253520339727,215.59285650169477 18.056338027119637,217.9450602857396 24.647887324914336,221.47336415247992 30.73239436559379,227.9419156028889 31.7464788723737,236.17460690066218 29.718309858813882,239.11485092854127 26.169014083221555,242.64314177259803 25.154929576441646,244.99533446412534 27.690140845254064,251.46385938720778 28.197183098644018,253.81604846240953 32.253521125763655,260.8726098937914 36.30985915288329,262.0487026218325 43.4084507022053,261.4606562885456 73.32394366152585,257.9323770189658 81.94366197288036,256.7562834471464 86.0,254.99214263632894 82.95774647966027,253.81604846240953 77.88732394389808,253.22800128394738" stroke="#ff1f00" stroke-linecap="round" stroke-linejoin="round" stroke-width="0.5"><title>2023-03-30 3.1km</title></polyline><polyline fill="none" points="114.5070422529243,246.17165574873798 114.63380281673744,246.17165574873798 114.88732394296676,246.02464371314272 116.02816901355982,246.17165574873798 117.29577464750037,247.05372764589265 119.07042253483087,246.02464371314272 120.5915492954664,246.02464371314272 122.2394366194494,246.31866776919924 124.39436619682238,246.17165574873798 128.07042253529653,245.28958330885507 130.98591549228877,245.14257118315436 132.12676056241617,244.55452252819669 132.38028169004247,243.52543680171948 132.38028169004247,240.87921297119465 130.98591549228877,237.35090693447273 129.84507042262703,231.7644046205096 128.57746478868648,229.4121866087662 125.02816901402548,224.85475322999991 124.52112676063552,223.67863903881516 124.64788732398301,222.50252388324589 127.43661971809343,219.56223177351058 130.73239436605945,216.9159637191333 138.84507042216137,212.50550611049403 144.9295774642378,209.85922503261827 157.60563380271196,207.8010030402802 164.450704225339,206.0368104095105 170.1549295769073,203.68455019255634 171.6760563380085,203.68455019255634 172.81690140860155,204.71366451238282 175.09859154978767,207.6539870708948 179.28169014072046,214.26969078194816 181.30985915474594,218.53312811034266 182.95774647872895,221.17939318006393 183.5915492954664,222.9435671797255 185.49295774661005,226.61892270774115 185.74647887283936,228.23607615567744 185.49295774661005,230.29426881519612 184.73239436605945,231.4703775801463 183.5915492954664,232.79349878733046 180.29577464750037,234.99869808682706 177.6338028172031,236.32181603845675 172.1830985918641,237.7919456640957 166.22535211220384,239.40908651100472 160.901408450678,239.85012460756116 152.28169014072046,241.46726313326508 147.59154929593205,241.90830059652217 135.80281690135598,244.40751032647677 133.901408450678,244.26049811020494 133.0140845067799,243.52543680171948 132.25352112622932,241.90830059652217 129.33802816877142,231.9114181182813 126.92957746470347,227.7950344873825 125.15492957737297,226.0308664565673 124.64788732398301,225.00176743639167 124.64788732398301,224.1196819738252 125.40845070360228,222.79655276238918 127.05633802851662,220.88536396913696 129.97183098550886,217.9450685431948 131.87323943618685,216.32790348876733 138.2112676058896,212.7995370393619 144.16901408415288,210.59430359990802 152.7887323941104,208.83011440571863 156.59154929593205,208.53608266275842 164.19718309864402,206.91890699625947 165.97183098597452,206.33084266574588 170.53521126741543,203.9785829304019 171.80281690135598,203.9785829304019 172.56338028190657,204.71366451238282 174.71830985927954,207.3599550863728 176.74647887283936,211.0353505590465 179.28169014072046,214.56372134957928 180.92957746470347,218.09208345774096 182.83098591538146,221.17939318006393 186.0,227.50100663269404 185.8732394366525,231.17635047924705 185.23943661991507,232.35245852032676 183.84507042216137,233.38155226560775 180.04225352127105,235.29272440331988 178.3943661977537,236.6158420839347 177.1267605633475,237.05688103940338 169.0140845067799,238.67402271565516 166.73239436605945,239.40908651100472 156.97183098597452,240.73220039345324 154.6901408447884,241.46726313326508 149.61971830949187,242.34933792438824 144.6760563380085,242.64336273411755 135.04225352127105,244.70153471431695 133.14084507059306,245.87763166218065 130.98591549228877,247.78878714551684 126.54929577419534,249.55292840802576 124.90140845021233,249.4059167188825 124.52112676063552,249.69994008168578 124.39436619682238,250.14097501325887 125.28169014072046,252.05212481424678 125.02816901402548,252.78718175168615 123.88732394343242,253.81626083119772 122.49295774614438,254.55131686478853 119.95774647826329,256.31544980744366 118.69014084525406,256.31544980744366 117.16901408415288,255.72740573436022 116.15492957737297,253.96327206830028 115.26760563347489,252.05212481424678 114.0,250.58200980862603 114.7605633805506,250.28798662661575 117.42253521131352,249.99396338430233 117.80281690089032,250.14097501325887 118.05633802805096,250.58200980862603 118.81690140813589,251.02304446836933" stroke="#4dd2ff" stroke-linecap="round" stroke-linejoin="round" stroke-width="0.5"><title>2023-03-28 2.9km</title></polyline></svg>