<?xml version="1.0" encoding="utf-8" ?>
<svg baseProfile="full" height="300mm" version="1.1" viewBox="0,0,200,300" width="200mm" xmlns="http://www.w3.org/2000/svg" xmlns:ev="http://www.w3.org/2001/xml-events" xmlns:xlink="http://www.w3.org/1999/xlink"><defs /><rect fill="#222222" height="300" width="200" x="0" y="0" /><text fill="#FFFFFF" style="font-size:12px; font-family:Arial; font-weight:bold;" x="10" y="20">Over 2km Workouts</text><text fill="#FFFFFF" style="font-size:4px; font-family:Arial" x="10" y="280">ATHLETE</text><text fill="#FFFFFF" style="font-size:9px; font-family:Arial" x="10" y="290">Koobai</text><text fill="#FFFFFF" style="font-size:4px; font-family:Arial" x="120" y="280">STATISTICS</text><text fill="#FFFFFF" style="font-size:3px; font-family:Arial" x="120" y="285">Number: 9</text><text fill="#FFFFFF" style="font-size:3px; font-family:Arial" x="120" y="290">Weekly: 4.5</text><text fill="#FFFFFF" style="font-size:3px; font-family:Arial" x="141" y="285">Total: 26.1 km</text><text fill="#FFFFFF" style="font-size:3px; font-family:Arial" x="141" y="290">Avg: 2.9 km</text><text fill="#FFFFFF" style="font-size:3px; font-family:Arial" x="167" y="285">Min: 2.2 km</text><text fill="#FFFFFF" style="font-size:3px; font-family:Arial" x="167" y="290">Max: 4.1 km</text><polyline fill="none" points="20.447331383125857,87.0 20.355821233591996,86.18776667083148 20.233807700918987,85.83462115176371 19.89827048580628,85.09301439140108 19.80676033627242,84.35140604525805 19.80676033627242,83.29196280011092 19.98978063534014,82.12657149258303 20.20330431777984,81.38495680349297 20.90488213079516,79.30136419049813 21.209915962535888,78.55974346023868 21.54545317753218,77.21775905988761 22.125017457990907,75.55792906560237 22.82659527088981,74.07467000911129 23.741696766228415,71.63787350122584 24.107737364480272,70.9668685576471 24.44327457936015,69.66017099437886 25.022838859818876,68.07093759262352 25.175355775747448,66.87017863665824 25.480389607371762,65.88131519799936 26.090457270969637,64.53928173534223 27.03606214944739,61.04290700666024 27.402102747699246,59.91275814111577 28.134183943853714,58.11157577345148 28.500224541989155,56.80482976831263 28.89676852338016,55.78061999756028 29.201802355237305,55.180219759844476 29.354319271049462,54.89767811176716 29.7813666354632,54.40322967371321 29.90338016813621,54.12068739256938 30.39143429917749,52.460746841155924 31.30653579439968,50.235707679530606 31.85559669160284,49.10552358959103 32.25214067287743,47.69278829661198 32.679188037407584,46.668551609880524 33.075732018682174,45.43239985499531 33.44177261693403,44.58475039014593 33.80781321506947,43.87837425307953 34.02133689727634,43.70177999394946 34.38737749529537,43.7370988529583 37.407212430029176,44.62006915922393 37.86476317758206,44.8319816981093 38.5053342244355,44.51411284127971 39.511945869307965,42.88944524351973 40.45755074778572,41.51200370807783 40.94560487847775,40.840940464666346 41.464162392541766,40.275833568157395 42.6842977196211,39.25157497031614 44.75852777576074,37.87411898173741 46.0396698693512,37.23836821803707 46.61923414969351,37.06177057669265 47.07678489736281,37.06177057669265 47.41232211235911,36.602616288437275 47.41232211235911,36.42601832340006 48.20541007479187,35.896223888441455 48.35792699083686,35.43706805651891 48.57145067304373,33.49447896212223 48.66296082246117,33.282559493294684 48.998498037457466,33.0 50.584673962788656,33.45915905959555 51.07272809359711,33.529798860952724 54.5501137758838,33.635758535936475 55.67873895354569,33.81235792231746 55.77024910307955,33.882997651729966 55.89226263563614,34.024277067306684 56.044779551564716,34.73067328159232 56.01427616842557,35.119190585945034 55.89226263563614,35.57834683873807 55.92276601889171,35.86090423070709 56.19729646749329,35.896223888441455 56.59384044876788,33.67107842038968 56.7768607478356,33.45915905959555 57.17340472899377,33.423839153459994 57.356425028294325,33.49447896212223 57.478438560967334,33.74171817864408 57.569948710501194,35.119190585945034 57.661458860035054,35.43706805651891 57.78347239282448,35.648986208369024 58.21051975723822,35.86090423070709 59.21713140211068,36.178781021153554 59.76619229931384,36.178781021153554 60.193239663844,36.072822123387596" stroke="#4dd2ff" stroke-linecap="round" stroke-linejoin="round" stroke-width="0.5"><title>2023-04-09 2.8km</title></polyline><polyline fill="none" points="114.12307692365721,33.608485779259354 113.39615384628996,37.09536456235219 113.18846153886989,37.456075572641566 112.87692307727411,37.57631255185697 113.29230769304559,37.09536456235219 114.22692307690158,38.77868166763801 114.01923076948151,40.94294299033936 113.81153846206143,41.66436254943255 113.29230769304559,42.26554517878685 113.29230769304559,44.55003637750633 113.6038461541757,45.99287064583041 112.56538461567834,49.23924130236264 112.15000000037253,50.08089149661828 111.31923076929525,50.922541090869345 111.31923076929525,51.16301229340024 111.73461538506672,51.28324787609745 111.31923076929525,51.28324787609745 111.00769230769947,51.88442560681142 109.96923076920211,54.64983922394458 108.51538461539894,56.57360139768571 107.58076923107728,58.617595272138715 107.37307692319155,59.218769267899916 107.47692307736725,60.06041234720033 107.89230769267306,60.661585608148016 107.9961538463831,61.02228941745125 106.43846153886989,65.59119479788933 104.46538461558521,70.2803161443444 104.46538461558521,70.64101701485924 104.67307692300528,70.64101701485924 105.6076923077926,69.79938147880603 105.50384615454823,71.96358593076002 104.77692307718098,72.92545330210123 104.25769230816513,74.9694188652793 102.59615384647623,74.36825289053377 101.14230769313872,74.12778641504701 100.83076923107728,74.2480196589604 100.83076923107728,74.72895251202863 101.03846153896302,74.00755315891001 100.72692307736725,73.64685331680812 98.33846153877676,72.2040528471116 96.36538461549208,71.3624184250366 94.80769230797887,71.24218488740735 94.4961538463831,71.96358593076002 94.18461538478732,70.2803161443444 95.22307692328468,67.87564085761551 95.22307692328468,67.39470521232579 93.97692307736725,67.99587473808788 93.66538461530581,67.99587473808788 93.87307692319155,67.7554069646867 93.87307692319155,68.11610860633664 93.14615384628996,69.79938147880603 93.3538461541757,70.03984883590601 93.76923076948151,69.67914778168779 93.97692307736725,70.76125061395578 93.66538461530581,70.52078340330627 91.90000000037253,70.64101701485924 91.06923076929525,70.2803161443444 89.92692307708785,69.67914778168779 89.82307692337781,69.67914778168779 89.82307692337781,69.91961516358424 90.23846153868362,70.03984883590601 90.65384615398943,69.91961516358424 90.96538461558521,69.67914778168779 90.96538461558521,69.0779791129753 90.75769230816513,68.35657630674541 89.61538461595774,67.51493914215825 88.68076923117042,67.27447127026971 86.50000000046566,67.51493914215825 82.34615384647623,65.71142891119234 80.78846153849736,65.23049238463864 78.50384615408257,66.31259929446969 77.25769230769947,67.39470521232579 76.32307692337781,67.7554069646867 77.36153846187517,67.87564085761551 78.81538461567834,67.27447127026971 76.84230769239366,67.7554069646867 76.63461538450792,67.7554069646867 76.53076923126355,68.11610860633664 77.15384615398943,68.83751155983191 77.36153846187517,69.31844661722425 77.0500000002794,71.0017177752452 77.67307692300528,71.24218488740735 79.23076923098415,71.48265195079148 78.0884615383111,71.84335245424882 76.32307692337781,72.80521992372815 75.59615384647623,73.40638669452164 74.76538461539894,74.84918569494039 74.45384615426883,75.57058453396894 74.55769230751321,75.93128378817346 74.55769230751321,75.69081763084978 73.0,78.33594266639557 73.31153846159577,78.69664107554127 74.2461538463831,79.29780484596267 76.84230769239366,80.01920096669346 80.78846153849736,82.30361910699867 82.86538461549208,83.02501339104492 84.11153846187517,83.14524572866503 84.31923076929525,83.02501339104492 83.90384615398943,82.78454867866822 83.90384615398943,82.66431630437728 85.4615384619683,81.70245686720591 87.22692307783291,79.65850296174176 88.57692307746038,76.7729149524821 90.13461538497359,76.17174989625346 90.65384615398943,75.81105071539059 98.33846153877676,79.0573393747909 102.80384615436196,80.13943361060228 103.0115384622477,80.50013146898709 105.7115384619683,82.06315424805507 112.87692307727411,85.0689614682924 114.43461538432166,84.22733621823136 115.57692307746038,84.22733621823136 118.38076923135668,85.67012199398596 119.62692307727411,85.91058611869812 120.56153846206143,85.54988991329446 121.91153846215457,84.1071039903909 122.53461538488045,84.1071039903909 124.50769230816513,84.82849717221688 127.0,86.39151422085706" stroke="#4dd2ff" stroke-linecap="round" stroke-linejoin="round" stroke-width="0.5"><title>2023-04-09 2.5km</title></polyline><polyline fill="none" points="142.27295554231387,44.47107529619825 141.82020195107907,44.551856332225725 140.84504036977887,45.56161788641475 137.64093803172,47.540743025485426 137.6061108324211,48.671667213056935 137.43197483569384,49.35829817168997 137.6757652310189,50.085317882709205 138.02403722435702,50.731556499464205 138.82506280892994,51.90286129101878 139.76539719069842,53.437669195467606 141.95951074827462,57.274662801704835 142.9694995288737,59.374896110384725 143.70087071473245,60.586564081168035 143.87500671145972,61.35395186880487 145.2332674851641,62.767557039274834 146.4870466608554,64.90814950101776 147.392553843325,66.88717746984912 147.8801346339751,67.61416483987705 149.16874100919813,69.43162739725085 150.66631058021449,71.7337346035929 151.32802736747544,73.10691495484207 152.68628814129625,75.36861333795241 152.75594254001044,75.65132472314872 152.68628814129625,75.97442320096889 153.94006731710397,77.26681446249131 158.53725762828253,85.2633911529847 158.78104802360758,85.78841323935194 158.88552962162066,86.39420708519174 159.37311041227076,87.0 159.54724640888162,87.0 162.47273115231656,84.4152770745277 163.27375673688948,83.60754768396146 166.12958708172664,81.3458965831378 167.94060144666582,80.13429244043073 171.49297577829566,77.18604013288859 172.43331016006414,76.58023213248816 174.4532877211459,74.8435773702513 176.36878368409816,73.38962796260603 179.67736762017012,70.36054946732474 181.0704555932898,68.78541944839526 181.4535547858104,68.421927011339 182.01078997529112,67.73532927123597 182.25458037038334,66.88717746984912 182.4983707657084,65.31203356722835 182.56802516442258,64.5042650209507 182.4983707657084,64.18115713875159 180.82666519796476,61.03084140349529 178.98082363361027,58.122835293237586 176.6125740793068,53.7203963152715 176.02051169076003,52.751045345677994 174.3488061230164,49.762198176729726 173.26916294405237,47.985035057819914 172.32882856205106,46.08669287181692 171.2491853828542,44.43068477199995 170.55264139629435,43.05740448299912 169.4729982172139,41.19942941435147 166.44303187553305,35.706234485900495 165.32856149727013,33.92900796374306 164.9454623046331,33.52509172700229 164.074782321346,33.16156675975071 163.06479354086332,33.0 162.54238555091433,33.04039169609314 161.74135996645782,33.3231334532029 158.15415843576193,35.50427733035758 154.42764810752124,37.64501791229122 153.59179532376584,38.25088577638962 151.74595375941135,39.381836629792815 147.49703544133808,41.805291812488576 144.57155069801956,43.29974841122748 143.59638911660295,43.9459981576656 143.10880832618568,44.147950986051 142.72570913354866,44.22873208846431" stroke="#ffbb00" stroke-linecap="round" stroke-linejoin="round" stroke-width="0.5"><title>2023-04-09 4.1km</title></polyline><polyline fill="none" points="25.740617994219065,144.60010629496537 26.031625790521502,148.9876105680596 26.031625790521502,156.7501038031187 28.650695953518152,153.0376093222294 32.4337973035872,150.0001107235439 35.05286746844649,148.9876105680596 42.037054570391774,147.6376098759938 46.11116371490061,144.93760683084838 47.5662026964128,140.8875981126912 47.5662026964128,137.17508574179374 46.69317930936813,134.13757250783965 44.94713253155351,131.77506027533673 42.91007795929909,130.08755050064065 40.29100779630244,129.0750442207791 38.544961020350456,129.0750442207791 36.50790644809604,129.4125463485252 29.814727138727903,132.45006394316442 23.412555627524853,132.45006394316442 22.2485244423151,133.8000708639156 21.37550105340779,136.50008304370567 21.66650885157287,138.86259188433178 24.28557901456952,142.2376015719492 34.17984407953918,148.6501104463823 46.984187103807926,144.2626057243906 49.60325726866722,144.2626057243906 48.73023387975991,142.2376015719492 47.5662026964128,140.8875981126912 45.238140327855945,139.53759409766644 42.619070164859295,138.86259188433178 39.417984407395124,138.52509072469547 31.851781712844968,138.86259188433178 26.32263358682394,137.85008830251172 20.793485462665558,138.18758953060023 24.867594607174397,139.53759409766644 29.523719342425466,144.2626057243906 32.14278950728476,144.93760683084838 42.32806236855686,144.93760683084838 46.69317930936813,143.5876044780016 48.14821828901768,142.57510234997608 48.43922608345747,140.8875981126912 47.85721049271524,136.1625816419255 48.14821828901768,136.50008304370567 47.85721049271524,135.82508020545356 42.619070164859295,132.78756572585553 39.417984407395124,132.11256212671287 38.25395322404802,132.11256212671287 33.01581289432943,134.47507411637343 31.851781712844968,134.13757250783965 28.068680364638567,128.73754205740988 28.068680364638567,127.38753306213766 28.650695953518152,127.05003072577529 32.14278950728476,125.36251852917485 39.12697661109269,123.0 42.619070164859295,123.0 44.07410914450884,124.3500107950531 44.94713253155351,125.70002103713341 44.94713253155351,129.75004844227806 41.455038979649544,138.18758953060023 38.25395322404802,143.25010380335152 35.634883059188724,143.92510511772707 31.269766118377447,139.53759409766644 26.32263358682394,136.83758440916426 24.867594607174397,136.83758440916426 23.121547831222415,137.51258703903295 21.37550105340779,139.53759409766644 20.793485462665558,140.550097160507 21.66650885157287,140.8875981126912 26.32263358682394,140.550097160507 27.777672566473484,142.2376015719492 28.35968815907836,147.6376098759938 26.904649179428816,152.3626098751556 26.904649179428816,158.43759991019033 28.068680364638567,160.80009300704114 30.39674273133278,162.15008830139413 32.4337973035872,162.8250857410021 43.49209355190396,161.47509072325192 49.021241676062346,162.8250857410021 51.64031184092164,164.85007722955197 53.38635861687362,167.88756212592125 52.804343024268746,170.92504421900958 51.64031184092164,172.27503536222503 40.0,175.65001079509966 35.634883059188724,174.63751852861606 33.597828486934304,173.28752835420892 31.851781712844968,170.58754634740762 29.523719342425466,168.225060274126 28.35968815907836,164.85007722955197 28.35968815907836,161.47509072325192 30.687750527635217,155.0626068301499 30.39674273133278,152.3626098751556 28.941703751683235,150.0001107235439 23.70356342382729,144.2626057243906 22.2485244423151,141.2250990285538 22.2485244423151,138.18758953060023 23.412555627524853,135.48757873498835 25.740617994219065,132.78756572585553 32.724805099889636,130.7625545146875 40.0,127.05003072577529 42.91007795929909,127.05003072577529 46.11116371490061,128.06253762869164 48.14821828901768,130.08755050064065 49.021241676062346,132.11256212671287 48.73023387975991,138.18758953060023 47.275194900110364,141.9001007580664 45.238140327855945,143.92510511772707 43.201085755601525,144.93760683084838 33.30682069249451,147.97511010058224 31.269766118377447,148.31261029024608 29.232711547985673,146.9626093225088 25.740617994219065,142.91260309470817 22.53953223861754,140.8875981126912 21.37550105340779,138.86259188433178 21.95751664787531,135.82508020545356 23.994571218267083,133.46256918483414 34.17984407953918,127.72503536264412 36.50790644809604,127.05003072577529 40.58201559074223,127.38753306213766 45.238140327855945,128.73754205740988 47.85721049271524,130.7625545146875 49.021241676062346,133.12506747292355 49.31224947422743,136.50008304370567 49.021241676062346,138.86259188433178 47.85721049271524,142.2376015719492 46.40217151120305,144.60010629496537 41.164031183347106,147.6376098759938 28.650695953518152,152.70010961592197 26.904649179428816,154.0501082323026 26.32263358682394,157.08760309335776 27.777672566473484,168.225060274126 28.941703751683235,171.93753762799315 30.687750527635217,173.9625235113781 33.597828486934304,175.31251340731978 41.455038979649544,177.0 43.49209355190396,177.0 45.238140327855945,176.32500546681695 50.1852728612721,172.27503536222503 51.058296248316765,166.87506747152656 51.64031184092164,165.86257250607014 54.259382005780935,163.83758164057508 58.333491150289774,161.81258952943608 59.20651453733444,160.80009300704114 58.62449894472957,159.7875961731188 57.7514755576849,159.45009715901688 50.76728845201433,159.11259811092168" stroke="#4dd2ff" stroke-linecap="round" stroke-linejoin="round" stroke-width="0.5"><title>2023-04-06 2.2km</title></polyline><polyline fill="none" points="78.20089960470796,128.89093868480995 83.2803016398102,130.85458330251276 87.08985316567123,134.29095944575965 87.08985316567123,135.2727807480842 85.39671915210783,137.23642274783924 80.74060062132776,137.23642274783924 81.16388412564993,137.72733312286437 87.08985316567123,133.30913794366643 91.32268819026649,133.80004872009158 96.40209022536874,132.32731623668224 101.48149226047099,127.41820469358936 105.29104378446937,126.43638178054243 109.94716231524944,127.90911607351154 116.29641485773027,133.80004872009158 118.4128323700279,138.2182434462011 120.10596638172865,144.10916340863332 116.7196983601898,152.94552976312116 115.0265643466264,153.9273472391069 103.17462627030909,153.9273472391069 98.51850773952901,154.90916451625526 95.13223971612751,153.43643852649257 88.35970367118716,145.58189226686954 80.31731711700559,142.14552422706038 78.20089960470796,138.2182434462011 80.31731711700559,134.7818701211363 84.12686864286661,133.30913794366643 91.74597169458866,133.30913794366643 101.90477576293051,127.41820469358936 105.29104378446937,126.43638178054243 109.52387881278992,127.41820469358936 111.64029632508755,128.89093868480995 117.98954886756837,135.76369132334366 119.2593993768096,138.70915372110903 120.10596638172865,143.61825368879363 119.68268288113177,148.52734862454236 118.4128323700279,150.98189420439303 114.60328084602952,152.94552976312116 107.83074480108917,152.94552976312116 96.40209022536874,154.4182559028268 80.74060062132776,141.16370433336124 80.31731711700559,140.18188424082473 81.16388412564993,137.72733312286437 90.05283768288791,131.34549433225766 104.8677602801472,126.9272932629101 110.7937293201685,128.4000274054706 117.56626536510885,135.2727807480842 118.4128323700279,136.745512324851 119.68268288113177,144.60007307771593 119.2593993768096,149.01825784053653 116.7196983601898,152.45462094945833 112.06357982940972,153.9273472391069 101.90477576293051,152.45462094945833 95.55552322044969,153.43643852649257 93.01582220196724,151.96371208457276 90.89940468966961,148.03643935825676 87.51313666626811,145.09098269836977 82.85701813548803,142.63643409824 81.16388412564993,141.16370433336124 79.47075011394918,136.25460184924304 81.16388412564993,132.32731623668224 84.55015214718878,130.85458330251276 87.51313666626811,130.85458330251276 91.32268819026649,132.81822711555287 96.82537372782826,131.8364053098485 102.3280592635274,131.34549433225766 107.40746129862964,128.4000274054706 110.7937293201685,127.41820469358936 113.3334303367883,128.4000274054706 119.2593993768096,133.80004872009158 120.52924988605082,137.72733312286437 120.95253338851035,141.16370433336124 120.10596638172865,145.09098269836977 118.83611587248743,148.03643935825676 115.44984785094857,150.00007612304762 96.40209022536874,154.4182559028268 82.85701813548803,145.58189226686954 79.8940336164087,140.6727943108417 79.8940336164087,139.20006394386292 81.58716762624681,133.80004872009158 84.12686864286661,132.32731623668224 89.62955417856574,133.80004872009158 94.28567271307111,132.81822711555287 101.90477576293051,128.89093868480995 105.71432728692889,127.90911607351154 108.2540283035487,127.90911607351154 111.21701282262802,129.3818499147892 116.29641485773027,133.80004872009158 117.56626536510885,136.745512324851 118.83611587248743,142.63643409824 118.4128323700279,148.52734862454236 116.7196983601898,150.98189420439303 114.17999734170735,152.45462094945833 98.09522423893213,154.4182559028268 92.59253869950771,151.96371208457276 82.85701813548803,145.09098269836977 80.74060062132776,143.1273439200595 79.8940336164087,141.16370433336124 79.8940336164087,138.2182434462011 81.58716762624681,131.34549433225766 83.70358514226973,130.36367222387344 88.35970367118716,130.85458330251276 90.89940468966961,129.87276109447703 100.21164175122976,123.98182361805812 104.44447677768767,123.0 108.67731180600822,123.98182361805812 115.0265643466264,128.89093868480995 117.14298186264932,132.81822711555287 117.98954886756837,139.20006394386292 116.29641485773027,146.07280178647488 112.91014683432877,148.52734862454236 105.71432728692889,149.50916700763628 98.51850773952901,149.50916700763628 95.13223971612751,148.03643935825676 91.74597169458866,147.05462067155167 85.82000265456736,144.60007307771593 83.2803016398102,142.63643409824 82.43373463302851,139.6909741172567 83.2803016398102,135.76369132334366 84.97343564964831,133.30913794366643 90.47612118721008,135.2727807480842 97.24865723028779,134.7818701211363 103.17462627030909,126.43638178054243 105.29104378446937,125.45455866586417 108.67731180600822,126.43638178054243 115.44984785094857,131.34549433225766 118.4128323700279,135.2727807480842 120.10596638172865,139.6909741172567 120.10596638172865,144.60007307771593 119.2593993768096,147.54553003888577 117.56626536510885,149.50916700763628 114.17999734170735,150.98189420439303 98.09522423893213,152.94552976312116 95.55552322044969,152.45462094945833 92.59253869950771,150.00007612304762 90.89940468966961,150.49098518816754 83.70358514226973,148.03643935825676 80.31731711700559,144.10916340863332 78.62418310716748,139.20006394386292 78.62418310716748,135.76369132334366 80.74060062132776,133.80004872009158 82.85701813548803,133.30913794366643 87.93642016872764,133.80004872009158 94.28567271307111,131.8364053098485 99.78835824690759,130.85458330251276 105.71432728692889,127.41820469358936 109.94716231524944,128.89093868480995 115.87313135527074,135.76369132334366 117.56626536510885,141.16370433336124 117.98954886756837,147.54553003888577 117.56626536510885,150.00007612304762 115.87313135527074,152.45462094945833 113.3334303367883,153.43643852649257 107.40746129862964,152.94552976312116 102.3280592635274,153.43643852649257 91.32268819026649,160.30915593449026 90.47612118721008,162.76369547611102 91.32268819026649,173.56365450751036 92.59253869950771,175.03637430723757 94.70895621366799,176.509093652945 101.90477576293051,176.01818725466728 106.98417779430747,177.0 109.94716231524944,176.509093652945 117.98954886756837,172.0909342560917 121.7991003934294,171.1091205039993" stroke="#4dd2ff" stroke-linecap="round" stroke-linejoin="round" stroke-width="0.5"><title>2023-04-04 2.2km</title></polyline><polyline fill="none" points="153.70793502777815,152.91902014054358 152.13491878658533,152.5541555567179 151.50571228936315,153.2838846880477 150.87650579214096,154.3784781047143 151.50571228936315,156.2027997164987 152.76412528194487,156.2027997164987 161.25841299444437,148.90550765627995 174.47174943052232,144.1622597933747 175.7301624249667,142.70279764034785 176.04476567171514,140.51360328891315 175.10095592588186,133.58114562602714 174.47174943052232,131.3919456631411 171.95492344349623,128.47301028575748 166.60666821710765,124.09460272896104 163.77523897960782,123.0 160.3146032486111,124.09460272896104 153.3933317810297,128.10814319527708 150.24729929491878,128.10814319527708 147.73047330789268,127.74327606707811 144.89904407039285,129.20274435495958 143.95523432455957,131.0270788720809 143.64063107781112,132.12167913396843 144.26983757317066,132.85141245578416 149.6180927976966,137.22980923764408 154.96634802222252,143.7973943115212 159.37079350277781,145.98658664221875 167.86508120968938,145.98658664221875 176.04476567171514,144.5271252382081 177.61778191663325,143.06766323419288 176.98857541754842,141.24333489011042 176.67397216893733,137.22980923764408 173.52793968468904,132.85141245578416 169.75270070135593,130.66221204423346 161.57301624119282,129.56761133274995 155.2809512708336,130.66221204423346 150.87650579214096,130.29734517843463 146.4720603134483,125.18920512404293 143.32602782920003,123.72973519028164 141.43840833753347,124.09460272896104 141.12380508892238,124.45947023155168 141.12380508892238,125.91893986635841 144.89904407039285,129.93247827445157 149.3034895490855,133.58114562602714 154.65174477361143,144.1622597933747 158.42698375694454,147.44604744878598 161.8876194898039,149.63523753592744 166.60666821710765,148.90550765627995 171.95492344349623,146.351451900322 174.15714618004858,144.1622597933747 175.4155591763556,141.9730663395021 175.4155591763556,135.77034424082376 174.47174943052232,132.85141245578416 173.52793968468904,131.3919456631411 168.17968446016312,128.10814319527708 164.08984223008156,127.01354169868864 161.57301624119282,127.37840890185907 157.16857076250017,129.56761133274995 152.76412528194487,129.93247827445157 148.98888630233705,129.20274435495958 144.89904407039285,132.48654581350274 144.58444082178175,135.04061151994392 145.21364732086658,137.5946753937751 146.4720603134483,139.0541396404151 152.13491878658533,141.24333489011042 156.2247610166669,147.81091255624779 157.79777725972235,148.17577762762085 168.17968446016312,147.08118230383843 172.26952669024467,145.6217213468626 173.84254293330014,143.7973943115212 174.78635267913342,141.9730663395021 175.4155591763556,138.32440759125166 175.10095592588186,134.310878647957 174.47174943052232,132.12167913396843 172.89873318746686,129.56761133274995 169.1234942059964,125.91893986635841 165.34825522266328,124.45947023155168 163.46063573099673,124.82433769712225 155.91015776991844,128.83787733968347 151.50571228936315,129.20274435495958 148.35967980325222,127.74327606707811 146.4720603134483,128.47301028575748 145.21364732086658,129.56761133274995 144.89904407039285,131.0270788720809 145.52825056761503,133.21627905848436 149.3034895490855,136.13521054643206 152.13491878658533,138.68927363399416 154.65174477361143,145.6217213468626 157.79777725972235,146.351451900322 165.66285847313702,146.351451900322 171.6403201930225,144.5271252382081 173.52793968468904,142.70279764034785 174.78635267913342,140.14873743290082 175.10095592588186,138.32440759125166 174.47174943052232,133.94601215492003 173.84254293330014,132.48654581350274 171.95492344349623,130.66221204423346 169.75270070135593,129.56761133274995 162.8314292356372,128.47301028575748 151.19110904075205,130.66221204423346 146.7866635620594,128.47301028575748 144.26983757317066,130.29734517843463 143.0114245787263,132.48654581350274 143.32602782920003,134.310878647957 145.52825056761503,138.32440759125166 151.19110904075205,141.60820063343272 154.33714152686298,146.351451900322 158.1123805064708,147.44604744878598 169.4380974546075,146.716317120241 172.58412993885577,145.25685601471923 174.15714618004858,143.4325287914835 175.4155591763556,140.14873743290082 175.4155591763556,138.32440759125166 175.10095592588186,134.67574510211125 172.89873318746686,132.12167913396843 170.6965104471892,130.66221204423346 168.4942877087742,130.29734517843463 158.42698375694454,131.3919456631411 154.96634802222252,130.66221204423346 149.3034895490855,127.37840890185907 146.15745706669986,127.37840890185907 143.64063107781112,128.47301028575748 146.7866635620594,133.94601215492003 151.82031553797424,139.0541396404151 154.0225382782519,143.7973943115212 156.85396751388907,144.89199064532295 167.23587471432984,145.98658664221875 174.78635267913342,144.5271252382081 176.04476567171514,142.3379320090171 176.67397216893733,139.0541396404151 175.4155591763556,133.94601215492003 171.95492344349623,131.0270788720809 167.23587471432984,129.20274435495958 156.2247610166669,129.93247827445157 149.3034895490855,127.37840890185907 147.1012668106705,127.37840890185907 143.95523432455957,128.83787733968347 143.64063107781112,130.29734517843463 144.89904407039285,133.21627905848436 152.76412528194487,140.14873743290082 155.91015776991844,146.351451900322 157.79777725972235,148.17577762762085 159.68539674952626,148.90550765627995 169.4380974546075,147.81091255624779 174.15714618004858,145.25685601471923 176.35936892218888,143.06766323419288 176.67397216893733,140.14873743290082 174.47174943052232,132.48654581350274 173.21333643607795,130.66221204423346 165.97746171988547,123.36486761388369 164.40444547683,123.0 161.57301624119282,124.45947023155168 158.42698375694454,128.10814319527708 156.2247610166669,129.20274435495958 153.70793502777815,129.93247827445157 145.84285381622612,129.56761133274995 143.64063107781112,130.66221204423346 144.58444082178175,132.85141245578416 146.4720603134483,134.67574510211125 152.13491878658533,139.41900560841896 155.91015776991844,144.89199064532295 156.85396751388907,145.6217213468626 159.05619025230408,146.351451900322 164.08984223008156,147.08118230383843 169.4380974546075,149.27037261542864 174.47174943052232,149.27037261542864 176.04476567171514,148.54064266127534 177.9323851633817,142.3379320090171 177.61778191663325,137.9595415107906 176.67397216893733,135.40547790029086 173.21333643607795,130.29734517843463 167.55047796294093,127.74327606707811 160.3146032486111,127.37840890185907 153.3933317810297,127.74327606707811 150.5619025453925,127.01354169868864 148.67428305372596,127.01354169868864 146.7866635620594,127.74327606707811 143.64063107781112,130.66221204423346 143.64063107781112,132.12167913396843 144.58444082178175,133.94601215492003 148.04507655650377,136.8649430447258 153.0787285324186,140.14873743290082 156.85396751388907,145.98658664221875 159.37079350277781,147.08118230383843 164.40444547683,146.716317120241 168.17968446016312,147.44604744878598 171.3257169444114,147.08118230383843 174.15714618004858,146.351451900322 175.4155591763556,145.25685601471923 176.35936892218888,143.06766323419288 176.98857541754842,137.22980923764408 175.4155591763556,134.67574510211125 172.89873318746686,132.48654581350274 165.66285847313702,129.56761133274995 163.14603248424828,129.20274435495958 155.5955545194447,130.29734517843463 149.3034895490855,128.83787733968347 148.04507655650377,129.20274435495958 144.89904407039285,132.48654581350274 144.58444082178175,134.67574510211125 146.4720603134483,136.8649430447258 151.50571228936315,141.24333489011042 153.70793502777815,145.98658664221875 154.0225382782519,147.81091255624779 152.13491878658533,150.72983207413927 152.13491878658533,155.10820686095394 154.65174477361143,162.7703497770708 157.79777725972235,164.59466708824039 161.25841299444437,164.959530437598 168.80889095552266,163.50007681455463 174.78635267913342,163.13521331432275 177.3031786661595,164.59466708824039 178.56159166060388,166.4189834636636 178.56159166060388,167.5135728395544 176.98857541754842,170.06761340843514 170.38190719857812,172.98651467170566 166.29206496849656,175.90541354194283 163.14603248424828,177.0 161.25841299444437,176.63513788511045 158.1123805064708,175.17568904859945 156.85396751388907,169.70275058294646 156.85396751388907,167.87843589065596 157.79777725972235,166.4189834636636 163.77523897960782,161.6757589429617 166.92127146571875,160.58116777054965 176.04476567171514,155.47307118284516 178.56159166060388,155.10820686095394 178.56159166060388,157.29739223467186 178.2469884119928,157.29739223467186 178.87619490921497,156.5676639266312 178.2469884119928,155.83793546864763 178.56159166060388,156.2027997164987" stroke="#ffdb00" stroke-linecap="round" stroke-linejoin="round" stroke-width="0.5"><title>2023-04-01 3.2km</title></polyline><polyline fill="none" points="36.29289222881198,235.70074283517897 33.623774632811546,238.79628677549772 29.175245305523276,242.92367425211705 31.251225659623742,240.5160321739968 36.88602947257459,237.0765404945705 39.85171568952501,236.04469230258837 46.079656748101115,236.38864173460752 48.7487743422389,235.70074283517897 50.52818607352674,234.32494461140595 52.01102918200195,231.5733464716468 52.60416642576456,227.10199468093924 51.714460561051965,223.31853851210326 50.23161745257676,220.56693134619854 46.67279399000108,217.1274192132987 43.707107773050666,216.09556488506496 40.44485293328762,216.4395163631998 32.73406876809895,220.91088236519136 29.76838254928589,220.56693134619854 25.912990467622876,218.50322448974475 23.540441492572427,219.53507807594724 24.72671598009765,220.91088236519136 30.954657036811113,224.00643995171413 34.51348049752414,229.50964638614096 36.58946085162461,230.54149658768438 45.78308812528849,230.54149658768438 50.52818607352674,229.50964638614096 52.01102918200195,228.13384562381543 52.60416642576456,226.75804429803975 50.52818607352674,222.28668608982116 47.56249985657632,220.56693134619854 44.00367639400065,219.53507807594724 40.44485293328762,220.22298029088415 33.92034325376153,222.6306369320955 30.65808841586113,222.28668608982116 27.099264953285456,220.22298029088415 26.20955908857286,220.56693134619854 25.02328460291028,221.94273521192372 24.430147357285023,223.662489249371 25.02328460291028,225.38224240601994 31.547794280573726,229.8535964882467 35.996323607861996,236.38864173460752 37.479166716337204,237.42048982088454 40.44485293328762,238.10838836873882 47.56249985657632,236.38864173460752 49.93504882976413,235.3567933323793 51.41789194010198,234.32494461140595 52.60416642576456,231.5733464716468 52.90073504857719,229.16569624864496 52.30759780295193,225.7261929323431 50.52818607352674,222.97458773921244 45.78308812528849,219.53507807594724 41.631127420812845,218.50322448974475 32.43750014714897,222.6306369320955 30.064951172098517,222.28668608982116 26.802696332335472,220.91088236519136 24.72671598009765,221.25483334832825 23.540441492572427,222.97458773921244 23.540441492572427,224.69434124883264 24.72671598009765,226.0701434223447 29.76838254928589,229.16569624864496 34.21691187657416,233.29309557401575 36.29289222881198,233.98099496704526 44.89338226057589,234.32494461140595 47.85906847938895,233.98099496704526 49.93504882976413,232.60519603895955 51.41789194010198,230.54149658768438 52.01102918200195,228.13384562381543 52.01102918200195,226.0701434223447 51.41789194010198,224.69434124883264 47.85906847938895,221.59878429793753 43.41053915210068,220.22298029088415 33.92034325376153,221.59878429793753 28.285539442673326,220.91088236519136 25.319853223860264,222.28668608982116 24.72671598009765,223.662489249371 24.72671598009765,225.03829184547067 25.912990467622876,227.10199468093924 30.954657036811113,230.88544658501633 34.51348049752414,235.3567933323793 35.996323607861996,236.38864173460752 38.66544120386243,237.0765404945705 46.67279399000108,236.73259113216773 50.824754694476724,235.01284379395656 52.01102918200195,233.6370452879928 52.90073504857719,231.22939654579386 53.19730366952717,229.16569624864496 52.30759780295193,225.03829184547067 48.7487743422389,220.22298029088415 46.079656748101115,218.50322448974475 42.52083328552544,217.47137058572844 33.32720601186156,221.59878429793753 30.361519794911146,221.94273521192372 26.802696332335472,221.25483334832825 24.430147357285023,221.25483334832825 23.837010115385056,221.94273521192372 24.13357873633504,223.662489249371 25.319853223860264,225.7261929323431 28.878676684573293,229.16569624864496 31.84436290152371,233.98099496704526 34.21691187657416,236.38864173460752 38.96200982481241,238.79628677549772 44.00367639400065,238.4523375891149 48.7487743422389,236.38864173460752 51.714460561051965,232.94914582371712 52.60416642576456,229.8535964882467 52.60416642576456,220.91088236519136 45.78308812528849,218.1592732227873 40.74142155610025,217.47137058572844 33.623774632811546,221.25483334832825 26.20955908857286,221.59878429793753 23.837010115385056,222.97458773921244 23.243872871622443,224.35039061889984 24.13357873633504,226.0701434223447 28.285539442673326,228.82174607669003 31.84436290152371,233.6370452879928 33.32720601186156,234.66889422060922 41.03799017705023,235.70074283517897 46.67279399000108,235.3567933323793 49.04534296505153,234.32494461140595 50.52818607352674,232.60519603895955 51.714460561051965,230.19754655612633 52.01102918200195,227.7898953454569 50.824754694476724,225.03829184547067 44.89338226057589,219.53507807594724 42.81740190833807,219.19112691562623 40.74142155610025,219.53507807594724 32.43750014714897,222.6306369320955 29.76838254928589,222.28668608982116 26.20955908857286,220.22298029088415 25.02328460291028,220.91088236519136 24.13357873633504,222.97458773921244 24.72671598009765,226.75804429803975 26.50612771138549,229.50964638614096 32.43750014714897,232.26124621904455 36.58946085162461,236.04469230258837 37.77573533914983,236.38864173460752 42.52083328552544,235.01284379395656 48.15563709847629,234.66889422060922 50.23161745257676,233.6370452879928 52.01102918200195,231.5733464716468 52.90073504857719,228.4777958674822 53.19730366952717,225.7261929323431 52.60416642576456,221.94273521192372 51.714460561051965,219.87902920111082 49.93504882976413,217.81532192183658 47.85906847938895,216.09556488506496 44.89338226057589,215.751613372704 42.22426466271281,216.4395163631998 35.996323607861996,221.59878429793753 33.92034325376153,222.6306369320955 31.251225659623742,222.6306369320955 27.988970819860697,221.25483334832825 25.319853223860264,221.59878429793753 24.13357873633504,222.6306369320955 24.13357873633504,224.00643995171413 24.72671598009765,227.10199468093924 25.616421844810247,228.4777958674822 30.954657036811113,230.54149658768438 34.21691187657416,235.3567933323793 36.88602947257459,236.38864173460752 46.96936261281371,235.70074283517897 49.6384802069515,235.01284379395656 51.41789194010198,233.29309557401575 52.60416642576456,229.8535964882467 52.30759780295193,227.44594503077678 50.52818607352674,225.03829184547067 47.265931233763695,222.97458773921244 42.52083328552544,221.94273521192372 33.92034325376153,223.662489249371 27.692402198910713,222.6306369320955 25.319853223860264,223.662489249371 24.72671598009765,225.7261929323431 25.319853223860264,227.44594503077678 26.802696332335472,228.82174607669003 33.623774632811546,232.26124621904455 35.996323607861996,236.04469230258837 38.07230395823717,237.76443911297247 39.85171568952501,238.10838836873882 48.15563709847629,236.04469230258837 50.52818607352674,233.98099496704526 51.41789194010198,232.26124621904455 51.714460561051965,228.82174607669003 51.41789194010198,221.94273521192372 50.824754694476724,219.19112691562623 49.6384802069515,217.47137058572844 44.59681363776326,213.34395179455169 43.11397052928805,213.0 41.92769604176283,213.68790355394594 36.58946085162461,218.84717571991496 33.32720601186156,220.91088236519136 30.954657036811113,221.25483334832825 27.395833576098084,220.91088236519136 25.912990467622876,221.59878429793753 24.430147357285023,222.97458773921244 23.837010115385056,224.69434124883264 23.837010115385056,226.0701434223447 25.02328460291028,227.7898953454569 31.251225659623742,231.5733464716468 33.623774632811546,236.04469230258837 33.92034325376153,239.14023592625745 31.251225659623742,242.2357766921632 30.954657036811113,245.33131460170262 32.14093152433634,248.77079781936482 33.623774632811546,251.17843397287652 37.77573533914983,252.55422528414056 44.89338226057589,251.86632969952188 51.12132331728935,252.89817302441224 53.790440913289785,254.27396363182925 56.45955850929022,257.71343768108636 56.7561271302402,259.4331733819563 56.45955850929022,260.8089613101911 54.08700953423977,262.87264214246534 44.89338226057589,266.6560537053738 40.44485293328762,267.0 37.77573533914983,266.3121073753573 35.1066177431494,264.2484286588151 33.92034325376153,259.7771204172168 34.21691187657416,257.3694904341828 36.88602947257459,253.58606839855202 39.85171568952501,252.55422528414056 46.079656748101115,253.24212072975934 51.12132331728935,248.4268496565055 55.273284021764994,247.39500495512038" stroke="#ffde00" stroke-linecap="round" stroke-linejoin="round" stroke-width="0.5"><title>2023-03-31 3.1km</title></polyline><polyline fill="none" points="97.33802816830575,251.24650084786117 96.5774647872895,253.8927162680775 91.63380281627178,257.86203634692356 87.8309859149158,258.74410697678104 84.02816901355982,258.30307168420404 83.64788732305169,257.4210009626113 87.45070422440767,251.68753686454147 93.9154929574579,246.3951016832143 96.5774647872895,245.51302851969376 105.70422535203397,244.1899184351787 109.88732394389808,241.54369704704732 111.78873239271343,237.57436191197485 112.1690140850842,233.16398524446413 111.4084507022053,227.87152727367356 109.50704225152731,223.46114065824077 107.98591549135745,221.25594565551728 102.28169013932347,217.2865918003954 95.43661971762776,215.96347303362563 93.9154929574579,216.84555225772783 90.11267605610192,221.69698474556208 86.69014084339142,224.34321834379807 80.60563380271196,226.54841176373884 73.76056337915361,230.95879521407187 76.42253521084785,234.48709872039035 84.40845070406795,238.45643670205027 91.25352112576365,244.1899184351787 93.53521126694977,244.63095517549664 104.94366196915507,243.30784482089803 111.78873239271343,241.1026599900797 113.30985915474594,238.01539932982996 112.54929577372968,232.2819093670696 109.12676056288183,227.43048881553113 95.81690140813589,222.57906279247254 87.45070422440767,224.7842571171932 82.88732394389808,224.34321834379807 80.22535211034119,223.46114065824077 75.66197182796896,225.22529584774747 75.66197182796896,227.43048881553113 76.80281689949334,229.63568065408617 85.92957746423781,238.01539932982996 90.49295774661005,245.51302851969376 93.9154929574579,247.71821108972654 96.95774647779763,247.71821108972654 107.60563380271196,244.1899184351787 112.1690140850842,240.22058574249968 114.07042253389955,236.69228693982586 112.54929577372968,228.3125656871125 107.60563380271196,226.9894503117539 103.42253521084785,221.69698474556208 96.95774647779763,220.81490651797503 93.9154929574579,221.25594565551728 85.54929577372968,225.22529584774747 79.08450704067945,224.7842571171932 74.90140844881535,227.87152727367356 76.80281689949334,230.51775707304478 82.88732394389808,233.60502311447635 85.54929577372968,236.25124938646331 88.21126760356128,240.66162288887426 90.11267605610192,242.4257710245438 94.67605633847415,243.30784482089803 104.56338028050959,242.4257710245438 106.46478873118758,241.54369704704732 109.50704225152731,238.89747403142974 112.1690140850842,232.72294732835144 112.54929577372968,230.51775707304478 111.02816901355982,224.34321834379807 110.64788732305169,219.4917888380587 109.12676056288183,218.60971015831456 100.76056337915361,218.60971015831456 92.39436619728804,223.90217952430248 87.45070422440767,225.22529584774747 84.78873239271343,224.7842571171932 79.46478873118758,222.1380237918347 78.32394366152585,223.46114065824077 75.28169013932347,228.7536040553823 78.70422535017133,232.2819093670696 85.54929577372968,235.3691741428338 88.21126760356128,239.33851131331176 89.35211267508566,242.4257710245438 90.87323943525553,243.74888165062293 101.14084506966174,244.1899184351787 107.22535211034119,242.8668079455383 109.50704225152731,241.54369704704732 110.64788732305169,240.66162288887426 112.1690140850842,236.69228693982586 112.54929577372968,234.0460609397851 111.78873239271343,230.95879521407187 109.12676056288183,227.87152727367356 106.08450704067945,225.66633453266695 100.76056337915361,223.46114065824077 96.95774647779763,222.57906279247254 87.07042253389955,225.22529584774747 81.7464788723737,223.46114065824077 76.80281689949334,225.22529584774747 77.94366196915507,227.43048881553113 80.22535211034119,230.07671888545156 86.30985915474594,234.92813645396382 90.11267605610192,241.9847340588458 91.63380281627178,243.30784482089803 95.05633802525699,245.07199187064543 104.94366196915507,244.1899184351787 111.02816901355982,241.54369704704732 112.54929577372968,235.81021178653464 111.02816901355982,229.63568065408617 106.08450704067945,225.22529584774747 104.94366196915507,222.57906279247254 97.33802816830575,221.25594565551728 89.35211267508566,224.7842571171932 85.92957746423781,225.22529584774747 81.36619718186557,224.7842571171932 79.08450704067945,223.46114065824077 77.18309859000146,226.54841176373884 75.66197182796896,230.51775707304478 77.18309859000146,234.48709872039035 84.40845070406795,237.57436191197485 88.59154929406941,242.8668079455383 90.11267605610192,244.1899184351787 95.05633802525699,245.07199187064543 101.90140844881535,245.07199187064543 107.60563380271196,243.30784482089803 111.02816901355982,239.77954855002463 111.4084507022053,237.57436191197485 111.02816901355982,234.0460609397851 107.98591549135745,228.3125656871125 102.28169013932347,225.66633453266695 96.5774647872895,223.90217952430248 88.59154929406941,225.66633453266695 80.60563380271196,222.1380237918347 77.94366196915507,223.46114065824077 73.38028168864548,223.90217952430248 73.38028168864548,225.66633453266695 76.42253521084785,228.7536040553823 85.54929577372968,233.16398524446413 86.69014084339142,235.81021178653464 88.59154929406941,242.8668079455383 90.87323943525553,244.63095517549664 98.85915492661297,243.74888165062293 104.94366196915507,244.1899184351787 110.64788732305169,241.54369704704732 112.54929577372968,237.57436191197485 112.92957746423781,234.92813645396382 109.88732394389808,227.43048881553113 104.56338028050959,224.34321834379807 99.23943661898375,223.02010174794123 87.45070422440767,225.22529584774747 80.60563380271196,224.34321834379807 77.94366196915507,225.22529584774747 74.90140844881535,228.3125656871125 75.66197182796896,230.95879521407187 78.70422535017133,233.60502311447635 82.88732394389808,236.25124938646331 88.21126760356128,244.1899184351787 89.73239436373115,245.07199187064543 103.42253521084785,244.63095517549664 109.50704225152731,242.4257710245438 111.78873239271343,236.69228693982586 111.4084507022053,229.63568065408617 112.1690140850842,225.66633453266695 106.84507042169571,221.69698474556208 96.95774647779763,218.60971015831456 95.81690140813589,219.05074952170253 93.15492957644165,223.02010174794123 88.21126760356128,224.7842571171932 81.7464788723737,224.34321834379807 78.70422535017133,222.57906279247254 76.04225352033973,223.90217952430248 73.0,224.34321834379807 73.38028168864548,227.43048881553113 75.66197182796896,232.2819093670696 76.42253521084785,232.72294732835144 78.32394366152585,231.84087136294693 83.26760563254356,233.16398524446413 85.54929577372968,236.69228693982586 89.35211267508566,243.74888165062293 92.01408450491726,245.51302851969376 103.80281689949334,245.51302851969376 108.7464788723737,242.8668079455383 111.78873239271343,238.89747403142974 111.78873239271343,234.48709872039035 111.02816901355982,230.51775707304478 109.88732394389808,228.7536040553823 106.84507042169571,225.66633453266695 102.66197182796896,223.90217952430248 96.19718309864402,224.34321834379807 84.40845070406795,227.87152727367356 82.12676056101918,226.9894503117539 79.46478873118758,224.34321834379807 75.28169013932347,226.9894503117539 75.28169013932347,229.19464237615466 76.04225352033973,230.95879521407187 80.98591549135745,233.60502311447635 85.54929577372968,238.45643670205027 86.30985915474594,244.63095517549664 84.78873239271343,246.83613819628954 82.12676056101918,249.48235632944852 81.36619718186557,251.24650084786117 83.26760563254356,256.09789454052225 83.64788732305169,257.86203634692356 86.69014084339142,263.15445742057636 89.73239436373115,264.03652696637437 95.05633802525699,263.59549221629277 117.4929577447474,260.94928276445717 123.95774647966027,260.0672125853598 127.0,258.74410697678104 124.71830985881388,257.86203634692356 120.9154929574579,257.4210009626113" stroke="#ffe000" stroke-linecap="round" stroke-linejoin="round" stroke-width="0.5"><title>2023-03-30 3.1km</title></polyline><polyline fill="none" points="133.3802816895768,252.1287418116117 133.47535211220384,252.1287418116117 133.6654929574579,252.01848278485704 134.52112676016986,252.1287418116117 135.47183098550886,252.7902957344195 136.80281690089032,252.01848278485704 137.94366197148338,252.01848278485704 139.17957746470347,252.23900082695764 140.79577464750037,252.1287418116117 143.55281690135598,251.4671874816995 145.7394366194494,251.35692838742398 146.5950704216957,250.9158918961184 146.78521126741543,250.14407760137692 146.78521126741543,248.1594097284833 145.7394366194494,245.51318020094186 144.88380281673744,241.3233034653822 143.93309859139845,239.55913995660376 141.27112676063552,236.14106492255814 140.89084507059306,235.25897927919868 140.98591549275443,234.37689291255083 143.07746478868648,232.17167383024935 145.549295774661,230.18697278946638 151.63380281673744,226.87912958289962 156.19718309817836,224.8944187745219 165.70422535203397,223.35075228032656 170.83802816877142,222.0276078071911 175.1161971827969,220.26341264438815 176.25704225338995,220.26341264438815 177.11267605610192,221.03524838434532 178.8239436619915,223.2404903032584 181.96126760542393,228.20226808649022 183.48239436605945,231.3998460827861 184.71830985927954,233.38454488501884 185.19366197148338,234.70767538482323 186.61971830995753,237.46419203083497 186.80985915474594,238.67705711675808 186.61971830995753,240.22070161136799 186.049295774661,241.10278318519704 185.19366197148338,242.09512409055606 182.72183098550886,243.7490235650912 180.7253521126695,244.74136202887166 176.63732394389808,245.84395924815908 172.16901408415288,247.05681488336995 168.1760563380085,247.38759345572907 161.71126760542393,248.6004473499488 158.19366197194904,248.93122544744983 149.352112676017,250.80563274491578 147.9260563380085,250.6953735826537 147.26056338008493,250.14407760137692 146.6901408447884,248.93122544744983 144.50352112669498,241.43356358876918 142.69718309817836,238.34627586556599 141.3661971827969,237.0231498425128 140.98591549275443,236.25132557738107 140.98591549275443,235.58976148045622 141.5563380275853,234.5974145717919 142.79225352127105,233.16402297688182 144.97887323936448,230.958801407367 146.4049295769073,229.7459276166046 151.15845070406795,227.09965277963784 155.62676056288183,225.44572770001832 162.0915492954664,224.12258580431808 164.94366197194904,223.90206199709792 170.647887323983,222.6891802472528 171.97887323936448,222.24813199939672 175.40140845021233,220.48393719783053 176.352112676017,220.48393719783053 176.92253521131352,221.03524838434532 178.53873239457607,223.0199663147796 180.05985915474594,225.77651291934308 181.96126760542393,228.42279101221357 183.19718309864402,231.06906259339303 184.62323943618685,233.38454488501884 187.0,238.12575497454964 186.90492957737297,240.8822628594935 186.42957746516913,241.7643438903615 185.38380281627178,242.53616419923492 182.53169014072046,243.96954330254812 181.29577464796603,244.96188156295102 180.34507042262703,245.29266077955253 174.26056338008493,246.50551703677047 172.549295774661,247.05681488336995 165.22887323936448,248.04915029508993 163.5176056334749,248.6004473499488 159.7147887321189,249.26200344332028 156.00704225338995,249.48252205061726 148.78169014118612,251.02615103579592 147.35563380271196,251.9082237466937 145.7394366194494,253.34159035922494 142.41197183076292,254.66469630599022 141.17605633754283,254.55443753919099 140.89084507059306,254.77495506126434 140.79577464750037,255.10573126003146 141.46126760542393,256.5390936107142 141.27112676063552,257.0903863137355 140.4154929574579,257.8621956234565 139.36971830949187,258.4134876485914 137.46830985881388,259.73658735561185 136.51760563394055,259.73658735561185 135.3767605633475,259.2955543008866 134.6161971827969,257.9724540512543 133.95070422487333,256.5390936107142 133.0,255.43650735646952 133.57042253529653,255.21598997002002 135.56690140860155,254.99547253828496 135.85211267555133,255.10573126003146 136.0422535208054,255.43650735646952 136.61267605610192,255.76728335139342" stroke="#4dd2ff" stroke-linecap="round" stroke-linejoin="round" stroke-width="0.5"><title>2023-03-28 2.9km</title></polyline></svg>