<?xml version="1.0" encoding="utf-8" ?>
<svg baseProfile="full" height="300mm" version="1.1" viewBox="0,0,200,300" width="200mm" xmlns="http://www.w3.org/2000/svg" xmlns:ev="http://www.w3.org/2001/xml-events" xmlns:xlink="http://www.w3.org/1999/xlink"><defs /><rect fill="#222222" height="300" width="200" x="0" y="0" /><text fill="#FFFFFF" style="font-size:12px; font-family:Arial; font-weight:bold;" x="10" y="20">Over 2km Workouts</text><text fill="#FFFFFF" style="font-size:4px; font-family:Arial" x="10" y="280">ATHLETE</text><text fill="#FFFFFF" style="font-size:9px; font-family:Arial" x="10" y="290">Koobai</text><text fill="#FFFFFF" style="font-size:4px; font-family:Arial" x="120" y="280">STATISTICS</text><text fill="#FFFFFF" style="font-size:3px; font-family:Arial" x="120" y="285">Number: 17</text><text fill="#FFFFFF" style="font-size:3px; font-family:Arial" x="120" y="290">Weekly: 5.7</text><text fill="#FFFFFF" style="font-size:3px; font-family:Arial" x="141" y="285">Total: 45.4 km</text><text fill="#FFFFFF" style="font-size:3px; font-family:Arial" x="141" y="290">Avg: 2.7 km</text><text fill="#FFFFFF" style="font-size:3px; font-family:Arial" x="167" y="285">Min: 2.0 km</text><text fill="#FFFFFF" style="font-size:3px; font-family:Arial" x="167" y="290">Max: 4.2 km</text><polyline fill="none" points="21.526536313118413,63.914824382867664 17.11452513979748,64.17722751112888 16.662011173320934,64.04602596029872 16.322625698521733,63.78362277825363 15.983240223489702,62.66840805334505 15.587290502851829,60.50357392121805 14.342877095099539,56.04268049268285 13.720670391106978,54.46824009262491 12.53282122919336,52.69699001178378 12.306564246071503,52.1721742314985 12.25,51.712960070581175 12.53282122919336,51.253745580033865 13.268156424863264,50.72892861580476 15.6438547486905,49.54808887245599 18.472067039459944,47.8424276181031 21.526536313118413,45.152721786056645 23.56284916214645,43.70946033671498 25.09008379885927,42.922225446789525 27.352653631241992,42.266195631818846 29.38896648050286,41.34775276097935 31.25558659224771,40.75732450484065 33.06564245815389,40.42930857167812 36.289804469328374,40.101292470120825 37.873603351879865,39.77327620075084 45.05726256966591,37.214743526419625 45.849162011407316,37.14913998992415 46.35824022372253,37.2803470561048 46.98044692748226,37.67396809312049 47.376396648120135,38.133192330249585 47.82891061459668,38.98603646754054 47.942039106274024,39.510863063973375 47.942039106274024,39.97008598264074 47.60265363124199,40.691721331793815 46.754189944127575,41.61016514431685 46.69762569805607,42.13498958823038 48.337988826679066,45.218324501940515 49.412709497381,47.6456202576519 52.297486033523455,52.43458217539592 52.580307262483984,53.15620346646756 52.75,53.812222115986515 52.636871508322656,54.73064709518803 52.297486033523455,55.51786745642312 51.84497206704691,56.04268049268285 51.053072625771165,56.63309464399936 49.3561452513095,57.48591412283713 47.31983240228146,58.14192833309062 41.833100558724254,59.191549670591485 38.835195530671626,59.32275221665623 34.36662011174485,59.7819609164726 31.651536312885582,60.372371617355384 30.463687150739133,60.7659784485586 29.78491620114073,61.09398395655444 28.653631284832954,62.01239848375553 26.39106145268306,62.66840805334505 25.825418994529173,62.996412585896906 25.599162011174485,63.586820320924744 25.71229050308466,65.29243960633175 25.599162011174485,66.0796469738707 25.259776536608115,66.99805434548762 24.80726256966591,67.32605665869778 23.61941340775229,67.39165710110683 21.526536313118413,67.85086001007585 20.960893854731694,67.85086001007585 19.490223463624716,66.40764975803904 17.45391061459668,65.1612382842577 17.057960893958807,64.76763415656751 16.888268156675622,64.30842903495068 17.057960893958807,63.98042517493013 17.680167597718537,63.849223583820276 18.35893854754977,63.849223583820276 19.999301675939932,64.17722751112888 21.41340782120824,64.04602596029872" stroke="#4dd2ff" stroke-linecap="round" stroke-linejoin="round" stroke-width="0.5"><title>2023-04-16 2.2km</title></polyline><polyline fill="none" points="64.08304996346124,40.96984875755152 63.771932281320915,41.090120721026324 63.25340281135868,41.39080041376292 62.68302039441187,41.901955184090184 61.38669671921525,42.83405864847009 60.868167249369435,43.43541415029904 60.79038782871794,43.61582056042971 60.634828987764195,43.97663304780144 60.60890251433011,44.277309781551594 60.9459466697881,45.119202996225795 61.101505510741845,45.840823828504654 61.46447613975033,46.772914775821846 62.00893208337948,47.73507006635191 63.87563817529008,50.531315965170506 64.88677064189687,52.36539826160879 65.76827074086759,54.07920250232564 66.13124136987608,54.319735629542265 66.77940320735797,55.191666562488535 67.27200620388612,55.973395540437195 67.97202098846901,57.326383079140214 68.3349916174775,57.95777512845234 68.98315345495939,58.919893733167555 70.02021239500027,60.332999713136815 70.79800660011824,61.77616475216928 71.13505075545982,62.557876184000634 71.93877143412828,63.910833355243085 71.99062438111287,64.21148965708562 71.91284496057779,64.30168648750987 72.56100679805968,64.93306352433865 73.1313892150065,65.74483200354734 74.50549231073819,68.33044996633544 76.39812487619929,71.4872782122693 76.52775724360254,71.69773222095682 76.60553666413762,71.9983805429365 76.86480139929336,72.35915812259191 76.9685072931461,72.59967626264552 77.07221318723168,72.71993525861762 77.17591908131726,72.75 79.12040459376294,71.21669426496373 79.76856643136125,70.55526578775607 81.01303715934046,69.563120276056 81.58341957640368,69.05201370289433 83.73531687690411,67.42849280001246 84.4094051879365,66.82718648188165 85.93906712450553,65.62457014838583 86.22425833297893,65.2337187785306 86.76871427649166,64.99319459983963 87.77984674298204,64.27162088037585 89.02431747107767,62.978796861483715 90.03544993756805,62.37748142311466 91.07250887760893,61.565703626169125 92.13549429108389,60.51339573127916 93.25033265165985,59.220555150095606 93.6651562275365,58.79962908022571 93.87256801570766,58.529033430619165 94.15775922418106,57.627046129258815 94.3392445386853,56.93552065343829 94.39109748566989,56.544657706836006 94.3392445386853,55.82306320650969 93.87256801570766,54.68053495060303 93.32811207219493,53.6282023570966 91.53918540058658,50.65158400806831 90.13915583153721,47.82527196305455 88.5835674215341,45.02900026747375 88.16874384554103,44.15703912495519 87.85762616351712,43.70602372387657 87.39094964053947,43.25500762919546 87.02797901141457,42.71378740016371 86.79464074992575,42.2627697798016 86.66500838240609,41.691479798348155 85.57609649549704,40.007671274768654 84.22791987343226,37.542077067366336 83.65753745648544,36.57988833950367 82.75011088384781,34.92611908813706 82.179728466901,33.663234471314354 81.71305194380693,33.00172131121508 81.29822836793028,32.70103301797644 80.70191947731655,32.430413290363504 80.00190469285008,32.25 79.58708111685701,32.28006888949312 78.93891927937511,32.490551029273774 78.18705154780764,32.911514855659334 74.63512467814144,35.28694226563675 73.23509510909207,36.15892977837939 72.30174206313677,36.549819890846265 70.95356544107199,37.331598552904325 70.14984476263635,37.87282871356001 69.6053888190072,38.1735117045464 69.19056524313055,38.3238530845847 67.6868297799956,39.10562701791059 66.83125615457539,39.64685390496743 65.76827074086759,40.06780745991273 64.86084416834638,40.669168633263325 64.39416764536873,40.78944071996375" stroke="#ffb600" stroke-linecap="round" stroke-linejoin="round" stroke-width="0.5"><title>2023-04-15 4.2km</title></polyline><polyline fill="none" points="110.93221942009404,60.37800311355386 110.1661412359681,60.9110820980859 109.40006305160932,61.088774983771145 106.99968474148773,60.9110820980859 106.38682219432667,60.674158165755216 105.97824716265313,59.963385785289574 104.6503783101216,56.40951076685451 103.93537200521678,53.44793155172374 103.37358133681118,52.44099116028519 102.40321563673206,50.960193278617226 102.25,50.60480122221634 102.25,50.30864100827603 102.45428751572035,49.71632012486225 103.1182219418697,49.06476645148359 108.12326607829891,45.925452089868486 110.52364438818768,43.61537968314951 112.87295081955381,41.897627546451986 114.14974779332988,41.246065054961946 115.88619167730212,40.890667022555135 118.03121059271507,40.00217098521534 120.43158890283667,39.35060635593254 122.01481714984402,39.05444037239067 124.82377049187198,38.817507476196624 128.80737704923376,37.3366746736574 131.9738335434813,36.50740664603654 132.84205548558384,36.448173170152586 133.55706179048866,36.86280737508787 134.0677805801388,37.4551414376474 134.22099621687084,37.69207489240216 134.2720680956263,38.402874674182385 133.65920554846525,40.29833648283966 133.6081336697098,41.068366066145245 133.8124211851973,41.660695816390216 135.24243379570544,44.85926597297657 135.75315258512273,45.74775454029441 136.26387137454003,46.280847024929244 136.8767339217011,46.51777686004061 137.28530895337462,46.51777686004061 138.51103404792957,46.22161455091555 138.97068095835857,46.34007949277293 140.04319041618146,47.52472757548094 141.2178436317481,48.1762829857762 141.7285624211654,48.59090877312701 142.29035308933817,49.36092730326345 142.6478562420234,50.07171272771666 142.75,50.66403324669227 142.6478562420234,51.256353158620186 142.3414249685593,51.90790436009411 141.7796343001537,52.559454826812726 140.19640605291352,53.86255355575122 135.54886506916955,57.0018247878761 129.93095838581212,59.90415471419692 125.99842370743863,62.865700833906885 124.51733921817504,63.81339238607325 123.08732660789974,64.46492942649638 120.22730138734914,65.53107936237939 117.46941992407665,66.95260954974219 115.93726355605759,67.48568246822106 114.35403530905023,68.19644559471635 114.04760403535329,68.37413623958128 113.8943883983884,68.55182682984741 114.14974779332988,68.55182682984741 115.01796973519959,67.7818338770885 115.3244010086637,67.30799155012937 115.47761664562859,66.65645771572599 115.37547288788483,65.8272317731753 115.22225725091994,65.53107936237939 114.60939470375888,64.93877408537082 113.4347414879594,64.10954567726003 112.20901639340445,62.9841623629909" stroke="#4dd2ff" stroke-linecap="round" stroke-linejoin="round" stroke-width="0.5"><title>2023-04-15 2.1km</title></polyline><polyline fill="none" points="156.41981132072397,60.86037826933898 155.75754716992378,61.27395249262918 155.1462264151778,61.45119849743787 153.05754716997035,61.21487047895789 151.3764150943607,61.27395249262918 151.12169811339118,61.15578845911659 150.96886792453006,60.86037826933898 150.51037735841237,58.969749468786176 149.7462264150381,56.90186711627757 148.72735849069431,53.71140550193377 147.35188679257408,51.58442127937451 147.25,51.11175705259666 147.35188679257408,50.6390924382722 147.912264151033,49.87101161299506 148.77830188674852,49.16201301931869 150.81603773590177,48.0985134934308 153.3632075469941,46.62142756249523 155.24811320751905,44.55350089841522 158.05000000004657,42.60373467527097 159.0688679246232,42.0719791057636 161.15754717006348,41.59930707659805 163.5518867925275,40.59487772680586 166.5066037736833,39.94495192077011 170.1235849056393,39.708615082199685 173.84245283040218,38.172423268901184 176.03301886818372,37.640663610131014 177.56132075493224,37.04981896933168 178.0707547168713,37.108903460612055 179.2933962265961,38.11333888681838 179.54811320756562,38.70418243703898 179.54811320756562,39.1768568410771 179.39528301893733,39.59044662659289 178.3764150943607,41.36297091637971 178.27452830201946,41.65839110140223 178.3254716983065,41.953811134793796 178.63113207556307,42.66281859722221 180.77075471705757,46.56234404660063 181.33113207574934,47.153178933949675 181.84056603792123,47.33042928192299 182.50283018872142,47.27134583861334 183.67452830215916,46.73959457635647 184.13301886827685,46.79867807420669 185.61037735873833,47.98034675832605 186.78207547194324,49.16201301931869 187.34245283040218,49.93009478965541 187.6990566039458,50.8754247938632 187.75,51.466255259059835 187.6990566039458,51.99800215970026 187.49528301879764,52.47066565940622 187.13867924548686,53.002411633497104 186.42547169839963,53.65232271287823 183.57264150958508,55.83838187408401 181.89150943397544,56.724619712040294 179.19150943425484,58.438009001198225 174.35188679257408,61.03762440133141 172.87452830187976,62.16018197161611 171.0915094341617,63.69630984030664 169.20660377363674,64.40529055264778 165.69150943378918,65.94141243695049 163.09339622640982,67.41844884917373 162.17641509440728,67.83201836619992 161.61603773618117,67.95018103072653 161.25943396240473,67.77293702476891 160.95377358491533,67.41844884917373 160.59716981160454,66.76855329418322 160.34245283016935,66.4140645005973 159.4254716981668,65.70508625963703 158.30471698124893,65.05518877261784 157.94811320770532,64.70069892529864 157.4386792453006,63.63722807500744 157.03113207546994,61.27395249262918 156.67452830192633,60.44680374924792" stroke="#4dd2ff" stroke-linecap="round" stroke-linejoin="round" stroke-width="0.5"><title>2023-04-14 2.2km</title></polyline><polyline fill="none" points="22.683518005535007,111.4965460919193 21.673822714714333,110.65081895783078 21.393351800506935,110.58576297783293 21.112880886532366,110.58576297783293 20.66412742412649,110.97609875828493 19.59833795018494,112.5374394787359 19.037396122002974,113.05788553174352 18.476454293588176,113.38316409831168 17.859418282518163,113.51327547820983 17.410664820112288,113.51327547820983 17.074099723016843,113.31810839823447 16.793628809042275,112.86271831183694 16.17659279773943,110.91104281164007 15.166897506918758,108.56902428745525 14.662049861624837,106.6823919681483 14.213296398986131,105.5113759827218 13.708448753459379,104.60058427799959 12.64265927998349,103.299451003375 12.306094182888046,102.7139401595341 12.25,102.19348562229425 12.418282548664138,101.73808755219216 12.867036011302844,101.28268915496301 13.652354570571333,100.69717644999037 16.45706371194683,99.20086374942912 18.756925208028406,98.15994848503033 19.261772853322327,97.70454751997022 20.832409972324967,95.88294039125321 22.12257617758587,94.64684686111286 23.18836565106176,93.80109726887895 24.254155124770477,93.34569317533169 30.5367036012467,91.06866780493874 36.42659279773943,90.09279728744878 40.01662049861625,88.92175068531651 42.54085872578435,87.8808185578091 44.11149584478699,87.49046856974019 45.40166204981506,87.03505994670559 45.850415512453765,86.97000154532725 46.29916897485964,87.10011834144825 46.69182825484313,87.42541021498619 47.308864265913144,88.14105174975703 47.86980609409511,89.11692526901606 47.9819944598712,89.89762300380971 47.75761772855185,90.41808762669098 47.08448753459379,91.26384172827238 46.80401662038639,91.78430523048155 46.69182825484313,92.36982616013847 46.747922437498346,92.89028875500662 47.308864265913144,93.99627035186859 48.542936288286,95.94799787871307 50.22576177306473,99.13580659538275 51.235457063652575,101.34774608898442 52.525623268447816,103.42956445092568 52.75,104.34035783651052 52.75,105.31620644195937 52.525623268447816,105.70654546376318 51.68421052629128,106.29205354646547 48.82340720226057,107.65823697176529 47.75761772855185,108.04857455275487 41.81163434917107,109.08947359549347 39.06301939068362,109.349698089296 36.81925207749009,109.67497855657712 30.5367036012467,110.91104281164007 29.807479224167764,111.23632247844944 28.79778393357992,112.0169929987751 26.72229916905053,112.66755103203468 25.93698060954921,113.05788553174352 25.712603878229856,113.38316409831168 25.488227147143334,114.87944335618522 25.26385041559115,115.13966547575546 24.815096952952445,115.33483199519105 22.739612188423052,115.52999845467275 22.346952908672392,115.46494297479512 22.010387811576948,115.26977649546461 21.673822714714333,114.74933225638233 21.72991689760238,114.22888759057969 22.010387811576948,113.83855381113244 22.62742382287979,113.51327547820983" stroke="#4dd2ff" stroke-linecap="round" stroke-linejoin="round" stroke-width="0.5"><title>2023-04-13 2.0km</title></polyline><polyline fill="none" points="67.82251381222159,113.21989041444613 67.20718232053332,113.41451827879064 66.70372928166762,113.349642330606 65.08149171294644,112.70088248327374 64.41022099461406,112.50625439931173 63.403314917115495,112.6360064620385 62.228591160383075,112.96038650203263 62.00483425427228,112.89551050728187 61.78107734816149,112.70088248327374 60.43853591172956,109.13269143353682 59.93508287286386,106.92689053941285 59.375690607586876,105.36984998453408 58.92817679559812,104.52645141782705 57.7534530388657,103.29378995182924 57.3618784530554,102.58014274243033 57.25,102.19088028901024 57.305939226644114,101.7367404573597 57.80939226527698,100.89333704806631 58.64848066307604,100.3094417215907 60.66229281784035,99.33628164697438 63.45925414375961,97.77922241424676 64.18646408850327,97.19532421417534 66.53591160243377,94.92460386967286 69.27693370170891,93.3026557774865 70.45165745867416,92.78363150998484 72.63328729290515,92.19972869986668 75.82182320440188,90.9670432205894 77.66781767993234,90.38313873432344 79.34599447529763,90.05874712002696 81.97513812151738,89.73435533989687 83.09392265207134,89.34508498373907 84.43646408850327,88.63142204238102 85.94682320463471,88.56654355331557 87.00966850831173,88.30702953011496 88.68784530390985,87.78800116496859 90.70165745867416,86.94457916310057 91.26104972371832,86.94457916310057 91.87638121540658,87.39872961130459 92.65953038702719,88.50166505743982 92.82734806649387,89.15044971578754 92.88328729290515,89.60459858097602 92.65953038702719,90.38313873432344 91.7085635359399,91.87533801712561 91.65262430952862,92.26460681663593 91.76450276235119,92.78363150998484 92.2120165748056,93.82167961937375 93.66643646429293,96.09240392170614 95.28867403324693,98.81726232840447 96.35151933715679,101.15284590912051 97.5262430938892,103.0342819687794 97.69406077358872,103.61817478091689 97.75,104.13719016168034 97.6381215469446,104.59132827050053 97.41436464106664,105.1103428528877 96.85497237555683,105.56448026339058 96.29558011051267,105.95374064153293 94.22582872956991,107.1215203392203 93.16298342542723,107.5107797596138 91.26104972371832,107.83516242686892 88.68784530390985,108.41905080917059 85.77900552516803,108.80830943130422 83.37361878459342,109.06781504623359 75.82182320440188,110.36534152535023 75.03867403324693,110.68972272938117 73.97582872933708,111.33848463877803 72.63328729290515,111.79261757957283 70.50759668508545,112.70088248327374 68.38190607749857,112.83063450595364 67.1512430938892,113.02526249026414 66.64779005525634,113.349642330606 66.36809392273426,113.86864972976036 66.31215469632298,114.38765670312569 66.36809392273426,114.84178745560348 66.64779005525634,115.16616636497201 67.03936464083381,115.36079363094177 67.59875690634362,115.55542083689943 68.27002762444317,115.55542083689943 69.7244475139305,115.10129059635801" stroke="#4dd2ff" stroke-linecap="round" stroke-linejoin="round" stroke-width="0.5"><title>2023-04-12 2.0km</title></polyline><polyline fill="none" points="106.74058577371761,112.55059202277334 106.48640167340636,112.2557984252926 106.48640167340636,111.27315244625788 105.38493723794818,108.32520846405532 104.79184100404382,105.96684675000142 103.35146443499252,104.09980627743062 102.7583682006225,103.21541741571855 102.41945606656373,102.23276216810336 102.33472803328186,101.44663724431302 102.58891213405877,100.66051167598926 104.45292886951938,97.31947081623366 106.48640167340636,95.25588093773695 107.4184100413695,94.46975029166788 109.19769874447957,93.38881960004801 111.14644351461902,92.50442085473333 117.4163179914467,90.44082060852088 119.70397489517927,90.24428702000296 127.83786610839888,88.7702838217374 129.0240585776046,88.37721591920126 130.80334727978334,87.39454545796616 131.90481171570718,87.00147699093213 132.66736401664093,87.00147699093213 133.59937238506973,87.19801124470541 134.19246861943975,87.88588081451599 135.29393305443227,89.65468601259636 138.00523012550548,94.46975029166788 139.02196652721614,96.92640642018523 141.14016736391932,100.26744864985812 142.07217573234811,101.1518402317306 142.66527196625248,102.527558848029 142.75,103.21541741571855 142.5805439329706,104.39460238337051 142.32635983265936,105.27899015671574 141.9874476986006,105.77031634515151 140.63179916329682,106.85123307275353 137.49686192441732,108.42347340949345 135.63284518849105,108.81653309083777 133.5146443513222,109.60265196970431 128.6004184097983,110.78182907885639 125.29602510435507,111.07662312942557 121.73744769860059,111.17488779267296 117.75523012550548,111.96100473747356 113.85774058569223,112.55059202277334 109.96025104587898,113.72976550529711 108.60460251010954,113.82802989683114 108.09623430902138,113.5332366921939 107.75732217542827,112.74712103727506 106.74058577371761,109.50438714498887 105.38493723794818,106.06511193717597 103.69037656858563,103.60847923281835 102.50418410031125,102.13449658773607 102.25,101.44663724431302 102.25,100.26744864985812 103.18200836796314,97.90906710847048 104.28347280295566,96.63160801719641 106.65585773997009,94.96108202071628 109.87552301213145,93.09402010880876 110.97698744758964,92.40615427691955 112.5020920499228,91.81655459979083 119.28033472783864,90.14602021075552 122.5,90.04775339143816 125.97384937247261,89.2616184730432 127.41422594105825,88.86855077202199 130.4644351466559,87.49281254922971 132.66736401664093,87.00147699093213 133.5146443513222,87.00147699093213 134.0230125519447,87.49281254922971 136.14121338864788,91.71828795148758 137.6663179914467,94.17495113285258 139.2761506275274,97.51600295398384 141.14016736391932,99.67785380873829 142.49581589968875,102.13449658773607 142.66527196625248,103.01888644701103 142.32635983265936,105.18072488892358 141.90271966485307,105.86858155252412 140.97071129688993,106.65470284939511 137.6663179914467,108.42347340949345 135.7175732217729,109.11132774577709 132.92154811695218,109.60265196970431 129.5324267782271,110.48703493742505 127.24476987449452,110.88009377272101 125.12656903779134,111.17488779267296 123.00836820108816,111.17488779267296 112.16317991632968,112.94365001126425 108.77405857713893,113.82802989683114 108.09623430902138,114.22108736133669 107.4184100413695,115.00720180739881 106.910041840747,115.20373031834606 105.4696652716957,115.10546606802382 102.50418410031125,115.49852300900966" stroke="#4dd2ff" stroke-linecap="round" stroke-linejoin="round" stroke-width="0.5"><title>2023-04-11 2.4km</title></polyline><polyline fill="none" points="162.46333486773074,104.36543731647544 161.1202241666615,105.92312802630477 159.10555811412632,110.98561842506751 161.79177951812744,117.99520937539637 160.78444649092853,119.16347327688709 159.10555811412632,118.77405201573856 158.43400276452303,117.99520937539637 157.7624474130571,112.54330642079003 160.78444649092853,108.2596628954634 158.09822508879006,103.9760145386681 153.06155995838344,102.0289000524208 152.05422693304718,100.86063088220544 151.3826715797186,96.57697418099269 153.73311530798674,92.68273662426509 162.12755719199777,86.84137280401774 171.86510977707803,85.67309896158986 175.2228865325451,86.06252361577936 180.93110701441765,90.34619217342697 182.27421771548688,95.79812698927708 181.6026623658836,98.9135147978086 179.92377398721874,102.0289000524208 173.54399815574288,106.70197314233519 170.18622140213847,106.70197314233519 161.79177951812744,106.70197314233519 151.04689390398562,100.86063088220544 150.37533855438232,98.52409146190621 151.04689390398562,91.125040483661 163.80644556879997,83.72597509319894 167.83577767387033,82.16827527945861 171.5293321032077,81.38942513405345 174.55133118107915,82.16827527945861 178.5806632861495,86.06252361577936 181.6026623658836,91.90388863487169 180.93110701441765,97.74524466902949 177.57333026081324,101.63947703503072 173.54399815574288,103.9760145386681 165.14955627173185,104.75486005377024 160.1128911394626,106.31255060480908 153.39733763225377,102.80774596589617 152.39000460505486,100.86063088220544 152.72578228265047,98.52409146190621 156.4193367101252,93.85100831021555 161.79177951812744,90.73561634891666 167.49999999813735,84.50482476060279 170.52199907787144,84.11539994738996 173.2082204800099,85.28367426851764 177.57333026081324,89.17791941110045 179.5879963133484,92.68273662426509 180.2595516629517,97.35582121275365 178.91644096188247,100.86063088220544 176.56599723361433,103.1971688636113 172.8724428061396,105.14428275101818 164.81377859413624,104.75486005377024 159.77711346372962,105.53370540821925 155.7477813605219,102.80774596589617 151.3826715797186,101.2500539785251 149.70378320291638,99.69236135110259 149.36800552904606,96.96639771782793 150.37533855438232,89.95676795905456 151.71844925545156,88.0096462869551 156.08355903625488,84.11539994738996 159.10555811412632,82.55770029197447 167.49999999813735,81.0 172.8724428061396,81.77885022666305 175.2228865325451,83.3365502001252 179.25221863761544,87.62022183323279 181.26688469015062,91.51446457928978 181.26688469015062,93.0721605590079 180.93110701441765,95.40870333276689 179.25221863761544,98.13466808479279 177.23755258508027,100.47120774374343 172.53666512854397,102.80774596589617 161.45600184239447,105.53370540821925 159.77711346372962,105.14428275101818 157.09089206159115,102.80774596589617 153.06155995838344,100.86063088220544 152.05422693304718,98.9135147978086 152.39000460505486,93.85100831021555 154.40467065759003,90.73561634891666 165.48533394560218,82.94712526584044 169.1788883768022,82.16827527945861 171.19355442747474,82.94712526584044 174.88710885681212,85.67309896158986 178.24488561041653,89.17791941110045 179.25221863761544,91.51446457928978 179.25221863761544,94.24043212644756 178.24488561041653,98.9135147978086 175.2228865325451,103.58659172151238 171.86510977707803,105.14428275101818 161.1202241666615,105.92312802630477 152.72578228265047,100.47120774374343 151.3826715797186,98.52409146190621 151.04689390398562,96.57697418099269 151.71844925545156,91.125040483661 153.06155995838344,88.78849507588893 167.83577767387033,81.38942513405345 170.18622140213847,81.38942513405345 175.55866420827806,84.89424953376874 181.6026623658836,91.125040483661 182.27421771548688,93.46158445533365 181.93844004161656,96.18755060480908 181.26688469015062,98.13466808479279 179.92377398721874,100.47120774374343 174.55133118107915,103.9760145386681 163.13489021919668,107.09139564097859 159.4413357898593,106.70197314233519 155.7477813605219,104.75486005377024 154.0688929837197,102.80774596589617 153.73311530798674,98.9135147978086 155.41200368478894,94.24043212644756 160.1128911394626,91.90388863487169 167.83577767387033,86.84137280401774 170.52199907787144,85.67309896158986 172.20088745467365,86.06252361577936 175.2228865325451,88.0096462869551 178.5806632861495,90.73561634891666 179.5879963133484,92.29331264854409 180.2595516629517,97.74524466902949 179.5879963133484,100.47120774374343 178.24488561041653,102.0289000524208 176.23021955788136,103.1971688636113 169.1788883768022,103.9760145386681 160.4486688170582,105.92312802630477 153.39733763225377,101.2500539785251 151.3826715797186,97.74524466902949 151.04689390398562,95.40870333276689 151.71844925545156,91.51446457928978 152.39000460505486,89.95676795905456 155.07622601091862,87.62022183323279 162.12755719199777,86.06252361577936 169.51466605067253,81.77885022666305 172.8724428061396,82.55770029197447 179.25221863761544,88.78849507588893 180.59532933868468,90.34619217342697 181.6026623658836,94.24043212644756 180.59532933868468,98.52409146190621 178.91644096188247,101.2500539785251 177.23755258508027,102.80774596589617 163.47066789492965,106.31255060480908 157.42666973732412,110.20677418680862 157.42666973732412,113.32215017848648 159.4413357898593,119.55289449705742 160.78444649092853,121.11057897889987 163.13489021919668,121.5 174.21555350720882,119.94231567718089 177.23755258508027,120.72115791821852 181.26688469015062,118.77405201573856 185.6319944690913,115.65868049557321" stroke="#4dd2ff" stroke-linecap="round" stroke-linejoin="round" stroke-width="0.5"><title>2023-04-10 2.2km</title></polyline><polyline fill="none" points="17.8354985374026,170.25 17.766865925164893,169.6408250030945 17.675355775747448,169.3759658638155 17.42370286444202,168.8197607935581 17.355070252204314,168.26355453391443 17.355070252204314,167.46897210009047 17.492335476563312,166.59492861942272 17.65247823833488,166.03871760261245 18.178661598125473,164.47602314286632 18.407436971901916,163.91980759517173 18.659089883207344,162.91331929489388 19.093763093464077,161.66844679918722 19.61994645325467,160.55600250681164 20.30627257481683,158.72840512590483 20.58080302341841,158.2251514182135 20.832455934607424,157.24512824576232 21.267129144864157,156.05320319446037 21.381516831810586,155.15263397747185 21.61029220558703,154.41098639849224 22.06784295325633,153.40446130148484 22.777046612114646,150.7821802549879 23.051577060832642,149.93456860582228 23.60063795791939,148.5836818300886 23.87516840652097,147.60362232621992 24.172576392651536,146.83546499814838 24.40135176642798,146.38516481989063 24.515739453257993,146.1732585838181 24.836024976684712,145.80242225527763 24.927535126218572,145.5905155444052 25.29357572447043,144.34556013083784 25.97990184579976,142.67678075961885 26.39169751876034,141.82914269217872 26.689105504658073,140.76959122245898 27.009391028084792,140.00141370741767 27.306799013982527,139.07429989121738 27.58132946281694,138.43856279258034 27.855859911302105,137.90878068978782 28.016002672957256,137.7763349954621 28.290533121558838,137.80282413971145 30.55540932249278,138.46505186942522 30.89857238321565,138.62398627356743 31.37900066829752,138.38558463094523 32.133959401980974,137.1670839326398 32.84316306083929,136.13400278103654 33.20920365897473,135.63070534850704 33.598121794406325,135.20687517611077 34.51322328974493,134.438681227708 36.068895831820555,133.40558923629578 37.02975240210071,132.92877616352052 37.46442561224103,132.79632793250494 37.80758867308032,132.79632793250494 38.05924158426933,132.45196221632068 38.05924158426933,132.31951374252094 38.654057556181215,131.92216791631654 38.768445243127644,131.5778010423819 38.928588004782796,130.1208592215553 38.99722061690409,129.96191961996374 39.248873528209515,129.75 40.4385054721497,130.09436929467483 40.804546070168726,130.1473491457 43.41258533205837,130.22681890195236 44.25905421515927,130.359268441709 44.327686827396974,130.41224823877565 44.41919697681442,130.51820780045819 44.53358466376085,131.04800496116513 44.51070712634828,131.33939293943695 44.41919697681442,131.68376012903173 44.44207451422699,131.89567817302304 44.64797235070728,131.92216791631654 44.94538033660501,130.25330881529953 45.08264556096401,130.09436929467483 45.380053546861745,130.06787936508772 45.517318771220744,130.1208592215553 45.608828920754604,130.30628863399033 45.677461532875896,131.33939293943695 45.7460941451136,131.5778010423819 45.83760429464746,131.73673965624766 46.15788981807418,131.89567817302304 46.91284855164122,132.13408576583606 47.3246442246018,132.13408576583606 47.6449297479121,132.05461659253342" stroke="#4dd2ff" stroke-linecap="round" stroke-linejoin="round" stroke-width="0.5"><title>2023-04-09 2.8km</title></polyline><polyline fill="none" points="88.09230769239366,130.2063643343863 87.54711538460106,132.82152342167683 87.39134615380317,133.09205667936476 87.15769230760634,133.18223441380542 87.46923076966777,132.82152342167683 88.17019230732694,134.0840112506412 88.01442307699472,135.70720724272542 87.85865384619683,136.2482719119871 87.46923076966777,136.69915888400283 87.46923076966777,138.41252728307154 87.70288461539894,139.4946529843146 86.92403846140951,141.92943097674288 86.6125000002794,142.5606686224346 85.98942307662219,143.1919058180647 85.98942307662219,143.37225921993377 86.30096153868362,143.46243590698577 85.98942307662219,143.46243590698577 85.75576923042536,143.91331920510856 84.97692307690158,145.98737941787113 83.88653846131638,147.43020104814786 83.18557692319155,148.96319645404583 83.029807691928,149.41407695086673 83.1076923077926,150.04530926031293 83.41923076892272,150.4961892060237 83.49711538432166,150.76671706303023 82.32884615380317,154.19339609832969 80.84903846122324,157.710237108171 80.84903846122324,157.98076276102802 81.00480769202113,157.98076276102802 81.70576923061162,157.3495361090172 81.62788461567834,158.9726894479827 81.08269230742007,159.69408997654682 80.69326923089102,161.22706414887216 79.44711538450792,160.77618966781301 78.35673076938838,160.59583981119795 78.12307692319155,160.6860147441621 78.12307692319155,161.04671438393416 78.27884615398943,160.5056648691534 78.0451923077926,160.23513998754788 76.2538461536169,159.15303963521728 74.77403846150264,158.52181381871924 73.60576923098415,158.4316386654973 73.37211538478732,158.9726894479827 73.13846153859049,157.710237108171 73.91730769211426,155.90673064312432 73.91730769211426,155.54602890915703 72.9826923077926,155.9969060534495 72.74903846113011,155.9969060534495 72.90480769239366,155.81655522348592 72.90480769239366,156.08708145469427 72.35961538460106,157.3495361090172 72.51538461539894,157.5298866268713 72.82692307699472,157.25936083617853 72.9826923077926,158.07093796040863 72.74903846113011,157.8905875524506 71.4250000002794,157.98076276102802 70.80192307708785,157.710237108171 69.94519230769947,157.25936083617853 69.86730769230053,157.25936083617853 69.86730769230053,157.43971137265908 70.17884615343064,157.5298866268713 70.49038461549208,157.43971137265908 70.7240384616889,157.25936083617853 70.7240384616889,156.80848433467327 70.56826923089102,156.26743223000085 69.71153846150264,155.63620435656048 69.01057692337781,155.45585345261497 67.375,155.63620435656048 64.25961538450792,154.28357168333605 63.09134615352377,153.92286928842077 61.37788461521268,154.73444947076496 60.44326923042536,155.54602890915703 59.74230769230053,155.81655522348592 60.52115384628996,155.90673064312432 61.61153846140951,155.45585345261497 60.131730769295245,155.81655522348592 59.9759615380317,155.81655522348592 59.898076923098415,156.08708145469427 60.365384615492076,156.62813366978662 60.52115384628996,156.98883496283088 60.28750000009313,158.2512883313466 60.75480769202113,158.4316386654973 61.92307692300528,158.6119889630354 61.066346153616905,158.8825143405702 59.74230769230053,159.6039149427088 59.197115384507924,160.05479002080392 58.57403846131638,161.13688927114708 58.34038461558521,161.6779384003603 58.41826923051849,161.94846284104278 58.41826923051849,161.76811322307913 57.25,163.75195699970936 57.48365384619683,164.02248080656864 58.18461538478732,164.4733536344138 60.131730769295245,165.01440072490368 63.09134615352377,166.72771433013259 64.64903846150264,167.26876004319638 65.58365384628996,167.35893429641146 65.73942307662219,167.26876004319638 65.42788461502641,167.08841150894295 65.42788461502641,166.99823722819565 66.59615384601057,166.27684265031712 67.9201923077926,164.7438772211899 68.93269230751321,162.57968621433247 70.10096153849736,162.128812422161 70.49038461549208,161.85828803642653 76.2538461536169,164.29300453100586 79.60288461530581,165.1045752078644 79.7586538461037,165.3750986016239 81.78365384601057,166.5473656859831 87.15769230760634,168.8017211011611 88.32596153812483,168.1705021635862 89.18269230797887,168.1705021635862 91.28557692328468,169.25259149546036 92.22019230760634,169.43293958890717 92.92115384619683,169.16241743485443 93.9336538463831,168.08032799273496 94.4009615383111,168.08032799273496 95.88076923089102,168.62137287913356 97.75,169.7936356656137" stroke="#4dd2ff" stroke-linecap="round" stroke-linejoin="round" stroke-width="0.5"><title>2023-04-09 2.5km</title></polyline><polyline fill="none" points="109.2047166567063,138.35330647215596 108.86515146319289,138.4138922491693 108.13378027733415,139.17121341484017 105.73070352373179,140.65555726911407 105.70458312425762,141.50375040981453 105.57398112677038,142.01872362877475 105.75682392320596,142.5639884120319 106.01802791829687,143.04866737461998 106.61879710666835,143.92714596827864 107.3240478929365,145.0782518966007 108.96963306120597,147.95599710129318 109.72712464665528,149.53117208281765 110.27565303596202,150.4399230608833 110.40625503356569,151.01546390162548 111.42495061375666,152.07566777948523 112.36528499552514,153.68111212577787 113.04441538243555,155.1653831024014 113.41010097542312,155.71062362991506 114.37655575678218,157.0737205479527 115.49973293510266,158.8003009527165 115.99602052546106,159.83018621613155 117.01471610588487,161.52646000348614 117.06695690494962,161.73849354239064 117.01471610588487,161.98081740076304 117.95505048776977,162.95011084686848 121.40294322115369,168.9475433647458 121.58578601758927,169.3413099295285 121.66414721612819,169.79565531390836 122.02983280911576,170.25 122.160434806603,170.25 124.35454836417921,168.3114578059176 124.95531755266711,167.70566076299292 127.09719031117857,166.00942243737518 128.45545108499937,165.1007193303376 131.11973183369264,162.88953009966644 131.8249826199608,162.4351740993734 133.339965790743,161.1326830277103 134.7765877629863,160.04222097198362 137.25802571501117,157.7704121005081 138.30284169490915,156.58906458629644 138.5901660893578,156.31644525850425 139.00809248141013,155.80149695344153 139.1909352777293,155.1653831024014 139.37377807416487,153.98402517542127 139.42601887322962,153.37819876574213 139.37377807416487,153.13586785405641 138.11999889847357,150.7731310526433 136.7356177251786,148.59212646994274 134.9594305594219,145.29029723646818 134.51538376801182,144.5632840092876 133.2616045922041,142.32164863258367 132.45187220792286,140.9887762933795 131.74662142142188,139.56501965387724 130.93688903714065,138.32301357900724 130.41448104719166,137.29305336225661 129.60474866291042,135.8995720607927 127.33227390656248,131.77967586443992 126.4964211229235,130.4467559728073 126.20909672835842,130.14381879527355 125.55608674092218,129.8711750698276 124.79859515558928,129.75 124.40678916312754,129.7802937720844 123.80601997487247,129.99235008991673 121.11561882670503,131.6282079977682 118.32073608052451,133.2337634342257 117.69384649279527,133.6881643322995 116.3094653195003,134.53637747233734 113.12277658097446,136.35396885935916 110.92866302339826,137.47481130843516 110.19729183742311,137.95949861826375 109.83160624455195,138.11096323953825 109.54428185010329,138.17154906634823" stroke="#ffb800" stroke-linecap="round" stroke-linejoin="round" stroke-width="0.5"><title>2023-04-09 4.1km</title></polyline><polyline fill="none" points="156.80546349659562,145.95007972116582 157.0237193433568,149.2407079259865 157.0237193433568,155.0625778522808 158.9880219651386,152.27820699149743 161.8253479776904,150.00008304254152 163.78965060133487,149.2407079259865 169.0277909282595,148.22820740705356 172.08337278664112,146.20320512307808 173.17465202324092,143.16569858440198 173.17465202324092,140.3813143062871 172.5198844820261,138.10317938076332 171.21034939959645,136.33129520644434 169.68255846947432,135.0656628755387 167.71825584676117,134.3062831654679 166.40872076433152,134.3062831654679 164.88092983607203,134.5594097613357 159.86104535404593,136.8375479571987 155.05941672064364,136.8375479571987 154.18639333173633,137.8500531478785 153.5316257905215,139.87506228266284 153.749881638214,141.6469439130742 155.71418426185846,144.1782011790201 163.13488306012005,148.98758283467032 172.73814032878727,145.69695429317653 174.7024429505691,145.69695429317653 174.04767540935427,144.1782011790201 173.17465202324092,143.16569858440198 171.42860524635762,142.15319557324983 169.46430262364447,141.6469439130742 167.06348830554634,141.3938180434052 161.38883628416806,141.6469439130742 157.24197519011796,140.8875662270002 153.09511409699917,141.14069214789197 156.1506959553808,142.15319557324983 159.64278950728476,145.69695429317653 161.6070921299979,146.20320512307808 169.24604677595198,146.20320512307808 172.5198844820261,145.19070335826837 173.61116371676326,144.43132676254027 173.8294195625931,143.16569858440198 173.3929078700021,139.62193623138592 173.61116371676326,139.87506228266284 173.3929078700021,139.36881015403196 169.46430262364447,137.09067429439165 167.06348830554634,136.58442159486003 166.19046491757035,136.58442159486003 162.26185967121273,138.35630558733828 161.38883628416806,138.10317938076332 158.5515102725476,134.0531565430574 158.5515102725476,133.04064979660325 158.9880219651386,132.78752304427326 161.6070921299979,131.52188889682293 166.84523245785385,129.75 169.46430262364447,129.75 170.55558185838163,130.7625080961734 171.21034939959645,131.77501577790827 171.21034939959645,134.81253633159213 168.59127923473716,141.14069214789197 166.19046491757035,144.93757785251364 164.2261622948572,145.4438288381789 160.95232458878309,142.15319557324983 157.24197519011796,140.12818830669858 156.1506959553808,140.12818830669858 154.84116087295115,140.6344402791001 153.5316257905215,142.15319557324983 153.09511409699917,142.91257287026383 153.749881638214,143.16569858440198 157.24197519011796,142.91257287026383 158.33325442578644,144.1782011790201 158.76976611930877,148.22820740705356 157.67848688550293,151.7719574063085 157.67848688550293,156.32819993258454 158.5515102725476,158.10006975522265 160.29755704849958,159.11256622592919 161.8253479776904,159.618814305868 170.11907016392797,158.60631804238074 174.26593125704676,159.618814305868 176.23023388069123,161.13755792193115 177.53976896218956,163.41567159444094 177.10325726866722,165.69378316425718 176.23023388069123,166.70627652155235 167.5,169.23750809626654 164.2261622948572,168.47813889640383 162.6983713656664,167.46564626554027 161.38883628416806,165.4406597604975 159.64278950728476,163.6687952056527 158.76976611930877,161.13755792193115 158.76976611930877,158.60631804238074 160.51581289526075,153.79695512261242 160.29755704849958,151.7719574063085 159.2062778128311,150.00008304254152 155.2776725674048,145.69695429317653 154.18639333173633,143.41882427129894 154.18639333173633,141.14069214789197 155.05941672064364,139.11568405129947 156.80546349659562,137.09067429439165 162.0436038253829,135.57191588613205 167.5,132.78752304427326 169.68255846947432,132.78752304427326 172.08337278664112,133.54690322140232 173.61116371676326,135.0656628755387 174.26593125704676,136.58442159486003 174.04767540935427,141.14069214789197 172.95639617554843,143.9250755684916 171.42860524635762,145.4438288381789 169.9008143171668,146.20320512307808 162.48011551890522,148.48133257520385 160.95232458878309,148.73445771774277 159.4245336605236,147.7219569918234 156.80546349659562,144.68445232091472 154.40464917942882,143.16569858440198 153.5316257905215,141.6469439130742 153.96813748590648,139.36881015403196 155.49592841416597,137.5969268886838 163.13488306012005,133.29377652192488 164.88092983607203,132.78752304427326 167.93651169352233,133.04064979660325 171.42860524635762,134.0531565430574 173.3929078700021,135.57191588613205 174.26593125704676,137.34380060457624 174.48418710473925,139.87506228266284 174.26593125704676,141.6469439130742 173.3929078700021,144.1782011790201 172.3016286343336,145.95007972116582 168.373023387976,148.22820740705356 158.9880219651386,152.02508221194148 157.67848688550293,153.03758117416874 157.24197519011796,155.3157023198437 158.33325442578644,163.6687952056527 159.2062778128311,166.45315322093666 160.51581289526075,167.97189263347536 162.6983713656664,168.98438505548984 168.59127923473716,170.25 170.11907016392797,170.25 171.42860524635762,169.7437541000545 175.13895464595407,166.70627652155235 175.79372218623757,162.65630060364492 176.23023388069123,161.8969293795526 178.1945365043357,160.3781862303149 181.250118361786,158.85944214696065 181.9048859020695,158.10006975522265 181.46837420854717,157.34069712972268 180.81360666826367,157.08757286914624 175.5754663394764,156.83444858295843" stroke="#4dd2ff" stroke-linecap="round" stroke-linejoin="round" stroke-width="0.5"><title>2023-04-06 2.2km</title></polyline><polyline fill="none" points="16.15067470446229,182.91820401349105 19.960226230323315,184.39093747688457 22.81738987378776,186.96821958431974 22.81738987378776,187.70458556106314 21.547539364546537,189.17731706099585 18.055450467392802,189.17731706099585 18.372913094237447,189.54549984214827 22.81738987378776,186.2318534576334 25.99201614409685,186.6000365400687 29.801567669957876,185.4954871777445 33.6111191958189,181.8136535200756 36.46828283928335,181.07728633540682 39.96037173829973,182.1818370553665 44.72231114283204,186.6000365400687 46.30962427891791,189.91368258465081 47.57947478629649,194.3318725565914 45.039773769676685,200.95914732245728 43.76992326043546,201.695510429563 34.88096970319748,201.695510429563 31.3888808041811,202.43187338742428 28.849179787561297,201.327328894753 23.769777754321694,195.43641920015216 17.737987838685513,192.85914317029528 16.15067470446229,189.91368258465081 17.737987838685513,187.33640259108506 20.595151484012604,186.2318534576334 26.309478770941496,186.2318534576334 33.928581822663546,181.8136535200756 36.46828283928335,181.07728633540682 39.64290910959244,181.8136535200756 41.23022224381566,182.91820401349105 45.992161652073264,188.07276849262416 46.9445495326072,190.28186529083177 47.57947478629649,193.96369026671164 47.26201216131449,197.64551146840677 46.30962427891791,199.48642065329477 43.45246063545346,200.95914732245728 38.37305860221386,200.95914732245728 29.801567669957876,202.06369192735292 18.055450467392802,192.12277825013734 17.737987838685513,191.38641318050213 18.372913094237447,189.54549984214827 25.039628261700273,184.75912074930966 36.15082021057606,181.44546994706616 40.59529699012637,182.55002055410296 45.67469902522862,187.70458556106314 46.30962427891791,188.80913424375467 47.26201216131449,194.70005480828695 46.9445495326072,198.01369338063523 45.039773769676685,200.59096571197733 41.54768487252295,201.695510429563 33.928581822663546,200.59096571197733 29.166642416268587,201.327328894753 27.26186665147543,200.222784063546 25.674553517252207,197.27732951869257 23.134852500632405,195.0682370236609 19.642763601616025,193.22732557356358 18.372913094237447,192.12277825013734 17.103062584996223,188.44095138716511 18.372913094237447,185.4954871777445 20.91261411085725,184.39093747688457 23.134852500632405,184.39093747688457 25.99201614409685,185.86367033678107 30.11903029680252,185.1273039826192 34.24604444950819,184.75912074930966 38.055595975369215,182.55002055410296 40.59529699012637,181.8136535200756 42.500072753056884,182.55002055410296 46.9445495326072,186.6000365400687 47.89693741500378,189.54549984214827 48.21440004184842,192.12277825013734 47.57947478629649,195.0682370236609 46.62708690576255,197.27732951869257 44.08738588914275,198.75005709240213 29.801567669957876,202.06369192735292 19.642763601616025,195.43641920015216 17.420525213703513,191.75459573301487 17.420525213703513,190.6500479578972 18.69037572108209,186.6000365400687 20.595151484012604,185.4954871777445 24.722165634855628,186.6000365400687 28.21425453387201,185.86367033678107 33.928581822663546,182.91820401349105 36.78574546426535,182.1818370553665 38.69052122719586,182.1818370553665 40.912759616971016,183.2863874360919 44.72231114283204,186.6000365400687 45.67469902522862,188.80913424375467 46.62708690576255,193.22732557356358 46.30962427891791,197.64551146840677 45.039773769676685,199.48642065329477 43.13499800674617,200.59096571197733 31.0714181791991,202.06369192735292 26.944404024630785,200.222784063546 19.642763601616025,195.0682370236609 18.055450467392802,193.59550794004463 17.420525213703513,192.12277825013734 17.420525213703513,189.91368258465081 18.69037572108209,184.75912074930966 20.27768885716796,184.02275416790508 23.769777754321694,184.39093747688457 25.674553517252207,183.65457082074136 32.65873131342232,179.23636771366 35.83335758373141,178.5 39.0079838540405,179.23636771366 43.76992326043546,182.91820401349105 45.357236398383975,185.86367033678107 45.992161652073264,190.6500479578972 44.72231114283204,195.80460133985616 42.18261012621224,197.64551146840677 36.78574546426535,198.38187525584362 31.3888808041811,198.38187525584362 28.849179787561297,197.27732951869257 26.309478770941496,196.54096550378017 21.865001991391182,194.70005480828695 19.960226230323315,193.22732557356358 19.32530097477138,191.01823058794253 19.960226230323315,188.07276849262416 21.230076737701893,186.2318534576334 25.357090890407562,187.70458556106314 30.436492923647165,187.33640259108506 34.88096970319748,181.07728633540682 36.46828283928335,180.34091899939813 39.0079838540405,181.07728633540682 44.08738588914275,184.75912074930966 46.30962427891791,187.70458556106314 47.57947478629649,191.01823058794253 47.57947478629649,194.70005480828695 46.9445495326072,196.90914752916433 45.67469902522862,198.38187525584362 43.13499800674617,199.48642065329477 31.0714181791991,200.95914732245728 29.166642416268587,200.59096571197733 26.944404024630785,198.75005709240213 25.674553517252207,199.11823889124207 20.27768885716796,197.27732951869257 17.737987838685513,194.3318725565914 16.468137331306934,190.6500479578972 16.468137331306934,188.07276849262416 18.055450467392802,186.6000365400687 19.642763601616025,186.2318534576334 23.45231512747705,186.6000365400687 28.21425453387201,185.1273039826192 32.34126868657768,184.39093747688457 36.78574546426535,181.8136535200756 39.96037173829973,182.91820401349105 44.404848515987396,188.07276849262416 45.67469902522862,192.12277825013734 45.992161652073264,196.90914752916433 45.67469902522862,198.75005709240213 44.404848515987396,200.59096571197733 42.500072753056884,201.327328894753 38.055595975369215,200.95914732245728 34.24604444950819,201.327328894753 25.99201614409685,206.48186695110053 25.357090890407562,208.32277160719968 25.99201614409685,216.42274088063277 26.944404024630785,217.52728073042817 28.531717160716653,218.63182023959234 33.928581822663546,218.26364044100046 37.738133346661925,219.0 39.96037173829973,218.63182023959234 45.992161652073264,215.31820069206879 48.84932529553771,214.58184037799947" stroke="#4dd2ff" stroke-linecap="round" stroke-linejoin="round" stroke-width="0.5"><title>2023-04-04 2.2km</title></polyline><polyline fill="none" points="72.78095127176493,200.93926510540769 71.60118909087032,200.66561666759662 71.12928421795368,201.2129135162104 70.65737934503704,202.03385857865214 71.12928421795368,203.40209978749044 72.07309396285564,203.40209978749044 78.44380974583328,197.92913074232638 88.3538120733574,194.37169484514743 89.297621820122,193.2770982303191 89.53357425518334,191.63520246674307 88.82571694534272,186.43585921963677 88.3538120733574,184.79395924741402 86.46619258262217,182.6047577143181 82.4550011632964,179.3209520468954 80.33142923563719,178.5 77.73595243692398,179.3209520468954 72.54499883577228,182.33110739663243 70.1854744721204,182.33110739663243 68.29785498138517,182.05745705030859 66.17428305372596,183.1520582663361 65.46642574481666,184.52030915417708 65.230473308824,185.34125935053453 65.70237818080932,185.88855934189633 69.71356959920377,189.17235692823306 73.72476101759821,194.09804573375732 77.02809512801468,195.7399399818387 83.39881090912968,195.7399399818387 89.53357425518334,194.6453439288307 90.7133364379406,193.55074742576107 90.24143156409264,192.1825011675246 90.00547912809998,189.17235692823306 87.6459547644481,185.88855934189633 84.81452552694827,184.2466590332333 78.67976218182594,183.42570849950425 73.96071345359087,184.2466590332333 70.65737934503704,183.97300888388418 67.3540452355519,180.1419038430322 64.99452087283134,179.04730139276944 63.57880625408143,179.3209520468954 63.34285381715745,179.59460267378017 63.34285381715745,180.68920489982702 66.17428305372596,183.69935870589688 69.47761716321111,186.43585921963677 73.48880858160555,194.37169484514743 76.32023781817406,196.8345355866477 78.9157146178186,198.476428152062 82.4550011632964,197.92913074232638 86.46619258262217,196.0135889253579 88.11785963643342,194.37169484514743 89.0616693822667,192.7297997546848 89.0616693822667,188.07775818067603 88.3538120733574,185.88855934189633 87.6459547644481,184.79395924741402 83.63476334605366,182.33110739663243 80.56738167256117,181.5101562740747 78.67976218182594,181.78380667651072 75.37642807234079,183.42570849950425 72.07309396285564,183.69935870589688 69.24166472721845,183.1520582663361 66.17428305372596,185.61490936018527 65.93833061680198,187.53045863984153 66.41023549064994,189.44600654556416 67.3540452355519,190.54060473036952 71.60118909087032,192.1825011675246 74.66857076250017,197.10818441724405 75.84833294525743,197.38183322083205 83.63476334605366,196.56088672787882 86.70214501861483,195.46629101014696 87.88190720044076,194.09804573375732 88.58976451028138,192.7297997546848 89.0616693822667,189.99330569338053 88.82571694534272,186.98315898608416 88.3538120733574,185.34125935053453 87.17404989246279,183.42570849950425 84.34262065496296,180.68920489982702 81.51119141839445,179.59460267378017 80.09547679964453,179.8682532729581 74.43261832743883,182.8784080047626 71.12928421795368,183.1520582663361 68.76975985337049,182.05745705030859 67.3540452355519,182.6047577143181 66.41023549064994,183.42570849950425 66.17428305372596,184.52030915417708 66.64618792571127,186.1622092940379 69.47761716321111,188.35140790999867 71.60118909087032,190.26695522549562 73.48880858160555,195.46629101014696 75.84833294525743,196.0135889253579 81.74714385531843,196.0135889253579 86.23024014569819,194.6453439288307 87.6459547644481,193.2770982303191 88.58976451028138,191.36155307479203 88.82571694534272,189.99330569338053 88.3538120733574,186.70950911636464 87.88190720044076,185.61490936018527 86.46619258262217,184.2466590332333 84.81452552694827,183.42570849950425 79.62357192765921,182.6047577143181 70.89333178196102,184.2466590332333 67.58999767247587,182.6047577143181 65.70237818080932,183.97300888388418 64.75856843590736,185.61490936018527 64.99452087283134,186.98315898608416 66.64618792571127,189.99330569338053 70.89333178196102,192.45615047519095 73.2528561456129,196.0135889253579 76.08428538125008,196.8345355866477 84.57857309188694,196.28723784023896 86.93809745460749,195.19264201121405 88.11785963643342,193.82439659372903 89.0616693822667,191.36155307479203 89.0616693822667,189.99330569338053 88.82571694534272,187.25680882669985 87.17404989246279,185.34125935053453 85.52238283678889,184.2466590332333 83.87071578204632,183.97300888388418 76.32023781817406,184.79395924741402 73.72476101759821,184.2466590332333 69.47761716321111,181.78380667651072 67.11809280049056,181.78380667651072 65.230473308824,182.6047577143181 67.58999767247587,186.70950911636464 71.36523665487766,190.54060473036952 73.01690370962024,194.09804573375732 75.14047563727945,194.91899298410863 82.92690603621304,195.7399399818387 88.58976451028138,194.6453439288307 89.53357425518334,193.00344900693744 90.00547912809998,190.54060473036952 89.0616693822667,186.70950911636464 86.46619258262217,184.52030915417708 82.92690603621304,183.1520582663361 74.66857076250017,183.69935870589688 69.47761716321111,181.78380667651072 67.82595010846853,181.78380667651072 65.46642574481666,182.8784080047626 65.230473308824,183.97300888388418 66.17428305372596,186.1622092940379 72.07309396285564,191.36155307479203 74.43261832743883,196.0135889253579 75.84833294525743,197.38183322083205 77.26404756400734,197.92913074232638 84.57857309188694,197.10818441724405 88.11785963643342,195.19264201121405 89.76952669210732,193.55074742576107 90.00547912809998,191.36155307479203 88.3538120733574,185.61490936018527 87.41000232845545,184.2466590332333 81.98309629131109,178.77365071047097 80.80333410855383,178.5 78.67976218182594,179.59460267378017 76.32023781817406,182.33110739663243 74.66857076250017,183.1520582663361 72.78095127176493,183.69935870589688 66.88214036356658,183.42570849950425 65.230473308824,184.2466590332333 65.93833061680198,185.88855934189633 67.3540452355519,187.25680882669985 71.60118909087032,190.81425420637242 74.43261832743883,194.91899298410863 75.14047563727945,195.46629101014696 76.79214269015938,196.0135889253579 80.56738167256117,196.56088672787882 84.57857309188694,198.2027794616297 88.3538120733574,198.2027794616297 89.53357425518334,197.65548199601471 90.94928887300193,193.00344900693744 90.7133364379406,189.71965613309294 90.00547912809998,187.80410842527635 87.41000232845545,183.97300888388418 83.16285847406834,182.05745705030859 77.73595243692398,181.78380667651072 72.54499883577228,182.05745705030859 70.42142690904438,181.5101562740747 69.00571229122579,181.5101562740747 67.58999767247587,182.05745705030859 65.230473308824,184.2466590332333 65.230473308824,185.34125935053453 65.93833061680198,186.70950911636464 68.53380741830915,188.89870728366077 72.30904639977962,191.36155307479203 75.14047563727945,195.7399399818387 77.02809512801468,196.56088672787882 80.80333410855383,196.28723784023896 83.63476334605366,196.8345355866477 85.99428770877421,196.56088672787882 88.11785963643342,196.0135889253579 89.0616693822667,195.19264201121405 89.76952669210732,193.55074742576107 90.24143156409264,189.17235692823306 89.0616693822667,187.25680882669985 87.17404989246279,185.61490936018527 81.74714385531843,183.42570849950425 79.85952436365187,183.1520582663361 74.19666589051485,183.97300888388418 69.47761716321111,182.8784080047626 68.53380741830915,183.1520582663361 66.17428305372596,185.61490936018527 65.93833061680198,187.25680882669985 67.3540452355519,188.89870728366077 71.12928421795368,192.1825011675246 72.78095127176493,195.7399399818387 73.01690370962024,197.10818441724405 71.60118909087032,199.29737405572087 71.60118909087032,202.58115514577366 73.48880858160555,208.3277623327449 75.84833294525743,209.69600031641312 78.44380974583328,209.9696478282567 84.10666821803898,208.87505761091597 88.58976451028138,208.6014099859167 90.47738400101662,209.69600031641312 91.4211937468499,211.06423759786412 91.4211937468499,211.88517962978221 90.24143156409264,213.80071005644277 85.28643040079623,215.98988600377925 82.21904872730374,218.17906015645713 79.85952436365187,219.0 78.44380974583328,218.72635341389105 76.08428538125008,217.631766786566 75.14047563727945,213.52706293715164 75.14047563727945,212.1588269181084 75.84833294525743,211.06423759786412 80.33142923563719,207.50681920722127 82.69095359928906,206.68587582791224 89.53357425518334,202.8548033873085 91.4211937468499,202.58115514577366 91.4211937468499,204.2230441761203 91.18524131085724,204.2230441761203 91.65714618284255,203.6757479449734 91.18524131085724,203.12845160160214 91.4211937468499,203.40209978749044" stroke="#ffd700" stroke-linecap="round" stroke-linejoin="round" stroke-width="0.5"><title>2023-04-01 3.2km</title></polyline><polyline fill="none" points="119.71966917067766,195.5255571261514 117.71783097460866,197.84721508133225 114.38143397960812,200.94275568891317 115.93841924425215,199.13702413020656 120.16452210396528,196.55740537075326 122.3887867666781,195.78351922682486 127.05974256061018,196.0414813007228 129.06158075667918,195.5255571261514 130.3961395546794,194.49370845849626 131.5082718860358,192.43000985356048 131.95312481932342,189.07649601064622 131.2858454203233,186.23890388407744 130.1737130889669,184.17519850935787 127.50459549296647,181.59556440962479 125.28033082932234,180.8216736635659 122.83363969996572,181.07963727228343 117.05055157560855,184.4331617737189 114.82628691196442,184.17519850935787 111.93474285118282,182.62741836719215 110.15533111989498,183.4013085567858 111.04503698460758,184.4331617737189 115.71599277760834,186.75482996366918 118.38511037267745,190.8822347894311 119.94209563732147,191.65612244047225 126.83731609396636,191.65612244047225 130.3961395546794,190.8822347894311 131.5082718860358,189.85038421768695 131.95312481932342,188.8185332233552 130.3961395546794,185.46501456713304 128.17187489196658,184.17519850935787 125.50275729503483,183.4013085567858 122.83363969996572,183.9172352179885 117.94025744032115,185.7229776987806 115.49356631096452,185.46501456713304 112.82444871496409,183.9172352179885 112.15716931596398,184.17519850935787 111.26746345125139,185.20705140870996 110.82261051796377,186.4968669367954 111.26746345125139,187.78668180434033 116.16084570996463,191.1401973660104 119.4972427058965,196.0414813007228 120.6093750372529,196.81536736548878 122.83363969996572,197.33129127626307 128.17187489196658,196.0414813007228 129.9512866223231,195.26759499916807 131.0634189536795,194.49370845849626 131.95312481932342,192.43000985356048 132.17555128596723,190.6242721863091 131.7306983517483,188.0446446989663 130.3961395546794,185.98094080435112 126.83731609396636,183.4013085567858 123.72334556560963,182.62741836719215 116.82812510896474,185.7229776987806 115.04871337953955,185.46501456713304 112.6020222492516,184.4331617737189 111.04503698460758,184.69112501107156 110.15533111989498,185.98094080435112 110.15533111989498,187.27075593639165 111.04503698460758,188.3026075665839 114.82628691196442,190.6242721863091 118.16268390696496,193.7198216803372 119.71966917067766,194.23574622510932 126.17003669403493,194.49370845849626 128.3943013586104,194.23574622510932 129.9512866223231,193.20389702916145 131.0634189536795,191.65612244047225 131.5082718860358,189.85038421768695 131.5082718860358,188.3026075665839 131.0634189536795,187.27075593639165 128.3943013586104,184.94908822327852 125.05790436360985,183.9172352179885 117.94025744032115,184.94908822327852 113.71415458060801,184.4331617737189 111.48988991696388,185.46501456713304 111.04503698460758,186.4968669367954 111.04503698460758,187.52871888387017 111.93474285118282,189.07649601064622 115.71599277760834,191.91408493858762 118.38511037267745,195.26759499916807 119.4972427058965,196.0414813007228 121.4990809019655,196.55740537075326 127.50459549296647,196.29944334900938 130.6185660213232,195.00963284540921 131.5082718860358,193.9777839658782 132.17555128596723,192.17204740899615 132.39797775167972,190.6242721863091 131.7306983517483,187.52871888387017 129.06158075667918,183.9172352179885 127.05974256061018,182.62741836719215 124.39062496367842,181.85352793894708 117.49540450889617,184.94908822327852 115.27113984525204,185.20705140870996 112.6020222492516,184.69112501107156 110.82261051796377,184.69112501107156 110.37775758560747,185.20705140870996 110.60018405131996,186.4968669367954 111.48988991696388,188.0446446989663 114.15900751296431,190.6242721863091 116.38327217567712,194.23574622510932 118.16268390696496,196.0414813007228 121.72150736767799,197.84721508133225 125.50275729503483,197.58925319160335 129.06158075667918,196.0414813007228 131.2858454203233,193.461859367555 131.95312481932342,191.1401973660104 131.95312481932342,184.4331617737189 126.83731609396636,182.36945491703227 123.0560661656782,181.85352793894708 117.71783097460866,184.69112501107156 112.15716931596398,184.94908822327852 110.37775758560747,185.98094080435112 109.93290465325117,187.01279296400025 110.60018405131996,188.3026075665839 113.71415458060801,190.3663095573429 116.38327217567712,193.9777839658782 117.49540450889617,194.7516706653405 123.27849263232201,195.5255571261514 127.50459549296647,195.26759499916807 129.284007223323,194.49370845849626 130.3961395546794,193.20389702916145 131.2858454203233,191.39815991697833 131.5082718860358,189.59242150909267 130.6185660213232,187.52871888387017 126.17003669403493,183.4013085567858 124.61305143032223,183.14334518648684 123.0560661656782,183.4013085567858 116.82812510896474,185.7229776987806 114.82628691196442,185.46501456713304 112.15716931596398,183.9172352179885 111.26746345125139,184.4331617737189 110.60018405131996,185.98094080435112 111.04503698460758,188.8185332233552 112.3795957826078,190.8822347894311 116.82812510896474,192.9459346642252 119.94209563732147,195.78351922682486 120.83180150389671,196.0414813007228 124.39062496367842,195.00963284540921 128.61672782339156,194.7516706653405 130.1737130889669,193.9777839658782 131.5082718860358,192.43000985356048 132.17555128596723,190.10834690043703 132.39797775167972,188.0446446989663 131.95312481932342,185.20705140870996 131.2858454203233,183.6592719007749 129.9512866223231,182.11149144126102 128.3943013586104,180.8216736635659 126.17003669403493,180.5637100294698 124.16819849703461,181.07963727228343 119.4972427058965,184.94908822327852 117.94025744032115,185.7229776987806 115.93841924425215,185.7229776987806 113.4917281139642,184.69112501107156 111.48988991696388,184.94908822327852 110.60018405131996,185.7229776987806 110.60018405131996,186.75482996366918 111.04503698460758,189.07649601064622 111.71231638360769,190.10834690043703 115.71599277760834,191.65612244047225 118.16268390696496,195.26759499916807 120.16452210396528,196.0414813007228 127.72702195867896,195.5255571261514 129.72886015474796,195.00963284540921 131.0634189536795,193.7198216803372 131.95312481932342,191.1401973660104 131.7306983517483,189.33445877279155 130.3961395546794,187.52871888387017 127.94944842439145,185.98094080435112 124.39062496367842,185.20705140870996 117.94025744032115,186.4968669367954 113.26930164918303,185.7229776987806 111.48988991696388,186.4968669367954 111.04503698460758,188.0446446989663 111.48988991696388,189.33445877279155 112.6020222492516,190.3663095573429 117.71783097460866,192.9459346642252 119.4972427058965,195.78351922682486 121.05422796867788,197.07332933461294 122.3887867666781,197.33129127626307 128.61672782339156,195.78351922682486 130.3961395546794,194.23574622510932 131.0634189536795,192.9459346642252 131.2858454203233,190.3663095573429 131.0634189536795,185.20705140870996 130.6185660213232,183.14334518648684 129.72886015474796,181.85352793894708 125.94761022832245,178.75796384573914 124.83547789603472,178.5 123.94577203132212,179.01592766516842 119.94209563732147,182.88538178964518 117.49540450889617,184.4331617737189 115.71599277760834,184.69112501107156 113.0468751816079,184.4331617737189 111.93474285118282,184.94908822327852 110.82261051796377,185.98094080435112 110.37775758560747,187.27075593639165 110.37775758560747,188.3026075665839 111.26746345125139,189.59242150909267 115.93841924425215,192.43000985356048 117.71783097460866,195.78351922682486 117.94025744032115,198.10517694451846 115.93841924425215,200.42683251900598 115.71599277760834,202.74848595121875 116.60569864232093,205.32809836417437 117.71783097460866,207.13382547954097 120.83180150389671,208.165668962989 126.17003669403493,207.64974727435037 130.84099248796701,208.42362976819277 132.84283068496734,209.4554727235809 134.84466888103634,212.03507826058194 135.06709534768015,213.3248800362926 134.84466888103634,214.35672098235227 133.06525715067983,215.90448160655797 126.17003669403493,218.7420402788557 122.83363969996572,219.0 120.83180150389671,218.48408053140156 118.82996330689639,216.9363214939367 117.94025744032115,213.58284031273797 118.16268390696496,211.7771178255789 120.16452210396528,208.9395512987394 122.3887867666781,208.165668962989 127.05974256061018,208.68159054708667 130.84099248796701,205.0701372420881 133.95496301632375,204.29625371610746" stroke="#ffda00" stroke-linecap="round" stroke-linejoin="round" stroke-width="0.5"><title>2023-03-31 3.1km</title></polyline><polyline fill="none" points="165.50352112576365,207.18487563589588 164.93309859000146,209.16953720105812 161.22535211220384,212.14652726007625 158.37323943525553,212.8080802327022 155.52112676016986,212.47730376315303 155.23591549135745,211.81575072207488 158.08802816830575,207.5156526484061 162.93661971762776,203.54632626241073 164.93309859000146,202.8847713896539 171.77816901355982,201.8924388261512 174.9154929574579,199.9077727852855 176.34154929593205,196.9307714337483 176.62676056288183,193.6229889334645 176.05633802711964,189.65364545513876 174.63028168864548,186.34585549356416 173.4894366171211,184.69195924163796 169.21126760356128,181.71494385018013 164.0774647872895,180.72260477533564 162.93661971762776,181.38416419317946 160.08450704067945,185.02273855917156 157.51760563254356,187.00741375773214 152.95422535203397,188.66130882268772 147.82042253389955,191.9690964105539 149.8169014081359,194.61532404040918 155.80633802711964,197.5923275265377 160.94014084525406,201.8924388261512 162.651408450678,202.22321638162248 171.20774647779763,201.2308836155571 176.34154929593205,199.57699499255978 177.4823943655938,197.26154949725606 176.9119718298316,192.96143202506937 174.3450704216957,189.32286661164835 164.36267605610192,185.6842970943544 158.08802816830575,187.3381928380113 154.6654929574579,187.00741375773214 152.66901408322155,186.34585549356416 149.2464788723737,187.6689718856942 149.2464788723737,189.32286661164835 150.10211267508566,190.9767604903318 156.94718309864402,197.26154949725606 160.36971830949187,202.8847713896539 162.93661971762776,204.53865831741132 165.21830985881388,204.53865831741132 173.20422535203397,201.8924388261512 176.62676056288183,198.91543930699117 178.05281690135598,196.26921520475298 176.9119718298316,189.98442426533438 173.20422535203397,188.992087733699 170.0669014081359,185.02273855917156 165.21830985881388,184.36117988848127 162.93661971762776,184.69195924163796 156.6619718298316,187.6689718856942 151.8133802805096,187.3381928380113 148.6760563366115,189.65364545513876 150.10211267508566,191.63831780478358 154.6654929574579,193.95376733574085 156.6619718298316,195.9384370399639 158.6584507022053,199.2462171667721 160.08450704067945,200.56932826829143 163.50704225338995,201.2308836155571 170.92253521084785,200.56932826829143 172.348591549322,199.9077727852855 174.63028168864548,197.9231055234559 176.62676056288183,193.29221049603075 176.9119718298316,191.63831780478358 175.77112676016986,187.00741375773214 175.48591549135745,183.36884162854403 174.3450704216957,182.7072826186195 168.07042253389955,182.7072826186195 161.79577464796603,186.67663464322686 158.08802816830575,187.6689718856942 156.09154929593205,187.3381928380113 152.098591549322,185.35351784387603 151.24295774661005,186.34585549356416 148.96126760356128,190.31520304153673 151.52816901355982,192.96143202506937 156.6619718298316,195.27688060724176 158.6584507022053,198.25388348498382 159.5140845067799,200.56932826829143 160.65492957644165,201.56166123785079 168.35563380271196,201.8924388261512 172.91901408322155,200.90010595903732 174.63028168864548,199.9077727852855 175.48591549135745,199.2462171667721 176.62676056288183,196.26921520475298 176.9119718298316,194.2845457047224 176.34154929593205,191.9690964105539 174.3450704216957,189.65364545513876 172.0633802805096,187.9997508993838 168.07042253389955,186.34585549356416 165.21830985881388,185.6842970943544 157.80281690135598,187.6689718856942 153.8098591528833,186.34585549356416 150.10211267508566,187.6689718856942 150.95774647779763,189.32286661164835 152.66901408322155,191.30753916408867 157.2323943655938,194.94610234024003 160.08450704067945,200.23855054401793 161.22535211220384,201.2308836155571 163.79225351847708,202.55399390286766 171.20774647779763,201.8924388261512 175.77112676016986,199.9077727852855 176.9119718298316,195.6076588400174 175.77112676016986,190.9767604903318 172.0633802805096,187.6689718856942 171.20774647779763,185.6842970943544 165.50352112576365,184.69195924163796 159.5140845067799,187.3381928380113 156.94718309864402,187.6689718856942 153.52464788593352,187.3381928380113 151.8133802805096,186.34585549356416 150.38732394203544,188.66130882268772 149.2464788723737,191.63831780478358 150.38732394203544,194.61532404040918 155.80633802711964,196.9307714337483 158.94366196915507,200.90010595903732 160.08450704067945,201.8924388261512 163.79225351847708,202.55399390286766 168.9260563366115,202.55399390286766 173.20422535203397,201.2308836155571 175.77112676016986,198.58466141251847 176.05633802711964,196.9307714337483 175.77112676016986,194.2845457047224 173.4894366171211,189.98442426533438 169.21126760356128,187.9997508993838 164.93309859000146,186.67663464322686 158.94366196915507,187.9997508993838 152.95422535203397,185.35351784387603 150.95774647779763,186.34585549356416 147.53521126694977,186.67663464322686 147.53521126694977,187.9997508993838 149.8169014081359,190.31520304153673 156.6619718298316,193.6229889334645 157.51760563254356,195.6076588400174 158.94366196915507,200.90010595903732 160.65492957644165,202.22321638162248 166.6443661954254,201.56166123785079 171.20774647779763,201.8924388261512 175.48591549135745,199.9077727852855 176.9119718298316,196.9307714337483 177.19718309864402,194.94610234024003 174.9154929574579,189.32286661164835 170.92253521084785,187.00741375773214 166.9295774642378,186.01507631107233 158.08802816830575,187.6689718856942 152.95422535203397,187.00741375773214 150.95774647779763,187.6689718856942 148.6760563366115,189.98442426533438 149.2464788723737,191.9690964105539 151.52816901355982,193.95376733574085 154.6654929574579,195.9384370399639 158.6584507022053,201.8924388261512 159.79929577372968,202.55399390286766 170.0669014081359,202.22321638162248 174.63028168864548,200.56932826829143 176.34154929593205,196.26921520475298 176.05633802711964,190.9767604903318 176.62676056288183,187.9997508993838 172.63380281627178,185.02273855917156 165.21830985881388,182.7072826186195 164.36267605610192,183.03806214104407 162.36619718186557,186.01507631107233 158.6584507022053,187.3381928380113 153.8098591528833,187.00741375773214 151.52816901355982,185.6842970943544 149.53169013932347,186.67663464322686 147.25,187.00741375773214 147.53521126694977,189.32286661164835 149.2464788723737,192.96143202506937 149.8169014081359,193.29221049603075 151.24295774661005,192.6306535222102 154.95070422440767,193.6229889334645 156.6619718298316,196.26921520475298 159.5140845067799,201.56166123785079 161.5105633791536,202.8847713896539 170.35211267508566,202.8847713896539 174.05985915474594,200.90010595903732 176.34154929593205,197.9231055234559 176.34154929593205,194.61532404040918 175.77112676016986,191.63831780478358 174.9154929574579,190.31520304153673 172.63380281627178,187.9997508993838 169.4964788723737,186.67663464322686 164.6478873230517,187.00741375773214 155.80633802711964,189.65364545513876 154.0950704216957,188.992087733699 152.098591549322,187.00741375773214 148.96126760356128,188.992087733699 148.96126760356128,190.645981782116 149.53169013932347,191.9690964105539 153.23943661898375,193.95376733574085 156.6619718298316,197.5923275265377 157.2323943655938,202.22321638162248 156.09154929593205,203.87710364721715 154.0950704216957,205.8617672470864 153.52464788593352,207.18487563589588 154.95070422440767,210.82342090527527 155.23591549135745,212.14652726007625 157.51760563254356,216.11584306531586 159.79929577372968,216.77739522466436 163.79225351847708,216.446619162336 180.61971830949187,214.46196207311004 185.46830985881388,213.80040943901986 187.75,212.8080802327022 186.03873239271343,212.14652726007625 183.18661971762776,211.81575072207488" stroke="#ffdc00" stroke-linecap="round" stroke-linejoin="round" stroke-width="0.5"><title>2023-03-30 3.1km</title></polyline><polyline fill="none" points="12.535211266949773,256.59655635873787 12.606514084152877,256.59655635873787 12.749119717627764,256.5138620886719 13.390845070127398,256.59655635873787 14.103873238898814,257.0927218008437 15.102112675551325,256.5138620886719 15.95774647872895,256.5138620886719 16.884683098178357,256.67925062024733 18.09683098550886,256.59655635873787 20.164612676016986,256.10039061127463 21.80457746423781,256.017696290568 22.446302816271782,255.6869189221179 22.58890845021233,255.1080582010327 22.58890845021233,253.61955729633337 21.80457746423781,251.6348851507064 21.162852112203836,248.49247759906575 20.44982394343242,247.16935496742371 18.453345070127398,244.6057986919186 18.168133802711964,243.9442344593699 18.239436619449407,243.28266968438402 19.808098591398448,241.6287553726579 21.661971830762923,240.14022959204158 26.225352112203836,237.6593471871456 29.647887323517352,236.17081408086233 36.77816901355982,235.01306421024492 40.628521126229316,234.02070585539332 43.83714788686484,232.69755948329112 44.692781690042466,232.69755948329112 45.33450704207644,233.276436288259 46.617957746610045,234.9303677274147 48.970950704067945,238.65170106489677 50.111795774661005,241.04988456214778 51.03873239411041,242.53840866376413 51.39524647872895,243.53075653861742 52.464788732118905,245.59814402315533 52.60739436605945,246.50779283756856 52.464788732118905,247.665526208526 52.03697183076292,248.32708738883957 51.39524647872895,249.07134306791704 49.541373238898814,250.3117676738184 48.04401408461854,251.05602152168285 44.9779929574579,251.8829694361193 41.62676056288183,252.79261116246926 38.632042253389955,253.0406950918259 33.783450704067945,253.9503355124616 31.14524647872895,254.19841908558737 24.51408450677991,255.60422455862863 23.444542253389955,255.52153018699028 22.94542253483087,255.1080582010327 22.517605633474886,254.19841908558737 20.877640844788402,248.57517269160599 19.522887323517352,246.2597068991745 18.52464788686484,245.2673623818555 18.239436619449407,244.6884941830067 18.239436619449407,244.19232111028396 18.66725352080539,243.44806092884392 19.594190140720457,242.37301723263226 21.23415492940694,240.71910105558345 22.303697182796896,239.80944571248256 25.86883802805096,237.82473958469927 29.22007042216137,236.58429577498464 34.06866197148338,235.59193935326766 36.20774647872895,235.42654649785254 40.48591549275443,234.5168851854396 41.48415492940694,234.18609899951844 44.05105633754283,232.8629528983729 44.76408450677991,232.8629528983729 45.19190140860155,233.276436288259 46.40404929546639,234.7649747361429 47.54489436605945,236.8323846895364 48.970950704067945,238.81709325913107 49.89788732351735,240.80179694504477 50.96742957690731,242.53840866376413 52.75,246.09431623091223 52.678697182796896,248.16169714462012 52.32218309864402,248.8232579177129 51.537852112203836,249.4021231494262 49.39876760542393,250.47715747688198 48.47183098597452,251.22141117224237 47.75880281673744,251.4694955846644 43.19542253483087,252.37913777760696 41.91197183076292,252.79261116246926 36.42165492940694,253.53686272131745 35.138204224873334,253.9503355124616 32.28609154885635,254.44650258251932 29.505281690042466,254.61189153802115 24.086267605423927,255.76961327681784 23.016725352033973,256.4311678100494 21.80457746423781,257.5061927693896 19.30897887283936,258.49852222949266 18.382042252924293,258.41582815436414 18.168133802711964,258.58121629594825 18.09683098550886,258.8292984450236 18.595950704067945,259.90432020806475 18.453345070127398,260.31778973533073 17.811619718093425,260.8966467176215 17.027288732118905,261.31011573650176 15.60123239364475,262.3024405167089 14.888204225338995,262.3024405167089 14.03257042216137,261.97166572563583 13.462147886864841,260.97934053844074 12.963028168305755,259.90432020806475 12.25,259.07738051738124 12.677816901355982,258.9119924775441 14.175176056101918,258.7466044037137 14.38908450677991,258.8292984450236 14.531690140254796,259.07738051738124 14.959507042076439,259.32546251348685" stroke="#4dd2ff" stroke-linecap="round" stroke-linejoin="round" stroke-width="0.5"><title>2023-03-28 2.9km</title></polyline></svg>