<?xml version="1.0" encoding="utf-8" ?>
<svg baseProfile="full" height="300mm" version="1.1" viewBox="0,0,200,300" width="200mm" xmlns="http://www.w3.org/2000/svg" xmlns:ev="http://www.w3.org/2001/xml-events" xmlns:xlink="http://www.w3.org/1999/xlink"><defs /><rect fill="#222222" height="300" width="200" x="0" y="0" /><text fill="#FFFFFF" style="font-size:12px; font-family:Arial; font-weight:bold;" x="10" y="20">Over 2km Workouts</text><text fill="#FFFFFF" style="font-size:4px; font-family:Arial" x="10" y="280">ATHLETE</text><text fill="#FFFFFF" style="font-size:9px; font-family:Arial" x="10" y="290">Koobai</text><text fill="#FFFFFF" style="font-size:4px; font-family:Arial" x="120" y="280">STATISTICS</text><text fill="#FFFFFF" style="font-size:3px; font-family:Arial" x="120" y="285">Number: 7</text><text fill="#FFFFFF" style="font-size:3px; font-family:Arial" x="120" y="290">Weekly: 3.5</text><text fill="#FFFFFF" style="font-size:3px; font-family:Arial" x="141" y="285">Total: 20.7 km</text><text fill="#FFFFFF" style="font-size:3px; font-family:Arial" x="141" y="290">Avg: 3.0 km</text><text fill="#FFFFFF" style="font-size:3px; font-family:Arial" x="167" y="285">Min: 2.2 km</text><text fill="#FFFFFF" style="font-size:3px; font-family:Arial" x="167" y="290">Max: 4.1 km</text><polyline fill="none" points="22.272955542313866,44.47107529619825 21.82020195107907,44.551856332225725 20.84504036977887,45.56161788641475 17.640938031719998,47.540743025485426 17.60611083242111,48.671667213056935 17.431974835693836,49.35829817168997 17.675765231018886,50.085317882709205 18.024037224357016,50.731556499464205 18.825062808929943,51.90286129101878 19.765397190698422,53.437669195467606 21.959510748274624,57.274662801704835 22.969499528873712,59.374896110384725 23.700870714732446,60.586564081168035 23.87500671145972,61.35395186880487 25.233267485164106,62.767557039274834 26.487046660855412,64.90814950101776 27.392553843325004,66.88717746984912 27.880134633975103,67.61416483987705 29.16874100919813,69.43162739725085 30.666310580214486,71.7337346035929 31.328027367475443,73.10691495484207 32.686288141296245,75.36861333795241 32.75594254001044,75.65132472314872 32.686288141296245,75.97442320096889 33.94006731710397,77.26681446249131 38.53725762828253,85.2633911529847 38.78104802360758,85.78841323935194 38.88552962162066,86.39420708519174 39.37311041227076,87.0 39.54724640888162,87.0 42.472731152316555,84.4152770745277 43.27375673688948,83.60754768396146 46.12958708172664,81.3458965831378 47.94060144666582,80.13429244043073 51.49297577829566,77.18604013288859 52.43331016006414,76.58023213248816 54.4532877211459,74.8435773702513 56.36878368409816,73.38962796260603 59.677367620170116,70.36054946732474 61.07045559328981,68.78541944839526 61.45355478581041,68.421927011339 62.01078997529112,67.73532927123597 62.25458037038334,66.88717746984912 62.49837076570839,65.31203356722835 62.56802516442258,64.5042650209507 62.49837076570839,64.18115713875159 60.82666519796476,61.03084140349529 58.98082363361027,58.122835293237586 56.612574079306796,53.7203963152715 56.02051169076003,52.751045345677994 54.3488061230164,49.762198176729726 53.26916294405237,47.985035057819914 52.32882856205106,46.08669287181692 51.24918538285419,44.43068477199995 50.55264139629435,43.05740448299912 49.4729982172139,41.19942941435147 46.44303187553305,35.706234485900495 45.32856149727013,33.92900796374306 44.94546230463311,33.52509172700229 44.07478232134599,33.16156675975071 43.06479354086332,33.0 42.54238555091433,33.04039169609314 41.74135996645782,33.3231334532029 38.15415843576193,35.50427733035758 34.427648107521236,37.64501791229122 33.59179532376584,38.25088577638962 31.74595375941135,39.381836629792815 27.497035441338085,41.805291812488576 24.571550698019564,43.29974841122748 23.59638911660295,43.9459981576656 23.10880832618568,44.147950986051 22.725709133548662,44.22873208846431" stroke="#ff0000" stroke-linecap="round" stroke-linejoin="round" stroke-width="0.5"><title>2023-04-09 4.1km</title></polyline><polyline fill="none" points="145.74061799421906,54.60010629496537 146.0316257905215,58.98761056805961 146.0316257905215,66.75010380311869 148.65069595351815,63.0376093222294 152.4337973035872,60.00011072354391 155.0528674684465,58.98761056805961 162.03705457039177,57.6376098759938 166.1111637149006,54.93760683084838 167.5662026964128,50.887598112691194 167.5662026964128,47.17508574179374 166.69317930936813,44.13757250783965 164.9471325315535,41.77506027533673 162.9100779592991,40.087550500640646 160.29100779630244,39.07504422077909 158.54496102035046,39.07504422077909 156.50790644809604,39.41254634852521 149.8147271387279,42.45006394316442 143.41255562752485,42.45006394316442 142.2485244423151,43.80007086391561 141.3755010534078,46.50008304370567 141.66650885157287,48.86259188433178 144.28557901456952,52.2376015719492 154.17984407953918,58.650110446382314 166.98418710380793,54.262605724390596 169.60325726866722,54.262605724390596 168.7302338797599,52.2376015719492 167.5662026964128,50.887598112691194 165.23814032785594,49.53759409766644 162.6190701648593,48.86259188433178 159.41798440739512,48.525090724695474 151.85178171284497,48.86259188433178 146.32263358682394,47.85008830251172 140.79348546266556,48.187589530600235 144.8675946071744,49.53759409766644 149.52371934242547,54.262605724390596 152.14278950728476,54.93760683084838 162.32806236855686,54.93760683084838 166.69317930936813,53.587604478001595 168.14821828901768,52.57510234997608 168.43922608345747,50.887598112691194 167.85721049271524,46.1625816419255 168.14821828901768,46.50008304370567 167.85721049271524,45.82508020545356 162.6190701648593,42.78756572585553 159.41798440739512,42.112562126712874 158.25395322404802,42.112562126712874 153.01581289432943,44.475074116373435 151.85178171284497,44.13757250783965 148.06868036463857,38.73754205740988 148.06868036463857,37.38753306213766 148.65069595351815,37.05003072577529 152.14278950728476,35.36251852917485 159.1269766110927,33.0 162.6190701648593,33.0 164.07410914450884,34.350010795053095 164.9471325315535,35.70002103713341 164.9471325315535,39.75004844227806 161.45503897964954,48.187589530600235 158.25395322404802,53.25010380335152 155.63488305918872,53.92510511772707 151.26976611837745,49.53759409766644 146.32263358682394,46.837584409164265 144.8675946071744,46.837584409164265 143.12154783122241,47.51258703903295 141.3755010534078,49.53759409766644 140.79348546266556,50.55009716050699 141.66650885157287,50.887598112691194 146.32263358682394,50.55009716050699 147.77767256647348,52.2376015719492 148.35968815907836,57.6376098759938 146.90464917942882,62.36260987515561 146.90464917942882,68.43759991019033 148.06868036463857,70.80009300704114 150.39674273133278,72.15008830139413 152.4337973035872,72.82508574100211 163.49209355190396,71.47509072325192 169.02124167606235,72.82508574100211 171.64031184092164,74.85007722955197 173.38635861687362,77.88756212592125 172.80434302426875,80.92504421900958 171.64031184092164,82.27503536222503 160.0,85.65001079509966 155.63488305918872,84.63751852861606 153.5978284869343,83.28752835420892 151.85178171284497,80.58754634740762 149.52371934242547,78.22506027412601 148.35968815907836,74.85007722955197 148.35968815907836,71.47509072325192 150.68775052763522,65.06260683014989 150.39674273133278,62.36260987515561 148.94170375168324,60.00011072354391 143.7035634238273,54.262605724390596 142.2485244423151,51.225099028553814 142.2485244423151,48.187589530600235 143.41255562752485,45.48757873498835 145.74061799421906,42.78756572585553 152.72480509988964,40.76255451468751 160.0,37.05003072577529 162.9100779592991,37.05003072577529 166.1111637149006,38.06253762869164 168.14821828901768,40.087550500640646 169.02124167606235,42.112562126712874 168.7302338797599,48.187589530600235 167.27519490011036,51.9001007580664 165.23814032785594,53.92510511772707 163.20108575560153,54.93760683084838 153.3068206924945,57.97511010058224 151.26976611837745,58.312610290246084 149.23271154798567,56.9626093225088 145.74061799421906,52.912603094708174 142.53953223861754,50.887598112691194 141.3755010534078,48.86259188433178 141.9575166478753,45.82508020545356 143.99457121826708,43.46256918483414 154.17984407953918,37.72503536264412 156.50790644809604,37.05003072577529 160.58201559074223,37.38753306213766 165.23814032785594,38.73754205740988 167.85721049271524,40.76255451468751 169.02124167606235,43.12506747292355 169.31224947422743,46.50008304370567 169.02124167606235,48.86259188433178 167.85721049271524,52.2376015719492 166.40217151120305,54.60010629496537 161.1640311833471,57.6376098759938 148.65069595351815,62.700109615921974 146.90464917942882,64.05010823230259 146.32263358682394,67.08760309335776 147.77767256647348,78.22506027412601 148.94170375168324,81.93753762799315 150.68775052763522,83.9625235113781 153.5978284869343,85.31251340731978 161.45503897964954,87.0 163.49209355190396,87.0 165.23814032785594,86.32500546681695 170.1852728612721,82.27503536222503 171.05829624831676,76.87506747152656 171.64031184092164,75.86257250607014 174.25938200578094,73.83758164057508 178.33349115028977,71.81258952943608 179.20651453733444,70.80009300704114 178.62449894472957,69.7875961731188 177.7514755576849,69.45009715901688 170.76728845201433,69.11259811092168" stroke="#4dd2ff" stroke-linecap="round" stroke-linejoin="round" stroke-width="0.5"><title>2023-04-06 2.2km</title></polyline><polyline fill="none" points="18.200899604707956,98.89093868480995 23.280301639810205,100.85458330251276 27.08985316567123,104.29095944575965 27.08985316567123,105.27278074808419 25.396719152107835,107.23642274783924 20.740600621327758,107.23642274783924 21.16388412564993,107.72733312286437 27.08985316567123,103.30913794366643 31.32268819026649,103.80004872009158 36.40209022536874,102.32731623668224 41.481492260470986,97.41820469358936 45.291043784469366,96.43638178054243 49.94716231524944,97.90911607351154 56.29641485773027,103.80004872009158 58.4128323700279,108.21824344620109 60.10596638172865,114.10916340863332 56.719698360189795,122.94552976312116 55.0265643466264,123.9273472391069 43.17462627030909,123.9273472391069 38.518507739529014,124.90916451625526 35.132239716127515,123.43643852649257 28.359703671187162,115.58189226686954 20.317317117005587,112.14552422706038 18.200899604707956,108.21824344620109 20.317317117005587,104.78187012113631 24.12686864286661,103.30913794366643 31.74597169458866,103.30913794366643 41.90477576293051,97.41820469358936 45.291043784469366,96.43638178054243 49.52387881278992,97.41820469358936 51.64029632508755,98.89093868480995 57.989548867568374,105.76369132334366 59.2593993768096,108.70915372110903 60.10596638172865,113.61825368879363 59.68268288113177,118.52734862454236 58.4128323700279,120.98189420439303 54.60328084602952,122.94552976312116 47.83074480108917,122.94552976312116 36.40209022536874,124.41825590282679 20.740600621327758,111.16370433336124 20.317317117005587,110.18188424082473 21.16388412564993,107.72733312286437 30.052837682887912,101.34549433225766 44.867760280147195,96.9272932629101 50.793729320168495,98.40002740547061 57.56626536510885,105.27278074808419 58.4128323700279,106.745512324851 59.68268288113177,114.60007307771593 59.2593993768096,119.01825784053653 56.719698360189795,122.45462094945833 52.06357982940972,123.9273472391069 41.90477576293051,122.45462094945833 35.555523220449686,123.43643852649257 33.01582220196724,121.96371208457276 30.89940468966961,118.03643935825676 27.51313666626811,115.09098269836977 22.857018135488033,112.63643409823999 21.16388412564993,111.16370433336124 19.47075011394918,106.25460184924304 21.16388412564993,102.32731623668224 24.550152147188783,100.85458330251276 27.51313666626811,100.85458330251276 31.32268819026649,102.81822711555287 36.825373727828264,101.83640530984849 42.32805926352739,101.34549433225766 47.40746129862964,98.40002740547061 50.793729320168495,97.41820469358936 53.3334303367883,98.40002740547061 59.2593993768096,103.80004872009158 60.52924988605082,107.72733312286437 60.952533388510346,111.16370433336124 60.10596638172865,115.09098269836977 58.836115872487426,118.03643935825676 55.44984785094857,120.00007612304762 36.40209022536874,124.41825590282679 22.857018135488033,115.58189226686954 19.894033616408706,110.67279431084171 19.894033616408706,109.20006394386292 21.58716762624681,103.80004872009158 24.12686864286661,102.32731623668224 29.62955417856574,103.80004872009158 34.28567271307111,102.81822711555287 41.90477576293051,98.89093868480995 45.71432728692889,97.90911607351154 48.254028303548694,97.90911607351154 51.21701282262802,99.3818499147892 56.29641485773027,103.80004872009158 57.56626536510885,106.745512324851 58.836115872487426,112.63643409823999 58.4128323700279,118.52734862454236 56.719698360189795,120.98189420439303 54.17999734170735,122.45462094945833 38.09522423893213,124.41825590282679 32.59253869950771,121.96371208457276 22.857018135488033,115.09098269836977 20.740600621327758,113.1273439200595 19.894033616408706,111.16370433336124 19.894033616408706,108.21824344620109 21.58716762624681,101.34549433225766 23.70358514226973,100.36367222387344 28.359703671187162,100.85458330251276 30.89940468966961,99.87276109447703 40.21164175122976,93.98182361805812 44.44447677768767,93.0 48.67731180600822,93.98182361805812 55.0265643466264,98.89093868480995 57.14298186264932,102.81822711555287 57.989548867568374,109.20006394386292 56.29641485773027,116.07280178647488 52.91014683432877,118.52734862454236 45.71432728692889,119.50916700763628 38.518507739529014,119.50916700763628 35.132239716127515,118.03643935825676 31.74597169458866,117.05462067155167 25.82000265456736,114.60007307771593 23.280301639810205,112.63643409823999 22.433734633028507,109.6909741172567 23.280301639810205,105.76369132334366 24.97343564964831,103.30913794366643 30.476121187210083,105.27278074808419 37.24865723028779,104.78187012113631 43.17462627030909,96.43638178054243 45.291043784469366,95.45455866586417 48.67731180600822,96.43638178054243 55.44984785094857,101.34549433225766 58.4128323700279,105.27278074808419 60.10596638172865,109.6909741172567 60.10596638172865,114.60007307771593 59.2593993768096,117.54553003888577 57.56626536510885,119.50916700763628 54.17999734170735,120.98189420439303 38.09522423893213,122.94552976312116 35.555523220449686,122.45462094945833 32.59253869950771,120.00007612304762 30.89940468966961,120.49098518816754 23.70358514226973,118.03643935825676 20.317317117005587,114.10916340863332 18.624183107167482,109.20006394386292 18.624183107167482,105.76369132334366 20.740600621327758,103.80004872009158 22.857018135488033,103.30913794366643 27.936420168727636,103.80004872009158 34.28567271307111,101.83640530984849 39.78835824690759,100.85458330251276 45.71432728692889,97.41820469358936 49.94716231524944,98.89093868480995 55.87313135527074,105.76369132334366 57.56626536510885,111.16370433336124 57.989548867568374,117.54553003888577 57.56626536510885,120.00007612304762 55.87313135527074,122.45462094945833 53.3334303367883,123.43643852649257 47.40746129862964,122.94552976312116 42.32805926352739,123.43643852649257 31.32268819026649,130.30915593449026 30.476121187210083,132.76369547611102 31.32268819026649,143.56365450751036 32.59253869950771,145.03637430723757 34.70895621366799,146.509093652945 41.90477576293051,146.01818725466728 46.98417779430747,147.0 49.94716231524944,146.509093652945 57.989548867568374,142.0909342560917 61.7991003934294,141.1091205039993" stroke="#4dd2ff" stroke-linecap="round" stroke-linejoin="round" stroke-width="0.5"><title>2023-04-04 2.2km</title></polyline><polyline fill="none" points="153.70793502777815,122.91902014054358 152.13491878658533,122.55415555671789 151.50571228936315,123.28388468804769 150.87650579214096,124.3784781047143 151.50571228936315,126.2027997164987 152.76412528194487,126.2027997164987 161.25841299444437,118.90550765627995 174.47174943052232,114.16225979337469 175.7301624249667,112.70279764034785 176.04476567171514,110.51360328891315 175.10095592588186,103.58114562602714 174.47174943052232,101.39194566314109 171.95492344349623,98.47301028575748 166.60666821710765,94.09460272896104 163.77523897960782,93.0 160.3146032486111,94.09460272896104 153.3933317810297,98.10814319527708 150.24729929491878,98.10814319527708 147.73047330789268,97.74327606707811 144.89904407039285,99.20274435495958 143.95523432455957,101.02707887208089 143.64063107781112,102.12167913396843 144.26983757317066,102.85141245578416 149.6180927976966,107.22980923764408 154.96634802222252,113.7973943115212 159.37079350277781,115.98658664221875 167.86508120968938,115.98658664221875 176.04476567171514,114.5271252382081 177.61778191663325,113.06766323419288 176.98857541754842,111.24333489011042 176.67397216893733,107.22980923764408 173.52793968468904,102.85141245578416 169.75270070135593,100.66221204423346 161.57301624119282,99.56761133274995 155.2809512708336,100.66221204423346 150.87650579214096,100.29734517843463 146.4720603134483,95.18920512404293 143.32602782920003,93.72973519028164 141.43840833753347,94.09460272896104 141.12380508892238,94.45947023155168 141.12380508892238,95.91893986635841 144.89904407039285,99.93247827445157 149.3034895490855,103.58114562602714 154.65174477361143,114.16225979337469 158.42698375694454,117.44604744878598 161.8876194898039,119.63523753592744 166.60666821710765,118.90550765627995 171.95492344349623,116.35145190032199 174.15714618004858,114.16225979337469 175.4155591763556,111.97306633950211 175.4155591763556,105.77034424082376 174.47174943052232,102.85141245578416 173.52793968468904,101.39194566314109 168.17968446016312,98.10814319527708 164.08984223008156,97.01354169868864 161.57301624119282,97.37840890185907 157.16857076250017,99.56761133274995 152.76412528194487,99.93247827445157 148.98888630233705,99.20274435495958 144.89904407039285,102.48654581350274 144.58444082178175,105.04061151994392 145.21364732086658,107.5946753937751 146.4720603134483,109.05413964041509 152.13491878658533,111.24333489011042 156.2247610166669,117.81091255624779 157.79777725972235,118.17577762762085 168.17968446016312,117.08118230383843 172.26952669024467,115.62172134686261 173.84254293330014,113.7973943115212 174.78635267913342,111.97306633950211 175.4155591763556,108.32440759125166 175.10095592588186,104.310878647957 174.47174943052232,102.12167913396843 172.89873318746686,99.56761133274995 169.1234942059964,95.91893986635841 165.34825522266328,94.45947023155168 163.46063573099673,94.82433769712225 155.91015776991844,98.83787733968347 151.50571228936315,99.20274435495958 148.35967980325222,97.74327606707811 146.4720603134483,98.47301028575748 145.21364732086658,99.56761133274995 144.89904407039285,101.02707887208089 145.52825056761503,103.21627905848436 149.3034895490855,106.13521054643206 152.13491878658533,108.68927363399416 154.65174477361143,115.62172134686261 157.79777725972235,116.35145190032199 165.66285847313702,116.35145190032199 171.6403201930225,114.5271252382081 173.52793968468904,112.70279764034785 174.78635267913342,110.14873743290082 175.10095592588186,108.32440759125166 174.47174943052232,103.94601215492003 173.84254293330014,102.48654581350274 171.95492344349623,100.66221204423346 169.75270070135593,99.56761133274995 162.8314292356372,98.47301028575748 151.19110904075205,100.66221204423346 146.7866635620594,98.47301028575748 144.26983757317066,100.29734517843463 143.0114245787263,102.48654581350274 143.32602782920003,104.310878647957 145.52825056761503,108.32440759125166 151.19110904075205,111.60820063343272 154.33714152686298,116.35145190032199 158.1123805064708,117.44604744878598 169.4380974546075,116.716317120241 172.58412993885577,115.25685601471923 174.15714618004858,113.43252879148349 175.4155591763556,110.14873743290082 175.4155591763556,108.32440759125166 175.10095592588186,104.67574510211125 172.89873318746686,102.12167913396843 170.6965104471892,100.66221204423346 168.4942877087742,100.29734517843463 158.42698375694454,101.39194566314109 154.96634802222252,100.66221204423346 149.3034895490855,97.37840890185907 146.15745706669986,97.37840890185907 143.64063107781112,98.47301028575748 146.7866635620594,103.94601215492003 151.82031553797424,109.05413964041509 154.0225382782519,113.7973943115212 156.85396751388907,114.89199064532295 167.23587471432984,115.98658664221875 174.78635267913342,114.5271252382081 176.04476567171514,112.3379320090171 176.67397216893733,109.05413964041509 175.4155591763556,103.94601215492003 171.95492344349623,101.02707887208089 167.23587471432984,99.20274435495958 156.2247610166669,99.93247827445157 149.3034895490855,97.37840890185907 147.1012668106705,97.37840890185907 143.95523432455957,98.83787733968347 143.64063107781112,100.29734517843463 144.89904407039285,103.21627905848436 152.76412528194487,110.14873743290082 155.91015776991844,116.35145190032199 157.79777725972235,118.17577762762085 159.68539674952626,118.90550765627995 169.4380974546075,117.81091255624779 174.15714618004858,115.25685601471923 176.35936892218888,113.06766323419288 176.67397216893733,110.14873743290082 174.47174943052232,102.48654581350274 173.21333643607795,100.66221204423346 165.97746171988547,93.36486761388369 164.40444547683,93.0 161.57301624119282,94.45947023155168 158.42698375694454,98.10814319527708 156.2247610166669,99.20274435495958 153.70793502777815,99.93247827445157 145.84285381622612,99.56761133274995 143.64063107781112,100.66221204423346 144.58444082178175,102.85141245578416 146.4720603134483,104.67574510211125 152.13491878658533,109.41900560841896 155.91015776991844,114.89199064532295 156.85396751388907,115.62172134686261 159.05619025230408,116.35145190032199 164.08984223008156,117.08118230383843 169.4380974546075,119.27037261542864 174.47174943052232,119.27037261542864 176.04476567171514,118.54064266127534 177.9323851633817,112.3379320090171 177.61778191663325,107.95954151079059 176.67397216893733,105.40547790029086 173.21333643607795,100.29734517843463 167.55047796294093,97.74327606707811 160.3146032486111,97.37840890185907 153.3933317810297,97.74327606707811 150.5619025453925,97.01354169868864 148.67428305372596,97.01354169868864 146.7866635620594,97.74327606707811 143.64063107781112,100.66221204423346 143.64063107781112,102.12167913396843 144.58444082178175,103.94601215492003 148.04507655650377,106.8649430447258 153.0787285324186,110.14873743290082 156.85396751388907,115.98658664221875 159.37079350277781,117.08118230383843 164.40444547683,116.716317120241 168.17968446016312,117.44604744878598 171.3257169444114,117.08118230383843 174.15714618004858,116.35145190032199 175.4155591763556,115.25685601471923 176.35936892218888,113.06766323419288 176.98857541754842,107.22980923764408 175.4155591763556,104.67574510211125 172.89873318746686,102.48654581350274 165.66285847313702,99.56761133274995 163.14603248424828,99.20274435495958 155.5955545194447,100.29734517843463 149.3034895490855,98.83787733968347 148.04507655650377,99.20274435495958 144.89904407039285,102.48654581350274 144.58444082178175,104.67574510211125 146.4720603134483,106.8649430447258 151.50571228936315,111.24333489011042 153.70793502777815,115.98658664221875 154.0225382782519,117.81091255624779 152.13491878658533,120.72983207413927 152.13491878658533,125.10820686095394 154.65174477361143,132.7703497770708 157.79777725972235,134.59466708824039 161.25841299444437,134.959530437598 168.80889095552266,133.50007681455463 174.78635267913342,133.13521331432275 177.3031786661595,134.59466708824039 178.56159166060388,136.4189834636636 178.56159166060388,137.5135728395544 176.98857541754842,140.06761340843514 170.38190719857812,142.98651467170566 166.29206496849656,145.90541354194283 163.14603248424828,147.0 161.25841299444437,146.63513788511045 158.1123805064708,145.17568904859945 156.85396751388907,139.70275058294646 156.85396751388907,137.87843589065596 157.79777725972235,136.4189834636636 163.77523897960782,131.6757589429617 166.92127146571875,130.58116777054965 176.04476567171514,125.47307118284516 178.56159166060388,125.10820686095394 178.56159166060388,127.29739223467186 178.2469884119928,127.29739223467186 178.87619490921497,126.56766392663121 178.2469884119928,125.83793546864763 178.56159166060388,126.2027997164987" stroke="#ff7900" stroke-linecap="round" stroke-linejoin="round" stroke-width="0.5"><title>2023-04-01 3.2km</title></polyline><polyline fill="none" points="36.29289222881198,175.70074283517897 33.623774632811546,178.79628677549772 29.175245305523276,182.92367425211705 31.251225659623742,180.5160321739968 36.88602947257459,177.0765404945705 39.85171568952501,176.04469230258837 46.079656748101115,176.38864173460752 48.7487743422389,175.70074283517897 50.52818607352674,174.32494461140595 52.01102918200195,171.5733464716468 52.60416642576456,167.10199468093924 51.714460561051965,163.31853851210326 50.23161745257676,160.56693134619854 46.67279399000108,157.1274192132987 43.707107773050666,156.09556488506496 40.44485293328762,156.4395163631998 32.73406876809895,160.91088236519136 29.76838254928589,160.56693134619854 25.912990467622876,158.50322448974475 23.540441492572427,159.53507807594724 24.72671598009765,160.91088236519136 30.954657036811113,164.00643995171413 34.51348049752414,169.50964638614096 36.58946085162461,170.54149658768438 45.78308812528849,170.54149658768438 50.52818607352674,169.50964638614096 52.01102918200195,168.13384562381543 52.60416642576456,166.75804429803975 50.52818607352674,162.28668608982116 47.56249985657632,160.56693134619854 44.00367639400065,159.53507807594724 40.44485293328762,160.22298029088415 33.92034325376153,162.6306369320955 30.65808841586113,162.28668608982116 27.099264953285456,160.22298029088415 26.20955908857286,160.56693134619854 25.02328460291028,161.94273521192372 24.430147357285023,163.662489249371 25.02328460291028,165.38224240601994 31.547794280573726,169.8535964882467 35.996323607861996,176.38864173460752 37.479166716337204,177.42048982088454 40.44485293328762,178.10838836873882 47.56249985657632,176.38864173460752 49.93504882976413,175.3567933323793 51.41789194010198,174.32494461140595 52.60416642576456,171.5733464716468 52.90073504857719,169.16569624864496 52.30759780295193,165.7261929323431 50.52818607352674,162.97458773921244 45.78308812528849,159.53507807594724 41.631127420812845,158.50322448974475 32.43750014714897,162.6306369320955 30.064951172098517,162.28668608982116 26.802696332335472,160.91088236519136 24.72671598009765,161.25483334832825 23.540441492572427,162.97458773921244 23.540441492572427,164.69434124883264 24.72671598009765,166.0701434223447 29.76838254928589,169.16569624864496 34.21691187657416,173.29309557401575 36.29289222881198,173.98099496704526 44.89338226057589,174.32494461140595 47.85906847938895,173.98099496704526 49.93504882976413,172.60519603895955 51.41789194010198,170.54149658768438 52.01102918200195,168.13384562381543 52.01102918200195,166.0701434223447 51.41789194010198,164.69434124883264 47.85906847938895,161.59878429793753 43.41053915210068,160.22298029088415 33.92034325376153,161.59878429793753 28.285539442673326,160.91088236519136 25.319853223860264,162.28668608982116 24.72671598009765,163.662489249371 24.72671598009765,165.03829184547067 25.912990467622876,167.10199468093924 30.954657036811113,170.88544658501633 34.51348049752414,175.3567933323793 35.996323607861996,176.38864173460752 38.66544120386243,177.0765404945705 46.67279399000108,176.73259113216773 50.824754694476724,175.01284379395656 52.01102918200195,173.6370452879928 52.90073504857719,171.22939654579386 53.19730366952717,169.16569624864496 52.30759780295193,165.03829184547067 48.7487743422389,160.22298029088415 46.079656748101115,158.50322448974475 42.52083328552544,157.47137058572844 33.32720601186156,161.59878429793753 30.361519794911146,161.94273521192372 26.802696332335472,161.25483334832825 24.430147357285023,161.25483334832825 23.837010115385056,161.94273521192372 24.13357873633504,163.662489249371 25.319853223860264,165.7261929323431 28.878676684573293,169.16569624864496 31.84436290152371,173.98099496704526 34.21691187657416,176.38864173460752 38.96200982481241,178.79628677549772 44.00367639400065,178.4523375891149 48.7487743422389,176.38864173460752 51.714460561051965,172.94914582371712 52.60416642576456,169.8535964882467 52.60416642576456,160.91088236519136 45.78308812528849,158.1592732227873 40.74142155610025,157.47137058572844 33.623774632811546,161.25483334832825 26.20955908857286,161.59878429793753 23.837010115385056,162.97458773921244 23.243872871622443,164.35039061889984 24.13357873633504,166.0701434223447 28.285539442673326,168.82174607669003 31.84436290152371,173.6370452879928 33.32720601186156,174.66889422060922 41.03799017705023,175.70074283517897 46.67279399000108,175.3567933323793 49.04534296505153,174.32494461140595 50.52818607352674,172.60519603895955 51.714460561051965,170.19754655612633 52.01102918200195,167.7898953454569 50.824754694476724,165.03829184547067 44.89338226057589,159.53507807594724 42.81740190833807,159.19112691562623 40.74142155610025,159.53507807594724 32.43750014714897,162.6306369320955 29.76838254928589,162.28668608982116 26.20955908857286,160.22298029088415 25.02328460291028,160.91088236519136 24.13357873633504,162.97458773921244 24.72671598009765,166.75804429803975 26.50612771138549,169.50964638614096 32.43750014714897,172.26124621904455 36.58946085162461,176.04469230258837 37.77573533914983,176.38864173460752 42.52083328552544,175.01284379395656 48.15563709847629,174.66889422060922 50.23161745257676,173.6370452879928 52.01102918200195,171.5733464716468 52.90073504857719,168.4777958674822 53.19730366952717,165.7261929323431 52.60416642576456,161.94273521192372 51.714460561051965,159.87902920111082 49.93504882976413,157.81532192183658 47.85906847938895,156.09556488506496 44.89338226057589,155.751613372704 42.22426466271281,156.4395163631998 35.996323607861996,161.59878429793753 33.92034325376153,162.6306369320955 31.251225659623742,162.6306369320955 27.988970819860697,161.25483334832825 25.319853223860264,161.59878429793753 24.13357873633504,162.6306369320955 24.13357873633504,164.00643995171413 24.72671598009765,167.10199468093924 25.616421844810247,168.4777958674822 30.954657036811113,170.54149658768438 34.21691187657416,175.3567933323793 36.88602947257459,176.38864173460752 46.96936261281371,175.70074283517897 49.6384802069515,175.01284379395656 51.41789194010198,173.29309557401575 52.60416642576456,169.8535964882467 52.30759780295193,167.44594503077678 50.52818607352674,165.03829184547067 47.265931233763695,162.97458773921244 42.52083328552544,161.94273521192372 33.92034325376153,163.662489249371 27.692402198910713,162.6306369320955 25.319853223860264,163.662489249371 24.72671598009765,165.7261929323431 25.319853223860264,167.44594503077678 26.802696332335472,168.82174607669003 33.623774632811546,172.26124621904455 35.996323607861996,176.04469230258837 38.07230395823717,177.76443911297247 39.85171568952501,178.10838836873882 48.15563709847629,176.04469230258837 50.52818607352674,173.98099496704526 51.41789194010198,172.26124621904455 51.714460561051965,168.82174607669003 51.41789194010198,161.94273521192372 50.824754694476724,159.19112691562623 49.6384802069515,157.47137058572844 44.59681363776326,153.34395179455169 43.11397052928805,153.0 41.92769604176283,153.68790355394594 36.58946085162461,158.84717571991496 33.32720601186156,160.91088236519136 30.954657036811113,161.25483334832825 27.395833576098084,160.91088236519136 25.912990467622876,161.59878429793753 24.430147357285023,162.97458773921244 23.837010115385056,164.69434124883264 23.837010115385056,166.0701434223447 25.02328460291028,167.7898953454569 31.251225659623742,171.5733464716468 33.623774632811546,176.04469230258837 33.92034325376153,179.14023592625745 31.251225659623742,182.2357766921632 30.954657036811113,185.33131460170262 32.14093152433634,188.77079781936482 33.623774632811546,191.17843397287652 37.77573533914983,192.55422528414056 44.89338226057589,191.86632969952188 51.12132331728935,192.89817302441224 53.790440913289785,194.27396363182925 56.45955850929022,197.71343768108636 56.7561271302402,199.4331733819563 56.45955850929022,200.80896131019108 54.08700953423977,202.87264214246534 44.89338226057589,206.65605370537378 40.44485293328762,207.0 37.77573533914983,206.3121073753573 35.1066177431494,204.2484286588151 33.92034325376153,199.7771204172168 34.21691187657416,197.3694904341828 36.88602947257459,193.58606839855202 39.85171568952501,192.55422528414056 46.079656748101115,193.24212072975934 51.12132331728935,188.4268496565055 55.273284021764994,187.39500495512038" stroke="#ff8100" stroke-linecap="round" stroke-linejoin="round" stroke-width="0.5"><title>2023-03-31 3.1km</title></polyline><polyline fill="none" points="157.33802816830575,191.24650084786117 156.5774647872895,193.8927162680775 151.63380281627178,197.86203634692356 147.8309859149158,198.74410697678104 144.02816901355982,198.30307168420404 143.6478873230517,197.4210009626113 147.45070422440767,191.68753686454147 153.9154929574579,186.3951016832143 156.5774647872895,185.51302851969376 165.70422535203397,184.1899184351787 169.88732394389808,181.54369704704732 171.78873239271343,177.57436191197485 172.1690140850842,173.16398524446413 171.4084507022053,167.87152727367356 169.5070422515273,163.46114065824077 167.98591549135745,161.25594565551728 162.28169013932347,157.2865918003954 155.43661971762776,155.96347303362563 153.9154929574579,156.84555225772783 150.11267605610192,161.69698474556208 146.69014084339142,164.34321834379807 140.60563380271196,166.54841176373884 133.7605633791536,170.95879521407187 136.42253521084785,174.48709872039035 144.40845070406795,178.45643670205027 151.25352112576365,184.1899184351787 153.53521126694977,184.63095517549664 164.94366196915507,183.30784482089803 171.78873239271343,181.1026599900797 173.30985915474594,178.01539932982996 172.54929577372968,172.2819093670696 169.12676056288183,167.43048881553113 155.8169014081359,162.57906279247254 147.45070422440767,164.7842571171932 142.88732394389808,164.34321834379807 140.2253521103412,163.46114065824077 135.66197182796896,165.22529584774747 135.66197182796896,167.43048881553113 136.80281689949334,169.63568065408617 145.9295774642378,178.01539932982996 150.49295774661005,185.51302851969376 153.9154929574579,187.71821108972654 156.95774647779763,187.71821108972654 167.60563380271196,184.1899184351787 172.1690140850842,180.22058574249968 174.07042253389955,176.69228693982586 172.54929577372968,168.3125656871125 167.60563380271196,166.9894503117539 163.42253521084785,161.69698474556208 156.95774647779763,160.81490651797503 153.9154929574579,161.25594565551728 145.54929577372968,165.22529584774747 139.08450704067945,164.7842571171932 134.90140844881535,167.87152727367356 136.80281689949334,170.51775707304478 142.88732394389808,173.60502311447635 145.54929577372968,176.25124938646331 148.21126760356128,180.66162288887426 150.11267605610192,182.4257710245438 154.67605633847415,183.30784482089803 164.5633802805096,182.4257710245438 166.46478873118758,181.54369704704732 169.5070422515273,178.89747403142974 172.1690140850842,172.72294732835144 172.54929577372968,170.51775707304478 171.02816901355982,164.34321834379807 170.6478873230517,159.4917888380587 169.12676056288183,158.60971015831456 160.7605633791536,158.60971015831456 152.39436619728804,163.90217952430248 147.45070422440767,165.22529584774747 144.78873239271343,164.7842571171932 139.46478873118758,162.1380237918347 138.32394366152585,163.46114065824077 135.28169013932347,168.7536040553823 138.70422535017133,172.2819093670696 145.54929577372968,175.3691741428338 148.21126760356128,179.33851131331176 149.35211267508566,182.4257710245438 150.87323943525553,183.74888165062293 161.14084506966174,184.1899184351787 167.2253521103412,182.8668079455383 169.5070422515273,181.54369704704732 170.6478873230517,180.66162288887426 172.1690140850842,176.69228693982586 172.54929577372968,174.0460609397851 171.78873239271343,170.95879521407187 169.12676056288183,167.87152727367356 166.08450704067945,165.66633453266695 160.7605633791536,163.46114065824077 156.95774647779763,162.57906279247254 147.07042253389955,165.22529584774747 141.7464788723737,163.46114065824077 136.80281689949334,165.22529584774747 137.94366196915507,167.43048881553113 140.2253521103412,170.07671888545156 146.30985915474594,174.92813645396382 150.11267605610192,181.9847340588458 151.63380281627178,183.30784482089803 155.056338025257,185.07199187064543 164.94366196915507,184.1899184351787 171.02816901355982,181.54369704704732 172.54929577372968,175.81021178653464 171.02816901355982,169.63568065408617 166.08450704067945,165.22529584774747 164.94366196915507,162.57906279247254 157.33802816830575,161.25594565551728 149.35211267508566,164.7842571171932 145.9295774642378,165.22529584774747 141.36619718186557,164.7842571171932 139.08450704067945,163.46114065824077 137.18309859000146,166.54841176373884 135.66197182796896,170.51775707304478 137.18309859000146,174.48709872039035 144.40845070406795,177.57436191197485 148.5915492940694,182.8668079455383 150.11267605610192,184.1899184351787 155.056338025257,185.07199187064543 161.90140844881535,185.07199187064543 167.60563380271196,183.30784482089803 171.02816901355982,179.77954855002463 171.4084507022053,177.57436191197485 171.02816901355982,174.0460609397851 167.98591549135745,168.3125656871125 162.28169013932347,165.66633453266695 156.5774647872895,163.90217952430248 148.5915492940694,165.66633453266695 140.60563380271196,162.1380237918347 137.94366196915507,163.46114065824077 133.38028168864548,163.90217952430248 133.38028168864548,165.66633453266695 136.42253521084785,168.7536040553823 145.54929577372968,173.16398524446413 146.69014084339142,175.81021178653464 148.5915492940694,182.8668079455383 150.87323943525553,184.63095517549664 158.85915492661297,183.74888165062293 164.94366196915507,184.1899184351787 170.6478873230517,181.54369704704732 172.54929577372968,177.57436191197485 172.9295774642378,174.92813645396382 169.88732394389808,167.43048881553113 164.5633802805096,164.34321834379807 159.23943661898375,163.02010174794123 147.45070422440767,165.22529584774747 140.60563380271196,164.34321834379807 137.94366196915507,165.22529584774747 134.90140844881535,168.3125656871125 135.66197182796896,170.95879521407187 138.70422535017133,173.60502311447635 142.88732394389808,176.25124938646331 148.21126760356128,184.1899184351787 149.73239436373115,185.07199187064543 163.42253521084785,184.63095517549664 169.5070422515273,182.4257710245438 171.78873239271343,176.69228693982586 171.4084507022053,169.63568065408617 172.1690140850842,165.66633453266695 166.8450704216957,161.69698474556208 156.95774647779763,158.60971015831456 155.8169014081359,159.05074952170253 153.15492957644165,163.02010174794123 148.21126760356128,164.7842571171932 141.7464788723737,164.34321834379807 138.70422535017133,162.57906279247254 136.04225352033973,163.90217952430248 133.0,164.34321834379807 133.38028168864548,167.43048881553113 135.66197182796896,172.2819093670696 136.42253521084785,172.72294732835144 138.32394366152585,171.84087136294693 143.26760563254356,173.16398524446413 145.54929577372968,176.69228693982586 149.35211267508566,183.74888165062293 152.01408450491726,185.51302851969376 163.80281689949334,185.51302851969376 168.7464788723737,182.8668079455383 171.78873239271343,178.89747403142974 171.78873239271343,174.48709872039035 171.02816901355982,170.51775707304478 169.88732394389808,168.7536040553823 166.8450704216957,165.66633453266695 162.66197182796896,163.90217952430248 156.19718309864402,164.34321834379807 144.40845070406795,167.87152727367356 142.12676056101918,166.9894503117539 139.46478873118758,164.34321834379807 135.28169013932347,166.9894503117539 135.28169013932347,169.19464237615466 136.04225352033973,170.95879521407187 140.98591549135745,173.60502311447635 145.54929577372968,178.45643670205027 146.30985915474594,184.63095517549664 144.78873239271343,186.83613819628954 142.12676056101918,189.48235632944852 141.36619718186557,191.24650084786117 143.26760563254356,196.09789454052225 143.6478873230517,197.86203634692356 146.69014084339142,203.15445742057636 149.73239436373115,204.03652696637437 155.056338025257,203.59549221629277 177.4929577447474,200.94928276445717 183.95774647966027,200.0672125853598 187.0,198.74410697678104 184.71830985881388,197.86203634692356 180.9154929574579,197.4210009626113" stroke="#ff8900" stroke-linecap="round" stroke-linejoin="round" stroke-width="0.5"><title>2023-03-30 3.1km</title></polyline><polyline fill="none" points="13.380281689576805,252.1287418116117 13.475352112203836,252.1287418116117 13.6654929574579,252.01848278485704 14.521126760169864,252.1287418116117 15.47183098550886,252.7902957344195 16.80281690089032,252.01848278485704 17.94366197148338,252.01848278485704 19.17957746470347,252.23900082695764 20.795774647500366,252.1287418116117 23.552816901355982,251.4671874816995 25.739436619449407,251.35692838742398 26.59507042169571,250.9158918961184 26.785211267415434,250.14407760137692 26.785211267415434,248.1594097284833 25.739436619449407,245.51318020094186 24.883802816737443,241.3233034653822 23.933098591398448,239.55913995660376 21.271126760635525,236.14106492255814 20.89084507059306,235.25897927919868 20.98591549275443,234.37689291255083 23.077464788686484,232.17167383024935 25.549295774661005,230.18697278946638 31.633802816737443,226.87912958289962 36.19718309817836,224.8944187745219 45.70422535203397,223.35075228032656 50.838028168771416,222.0276078071911 55.116197182796896,220.26341264438815 56.257042253389955,220.26341264438815 57.11267605610192,221.03524838434532 58.82394366199151,223.2404903032584 61.96126760542393,228.20226808649022 63.48239436605945,231.3998460827861 64.71830985927954,233.38454488501884 65.19366197148338,234.70767538482323 66.61971830995753,237.46419203083497 66.80985915474594,238.67705711675808 66.61971830995753,240.22070161136799 66.049295774661,241.10278318519704 65.19366197148338,242.09512409055606 62.72183098550886,243.7490235650912 60.7253521126695,244.74136202887166 56.63732394389808,245.84395924815908 52.16901408415288,247.05681488336995 48.17605633800849,247.38759345572907 41.71126760542393,248.6004473499488 38.19366197194904,248.93122544744983 29.352112676016986,250.80563274491578 27.926056338008493,250.6953735826537 27.260563380084932,250.14407760137692 26.690140844788402,248.93122544744983 24.503521126694977,241.43356358876918 22.697183098178357,238.34627586556599 21.366197182796896,237.0231498425128 20.98591549275443,236.25132557738107 20.98591549275443,235.58976148045622 21.556338027585298,234.5974145717919 22.79225352127105,233.16402297688182 24.978873239364475,230.958801407367 26.404929576907307,229.7459276166046 31.158450704067945,227.09965277963784 35.62676056288183,225.44572770001832 42.09154929546639,224.12258580431808 44.94366197194904,223.90206199709792 50.647887323983014,222.6891802472528 51.978873239364475,222.24813199939672 55.40140845021233,220.48393719783053 56.352112676016986,220.48393719783053 56.922535211313516,221.03524838434532 58.53873239457607,223.0199663147796 60.059859154745936,225.77651291934308 61.96126760542393,228.42279101221357 63.19718309864402,231.06906259339303 64.62323943618685,233.38454488501884 67.0,238.12575497454964 66.90492957737297,240.8822628594935 66.42957746516913,241.7643438903615 65.38380281627178,242.53616419923492 62.53169014072046,243.96954330254812 61.29577464796603,244.96188156295102 60.34507042262703,245.29266077955253 54.26056338008493,246.50551703677047 52.549295774661005,247.05681488336995 45.228873239364475,248.04915029508993 43.517605633474886,248.6004473499488 39.714788732118905,249.26200344332028 36.007042253389955,249.48252205061726 28.781690141186118,251.02615103579592 27.355633802711964,251.9082237466937 25.739436619449407,253.34159035922494 22.411971830762923,254.66469630599022 21.176056337542832,254.55443753919099 20.89084507059306,254.77495506126434 20.795774647500366,255.10573126003146 21.461267605423927,256.5390936107142 21.271126760635525,257.0903863137355 20.4154929574579,257.8621956234565 19.369718309491873,258.4134876485914 17.468309858813882,259.73658735561185 16.517605633940548,259.73658735561185 15.376760563347489,259.2955543008866 14.616197182796896,257.9724540512543 13.950704224873334,256.5390936107142 13.0,255.43650735646952 13.57042253529653,255.21598997002002 15.566901408601552,254.99547253828496 15.852112675551325,255.10573126003146 16.04225352080539,255.43650735646952 16.612676056101918,255.76728335139342" stroke="#4dd2ff" stroke-linecap="round" stroke-linejoin="round" stroke-width="0.5"><title>2023-03-28 2.9km</title></polyline></svg>