<?xml version="1.0" encoding="utf-8" ?>
<svg baseProfile="full" height="300mm" version="1.1" viewBox="0,0,200,300" width="200mm" xmlns="http://www.w3.org/2000/svg" xmlns:ev="http://www.w3.org/2001/xml-events" xmlns:xlink="http://www.w3.org/1999/xlink"><defs /><rect fill="#222222" height="300" width="200" x="0" y="0" /><text fill="#FFFFFF" style="font-size:12px; font-family:Arial; font-weight:bold;" x="10" y="20">Over 2km Workouts</text><text fill="#FFFFFF" style="font-size:4px; font-family:Arial" x="10" y="280">ATHLETE</text><text fill="#FFFFFF" style="font-size:9px; font-family:Arial" x="10" y="290">Koobai</text><text fill="#FFFFFF" style="font-size:4px; font-family:Arial" x="120" y="280">STATISTICS</text><text fill="#FFFFFF" style="font-size:3px; font-family:Arial" x="120" y="285">Number: 14</text><text fill="#FFFFFF" style="font-size:3px; font-family:Arial" x="120" y="290">Weekly: 4.7</text><text fill="#FFFFFF" style="font-size:3px; font-family:Arial" x="141" y="285">Total: 36.9 km</text><text fill="#FFFFFF" style="font-size:3px; font-family:Arial" x="141" y="290">Avg: 2.6 km</text><text fill="#FFFFFF" style="font-size:3px; font-family:Arial" x="167" y="285">Min: 2.0 km</text><text fill="#FFFFFF" style="font-size:3px; font-family:Arial" x="167" y="290">Max: 4.1 km</text><polyline fill="none" points="15.392443324904889,60.78354162472533 13.923425692599267,56.303386165353004 13.48816120880656,55.546173570270184 12.617632241686806,54.41035293054301 12.399999999906868,53.77934055856895 12.399999999906868,53.274530194932595 12.672040302073583,52.64351665833965 13.052896725246683,52.201806797704194 13.705793450819328,51.63389365398325 16.15415617125109,50.3087609471404 18.76574307284318,48.79432007443393 19.30982367740944,48.352607451204676 20.61561712855473,46.83816176478285 21.159697732888162,46.333345707913395 23.716876574093476,44.56648624758236 24.96826196461916,43.87236150034005 27.19899244327098,43.36754301073961 29.64735516370274,42.35790478892159 31.76926952134818,41.853085056878626 33.61914357659407,41.53757251432398 36.77481108321808,41.34826491092099 37.53652392933145,41.09585468261503 39.49521410581656,40.14931540435646 40.855415617348626,39.64449386089109 43.08614609576762,39.139671902987175 44.7183879094664,38.50864387344336 45.371284635039046,38.571746705449186 46.56826196494512,39.64449386089109 46.84030226687901,40.2755207256414 46.84030226687901,40.78034175164066 46.67707808571868,41.22205980971921 45.588916876586154,43.115133610437624 45.4801007558126,43.430645344546065 45.53450881619938,43.74615691672079 45.8609571789857,44.50338403030764 48.03727959678508,48.54191289993469 48.581360201584175,49.23603238060605 49.2886649875436,49.48843927041162 49.887153652496636,49.48843927041162 51.08413098263554,48.92052362282993 51.51939546619542,48.85742185183335 51.90025188913569,49.04672714526532 53.260453400434926,50.056354393891525 54.56624685158022,51.44458915613359 55.327959697693586,52.58041526918532 55.545591939706355,53.274530194932595 55.60000000009313,53.842441824963316 55.60000000009313,54.28415050805779 55.4367758189328,54.78896004339913 55.164735516533256,55.2306680472102 54.45743073057383,56.05098207044648 51.13853904302232,58.57501836126903 49.343073047930375,59.52152930153534 46.29622166254558,61.47764729917981 41.453904282068834,64.0647615538328 39.712846347596496,65.3267645611777 37.808564231731,66.96736460231477 35.5234256926924,67.85076281317743 31.823677581967786,69.49135612655664" stroke="#4dd2ff" stroke-linecap="round" stroke-linejoin="round" stroke-width="0.5"><title>2023-04-14 2.2km</title></polyline><polyline fill="none" points="81.51135734072886,63.50707817735383 80.97285318537615,61.56406364304712 80.37451523565687,60.03740545286564 79.7761772852391,59.13528763112845 78.81883656512946,57.95559328061063 78.45983379497193,57.33104838052532 78.39999999990687,56.8452908374602 78.51966759003699,56.35953294567298 79.05817174515687,55.80438064230839 79.89584487513639,55.17983375699259 82.8875346260611,53.583766876428854 85.34072022186592,52.47345726104686 85.87922437675297,51.98769623163389 88.15290858712979,49.42009642749326 89.88808864238672,47.962805718765594 91.80277008283883,47.13006676227087 97.90581717458554,44.90942453563912 104.18836565082893,43.8684959836537 108.01772853173316,42.61937960801879 110.71024930733256,41.50905200536363 112.38559556775726,41.09267868468305 113.7617728530895,40.60690948687261 114.47977839340456,40.60690948687261 115.13795013842173,41.02328310633311 116.21495844866149,42.41119332128437 116.4542936286889,42.96635661023902 116.51412742375396,43.52151944395155 116.33462603879161,44.14607708720723 115.55678670341149,45.11761005385779 115.25761772831902,45.67277112288866 115.13795013842173,46.297326781146694 115.19778393302113,46.85248688235879 115.7961218834389,48.0322005857015 117.1124653739389,50.11404328094795 118.9074792242609,53.51437257876387 119.98448753450066,55.87377470522188 121.36066481960006,58.094380958005786 121.5999999998603,59.06589390261797 121.5999999998603,60.10679908178281 121.36066481960006,60.52316070505185 120.46315789455548,61.14770265988773 117.41163434879854,62.6049649802153 116.39445983362384,62.95193173678126 109.93240997218527,64.13161737885093 107.00055401655845,64.40919017227134 104.60720221581869,64.75615600403398 98.62382271466777,65.8664454704267 97.48698060913011,66.21341055515222 96.23047091416083,67.18491184624145 95.75180055387318,67.39309051306918" stroke="#4dd2ff" stroke-linecap="round" stroke-linejoin="round" stroke-width="0.5"><title>2023-04-13 2.0km</title></polyline><polyline fill="none" points="148.15911602205597,65.28005059820134 147.62209944752976,63.82681997312466 147.14475138112903,61.61236729013035 146.60773480660282,60.15912876848597 146.07071823207662,59.32870535145048 144.8176795579493,57.944664052454755 144.51933701639064,57.39104673831025 144.39999999990687,56.76822671701666 144.51933701639064,56.28381074767094 144.8773480663076,55.730192071117926 145.4143646408338,55.24577535671415 146.19005524856038,54.76135829463601 148.0397790055722,53.930928236513864 151.02320441999473,52.27006505493773 151.79889502748847,51.64724030822981 154.3049723757431,49.22513860743493 157.2287292815745,47.4950606423663 158.4817679557018,46.94143475708552 160.80883977888152,46.318605092936195 164.20994475111365,45.003740581683815 166.1790055250749,44.38090912968619 167.96906077326275,44.03489140776219 170.7734806628432,43.68887350894511 171.96685082861222,43.27365179575281 173.39889502734877,42.51241132494761 175.00994475139305,42.44320760323899 176.14364640880376,42.16639264521655 177.93370165745728,41.61276238900609 180.08176795579493,40.713112253695726 180.6784530384466,40.713112253695726 181.33480662945658,41.19753939844668 182.17016574600711,42.37400387437083 182.40883977874182,43.41205906186951 182.17016574600711,44.38090912968619 181.09613259672187,46.11099507729523 181.09613259672187,46.387808417435735 181.2154696129728,46.94143475708552 181.69281767960638,48.04868607374374 183.24419889505953,50.47079199622385 184.9745856351219,53.377307630027644 186.10828729276545,55.86859678279143 187.36132596665993,57.87546191306319 187.54033149173483,58.49828091269592 187.5999999998603,59.05189731880091 187.4806629831437,59.53631130157737 187.241988950409,60.08992685616249 186.64530386729166,60.57434009399731 186.04861878440715,60.98955116403522 183.84088397794403,62.235182841541246 182.7071823203005,62.65039289003471 180.6784530384466,62.99640106840525 177.93370165745728,63.61921534285648 174.83093922655098,64.03442453977186 172.2651933701709,64.3112305290415 164.44861878454685,65.69525877345586 163.3745856352616,66.04126539110439 162.00220994465053,66.87168054992799 160.62983425403945,67.28688774630427" stroke="#4dd2ff" stroke-linecap="round" stroke-linejoin="round" stroke-width="0.5"><title>2023-04-12 2.0km</title></polyline><polyline fill="none" points="17.189958158880472,114.05396482429933 16.91882845154032,113.73951832042076 16.91882845154032,112.6913626093883 15.743933054152876,109.54688902839553 15.111297070980072,107.03130320005585 13.574895397294313,105.03979336260818 12.942259414121509,104.0964452434564 12.580753137823194,103.04827964608558 12.490376568865031,102.20974639395718 12.761506276205182,101.3712124543963 14.749790794216096,97.80743553733919 16.91882845154032,95.6062730003614 17.91297071101144,94.76773364446126 19.810878660995513,93.61474090674892 21.889539748895913,92.67138224514201 28.57740585785359,90.47020864917431 31.017573221586645,90.26057282136753 39.6937238490209,88.68830274324864 40.95899581583217,88.26903031382244 42.85690376535058,87.220848488505 44.03179916320369,86.80157545709517 44.84518828475848,86.80157545709517 45.839330543763936,87.01121199445333 46.47196652693674,87.744939535507 47.646861924789846,89.63166508020367 50.53891213377938,94.76773364446126 51.62343096220866,97.38816684822086 53.882845188025385,100.95194522663951 54.876987447962165,101.89529624721035 55.50962343066931,103.3627294379985 55.60000000009313,104.0964452434564 55.419246861711144,105.35424254229292 55.148117154836655,106.29758950055111 54.78661087853834,106.82167076820042 53.340585774276406,107.97464861103799 49.996652719564736,109.65170497016516 48.0083682006225,110.070968630258 45.74895397480577,110.90949543437455 40.50711297011003,112.16728435084224 36.982426777947694,112.48173133807722 33.18661087844521,112.58654697891325 28.938912133686244,113.42507172003388 24.781589957885444,114.05396482429933 20.624267782084644,115.31174987240229 19.178242677357048,115.41656522336416 18.635983263142407,115.10211913846433 18.274476987309754,114.26359577313997 17.189958158880472,110.80467962136026 15.743933054152876,107.13611939968541 13.936401673126966,104.51571118179709 12.671129706781358,102.94346302689519 12.399999999906868,102.20974639395718 12.399999999906868,100.95194522663951 13.394142259377986,98.43633824912831 14.56903765629977,97.07371521834284 17.099581589456648,95.29182082216721 20.53389121312648,93.30028811609372 21.708786610513926,92.56656456214841 23.335564853157848,91.9376582398545 30.565690376330167,90.15575489157345 34.0,90.05093695095275 37.70543933054432,89.21239303797483 39.24184100376442,88.79312082356773 42.49539748951793,87.32566671923269 44.84518828475848,86.80157545709517 45.74895397480577,86.80157545709517 46.29121338902041,87.32566671923269 48.55062761483714,91.8328404816566 50.17740585748106,94.45328120840713 51.89456066954881,98.0170698176371 53.882845188025385,100.3230440627085 55.32887029275298,102.94346302689519 55.50962343066931,103.88681221019942 55.148117154836655,106.19277321489062 54.696234309114516,106.92648698936682 53.70209205010906,107.76501637278125 50.17740585748106,109.65170497016516 48.09874476958066,110.38541626220103 45.11631799116731,110.90949543437455 41.50125523004681,111.85283726663329 39.061087865848094,112.27210002427455 36.80167364003137,112.58654697891325 34.54225941421464,112.58654697891325 22.974058577325195,114.47322667879052 19.358995815739036,115.41656522336416 18.635983263142407,115.83582651882898 17.91297071101144,116.67434859462082 17.370711296331137,116.88397900632117 15.83430962311104,116.77916380600072 12.671129706781358,117.19842454302125" stroke="#4dd2ff" stroke-linecap="round" stroke-linejoin="round" stroke-width="0.5"><title>2023-04-11 2.4km</title></polyline><polyline fill="none" points="94.62755719386041,105.32313313754275 93.1949057802558,106.98466989491135 91.04592865891755,112.3846596532967 93.91123148798943,119.86155666713603 92.83674292638898,121.10770482872613 91.04592865891755,120.69232215010561 90.32960294932127,119.86155666713603 89.61327724345028,114.04619351541623 92.83674292638898,109.47697375505231 89.9714400973171,104.90774884121493 84.59899729117751,102.83082672278397 83.52450872957706,101.58467294089496 82.80818301998079,97.01543912640773 85.3153229970485,92.86158573254943 94.2693943399936,86.63079765764996 104.65611709840596,85.38463889225386 108.23774563521147,85.80002519022673 114.32651415094733,90.36927165160887 115.7591655664146,96.1846687886864 115.04283985868096,99.50774911767803 113.25202558748424,102.83082672278397 106.44693136774004,107.81543801841326 102.86530283093452,107.81543801841326 93.91123148798943,107.81543801841326 82.45002016797662,101.58467294089496 81.73369446024299,99.09236422600225 82.45002016797662,91.20004318258725 96.06020860932767,83.30770676606335 100.35816285386682,81.6461602980271 104.29795424453914,80.8153868096415 107.52141992934048,81.6461602980271 111.81937417574227,85.80002519022673 115.04283985868096,92.0308145438321 114.32651415094733,98.26159431342967 110.74488561414182,102.41544217057526 106.44693136774004,104.90774884121493 97.49286002479494,105.73851739056408 92.12041721865535,107.40005397843197 84.95716014318168,103.66159569681622 83.88267158158123,101.58467294089496 84.2408344373107,99.09236422600225 88.18062582798302,94.10774219757877 93.91123148798943,90.78465743875131 100.00000000186265,84.13847974454984 103.22346568480134,83.72309327707626 106.08876851387322,84.96925255306996 110.74488561414182,89.12311403849162 112.89386273548007,92.86158573254943 113.6101884432137,97.84620929369703 112.17753702774644,101.58467294089496 109.67039705254138,104.0769801212009 105.73060566186905,106.1539016009774 97.13469717092812,105.73851739056408 91.76225436292589,106.56928576854989 87.46430012024939,103.66159569681622 82.80818301998079,102.00005757715553 81.01736875250936,100.33851877436973 80.65920589864254,97.4308242322877 81.73369446024299,89.95388582302257 83.16634587571025,87.876956039574 87.8224629741162,83.72309327707626 91.04592865891755,82.06154697807506 100.00000000186265,80.4000000001397 105.73060566186905,81.2307735751383 108.23774563521147,82.89232021360658 112.53569988161325,87.46156995533966 114.68467700481415,91.61542888451368 114.68467700481415,93.2769712631125 114.32651415094733,95.76928355474956 112.53569988161325,98.67697929032147 110.38672275841236,101.16928825993091 105.37244280613959,103.66159569681622 93.55306863412261,106.56928576854989 91.76225436292589,106.1539016009774 88.89695153385401,103.66159569681622 84.59899729117751,101.58467294089496 83.52450872957706,99.50774911767803 83.88267158158123,94.10774219757877 86.03164870478213,90.78465743875131 97.85102287866175,82.47693361691199 101.79081427119672,81.6461602980271 103.93979139253497,82.47693361691199 107.8795827832073,85.38463889225386 111.46121132001281,89.12311403849162 112.53569988161325,91.61542888451368 112.53569988161325,94.52312760148197 111.46121132001281,99.50774911767803 108.23774563521147,104.49236450297758 104.65611709840596,106.1539016009774 93.1949057802558,106.98466989491135 84.2408344373107,101.16928825993091 82.80818301998079,99.09236422600225 82.45002016797662,97.01543912640773 83.16634587571025,91.20004318258725 84.59899729117751,88.70772808114998 100.35816285386682,80.8153868096415 102.86530283093452,80.8153868096415 108.59590849094093,84.55386616941541 115.04283985868096,91.20004318258725 115.7591655664146,93.69235675223172 115.40100271254778,96.6000539783854 114.68467700481415,98.67697929032147 113.25202558748424,101.16928825993091 107.52141992934048,104.90774884121493 95.34388290159404,108.23082201718353 91.40409151092172,107.81543801841326 87.46430012024939,105.73851739056408 85.67348585091531,103.66159569681622 85.3153229970485,99.50774911767803 87.10613726638258,94.52312760148197 92.12041721865535,92.0308145438321 100.35816285386682,86.63079765764996 103.22346568480134,85.38463889225386 105.01427995413542,85.80002519022673 108.23774563521147,87.876956039574 111.81937417574227,90.78465743875131 112.89386273548007,92.44620015844703 113.6101884432137,98.26159431342967 112.89386273548007,101.16928825993091 111.46121132001281,102.83082672278397 109.31223419681191,104.0769801212009 101.79081427119672,104.90774884121493 92.47858007252216,106.98466989491135 84.95716014318168,102.00005757715553 82.80818301998079,98.26159431342967 82.45002016797662,95.76928355474956 83.16634587571025,91.61542888451368 83.88267158158123,89.95388582302257 86.7479744143784,87.46156995533966 94.2693943399936,85.80002519022673 102.1489771232009,81.2307735751383 105.73060566186905,82.06154697807506 112.53569988161325,88.70772808114998 113.96835129708052,90.36927165160887 115.04283985868096,94.52312760148197 113.96835129708052,99.09236422600225 112.17753702774644,102.00005757715553 110.38672275841236,103.66159569681622 95.7020457573235,107.40005397843197 89.25511438958347,111.5538924660068 89.25511438958347,114.87696019024588 91.40409151092172,121.52308746357448 92.83674292638898,123.18461757735349 95.34388290159404,123.60000000009313 107.16325707547367,121.938470055582 110.38672275841236,122.76923511293717 114.68467700481415,120.69232215010561 119.3407941032201,117.36925919516943" stroke="#4dd2ff" stroke-linecap="round" stroke-linejoin="round" stroke-width="0.5"><title>2023-04-10 2.2km</title></polyline><polyline fill="none" points="150.35786510643084,123.60000000000582 150.28465698682703,122.95021333667682 150.18704616068862,122.66769692141679 149.91861638857517,122.07441151313833 149.84540826897137,121.4811248361948 149.84540826897137,120.63357024011202 149.9918245082954,119.70125719407224 150.16264345415402,119.10796544278855 150.7239057046827,117.44109135240433 150.9679327699123,116.84779476819676 151.23636254202574,115.77420724791591 151.7000139662996,114.44634325249353 152.26127621671185,113.25973600728321 152.99335741298273,111.31029880099231 153.28618989151437,110.77349484612932 153.5546196635114,109.72813679551473 154.01827108778525,108.45675007411046 154.14028462057468,107.49614290933823 154.3843116859207,106.70505215841695 154.87236581672914,105.63142538827378 155.62884971953463,102.83432560533402 155.92168219806626,101.9302065129159 156.50734715501312,100.48926061877864 156.80017963354476,99.44386381463846 157.1174148187274,98.62449599805404 157.36144188407343,98.14417580788722 157.48345541674644,97.91814248941955 157.82509330834728,97.52258373898803 157.92270413448568,97.2965499140555 158.31314743927214,95.96859747293638 159.0452286354266,94.18856614362448 159.48447735328227,93.28441887168447 159.8017125382321,92.15423063730123 160.14335042994935,91.3348412879277 160.46058561489917,90.3459198839846 160.75341809354722,89.6678003121051 161.04625057196245,89.1026994024578 161.21706951770466,88.96142399517703 161.5099019962363,88.9896790823841 163.92576994397677,89.6960553273966 164.2918105419958,89.86558535849326 164.80426737945527,89.61129027302377 165.60955669544637,88.3115561948216 166.36604059813544,87.20960296646808 166.75648390280548,86.67275237175636 167.17132991401013,86.22066685452592 168.14743817562703,85.40125997626456 169.80682222056203,84.29929518539575 170.83173589548096,83.79069457444712 171.2953873196384,83.64941646138323 171.66142791789025,83.64941646138323 171.92985768977087,83.28209303077892 171.92985768977087,83.14081465872005 172.56432805978693,82.71697911075898 172.68634159257635,82.34965444522095 172.85716053843498,80.7955831697036 172.93036865792237,80.62604759464739 173.1987984299194,80.39999999999418 174.46773917018436,80.76732724768226 174.858182474738,80.82383908875636 177.64009102073032,80.90860682877246 178.54299116274342,81.04988633785979 178.61619928234722,81.10639812139561 178.71381010848563,81.2194216538337 178.83582364115864,81.78453862527385 178.81142093474045,82.0953524687502 178.71381010848563,82.46267747099046 178.73821281502023,82.68872338457732 178.95783717394806,82.71697911075898 179.2750723588979,80.9368627363292 179.4214885982219,80.76732724768226 179.73872378317174,80.73907132277964 179.88514002249576,80.7955831697036 179.98275084875058,80.99337454291526 180.0559589683544,82.0953524687502 180.1291670879582,82.34965444522095 180.22677791421302,82.5191889666894 180.56841580581386,82.68872338457732 181.37370512157213,82.94302481692284 181.8129538394278,82.94302481692284 182.15459173102863,82.85825769871008" stroke="#4dd2ff" stroke-linecap="round" stroke-linejoin="round" stroke-width="0.5"><title>2023-04-09 2.8km</title></polyline><polyline fill="none" points="45.2984615387395,128.88678862334928 44.71692307665944,131.6762916498119 44.55076923081651,131.9648604579852 44.30153846181929,132.0610500414041 44.63384615443647,131.6762916498119 45.381538461428136,133.02294533402892 45.21538461558521,134.75435439223656 45.04923076927662,135.3314900394762 44.63384615443647,135.81243614293635 44.63384615443647,137.64002910198178 44.88307692296803,138.7942965166294 44.05230769235641,141.39139304187847 43.72000000020489,142.06471319723641 43.055384615436196,142.73803287261399 43.055384615436196,142.930409834662 43.387692308053374,143.02659830078483 43.055384615436196,143.02659830078483 42.80615384597331,143.5075404854142 41.97538461536169,145.71987137908582 40.81230769213289,147.25888111803215 40.06461538467556,148.8940762176644 39.89846153836697,149.37501541426172 39.98153846152127,150.04832987772534 40.313846153672785,150.52926848642528 40.39692307682708,150.8178315339028 39.150769230909646,154.47295583825326 37.57230769190937,158.2242529154173 37.57230769190937,158.51281361177098 37.73846153821796,158.51281361177098 38.48615384567529,157.8395051829284 38.40307692345232,159.57086874451488 37.821538461372256,160.34036264166934 37.406153846066445,161.97553509217687 36.07692307699472,161.49460231233388 34.91384615423158,161.3022291319794 34.664615384768695,161.3984157271334 34.664615384768695,161.78316200955305 34.830769231077284,161.20604252710473 34.5815384616144,160.91748265339993 32.67076923092827,159.7632422776078 31.09230769239366,159.0899347399827 29.846153846010566,158.9937479098444 29.596923077013344,159.57086874451488 29.34769230755046,158.2242529154173 30.178461538627744,156.30051268602256 30.178461538627744,155.9157641698257 29.181538461707532,156.39669979037717 28.93230769224465,156.39669979037717 29.098461538553238,156.20432557171443 29.098461538553238,156.4928868850111 28.516923076938838,157.8395051829284 28.683076923247427,158.03187906870153 29.015384615398943,157.7433182252571 29.181538461707532,158.60900049109478 28.93230769224465,158.4166267226101 27.520000000018626,158.51281361177098 26.855384615249932,158.2242529154173 25.941538461484015,157.7433182252571 25.858461538795382,157.7433182252571 25.858461538795382,157.93569213082083 26.190769230481237,158.03187906870153 26.523076923098415,157.93569213082083 26.7723076925613,157.7433182252571 26.7723076925613,157.26238329033367 26.60615384625271,156.68526104534976 25.692307692486793,156.0119513136451 24.944615385029465,155.819577016111 23.200000000186265,156.0119513136451 19.876923076808453,154.56914312887238 18.630769230425358,154.18439390766434 16.803076922893524,155.05007943545934 15.806153845973313,155.9157641698257 15.058461538515985,156.20432557171443 15.889230769127607,156.30051268602256 17.052307692356408,155.819577016111 15.473846153821796,156.20432557171443 15.307692307513207,156.20432557171443 15.224615384824574,156.4928868850111 15.723076922819018,157.07000924780732 15.889230769127607,157.45475729368627 15.640000000130385,158.80137422011467 16.13846153812483,158.9937479098444 17.384615384507924,159.18612156057497 16.470769230276346,159.474681963271 15.058461538515985,160.24417593888938 14.476923076901585,160.7251093555824 13.81230769213289,161.87934855592903 13.563076923135668,162.45646762708202 13.646153845824301,162.7450270304107 13.646153845824301,162.55265410465654 12.399999999906868,164.6687541330466 12.649230769369751,164.95731286035152 13.396923076827079,165.4382438767352 15.473846153821796,166.01536077325 18.630769230425358,167.84289528551744 20.292307692114264,168.42001071275445 21.289230769034475,168.5161965828156 21.455384615343064,168.42001071275445 21.123076922725886,168.227638942888 21.123076922725886,168.13145304343197 22.36923076910898,167.3619654936483 23.781538461800665,165.72680236928863 24.86153846140951,163.4183319619624 26.107692307326943,162.93739991699113 26.523076923098415,162.64884057221934 32.67076923092827,165.24587149970466 36.243076923303306,166.11154688842362 36.409230769611895,166.40010517509654 38.569230769295245,167.65052339842077 44.30153846181929,170.05516917456407 45.54769230727106,169.3818689744803 46.46153846150264,169.3818689744803 48.70461538480595,170.53609759517713 49.70153846172616,170.72846889484208 50.44923076918349,170.4399119305308 51.52923076925799,169.2856831922545 52.0276923077181,169.2856831922545 53.60615384625271,169.86279773776187 55.60000000009313,171.11321137665072" stroke="#4dd2ff" stroke-linecap="round" stroke-linejoin="round" stroke-width="0.5"><title>2023-04-09 2.5km</title></polyline><polyline fill="none" points="85.81836443382781,137.57686023696442 85.45616156083997,137.64148506577476 84.67603229579981,138.4492943091318 82.11275042535271,140.03259442036506 82.08488866593689,140.93733377044555 81.9455798685085,141.48663853734615 82.14061218476854,142.06825430615572 82.4192297795089,142.58524519955972 83.06005024712067,143.52228903281502 83.81231775251217,144.75013535635662 85.5676085986197,147.8197302413464 86.37559962307569,149.49991688830778 86.96069657173939,150.46925126493443 87.10000536905136,151.0831614950439 88.18661398801487,152.21404563143733 89.18963732861448,153.92651960082003 89.91404307459015,155.50974197589676 90.30410770711023,156.09133187189582 91.3349928073585,157.54530191779486 92.53304846410174,159.3869876828685 93.06242189393379,160.48553196387365 94.14903051301371,162.29489067036775 94.20475403196178,162.52105977851897 94.14903051301371,162.7795385607751 95.15205385361332,163.81345156999305 98.82980610255618,170.21071292238776 99.02483841881622,170.63073059148155 99.10842369718011,171.11536566817085 99.49848832981661,171.60000000000582 99.63779712701216,171.60000000000582 101.9781849217834,169.53222165963962 102.61900538951159,168.886038147175 104.90366966533475,167.07671726652188 106.35248115728609,166.10743395233294 109.19438062258996,163.74883210629923 109.94664812798146,163.264185706008 111.56263017689344,161.87486189621268 113.09502694720868,160.71170237008482 115.7418940961361,158.28843957386562 116.85636447463185,157.0283355587162 117.16284382867161,156.73754160906537 117.60863198013976,156.18826341698878 117.80366429628339,155.50974197589676 117.99869661254343,154.24962685376522 118.0544201314915,153.60341201676056 117.99869661254343,153.34492571098963 116.6613321583718,150.8246731227846 115.18465890688822,148.4982682345726 113.29005926346872,144.97631705220556 112.81640935258474,144.20083627654822 111.4790448982967,141.80975854137796 110.61533035512548,140.38802804626175 109.86306284961756,138.86935429743608 108.99934830632992,137.5445478176116 108.44211311708204,136.445923586376 107.57839857367799,134.95954353149864 105.15442550042644,130.56498758873204 104.26284919783939,129.14320637099445 103.9563698436832,128.8200733815902 103.25982585700694,128.52925340781803 102.45183483266737,128.39999999999418 102.03390844073147,128.4323133568687 101.39308797311969,128.6585067625565 98.52332674851641,130.4034218642919 95.54211848601699,132.11601432983298 94.87343625898939,132.60070862111752 93.3967630075058,133.50546930381097 89.99762835307047,135.44423344999086 87.65724055829924,136.639798728982 86.87711129325908,137.15679852612084 86.48704666085541,137.31836078883498 86.18056730681565,137.3829856707598" stroke="#ffb800" stroke-linecap="round" stroke-linejoin="round" stroke-width="0.5"><title>2023-04-09 4.1km</title></polyline><polyline fill="none" points="154.59249439649284,145.6800850359723 154.825300632976,149.19008845440112 154.825300632976,155.40008304268122 156.92055676318705,152.43008745787665 159.94703784305602,150.0000885790214 162.0422939741984,149.19008845440112 167.62964365724474,148.11008790088817 170.88893097173423,145.95008546486497 172.0529621578753,142.71007849019952 172.0529621578753,139.74006859352812 171.3545434474945,137.3100580063183 169.9577060258016,135.42004822031595 168.32806236762553,134.07004040060565 166.23280623648316,133.26003537676297 164.83596881572157,133.26003537676297 163.20632515847683,133.5300370787736 157.85178171098232,135.96005115448497 152.73004450183362,135.96005115448497 151.79881955403835,137.04005669103935 151.10040084365755,139.2000664351508 151.33320708107203,141.090073507512 153.4284632122144,143.79008125769906 161.3438752638176,148.92008835729212 171.58734968397766,145.4100845796056 173.68260581418872,145.4100845796056 172.98418710380793,143.79008125769906 172.0529621578753,142.71007849019952 170.19051226228476,141.6300752782263 168.0952561320737,141.090073507512 165.53438752610236,140.82007257989608 159.4814253700897,141.090073507512 155.05810686945915,140.2800706422422 150.63478837069124,140.55007162457332 153.89407568518072,141.6300752782263 157.61897547449917,145.4100845796056 159.71423160564154,145.95008546486497 167.86244989465922,145.95008546486497 171.3545434474945,144.8700835823547 172.5185746308416,144.060081880074 172.75138086732477,142.71007849019952 172.28576839435846,138.93006531358697 172.5185746308416,139.2000664351508 172.28576839435846,138.6600641645491 168.0952561320737,136.23005258082412 165.53438752610236,135.6900497013703 164.60316257923841,135.6900497013703 160.41265031602234,137.58005929319188 159.4814253700897,137.3100580063183 156.45494429115206,132.99003364611417 156.45494429115206,131.91002644971013 156.92055676318705,131.64002458075993 159.71423160564154,130.290014823433 165.30158128868788,128.4000000001397 168.0952561320737,128.4000000001397 169.2592873154208,129.4800086361356 169.9577060258016,130.5600168297533 169.9577060258016,133.8000387540087 167.16403118427843,140.55007162457332 164.60316257923841,144.60008304286748 162.50790644716471,145.1400840941351 159.01581289526075,141.6300752782263 155.05810686945915,139.47006752737798 153.89407568518072,139.47006752737798 152.49723826441914,140.01006963127293 151.10040084365755,141.6300752782263 150.63478837069124,142.44007772835903 151.33320708107203,142.71007849019952 155.05810686945915,142.44007772835903 156.22213805373758,143.79008125769906 156.68775052763522,148.11008790088817 155.5237193442881,151.89008790021762 155.5237193442881,156.75007992819883 156.45494429115206,158.64007440581918 158.31739418487996,159.720070641255 159.94703784305602,160.2600685930811 168.79367484152317,159.18007257883437 173.2169933412224,160.2600685930811 175.3122494732961,161.880061783595 176.70908689312637,164.31004970078357 176.24347442016006,166.74003537534736 175.3122494732961,167.82002828991972 166.0,170.52000863617286 162.50790644716471,169.71001482289284 160.87826278991997,168.6300226834137 159.4814253700897,166.47003707801923 157.61897547449917,164.58004821953364 156.68775052763522,161.880061783595 156.68775052763522,159.18007257883437 158.55020042229444,154.0500854642596 158.31739418487996,151.89008790021762 157.15336300060153,150.0000885790214 152.96285073831677,145.4100845796056 151.79881955403835,142.98007922293618 151.79881955403835,140.55007162457332 152.73004450183362,138.39006298803724 154.59249439649284,136.23005258082412 160.1798440804705,134.61004361184314 166.0,131.64002458075993 168.32806236762553,131.64002458075993 170.88893097173423,132.450030103093 172.5185746308416,134.07004040060565 173.2169933412224,135.6900497013703 172.98418710380793,140.55007162457332 171.82015592046082,143.52008060668595 170.19051226228476,145.1400840941351 168.56086860504,145.95008546486497 160.64545655343682,148.38008808041923 159.01581289526075,148.65008823247626 157.386169238016,147.57008745800704 154.59249439649284,144.33008247590624 152.03162579145283,142.71007849019952 151.10040084365755,141.090073507512 151.5660133184865,138.6600641645491 153.19565697479993,136.77005534805357 161.3438752638176,132.180028290255 163.20632515847683,131.64002458075993 166.4656124729663,131.91002644971013 170.19051226228476,132.99003364611417 172.28576839435846,134.61004361184314 173.2169933412224,136.50005397829227 173.44979957863688,139.2000664351508 173.2169933412224,141.090073507512 172.28576839435846,143.79008125769906 171.12173721008003,145.6800850359723 166.93122494779527,148.11008790088817 156.92055676318705,152.16008769278415 155.5237193442881,153.24008658598177 155.05810686945915,155.6700824748259 156.22213805373758,164.58004821953364 157.15336300060153,167.55003010248765 158.55020042229444,169.17001880914904 160.87826278991997,170.2500107260421 167.16403118427843,171.60000000009313 168.79367484152317,171.60000000009313 170.19051226228476,171.0600043735467 174.14821828901768,167.82002828991972 174.84663699846715,163.50005397736095 175.3122494732961,162.69005800504237 177.40750560443848,161.0700653125532 180.6667929198593,159.45007162354887 181.36521162930876,158.64007440581918 180.89959915541112,157.83007693849504 180.20118044596165,157.56007772730663 174.613830761984,157.2900784886442" stroke="#4dd2ff" stroke-linecap="round" stroke-linejoin="round" stroke-width="0.5"><title>2023-04-06 2.2km</title></polyline><polyline fill="none" points="16.560719683766365,181.1127509479411 20.624241311103106,182.68366664205678 23.67188253067434,185.4327675565146 23.67188253067434,186.21822459832765 22.31737532094121,187.78913819836453 18.592480497434735,187.78913819836453 18.931107299402356,188.1818664984312 23.67188253067434,184.6473103549797 27.058150552213192,185.04003897611983 31.121672179549932,183.86185298953205 35.18519380688667,179.93456375482492 38.232835026457906,179.14910542452708 41.957729851827025,180.32729285908863 47.03713188506663,185.04003897611983 48.73026589490473,188.574594757054 50.08477310463786,193.28733072709292 47.37575868703425,200.3564238108229 46.02125147730112,201.14187779137865 36.5397010166198,201.14187779137865 32.81480618938804,201.9273316131439 30.105791771784425,200.74915082124062 24.6877629365772,194.4655138135422 18.25385369360447,191.71641938155517 16.560719683766365,188.574594757054 18.25385369360447,185.8254960970953 21.301494913175702,184.6473103549797 27.396777356043458,184.6473103549797 35.523820608854294,179.93456375482492 38.232835026457906,179.14910542452708 41.61910304799676,179.93456375482492 43.31223705969751,181.1127509479411 48.39163909293711,186.61095305881463 49.40751950070262,188.9673229767941 50.08477310463786,192.89460295112804 49.746146304532886,196.82187889982015 48.73026589490473,198.785515363561 45.6826246753335,200.3564238108229 40.264595840126276,200.3564238108229 31.121672179549932,201.53460472240113 18.592480497434735,190.93096346687526 18.25385369360447,190.14550739270635 18.931107299402356,188.1818664984312 26.042270144447684,183.0763954659924 37.89420822262764,179.5418346102815 42.63498345576227,180.72002192446962 48.05301229096949,186.21822459832765 48.73026589490473,187.39640986011364 49.746146304532886,193.68005846231245 49.40751950070262,197.2146062727552 47.37575868703425,199.9636967596598 43.65086386166513,201.14187779137865 35.523820608854294,199.9636967596598 30.44441857561469,200.74915082124062 28.412657760083675,199.57096966775134 26.71952375024557,196.4291514866054 24.01050933264196,194.07278615864925 20.28561450727284,192.109147278592 18.931107299402356,190.93096346687526 17.576600089669228,187.00368147948757 18.931107299402356,183.86185298953205 21.640121717005968,182.68366664205678 24.01050933264196,182.68366664205678 27.058150552213192,184.25458169262856 31.460298981517553,183.4691242480185 35.862447410821915,183.0763954659924 39.925969038158655,180.72002192446962 42.63498345576227,179.93456375482492 44.66674426943064,180.72002192446962 49.40751950070262,185.04003897611983 50.42339990660548,188.1818664984312 50.76202671043575,190.93096346687526 50.08477310463786,194.07278615864925 49.068892696872354,196.4291514866054 46.35987827926874,198.0000608987175 31.121672179549932,201.53460472240113 20.28561450727284,194.4655138135422 17.915226893499494,190.5382354487665 17.915226893499494,189.36005115509033 19.269734099507332,185.04003897611983 21.301494913175702,183.86185298953205 25.703643342480063,185.04003897611983 29.42853816971183,184.25458169262856 35.523820608854294,181.1127509479411 38.57146182842553,180.32729285908863 40.6032226420939,180.32729285908863 42.97361025772989,181.5054799320642 47.03713188506663,185.04003897611983 48.05301229096949,187.39640986011364 49.068892696872354,192.109147278592 48.73026589490473,196.82187889982015 47.37575868703425,198.785515363561 45.34399787336588,199.9636967596598 32.47617938928306,201.53460472240113 28.074030958116055,199.57096966775134 20.28561450727284,194.07278615864925 18.592480497434735,192.5018751360476 17.915226893499494,190.93096346687526 17.915226893499494,188.574594757054 19.269734099507332,183.0763954659924 20.962868113070726,182.29093777923845 24.6877629365772,182.68366664205678 26.71952375024557,181.89820887544192 34.16931340098381,177.1854588945862 37.55558142066002,176.4000000001397 40.94184944406152,177.1854588945862 46.02125147730112,181.1127509479411 47.71438548900187,184.25458169262856 48.39163909293711,189.36005115509033 47.03713188506663,194.8582414293196 44.32811746560037,196.82187889982015 38.57146182842553,197.60733360634185 32.81480618938804,197.60733360634185 30.105791771784425,196.4291514866054 27.396777356043458,195.64369653747417 22.65600212290883,193.68005846231245 20.624241311103106,192.109147278592 19.94698770530522,189.7527792940382 20.624241311103106,186.61095305881463 21.97874851897359,184.6473103549797 26.38089694827795,186.21822459832765 31.798925783485174,185.8254960970953 36.5397010166198,179.14910542452708 38.232835026457906,178.36364693264477 40.94184944406152,179.14910542452708 46.35987827926874,183.0763954659924 48.73026589490473,186.21822459832765 50.08477310463786,189.7527792940382 50.08477310463786,193.68005846231245 49.40751950070262,196.03642403124832 48.05301229096949,197.60733360634185 45.34399787336588,198.785515363561 32.47617938928306,200.3564238108229 30.44441857561469,199.9636967596598 28.074030958116055,198.0000608987175 26.71952375024557,198.39278815081343 20.962868113070726,196.4291514866054 18.25385369360447,193.28733072709292 16.89934648387134,189.36005115509033 16.89934648387134,186.61095305881463 18.592480497434735,185.04003897611983 20.28561450727284,184.6473103549797 24.34913613460958,185.04003897611983 29.42853816971183,183.4691242480185 33.830686597153544,182.68366664205678 38.57146182842553,179.93456375482492 41.957729851827025,181.1127509479411 46.69850508309901,186.61095305881463 48.05301229096949,190.93096346687526 48.39163909293711,196.03642403124832 48.05301229096949,198.0000608987175 46.69850508309901,199.9636967596598 44.66674426943064,200.74915082124062 39.925969038158655,200.3564238108229 35.862447410821915,200.74915082124062 27.058150552213192,206.2473247477319 26.38089694827795,208.2109563809354 27.058150552213192,216.85092360619456 28.074030958116055,218.02909944579005 29.767164969816804,219.20727492240258 35.523820608854294,218.81454980396666 39.58734223432839,219.60000000009313 41.957729851827025,219.20727492240258 48.39163909293711,215.67274740501307 51.43928031437099,214.88729640329257" stroke="#4dd2ff" stroke-linecap="round" stroke-linejoin="round" stroke-width="0.5"><title>2023-04-04 2.2km</title></polyline><polyline fill="none" points="94.96634802408516,200.33521611243486 93.70793503057212,200.0433244453743 93.20456983242184,200.62710775062442 92.70120463520288,201.502782483818 93.20456983242184,202.96223977324553 94.21130022779107,202.96223977324553 101.00673039630055,197.12440612516366 111.57739954534918,193.32980783493258 112.58412994164973,192.16223811241798 112.83581253886223,190.41088263131678 112.08076474256814,184.86491650086828 111.57739954534918,183.11355653055944 109.56393875554204,180.77840822865255 105.28533457498997,177.2756821832154 103.02019118517637,176.4000000001397 100.25168260000646,177.2756821832154 94.71466542501003,180.48651455622166 92.19783943705261,180.48651455622166 90.18437864724547,180.19462085375562 87.91923525743186,181.36219548410736 87.16418746113777,182.82166309771128 86.91250486299396,183.6973433070816 87.41587006021291,184.28112996462733 91.69447423890233,187.7838473902084 95.97307841852307,193.03791544935666 99.49663480278105,194.7892693139147 106.29206496942788,194.7892693139147 112.83581253886223,193.62170019070618 114.09422553423792,192.45413058740087 113.59086033515632,190.9946679121349 113.3391777370125,187.7838473902084 110.82235174905509,184.28112996462733 107.80216056294739,182.52976963552646 101.25841299444437,181.65408906619996 96.22476101759821,182.52976963552646 92.70120463520288,182.23787614284083 89.17764825094491,178.15136409923434 86.66082226391882,176.98378815222532 85.15072667133063,177.2756821832154 84.89904407132417,177.56757618533447 84.89904407132417,178.73515189322643 87.91923525743186,181.9459826196544 91.44279164075851,184.86491650086828 95.72139582037926,193.32980783493258 98.74158700648695,195.9568379591219 101.51009559351951,197.70819002878852 105.28533457498997,197.12440612516366 109.56393875554204,195.08116152044386 111.32571694534272,193.32980783493258 112.33244734164327,191.57845307164825 112.33244734164327,186.61627539270557 111.57739954534918,184.28112996462733 110.82235174905509,183.11355653055944 106.54374756943434,180.48651455622166 103.27187378425151,179.61083335918374 101.25841299444437,179.90272712148726 97.7348566101864,181.65408906619996 94.21130022779107,181.9459826196544 91.1911090426147,181.36219548410736 87.91923525743186,183.98923665075563 87.66755265835673,186.03248921595514 88.17091785743833,188.07574031525292 89.17764825094491,189.24331171251833 93.70793503057212,190.9946679121349 96.9798088138923,196.2487300450448 98.23822180833668,196.54062210209668 106.54374756943434,195.66494584316388 109.81562135368586,194.49737707758322 111.0740343471989,193.03791544935666 111.82908214442432,191.57845307164825 112.33244734164327,188.65952607314102 112.08076474256814,185.4487029183656 111.57739954534918,183.6973433070816 110.31898655183613,181.65408906619996 107.29879536572844,178.73515189322643 104.27860417962074,177.56757618533447 102.76850858703256,177.85947015788406 96.72812621667981,181.07030187174678 93.20456983242184,181.36219548410736 90.68774384446442,180.19462085375562 89.17764825094491,180.77840822865255 88.17091785743833,181.65408906619996 87.91923525743186,182.82166309771128 88.42260045465082,184.57302324683405 91.44279164075851,186.90816843719222 93.70793503057212,188.95141890714876 95.72139582037926,194.49737707758322 98.23822180833668,195.08116152044386 104.53028677869588,195.08116152044386 109.31225615553558,193.62170019070618 110.82235174905509,192.16223811241798 111.82908214442432,190.11898994655348 112.08076474256814,188.65952607314102 111.57739954534918,185.15680972416885 111.0740343471989,183.98923665075563 109.56393875554204,182.52976963552646 107.80216056294739,181.65408906619996 102.2651433898136,180.77840822865255 92.95288723427802,182.52976963552646 89.42933085095137,180.77840822865255 87.41587006021291,182.23787614284083 86.40913966484368,183.98923665075563 86.66082226391882,185.4487029183656 88.42260045465082,188.65952607314102 92.95288723427802,191.28656050679274 95.46971322223544,195.08116152044386 98.48990440741181,195.9568379591219 107.55047796480358,195.37305369623937 110.06730395182967,194.20548481191508 111.32571694534272,192.74602303327993 112.33244734164327,190.11898994655348 112.33244734164327,188.65952607314102 112.08076474256814,185.7405960818287 110.31898655183613,183.6973433070816 108.55720835924149,182.52976963552646 106.79543016757816,182.23787614284083 98.74158700648695,183.11355653055944 95.97307841852307,182.52976963552646 91.44279164075851,179.90272712148726 88.92596565373242,179.90272712148726 86.91250486299396,180.77840822865255 89.42933085095137,185.15680972416885 93.45625243149698,189.24331171251833 95.2180306231603,193.03791544935666 97.4831740129739,193.91359251644462 105.78869977220893,194.7892693139147 111.82908214442432,193.62170019070618 112.83581253886223,191.87034560739994 113.3391777370125,189.24331171251833 112.33244734164327,185.15680972416885 109.56393875554204,182.82166309771128 105.78869977220893,181.36219548410736 96.9798088138923,181.9459826196544 91.44279164075851,179.90272712148726 89.68101344909519,179.90272712148726 87.16418746113777,181.07030187174678 86.91250486299396,182.23787614284083 87.91923525743186,184.57302324683405 94.21130022779107,190.11898994655348 96.72812621667981,195.08116152044386 98.23822180833668,196.54062210209668 99.74831740185618,197.12440612516366 107.55047796480358,196.2487300450448 111.32571694534272,194.20548481191508 113.08749513793737,192.45413058740087 113.3391777370125,190.11898994655348 111.57739954534918,183.98923665075563 110.57066914997995,182.52976963552646 104.78196937777102,176.69189409120008 103.52355638332665,176.4000000001397 101.25841299444437,177.56757618533447 98.74158700648695,180.48651455622166 96.9798088138923,181.36219548410736 94.96634802408516,181.9459826196544 88.67428305465728,181.65408906619996 86.91250486299396,182.52976963552646 87.66755265835673,184.28112996462733 89.17764825094491,185.7405960818287 93.70793503057212,189.53520448692143 96.72812621667981,193.91359251644462 97.4831740129739,194.49737707758322 99.2449522037059,195.08116152044386 103.27187378425151,195.66494584316388 107.55047796480358,197.4162980923429 111.57739954534918,197.4162980923429 112.83581253886223,196.8325141291134 114.34590813145041,191.87034560739994 114.09422553423792,188.36763320863247 113.3391777370125,186.32438232027926 110.57066914997995,182.23787614284083 106.04038237221539,180.19462085375562 100.25168260000646,179.90272712148726 94.71466542501003,180.19462085375562 92.44952203705907,179.61083335918374 90.93942644353956,179.61083335918374 89.42933085095137,180.19462085375562 86.91250486299396,182.52976963552646 86.91250486299396,183.6973433070816 87.66755265835673,185.15680972416885 90.43606124725193,187.4919544358272 94.46298282686621,190.11898994655348 97.4831740129739,194.7892693139147 99.49663480278105,195.66494584316388 103.52355638332665,195.37305369623937 106.54374756943434,195.9568379591219 109.06057355646044,195.66494584316388 111.32571694534272,195.08116152044386 112.33244734164327,194.20548481191508 113.08749513793737,192.45413058740087 113.59086033515632,187.7838473902084 112.33244734164327,185.7405960818287 110.31898655183613,183.98923665075563 104.53028677869588,181.65408906619996 102.51682598795742,181.36219548410736 96.47644361667335,182.23787614284083 91.44279164075851,181.07030187174678 90.43606124725193,181.36219548410736 87.91923525743186,183.98923665075563 87.66755265835673,185.7405960818287 89.17764825094491,187.4919544358272 93.20456983242184,190.9946679121349 94.96634802408516,194.7892693139147 95.2180306231603,196.2487300450448 93.70793503057212,198.5838656593114 93.70793503057212,202.0865654887166 95.72139582037926,208.2162798217032 98.23822180833668,209.67573367082514 101.00673039630055,209.9676243502181 107.0471127666533,208.80006145173684 111.82908214442432,208.50817065150477 113.84254293516278,209.67573367082514 114.84927332960069,211.1351867709309 114.84927332960069,212.01085827173665 113.59086033515632,214.0540907268878 108.30552576109767,216.3892117375508 105.03365197591484,218.7243308336474 102.51682598795742,219.60000000009313 101.00673039630055,219.30811030813493 98.48990440741181,218.14055123901926 97.4831740129739,213.76220046635717 97.4831740129739,212.3027487124782 98.23822180833668,211.1351867709309 103.02019118517637,207.34060715441592 105.53701717313379,206.4649342163466 112.83581253886223,202.3784569464624 114.84927332960069,202.0865654887166 114.84927332960069,203.83791378792375 114.59759073145688,203.83791378792375 115.10095592867583,203.25413114135154 114.59759073145688,202.67034837510437 114.84927332960069,202.96223977324553" stroke="#ffd700" stroke-linecap="round" stroke-linejoin="round" stroke-width="0.5"><title>2023-04-01 3.2km</title></polyline><polyline fill="none" points="163.03431378118694,194.56059426814318 160.89901970513165,197.0370294204913 157.3401962434873,200.33893940178677 159.00098052620888,198.412825739244 163.5088235763833,195.6612323957961 165.88137255050242,194.83575384202413 170.8637253968045,195.11091338773258 172.9990194728598,194.56059426814318 174.42254885751754,193.45995568926446 175.60882334411144,191.258677177364 176.0833331393078,187.68159574479796 175.37156844697893,184.6548308096826 174.18529396038502,182.4535450770054 171.33823519106954,179.70193537068553 168.96568621695042,178.8764519081451 166.35588234569877,179.15161309065297 160.18725501280278,182.72870589210652 157.81470603868365,182.4535450770054 154.73039237316698,180.80257959174924 152.83235319331288,181.62806246080436 153.78137278277427,182.72870589210652 158.76372562814504,185.20515196141787 161.6107843965292,189.60771710891277 163.27156867925078,190.4331972701475 170.62647049874067,190.4331972701475 174.42254885751754,189.60771710891277 175.60882334411144,188.50707649905235 176.0833331393078,187.4064354384318 174.42254885751754,183.82934887171723 172.0499998833984,182.4535450770054 169.20294111408293,181.62806246080436 166.35588234569877,182.17838423280045 161.13627460226417,184.10450954572298 158.52647073101252,183.82934887171723 155.67941196169704,182.17838423280045 154.96764726936817,182.4535450770054 154.0186276808381,183.55418816953897 153.54411788471043,184.92999139940366 154.0186276808381,186.30579392472282 159.2382354233414,189.88287719059736 162.79705888498574,195.11091338773258 163.98333337157965,195.9363918567542 166.35588234569877,196.48671069485135 172.0499998833984,195.11091338773258 173.9480390623212,194.28543466585688 175.1343135498464,193.45995568926446 176.0833331393078,191.258677177364 176.32058803737164,189.33255699882284 175.84607824124396,186.5809543458745 174.42254885751754,184.37967019155622 170.62647049874067,181.62806246080436 167.30490193516016,180.80257959174924 159.95000011567026,184.10450954572298 158.0519609367475,183.82934887171723 155.44215706456453,182.72870589210652 153.78137278277427,183.0038666788023 152.83235319331288,184.37967019155622 152.83235319331288,185.75547299906611 153.78137278277427,186.8561147376895 157.81470603868365,189.33255699882284 161.37352949939668,192.63447645911947 163.03431378118694,193.18479597358964 169.9147058064118,193.45995568926446 172.28725478146225,193.18479597358964 173.9480390623212,192.08415683126077 175.1343135498464,190.4331972701475 175.60882334411144,188.50707649905235 175.60882334411144,186.8561147376895 175.1343135498464,185.75547299906611 172.28725478146225,183.2790274382569 168.7284313198179,182.17838423280045 161.13627460226417,183.2790274382569 156.62843155208975,182.72870589210652 154.2558825770393,183.82934887171723 153.78137278277427,184.92999139940366 153.78137278277427,186.03063347632997 154.73039237316698,187.68159574479796 158.76372562814504,190.70835726801306 161.6107843965292,194.28543466585688 162.79705888498574,195.11091338773258 164.93235296104103,195.6612323957961 171.33823519106954,195.38607290573418 174.65980375465006,194.01027503516525 175.60882334411144,192.9096362304408 176.32058803737164,190.98351723654196 176.55784293357283,189.33255699882284 175.84607824124396,186.03063347632997 172.9990194728598,182.17838423280045 170.8637253968045,180.80257959174924 168.0166666265577,179.97709646844305 160.66176480799913,183.2790274382569 158.28921583388,183.55418816953897 155.44215706456453,183.0038666788023 153.54411788471043,183.0038666788023 153.0696080904454,183.55418816953897 153.30686298757792,184.92999139940366 154.2558825770393,186.5809543458745 157.10294134635478,189.33255699882284 159.4754903195426,193.18479597358964 161.37352949939668,195.11091338773258 165.16960785817355,197.0370294204913 169.20294111408293,196.76187007129192 172.9990194728598,195.11091338773258 175.37156844697893,192.35931665892713 176.0833331393078,189.88287719059736 176.0833331393078,182.72870589210652 170.62647049874067,180.5274185782764 166.5931372428313,179.97709646844305 160.89901970513165,183.0038666788023 154.96764726936817,183.2790274382569 153.0696080904454,184.37967019155622 152.59509829618037,185.48031249502674 153.30686298757792,186.8561147376895 156.62843155208975,189.0573968612589 159.4754903195426,192.9096362304408 160.66176480799913,193.73511537653394 166.8303921399638,194.56059426814318 171.33823519106954,194.28543466585688 173.23627436999232,193.45995568926446 174.42254885751754,192.08415683126077 175.37156844697893,190.15803724480793 175.60882334411144,188.23191627650522 174.65980375465006,186.03063347632997 169.9147058064118,181.62806246080436 168.25392152462155,181.35290153254755 166.5931372428313,181.62806246080436 159.95000011567026,184.10450954572298 157.81470603868365,183.82934887171723 154.96764726936817,182.17838423280045 154.0186276808381,182.72870589210652 153.30686298757792,184.37967019155622 153.78137278277427,187.4064354384318 155.204902167432,189.60771710891277 159.95000011567026,191.80899697518907 163.27156867925078,194.83575384202413 164.22058826964349,195.11091338773258 168.0166666265577,194.01027503516525 172.52450967766345,193.73511537653394 174.18529396038502,192.9096362304408 175.60882334411144,191.258677177364 176.32058803737164,188.78223669412546 176.55784293357283,186.5809543458745 176.0833331393078,183.55418816953897 175.37156844697893,181.90322336088866 173.9480390623212,180.2522575375624 172.28725478146225,178.8764519081451 169.9147058064118,178.6012906981632 167.7794117294252,179.15161309065297 162.79705888498574,183.2790274382569 161.13627460226417,184.10450954572298 159.00098052620888,184.10450954572298 156.3911766540259,183.0038666788023 154.2558825770393,183.2790274382569 153.30686298757792,184.10450954572298 153.30686298757792,185.20515196141787 153.78137278277427,187.68159574479796 154.49313747510314,188.78223669412546 158.76372562814504,190.4331972701475 161.37352949939668,194.28543466585688 163.5088235763833,195.11091338773258 171.57549008820206,194.56059426814318 173.71078416425735,194.01027503516525 175.1343135498464,192.63447645911947 176.0833331393078,189.88287719059736 175.84607824124396,187.95675602462143 174.42254885751754,186.03063347632997 171.81274498533458,184.37967019155622 168.0166666265577,183.55418816953897 161.13627460226417,184.92999139940366 156.15392175782472,184.10450954572298 154.2558825770393,184.92999139940366 153.78137278277427,186.5809543458745 154.2558825770393,187.95675602462143 155.44215706456453,189.0573968612589 160.89901970513165,191.80899697518907 162.79705888498574,194.83575384202413 164.45784316584468,196.2115512904711 165.88137255050242,196.48671069485135 172.52450967766345,194.83575384202413 174.42254885751754,193.18479597358964 175.1343135498464,191.80899697518907 175.37156844697893,189.0573968612589 175.1343135498464,183.55418816953897 174.65980375465006,181.35290153254755 173.71078416425735,179.97709646844305 169.6774509092793,176.67516143550165 168.49117642175406,176.4000000001397 167.54215683229268,176.95032284315675 163.27156867925078,181.0777405758854 160.66176480799913,182.72870589210652 158.76372562814504,183.0038666788023 155.91666685976088,182.72870589210652 154.73039237316698,183.2790274382569 153.54411788471043,184.37967019155622 153.0696080904454,185.75547299906611 153.0696080904454,186.8561147376895 154.0186276808381,188.23191627650522 159.00098052620888,191.258677177364 160.89901970513165,194.83575384202413 161.13627460226417,197.31218874105252 159.00098052620888,199.788621353684 158.76372562814504,202.26505168131553 159.71274521760643,205.0166382554453 160.89901970513165,206.94274717825465 164.22058826964349,208.04338022740558 169.9147058064118,207.49306375952438 174.8970586527139,208.3185384196695 177.0323527297005,209.41917090537027 179.1676468057558,212.1707501448691 179.4049017028883,213.54653870570473 179.1676468057558,214.64716904819943 177.2696076259017,216.29811371397227 169.9147058064118,219.32484296429902 166.35588234569877,219.60000000009313 164.22058826964349,219.0496859003324 162.08529419265687,217.39874292700551 161.13627460226417,213.82169633382 161.37352949939668,211.89559234748594 163.5088235763833,208.8688547189813 165.88137255050242,208.04338022740558 170.8637253968045,208.5936965837609 174.8970586527139,204.74147972511128 178.2186272162944,203.91600396414287" stroke="#ffda00" stroke-linecap="round" stroke-linejoin="round" stroke-width="0.5"><title>2023-03-31 3.1km</title></polyline><polyline fill="none" points="31.870422534644604,254.99720067856833 31.26197182945907,257.1141730148811 27.307042252272367,260.28962907753885 24.26478873193264,260.99528558179736 21.222535209730268,260.64245734759606 20.918309858068824,259.93680077046156 23.960563380271196,255.35002949205227 29.13239436596632,251.1160813467577 31.26197182945907,250.41042281594127 38.563380282372236,249.3519347482361 41.90985915437341,247.234957637731 43.43098591454327,244.05948952957988 43.73521126806736,240.53118819603696 43.12676056101918,236.29722181917168 41.605633802711964,232.76891252677888 40.3887323923409,231.00475652469322 35.82535211183131,227.82927344064228 30.34929577447474,226.77077842713334 29.13239436596632,227.4764418064151 26.090140843763947,231.35758779686876 23.352112675085664,233.47457467508502 18.484507041051984,235.23872941127047 13.008450703695416,238.76703617163002 15.138028169050813,241.5896789766848 21.526760563254356,244.7651493619196 27.002816900610924,249.3519347482361 28.828169014304876,249.704764140537 37.95492957532406,248.646275856765 43.43098591454327,246.88212799234316 44.647887324914336,244.41231946414337 44.03943661786616,239.82552749384195 41.30140845105052,235.9443910527043 30.653521126136184,232.06325023411773 23.960563380271196,233.82740569417365 20.309859154745936,233.47457467508502 18.18028168939054,232.76891252677888 14.52957746386528,234.18023667833768 14.52957746386528,235.9443910527043 15.442253518849611,237.7085445234552 22.743661971762776,244.41231946414337 26.394366197288036,250.41042281594127 29.13239436596632,252.17456887220033 31.566197181120515,252.17456887220033 40.0845070425421,249.3519347482361 43.73521126806736,246.1764685944654 45.256338028237224,243.35382955218665 44.03943661786616,236.65005255001597 40.0845070425421,235.59156024968252 36.738028168678284,231.35758779686876 31.566197181120515,230.65192521479912 29.13239436596632,231.00475652469322 22.439436618238688,234.18023667833768 17.267605632543564,233.82740569417365 13.921126758679748,236.29722181917168 15.442253518849611,238.41420565894805 20.309859154745936,240.88401849172078 22.439436618238688,243.00099950958975 24.569014083594084,246.52929831133224 26.090140843763947,247.94061681977473 29.740845069289207,248.646275856765 37.650704223662615,247.94061681977473 39.171830985695124,247.234957637731 41.605633802711964,245.11797922546975 43.73521126806736,240.17835786286741 44.03943661786616,238.41420565894805 42.82253520935774,233.47457467508502 42.518309857696295,229.59343107091263 41.30140845105052,228.88776812679134 34.60845070332289,228.88776812679134 27.9154929574579,233.12174361967482 23.960563380271196,234.18023667833768 21.8309859149158,233.82740569417365 17.571830986067653,231.71041903388686 16.659154929220676,232.76891252677888 14.225352112203836,237.00288324453868 16.96338028088212,239.82552749384195 22.439436618238688,242.2953393147327 24.569014083594084,245.4708090510685 25.48169014044106,247.94061681977473 26.698591547086835,248.9991053205449 34.912676056846976,249.3519347482361 39.78028168901801,248.29344635666348 41.605633802711964,247.234957637731 42.518309857696295,246.52929831133224 43.73521126806736,243.35382955218665 44.03943661786616,241.23684875201434 43.43098591454327,238.76703617163002 41.30140845105052,236.29722181917168 38.867605632171035,234.53306762618013 34.60845070332289,232.76891252677888 31.566197181120515,232.06325023411773 23.656338028609753,234.18023667833768 19.39718309789896,232.76891252677888 15.442253518849611,234.18023667833768 16.354929575696588,235.9443910527043 18.18028168939054,238.0613751085475 23.04788732342422,241.94250916340388 26.090140843763947,247.5877872472629 27.307042252272367,248.646275856765 30.04507042095065,250.05759349674918 37.95492957532406,249.3519347482361 42.82253520935774,247.234957637731 44.03943661786616,242.6481694295071 42.82253520935774,237.7085445234552 38.867605632171035,234.18023667833768 37.95492957532406,232.06325023411773 31.870422534644604,231.00475652469322 25.48169014044106,233.82740569417365 22.743661971762776,234.18023667833768 19.092957746237516,233.82740569417365 17.267605632543564,232.76891252677888 15.7464788723737,235.23872941127047 14.52957746386528,238.41420565894805 15.7464788723737,241.5896789766848 21.526760563254356,244.05948952957988 24.873239435255527,248.29344635666348 26.090140843763947,249.3519347482361 30.04507042095065,250.05759349674918 35.521126760169864,250.05759349674918 40.0845070425421,248.646275856765 42.82253520935774,245.82363884034567 43.12676056101918,244.05948952957988 42.82253520935774,241.23684875201434 40.3887323923409,236.65005255001597 35.82535211183131,234.53306762618013 31.26197182945907,233.12174361967482 24.873239435255527,234.53306762618013 18.484507041051984,231.71041903388686 16.354929575696588,232.76891252677888 12.704225352033973,233.12174361967482 12.704225352033973,234.53306762618013 15.138028169050813,237.00288324453868 22.439436618238688,240.53118819603696 23.352112675085664,242.6481694295071 24.873239435255527,248.29344635666348 26.698591547086835,249.704764140537 33.08732394129038,248.9991053205449 37.95492957532406,249.3519347482361 42.518309857696295,247.234957637731 44.03943661786616,244.05948952957988 44.34366197139025,241.94250916340388 41.90985915437341,235.9443910527043 37.650704223662615,233.47457467508502 33.39154929481447,232.4160813987255 23.960563380271196,234.18023667833768 18.484507041051984,233.47457467508502 16.354929575696588,234.18023667833768 13.921126758679748,236.65005255001597 14.52957746386528,238.76703617163002 16.96338028088212,240.88401849172078 20.309859154745936,243.00099950958975 24.569014083594084,249.3519347482361 25.785915492102504,250.05759349674918 36.738028168678284,249.704764140537 41.605633802711964,247.94061681977473 43.43098591454327,243.35382955218665 43.12676056101918,237.7085445234552 43.73521126806736,234.53306762618013 39.47605633735657,231.35758779686876 31.566197181120515,228.88776812679134 30.653521126136184,229.24059961759485 28.523943660780787,232.4160813987255 24.569014083594084,233.82740569417365 19.39718309789896,233.47457467508502 16.96338028088212,232.06325023411773 14.833802815526724,233.12174361967482 12.400000000372529,233.47457467508502 12.704225352033973,235.9443910527043 14.52957746386528,239.82552749384195 15.138028169050813,240.17835786286741 16.659154929220676,239.47269709059037 20.61408450640738,240.53118819603696 22.439436618238688,243.35382955218665 25.48169014044106,248.9991053205449 27.61126760393381,250.41042281594127 37.04225352033973,250.41042281594127 40.99718309752643,248.29344635666348 43.43098591454327,245.11797922546975 43.43098591454327,241.5896789766848 42.82253520935774,238.41420565894805 41.90985915437341,237.00288324453868 39.47605633735657,234.53306762618013 36.12957746349275,233.12174361967482 30.957746477797627,233.47457467508502 21.526760563254356,236.29722181917168 19.701408449560404,235.59156024968252 17.571830986067653,233.47457467508502 14.225352112203836,235.59156024968252 14.225352112203836,237.35571390111 14.833802815526724,238.76703617163002 18.788732394576073,240.88401849172078 22.439436618238688,244.7651493619196 23.04788732342422,249.704764140537 21.8309859149158,251.46891055745073 19.701408449560404,253.5858850639779 19.092957746237516,254.99720067856833 20.61408450640738,258.8783156326972 20.918309858068824,260.28962907753885 23.352112675085664,264.5235659366008 25.785915492102504,265.2292215730995 30.04507042095065,264.8763937733602 47.99436619691551,262.75942621170543 53.16619718261063,262.05377006856725 55.59999999962747,260.99528558179736 53.77464788593352,260.28962907753885 50.73239436559379,259.93680077046156" stroke="#ffdc00" stroke-linecap="round" stroke-linejoin="round" stroke-width="0.5"><title>2023-03-30 3.1km</title></polyline><polyline fill="none" points="78.70422535156831,255.70299344928935 78.78028168948367,255.70299344928935 78.93239436578006,255.614786227874 79.61690140794963,255.70299344928935 80.37746478803456,256.2322365875589 81.44225352071226,255.614786227874 82.35492957709357,255.614786227874 83.34366197139025,255.7912006615661 84.63661971781403,255.70299344928935 86.84225352061912,255.17374998534797 88.59154929500073,255.0855427099159 89.2760563371703,254.732713516918 89.42816901393235,254.1152620810317 89.42816901393235,252.5275277827168 88.59154929500073,250.41054416069528 87.90704225329682,247.0586427723174 87.14647887274623,245.64731196523644 85.01690140832216,242.91285193804651 84.71267605619505,242.20718342333566 84.78873239411041,241.50151432998246 86.46197183057666,239.73733906412963 88.43943661917001,238.14957823150326 93.30704225320369,235.50330366630806 96.95774647826329,233.91553501959424 104.56338028144091,232.6806018241914 108.670422534924,231.62208624574123 112.09295774577186,230.2107301155338 113.00563380261883,230.2107301155338 113.6901408447884,230.8281987074297 115.0591549295932,232.5923922425136 117.56901408405975,236.5618144692271 118.78591549256817,239.11987686622888 119.77464788686484,240.70763590803836 120.1549295769073,241.76614030782366 121.29577464750037,243.97135362465633 121.44788732333109,244.94164569338318 121.29577464750037,246.17656128911767 120.83943661954254,246.88222654809942 120.1549295769073,247.67609927244484 118.17746478831396,248.9992188520846 116.58028169022873,249.79308962309733 113.30985915474594,250.67516739846906 109.73521126713604,251.64545190660283 106.54084507003427,251.91007476457162 101.36901408433914,252.8803578799707 98.55492957727984,253.14498035790166 91.48169014044106,254.64450619585114 90.34084507031366,254.55629886611132 89.80845070397481,254.1152620810317 89.35211267555133,253.14498035790166 87.60281690116972,247.14685087098042 86.15774647844955,244.67702069244115 85.09295774623752,243.6185198739986 84.78873239411041,243.0010604618583 84.78873239411041,242.47180918429513 85.24507042206824,241.67793165741023 86.23380281683058,240.53121838148218 87.98309859121218,238.76704112591688 89.12394366133958,237.79674209328368 92.92676056316122,235.6797222236637 96.50140845030546,234.35658215993317 101.67323943646625,233.2980686434894 103.9549295771867,233.12164959765505 108.51830985909328,232.15134419774404 109.58309859130532,231.79850559943588 112.3211267599836,230.3871497582295 113.08169014053419,230.3871497582295 113.53802816895768,230.8281987074297 114.83098591538146,232.4159730518586 116.04788732342422,234.62121033546282 117.56901408405975,236.7382328097592 118.55774647835642,238.85525007470278 119.69859154894948,240.70763590803836 121.59999999962747,244.50060397962807 121.52394366171211,246.70581028755987 121.14366197166964,247.41147511225427 120.30704225273803,248.028931359353 118.02535211248323,249.175634641957 117.03661971818656,249.96950525039574 116.27605633763596,250.23412862367695 111.40845070406795,251.20441362942802 110.0394366197288,251.64545190660283 104.18309859139845,252.43932023609523 102.81408450659364,252.8803578799707 99.7718309853226,253.40960275463294 96.80563380243257,253.58601764048217 91.02535211248323,254.82092082861345 89.88450704189017,255.52657899737824 88.59154929500073,256.67327228729846 85.92957746423781,257.7317570447922 84.94084506994113,257.6435500312946 84.71267605619505,257.81996404897654 84.63661971781403,258.0845850079786 85.16901408415288,259.2312748885597 85.01690140832216,259.67230905097676 84.33239436568692,260.2897564987652 83.49577464722097,260.7307901189197 81.97464788658544,261.7892698844662 81.21408450696617,261.7892698844662 80.3014084501192,261.43644344067434 79.69295774633065,260.3779632410151 79.16056337952614,259.2312748885597 78.39999999990687,258.3492058851989 78.8563380278647,258.172791976016 80.45352112641558,257.99637803056976 80.68169014016166,258.0845850079786 80.83380281645805,258.3492058851989 81.29014084488153,258.6138266810449" stroke="#4dd2ff" stroke-linecap="round" stroke-linejoin="round" stroke-width="0.5"><title>2023-03-28 2.9km</title></polyline></svg>