<?xml version="1.0" encoding="utf-8" ?>
<svg baseProfile="full" height="300mm" version="1.1" viewBox="0,0,200,300" width="200mm" xmlns="http://www.w3.org/2000/svg" xmlns:ev="http://www.w3.org/2001/xml-events" xmlns:xlink="http://www.w3.org/1999/xlink"><defs /><rect fill="#222222" height="300" width="200" x="0" y="0" /><text fill="#FFFFFF" style="font-size:12px; font-family:Arial; font-weight:bold;" x="10" y="20">Over 2km Workouts</text><text fill="#FFFFFF" style="font-size:4px; font-family:Arial" x="10" y="280">ATHLETE</text><text fill="#FFFFFF" style="font-size:9px; font-family:Arial" x="10" y="290">Koobai</text><text fill="#FFFFFF" style="font-size:4px; font-family:Arial" x="120" y="280">STATISTICS</text><text fill="#FFFFFF" style="font-size:3px; font-family:Arial" x="120" y="285">Number: 20</text><text fill="#FFFFFF" style="font-size:3px; font-family:Arial" x="120" y="290">Weekly: 4.0</text><text fill="#FFFFFF" style="font-size:3px; font-family:Arial" x="141" y="285">Total: 58.7 km</text><text fill="#FFFFFF" style="font-size:3px; font-family:Arial" x="141" y="290">Avg: 2.9 km</text><text fill="#FFFFFF" style="font-size:3px; font-family:Arial" x="167" y="285">Min: 2.0 km</text><text fill="#FFFFFF" style="font-size:3px; font-family:Arial" x="167" y="290">Max: 6.5 km</text><polyline fill="none" points="43.13049823988695,71.58299419048126 42.87174371886067,71.78305292401637 42.58423869556282,71.86641065705044 42.1673564115772,72.1498266296112 41.27609083906282,72.68331417933223 41.04608682036633,72.75 40.91670955985319,72.71665709307126 40.715456043428276,72.53327098289446 40.485452024731785,72.28319868110702 40.09732024319237,71.68302358798974 39.13417841476621,69.96584372599318 39.00480115425307,69.6490804112691 38.84667339141015,69.38233187825244 37.854781060654204,67.865191275283 37.48102453030879,67.19831180670008 37.40914827439701,67.01491947342583 37.42352352559101,66.88154310108803 37.25102051155409,66.51475751312682 36.30225393438013,64.8308676052111 35.95724790630629,64.09728635074862 35.51161511999089,63.33035695514991 35.18098434305284,62.84685612929752 35.00848132913234,62.496733944062726 34.70660105452407,61.97988553092 34.34721977531444,61.14625559611886 33.887211737863254,60.3126213872456 33.80096023081569,59.979166506949696 33.67158297030255,59.72907489795762 33.62845721677877,59.66238373724627 33.49907995626563,59.579019747907296 33.39845319808228,59.44563727606146 33.11094817472622,58.92877916400903 32.837818402505945,58.51195690916211 32.4928123743739,57.79502013110323 32.19093209976563,57.24481069223839 32.01842908578692,56.811311035067774 31.57279629947152,56.077693597369944 31.50092004367616,55.92763507732889 31.27091602497967,55.194013652188005 31.055287257418968,55.06062758289045 30.839658489916474,54.777181822195416 30.58090396883199,54.31032890385541 30.23589794075815,53.77678106982785 29.83339090802474,52.94310907370527 29.60338688927004,52.626312594264164 29.416508624097332,52.20947418072319 29.402133372903336,52.04273851607286 29.315881865855772,51.809308298281394 28.769622321473435,50.742194462625775 28.726496567949653,50.442067434225464 28.668995563231874,50.32535121800902 28.28086378169246,49.79179030525847 28.007734009472188,49.20820605169865 27.83523099537706,48.6246197031287 27.74897948844591,48.40785852575209 27.403973460313864,47.74089924406144 26.886464418261312,46.92387039461755 26.541458390129264,46.49034321507497 25.894572087505367,45.239777565264376 25.851446333981585,45.13973189763783 25.83707108278759,44.92296607326716 25.448939301248174,44.172620602694224 25.377063045394607,43.78910935796739 25.262061036075465,43.58901617542142 25.017681766184978,43.30555041185289 24.629549984587356,42.63857019452553 23.594531900365837,40.63761312085262 23.091398109390866,39.75384923745878 21.898252262326423,37.252604653447634 21.869501760054845,37.135878966073506 21.898252262326423,37.01915319493855 22.042004774033558,36.885752210902865 22.458887057902757,36.71900082692446 23.56578139803605,36.41884790462791 24.198292449465953,36.15204484167043 26.009574096824508,35.50171054073144 27.619602227874566,34.984776291355956 27.907107251288835,34.96810096557601 28.208987525838893,34.818022956940695 28.453366795671172,34.61791872973845 29.186504605342634,34.23438493901631 29.560261135804467,34.08430625278561 29.73276414978318,33.96757828985574 30.609654471161775,33.66742028601584 31.357167532027233,33.16715571435634 32.75156689545838,32.433431556914 32.93844516063109,32.30002680877806 33.096572923474014,32.25 33.22595018404536,32.26667560462374 33.29782643984072,32.30002680877806 33.3409521933645,32.36672919655393 34.04533950070618,33.817499357275665 34.77847731037764,35.068152894382365 34.850353566231206,35.234905972203705 35.0659823337337,35.53506108104193 36.04349941323744,37.369330256959074 36.25912818085635,37.886256921992754 36.35975493909791,38.03633209738473 36.977890739333816,39.2035787315981 37.23664526036009,39.98729676799849 37.61040179076372,40.62093837509747 38.32916434929939,41.93823802069528 38.932924898399506,43.20550355373416 39.17730416828999,43.63903949415544 39.29230617766734,43.90583026739478 39.392932935850695,44.322689973938395 39.47918444284005,44.52278225334885 39.622936954547185,44.739548611440114 39.86731622443767,45.039686168471235 40.197947001317516,45.55658843986748 40.54295302933315,46.39029831717198" stroke="#ffa000" stroke-linecap="round" stroke-linejoin="round" stroke-width="0.5"><title>2023-04-30 4.8km</title></polyline><polyline fill="none" points="84.53518805332715,71.60108493523148 84.10446225409396,71.81754781515338 83.4440160287777,72.30042550776852 82.88407248974545,72.6500946648448 82.69742464349838,72.7333491150639 82.59692195703974,72.75 82.5107767971931,72.71669822842523 82.45334669062868,72.66674555829377 81.85033057181863,71.61773593626276 81.5631800389965,71.23476248128281 80.54379564756528,69.30323042481905 79.4095510430634,67.32172108371742 79.19418814353412,66.98869193073187 79.1367580369697,66.83882858912693 78.8926800841,66.47249539408949 78.80653492425336,66.30598003226623 78.79217739758315,66.18941917741904 78.63424460461829,65.95629721677687 78.07430106564425,64.957199309516 77.77279300621012,64.3244341226382 77.29899462714093,63.45854092425725 76.94005646114238,62.90902938458021 76.42318550212076,61.993172686416074 76.19346507592127,61.52691638327087 76.06424733618042,61.17722327740921 75.59044895705301,60.32796545680321 75.46123121737037,59.89500878014951 75.37508605752373,59.76179110899102 75.15972315787803,59.52865992145962 74.8582150983857,59.012439672253095 74.47056187922135,58.44626073783729 74.05419360665837,57.69690323046234 73.81011565378867,57.23063459173136 73.60911028087139,56.747712090218556 73.14966942835599,55.881778490918805 73.06352426850935,55.665294369580806 73.09223932184977,55.43215730074735 73.03480921528535,55.28228329407284 72.91994900221471,55.13240914896596 72.73330115579301,55.049145675307955 72.63279846939258,54.94922945051803 72.04413987713633,53.95006382110296 71.59905655134935,53.08411530224839 71.29754849191522,52.61783341769478 71.08218559238594,52.13489719707286 71.09654311893973,52.018326170000364 70.93861032591667,51.63530649174936 70.49352700012969,50.76934562782117 70.42173936695326,50.48624203589861 70.32123668043641,50.319710280688014 69.94794098788407,49.82011399010662 69.90486840787344,49.72019454750989 69.77565066819079,49.52035547788546 69.54593024193309,49.087369983200915 69.23006465588696,48.37127605408023 69.01470175629947,48.00490119458118 68.382970584149,46.75588977828738 67.62202167225769,45.32367819461797 67.46408887923462,44.874027765821666 67.07643566001207,44.19122288143262 67.04772060672985,44.09129997450509 67.06207813340006,43.87480013196182 66.947217920213,43.691607731976546 66.73185502068372,43.475107356352964 66.51649212103803,43.17533712886507 65.79861578915734,41.72643989263452 65.52582278288901,41.26012538780924 65.32481741002994,40.860426174651366 65.02330935059581,40.227567074485705 64.66437118465547,39.59470550714468 64.29107549204491,38.81195226086129 63.53012658015359,37.313052531928406 63.48705400014296,37.179816330666654 63.53012658015359,37.01327092527936 63.7885620596353,36.86337991434266 65.09509698377224,36.4470152688009 65.88476094894577,36.13057742395904 67.96660231164424,35.4477357621945 68.5983334837947,35.181260188124725 69.3162098157336,34.96474846213823 69.5315727153793,34.98140322047402 69.71822056162637,34.91478417660983 69.818723248085,34.86481987575826 70.00537109439028,34.68161730762222 70.2638065739302,34.51506933904602 70.72324742638739,34.28190189592715 71.15397322556237,34.098698669928126 71.52726891817292,33.89884036933654 72.00106729730032,33.59905245710979 72.56101083615795,33.33257384804892 72.97737910872092,33.08274975478707 73.3937473812257,32.89954517529986 74.68592477875063,32.26665503696131 74.8582150983857,32.25 75.00179036485497,32.333275167722604 75.47558874398237,33.18267943825049 76.13603496935684,34.56503374761087 76.62419087503804,35.49769988366461 76.82519624801353,36.03064955533773 77.65793279308127,37.579524606408086 77.95944085257361,38.045849684174755 78.79217739758315,39.74459399605985 79.23726072337013,40.56065111895441 79.96949458203744,41.97625068353955 80.17049995495472,42.45921712258132 80.45765048771864,42.975490002994775 80.94580639351625,43.95806933636777 81.00323650002247,44.124607617020956 81.07502413331531,44.44102987959923 81.27602950617438,44.79075903129706 81.46267735247966,44.99060392254614 81.60625261889072,45.22375598475628 82.20926873775898,46.339550504198996 82.15183863113634,46.22297531613731 82.08005099801812,46.22297531613731 82.2954138975474,46.489432765811216 82.61127948365174,47.07230691250879 82.7692122766748,47.42203039607557 83.67373645491898,49.03741004411131 83.78859666804783,49.38712929477333 83.80295419471804,49.60362178678042 83.86038430128247,49.72019454750989 83.9608869877411,49.88672691768443 84.10446225409396,50.00329947513819 84.26239504711702,50.253097530745436 84.79362353286706,51.31889824999962 85.20999180531362,52.034979178977665 85.54021491797175,52.817668675023015 85.92786813731072,53.533742994230124 86.18630361679243,53.98336944113544 86.32987888320349,54.38303634869226 86.45909662294434,54.599522179574706 88.61272561881924,58.89587358244171 88.81373099179473,59.29552839921962 89.2588143175235,59.96161757479422 89.56032237701584,60.54444336226152 90.30691376229515,61.743392690463224 90.62277934828307,62.39281988074072 91.22579546715133,63.391933563907514 91.51294599991525,63.95809525594814" stroke="red" stroke-linecap="round" stroke-linejoin="round" stroke-width="0.5"><title>2023-04-22 6.5km</title></polyline><polyline fill="none" points="113.61417910433374,65.6449471898959 113.07014925335534,65.57484244101215 111.92164179077372,65.71505193132907 109.9268656715285,65.43463292199885 108.05298507446423,65.78515666583553 107.62985074613243,65.71505193132907 107.14626865671016,65.2944233744056 106.66268656728789,64.38306061300682 105.33283582050353,60.59738691023085 104.12388059659861,56.461163905391004 103.64029850717634,55.54978937108535 102.55223880545236,54.147672330902424 102.25,53.65693068760447 102.25,53.02597662853077 102.6126865670085,52.39502198732225 104.30522388056852,50.99289847811451 107.62985074613243,49.0299207350472 109.56417910452001,47.978323197283316 110.04776119394228,47.55768372945022 111.19626865675673,46.08544355380582 111.80074626859277,45.524589319713414 114.88358208956197,43.351274817599915 115.72985074622557,42.86052542558173 116.39477611915208,42.65020414965693 118.32910447753966,42.299668546183966 120.56567164184526,41.24806065740995 122.37910447758622,40.687202455534134 123.95074626849964,40.40677318198141 127.21492537297308,40.12634379352676 129.08880596980453,39.77580689598108 134.40820895531215,37.812796949467156 137.73283582064323,36.76118215965107 138.5186567164492,36.76118215965107 139.30447761178948,37.32204358209856 139.7276119403541,37.882904544705525 140.15074626845308,38.79430262721144 140.33208955219015,39.42526981892297 140.39253731351346,40.056236428325064 140.2111940300092,40.827417048916686 139.30447761178948,42.2295614038012 139.30447761178948,42.72031124890782 139.7276119403541,43.70180988195352 140.87611940293573,45.66480292152846 141.9037313433364,47.838110070093535 142.68955223890953,49.10002717998577 142.75,49.2402400484425 140.81567164161243,50.0815166553366 138.94179104454815,51.13311095844256 136.88656716397963,51.904279086214956 136.40298507455736,52.39502198732225 135.97985074622557,53.65693068760447 135.19402985065244,54.147672330902424 132.29253731342033,55.12915456085466 127.94029850745574,55.61989514756715 124.07164179068059,56.53126958856592 123.46716417907737,56.81169224885525 123.22537313424982,57.16222041292349 122.8626865670085,58.143698315892834 122.56044776085764,58.634436739142984 122.19776119408198,58.914858537202235 120.92835820885375,59.54580716218334 120.38432835810818,60.10664989572251 120.20298507460393,60.87780790310353 120.32388059678487,62.42012130911462 120.2634328356944,62.980961685301736 119.96119402954355,63.61190655839164 119.17537313420326,64.10264105722308 118.14776119403541,64.5933752040728 117.24104477581568,64.80368973058648 116.27388059697114,64.87379455845803 114.7626865671482,64.5933752040728 113.19104477623478,64.52327034750488 112.46567164175212,64.6634800535976 111.98208955209702,65.08410899870796 111.80074626859277,65.78515666583553 111.80074626859277,66.55630826944252 112.0425373131875,67.32745900325244 112.5261194028426,67.81819083576556 113.0097014924977,68.09860886761453 113.79552238783799,68.23881784040714 114.7626865671482,68.16871335776523 115.48805970139802,67.88829535455443 115.91119402972981,67.53777268901467 116.15298507455736,66.97693605022505 116.15298507455736,66.34599428181536 115.91119402972981,65.78515666583553 115.60895522357896,65.43463292199885 115.18582089524716,65.22431858960772 114.58134328341112,65.08410899870796 113.67462686542422,65.08410899870796" stroke="#4dd2ff" stroke-linecap="round" stroke-linejoin="round" stroke-width="0.5"><title>2023-04-17 2.1km</title></polyline><polyline fill="none" points="156.5265363131184,63.914824382867664 152.11452513979748,64.17722751112888 151.66201117332093,64.04602596029872 151.32262569852173,63.78362277825363 150.9832402234897,62.66840805334505 150.58729050285183,60.50357392121805 149.34287709509954,56.04268049268285 148.72067039110698,54.46824009262491 147.53282122919336,52.69699001178378 147.3065642460715,52.1721742314985 147.25,51.712960070581175 147.53282122919336,51.253745580033865 148.26815642486326,50.72892861580476 150.6438547486905,49.54808887245599 153.47206703945994,47.8424276181031 156.5265363131184,45.152721786056645 158.56284916214645,43.70946033671498 160.09008379885927,42.922225446789525 162.352653631242,42.266195631818846 164.38896648050286,41.34775276097935 166.2555865922477,40.75732450484065 168.0656424581539,40.42930857167812 171.28980446932837,40.101292470120825 172.87360335187986,39.77327620075084 180.0572625696659,37.214743526419625 180.84916201140732,37.14913998992415 181.35824022372253,37.2803470561048 181.98044692748226,37.67396809312049 182.37639664812014,38.133192330249585 182.82891061459668,38.98603646754054 182.94203910627402,39.510863063973375 182.94203910627402,39.97008598264074 182.602653631242,40.691721331793815 181.75418994412757,41.61016514431685 181.69762569805607,42.13498958823038 183.33798882667907,45.218324501940515 184.412709497381,47.6456202576519 187.29748603352346,52.43458217539592 187.58030726248398,53.15620346646756 187.75,53.812222115986515 187.63687150832266,54.73064709518803 187.29748603352346,55.51786745642312 186.8449720670469,56.04268049268285 186.05307262577116,56.63309464399936 184.3561452513095,57.48591412283713 182.31983240228146,58.14192833309062 176.83310055872425,59.191549670591485 173.83519553067163,59.32275221665623 169.36662011174485,59.7819609164726 166.65153631288558,60.372371617355384 165.46368715073913,60.7659784485586 164.78491620114073,61.09398395655444 163.65363128483295,62.01239848375553 161.39106145268306,62.66840805334505 160.82541899452917,62.996412585896906 160.59916201117449,63.586820320924744 160.71229050308466,65.29243960633175 160.59916201117449,66.0796469738707 160.25977653660811,66.99805434548762 159.8072625696659,67.32605665869778 158.6194134077523,67.39165710110683 156.5265363131184,67.85086001007585 155.9608938547317,67.85086001007585 154.49022346362472,66.40764975803904 152.45391061459668,65.1612382842577 152.0579608939588,64.76763415656751 151.88826815667562,64.30842903495068 152.0579608939588,63.98042517493013 152.68016759771854,63.849223583820276 153.35893854754977,63.849223583820276 154.99930167593993,64.17722751112888 156.41340782120824,64.04602596029872" stroke="#4dd2ff" stroke-linecap="round" stroke-linejoin="round" stroke-width="0.5"><title>2023-04-16 2.2km</title></polyline><polyline fill="none" points="19.083049963461235,89.71984875755152 18.771932281320915,89.84012072102632 18.253402811358683,90.14080041376292 17.68302039441187,90.65195518409018 16.38669671921525,91.58405864847009 15.868167249369435,92.18541415029904 15.79038782871794,92.36582056042971 15.634828987764195,92.72663304780144 15.608902514330111,93.0273097815516 15.9459466697881,93.8692029962258 16.101505510741845,94.59082382850465 16.46447613975033,95.52291477582185 17.008932083379477,96.48507006635191 18.875638175290078,99.2813159651705 19.886770641896874,101.11539826160879 20.768270740867592,102.82920250232564 21.13124136987608,103.06973562954227 21.779403207357973,103.94166656248854 22.27200620388612,104.7233955404372 22.972020988469012,106.07638307914021 23.3349916174775,106.70777512845234 23.983153454959393,107.66989373316756 25.02021239500027,109.08299971313681 25.798006600118242,110.52616475216928 26.135050755459815,111.30787618400063 26.938771434128284,112.66083335524308 26.990624381112866,112.96148965708562 26.912844960577786,113.05168648750987 27.56100679805968,113.68306352433865 28.131389215006493,114.49483200354734 29.50549231073819,117.08044996633544 31.39812487619929,120.2372782122693 31.527757243602537,120.44773222095682 31.605536664137617,120.7483805429365 31.864801399293356,121.10915812259191 31.968507293146104,121.34967626264552 32.07221318723168,121.46993525861762 32.17591908131726,121.5 34.12040459376294,119.96669426496373 34.76856643136125,119.30526578775607 36.013037159340456,118.313120276056 36.583419576403685,117.80201370289433 38.73531687690411,116.17849280001246 39.4094051879365,115.57718648188165 40.93906712450553,114.37457014838583 41.224258332978934,113.9837187785306 41.768714276491664,113.74319459983963 42.779846742982045,113.02162088037585 44.024317471077666,111.72879686148372 45.035449937568046,111.12748142311466 46.072508877608925,110.31570362616912 47.13549429108389,109.26339573127916 48.250332651659846,107.9705551500956 48.6651562275365,107.54962908022571 48.87256801570766,107.27903343061917 49.15775922418106,106.37704612925882 49.33924453868531,105.68552065343829 49.39109748566989,105.294657706836 49.33924453868531,104.57306320650969 48.87256801570766,103.43053495060303 48.328112072194926,102.3782023570966 46.539185400586575,99.40158400806831 45.13915583153721,96.57527196305455 43.5835674215341,93.77900026747375 43.16874384554103,92.90703912495519 42.857626163517125,92.45602372387657 42.390949640539475,92.00500762919546 42.02797901141457,91.46378740016371 41.79464074992575,91.0127697798016 41.665008382406086,90.44147979834815 40.57609649549704,88.75767127476865 39.227919873432256,86.29207706736634 38.65753745648544,85.32988833950367 37.75011088384781,83.67611908813706 37.179728466901,82.41323447131435 36.71305194380693,81.75172131121508 36.29822836793028,81.45103301797644 35.70191947731655,81.1804132903635 35.001904692850076,81.0 34.58708111685701,81.03006888949312 33.93891927937511,81.24055102927377 33.18705154780764,81.66151485565933 29.635124678141437,84.03694226563675 28.23509510909207,84.90892977837939 27.30174206313677,85.29981989084627 25.953565441071987,86.08159855290432 25.14984476263635,86.62282871356001 24.605388819007203,86.9235117045464 24.19056524313055,87.0738530845847 22.686829779995605,87.85562701791059 21.831256154575385,88.39685390496743 20.768270740867592,88.81780745991273 19.860844168346375,89.41916863326333 19.394167645368725,89.53944071996375" stroke="#ffb600" stroke-linecap="round" stroke-linejoin="round" stroke-width="0.5"><title>2023-04-15 4.2km</title></polyline><polyline fill="none" points="65.93221942009404,109.12800311355386 65.1661412359681,109.6610820980859 64.40006305160932,109.83877498377115 61.99968474148773,109.6610820980859 61.38682219432667,109.42415816575522 60.97824716265313,108.71338578528957 59.650378310121596,105.15951076685451 58.93537200521678,102.19793155172374 58.373581336811185,101.1909911602852 57.40321563673206,99.71019327861723 57.25,99.35480122221634 57.25,99.05864100827603 57.45428751572035,98.46632012486225 58.118221941869706,97.81476645148359 63.12326607829891,94.67545208986849 65.52364438818768,92.36537968314951 67.87295081955381,90.64762754645199 69.14974779332988,89.99606505496195 70.88619167730212,89.64066702255514 73.03121059271507,88.75217098521534 75.43158890283667,88.10060635593254 77.01481714984402,87.80444037239067 79.82377049187198,87.56750747619662 83.80737704923376,86.0866746736574 86.9738335434813,85.25740664603654 87.84205548558384,85.19817317015259 88.55706179048866,85.61280737508787 89.06778058013879,86.2051414376474 89.22099621687084,86.44207489240216 89.27206809562631,87.15287467418239 88.65920554846525,89.04833648283966 88.60813366970979,89.81836606614524 88.81242118519731,90.41069581639022 90.24243379570544,93.60926597297657 90.75315258512273,94.49775454029441 91.26387137454003,95.03084702492924 91.87673392170109,95.26777686004061 92.28530895337462,95.26777686004061 93.51103404792957,94.97161455091555 93.97068095835857,95.09007949277293 95.04319041618146,96.27472757548094 96.21784363174811,96.9262829857762 96.7285624211654,97.34090877312701 97.29035308933817,98.11092730326345 97.64785624202341,98.82171272771666 97.75,99.41403324669227 97.64785624202341,100.00635315862019 97.3414249685593,100.65790436009411 96.7796343001537,101.30945482681273 95.19640605291352,102.61255355575122 90.54886506916955,105.7518247878761 84.93095838581212,108.65415471419692 80.99842370743863,111.61570083390689 79.51733921817504,112.56339238607325 78.08732660789974,113.21492942649638 75.22730138734914,114.28107936237939 72.46941992407665,115.70260954974219 70.93726355605759,116.23568246822106 69.35403530905023,116.94644559471635 69.04760403535329,117.12413623958128 68.8943883983884,117.30182682984741 69.14974779332988,117.30182682984741 70.01796973519959,116.5318338770885 70.3244010086637,116.05799155012937 70.47761664562859,115.40645771572599 70.37547288788483,114.5772317731753 70.22225725091994,114.28107936237939 69.60939470375888,113.68877408537082 68.4347414879594,112.85954567726003 67.20901639340445,111.7341623629909" stroke="#4dd2ff" stroke-linecap="round" stroke-linejoin="round" stroke-width="0.5"><title>2023-04-15 2.1km</title></polyline><polyline fill="none" points="111.41981132072397,109.61037826933898 110.75754716992378,110.02395249262918 110.14622641517781,110.20119849743787 108.05754716997035,109.96487047895789 106.37641509436071,110.02395249262918 106.12169811339118,109.9057884591166 105.96886792453006,109.61037826933898 105.51037735841237,107.71974946878618 104.74622641503811,105.65186711627757 103.72735849069431,102.46140550193377 102.35188679257408,100.33442127937451 102.25,99.86175705259666 102.35188679257408,99.3890924382722 102.91226415103301,98.62101161299506 103.77830188674852,97.91201301931869 105.81603773590177,96.8485134934308 108.36320754699409,95.37142756249523 110.24811320751905,93.30350089841522 113.05000000004657,91.35373467527097 114.06886792462319,90.8219791057636 116.15754717006348,90.34930707659805 118.55188679252751,89.34487772680586 121.50660377368331,88.69495192077011 125.12358490563929,88.45861508219969 128.84245283040218,86.92242326890118 131.03301886818372,86.39066361013101 132.56132075493224,85.79981896933168 133.0707547168713,85.85890346061205 134.2933962265961,86.86333888681838 134.54811320756562,87.45418243703898 134.54811320756562,87.9268568410771 134.39528301893733,88.3404466265929 133.3764150943607,90.11297091637971 133.27452830201946,90.40839110140223 133.3254716983065,90.7038111347938 133.63113207556307,91.41281859722221 135.77075471705757,95.31234404660063 136.33113207574934,95.90317893394968 136.84056603792123,96.08042928192299 137.50283018872142,96.02134583861334 138.67452830215916,95.48959457635647 139.13301886827685,95.54867807420669 140.61037735873833,96.73034675832605 141.78207547194324,97.91201301931869 142.34245283040218,98.68009478965541 142.6990566039458,99.6254247938632 142.75,100.21625525905984 142.6990566039458,100.74800215970026 142.49528301879764,101.22066565940622 142.13867924548686,101.7524116334971 141.42547169839963,102.40232271287823 138.57264150958508,104.588381874084 136.89150943397544,105.4746197120403 134.19150943425484,107.18800900119822 129.35188679257408,109.78762440133141 127.87452830187976,110.91018197161611 126.09150943416171,112.44630984030664 124.20660377363674,113.15529055264778 120.69150943378918,114.69141243695049 118.09339622640982,116.16844884917373 117.17641509440728,116.58201836619992 116.61603773618117,116.70018103072653 116.25943396240473,116.52293702476891 115.95377358491533,116.16844884917373 115.59716981160454,115.51855329418322 115.34245283016935,115.1640645005973 114.4254716981668,114.45508625963703 113.30471698124893,113.80518877261784 112.94811320770532,113.45069892529864 112.43867924530059,112.38722807500744 112.03113207546994,110.02395249262918 111.67452830192633,109.19680374924792" stroke="#4dd2ff" stroke-linecap="round" stroke-linejoin="round" stroke-width="0.5"><title>2023-04-14 2.2km</title></polyline><polyline fill="none" points="157.683518005535,111.4965460919193 156.67382271471433,110.65081895783078 156.39335180050693,110.58576297783293 156.11288088653237,110.58576297783293 155.6641274241265,110.97609875828493 154.59833795018494,112.5374394787359 154.03739612200297,113.05788553174352 153.47645429358818,113.38316409831168 152.85941828251816,113.51327547820983 152.4106648201123,113.51327547820983 152.07409972301684,113.31810839823447 151.79362880904227,112.86271831183694 151.17659279773943,110.91104281164007 150.16689750691876,108.56902428745525 149.66204986162484,106.6823919681483 149.21329639898613,105.5113759827218 148.70844875345938,104.60058427799959 147.6426592799835,103.299451003375 147.30609418288805,102.7139401595341 147.25,102.19348562229425 147.41828254866414,101.73808755219216 147.86703601130284,101.28268915496301 148.65235457057133,100.69717644999037 151.45706371194683,99.20086374942912 153.7569252080284,98.15994848503033 154.26177285332233,97.70454751997022 155.83240997232497,95.88294039125321 157.12257617758587,94.64684686111286 158.18836565106176,93.80109726887895 159.25415512477048,93.34569317533169 165.5367036012467,91.06866780493874 171.42659279773943,90.09279728744878 175.01662049861625,88.92175068531651 177.54085872578435,87.8808185578091 179.111495844787,87.49046856974019 180.40166204981506,87.03505994670559 180.85041551245376,86.97000154532725 181.29916897485964,87.10011834144825 181.69182825484313,87.42541021498619 182.30886426591314,88.14105174975703 182.8698060940951,89.11692526901606 182.9819944598712,89.89762300380971 182.75761772855185,90.41808762669098 182.0844875345938,91.26384172827238 181.8040166203864,91.78430523048155 181.69182825484313,92.36982616013847 181.74792243749835,92.89028875500662 182.30886426591314,93.99627035186859 183.542936288286,95.94799787871307 185.22576177306473,99.13580659538275 186.23545706365258,101.34774608898442 187.52562326844782,103.42956445092568 187.75,104.34035783651052 187.75,105.31620644195937 187.52562326844782,105.70654546376318 186.68421052629128,106.29205354646547 183.82340720226057,107.65823697176529 182.75761772855185,108.04857455275487 176.81163434917107,109.08947359549347 174.06301939068362,109.349698089296 171.8192520774901,109.67497855657712 165.5367036012467,110.91104281164007 164.80747922416776,111.23632247844944 163.79778393357992,112.0169929987751 161.72229916905053,112.66755103203468 160.9369806095492,113.05788553174352 160.71260387822986,113.38316409831168 160.48822714714333,114.87944335618522 160.26385041559115,115.13966547575546 159.81509695295244,115.33483199519105 157.73961218842305,115.52999845467275 157.3469529086724,115.46494297479512 157.01038781157695,115.26977649546461 156.67382271471433,114.74933225638233 156.72991689760238,114.22888759057969 157.01038781157695,113.83855381113244 157.6274238228798,113.51327547820983" stroke="#4dd2ff" stroke-linecap="round" stroke-linejoin="round" stroke-width="0.5"><title>2023-04-13 2.0km</title></polyline><polyline fill="none" points="22.822513812221587,161.96989041444613 22.20718232053332,162.16451827879064 21.70372928166762,162.099642330606 20.081491712946445,161.45088248327374 19.410220994614065,161.25625439931173 18.403314917115495,161.3860064620385 17.228591160383075,161.71038650203263 17.004834254272282,161.64551050728187 16.78107734816149,161.45088248327374 15.43853591172956,157.88269143353682 14.935082872863859,155.67689053941285 14.375690607586876,154.11984998453408 13.92817679559812,153.27645141782705 12.7534530388657,152.04378995182924 12.361878453055397,151.33014274243033 12.25,150.94088028901024 12.305939226644114,150.4867404573597 12.809392265276983,149.64333704806631 13.648480663076043,149.0594417215907 15.662292817840353,148.08628164697438 18.45925414375961,146.52922241424676 19.18646408850327,145.94532421417534 21.53591160243377,143.67460386967286 24.276933701708913,142.0526557774865 25.451657458674163,141.53363150998484 27.633287292905152,140.94972869986668 30.82182320440188,139.7170432205894 32.66781767993234,139.13313873432344 34.34599447529763,138.80874712002696 36.975138121517375,138.48435533989687 38.09392265207134,138.09508498373907 39.43646408850327,137.38142204238102 40.94682320463471,137.31654355331557 42.009668508311734,137.05702953011496 43.68784530390985,136.5380011649686 45.70165745867416,135.69457916310057 46.261049723718315,135.69457916310057 46.87638121540658,136.1487296113046 47.65953038702719,137.25166505743982 47.82734806649387,137.90044971578754 47.88328729290515,138.35459858097602 47.65953038702719,139.13313873432344 46.7085635359399,140.6253380171256 46.65262430952862,141.01460681663593 46.764502762351185,141.53363150998484 47.2120165748056,142.57167961937375 48.66643646429293,144.84240392170614 50.288674033246934,147.56726232840447 51.35151933715679,149.90284590912051 52.52624309388921,151.7842819687794 52.69406077358872,152.3681747809169 52.75,152.88719016168034 52.6381215469446,153.34132827050053 52.41436464106664,153.8603428528877 51.85497237555683,154.31448026339058 51.295580110512674,154.70374064153293 49.22582872956991,155.8715203392203 48.16298342542723,156.2607797596138 46.261049723718315,156.58516242686892 43.68784530390985,157.16905080917059 40.77900552516803,157.55830943130422 38.37361878459342,157.8178150462336 30.82182320440188,159.11534152535023 30.038674033246934,159.43972272938117 28.97582872933708,160.08848463877803 27.633287292905152,160.54261757957283 25.507596685085446,161.45088248327374 23.38190607749857,161.58063450595364 22.151243093889207,161.77526249026414 21.647790055256337,162.099642330606 21.36809392273426,162.61864972976036 21.312154696322978,163.13765670312569 21.36809392273426,163.59178745560348 21.647790055256337,163.916166364972 22.03936464083381,164.11079363094177 22.598756906343624,164.30542083689943 23.270027624443173,164.30542083689943 24.7244475139305,163.851290596358" stroke="#4dd2ff" stroke-linecap="round" stroke-linejoin="round" stroke-width="0.5"><title>2023-04-12 2.0km</title></polyline><polyline fill="none" points="61.74058577371761,161.30059202277334 61.48640167340636,161.0057984252926 61.48640167340636,160.02315244625788 60.38493723794818,157.07520846405532 59.79184100404382,154.71684675000142 58.35146443499252,152.84980627743062 57.7583682006225,151.96541741571855 57.419456066563725,150.98276216810336 57.33472803328186,150.19663724431302 57.58891213405877,149.41051167598926 59.45292886951938,146.06947081623366 61.48640167340636,144.00588093773695 62.4184100413695,143.21975029166788 64.19769874447957,142.138819600048 66.14644351461902,141.25442085473333 72.4163179914467,139.19082060852088 74.70397489517927,138.99428702000296 82.83786610839888,137.5202838217374 84.02405857760459,137.12721591920126 85.80334727978334,136.14454545796616 86.90481171570718,135.75147699093213 87.66736401664093,135.75147699093213 88.59937238506973,135.9480112447054 89.19246861943975,136.63588081451599 90.29393305443227,138.40468601259636 93.00523012550548,143.21975029166788 94.02196652721614,145.67640642018523 96.14016736391932,149.01744864985812 97.07217573234811,149.9018402317306 97.66527196625248,151.277558848029 97.75,151.96541741571855 97.58054393297061,153.1446023833705 97.32635983265936,154.02899015671574 96.98744769860059,154.5203163451515 95.63179916329682,155.60123307275353 92.49686192441732,157.17347340949345 90.63284518849105,157.56653309083777 88.5146443513222,158.3526519697043 83.6004184097983,159.5318290788564 80.29602510435507,159.82662312942557 76.73744769860059,159.92488779267296 72.75523012550548,160.71100473747356 68.85774058569223,161.30059202277334 64.96025104587898,162.4797655052971 63.604602510109544,162.57802989683114 63.09623430902138,162.2832366921939 62.75732217542827,161.49712103727506 61.74058577371761,158.25438714498887 60.38493723794818,154.81511193717597 58.690376568585634,152.35847923281835 57.50418410031125,150.88449658773607 57.25,150.19663724431302 57.25,149.01744864985812 58.182008367963135,146.65906710847048 59.28347280295566,145.3816080171964 61.65585773997009,143.71108202071628 64.87552301213145,141.84402010880876 65.97698744758964,141.15615427691955 67.5020920499228,140.56655459979083 74.28033472783864,138.89602021075552 77.5,138.79775339143816 80.97384937247261,138.0116184730432 82.41422594105825,137.618550772022 85.46443514665589,136.2428125492297 87.66736401664093,135.75147699093213 88.5146443513222,135.75147699093213 89.0230125519447,136.2428125492297 91.14121338864788,140.46828795148758 92.6663179914467,142.92495113285258 94.27615062752739,146.26600295398384 96.14016736391932,148.4278538087383 97.49581589968875,150.88449658773607 97.66527196625248,151.76888644701103 97.32635983265936,153.93072488892358 96.90271966485307,154.61858155252412 95.97071129688993,155.4047028493951 92.6663179914467,157.17347340949345 90.71757322177291,157.8613277457771 87.92154811695218,158.3526519697043 84.53242677822709,159.23703493742505 82.24476987449452,159.630093772721 80.12656903779134,159.92488779267296 78.00836820108816,159.92488779267296 67.16317991632968,161.69365001126425 63.77405857713893,162.57802989683114 63.09623430902138,162.97108736133669 62.4184100413695,163.75720180739881 61.910041840747,163.95373031834606 60.4696652716957,163.85546606802382 57.50418410031125,164.24852300900966" stroke="#4dd2ff" stroke-linecap="round" stroke-linejoin="round" stroke-width="0.5"><title>2023-04-11 2.4km</title></polyline><polyline fill="none" points="117.46333486773074,153.11543731647544 116.1202241666615,154.67312802630477 114.10555811412632,159.7356184250675 116.79177951812744,166.74520937539637 115.78444649092853,167.9134732768871 114.10555811412632,167.52405201573856 113.43400276452303,166.74520937539637 112.76244741305709,161.29330642079003 115.78444649092853,157.0096628954634 113.09822508879006,152.7260145386681 108.06155995838344,150.7789000524208 107.05422693304718,149.61063088220544 106.38267157971859,145.3269741809927 108.73311530798674,141.4327366242651 117.12755719199777,135.59137280401774 126.86510977707803,134.42309896158986 130.2228865325451,134.81252361577936 135.93110701441765,139.09619217342697 137.27421771548688,144.54812698927708 136.6026623658836,147.6635147978086 134.92377398721874,150.7789000524208 128.54399815574288,155.4519731423352 125.18622140213847,155.4519731423352 116.79177951812744,155.4519731423352 106.04689390398562,149.61063088220544 105.37533855438232,147.2740914619062 106.04689390398562,139.875040483661 118.80644556879997,132.47597509319894 122.83577767387033,130.9182752794586 126.52933210320771,130.13942513405345 129.55133118107915,130.9182752794586 133.5806632861495,134.81252361577936 136.6026623658836,140.6538886348717 135.93110701441765,146.4952446690295 132.57333026081324,150.38947703503072 128.54399815574288,152.7260145386681 120.14955627173185,153.50486005377024 115.11289113946259,155.06255060480908 108.39733763225377,151.55774596589617 107.39000460505486,149.61063088220544 107.72578228265047,147.2740914619062 111.41933671012521,142.60100831021555 116.79177951812744,139.48561634891666 122.49999999813735,133.2548247606028 125.52199907787144,132.86539994738996 128.2082204800099,134.03367426851764 132.57333026081324,137.92791941110045 134.5879963133484,141.4327366242651 135.2595516629517,146.10582121275365 133.91644096188247,149.61063088220544 131.56599723361433,151.9471688636113 127.87244280613959,153.89428275101818 119.81377859413624,153.50486005377024 114.77711346372962,154.28370540821925 110.74778136052191,151.55774596589617 106.38267157971859,150.0000539785251 104.70378320291638,148.4423613511026 104.36800552904606,145.71639771782793 105.37533855438232,138.70676795905456 106.71844925545156,136.7596462869551 111.08355903625488,132.86539994738996 114.10555811412632,131.30770029197447 122.49999999813735,129.75 127.87244280613959,130.52885022666305 130.2228865325451,132.0865502001252 134.25221863761544,136.3702218332328 136.26688469015062,140.26446457928978 136.26688469015062,141.8221605590079 135.93110701441765,144.1587033327669 134.25221863761544,146.8846680847928 132.23755258508027,149.22120774374343 127.53666512854397,151.55774596589617 116.45600184239447,154.28370540821925 114.77711346372962,153.89428275101818 112.09089206159115,151.55774596589617 108.06155995838344,149.61063088220544 107.05422693304718,147.6635147978086 107.39000460505486,142.60100831021555 109.40467065759003,139.48561634891666 120.48533394560218,131.69712526584044 124.1788883768022,130.9182752794586 126.19355442747474,131.69712526584044 129.88710885681212,134.42309896158986 133.24488561041653,137.92791941110045 134.25221863761544,140.26446457928978 134.25221863761544,142.99043212644756 133.24488561041653,147.6635147978086 130.2228865325451,152.33659172151238 126.86510977707803,153.89428275101818 116.1202241666615,154.67312802630477 107.72578228265047,149.22120774374343 106.38267157971859,147.2740914619062 106.04689390398562,145.3269741809927 106.71844925545156,139.875040483661 108.06155995838344,137.53849507588893 122.83577767387033,130.13942513405345 125.18622140213847,130.13942513405345 130.55866420827806,133.64424953376874 136.6026623658836,139.875040483661 137.27421771548688,142.21158445533365 136.93844004161656,144.93755060480908 136.26688469015062,146.8846680847928 134.92377398721874,149.22120774374343 129.55133118107915,152.7260145386681 118.13489021919668,155.8413956409786 114.4413357898593,155.4519731423352 110.74778136052191,153.50486005377024 109.0688929837197,151.55774596589617 108.73311530798674,147.6635147978086 110.41200368478894,142.99043212644756 115.11289113946259,140.6538886348717 122.83577767387033,135.59137280401774 125.52199907787144,134.42309896158986 127.20088745467365,134.81252361577936 130.2228865325451,136.7596462869551 133.5806632861495,139.48561634891666 134.5879963133484,141.0433126485441 135.2595516629517,146.4952446690295 134.5879963133484,149.22120774374343 133.24488561041653,150.7789000524208 131.23021955788136,151.9471688636113 124.1788883768022,152.7260145386681 115.4486688170582,154.67312802630477 108.39733763225377,150.0000539785251 106.38267157971859,146.4952446690295 106.04689390398562,144.1587033327669 106.71844925545156,140.26446457928978 107.39000460505486,138.70676795905456 110.07622601091862,136.3702218332328 117.12755719199777,134.81252361577936 124.51466605067253,130.52885022666305 127.87244280613959,131.30770029197447 134.25221863761544,137.53849507588893 135.59532933868468,139.09619217342697 136.6026623658836,142.99043212644756 135.59532933868468,147.2740914619062 133.91644096188247,150.0000539785251 132.23755258508027,151.55774596589617 118.47066789492965,155.06255060480908 112.42666973732412,158.95677418680862 112.42666973732412,162.07215017848648 114.4413357898593,168.30289449705742 115.78444649092853,169.86057897889987 118.13489021919668,170.25 129.21555350720882,168.6923156771809 132.23755258508027,169.47115791821852 136.26688469015062,167.52405201573856 140.6319944690913,164.4086804955732" stroke="#4dd2ff" stroke-linecap="round" stroke-linejoin="round" stroke-width="0.5"><title>2023-04-10 2.2km</title></polyline><polyline fill="none" points="152.8354985374026,170.25 152.7668659251649,169.6408250030945 152.67535577574745,169.3759658638155 152.42370286444202,168.8197607935581 152.3550702522043,168.26355453391443 152.3550702522043,167.46897210009047 152.4923354765633,166.59492861942272 152.65247823833488,166.03871760261245 153.17866159812547,164.47602314286632 153.40743697190192,163.91980759517173 153.65908988320734,162.91331929489388 154.09376309346408,161.66844679918722 154.61994645325467,160.55600250681164 155.30627257481683,158.72840512590483 155.5808030234184,158.2251514182135 155.83245593460742,157.24512824576232 156.26712914486416,156.05320319446037 156.3815168318106,155.15263397747185 156.61029220558703,154.41098639849224 157.06784295325633,153.40446130148484 157.77704661211465,150.7821802549879 158.05157706083264,149.93456860582228 158.6006379579194,148.5836818300886 158.87516840652097,147.60362232621992 159.17257639265154,146.83546499814838 159.40135176642798,146.38516481989063 159.515739453258,146.1732585838181 159.8360249766847,145.80242225527763 159.92753512621857,145.5905155444052 160.29357572447043,144.34556013083784 160.97990184579976,142.67678075961885 161.39169751876034,141.82914269217872 161.68910550465807,140.76959122245898 162.0093910280848,140.00141370741767 162.30679901398253,139.07429989121738 162.58132946281694,138.43856279258034 162.8558599113021,137.90878068978782 163.01600267295726,137.7763349954621 163.29053312155884,137.80282413971145 165.55540932249278,138.46505186942522 165.89857238321565,138.62398627356743 166.37900066829752,138.38558463094523 167.13395940198097,137.1670839326398 167.8431630608393,136.13400278103654 168.20920365897473,135.63070534850704 168.59812179440632,135.20687517611077 169.51322328974493,134.438681227708 171.06889583182056,133.40558923629578 172.0297524021007,132.92877616352052 172.46442561224103,132.79632793250494 172.80758867308032,132.79632793250494 173.05924158426933,132.45196221632068 173.05924158426933,132.31951374252094 173.65405755618121,131.92216791631654 173.76844524312764,131.5778010423819 173.9285880047828,130.1208592215553 173.9972206169041,129.96191961996374 174.24887352820951,129.75 175.4385054721497,130.09436929467483 175.80454607016873,130.1473491457 178.41258533205837,130.22681890195236 179.25905421515927,130.359268441709 179.32768682739697,130.41224823877565 179.41919697681442,130.51820780045819 179.53358466376085,131.04800496116513 179.51070712634828,131.33939293943695 179.41919697681442,131.68376012903173 179.442074514227,131.89567817302304 179.64797235070728,131.92216791631654 179.945380336605,130.25330881529953 180.082645560964,130.09436929467483 180.38005354686175,130.06787936508772 180.51731877122074,130.1208592215553 180.6088289207546,130.30628863399033 180.6774615328759,131.33939293943695 180.7460941451136,131.5778010423819 180.83760429464746,131.73673965624766 181.15788981807418,131.89567817302304 181.91284855164122,132.13408576583606 182.3246442246018,132.13408576583606 182.6449297479121,132.05461659253342" stroke="#4dd2ff" stroke-linecap="round" stroke-linejoin="round" stroke-width="0.5"><title>2023-04-09 2.8km</title></polyline><polyline fill="none" points="43.09230769239366,178.9563643343863 42.54711538460106,181.57152342167683 42.39134615380317,181.84205667936476 42.15769230760634,181.93223441380542 42.469230769667774,181.57152342167683 43.17019230732694,182.8340112506412 43.01442307699472,184.45720724272542 42.85865384619683,184.9982719119871 42.469230769667774,185.44915888400283 42.469230769667774,187.16252728307154 42.70288461539894,188.2446529843146 41.92403846140951,190.67943097674288 41.6125000002794,191.3106686224346 40.98942307662219,191.9419058180647 40.98942307662219,192.12225921993377 41.30096153868362,192.21243590698577 40.98942307662219,192.21243590698577 40.75576923042536,192.66331920510856 39.976923076901585,194.73737941787113 38.88653846131638,196.18020104814786 38.18557692319155,197.71319645404583 38.029807691928,198.16407695086673 38.107692307792604,198.79530926031293 38.419230768922716,199.2461892060237 38.49711538432166,199.51671706303023 37.32884615380317,202.94339609832969 35.849038461223245,206.460237108171 35.849038461223245,206.73076276102802 36.00480769202113,206.73076276102802 36.70576923061162,206.0995361090172 36.62788461567834,207.7226894479827 36.082692307420075,208.44408997654682 35.69326923089102,209.97706414887216 34.447115384507924,209.52618966781301 33.35673076938838,209.34583981119795 33.12307692319155,209.4360147441621 33.12307692319155,209.79671438393416 33.278846153989434,209.2556648691534 33.045192307792604,208.98513998754788 31.253846153616905,207.90303963521728 29.77403846150264,207.27181381871924 28.60576923098415,207.1816386654973 28.37211538478732,207.7226894479827 28.13846153859049,206.460237108171 28.917307692114264,204.65673064312432 28.917307692114264,204.29602890915703 27.982692307792604,204.7469060534495 27.749038461130112,204.7469060534495 27.90480769239366,204.56655522348592 27.90480769239366,204.83708145469427 27.359615384601057,206.0995361090172 27.515384615398943,206.2798866268713 27.826923076994717,206.00936083617853 27.982692307792604,206.82093796040863 27.749038461130112,206.6405875524506 26.425000000279397,206.73076276102802 25.80192307708785,206.460237108171 24.94519230769947,206.00936083617853 24.86730769230053,206.00936083617853 24.86730769230053,206.18971137265908 25.17884615343064,206.2798866268713 25.490384615492076,206.18971137265908 25.724038461688906,206.00936083617853 25.724038461688906,205.55848433467327 25.56826923089102,205.01743223000085 24.71153846150264,204.38620435656048 24.010576923377812,204.20585345261497 22.375,204.38620435656048 19.259615384507924,203.03357168333605 18.091346153523773,202.67286928842077 16.37788461521268,203.48444947076496 15.443269230425358,204.29602890915703 14.742307692300528,204.56655522348592 15.521153846289963,204.65673064312432 16.61153846140951,204.20585345261497 15.131730769295245,204.56655522348592 14.975961538031697,204.56655522348592 14.898076923098415,204.83708145469427 15.365384615492076,205.37813366978662 15.521153846289963,205.73883496283088 15.287500000093132,207.0012883313466 15.754807692021132,207.1816386654973 16.923076923005283,207.3619889630354 16.066346153616905,207.6325143405702 14.742307692300528,208.3539149427088 14.197115384507924,208.80479002080392 13.574038461316377,209.88688927114708 13.340384615585208,210.4279384003603 13.41826923051849,210.69846284104278 13.41826923051849,210.51811322307913 12.25,212.50195699970936 12.48365384619683,212.77248080656864 13.184615384787321,213.2233536344138 15.131730769295245,213.76440072490368 18.091346153523773,215.47771433013259 19.64903846150264,216.01876004319638 20.583653846289963,216.10893429641146 20.739423076622188,216.01876004319638 20.427884615026414,215.83841150894295 20.427884615026414,215.74823722819565 21.596153846010566,215.02684265031712 22.920192307792604,213.4938772211899 23.932692307513207,211.32968621433247 25.10096153849736,210.878812422161 25.490384615492076,210.60828803642653 31.253846153616905,213.04300453100586 34.60288461530581,213.8545752078644 34.7586538461037,214.1250986016239 36.783653846010566,215.2973656859831 42.15769230760634,217.5517211011611 43.32596153812483,216.9205021635862 44.18269230797887,216.9205021635862 46.28557692328468,218.00259149546036 47.22019230760634,218.18293958890717 47.92115384619683,217.91241743485443 48.933653846383095,216.83032799273496 49.400961538311094,216.83032799273496 50.88076923089102,217.37137287913356 52.75,218.5436356656137" stroke="#4dd2ff" stroke-linecap="round" stroke-linejoin="round" stroke-width="0.5"><title>2023-04-09 2.5km</title></polyline><polyline fill="none" points="64.2047166567063,187.10330647215596 63.86515146319289,187.1638922491693 63.133780277334154,187.92121341484017 60.73070352373179,189.40555726911407 60.704583124257624,190.25375040981453 60.57398112677038,190.76872362877475 60.75682392320596,191.3139884120319 61.018027918296866,191.79866737461998 61.61879710666835,192.67714596827864 62.324047892936505,193.8282518966007 63.96963306120597,196.70599710129318 64.72712464665528,198.28117208281765 65.27565303596202,199.1899230608833 65.40625503356569,199.76546390162548 66.42495061375666,200.82566777948523 67.36528499552514,202.43111212577787 68.04441538243555,203.9153831024014 68.41010097542312,204.46062362991506 69.37655575678218,205.8237205479527 70.49973293510266,207.5503009527165 70.99602052546106,208.58018621613155 72.01471610588487,210.27646000348614 72.06695690494962,210.48849354239064 72.01471610588487,210.73081740076304 72.95505048776977,211.70011084686848 76.40294322115369,217.6975433647458 76.58578601758927,218.0913099295285 76.66414721612819,218.54565531390836 77.02983280911576,219.0 77.160434806603,219.0 79.35454836417921,217.0614578059176 79.95531755266711,216.45566076299292 82.09719031117857,214.75942243737518 83.45545108499937,213.8507193303376 86.11973183369264,211.63953009966644 86.82498261996079,211.1851740993734 88.33996579074301,209.8826830277103 89.77658776298631,208.79222097198362 92.25802571501117,206.5204121005081 93.30284169490915,205.33906458629644 93.59016608935781,205.06644525850425 94.00809248141013,204.55149695344153 94.1909352777293,203.9153831024014 94.37377807416487,202.73402517542127 94.42601887322962,202.12819876574213 94.37377807416487,201.88586785405641 93.11999889847357,199.5231310526433 91.7356177251786,197.34212646994274 89.95943055942189,194.04029723646818 89.51538376801182,193.3132840092876 88.2616045922041,191.07164863258367 87.45187220792286,189.7387762933795 86.74662142142188,188.31501965387724 85.93688903714065,187.07301357900724 85.41448104719166,186.04305336225661 84.60474866291042,184.6495720607927 82.33227390656248,180.52967586443992 81.4964211229235,179.1967559728073 81.20909672835842,178.89381879527355 80.55608674092218,178.6211750698276 79.79859515558928,178.5 79.40678916312754,178.5302937720844 78.80601997487247,178.74235008991673 76.11561882670503,180.3782079977682 73.32073608052451,181.9837634342257 72.69384649279527,182.4381643322995 71.3094653195003,183.28637747233734 68.12277658097446,185.10396885935916 65.92866302339826,186.22481130843516 65.19729183742311,186.70949861826375 64.83160624455195,186.86096323953825 64.54428185010329,186.92154906634823" stroke="#ffb800" stroke-linecap="round" stroke-linejoin="round" stroke-width="0.5"><title>2023-04-09 4.1km</title></polyline><polyline fill="none" points="111.80546349659562,194.70007972116582 112.02371934335679,197.9907079259865 112.02371934335679,203.8125778522808 113.98802196513861,201.02820699149743 116.8253479776904,198.75008304254152 118.78965060133487,197.9907079259865 124.02779092825949,196.97820740705356 127.08337278664112,194.95320512307808 128.17465202324092,191.91569858440198 128.17465202324092,189.1313143062871 127.5198844820261,186.85317938076332 126.21034939959645,185.08129520644434 124.68255846947432,183.8156628755387 122.71825584676117,183.0562831654679 121.40872076433152,183.0562831654679 119.88092983607203,183.3094097613357 114.86104535404593,185.5875479571987 110.05941672064364,185.5875479571987 109.18639333173633,186.6000531478785 108.5316257905215,188.62506228266284 108.74988163821399,190.3969439130742 110.71418426185846,192.9282011790201 118.13488306012005,197.73758283467032 127.73814032878727,194.44695429317653 129.7024429505691,194.44695429317653 129.04767540935427,192.9282011790201 128.17465202324092,191.91569858440198 126.42860524635762,190.90319557324983 124.46430262364447,190.3969439130742 122.06348830554634,190.1438180434052 116.38883628416806,190.3969439130742 112.24197519011796,189.6375662270002 108.09511409699917,189.89069214789197 111.1506959553808,190.90319557324983 114.64278950728476,194.44695429317653 116.60709212999791,194.95320512307808 124.24604677595198,194.95320512307808 127.5198844820261,193.94070335826837 128.61116371676326,193.18132676254027 128.8294195625931,191.91569858440198 128.3929078700021,188.37193623138592 128.61116371676326,188.62506228266284 128.3929078700021,188.11881015403196 124.46430262364447,185.84067429439165 122.06348830554634,185.33442159486003 121.19046491757035,185.33442159486003 117.26185967121273,187.10630558733828 116.38883628416806,186.85317938076332 113.5515102725476,182.8031565430574 113.5515102725476,181.79064979660325 113.98802196513861,181.53752304427326 116.60709212999791,180.27188889682293 121.84523245785385,178.5 124.46430262364447,178.5 125.55558185838163,179.5125080961734 126.21034939959645,180.52501577790827 126.21034939959645,183.56253633159213 123.59127923473716,189.89069214789197 121.19046491757035,193.68757785251364 119.2261622948572,194.1938288381789 115.95232458878309,190.90319557324983 112.24197519011796,188.87818830669858 111.1506959553808,188.87818830669858 109.84116087295115,189.3844402791001 108.5316257905215,190.90319557324983 108.09511409699917,191.66257287026383 108.74988163821399,191.91569858440198 112.24197519011796,191.66257287026383 113.33325442578644,192.9282011790201 113.76976611930877,196.97820740705356 112.67848688550293,200.5219574063085 112.67848688550293,205.07819993258454 113.5515102725476,206.85006975522265 115.29755704849958,207.86256622592919 116.8253479776904,208.368814305868 125.11907016392797,207.35631804238074 129.26593125704676,208.368814305868 131.23023388069123,209.88755792193115 132.53976896218956,212.16567159444094 132.10325726866722,214.44378316425718 131.23023388069123,215.45627652155235 122.5,217.98750809626654 119.2261622948572,217.22813889640383 117.69837136566639,216.21564626554027 116.38883628416806,214.1906597604975 114.64278950728476,212.4187952056527 113.76976611930877,209.88755792193115 113.76976611930877,207.35631804238074 115.51581289526075,202.54695512261242 115.29755704849958,200.5219574063085 114.2062778128311,198.75008304254152 110.2776725674048,194.44695429317653 109.18639333173633,192.16882427129894 109.18639333173633,189.89069214789197 110.05941672064364,187.86568405129947 111.80546349659562,185.84067429439165 117.04360382538289,184.32191588613205 122.5,181.53752304427326 124.68255846947432,181.53752304427326 127.08337278664112,182.29690322140232 128.61116371676326,183.8156628755387 129.26593125704676,185.33442159486003 129.04767540935427,189.89069214789197 127.95639617554843,192.6750755684916 126.42860524635762,194.1938288381789 124.9008143171668,194.95320512307808 117.48011551890522,197.23133257520385 115.95232458878309,197.48445771774277 114.4245336605236,196.4719569918234 111.80546349659562,193.43445232091472 109.40464917942882,191.91569858440198 108.5316257905215,190.3969439130742 108.96813748590648,188.11881015403196 110.49592841416597,186.3469268886838 118.13488306012005,182.04377652192488 119.88092983607203,181.53752304427326 122.93651169352233,181.79064979660325 126.42860524635762,182.8031565430574 128.3929078700021,184.32191588613205 129.26593125704676,186.09380060457624 129.48418710473925,188.62506228266284 129.26593125704676,190.3969439130742 128.3929078700021,192.9282011790201 127.30162863433361,194.70007972116582 123.37302338797599,196.97820740705356 113.98802196513861,200.77508221194148 112.67848688550293,201.78758117416874 112.24197519011796,204.0657023198437 113.33325442578644,212.4187952056527 114.2062778128311,215.20315322093666 115.51581289526075,216.72189263347536 117.69837136566639,217.73438505548984 123.59127923473716,219.0 125.11907016392797,219.0 126.42860524635762,218.4937541000545 130.13895464595407,215.45627652155235 130.79372218623757,211.40630060364492 131.23023388069123,210.6469293795526 133.1945365043357,209.1281862303149 136.250118361786,207.60944214696065 136.9048859020695,206.85006975522265 136.46837420854717,206.09069712972268 135.81360666826367,205.83757286914624 130.5754663394764,205.58444858295843" stroke="#4dd2ff" stroke-linecap="round" stroke-linejoin="round" stroke-width="0.5"><title>2023-04-06 2.2km</title></polyline><polyline fill="none" points="151.1506747044623,182.91820401349105 154.96022623032331,184.39093747688457 157.81738987378776,186.96821958431974 157.81738987378776,187.70458556106314 156.54753936454654,189.17731706099585 153.0554504673928,189.17731706099585 153.37291309423745,189.54549984214827 157.81738987378776,186.2318534576334 160.99201614409685,186.6000365400687 164.80156766995788,185.4954871777445 168.6111191958189,181.8136535200756 171.46828283928335,181.07728633540682 174.96037173829973,182.1818370553665 179.72231114283204,186.6000365400687 181.3096242789179,189.91368258465081 182.5794747862965,194.3318725565914 180.03977376967669,200.95914732245728 178.76992326043546,201.695510429563 169.88096970319748,201.695510429563 166.3888808041811,202.43187338742428 163.8491797875613,201.327328894753 158.7697777543217,195.43641920015216 152.7379878386855,192.85914317029528 151.1506747044623,189.91368258465081 152.7379878386855,187.33640259108506 155.5951514840126,186.2318534576334 161.3094787709415,186.2318534576334 168.92858182266355,181.8136535200756 171.46828283928335,181.07728633540682 174.64290910959244,181.8136535200756 176.23022224381566,182.91820401349105 180.99216165207326,188.07276849262416 181.9445495326072,190.28186529083177 182.5794747862965,193.96369026671164 182.2620121613145,197.64551146840677 181.3096242789179,199.48642065329477 178.45246063545346,200.95914732245728 173.37305860221386,200.95914732245728 164.80156766995788,202.06369192735292 153.0554504673928,192.12277825013734 152.7379878386855,191.38641318050213 153.37291309423745,189.54549984214827 160.03962826170027,184.75912074930966 171.15082021057606,181.44546994706616 175.59529699012637,182.55002055410296 180.67469902522862,187.70458556106314 181.3096242789179,188.80913424375467 182.2620121613145,194.70005480828695 181.9445495326072,198.01369338063523 180.03977376967669,200.59096571197733 176.54768487252295,201.695510429563 168.92858182266355,200.59096571197733 164.1666424162686,201.327328894753 162.26186665147543,200.222784063546 160.6745535172522,197.27732951869257 158.1348525006324,195.0682370236609 154.64276360161602,193.22732557356358 153.37291309423745,192.12277825013734 152.10306258499622,188.44095138716511 153.37291309423745,185.4954871777445 155.91261411085725,184.39093747688457 158.1348525006324,184.39093747688457 160.99201614409685,185.86367033678107 165.11903029680252,185.1273039826192 169.2460444495082,184.75912074930966 173.05559597536922,182.55002055410296 175.59529699012637,181.8136535200756 177.50007275305688,182.55002055410296 181.9445495326072,186.6000365400687 182.89693741500378,189.54549984214827 183.21440004184842,192.12277825013734 182.5794747862965,195.0682370236609 181.62708690576255,197.27732951869257 179.08738588914275,198.75005709240213 164.80156766995788,202.06369192735292 154.64276360161602,195.43641920015216 152.4205252137035,191.75459573301487 152.4205252137035,190.6500479578972 153.6903757210821,186.6000365400687 155.5951514840126,185.4954871777445 159.72216563485563,186.6000365400687 163.214254533872,185.86367033678107 168.92858182266355,182.91820401349105 171.78574546426535,182.1818370553665 173.69052122719586,182.1818370553665 175.91275961697102,183.2863874360919 179.72231114283204,186.6000365400687 180.67469902522862,188.80913424375467 181.62708690576255,193.22732557356358 181.3096242789179,197.64551146840677 180.03977376967669,199.48642065329477 178.13499800674617,200.59096571197733 166.0714181791991,202.06369192735292 161.94440402463078,200.222784063546 154.64276360161602,195.0682370236609 153.0554504673928,193.59550794004463 152.4205252137035,192.12277825013734 152.4205252137035,189.91368258465081 153.6903757210821,184.75912074930966 155.27768885716796,184.02275416790508 158.7697777543217,184.39093747688457 160.6745535172522,183.65457082074136 167.65873131342232,179.23636771366 170.8333575837314,178.5 174.0079838540405,179.23636771366 178.76992326043546,182.91820401349105 180.35723639838398,185.86367033678107 180.99216165207326,190.6500479578972 179.72231114283204,195.80460133985616 177.18261012621224,197.64551146840677 171.78574546426535,198.38187525584362 166.3888808041811,198.38187525584362 163.8491797875613,197.27732951869257 161.3094787709415,196.54096550378017 156.86500199139118,194.70005480828695 154.96022623032331,193.22732557356358 154.32530097477138,191.01823058794253 154.96022623032331,188.07276849262416 156.2300767377019,186.2318534576334 160.35709089040756,187.70458556106314 165.43649292364717,187.33640259108506 169.88096970319748,181.07728633540682 171.46828283928335,180.34091899939813 174.0079838540405,181.07728633540682 179.08738588914275,184.75912074930966 181.3096242789179,187.70458556106314 182.5794747862965,191.01823058794253 182.5794747862965,194.70005480828695 181.9445495326072,196.90914752916433 180.67469902522862,198.38187525584362 178.13499800674617,199.48642065329477 166.0714181791991,200.95914732245728 164.1666424162686,200.59096571197733 161.94440402463078,198.75005709240213 160.6745535172522,199.11823889124207 155.27768885716796,197.27732951869257 152.7379878386855,194.3318725565914 151.46813733130693,190.6500479578972 151.46813733130693,188.07276849262416 153.0554504673928,186.6000365400687 154.64276360161602,186.2318534576334 158.45231512747705,186.6000365400687 163.214254533872,185.1273039826192 167.34126868657768,184.39093747688457 171.78574546426535,181.8136535200756 174.96037173829973,182.91820401349105 179.4048485159874,188.07276849262416 180.67469902522862,192.12277825013734 180.99216165207326,196.90914752916433 180.67469902522862,198.75005709240213 179.4048485159874,200.59096571197733 177.50007275305688,201.327328894753 173.05559597536922,200.95914732245728 169.2460444495082,201.327328894753 160.99201614409685,206.48186695110053 160.35709089040756,208.32277160719968 160.99201614409685,216.42274088063277 161.94440402463078,217.52728073042817 163.53171716071665,218.63182023959234 168.92858182266355,218.26364044100046 172.73813334666193,219.0 174.96037173829973,218.63182023959234 180.99216165207326,215.31820069206879 183.8493252955377,214.58184037799947" stroke="#4dd2ff" stroke-linecap="round" stroke-linejoin="round" stroke-width="0.5"><title>2023-04-04 2.2km</title></polyline><polyline fill="none" points="27.780951271764934,249.68926510540769 26.60118909087032,249.41561666759662 26.129284217953682,249.9629135162104 25.657379345037043,250.78385857865214 26.129284217953682,252.15209978749044 27.073093962855637,252.15209978749044 33.44380974583328,246.67913074232638 43.3538120733574,243.12169484514743 44.297621820122004,242.0270982303191 44.53357425518334,240.38520246674307 43.82571694534272,235.18585921963677 43.3538120733574,233.54395924741402 41.46619258262217,231.3547577143181 37.4550011632964,228.0709520468954 35.33142923563719,227.25 32.73595243692398,228.0709520468954 27.544998835772276,231.08110739663243 25.185474472120404,231.08110739663243 23.29785498138517,230.80745705030859 21.174283053725958,231.9020582663361 20.46642574481666,233.27030915417708 20.230473308824003,234.09125935053453 20.70237818080932,234.63855934189633 24.713569599203765,237.92235692823306 28.72476101759821,242.84804573375732 32.028095128014684,244.4899399818387 38.39881090912968,244.4899399818387 44.53357425518334,243.3953439288307 45.7133364379406,242.30074742576107 45.241431564092636,240.9325011675246 45.00547912809998,237.92235692823306 42.645954764448106,234.63855934189633 39.81452552694827,232.9966590332333 33.679762181825936,232.17570849950425 28.96071345359087,232.9966590332333 25.657379345037043,232.72300888388418 22.354045235551894,228.8919038430322 19.994520872831345,227.79730139276944 18.578806254081428,228.0709520468954 18.342853817157447,228.34460267378017 18.342853817157447,229.43920489982702 21.174283053725958,232.44935870589688 24.477617163211107,235.18585921963677 28.488808581605554,243.12169484514743 31.320237818174064,245.5845355866477 33.915714617818594,247.226428152062 37.4550011632964,246.67913074232638 41.46619258262217,244.7635889253579 43.11785963643342,243.12169484514743 44.0616693822667,241.4797997546848 44.0616693822667,236.82775818067603 43.3538120733574,234.63855934189633 42.645954764448106,233.54395924741402 38.63476334605366,231.08110739663243 35.56738167256117,230.2601562740747 33.679762181825936,230.53380667651072 30.376428072340786,232.17570849950425 27.073093962855637,232.44935870589688 24.24166472721845,231.9020582663361 21.174283053725958,234.36490936018527 20.938330616801977,236.28045863984153 21.41023549064994,238.19600654556416 22.354045235551894,239.29060473036952 26.60118909087032,240.9325011675246 29.668570762500167,245.85818441724405 30.848332945257425,246.13183322083205 38.63476334605366,245.31088672787882 41.70214501861483,244.21629101014696 42.881907200440764,242.84804573375732 43.589764510281384,241.4797997546848 44.0616693822667,238.74330569338053 43.82571694534272,235.73315898608416 43.3538120733574,234.09125935053453 42.17404989246279,232.17570849950425 39.34262065496296,229.43920489982702 36.511191418394446,228.34460267378017 35.09547679964453,228.6182532729581 29.43261832743883,231.6284080047626 26.129284217953682,231.9020582663361 23.769759853370488,230.80745705030859 22.354045235551894,231.3547577143181 21.41023549064994,232.17570849950425 21.174283053725958,233.27030915417708 21.646187925711274,234.9122092940379 24.477617163211107,237.10140790999867 26.60118909087032,239.01695522549562 28.488808581605554,244.21629101014696 30.848332945257425,244.7635889253579 36.74714385531843,244.7635889253579 41.23024014569819,243.3953439288307 42.645954764448106,242.0270982303191 43.589764510281384,240.11155307479203 43.82571694534272,238.74330569338053 43.3538120733574,235.45950911636464 42.881907200440764,234.36490936018527 41.46619258262217,232.9966590332333 39.81452552694827,232.17570849950425 34.62357192765921,231.3547577143181 25.893331781961024,232.9966590332333 22.589997672475874,231.3547577143181 20.70237818080932,232.72300888388418 19.758568435907364,234.36490936018527 19.994520872831345,235.73315898608416 21.646187925711274,238.74330569338053 25.893331781961024,241.20615047519095 28.252856145612895,244.7635889253579 31.084285381250083,245.5845355866477 39.57857309188694,245.03723784023896 41.93809745460749,243.94264201121405 43.11785963643342,242.57439659372903 44.0616693822667,240.11155307479203 44.0616693822667,238.74330569338053 43.82571694534272,236.00680882669985 42.17404989246279,234.09125935053453 40.52238283678889,232.9966590332333 38.87071578204632,232.72300888388418 31.320237818174064,233.54395924741402 28.72476101759821,232.9966590332333 24.477617163211107,230.53380667651072 22.118092800490558,230.53380667651072 20.230473308824003,231.3547577143181 22.589997672475874,235.45950911636464 26.365236654877663,239.29060473036952 28.016903709620237,242.84804573375732 30.14047563727945,243.66899298410863 37.92690603621304,244.4899399818387 43.589764510281384,243.3953439288307 44.53357425518334,241.75344900693744 45.00547912809998,239.29060473036952 44.0616693822667,235.45950911636464 41.46619258262217,233.27030915417708 37.92690603621304,231.9020582663361 29.668570762500167,232.44935870589688 24.477617163211107,230.53380667651072 22.825950108468533,230.53380667651072 20.46642574481666,231.6284080047626 20.230473308824003,232.72300888388418 21.174283053725958,234.9122092940379 27.073093962855637,240.11155307479203 29.43261832743883,244.7635889253579 30.848332945257425,246.13183322083205 32.26404756400734,246.67913074232638 39.57857309188694,245.85818441724405 43.11785963643342,243.94264201121405 44.76952669210732,242.30074742576107 45.00547912809998,240.11155307479203 43.3538120733574,234.36490936018527 42.41000232845545,232.9966590332333 36.983096291311085,227.52365071047097 35.80333410855383,227.25 33.679762181825936,228.34460267378017 31.320237818174064,231.08110739663243 29.668570762500167,231.9020582663361 27.780951271764934,232.44935870589688 21.882140363566577,232.17570849950425 20.230473308824003,232.9966590332333 20.938330616801977,234.63855934189633 22.354045235551894,236.00680882669985 26.60118909087032,239.56425420637242 29.43261832743883,243.66899298410863 30.14047563727945,244.21629101014696 31.79214269015938,244.7635889253579 35.56738167256117,245.31088672787882 39.57857309188694,246.9527794616297 43.3538120733574,246.9527794616297 44.53357425518334,246.40548199601471 45.94928887300193,241.75344900693744 45.7133364379406,238.46965613309294 45.00547912809998,236.55410842527635 42.41000232845545,232.72300888388418 38.162858474068344,230.80745705030859 32.73595243692398,230.53380667651072 27.544998835772276,230.80745705030859 25.421426909044385,230.2601562740747 24.00571229122579,230.2601562740747 22.589997672475874,230.80745705030859 20.230473308824003,232.9966590332333 20.230473308824003,234.09125935053453 20.938330616801977,235.45950911636464 23.533807418309152,237.64870728366077 27.309046399779618,240.11155307479203 30.14047563727945,244.4899399818387 32.028095128014684,245.31088672787882 35.80333410855383,245.03723784023896 38.63476334605366,245.5845355866477 40.99428770877421,245.31088672787882 43.11785963643342,244.7635889253579 44.0616693822667,243.94264201121405 44.76952669210732,242.30074742576107 45.241431564092636,237.92235692823306 44.0616693822667,236.00680882669985 42.17404989246279,234.36490936018527 36.74714385531843,232.17570849950425 34.85952436365187,231.9020582663361 29.19666589051485,232.72300888388418 24.477617163211107,231.6284080047626 23.533807418309152,231.9020582663361 21.174283053725958,234.36490936018527 20.938330616801977,236.00680882669985 22.354045235551894,237.64870728366077 26.129284217953682,240.9325011675246 27.780951271764934,244.4899399818387 28.016903709620237,245.85818441724405 26.60118909087032,248.04737405572087 26.60118909087032,251.33115514577366 28.488808581605554,257.0777623327449 30.848332945257425,258.4460003164131 33.44380974583328,258.7196478282567 39.106668218038976,257.625057610916 43.589764510281384,257.3514099859167 45.47738400101662,258.4460003164131 46.421193746849895,259.8142375978641 46.421193746849895,260.6351796297822 45.241431564092636,262.55071005644277 40.286430400796235,264.73988600377925 37.21904872730374,266.9290601564571 34.85952436365187,267.75 33.44380974583328,267.47635341389105 31.084285381250083,266.381766786566 30.14047563727945,262.27706293715164 30.14047563727945,260.9088269181084 30.848332945257425,259.8142375978641 35.33142923563719,256.25681920722127 37.69095359928906,255.43587582791224 44.53357425518334,251.6048033873085 46.421193746849895,251.33115514577366 46.421193746849895,252.9730441761203 46.185241310857236,252.9730441761203 46.65714618284255,252.4257479449734 46.185241310857236,251.87845160160214 46.421193746849895,252.15209978749044" stroke="#ffd700" stroke-linecap="round" stroke-linejoin="round" stroke-width="0.5"><title>2023-04-01 3.2km</title></polyline><polyline fill="none" points="74.71966917067766,244.2755571261514 72.71783097460866,246.59721508133225 69.38143397960812,249.69275568891317 70.93841924425215,247.88702413020656 75.16452210396528,245.30740537075326 77.3887867666781,244.53351922682486 82.05974256061018,244.7914813007228 84.06158075667918,244.2755571261514 85.3961395546794,243.24370845849626 86.5082718860358,241.18000985356048 86.95312481932342,237.82649601064622 86.28584542032331,234.98890388407744 85.1737130889669,232.92519850935787 82.50459549296647,230.34556440962479 80.28033082932234,229.5716736635659 77.83363969996572,229.82963727228343 72.05055157560855,233.1831617737189 69.82628691196442,232.92519850935787 66.93474285118282,231.37741836719215 65.15533111989498,232.1513085567858 66.04503698460758,233.1831617737189 70.71599277760834,235.50482996366918 73.38511037267745,239.6322347894311 74.94209563732147,240.40612244047225 81.83731609396636,240.40612244047225 85.3961395546794,239.6322347894311 86.5082718860358,238.60038421768695 86.95312481932342,237.5685332233552 85.3961395546794,234.21501456713304 83.17187489196658,232.92519850935787 80.50275729503483,232.1513085567858 77.83363969996572,232.6672352179885 72.94025744032115,234.4729776987806 70.49356631096452,234.21501456713304 67.82444871496409,232.6672352179885 67.15716931596398,232.92519850935787 66.26746345125139,233.95705140870996 65.82261051796377,235.2468669367954 66.26746345125139,236.53668180434033 71.16084570996463,239.8901973660104 74.4972427058965,244.7914813007228 75.6093750372529,245.56536736548878 77.83363969996572,246.08129127626307 83.17187489196658,244.7914813007228 84.9512866223231,244.01759499916807 86.0634189536795,243.24370845849626 86.95312481932342,241.18000985356048 87.17555128596723,239.3742721863091 86.73069835174829,236.7946446989663 85.3961395546794,234.73094080435112 81.83731609396636,232.1513085567858 78.72334556560963,231.37741836719215 71.82812510896474,234.4729776987806 70.04871337953955,234.21501456713304 67.6020222492516,233.1831617737189 66.04503698460758,233.44112501107156 65.15533111989498,234.73094080435112 65.15533111989498,236.02075593639165 66.04503698460758,237.0526075665839 69.82628691196442,239.3742721863091 73.16268390696496,242.4698216803372 74.71966917067766,242.98574622510932 81.17003669403493,243.24370845849626 83.39430135861039,242.98574622510932 84.9512866223231,241.95389702916145 86.0634189536795,240.40612244047225 86.5082718860358,238.60038421768695 86.5082718860358,237.0526075665839 86.0634189536795,236.02075593639165 83.39430135861039,233.69908822327852 80.05790436360985,232.6672352179885 72.94025744032115,233.69908822327852 68.71415458060801,233.1831617737189 66.48988991696388,234.21501456713304 66.04503698460758,235.2468669367954 66.04503698460758,236.27871888387017 66.93474285118282,237.82649601064622 70.71599277760834,240.66408493858762 73.38511037267745,244.01759499916807 74.4972427058965,244.7914813007228 76.4990809019655,245.30740537075326 82.50459549296647,245.04944334900938 85.6185660213232,243.75963284540921 86.5082718860358,242.7277839658782 87.17555128596723,240.92204740899615 87.39797775167972,239.3742721863091 86.73069835174829,236.27871888387017 84.06158075667918,232.6672352179885 82.05974256061018,231.37741836719215 79.39062496367842,230.60352793894708 72.49540450889617,233.69908822327852 70.27113984525204,233.95705140870996 67.6020222492516,233.44112501107156 65.82261051796377,233.44112501107156 65.37775758560747,233.95705140870996 65.60018405131996,235.2468669367954 66.48988991696388,236.7946446989663 69.15900751296431,239.3742721863091 71.38327217567712,242.98574622510932 73.16268390696496,244.7914813007228 76.72150736767799,246.59721508133225 80.50275729503483,246.33925319160335 84.06158075667918,244.7914813007228 86.28584542032331,242.211859367555 86.95312481932342,239.8901973660104 86.95312481932342,233.1831617737189 81.83731609396636,231.11945491703227 78.0560661656782,230.60352793894708 72.71783097460866,233.44112501107156 67.15716931596398,233.69908822327852 65.37775758560747,234.73094080435112 64.93290465325117,235.76279296400025 65.60018405131996,237.0526075665839 68.71415458060801,239.1163095573429 71.38327217567712,242.7277839658782 72.49540450889617,243.5016706653405 78.27849263232201,244.2755571261514 82.50459549296647,244.01759499916807 84.28400722332299,243.24370845849626 85.3961395546794,241.95389702916145 86.28584542032331,240.14815991697833 86.5082718860358,238.34242150909267 85.6185660213232,236.27871888387017 81.17003669403493,232.1513085567858 79.61305143032223,231.89334518648684 78.0560661656782,232.1513085567858 71.82812510896474,234.4729776987806 69.82628691196442,234.21501456713304 67.15716931596398,232.6672352179885 66.26746345125139,233.1831617737189 65.60018405131996,234.73094080435112 66.04503698460758,237.5685332233552 67.3795957826078,239.6322347894311 71.82812510896474,241.6959346642252 74.94209563732147,244.53351922682486 75.83180150389671,244.7914813007228 79.39062496367842,243.75963284540921 83.61672782339156,243.5016706653405 85.1737130889669,242.7277839658782 86.5082718860358,241.18000985356048 87.17555128596723,238.85834690043703 87.39797775167972,236.7946446989663 86.95312481932342,233.95705140870996 86.28584542032331,232.4092719007749 84.9512866223231,230.86149144126102 83.39430135861039,229.5716736635659 81.17003669403493,229.3137100294698 79.16819849703461,229.82963727228343 74.4972427058965,233.69908822327852 72.94025744032115,234.4729776987806 70.93841924425215,234.4729776987806 68.4917281139642,233.44112501107156 66.48988991696388,233.69908822327852 65.60018405131996,234.4729776987806 65.60018405131996,235.50482996366918 66.04503698460758,237.82649601064622 66.71231638360769,238.85834690043703 70.71599277760834,240.40612244047225 73.16268390696496,244.01759499916807 75.16452210396528,244.7914813007228 82.72702195867896,244.2755571261514 84.72886015474796,243.75963284540921 86.0634189536795,242.4698216803372 86.95312481932342,239.8901973660104 86.73069835174829,238.08445877279155 85.3961395546794,236.27871888387017 82.94944842439145,234.73094080435112 79.39062496367842,233.95705140870996 72.94025744032115,235.2468669367954 68.26930164918303,234.4729776987806 66.48988991696388,235.2468669367954 66.04503698460758,236.7946446989663 66.48988991696388,238.08445877279155 67.6020222492516,239.1163095573429 72.71783097460866,241.6959346642252 74.4972427058965,244.53351922682486 76.05422796867788,245.82332933461294 77.3887867666781,246.08129127626307 83.61672782339156,244.53351922682486 85.3961395546794,242.98574622510932 86.0634189536795,241.6959346642252 86.28584542032331,239.1163095573429 86.0634189536795,233.95705140870996 85.6185660213232,231.89334518648684 84.72886015474796,230.60352793894708 80.94761022832245,227.50796384573914 79.83547789603472,227.25 78.94577203132212,227.76592766516842 74.94209563732147,231.63538178964518 72.49540450889617,233.1831617737189 70.71599277760834,233.44112501107156 68.0468751816079,233.1831617737189 66.93474285118282,233.69908822327852 65.82261051796377,234.73094080435112 65.37775758560747,236.02075593639165 65.37775758560747,237.0526075665839 66.26746345125139,238.34242150909267 70.93841924425215,241.18000985356048 72.71783097460866,244.53351922682486 72.94025744032115,246.85517694451846 70.93841924425215,249.17683251900598 70.71599277760834,251.49848595121875 71.60569864232093,254.07809836417437 72.71783097460866,255.88382547954097 75.83180150389671,256.915668962989 81.17003669403493,256.3997472743504 85.84099248796701,257.17362976819277 87.84283068496734,258.2054727235809 89.84466888103634,260.78507826058194 90.06709534768015,262.0748800362926 89.84466888103634,263.1067209823523 88.06525715067983,264.65448160655797 81.17003669403493,267.4920402788557 77.83363969996572,267.75 75.83180150389671,267.23408053140156 73.82996330689639,265.6863214939367 72.94025744032115,262.33284031273797 73.16268390696496,260.5271178255789 75.16452210396528,257.6895512987394 77.3887867666781,256.915668962989 82.05974256061018,257.43159054708667 85.84099248796701,253.8201372420881 88.95496301632375,253.04625371610746" stroke="#ffda00" stroke-linecap="round" stroke-linejoin="round" stroke-width="0.5"><title>2023-03-31 3.1km</title></polyline><polyline fill="none" points="120.50352112576365,255.93487563589588 119.93309859000146,257.9195372010581 116.22535211220384,260.89652726007625 113.37323943525553,261.5580802327022 110.52112676016986,261.22730376315303 110.23591549135745,260.5657507220749 113.08802816830575,256.2656526484061 117.93661971762776,252.29632626241073 119.93309859000146,251.6347713896539 126.77816901355982,250.6424388261512 129.9154929574579,248.6577727852855 131.34154929593205,245.6807714337483 131.62676056288183,242.3729889334645 131.05633802711964,238.40364545513876 129.63028168864548,235.09585549356416 128.4894366171211,233.44195924163796 124.21126760356128,230.46494385018013 119.0774647872895,229.47260477533564 117.93661971762776,230.13416419317946 115.08450704067945,233.77273855917156 112.51760563254356,235.75741375773214 107.95422535203397,237.41130882268772 102.82042253389955,240.7190964105539 104.81690140813589,243.36532404040918 110.80633802711964,246.3423275265377 115.94014084525406,250.6424388261512 117.65140845067799,250.97321638162248 126.20774647779763,249.9808836155571 131.34154929593205,248.32699499255978 132.4823943655938,246.01154949725606 131.9119718298316,241.71143202506937 129.3450704216957,238.07286661164835 119.36267605610192,234.4342970943544 113.08802816830575,236.0881928380113 109.6654929574579,235.75741375773214 107.66901408322155,235.09585549356416 104.2464788723737,236.4189718856942 104.2464788723737,238.07286661164835 105.10211267508566,239.7267604903318 111.94718309864402,246.01154949725606 115.36971830949187,251.6347713896539 117.93661971762776,253.28865831741132 120.21830985881388,253.28865831741132 128.20422535203397,250.6424388261512 131.62676056288183,247.66543930699117 133.05281690135598,245.01921520475298 131.9119718298316,238.73442426533438 128.20422535203397,237.742087733699 125.06690140813589,233.77273855917156 120.21830985881388,233.11117988848127 117.93661971762776,233.44195924163796 111.6619718298316,236.4189718856942 106.81338028050959,236.0881928380113 103.67605633661151,238.40364545513876 105.10211267508566,240.38831780478358 109.6654929574579,242.70376733574085 111.6619718298316,244.6884370399639 113.6584507022053,247.9962171667721 115.08450704067945,249.31932826829143 118.50704225338995,249.9808836155571 125.92253521084785,249.31932826829143 127.34859154932201,248.6577727852855 129.63028168864548,246.6731055234559 131.62676056288183,242.04221049603075 131.9119718298316,240.38831780478358 130.77112676016986,235.75741375773214 130.48591549135745,232.11884162854403 129.3450704216957,231.4572826186195 123.07042253389955,231.4572826186195 116.79577464796603,235.42663464322686 113.08802816830575,236.4189718856942 111.09154929593205,236.0881928380113 107.09859154932201,234.10351784387603 106.24295774661005,235.09585549356416 103.96126760356128,239.06520304153673 106.52816901355982,241.71143202506937 111.6619718298316,244.02688060724176 113.6584507022053,247.00388348498382 114.51408450677991,249.31932826829143 115.65492957644165,250.31166123785079 123.35563380271196,250.6424388261512 127.91901408322155,249.65010595903732 129.63028168864548,248.6577727852855 130.48591549135745,247.9962171667721 131.62676056288183,245.01921520475298 131.9119718298316,243.0345457047224 131.34154929593205,240.7190964105539 129.3450704216957,238.40364545513876 127.06338028050959,236.7497508993838 123.07042253389955,235.09585549356416 120.21830985881388,234.4342970943544 112.80281690135598,236.4189718856942 108.80985915288329,235.09585549356416 105.10211267508566,236.4189718856942 105.95774647779763,238.07286661164835 107.66901408322155,240.05753916408867 112.23239436559379,243.69610234024003 115.08450704067945,248.98855054401793 116.22535211220384,249.9808836155571 118.79225351847708,251.30399390286766 126.20774647779763,250.6424388261512 130.77112676016986,248.6577727852855 131.9119718298316,244.3576588400174 130.77112676016986,239.7267604903318 127.06338028050959,236.4189718856942 126.20774647779763,234.4342970943544 120.50352112576365,233.44195924163796 114.51408450677991,236.0881928380113 111.94718309864402,236.4189718856942 108.52464788593352,236.0881928380113 106.81338028050959,235.09585549356416 105.38732394203544,237.41130882268772 104.2464788723737,240.38831780478358 105.38732394203544,243.36532404040918 110.80633802711964,245.6807714337483 113.94366196915507,249.65010595903732 115.08450704067945,250.6424388261512 118.79225351847708,251.30399390286766 123.92605633661151,251.30399390286766 128.20422535203397,249.9808836155571 130.77112676016986,247.33466141251847 131.05633802711964,245.6807714337483 130.77112676016986,243.0345457047224 128.4894366171211,238.73442426533438 124.21126760356128,236.7497508993838 119.93309859000146,235.42663464322686 113.94366196915507,236.7497508993838 107.95422535203397,234.10351784387603 105.95774647779763,235.09585549356416 102.53521126694977,235.42663464322686 102.53521126694977,236.7497508993838 104.81690140813589,239.06520304153673 111.6619718298316,242.3729889334645 112.51760563254356,244.3576588400174 113.94366196915507,249.65010595903732 115.65492957644165,250.97321638162248 121.64436619542539,250.31166123785079 126.20774647779763,250.6424388261512 130.48591549135745,248.6577727852855 131.9119718298316,245.6807714337483 132.19718309864402,243.69610234024003 129.9154929574579,238.07286661164835 125.92253521084785,235.75741375773214 121.92957746423781,234.76507631107233 113.08802816830575,236.4189718856942 107.95422535203397,235.75741375773214 105.95774647779763,236.4189718856942 103.67605633661151,238.73442426533438 104.2464788723737,240.7190964105539 106.52816901355982,242.70376733574085 109.6654929574579,244.6884370399639 113.6584507022053,250.6424388261512 114.79929577372968,251.30399390286766 125.06690140813589,250.97321638162248 129.63028168864548,249.31932826829143 131.34154929593205,245.01921520475298 131.05633802711964,239.7267604903318 131.62676056288183,236.7497508993838 127.63380281627178,233.77273855917156 120.21830985881388,231.4572826186195 119.36267605610192,231.78806214104407 117.36619718186557,234.76507631107233 113.6584507022053,236.0881928380113 108.80985915288329,235.75741375773214 106.52816901355982,234.4342970943544 104.53169013932347,235.42663464322686 102.25,235.75741375773214 102.53521126694977,238.07286661164835 104.2464788723737,241.71143202506937 104.81690140813589,242.04221049603075 106.24295774661005,241.3806535222102 109.95070422440767,242.3729889334645 111.6619718298316,245.01921520475298 114.51408450677991,250.31166123785079 116.51056337915361,251.6347713896539 125.35211267508566,251.6347713896539 129.05985915474594,249.65010595903732 131.34154929593205,246.6731055234559 131.34154929593205,243.36532404040918 130.77112676016986,240.38831780478358 129.9154929574579,239.06520304153673 127.63380281627178,236.7497508993838 124.4964788723737,235.42663464322686 119.64788732305169,235.75741375773214 110.80633802711964,238.40364545513876 109.09507042169571,237.742087733699 107.09859154932201,235.75741375773214 103.96126760356128,237.742087733699 103.96126760356128,239.395981782116 104.53169013932347,240.7190964105539 108.23943661898375,242.70376733574085 111.6619718298316,246.3423275265377 112.23239436559379,250.97321638162248 111.09154929593205,252.62710364721715 109.09507042169571,254.6117672470864 108.52464788593352,255.93487563589588 109.95070422440767,259.57342090527527 110.23591549135745,260.89652726007625 112.51760563254356,264.86584306531586 114.79929577372968,265.52739522466436 118.79225351847708,265.196619162336 135.61971830949187,263.21196207311004 140.46830985881388,262.55040943901986 142.75,261.5580802327022 141.03873239271343,260.89652726007625 138.18661971762776,260.5657507220749" stroke="#ffdc00" stroke-linecap="round" stroke-linejoin="round" stroke-width="0.5"><title>2023-03-30 3.1km</title></polyline><polyline fill="none" points="147.53521126694977,256.59655635873787 147.60651408415288,256.59655635873787 147.74911971762776,256.5138620886719 148.3908450701274,256.59655635873787 149.1038732388988,257.0927218008437 150.10211267555133,256.5138620886719 150.95774647872895,256.5138620886719 151.88468309817836,256.67925062024733 153.09683098550886,256.59655635873787 155.164612676017,256.10039061127463 156.8045774642378,256.017696290568 157.44630281627178,255.6869189221179 157.58890845021233,255.1080582010327 157.58890845021233,253.61955729633337 156.8045774642378,251.6348851507064 156.16285211220384,248.49247759906575 155.44982394343242,247.16935496742371 153.4533450701274,244.6057986919186 153.16813380271196,243.9442344593699 153.2394366194494,243.28266968438402 154.80809859139845,241.6287553726579 156.66197183076292,240.14022959204158 161.22535211220384,237.6593471871456 164.64788732351735,236.17081408086233 171.77816901355982,235.01306421024492 175.62852112622932,234.02070585539332 178.83714788686484,232.69755948329112 179.69278169004247,232.69755948329112 180.33450704207644,233.276436288259 181.61795774661005,234.9303677274147 183.97095070406795,238.65170106489677 185.111795774661,241.04988456214778 186.0387323941104,242.53840866376413 186.39524647872895,243.53075653861742 187.4647887321189,245.59814402315533 187.60739436605945,246.50779283756856 187.4647887321189,247.665526208526 187.03697183076292,248.32708738883957 186.39524647872895,249.07134306791704 184.5413732388988,250.3117676738184 183.04401408461854,251.05602152168285 179.9779929574579,251.8829694361193 176.62676056288183,252.79261116246926 173.63204225338995,253.0406950918259 168.78345070406795,253.9503355124616 166.14524647872895,254.19841908558737 159.5140845067799,255.60422455862863 158.44454225338995,255.52153018699028 157.94542253483087,255.1080582010327 157.5176056334749,254.19841908558737 155.8776408447884,248.57517269160599 154.52288732351735,246.2597068991745 153.52464788686484,245.2673623818555 153.2394366194494,244.6884941830067 153.2394366194494,244.19232111028396 153.6672535208054,243.44806092884392 154.59419014072046,242.37301723263226 156.23415492940694,240.71910105558345 157.3036971827969,239.80944571248256 160.86883802805096,237.82473958469927 164.22007042216137,236.58429577498464 169.06866197148338,235.59193935326766 171.20774647872895,235.42654649785254 175.48591549275443,234.5168851854396 176.48415492940694,234.18609899951844 179.05105633754283,232.8629528983729 179.7640845067799,232.8629528983729 180.19190140860155,233.276436288259 181.4040492954664,234.7649747361429 182.54489436605945,236.8323846895364 183.97095070406795,238.81709325913107 184.89788732351735,240.80179694504477 185.9674295769073,242.53840866376413 187.75,246.09431623091223 187.6786971827969,248.16169714462012 187.32218309864402,248.8232579177129 186.53785211220384,249.4021231494262 184.39876760542393,250.47715747688198 183.47183098597452,251.22141117224237 182.75880281673744,251.4694955846644 178.19542253483087,252.37913777760696 176.91197183076292,252.79261116246926 171.42165492940694,253.53686272131745 170.13820422487333,253.9503355124616 167.28609154885635,254.44650258251932 164.50528169004247,254.61189153802115 159.08626760542393,255.76961327681784 158.01672535203397,256.4311678100494 156.8045774642378,257.5061927693896 154.30897887283936,258.49852222949266 153.3820422529243,258.41582815436414 153.16813380271196,258.58121629594825 153.09683098550886,258.8292984450236 153.59595070406795,259.90432020806475 153.4533450701274,260.31778973533073 152.81161971809343,260.8966467176215 152.0272887321189,261.31011573650176 150.60123239364475,262.3024405167089 149.888204225339,262.3024405167089 149.03257042216137,261.97166572563583 148.46214788686484,260.97934053844074 147.96302816830575,259.90432020806475 147.25,259.07738051738124 147.67781690135598,258.9119924775441 149.17517605610192,258.7466044037137 149.3890845067799,258.8292984450236 149.5316901402548,259.07738051738124 149.95950704207644,259.32546251348685" stroke="#4dd2ff" stroke-linecap="round" stroke-linejoin="round" stroke-width="0.5"><title>2023-03-28 2.9km</title></polyline></svg>