<?xml version="1.0" encoding="utf-8" ?>
<svg baseProfile="full" height="300mm" version="1.1" viewBox="0,0,200,300" width="200mm" xmlns="http://www.w3.org/2000/svg" xmlns:ev="http://www.w3.org/2001/xml-events" xmlns:xlink="http://www.w3.org/1999/xlink"><defs /><rect fill="#222222" height="300" width="200" x="0" y="0" /><text fill="#FFFFFF" style="font-size:12px; font-family:Arial; font-weight:bold;" x="10" y="20">Over 2km Workouts</text><text fill="#FFFFFF" style="font-size:4px; font-family:Arial" x="10" y="280">ATHLETE</text><text fill="#FFFFFF" style="font-size:9px; font-family:Arial" x="10" y="290">Koobai</text><text fill="#FFFFFF" style="font-size:4px; font-family:Arial" x="120" y="280">STATISTICS</text><text fill="#FFFFFF" style="font-size:3px; font-family:Arial" x="120" y="285">Number: 18</text><text fill="#FFFFFF" style="font-size:3px; font-family:Arial" x="120" y="290">Weekly: 4.5</text><text fill="#FFFFFF" style="font-size:3px; font-family:Arial" x="141" y="285">Total: 47.4 km</text><text fill="#FFFFFF" style="font-size:3px; font-family:Arial" x="141" y="290">Avg: 2.6 km</text><text fill="#FFFFFF" style="font-size:3px; font-family:Arial" x="167" y="285">Min: 2.0 km</text><text fill="#FFFFFF" style="font-size:3px; font-family:Arial" x="167" y="290">Max: 4.2 km</text><polyline fill="none" points="23.614179104333743,65.6449471898959 23.07014925335534,65.57484244101215 21.92164179077372,65.71505193132907 19.926865671528503,65.43463292199885 18.05298507446423,65.78515666583553 17.629850746132433,65.71505193132907 17.146268656710163,65.2944233744056 16.662686567287892,64.38306061300682 15.332835820503533,60.59738691023085 14.12388059659861,56.461163905391004 13.64029850717634,55.54978937108535 12.552238805452362,54.147672330902424 12.25,53.65693068760447 12.25,53.02597662853077 12.612686567008495,52.39502198732225 14.30522388056852,50.99289847811451 17.629850746132433,49.0299207350472 19.564179104520008,47.978323197283316 20.04776119394228,47.55768372945022 21.19626865675673,46.08544355380582 21.800746268592775,45.524589319713414 24.88358208956197,43.351274817599915 25.729850746225566,42.86052542558173 26.394776119152084,42.65020414965693 28.32910447753966,42.299668546183966 30.565671641845256,41.24806065740995 32.379104477586225,40.687202455534134 33.95074626849964,40.40677318198141 37.214925372973084,40.12634379352676 39.088805969804525,39.77580689598108 44.40820895531215,37.812796949467156 47.73283582064323,36.76118215965107 48.518656716449186,36.76118215965107 49.30447761178948,37.32204358209856 49.72761194035411,37.882904544705525 50.15074626845308,38.79430262721144 50.332089552190155,39.42526981892297 50.39253731351346,40.056236428325064 50.21119403000921,40.827417048916686 49.30447761178948,42.2295614038012 49.30447761178948,42.72031124890782 49.72761194035411,43.70180988195352 50.87611940293573,45.66480292152846 51.9037313433364,47.838110070093535 52.68955223890953,49.10002717998577 52.75,49.2402400484425 50.815671641612425,50.0815166553366 48.941791044548154,51.13311095844256 46.886567163979635,51.904279086214956 46.402985074557364,52.39502198732225 45.979850746225566,53.65693068760447 45.19402985065244,54.147672330902424 42.292537313420326,55.12915456085466 37.940298507455736,55.61989514756715 34.07164179068059,56.53126958856592 33.46716417907737,56.81169224885525 33.22537313424982,57.16222041292349 32.862686567008495,58.143698315892834 32.56044776085764,58.634436739142984 32.19776119408198,58.914858537202235 30.92835820885375,59.54580716218334 30.384328358108178,60.10664989572251 30.20298507460393,60.87780790310353 30.323880596784875,62.42012130911462 30.263432835694402,62.980961685301736 29.96119402954355,63.61190655839164 29.175373134203255,64.10264105722308 28.14776119403541,64.5933752040728 27.24104477581568,64.80368973058648 26.27388059697114,64.87379455845803 24.762686567148194,64.5933752040728 23.191044776234776,64.52327034750488 22.465671641752124,64.6634800535976 21.982089552097023,65.08410899870796 21.800746268592775,65.78515666583553 21.800746268592775,66.55630826944252 22.042537313187495,67.32745900325244 22.526119402842596,67.81819083576556 23.009701492497697,68.09860886761453 23.79552238783799,68.23881784040714 24.762686567148194,68.16871335776523 25.488059701398015,67.88829535455443 25.911194029729813,67.53777268901467 26.152985074557364,66.97693605022505 26.152985074557364,66.34599428181536 25.911194029729813,65.78515666583553 25.60895522357896,65.43463292199885 25.18582089524716,65.22431858960772 24.581343283411115,65.08410899870796 23.674626865424216,65.08410899870796" stroke="#4dd2ff" stroke-linecap="round" stroke-linejoin="round" stroke-width="0.5"><title>2023-04-17 2.1km</title></polyline><polyline fill="none" points="66.52653631311841,63.914824382867664 62.11452513979748,64.17722751112888 61.662011173320934,64.04602596029872 61.32262569852173,63.78362277825363 60.9832402234897,62.66840805334505 60.58729050285183,60.50357392121805 59.34287709509954,56.04268049268285 58.72067039110698,54.46824009262491 57.53282122919336,52.69699001178378 57.3065642460715,52.1721742314985 57.25,51.712960070581175 57.53282122919336,51.253745580033865 58.268156424863264,50.72892861580476 60.6438547486905,49.54808887245599 63.472067039459944,47.8424276181031 66.52653631311841,45.152721786056645 68.56284916214645,43.70946033671498 70.09008379885927,42.922225446789525 72.35265363124199,42.266195631818846 74.38896648050286,41.34775276097935 76.25558659224771,40.75732450484065 78.06564245815389,40.42930857167812 81.28980446932837,40.101292470120825 82.87360335187986,39.77327620075084 90.05726256966591,37.214743526419625 90.84916201140732,37.14913998992415 91.35824022372253,37.2803470561048 91.98044692748226,37.67396809312049 92.37639664812014,38.133192330249585 92.82891061459668,38.98603646754054 92.94203910627402,39.510863063973375 92.94203910627402,39.97008598264074 92.60265363124199,40.691721331793815 91.75418994412757,41.61016514431685 91.69762569805607,42.13498958823038 93.33798882667907,45.218324501940515 94.412709497381,47.6456202576519 97.29748603352346,52.43458217539592 97.58030726248398,53.15620346646756 97.75,53.812222115986515 97.63687150832266,54.73064709518803 97.29748603352346,55.51786745642312 96.84497206704691,56.04268049268285 96.05307262577116,56.63309464399936 94.3561452513095,57.48591412283713 92.31983240228146,58.14192833309062 86.83310055872425,59.191549670591485 83.83519553067163,59.32275221665623 79.36662011174485,59.7819609164726 76.65153631288558,60.372371617355384 75.46368715073913,60.7659784485586 74.78491620114073,61.09398395655444 73.65363128483295,62.01239848375553 71.39106145268306,62.66840805334505 70.82541899452917,62.996412585896906 70.59916201117449,63.586820320924744 70.71229050308466,65.29243960633175 70.59916201117449,66.0796469738707 70.25977653660811,66.99805434548762 69.80726256966591,67.32605665869778 68.61941340775229,67.39165710110683 66.52653631311841,67.85086001007585 65.9608938547317,67.85086001007585 64.49022346362472,66.40764975803904 62.45391061459668,65.1612382842577 62.05796089395881,64.76763415656751 61.88826815667562,64.30842903495068 62.05796089395881,63.98042517493013 62.68016759771854,63.849223583820276 63.35893854754977,63.849223583820276 64.99930167593993,64.17722751112888 66.41340782120824,64.04602596029872" stroke="#4dd2ff" stroke-linecap="round" stroke-linejoin="round" stroke-width="0.5"><title>2023-04-16 2.2km</title></polyline><polyline fill="none" points="109.08304996346124,40.96984875755152 108.77193228132091,41.090120721026324 108.25340281135868,41.39080041376292 107.68302039441187,41.901955184090184 106.38669671921525,42.83405864847009 105.86816724936944,43.43541415029904 105.79038782871794,43.61582056042971 105.6348289877642,43.97663304780144 105.60890251433011,44.277309781551594 105.9459466697881,45.119202996225795 106.10150551074184,45.840823828504654 106.46447613975033,46.772914775821846 107.00893208337948,47.73507006635191 108.87563817529008,50.531315965170506 109.88677064189687,52.36539826160879 110.76827074086759,54.07920250232564 111.13124136987608,54.319735629542265 111.77940320735797,55.191666562488535 112.27200620388612,55.973395540437195 112.97202098846901,57.326383079140214 113.3349916174775,57.95777512845234 113.98315345495939,58.919893733167555 115.02021239500027,60.332999713136815 115.79800660011824,61.77616475216928 116.13505075545982,62.557876184000634 116.93877143412828,63.910833355243085 116.99062438111287,64.21148965708562 116.91284496057779,64.30168648750987 117.56100679805968,64.93306352433865 118.1313892150065,65.74483200354734 119.50549231073819,68.33044996633544 121.39812487619929,71.4872782122693 121.52775724360254,71.69773222095682 121.60553666413762,71.9983805429365 121.86480139929336,72.35915812259191 121.9685072931461,72.59967626264552 122.07221318723168,72.71993525861762 122.17591908131726,72.75 124.12040459376294,71.21669426496373 124.76856643136125,70.55526578775607 126.01303715934046,69.563120276056 126.58341957640368,69.05201370289433 128.7353168769041,67.42849280001246 129.4094051879365,66.82718648188165 130.93906712450553,65.62457014838583 131.22425833297893,65.2337187785306 131.76871427649166,64.99319459983963 132.77984674298204,64.27162088037585 134.02431747107767,62.978796861483715 135.03544993756805,62.37748142311466 136.07250887760893,61.565703626169125 137.1354942910839,60.51339573127916 138.25033265165985,59.220555150095606 138.6651562275365,58.79962908022571 138.87256801570766,58.529033430619165 139.15775922418106,57.627046129258815 139.3392445386853,56.93552065343829 139.3910974856699,56.544657706836006 139.3392445386853,55.82306320650969 138.87256801570766,54.68053495060303 138.32811207219493,53.6282023570966 136.53918540058658,50.65158400806831 135.1391558315372,47.82527196305455 133.5835674215341,45.02900026747375 133.16874384554103,44.15703912495519 132.85762616351712,43.70602372387657 132.39094964053947,43.25500762919546 132.02797901141457,42.71378740016371 131.79464074992575,42.2627697798016 131.66500838240609,41.691479798348155 130.57609649549704,40.007671274768654 129.22791987343226,37.542077067366336 128.65753745648544,36.57988833950367 127.75011088384781,34.92611908813706 127.179728466901,33.663234471314354 126.71305194380693,33.00172131121508 126.29822836793028,32.70103301797644 125.70191947731655,32.430413290363504 125.00190469285008,32.25 124.58708111685701,32.28006888949312 123.93891927937511,32.490551029273774 123.18705154780764,32.911514855659334 119.63512467814144,35.28694226563675 118.23509510909207,36.15892977837939 117.30174206313677,36.549819890846265 115.95356544107199,37.331598552904325 115.14984476263635,37.87282871356001 114.6053888190072,38.1735117045464 114.19056524313055,38.3238530845847 112.6868297799956,39.10562701791059 111.83125615457539,39.64685390496743 110.76827074086759,40.06780745991273 109.86084416834638,40.669168633263325 109.39416764536873,40.78944071996375" stroke="#ffb600" stroke-linecap="round" stroke-linejoin="round" stroke-width="0.5"><title>2023-04-15 4.2km</title></polyline><polyline fill="none" points="155.93221942009404,60.37800311355386 155.1661412359681,60.9110820980859 154.40006305160932,61.088774983771145 151.99968474148773,60.9110820980859 151.38682219432667,60.674158165755216 150.97824716265313,59.963385785289574 149.6503783101216,56.40951076685451 148.93537200521678,53.44793155172374 148.37358133681118,52.44099116028519 147.40321563673206,50.960193278617226 147.25,50.60480122221634 147.25,50.30864100827603 147.45428751572035,49.71632012486225 148.1182219418697,49.06476645148359 153.1232660782989,45.925452089868486 155.52364438818768,43.61537968314951 157.8729508195538,41.897627546451986 159.14974779332988,41.246065054961946 160.88619167730212,40.890667022555135 163.03121059271507,40.00217098521534 165.43158890283667,39.35060635593254 167.01481714984402,39.05444037239067 169.82377049187198,38.817507476196624 173.80737704923376,37.3366746736574 176.9738335434813,36.50740664603654 177.84205548558384,36.448173170152586 178.55706179048866,36.86280737508787 179.0677805801388,37.4551414376474 179.22099621687084,37.69207489240216 179.2720680956263,38.402874674182385 178.65920554846525,40.29833648283966 178.6081336697098,41.068366066145245 178.8124211851973,41.660695816390216 180.24243379570544,44.85926597297657 180.75315258512273,45.74775454029441 181.26387137454003,46.280847024929244 181.8767339217011,46.51777686004061 182.28530895337462,46.51777686004061 183.51103404792957,46.22161455091555 183.97068095835857,46.34007949277293 185.04319041618146,47.52472757548094 186.2178436317481,48.1762829857762 186.7285624211654,48.59090877312701 187.29035308933817,49.36092730326345 187.6478562420234,50.07171272771666 187.75,50.66403324669227 187.6478562420234,51.256353158620186 187.3414249685593,51.90790436009411 186.7796343001537,52.559454826812726 185.19640605291352,53.86255355575122 180.54886506916955,57.0018247878761 174.93095838581212,59.90415471419692 170.99842370743863,62.865700833906885 169.51733921817504,63.81339238607325 168.08732660789974,64.46492942649638 165.22730138734914,65.53107936237939 162.46941992407665,66.95260954974219 160.9372635560576,67.48568246822106 159.35403530905023,68.19644559471635 159.0476040353533,68.37413623958128 158.8943883983884,68.55182682984741 159.14974779332988,68.55182682984741 160.01796973519959,67.7818338770885 160.3244010086637,67.30799155012937 160.4776166456286,66.65645771572599 160.37547288788483,65.8272317731753 160.22225725091994,65.53107936237939 159.60939470375888,64.93877408537082 158.4347414879594,64.10954567726003 157.20901639340445,62.9841623629909" stroke="#4dd2ff" stroke-linecap="round" stroke-linejoin="round" stroke-width="0.5"><title>2023-04-15 2.1km</title></polyline><polyline fill="none" points="21.419811320723966,109.61037826933898 20.757547169923782,110.02395249262918 20.146226415177807,110.20119849743787 18.05754716997035,109.96487047895789 16.37641509436071,110.02395249262918 16.121698113391176,109.9057884591166 15.968867924530059,109.61037826933898 15.51037735841237,107.71974946878618 14.746226415038109,105.65186711627757 13.727358490694314,102.46140550193377 12.351886792574078,100.33442127937451 12.25,99.86175705259666 12.351886792574078,99.3890924382722 12.912264151033014,98.62101161299506 13.778301886748523,97.91201301931869 15.816037735901773,96.8485134934308 18.36320754699409,95.37142756249523 20.248113207519054,93.30350089841522 23.050000000046566,91.35373467527097 24.06886792462319,90.8219791057636 26.15754717006348,90.34930707659805 28.55188679252751,89.34487772680586 31.50660377368331,88.69495192077011 35.12358490563929,88.45861508219969 38.84245283040218,86.92242326890118 41.03301886818372,86.39066361013101 42.56132075493224,85.79981896933168 43.070754716871306,85.85890346061205 44.29339622659609,86.86333888681838 44.54811320756562,87.45418243703898 44.54811320756562,87.9268568410771 44.395283018937334,88.3404466265929 43.37641509436071,90.11297091637971 43.27452830201946,90.40839110140223 43.3254716983065,90.7038111347938 43.63113207556307,91.41281859722221 45.77075471705757,95.31234404660063 46.33113207574934,95.90317893394968 46.840566037921235,96.08042928192299 47.50283018872142,96.02134583861334 48.67452830215916,95.48959457635647 49.13301886827685,95.54867807420669 50.61037735873833,96.73034675832605 51.782075471943244,97.91201301931869 52.34245283040218,98.68009478965541 52.69905660394579,99.6254247938632 52.75,100.21625525905984 52.69905660394579,100.74800215970026 52.495283018797636,101.22066565940622 52.138679245486856,101.7524116334971 51.42547169839963,102.40232271287823 48.57264150958508,104.588381874084 46.89150943397544,105.4746197120403 44.19150943425484,107.18800900119822 39.35188679257408,109.78762440133141 37.874528301879764,110.91018197161611 36.09150943416171,112.44630984030664 34.20660377363674,113.15529055264778 30.69150943378918,114.69141243695049 28.093396226409823,116.16844884917373 27.176415094407275,116.58201836619992 26.61603773618117,116.70018103072653 26.259433962404728,116.52293702476891 25.953773584915325,116.16844884917373 25.597169811604545,115.51855329418322 25.34245283016935,115.1640645005973 24.425471698166803,114.45508625963703 23.30471698124893,113.80518877261784 22.94811320770532,113.45069892529864 22.43867924530059,112.38722807500744 22.03113207546994,110.02395249262918 21.67452830192633,109.19680374924792" stroke="#4dd2ff" stroke-linecap="round" stroke-linejoin="round" stroke-width="0.5"><title>2023-04-14 2.2km</title></polyline><polyline fill="none" points="67.683518005535,111.4965460919193 66.67382271471433,110.65081895783078 66.39335180050693,110.58576297783293 66.11288088653237,110.58576297783293 65.66412742412649,110.97609875828493 64.59833795018494,112.5374394787359 64.03739612200297,113.05788553174352 63.476454293588176,113.38316409831168 62.85941828251816,113.51327547820983 62.41066482011229,113.51327547820983 62.07409972301684,113.31810839823447 61.793628809042275,112.86271831183694 61.17659279773943,110.91104281164007 60.16689750691876,108.56902428745525 59.66204986162484,106.6823919681483 59.21329639898613,105.5113759827218 58.70844875345938,104.60058427799959 57.64265927998349,103.299451003375 57.306094182888046,102.7139401595341 57.25,102.19348562229425 57.41828254866414,101.73808755219216 57.867036011302844,101.28268915496301 58.65235457057133,100.69717644999037 61.45706371194683,99.20086374942912 63.756925208028406,98.15994848503033 64.26177285332233,97.70454751997022 65.83240997232497,95.88294039125321 67.12257617758587,94.64684686111286 68.18836565106176,93.80109726887895 69.25415512477048,93.34569317533169 75.5367036012467,91.06866780493874 81.42659279773943,90.09279728744878 85.01662049861625,88.92175068531651 87.54085872578435,87.8808185578091 89.11149584478699,87.49046856974019 90.40166204981506,87.03505994670559 90.85041551245376,86.97000154532725 91.29916897485964,87.10011834144825 91.69182825484313,87.42541021498619 92.30886426591314,88.14105174975703 92.86980609409511,89.11692526901606 92.9819944598712,89.89762300380971 92.75761772855185,90.41808762669098 92.08448753459379,91.26384172827238 91.80401662038639,91.78430523048155 91.69182825484313,92.36982616013847 91.74792243749835,92.89028875500662 92.30886426591314,93.99627035186859 93.542936288286,95.94799787871307 95.22576177306473,99.13580659538275 96.23545706365258,101.34774608898442 97.52562326844782,103.42956445092568 97.75,104.34035783651052 97.75,105.31620644195937 97.52562326844782,105.70654546376318 96.68421052629128,106.29205354646547 93.82340720226057,107.65823697176529 92.75761772855185,108.04857455275487 86.81163434917107,109.08947359549347 84.06301939068362,109.349698089296 81.81925207749009,109.67497855657712 75.5367036012467,110.91104281164007 74.80747922416776,111.23632247844944 73.79778393357992,112.0169929987751 71.72229916905053,112.66755103203468 70.93698060954921,113.05788553174352 70.71260387822986,113.38316409831168 70.48822714714333,114.87944335618522 70.26385041559115,115.13966547575546 69.81509695295244,115.33483199519105 67.73961218842305,115.52999845467275 67.34695290867239,115.46494297479512 67.01038781157695,115.26977649546461 66.67382271471433,114.74933225638233 66.72991689760238,114.22888759057969 67.01038781157695,113.83855381113244 67.62742382287979,113.51327547820983" stroke="#4dd2ff" stroke-linecap="round" stroke-linejoin="round" stroke-width="0.5"><title>2023-04-13 2.0km</title></polyline><polyline fill="none" points="112.82251381222159,113.21989041444613 112.20718232053332,113.41451827879064 111.70372928166762,113.349642330606 110.08149171294644,112.70088248327374 109.41022099461406,112.50625439931173 108.4033149171155,112.6360064620385 107.22859116038308,112.96038650203263 107.00483425427228,112.89551050728187 106.78107734816149,112.70088248327374 105.43853591172956,109.13269143353682 104.93508287286386,106.92689053941285 104.37569060758688,105.36984998453408 103.92817679559812,104.52645141782705 102.7534530388657,103.29378995182924 102.3618784530554,102.58014274243033 102.25,102.19088028901024 102.30593922664411,101.7367404573597 102.80939226527698,100.89333704806631 103.64848066307604,100.3094417215907 105.66229281784035,99.33628164697438 108.45925414375961,97.77922241424676 109.18646408850327,97.19532421417534 111.53591160243377,94.92460386967286 114.27693370170891,93.3026557774865 115.45165745867416,92.78363150998484 117.63328729290515,92.19972869986668 120.82182320440188,90.9670432205894 122.66781767993234,90.38313873432344 124.34599447529763,90.05874712002696 126.97513812151738,89.73435533989687 128.09392265207134,89.34508498373907 129.43646408850327,88.63142204238102 130.9468232046347,88.56654355331557 132.00966850831173,88.30702953011496 133.68784530390985,87.78800116496859 135.70165745867416,86.94457916310057 136.26104972371832,86.94457916310057 136.87638121540658,87.39872961130459 137.6595303870272,88.50166505743982 137.82734806649387,89.15044971578754 137.88328729290515,89.60459858097602 137.6595303870272,90.38313873432344 136.7085635359399,91.87533801712561 136.65262430952862,92.26460681663593 136.76450276235119,92.78363150998484 137.2120165748056,93.82167961937375 138.66643646429293,96.09240392170614 140.28867403324693,98.81726232840447 141.3515193371568,101.15284590912051 142.5262430938892,103.0342819687794 142.69406077358872,103.61817478091689 142.75,104.13719016168034 142.6381215469446,104.59132827050053 142.41436464106664,105.1103428528877 141.85497237555683,105.56448026339058 141.29558011051267,105.95374064153293 139.2258287295699,107.1215203392203 138.16298342542723,107.5107797596138 136.26104972371832,107.83516242686892 133.68784530390985,108.41905080917059 130.77900552516803,108.80830943130422 128.37361878459342,109.06781504623359 120.82182320440188,110.36534152535023 120.03867403324693,110.68972272938117 118.97582872933708,111.33848463877803 117.63328729290515,111.79261757957283 115.50759668508545,112.70088248327374 113.38190607749857,112.83063450595364 112.1512430938892,113.02526249026414 111.64779005525634,113.349642330606 111.36809392273426,113.86864972976036 111.31215469632298,114.38765670312569 111.36809392273426,114.84178745560348 111.64779005525634,115.16616636497201 112.03936464083381,115.36079363094177 112.59875690634362,115.55542083689943 113.27002762444317,115.55542083689943 114.7244475139305,115.10129059635801" stroke="#4dd2ff" stroke-linecap="round" stroke-linejoin="round" stroke-width="0.5"><title>2023-04-12 2.0km</title></polyline><polyline fill="none" points="151.7405857737176,112.55059202277334 151.48640167340636,112.2557984252926 151.48640167340636,111.27315244625788 150.38493723794818,108.32520846405532 149.79184100404382,105.96684675000142 148.35146443499252,104.09980627743062 147.7583682006225,103.21541741571855 147.41945606656373,102.23276216810336 147.33472803328186,101.44663724431302 147.58891213405877,100.66051167598926 149.45292886951938,97.31947081623366 151.48640167340636,95.25588093773695 152.4184100413695,94.46975029166788 154.19769874447957,93.38881960004801 156.14644351461902,92.50442085473333 162.4163179914467,90.44082060852088 164.70397489517927,90.24428702000296 172.83786610839888,88.7702838217374 174.0240585776046,88.37721591920126 175.80334727978334,87.39454545796616 176.90481171570718,87.00147699093213 177.66736401664093,87.00147699093213 178.59937238506973,87.19801124470541 179.19246861943975,87.88588081451599 180.29393305443227,89.65468601259636 183.00523012550548,94.46975029166788 184.02196652721614,96.92640642018523 186.14016736391932,100.26744864985812 187.07217573234811,101.1518402317306 187.66527196625248,102.527558848029 187.75,103.21541741571855 187.5805439329706,104.39460238337051 187.32635983265936,105.27899015671574 186.9874476986006,105.77031634515151 185.63179916329682,106.85123307275353 182.49686192441732,108.42347340949345 180.63284518849105,108.81653309083777 178.5146443513222,109.60265196970431 173.6004184097983,110.78182907885639 170.29602510435507,111.07662312942557 166.7374476986006,111.17488779267296 162.75523012550548,111.96100473747356 158.85774058569223,112.55059202277334 154.96025104587898,113.72976550529711 153.60460251010954,113.82802989683114 153.09623430902138,113.5332366921939 152.75732217542827,112.74712103727506 151.7405857737176,109.50438714498887 150.38493723794818,106.06511193717597 148.69037656858563,103.60847923281835 147.50418410031125,102.13449658773607 147.25,101.44663724431302 147.25,100.26744864985812 148.18200836796314,97.90906710847048 149.28347280295566,96.63160801719641 151.6558577399701,94.96108202071628 154.87552301213145,93.09402010880876 155.97698744758964,92.40615427691955 157.5020920499228,91.81655459979083 164.28033472783864,90.14602021075552 167.5,90.04775339143816 170.9738493724726,89.2616184730432 172.41422594105825,88.86855077202199 175.4644351466559,87.49281254922971 177.66736401664093,87.00147699093213 178.5146443513222,87.00147699093213 179.0230125519447,87.49281254922971 181.14121338864788,91.71828795148758 182.6663179914467,94.17495113285258 184.2761506275274,97.51600295398384 186.14016736391932,99.67785380873829 187.49581589968875,102.13449658773607 187.66527196625248,103.01888644701103 187.32635983265936,105.18072488892358 186.90271966485307,105.86858155252412 185.97071129688993,106.65470284939511 182.6663179914467,108.42347340949345 180.7175732217729,109.11132774577709 177.92154811695218,109.60265196970431 174.5324267782271,110.48703493742505 172.24476987449452,110.88009377272101 170.12656903779134,111.17488779267296 168.00836820108816,111.17488779267296 157.16317991632968,112.94365001126425 153.77405857713893,113.82802989683114 153.09623430902138,114.22108736133669 152.4184100413695,115.00720180739881 151.910041840747,115.20373031834606 150.4696652716957,115.10546606802382 147.50418410031125,115.49852300900966" stroke="#4dd2ff" stroke-linecap="round" stroke-linejoin="round" stroke-width="0.5"><title>2023-04-11 2.4km</title></polyline><polyline fill="none" points="27.463334867730737,153.11543731647544 26.1202241666615,154.67312802630477 24.105558114126325,159.7356184250675 26.79177951812744,166.74520937539637 25.78444649092853,167.9134732768871 24.105558114126325,167.52405201573856 23.43400276452303,166.74520937539637 22.76244741305709,161.29330642079003 25.78444649092853,157.0096628954634 23.09822508879006,152.7260145386681 18.06155995838344,150.7789000524208 17.054226933047175,149.61063088220544 16.38267157971859,145.3269741809927 18.733115307986736,141.4327366242651 27.127557191997766,135.59137280401774 36.86510977707803,134.42309896158986 40.22288653254509,134.81252361577936 45.93110701441765,139.09619217342697 47.274217715486884,144.54812698927708 46.60266236588359,147.6635147978086 44.92377398721874,150.7789000524208 38.543998155742884,155.4519731423352 35.18622140213847,155.4519731423352 26.79177951812744,155.4519731423352 16.04689390398562,149.61063088220544 15.375338554382324,147.2740914619062 16.04689390398562,139.875040483661 28.806445568799973,132.47597509319894 32.835777673870325,130.9182752794586 36.52933210320771,130.13942513405345 39.55133118107915,130.9182752794586 43.5806632861495,134.81252361577936 46.60266236588359,140.6538886348717 45.93110701441765,146.4952446690295 42.573330260813236,150.38947703503072 38.543998155742884,152.7260145386681 30.149556271731853,153.50486005377024 25.11289113946259,155.06255060480908 18.397337632253766,151.55774596589617 17.390004605054855,149.61063088220544 17.72578228265047,147.2740914619062 21.419336710125208,142.60100831021555 26.79177951812744,139.48561634891666 32.499999998137355,133.2548247606028 35.52199907787144,132.86539994738996 38.20822048000991,134.03367426851764 42.573330260813236,137.92791941110045 44.58799631334841,141.4327366242651 45.25955166295171,146.10582121275365 43.91644096188247,149.61063088220544 41.565997233614326,151.9471688636113 37.87244280613959,153.89428275101818 29.813778594136238,153.50486005377024 24.77711346372962,154.28370540821925 20.747781360521913,151.55774596589617 16.38267157971859,150.0000539785251 14.703783202916384,148.4423613511026 14.368005529046059,145.71639771782793 15.375338554382324,138.70676795905456 16.71844925545156,136.7596462869551 21.083559036254883,132.86539994738996 24.105558114126325,131.30770029197447 32.499999998137355,129.75 37.87244280613959,130.52885022666305 40.22288653254509,132.0865502001252 44.25221863761544,136.3702218332328 46.26688469015062,140.26446457928978 46.26688469015062,141.8221605590079 45.93110701441765,144.1587033327669 44.25221863761544,146.8846680847928 42.237552585080266,149.22120774374343 37.53666512854397,151.55774596589617 26.45600184239447,154.28370540821925 24.77711346372962,153.89428275101818 22.09089206159115,151.55774596589617 18.06155995838344,149.61063088220544 17.054226933047175,147.6635147978086 17.390004605054855,142.60100831021555 19.40467065759003,139.48561634891666 30.48533394560218,131.69712526584044 34.178888376802206,130.9182752794586 36.19355442747474,131.69712526584044 39.88710885681212,134.42309896158986 43.24488561041653,137.92791941110045 44.25221863761544,140.26446457928978 44.25221863761544,142.99043212644756 43.24488561041653,147.6635147978086 40.22288653254509,152.33659172151238 36.86510977707803,153.89428275101818 26.1202241666615,154.67312802630477 17.72578228265047,149.22120774374343 16.38267157971859,147.2740914619062 16.04689390398562,145.3269741809927 16.71844925545156,139.875040483661 18.06155995838344,137.53849507588893 32.835777673870325,130.13942513405345 35.18622140213847,130.13942513405345 40.55866420827806,133.64424953376874 46.60266236588359,139.875040483661 47.274217715486884,142.21158445533365 46.93844004161656,144.93755060480908 46.26688469015062,146.8846680847928 44.92377398721874,149.22120774374343 39.55133118107915,152.7260145386681 28.134890219196677,155.8413956409786 24.441335789859295,155.4519731423352 20.747781360521913,153.50486005377024 19.068892983719707,151.55774596589617 18.733115307986736,147.6635147978086 20.412003684788942,142.99043212644756 25.11289113946259,140.6538886348717 32.835777673870325,135.59137280401774 35.52199907787144,134.42309896158986 37.20088745467365,134.81252361577936 40.22288653254509,136.7596462869551 43.5806632861495,139.48561634891666 44.58799631334841,141.0433126485441 45.25955166295171,146.4952446690295 44.58799631334841,149.22120774374343 43.24488561041653,150.7789000524208 41.230219557881355,151.9471688636113 34.178888376802206,152.7260145386681 25.448668817058206,154.67312802630477 18.397337632253766,150.0000539785251 16.38267157971859,146.4952446690295 16.04689390398562,144.1587033327669 16.71844925545156,140.26446457928978 17.390004605054855,138.70676795905456 20.076226010918617,136.3702218332328 27.127557191997766,134.81252361577936 34.51466605067253,130.52885022666305 37.87244280613959,131.30770029197447 44.25221863761544,137.53849507588893 45.59532933868468,139.09619217342697 46.60266236588359,142.99043212644756 45.59532933868468,147.2740914619062 43.91644096188247,150.0000539785251 42.237552585080266,151.55774596589617 28.470667894929647,155.06255060480908 22.42666973732412,158.95677418680862 22.42666973732412,162.07215017848648 24.441335789859295,168.30289449705742 25.78444649092853,169.86057897889987 28.134890219196677,170.25 39.215553507208824,168.6923156771809 42.237552585080266,169.47115791821852 46.26688469015062,167.52405201573856 50.631994469091296,164.4086804955732" stroke="#4dd2ff" stroke-linecap="round" stroke-linejoin="round" stroke-width="0.5"><title>2023-04-10 2.2km</title></polyline><polyline fill="none" points="62.8354985374026,170.25 62.76686592516489,169.6408250030945 62.67535577574745,169.3759658638155 62.42370286444202,168.8197607935581 62.355070252204314,168.26355453391443 62.355070252204314,167.46897210009047 62.49233547656331,166.59492861942272 62.65247823833488,166.03871760261245 63.17866159812547,164.47602314286632 63.407436971901916,163.91980759517173 63.65908988320734,162.91331929489388 64.09376309346408,161.66844679918722 64.61994645325467,160.55600250681164 65.30627257481683,158.72840512590483 65.58080302341841,158.2251514182135 65.83245593460742,157.24512824576232 66.26712914486416,156.05320319446037 66.38151683181059,155.15263397747185 66.61029220558703,154.41098639849224 67.06784295325633,153.40446130148484 67.77704661211465,150.7821802549879 68.05157706083264,149.93456860582228 68.60063795791939,148.5836818300886 68.87516840652097,147.60362232621992 69.17257639265154,146.83546499814838 69.40135176642798,146.38516481989063 69.51573945325799,146.1732585838181 69.83602497668471,145.80242225527763 69.92753512621857,145.5905155444052 70.29357572447043,144.34556013083784 70.97990184579976,142.67678075961885 71.39169751876034,141.82914269217872 71.68910550465807,140.76959122245898 72.00939102808479,140.00141370741767 72.30679901398253,139.07429989121738 72.58132946281694,138.43856279258034 72.8558599113021,137.90878068978782 73.01600267295726,137.7763349954621 73.29053312155884,137.80282413971145 75.55540932249278,138.46505186942522 75.89857238321565,138.62398627356743 76.37900066829752,138.38558463094523 77.13395940198097,137.1670839326398 77.84316306083929,136.13400278103654 78.20920365897473,135.63070534850704 78.59812179440632,135.20687517611077 79.51322328974493,134.438681227708 81.06889583182056,133.40558923629578 82.02975240210071,132.92877616352052 82.46442561224103,132.79632793250494 82.80758867308032,132.79632793250494 83.05924158426933,132.45196221632068 83.05924158426933,132.31951374252094 83.65405755618121,131.92216791631654 83.76844524312764,131.5778010423819 83.9285880047828,130.1208592215553 83.99722061690409,129.96191961996374 84.24887352820951,129.75 85.4385054721497,130.09436929467483 85.80454607016873,130.1473491457 88.41258533205837,130.22681890195236 89.25905421515927,130.359268441709 89.32768682739697,130.41224823877565 89.41919697681442,130.51820780045819 89.53358466376085,131.04800496116513 89.51070712634828,131.33939293943695 89.41919697681442,131.68376012903173 89.44207451422699,131.89567817302304 89.64797235070728,131.92216791631654 89.94538033660501,130.25330881529953 90.08264556096401,130.09436929467483 90.38005354686175,130.06787936508772 90.51731877122074,130.1208592215553 90.6088289207546,130.30628863399033 90.6774615328759,131.33939293943695 90.7460941451136,131.5778010423819 90.83760429464746,131.73673965624766 91.15788981807418,131.89567817302304 91.91284855164122,132.13408576583606 92.3246442246018,132.13408576583606 92.6449297479121,132.05461659253342" stroke="#4dd2ff" stroke-linecap="round" stroke-linejoin="round" stroke-width="0.5"><title>2023-04-09 2.8km</title></polyline><polyline fill="none" points="133.09230769239366,130.2063643343863 132.54711538460106,132.82152342167683 132.39134615380317,133.09205667936476 132.15769230760634,133.18223441380542 132.46923076966777,132.82152342167683 133.17019230732694,134.0840112506412 133.01442307699472,135.70720724272542 132.85865384619683,136.2482719119871 132.46923076966777,136.69915888400283 132.46923076966777,138.41252728307154 132.70288461539894,139.4946529843146 131.9240384614095,141.92943097674288 131.6125000002794,142.5606686224346 130.9894230766222,143.1919058180647 130.9894230766222,143.37225921993377 131.30096153868362,143.46243590698577 130.9894230766222,143.46243590698577 130.75576923042536,143.91331920510856 129.97692307690158,145.98737941787113 128.88653846131638,147.43020104814786 128.18557692319155,148.96319645404583 128.029807691928,149.41407695086673 128.1076923077926,150.04530926031293 128.41923076892272,150.4961892060237 128.49711538432166,150.76671706303023 127.32884615380317,154.19339609832969 125.84903846122324,157.710237108171 125.84903846122324,157.98076276102802 126.00480769202113,157.98076276102802 126.70576923061162,157.3495361090172 126.62788461567834,158.9726894479827 126.08269230742007,159.69408997654682 125.69326923089102,161.22706414887216 124.44711538450792,160.77618966781301 123.35673076938838,160.59583981119795 123.12307692319155,160.6860147441621 123.12307692319155,161.04671438393416 123.27884615398943,160.5056648691534 123.0451923077926,160.23513998754788 121.2538461536169,159.15303963521728 119.77403846150264,158.52181381871924 118.60576923098415,158.4316386654973 118.37211538478732,158.9726894479827 118.13846153859049,157.710237108171 118.91730769211426,155.90673064312432 118.91730769211426,155.54602890915703 117.9826923077926,155.9969060534495 117.74903846113011,155.9969060534495 117.90480769239366,155.81655522348592 117.90480769239366,156.08708145469427 117.35961538460106,157.3495361090172 117.51538461539894,157.5298866268713 117.82692307699472,157.25936083617853 117.9826923077926,158.07093796040863 117.74903846113011,157.8905875524506 116.4250000002794,157.98076276102802 115.80192307708785,157.710237108171 114.94519230769947,157.25936083617853 114.86730769230053,157.25936083617853 114.86730769230053,157.43971137265908 115.17884615343064,157.5298866268713 115.49038461549208,157.43971137265908 115.7240384616889,157.25936083617853 115.7240384616889,156.80848433467327 115.56826923089102,156.26743223000085 114.71153846150264,155.63620435656048 114.01057692337781,155.45585345261497 112.375,155.63620435656048 109.25961538450792,154.28357168333605 108.09134615352377,153.92286928842077 106.37788461521268,154.73444947076496 105.44326923042536,155.54602890915703 104.74230769230053,155.81655522348592 105.52115384628996,155.90673064312432 106.61153846140951,155.45585345261497 105.13173076929525,155.81655522348592 104.9759615380317,155.81655522348592 104.89807692309842,156.08708145469427 105.36538461549208,156.62813366978662 105.52115384628996,156.98883496283088 105.28750000009313,158.2512883313466 105.75480769202113,158.4316386654973 106.92307692300528,158.6119889630354 106.0663461536169,158.8825143405702 104.74230769230053,159.6039149427088 104.19711538450792,160.05479002080392 103.57403846131638,161.13688927114708 103.34038461558521,161.6779384003603 103.41826923051849,161.94846284104278 103.41826923051849,161.76811322307913 102.25,163.75195699970936 102.48365384619683,164.02248080656864 103.18461538478732,164.4733536344138 105.13173076929525,165.01440072490368 108.09134615352377,166.72771433013259 109.64903846150264,167.26876004319638 110.58365384628996,167.35893429641146 110.73942307662219,167.26876004319638 110.42788461502641,167.08841150894295 110.42788461502641,166.99823722819565 111.59615384601057,166.27684265031712 112.9201923077926,164.7438772211899 113.93269230751321,162.57968621433247 115.10096153849736,162.128812422161 115.49038461549208,161.85828803642653 121.2538461536169,164.29300453100586 124.60288461530581,165.1045752078644 124.7586538461037,165.3750986016239 126.78365384601057,166.5473656859831 132.15769230760634,168.8017211011611 133.32596153812483,168.1705021635862 134.18269230797887,168.1705021635862 136.28557692328468,169.25259149546036 137.22019230760634,169.43293958890717 137.92115384619683,169.16241743485443 138.9336538463831,168.08032799273496 139.4009615383111,168.08032799273496 140.88076923089102,168.62137287913356 142.75,169.7936356656137" stroke="#4dd2ff" stroke-linecap="round" stroke-linejoin="round" stroke-width="0.5"><title>2023-04-09 2.5km</title></polyline><polyline fill="none" points="154.2047166567063,138.35330647215596 153.8651514631929,138.4138922491693 153.13378027733415,139.17121341484017 150.7307035237318,140.65555726911407 150.70458312425762,141.50375040981453 150.57398112677038,142.01872362877475 150.75682392320596,142.5639884120319 151.01802791829687,143.04866737461998 151.61879710666835,143.92714596827864 152.3240478929365,145.0782518966007 153.96963306120597,147.95599710129318 154.72712464665528,149.53117208281765 155.27565303596202,150.4399230608833 155.40625503356569,151.01546390162548 156.42495061375666,152.07566777948523 157.36528499552514,153.68111212577787 158.04441538243555,155.1653831024014 158.41010097542312,155.71062362991506 159.37655575678218,157.0737205479527 160.49973293510266,158.8003009527165 160.99602052546106,159.83018621613155 162.01471610588487,161.52646000348614 162.06695690494962,161.73849354239064 162.01471610588487,161.98081740076304 162.95505048776977,162.95011084686848 166.4029432211537,168.9475433647458 166.58578601758927,169.3413099295285 166.66414721612819,169.79565531390836 167.02983280911576,170.25 167.160434806603,170.25 169.3545483641792,168.3114578059176 169.9553175526671,167.70566076299292 172.09719031117857,166.00942243737518 173.45545108499937,165.1007193303376 176.11973183369264,162.88953009966644 176.8249826199608,162.4351740993734 178.339965790743,161.1326830277103 179.7765877629863,160.04222097198362 182.25802571501117,157.7704121005081 183.30284169490915,156.58906458629644 183.5901660893578,156.31644525850425 184.00809248141013,155.80149695344153 184.1909352777293,155.1653831024014 184.37377807416487,153.98402517542127 184.42601887322962,153.37819876574213 184.37377807416487,153.13586785405641 183.11999889847357,150.7731310526433 181.7356177251786,148.59212646994274 179.9594305594219,145.29029723646818 179.51538376801182,144.5632840092876 178.2616045922041,142.32164863258367 177.45187220792286,140.9887762933795 176.74662142142188,139.56501965387724 175.93688903714065,138.32301357900724 175.41448104719166,137.29305336225661 174.60474866291042,135.8995720607927 172.33227390656248,131.77967586443992 171.4964211229235,130.4467559728073 171.20909672835842,130.14381879527355 170.55608674092218,129.8711750698276 169.79859515558928,129.75 169.40678916312754,129.7802937720844 168.80601997487247,129.99235008991673 166.11561882670503,131.6282079977682 163.3207360805245,133.2337634342257 162.69384649279527,133.6881643322995 161.3094653195003,134.53637747233734 158.12277658097446,136.35396885935916 155.92866302339826,137.47481130843516 155.1972918374231,137.95949861826375 154.83160624455195,138.11096323953825 154.5442818501033,138.17154906634823" stroke="#ffb800" stroke-linecap="round" stroke-linejoin="round" stroke-width="0.5"><title>2023-04-09 4.1km</title></polyline><polyline fill="none" points="21.80546349659562,194.70007972116582 22.023719343356788,197.9907079259865 22.023719343356788,203.8125778522808 23.988021965138614,201.02820699149743 26.8253479776904,198.75008304254152 28.78965060133487,197.9907079259865 34.02779092825949,196.97820740705356 37.08337278664112,194.95320512307808 38.174652023240924,191.91569858440198 38.174652023240924,189.1313143062871 37.5198844820261,186.85317938076332 36.21034939959645,185.08129520644434 34.682558469474316,183.8156628755387 32.71825584676117,183.0562831654679 31.40872076433152,183.0562831654679 29.880929836072028,183.3094097613357 24.861045354045928,185.5875479571987 20.05941672064364,185.5875479571987 19.186393331736326,186.6000531478785 18.531625790521502,188.62506228266284 18.749881638213992,190.3969439130742 20.714184261858463,192.9282011790201 28.134883060120046,197.73758283467032 37.73814032878727,194.44695429317653 39.70244295056909,194.44695429317653 39.04767540935427,192.9282011790201 38.174652023240924,191.91569858440198 36.42860524635762,190.90319557324983 34.46430262364447,190.3969439130742 32.06348830554634,190.1438180434052 26.388836284168065,190.3969439130742 22.241975190117955,189.6375662270002 18.09511409699917,189.89069214789197 21.150695955380797,190.90319557324983 24.64278950728476,194.44695429317653 26.60709212999791,194.95320512307808 34.24604677595198,194.95320512307808 37.5198844820261,193.94070335826837 38.61116371676326,193.18132676254027 38.8294195625931,191.91569858440198 38.39290787000209,188.37193623138592 38.61116371676326,188.62506228266284 38.39290787000209,188.11881015403196 34.46430262364447,185.84067429439165 32.06348830554634,185.33442159486003 31.190464917570353,185.33442159486003 27.261859671212733,187.10630558733828 26.388836284168065,186.85317938076332 23.551510272547603,182.8031565430574 23.551510272547603,181.79064979660325 23.988021965138614,181.53752304427326 26.60709212999791,180.27188889682293 31.845232457853854,178.5 34.46430262364447,178.5 35.55558185838163,179.5125080961734 36.21034939959645,180.52501577790827 36.21034939959645,183.56253633159213 33.59127923473716,189.89069214789197 31.190464917570353,193.68757785251364 29.226162294857204,194.1938288381789 25.952324588783085,190.90319557324983 22.241975190117955,188.87818830669858 21.150695955380797,188.87818830669858 19.84116087295115,189.3844402791001 18.531625790521502,190.90319557324983 18.09511409699917,191.66257287026383 18.749881638213992,191.91569858440198 22.241975190117955,191.66257287026383 23.333254425786436,192.9282011790201 23.76976611930877,196.97820740705356 22.678486885502934,200.5219574063085 22.678486885502934,205.07819993258454 23.551510272547603,206.85006975522265 25.297557048499584,207.86256622592919 26.8253479776904,208.368814305868 35.11907016392797,207.35631804238074 39.26593125704676,208.368814305868 41.23023388069123,209.88755792193115 42.539768962189555,212.16567159444094 42.10325726866722,214.44378316425718 41.23023388069123,215.45627652155235 32.5,217.98750809626654 29.226162294857204,217.22813889640383 27.69837136566639,216.21564626554027 26.388836284168065,214.1906597604975 24.64278950728476,212.4187952056527 23.76976611930877,209.88755792193115 23.76976611930877,207.35631804238074 25.51581289526075,202.54695512261242 25.297557048499584,200.5219574063085 24.206277812831104,198.75008304254152 20.277672567404807,194.44695429317653 19.186393331736326,192.16882427129894 19.186393331736326,189.89069214789197 20.05941672064364,187.86568405129947 21.80546349659562,185.84067429439165 27.04360382538289,184.32191588613205 32.5,181.53752304427326 34.682558469474316,181.53752304427326 37.08337278664112,182.29690322140232 38.61116371676326,183.8156628755387 39.26593125704676,185.33442159486003 39.04767540935427,189.89069214789197 37.956396175548434,192.6750755684916 36.42860524635762,194.1938288381789 34.900814317166805,194.95320512307808 27.480115518905222,197.23133257520385 25.952324588783085,197.48445771774277 24.424533660523593,196.4719569918234 21.80546349659562,193.43445232091472 19.404649179428816,191.91569858440198 18.531625790521502,190.3969439130742 18.96813748590648,188.11881015403196 20.495928414165974,186.3469268886838 28.134883060120046,182.04377652192488 29.880929836072028,181.53752304427326 32.936511693522334,181.79064979660325 36.42860524635762,182.8031565430574 38.39290787000209,184.32191588613205 39.26593125704676,186.09380060457624 39.48418710473925,188.62506228266284 39.26593125704676,190.3969439130742 38.39290787000209,192.9282011790201 37.30162863433361,194.70007972116582 33.37302338797599,196.97820740705356 23.988021965138614,200.77508221194148 22.678486885502934,201.78758117416874 22.241975190117955,204.0657023198437 23.333254425786436,212.4187952056527 24.206277812831104,215.20315322093666 25.51581289526075,216.72189263347536 27.69837136566639,217.73438505548984 33.59127923473716,219.0 35.11907016392797,219.0 36.42860524635762,218.4937541000545 40.13895464595407,215.45627652155235 40.793722186237574,211.40630060364492 41.23023388069123,210.6469293795526 43.1945365043357,209.1281862303149 46.25011836178601,207.60944214696065 46.90488590206951,206.85006975522265 46.468374208547175,206.09069712972268 45.813606668263674,205.83757286914624 40.57546633947641,205.58444858295843" stroke="#4dd2ff" stroke-linecap="round" stroke-linejoin="round" stroke-width="0.5"><title>2023-04-06 2.2km</title></polyline><polyline fill="none" points="61.15067470446229,182.91820401349105 64.96022623032331,184.39093747688457 67.81738987378776,186.96821958431974 67.81738987378776,187.70458556106314 66.54753936454654,189.17731706099585 63.0554504673928,189.17731706099585 63.37291309423745,189.54549984214827 67.81738987378776,186.2318534576334 70.99201614409685,186.6000365400687 74.80156766995788,185.4954871777445 78.6111191958189,181.8136535200756 81.46828283928335,181.07728633540682 84.96037173829973,182.1818370553665 89.72231114283204,186.6000365400687 91.30962427891791,189.91368258465081 92.57947478629649,194.3318725565914 90.03977376967669,200.95914732245728 88.76992326043546,201.695510429563 79.88096970319748,201.695510429563 76.3888808041811,202.43187338742428 73.8491797875613,201.327328894753 68.7697777543217,195.43641920015216 62.73798783868551,192.85914317029528 61.15067470446229,189.91368258465081 62.73798783868551,187.33640259108506 65.5951514840126,186.2318534576334 71.3094787709415,186.2318534576334 78.92858182266355,181.8136535200756 81.46828283928335,181.07728633540682 84.64290910959244,181.8136535200756 86.23022224381566,182.91820401349105 90.99216165207326,188.07276849262416 91.9445495326072,190.28186529083177 92.57947478629649,193.96369026671164 92.26201216131449,197.64551146840677 91.30962427891791,199.48642065329477 88.45246063545346,200.95914732245728 83.37305860221386,200.95914732245728 74.80156766995788,202.06369192735292 63.0554504673928,192.12277825013734 62.73798783868551,191.38641318050213 63.37291309423745,189.54549984214827 70.03962826170027,184.75912074930966 81.15082021057606,181.44546994706616 85.59529699012637,182.55002055410296 90.67469902522862,187.70458556106314 91.30962427891791,188.80913424375467 92.26201216131449,194.70005480828695 91.9445495326072,198.01369338063523 90.03977376967669,200.59096571197733 86.54768487252295,201.695510429563 78.92858182266355,200.59096571197733 74.16664241626859,201.327328894753 72.26186665147543,200.222784063546 70.6745535172522,197.27732951869257 68.1348525006324,195.0682370236609 64.64276360161602,193.22732557356358 63.37291309423745,192.12277825013734 62.10306258499622,188.44095138716511 63.37291309423745,185.4954871777445 65.91261411085725,184.39093747688457 68.1348525006324,184.39093747688457 70.99201614409685,185.86367033678107 75.11903029680252,185.1273039826192 79.24604444950819,184.75912074930966 83.05559597536922,182.55002055410296 85.59529699012637,181.8136535200756 87.50007275305688,182.55002055410296 91.9445495326072,186.6000365400687 92.89693741500378,189.54549984214827 93.21440004184842,192.12277825013734 92.57947478629649,195.0682370236609 91.62708690576255,197.27732951869257 89.08738588914275,198.75005709240213 74.80156766995788,202.06369192735292 64.64276360161602,195.43641920015216 62.42052521370351,191.75459573301487 62.42052521370351,190.6500479578972 63.69037572108209,186.6000365400687 65.5951514840126,185.4954871777445 69.72216563485563,186.6000365400687 73.21425453387201,185.86367033678107 78.92858182266355,182.91820401349105 81.78574546426535,182.1818370553665 83.69052122719586,182.1818370553665 85.91275961697102,183.2863874360919 89.72231114283204,186.6000365400687 90.67469902522862,188.80913424375467 91.62708690576255,193.22732557356358 91.30962427891791,197.64551146840677 90.03977376967669,199.48642065329477 88.13499800674617,200.59096571197733 76.0714181791991,202.06369192735292 71.94440402463078,200.222784063546 64.64276360161602,195.0682370236609 63.0554504673928,193.59550794004463 62.42052521370351,192.12277825013734 62.42052521370351,189.91368258465081 63.69037572108209,184.75912074930966 65.27768885716796,184.02275416790508 68.7697777543217,184.39093747688457 70.6745535172522,183.65457082074136 77.65873131342232,179.23636771366 80.83335758373141,178.5 84.0079838540405,179.23636771366 88.76992326043546,182.91820401349105 90.35723639838398,185.86367033678107 90.99216165207326,190.6500479578972 89.72231114283204,195.80460133985616 87.18261012621224,197.64551146840677 81.78574546426535,198.38187525584362 76.3888808041811,198.38187525584362 73.8491797875613,197.27732951869257 71.3094787709415,196.54096550378017 66.86500199139118,194.70005480828695 64.96022623032331,193.22732557356358 64.32530097477138,191.01823058794253 64.96022623032331,188.07276849262416 66.23007673770189,186.2318534576334 70.35709089040756,187.70458556106314 75.43649292364717,187.33640259108506 79.88096970319748,181.07728633540682 81.46828283928335,180.34091899939813 84.0079838540405,181.07728633540682 89.08738588914275,184.75912074930966 91.30962427891791,187.70458556106314 92.57947478629649,191.01823058794253 92.57947478629649,194.70005480828695 91.9445495326072,196.90914752916433 90.67469902522862,198.38187525584362 88.13499800674617,199.48642065329477 76.0714181791991,200.95914732245728 74.16664241626859,200.59096571197733 71.94440402463078,198.75005709240213 70.6745535172522,199.11823889124207 65.27768885716796,197.27732951869257 62.73798783868551,194.3318725565914 61.468137331306934,190.6500479578972 61.468137331306934,188.07276849262416 63.0554504673928,186.6000365400687 64.64276360161602,186.2318534576334 68.45231512747705,186.6000365400687 73.21425453387201,185.1273039826192 77.34126868657768,184.39093747688457 81.78574546426535,181.8136535200756 84.96037173829973,182.91820401349105 89.4048485159874,188.07276849262416 90.67469902522862,192.12277825013734 90.99216165207326,196.90914752916433 90.67469902522862,198.75005709240213 89.4048485159874,200.59096571197733 87.50007275305688,201.327328894753 83.05559597536922,200.95914732245728 79.24604444950819,201.327328894753 70.99201614409685,206.48186695110053 70.35709089040756,208.32277160719968 70.99201614409685,216.42274088063277 71.94440402463078,217.52728073042817 73.53171716071665,218.63182023959234 78.92858182266355,218.26364044100046 82.73813334666193,219.0 84.96037173829973,218.63182023959234 90.99216165207326,215.31820069206879 93.84932529553771,214.58184037799947" stroke="#4dd2ff" stroke-linecap="round" stroke-linejoin="round" stroke-width="0.5"><title>2023-04-04 2.2km</title></polyline><polyline fill="none" points="117.78095127176493,200.93926510540769 116.60118909087032,200.66561666759662 116.12928421795368,201.2129135162104 115.65737934503704,202.03385857865214 116.12928421795368,203.40209978749044 117.07309396285564,203.40209978749044 123.44380974583328,197.92913074232638 133.3538120733574,194.37169484514743 134.297621820122,193.2770982303191 134.53357425518334,191.63520246674307 133.82571694534272,186.43585921963677 133.3538120733574,184.79395924741402 131.46619258262217,182.6047577143181 127.4550011632964,179.3209520468954 125.33142923563719,178.5 122.73595243692398,179.3209520468954 117.54499883577228,182.33110739663243 115.1854744721204,182.33110739663243 113.29785498138517,182.05745705030859 111.17428305372596,183.1520582663361 110.46642574481666,184.52030915417708 110.230473308824,185.34125935053453 110.70237818080932,185.88855934189633 114.71356959920377,189.17235692823306 118.72476101759821,194.09804573375732 122.02809512801468,195.7399399818387 128.39881090912968,195.7399399818387 134.53357425518334,194.6453439288307 135.7133364379406,193.55074742576107 135.24143156409264,192.1825011675246 135.00547912809998,189.17235692823306 132.6459547644481,185.88855934189633 129.81452552694827,184.2466590332333 123.67976218182594,183.42570849950425 118.96071345359087,184.2466590332333 115.65737934503704,183.97300888388418 112.3540452355519,180.1419038430322 109.99452087283134,179.04730139276944 108.57880625408143,179.3209520468954 108.34285381715745,179.59460267378017 108.34285381715745,180.68920489982702 111.17428305372596,183.69935870589688 114.47761716321111,186.43585921963677 118.48880858160555,194.37169484514743 121.32023781817406,196.8345355866477 123.9157146178186,198.476428152062 127.4550011632964,197.92913074232638 131.46619258262217,196.0135889253579 133.11785963643342,194.37169484514743 134.0616693822667,192.7297997546848 134.0616693822667,188.07775818067603 133.3538120733574,185.88855934189633 132.6459547644481,184.79395924741402 128.63476334605366,182.33110739663243 125.56738167256117,181.5101562740747 123.67976218182594,181.78380667651072 120.37642807234079,183.42570849950425 117.07309396285564,183.69935870589688 114.24166472721845,183.1520582663361 111.17428305372596,185.61490936018527 110.93833061680198,187.53045863984153 111.41023549064994,189.44600654556416 112.3540452355519,190.54060473036952 116.60118909087032,192.1825011675246 119.66857076250017,197.10818441724405 120.84833294525743,197.38183322083205 128.63476334605366,196.56088672787882 131.70214501861483,195.46629101014696 132.88190720044076,194.09804573375732 133.58976451028138,192.7297997546848 134.0616693822667,189.99330569338053 133.82571694534272,186.98315898608416 133.3538120733574,185.34125935053453 132.1740498924628,183.42570849950425 129.34262065496296,180.68920489982702 126.51119141839445,179.59460267378017 125.09547679964453,179.8682532729581 119.43261832743883,182.8784080047626 116.12928421795368,183.1520582663361 113.76975985337049,182.05745705030859 112.3540452355519,182.6047577143181 111.41023549064994,183.42570849950425 111.17428305372596,184.52030915417708 111.64618792571127,186.1622092940379 114.47761716321111,188.35140790999867 116.60118909087032,190.26695522549562 118.48880858160555,195.46629101014696 120.84833294525743,196.0135889253579 126.74714385531843,196.0135889253579 131.2302401456982,194.6453439288307 132.6459547644481,193.2770982303191 133.58976451028138,191.36155307479203 133.82571694534272,189.99330569338053 133.3538120733574,186.70950911636464 132.88190720044076,185.61490936018527 131.46619258262217,184.2466590332333 129.81452552694827,183.42570849950425 124.62357192765921,182.6047577143181 115.89333178196102,184.2466590332333 112.58999767247587,182.6047577143181 110.70237818080932,183.97300888388418 109.75856843590736,185.61490936018527 109.99452087283134,186.98315898608416 111.64618792571127,189.99330569338053 115.89333178196102,192.45615047519095 118.2528561456129,196.0135889253579 121.08428538125008,196.8345355866477 129.57857309188694,196.28723784023896 131.9380974546075,195.19264201121405 133.11785963643342,193.82439659372903 134.0616693822667,191.36155307479203 134.0616693822667,189.99330569338053 133.82571694534272,187.25680882669985 132.1740498924628,185.34125935053453 130.5223828367889,184.2466590332333 128.87071578204632,183.97300888388418 121.32023781817406,184.79395924741402 118.72476101759821,184.2466590332333 114.47761716321111,181.78380667651072 112.11809280049056,181.78380667651072 110.230473308824,182.6047577143181 112.58999767247587,186.70950911636464 116.36523665487766,190.54060473036952 118.01690370962024,194.09804573375732 120.14047563727945,194.91899298410863 127.92690603621304,195.7399399818387 133.58976451028138,194.6453439288307 134.53357425518334,193.00344900693744 135.00547912809998,190.54060473036952 134.0616693822667,186.70950911636464 131.46619258262217,184.52030915417708 127.92690603621304,183.1520582663361 119.66857076250017,183.69935870589688 114.47761716321111,181.78380667651072 112.82595010846853,181.78380667651072 110.46642574481666,182.8784080047626 110.230473308824,183.97300888388418 111.17428305372596,186.1622092940379 117.07309396285564,191.36155307479203 119.43261832743883,196.0135889253579 120.84833294525743,197.38183322083205 122.26404756400734,197.92913074232638 129.57857309188694,197.10818441724405 133.11785963643342,195.19264201121405 134.76952669210732,193.55074742576107 135.00547912809998,191.36155307479203 133.3538120733574,185.61490936018527 132.41000232845545,184.2466590332333 126.98309629131109,178.77365071047097 125.80333410855383,178.5 123.67976218182594,179.59460267378017 121.32023781817406,182.33110739663243 119.66857076250017,183.1520582663361 117.78095127176493,183.69935870589688 111.88214036356658,183.42570849950425 110.230473308824,184.2466590332333 110.93833061680198,185.88855934189633 112.3540452355519,187.25680882669985 116.60118909087032,190.81425420637242 119.43261832743883,194.91899298410863 120.14047563727945,195.46629101014696 121.79214269015938,196.0135889253579 125.56738167256117,196.56088672787882 129.57857309188694,198.2027794616297 133.3538120733574,198.2027794616297 134.53357425518334,197.65548199601471 135.94928887300193,193.00344900693744 135.7133364379406,189.71965613309294 135.00547912809998,187.80410842527635 132.41000232845545,183.97300888388418 128.16285847406834,182.05745705030859 122.73595243692398,181.78380667651072 117.54499883577228,182.05745705030859 115.42142690904438,181.5101562740747 114.00571229122579,181.5101562740747 112.58999767247587,182.05745705030859 110.230473308824,184.2466590332333 110.230473308824,185.34125935053453 110.93833061680198,186.70950911636464 113.53380741830915,188.89870728366077 117.30904639977962,191.36155307479203 120.14047563727945,195.7399399818387 122.02809512801468,196.56088672787882 125.80333410855383,196.28723784023896 128.63476334605366,196.8345355866477 130.9942877087742,196.56088672787882 133.11785963643342,196.0135889253579 134.0616693822667,195.19264201121405 134.76952669210732,193.55074742576107 135.24143156409264,189.17235692823306 134.0616693822667,187.25680882669985 132.1740498924628,185.61490936018527 126.74714385531843,183.42570849950425 124.85952436365187,183.1520582663361 119.19666589051485,183.97300888388418 114.47761716321111,182.8784080047626 113.53380741830915,183.1520582663361 111.17428305372596,185.61490936018527 110.93833061680198,187.25680882669985 112.3540452355519,188.89870728366077 116.12928421795368,192.1825011675246 117.78095127176493,195.7399399818387 118.01690370962024,197.10818441724405 116.60118909087032,199.29737405572087 116.60118909087032,202.58115514577366 118.48880858160555,208.3277623327449 120.84833294525743,209.69600031641312 123.44380974583328,209.9696478282567 129.10666821803898,208.87505761091597 133.58976451028138,208.6014099859167 135.47738400101662,209.69600031641312 136.4211937468499,211.06423759786412 136.4211937468499,211.88517962978221 135.24143156409264,213.80071005644277 130.28643040079623,215.98988600377925 127.21904872730374,218.17906015645713 124.85952436365187,219.0 123.44380974583328,218.72635341389105 121.08428538125008,217.631766786566 120.14047563727945,213.52706293715164 120.14047563727945,212.1588269181084 120.84833294525743,211.06423759786412 125.33142923563719,207.50681920722127 127.69095359928906,206.68587582791224 134.53357425518334,202.8548033873085 136.4211937468499,202.58115514577366 136.4211937468499,204.2230441761203 136.18524131085724,204.2230441761203 136.65714618284255,203.6757479449734 136.18524131085724,203.12845160160214 136.4211937468499,203.40209978749044" stroke="#ffd700" stroke-linecap="round" stroke-linejoin="round" stroke-width="0.5"><title>2023-04-01 3.2km</title></polyline><polyline fill="none" points="164.71966917067766,195.5255571261514 162.71783097460866,197.84721508133225 159.38143397960812,200.94275568891317 160.93841924425215,199.13702413020656 165.16452210396528,196.55740537075326 167.3887867666781,195.78351922682486 172.05974256061018,196.0414813007228 174.06158075667918,195.5255571261514 175.3961395546794,194.49370845849626 176.5082718860358,192.43000985356048 176.95312481932342,189.07649601064622 176.2858454203233,186.23890388407744 175.1737130889669,184.17519850935787 172.50459549296647,181.59556440962479 170.28033082932234,180.8216736635659 167.83363969996572,181.07963727228343 162.05055157560855,184.4331617737189 159.82628691196442,184.17519850935787 156.93474285118282,182.62741836719215 155.15533111989498,183.4013085567858 156.04503698460758,184.4331617737189 160.71599277760834,186.75482996366918 163.38511037267745,190.8822347894311 164.94209563732147,191.65612244047225 171.83731609396636,191.65612244047225 175.3961395546794,190.8822347894311 176.5082718860358,189.85038421768695 176.95312481932342,188.8185332233552 175.3961395546794,185.46501456713304 173.17187489196658,184.17519850935787 170.50275729503483,183.4013085567858 167.83363969996572,183.9172352179885 162.94025744032115,185.7229776987806 160.49356631096452,185.46501456713304 157.8244487149641,183.9172352179885 157.15716931596398,184.17519850935787 156.2674634512514,185.20705140870996 155.82261051796377,186.4968669367954 156.2674634512514,187.78668180434033 161.16084570996463,191.1401973660104 164.4972427058965,196.0414813007228 165.6093750372529,196.81536736548878 167.83363969996572,197.33129127626307 173.17187489196658,196.0414813007228 174.9512866223231,195.26759499916807 176.0634189536795,194.49370845849626 176.95312481932342,192.43000985356048 177.17555128596723,190.6242721863091 176.7306983517483,188.0446446989663 175.3961395546794,185.98094080435112 171.83731609396636,183.4013085567858 168.72334556560963,182.62741836719215 161.82812510896474,185.7229776987806 160.04871337953955,185.46501456713304 157.6020222492516,184.4331617737189 156.04503698460758,184.69112501107156 155.15533111989498,185.98094080435112 155.15533111989498,187.27075593639165 156.04503698460758,188.3026075665839 159.82628691196442,190.6242721863091 163.16268390696496,193.7198216803372 164.71966917067766,194.23574622510932 171.17003669403493,194.49370845849626 173.3943013586104,194.23574622510932 174.9512866223231,193.20389702916145 176.0634189536795,191.65612244047225 176.5082718860358,189.85038421768695 176.5082718860358,188.3026075665839 176.0634189536795,187.27075593639165 173.3943013586104,184.94908822327852 170.05790436360985,183.9172352179885 162.94025744032115,184.94908822327852 158.714154580608,184.4331617737189 156.48988991696388,185.46501456713304 156.04503698460758,186.4968669367954 156.04503698460758,187.52871888387017 156.93474285118282,189.07649601064622 160.71599277760834,191.91408493858762 163.38511037267745,195.26759499916807 164.4972427058965,196.0414813007228 166.4990809019655,196.55740537075326 172.50459549296647,196.29944334900938 175.6185660213232,195.00963284540921 176.5082718860358,193.9777839658782 177.17555128596723,192.17204740899615 177.39797775167972,190.6242721863091 176.7306983517483,187.52871888387017 174.06158075667918,183.9172352179885 172.05974256061018,182.62741836719215 169.39062496367842,181.85352793894708 162.49540450889617,184.94908822327852 160.27113984525204,185.20705140870996 157.6020222492516,184.69112501107156 155.82261051796377,184.69112501107156 155.37775758560747,185.20705140870996 155.60018405131996,186.4968669367954 156.48988991696388,188.0446446989663 159.1590075129643,190.6242721863091 161.38327217567712,194.23574622510932 163.16268390696496,196.0414813007228 166.721507367678,197.84721508133225 170.50275729503483,197.58925319160335 174.06158075667918,196.0414813007228 176.2858454203233,193.461859367555 176.95312481932342,191.1401973660104 176.95312481932342,184.4331617737189 171.83731609396636,182.36945491703227 168.0560661656782,181.85352793894708 162.71783097460866,184.69112501107156 157.15716931596398,184.94908822327852 155.37775758560747,185.98094080435112 154.93290465325117,187.01279296400025 155.60018405131996,188.3026075665839 158.714154580608,190.3663095573429 161.38327217567712,193.9777839658782 162.49540450889617,194.7516706653405 168.278492632322,195.5255571261514 172.50459549296647,195.26759499916807 174.284007223323,194.49370845849626 175.3961395546794,193.20389702916145 176.2858454203233,191.39815991697833 176.5082718860358,189.59242150909267 175.6185660213232,187.52871888387017 171.17003669403493,183.4013085567858 169.61305143032223,183.14334518648684 168.0560661656782,183.4013085567858 161.82812510896474,185.7229776987806 159.82628691196442,185.46501456713304 157.15716931596398,183.9172352179885 156.2674634512514,184.4331617737189 155.60018405131996,185.98094080435112 156.04503698460758,188.8185332233552 157.3795957826078,190.8822347894311 161.82812510896474,192.9459346642252 164.94209563732147,195.78351922682486 165.8318015038967,196.0414813007228 169.39062496367842,195.00963284540921 173.61672782339156,194.7516706653405 175.1737130889669,193.9777839658782 176.5082718860358,192.43000985356048 177.17555128596723,190.10834690043703 177.39797775167972,188.0446446989663 176.95312481932342,185.20705140870996 176.2858454203233,183.6592719007749 174.9512866223231,182.11149144126102 173.3943013586104,180.8216736635659 171.17003669403493,180.5637100294698 169.1681984970346,181.07963727228343 164.4972427058965,184.94908822327852 162.94025744032115,185.7229776987806 160.93841924425215,185.7229776987806 158.4917281139642,184.69112501107156 156.48988991696388,184.94908822327852 155.60018405131996,185.7229776987806 155.60018405131996,186.75482996366918 156.04503698460758,189.07649601064622 156.71231638360769,190.10834690043703 160.71599277760834,191.65612244047225 163.16268390696496,195.26759499916807 165.16452210396528,196.0414813007228 172.72702195867896,195.5255571261514 174.72886015474796,195.00963284540921 176.0634189536795,193.7198216803372 176.95312481932342,191.1401973660104 176.7306983517483,189.33445877279155 175.3961395546794,187.52871888387017 172.94944842439145,185.98094080435112 169.39062496367842,185.20705140870996 162.94025744032115,186.4968669367954 158.26930164918303,185.7229776987806 156.48988991696388,186.4968669367954 156.04503698460758,188.0446446989663 156.48988991696388,189.33445877279155 157.6020222492516,190.3663095573429 162.71783097460866,192.9459346642252 164.4972427058965,195.78351922682486 166.05422796867788,197.07332933461294 167.3887867666781,197.33129127626307 173.61672782339156,195.78351922682486 175.3961395546794,194.23574622510932 176.0634189536795,192.9459346642252 176.2858454203233,190.3663095573429 176.0634189536795,185.20705140870996 175.6185660213232,183.14334518648684 174.72886015474796,181.85352793894708 170.94761022832245,178.75796384573914 169.83547789603472,178.5 168.94577203132212,179.01592766516842 164.94209563732147,182.88538178964518 162.49540450889617,184.4331617737189 160.71599277760834,184.69112501107156 158.0468751816079,184.4331617737189 156.93474285118282,184.94908822327852 155.82261051796377,185.98094080435112 155.37775758560747,187.27075593639165 155.37775758560747,188.3026075665839 156.2674634512514,189.59242150909267 160.93841924425215,192.43000985356048 162.71783097460866,195.78351922682486 162.94025744032115,198.10517694451846 160.93841924425215,200.42683251900598 160.71599277760834,202.74848595121875 161.60569864232093,205.32809836417437 162.71783097460866,207.13382547954097 165.8318015038967,208.165668962989 171.17003669403493,207.64974727435037 175.84099248796701,208.42362976819277 177.84283068496734,209.4554727235809 179.84466888103634,212.03507826058194 180.06709534768015,213.3248800362926 179.84466888103634,214.35672098235227 178.06525715067983,215.90448160655797 171.17003669403493,218.7420402788557 167.83363969996572,219.0 165.8318015038967,218.48408053140156 163.8299633068964,216.9363214939367 162.94025744032115,213.58284031273797 163.16268390696496,211.7771178255789 165.16452210396528,208.9395512987394 167.3887867666781,208.165668962989 172.05974256061018,208.68159054708667 175.84099248796701,205.0701372420881 178.95496301632375,204.29625371610746" stroke="#ffda00" stroke-linecap="round" stroke-linejoin="round" stroke-width="0.5"><title>2023-03-31 3.1km</title></polyline><polyline fill="none" points="30.503521125763655,255.93487563589588 29.933098590001464,257.9195372010581 26.225352112203836,260.89652726007625 23.373239435255527,261.5580802327022 20.521126760169864,261.22730376315303 20.235915491357446,260.5657507220749 23.088028168305755,256.2656526484061 27.936619717627764,252.29632626241073 29.933098590001464,251.6347713896539 36.77816901355982,250.6424388261512 39.9154929574579,248.6577727852855 41.341549295932055,245.6807714337483 41.62676056288183,242.3729889334645 41.05633802711964,238.40364545513876 39.63028168864548,235.09585549356416 38.4894366171211,233.44195924163796 34.21126760356128,230.46494385018013 29.0774647872895,229.47260477533564 27.936619717627764,230.13416419317946 25.084507040679455,233.77273855917156 22.517605632543564,235.75741375773214 17.954225352033973,237.41130882268772 12.820422533899546,240.7190964105539 14.816901408135891,243.36532404040918 20.806338027119637,246.3423275265377 25.940140845254064,250.6424388261512 27.65140845067799,250.97321638162248 36.20774647779763,249.9808836155571 41.341549295932055,248.32699499255978 42.48239436559379,246.01154949725606 41.9119718298316,241.71143202506937 39.34507042169571,238.07286661164835 29.362676056101918,234.4342970943544 23.088028168305755,236.0881928380113 19.6654929574579,235.75741375773214 17.669014083221555,235.09585549356416 14.2464788723737,236.4189718856942 14.2464788723737,238.07286661164835 15.102112675085664,239.7267604903318 21.947183098644018,246.01154949725606 25.369718309491873,251.6347713896539 27.936619717627764,253.28865831741132 30.218309858813882,253.28865831741132 38.20422535203397,250.6424388261512 41.62676056288183,247.66543930699117 43.05281690135598,245.01921520475298 41.9119718298316,238.73442426533438 38.20422535203397,237.742087733699 35.06690140813589,233.77273855917156 30.218309858813882,233.11117988848127 27.936619717627764,233.44195924163796 21.6619718298316,236.4189718856942 16.81338028050959,236.0881928380113 13.67605633661151,238.40364545513876 15.102112675085664,240.38831780478358 19.6654929574579,242.70376733574085 21.6619718298316,244.6884370399639 23.6584507022053,247.9962171667721 25.084507040679455,249.31932826829143 28.507042253389955,249.9808836155571 35.922535210847855,249.31932826829143 37.34859154932201,248.6577727852855 39.63028168864548,246.6731055234559 41.62676056288183,242.04221049603075 41.9119718298316,240.38831780478358 40.771126760169864,235.75741375773214 40.485915491357446,232.11884162854403 39.34507042169571,231.4572826186195 33.070422533899546,231.4572826186195 26.795774647966027,235.42663464322686 23.088028168305755,236.4189718856942 21.091549295932055,236.0881928380113 17.09859154932201,234.10351784387603 16.242957746610045,235.09585549356416 13.961267603561282,239.06520304153673 16.52816901355982,241.71143202506937 21.6619718298316,244.02688060724176 23.6584507022053,247.00388348498382 24.51408450677991,249.31932826829143 25.654929576441646,250.31166123785079 33.355633802711964,250.6424388261512 37.919014083221555,249.65010595903732 39.63028168864548,248.6577727852855 40.485915491357446,247.9962171667721 41.62676056288183,245.01921520475298 41.9119718298316,243.0345457047224 41.341549295932055,240.7190964105539 39.34507042169571,238.40364545513876 37.06338028050959,236.7497508993838 33.070422533899546,235.09585549356416 30.218309858813882,234.4342970943544 22.802816901355982,236.4189718856942 18.80985915288329,235.09585549356416 15.102112675085664,236.4189718856942 15.957746477797627,238.07286661164835 17.669014083221555,240.05753916408867 22.23239436559379,243.69610234024003 25.084507040679455,248.98855054401793 26.225352112203836,249.9808836155571 28.792253518477082,251.30399390286766 36.20774647779763,250.6424388261512 40.771126760169864,248.6577727852855 41.9119718298316,244.3576588400174 40.771126760169864,239.7267604903318 37.06338028050959,236.4189718856942 36.20774647779763,234.4342970943544 30.503521125763655,233.44195924163796 24.51408450677991,236.0881928380113 21.947183098644018,236.4189718856942 18.52464788593352,236.0881928380113 16.81338028050959,235.09585549356416 15.387323942035437,237.41130882268772 14.2464788723737,240.38831780478358 15.387323942035437,243.36532404040918 20.806338027119637,245.6807714337483 23.943661969155073,249.65010595903732 25.084507040679455,250.6424388261512 28.792253518477082,251.30399390286766 33.92605633661151,251.30399390286766 38.20422535203397,249.9808836155571 40.771126760169864,247.33466141251847 41.05633802711964,245.6807714337483 40.771126760169864,243.0345457047224 38.4894366171211,238.73442426533438 34.21126760356128,236.7497508993838 29.933098590001464,235.42663464322686 23.943661969155073,236.7497508993838 17.954225352033973,234.10351784387603 15.957746477797627,235.09585549356416 12.535211266949773,235.42663464322686 12.535211266949773,236.7497508993838 14.816901408135891,239.06520304153673 21.6619718298316,242.3729889334645 22.517605632543564,244.3576588400174 23.943661969155073,249.65010595903732 25.654929576441646,250.97321638162248 31.64436619542539,250.31166123785079 36.20774647779763,250.6424388261512 40.485915491357446,248.6577727852855 41.9119718298316,245.6807714337483 42.19718309864402,243.69610234024003 39.9154929574579,238.07286661164835 35.922535210847855,235.75741375773214 31.92957746423781,234.76507631107233 23.088028168305755,236.4189718856942 17.954225352033973,235.75741375773214 15.957746477797627,236.4189718856942 13.67605633661151,238.73442426533438 14.2464788723737,240.7190964105539 16.52816901355982,242.70376733574085 19.6654929574579,244.6884370399639 23.6584507022053,250.6424388261512 24.799295773729682,251.30399390286766 35.06690140813589,250.97321638162248 39.63028168864548,249.31932826829143 41.341549295932055,245.01921520475298 41.05633802711964,239.7267604903318 41.62676056288183,236.7497508993838 37.63380281627178,233.77273855917156 30.218309858813882,231.4572826186195 29.362676056101918,231.78806214104407 27.366197181865573,234.76507631107233 23.6584507022053,236.0881928380113 18.80985915288329,235.75741375773214 16.52816901355982,234.4342970943544 14.531690139323473,235.42663464322686 12.25,235.75741375773214 12.535211266949773,238.07286661164835 14.2464788723737,241.71143202506937 14.816901408135891,242.04221049603075 16.242957746610045,241.3806535222102 19.950704224407673,242.3729889334645 21.6619718298316,245.01921520475298 24.51408450677991,250.31166123785079 26.51056337915361,251.6347713896539 35.352112675085664,251.6347713896539 39.059859154745936,249.65010595903732 41.341549295932055,246.6731055234559 41.341549295932055,243.36532404040918 40.771126760169864,240.38831780478358 39.9154929574579,239.06520304153673 37.63380281627178,236.7497508993838 34.4964788723737,235.42663464322686 29.64788732305169,235.75741375773214 20.806338027119637,238.40364545513876 19.09507042169571,237.742087733699 17.09859154932201,235.75741375773214 13.961267603561282,237.742087733699 13.961267603561282,239.395981782116 14.531690139323473,240.7190964105539 18.239436618983746,242.70376733574085 21.6619718298316,246.3423275265377 22.23239436559379,250.97321638162248 21.091549295932055,252.62710364721715 19.09507042169571,254.6117672470864 18.52464788593352,255.93487563589588 19.950704224407673,259.57342090527527 20.235915491357446,260.89652726007625 22.517605632543564,264.86584306531586 24.799295773729682,265.52739522466436 28.792253518477082,265.196619162336 45.61971830949187,263.21196207311004 50.46830985881388,262.55040943901986 52.75,261.5580802327022 51.03873239271343,260.89652726007625 48.186619717627764,260.5657507220749" stroke="#ffdc00" stroke-linecap="round" stroke-linejoin="round" stroke-width="0.5"><title>2023-03-30 3.1km</title></polyline><polyline fill="none" points="57.53521126694977,256.59655635873787 57.60651408415288,256.59655635873787 57.749119717627764,256.5138620886719 58.3908450701274,256.59655635873787 59.103873238898814,257.0927218008437 60.102112675551325,256.5138620886719 60.95774647872895,256.5138620886719 61.88468309817836,256.67925062024733 63.09683098550886,256.59655635873787 65.16461267601699,256.10039061127463 66.80457746423781,256.017696290568 67.44630281627178,255.6869189221179 67.58890845021233,255.1080582010327 67.58890845021233,253.61955729633337 66.80457746423781,251.6348851507064 66.16285211220384,248.49247759906575 65.44982394343242,247.16935496742371 63.4533450701274,244.6057986919186 63.168133802711964,243.9442344593699 63.23943661944941,243.28266968438402 64.80809859139845,241.6287553726579 66.66197183076292,240.14022959204158 71.22535211220384,237.6593471871456 74.64788732351735,236.17081408086233 81.77816901355982,235.01306421024492 85.62852112622932,234.02070585539332 88.83714788686484,232.69755948329112 89.69278169004247,232.69755948329112 90.33450704207644,233.276436288259 91.61795774661005,234.9303677274147 93.97095070406795,238.65170106489677 95.111795774661,241.04988456214778 96.03873239411041,242.53840866376413 96.39524647872895,243.53075653861742 97.4647887321189,245.59814402315533 97.60739436605945,246.50779283756856 97.4647887321189,247.665526208526 97.03697183076292,248.32708738883957 96.39524647872895,249.07134306791704 94.54137323889881,250.3117676738184 93.04401408461854,251.05602152168285 89.9779929574579,251.8829694361193 86.62676056288183,252.79261116246926 83.63204225338995,253.0406950918259 78.78345070406795,253.9503355124616 76.14524647872895,254.19841908558737 69.51408450677991,255.60422455862863 68.44454225338995,255.52153018699028 67.94542253483087,255.1080582010327 67.51760563347489,254.19841908558737 65.8776408447884,248.57517269160599 64.52288732351735,246.2597068991745 63.52464788686484,245.2673623818555 63.23943661944941,244.6884941830067 63.23943661944941,244.19232111028396 63.66725352080539,243.44806092884392 64.59419014072046,242.37301723263226 66.23415492940694,240.71910105558345 67.3036971827969,239.80944571248256 70.86883802805096,237.82473958469927 74.22007042216137,236.58429577498464 79.06866197148338,235.59193935326766 81.20774647872895,235.42654649785254 85.48591549275443,234.5168851854396 86.48415492940694,234.18609899951844 89.05105633754283,232.8629528983729 89.76408450677991,232.8629528983729 90.19190140860155,233.276436288259 91.4040492954664,234.7649747361429 92.54489436605945,236.8323846895364 93.97095070406795,238.81709325913107 94.89788732351735,240.80179694504477 95.9674295769073,242.53840866376413 97.75,246.09431623091223 97.6786971827969,248.16169714462012 97.32218309864402,248.8232579177129 96.53785211220384,249.4021231494262 94.39876760542393,250.47715747688198 93.47183098597452,251.22141117224237 92.75880281673744,251.4694955846644 88.19542253483087,252.37913777760696 86.91197183076292,252.79261116246926 81.42165492940694,253.53686272131745 80.13820422487333,253.9503355124616 77.28609154885635,254.44650258251932 74.50528169004247,254.61189153802115 69.08626760542393,255.76961327681784 68.01672535203397,256.4311678100494 66.80457746423781,257.5061927693896 64.30897887283936,258.49852222949266 63.38204225292429,258.41582815436414 63.168133802711964,258.58121629594825 63.09683098550886,258.8292984450236 63.595950704067945,259.90432020806475 63.4533450701274,260.31778973533073 62.811619718093425,260.8966467176215 62.027288732118905,261.31011573650176 60.60123239364475,262.3024405167089 59.888204225338995,262.3024405167089 59.03257042216137,261.97166572563583 58.46214788686484,260.97934053844074 57.963028168305755,259.90432020806475 57.25,259.07738051738124 57.67781690135598,258.9119924775441 59.17517605610192,258.7466044037137 59.38908450677991,258.8292984450236 59.531690140254796,259.07738051738124 59.95950704207644,259.32546251348685" stroke="#4dd2ff" stroke-linecap="round" stroke-linejoin="round" stroke-width="0.5"><title>2023-03-28 2.9km</title></polyline></svg>