<?xml version="1.0" encoding="utf-8" ?>
<svg baseProfile="full" height="300mm" version="1.1" viewBox="0,0,200,300" width="200mm" xmlns="http://www.w3.org/2000/svg" xmlns:ev="http://www.w3.org/2001/xml-events" xmlns:xlink="http://www.w3.org/1999/xlink"><defs /><rect fill="#222222" height="300" width="200" x="0" y="0" /><text fill="#FFFFFF" style="font-size:12px; font-family:Arial; font-weight:bold;" x="10" y="20">Over 2km Workouts</text><text fill="#FFFFFF" style="font-size:4px; font-family:Arial" x="10" y="280">ATHLETE</text><text fill="#FFFFFF" style="font-size:9px; font-family:Arial" x="10" y="290">Koobai</text><text fill="#FFFFFF" style="font-size:4px; font-family:Arial" x="120" y="280">STATISTICS</text><text fill="#FFFFFF" style="font-size:3px; font-family:Arial" x="120" y="285">Number: 16</text><text fill="#FFFFFF" style="font-size:3px; font-family:Arial" x="120" y="290">Weekly: 5.3</text><text fill="#FFFFFF" style="font-size:3px; font-family:Arial" x="141" y="285">Total: 43.2 km</text><text fill="#FFFFFF" style="font-size:3px; font-family:Arial" x="141" y="290">Avg: 2.7 km</text><text fill="#FFFFFF" style="font-size:3px; font-family:Arial" x="167" y="285">Min: 2.0 km</text><text fill="#FFFFFF" style="font-size:3px; font-family:Arial" x="167" y="290">Max: 4.2 km</text><polyline fill="none" points="17.06078503036406,49.929975010978524 18.460814599413425,52.36539826160879 19.342314698384143,54.07920250232564 19.70528532739263,54.319735629542265 20.353447164874524,55.191666562488535 20.89790310850367,56.03352845244808 21.546064945985563,57.326383079140214 21.90903557499405,57.95777512845234 22.557197412475944,58.919893733167555 23.594256352516823,60.332999713136815 24.372050557634793,61.77616475216928 24.709094712976366,62.557876184000634 25.512815391644835,63.910833355243085 25.564668338629417,64.21148965708562 25.486888918094337,64.30168648750987 26.13505075557623,64.93306352433865 26.705433172523044,65.74483200354734 28.079536268254742,68.33044996633544 29.97216883371584,71.4872782122693 30.101801201119088,71.69773222095682 30.179580621654168,71.9983805429365 30.438845356809907,72.35915812259191 30.568477724213153,72.6297410162224 30.67218361829873,72.71993525861762 30.749963038833812,72.75 32.69444855127949,71.21669426496373 33.3426103888778,70.55526578775607 34.58708111685701,69.563120276056 35.157463533920236,69.05201370289433 37.30936083442066,67.42849280001246 37.98344914545305,66.82718648188165 39.51311108202208,65.62457014838583 39.798302290495485,65.2337187785306 40.342758234008215,64.99319459983963 41.353890700498596,64.27162088037585 42.59836142859422,62.978796861483715 43.6094938950846,62.37748142311466 44.72433225554414,61.50557184815989 45.70953824860044,60.51339573127916 46.8243766091764,59.220555150095606 47.34290607913863,58.67936437789467 47.49846492020879,58.408768617373426 47.67995023471303,57.86757634754758 47.939214969752356,56.78518881255877 47.939214969752356,56.093661352060735 47.861435549217276,55.73286376908072 47.42068549967371,54.590335161978146 46.7725236620754,53.41773538538837 45.113229358103126,50.65158400806831 43.71319978905376,47.82527196305455 42.15761137905065,45.02900026747375 41.74278780305758,44.15703912495519 41.431670121033676,43.70602372387657 40.964993598056026,43.25500762919546 40.602022968931124,42.71378740016371 40.3686847074423,42.2627697798016 40.23905233992264,41.691479798348155 39.15014045301359,40.007671274768654 37.80196383094881,37.542077067366336 37.231581414001994,36.57988833950367 36.32415484136436,34.92611908813706 35.80562537140213,33.78350943105761 35.33894884842448,33.06185893289512 34.950051745865494,32.73110186113627 34.2759634348331,32.430413290363504 33.57594865036663,32.25 33.16112507437356,32.28006888949312 32.512963236891665,32.490551029273774 31.761095505324192,32.911514855659334 28.20916863565799,35.28694226563675 26.9128449606942,36.068724293931155 26.5239478580188,36.27920371471555 25.875786020653322,36.549819890846265 24.527609398588538,37.331598552904325 23.7238887201529,37.87282871356001 21.312726684380323,39.04549063547165 20.66456484689843,39.52658134960802 20.19788832392078,39.76712641082122" stroke="#ffb600" stroke-linecap="round" stroke-linejoin="round" stroke-width="0.5"><title>2023-04-15 4.2km</title></polyline><polyline fill="none" points="60.007881462806836,58.837970554828644 59.49716267362237,57.41641661233734 58.88430012622848,54.86945705144899 58.373581336811185,53.98098014423158 57.35214375774376,52.38171826809412 57.25,51.96709409588948 57.35214375774376,51.49323753500357 57.658575031440705,50.96014843927696 58.27143757883459,50.48629105242435 63.12326607829891,47.46544107381487 65.0639974779915,45.56999772798736 65.83007566188462,44.91843764169607 67.61759142507799,43.615315264090896 68.69010088290088,42.963752973184455 69.35403530905023,42.726821048767306 70.98833543504588,42.43065600650152 73.03121059271507,41.54215996916173 76.50409836065955,40.65366256528068 79.82377049187198,40.35749646014301 83.80737704923376,38.876663657603785 86.9738335434813,38.04739562998293 87.73991172760725,37.98816215409897 88.25063051702455,38.16586256399751 89.01670870115049,38.935897042567376 89.27206809562631,39.46899723424576 89.22099621687084,40.17979672428919 88.60813366970979,41.956791623379104 88.55706179048866,42.3714229799225 88.60813366970979,42.78605403890833 90.54886506916955,47.050813373411074 91.16172761656344,47.70237105485285 91.77459016395733,48.057765843987 92.28530895337462,48.057765843987 93.51103404792957,47.76160353486193 93.86853720061481,47.82083600887563 94.17496847407892,48.057765843987 95.04319041618146,49.064716559427325 96.47320302645676,49.95320102741243 97.08606557385065,50.60475543542998 97.64785624202341,51.611701711663045 97.75,52.263254249235615 97.54571248427965,53.09250187064754 96.93284993688576,53.98098014423158 95.70712484233081,55.04715226881672 90.54886506916955,58.54181377182249 84.93095838581212,61.44414369814331 80.99842370743863,64.40568981785327 79.82377049187198,65.2349200110184 78.08732660789974,66.00491841044277 75.27837326587178,67.01183784584282" stroke="#4dd2ff" stroke-linecap="round" stroke-linejoin="round" stroke-width="0.5"><title>2023-04-15 2.1km</title></polyline><polyline fill="none" points="105.05541561706923,58.85957027313998 103.67821158678271,54.659424529992975 103.27015113318339,53.94953772210283 102.45403022668324,52.88470587239135 102.25,52.293131773592904 102.25,51.81987205770565 102.5050377829466,51.22829686716432 102.8620906798169,50.81419387285132 103.47418136009946,50.28177530056564 105.76952141034417,49.03946338791866 108.21788413077593,47.61967506975634 108.72795969760045,47.20556948549347 109.95214105793275,45.7857766544912 110.46221662452444,45.312511601136066 112.85957178822719,43.65608085709391 114.03274559183046,43.00533890654333 116.12405541562475,42.53207157255383 118.41939546586946,41.58553573960671 120.40869017597288,41.11226724082371 122.14294710289687,40.81647423218237 125.10138539038599,40.63899835397024 125.81549118366092,40.402363764937036 127.65176322404295,39.51498319156235 128.92695214110427,39.041712994570844 131.01826196466573,38.5684424090432 132.54848866490647,37.97685363137862 133.16057934518903,38.03601253638044 134.28274559183046,39.041712994570844 134.53778337524273,39.633300680317916 134.53778337524273,40.10657039214857 134.38476070505567,40.52068107156083 133.36460957163945,42.295437759778 133.26259445841424,42.591230010497384 133.31360201514326,42.88702210941119 133.6196473550517,43.59692252834793 135.65994962188415,47.38304334366694 136.1700251889415,48.033780356810894 136.83312342572026,48.27041181595996 137.39420654904097,48.27041181595996 138.51637279591523,47.73799089639215 138.92443324928172,47.678832986042835 139.28148614615202,47.856306698638946 140.55667506274767,48.802832244255114 141.7808564233128,50.1043023338425 142.4949622163549,51.16913931479212 142.69899244327098,51.81987205770565 142.75,52.35228921088856 142.75,52.766391101293266 142.59697733004577,53.239650040632114 142.3419395466335,53.65375129424501 141.67884130985476,54.42279569100356 138.56738035264425,56.78907971363515 136.88413098221645,57.676433720160276 134.0277078084182,59.510294342937414 129.48803526419215,61.93571395671461 127.8557934507262,63.11884177610045 126.07052896730602,64.65690431464463 123.92821158678271,65.48509013728471 120.45969773293473,67.02314636862138" stroke="#4dd2ff" stroke-linecap="round" stroke-linejoin="round" stroke-width="0.5"><title>2023-04-14 2.2km</title></polyline><polyline fill="none" points="150.16689750691876,61.412885791331064 149.66204986162484,59.591309665411245 149.10110803344287,58.16006761213066 148.54016620502807,57.314332154230215 147.6426592799835,56.20836870063795 147.30609418288805,55.622857856797054 147.25,55.16746016021352 147.3621883657761,54.71206213667756 147.86703601130284,54.19160685222596 148.65235457057133,53.606094147253316 151.45706371194683,52.10978144669207 153.7569252080284,51.06886618229328 154.26177285332233,50.61346521723317 156.39335180050693,48.206340400793124 158.02008310239762,46.840130361379124 159.81509695295244,46.05943758971989 165.5367036012467,43.97758550220169 171.42659279773943,43.001714984711725 175.01662049861625,41.83066838257946 177.54085872578435,40.78973625507206 179.111495844787,40.39938626700314 180.40166204981506,39.94397764396854 181.07479224400595,39.94397764396854 181.69182825484313,40.33432791224914 182.7015235456638,41.6354937388096 182.92590027698316,42.15595932217548 182.9819944598712,42.67642447876278 182.8137119114399,43.261947269318625 182.0844875345938,44.17275942553533 181.8040166203864,44.6932229277445 181.69182825484313,45.27874385740142 181.74792243749835,45.79920645226957 182.30886426591314,46.90518804913154 183.542936288286,48.85691557597602 185.22576177306473,52.0447242926457 186.23545706365258,54.25666378624737 187.52562326844782,56.33848214818863 187.75,57.24927553377347 187.75,58.225124139222316 187.52562326844782,58.61546316102613 186.68421052629128,59.20097124372842 183.82340720226057,60.56715466902824 182.8698060940951,60.89243600331247 176.81163434917107,61.99839129275642 174.06301939068362,62.25861578655895 171.8192520774901,62.58389625384007 166.20983379520476,63.62479262857232 165.1440443212632,63.950072395498864 163.96606648224406,64.8608548559132 163.51731301937252,65.05602235603146" stroke="#4dd2ff" stroke-linecap="round" stroke-linejoin="round" stroke-width="0.5"><title>2023-04-13 2.0km</title></polyline><polyline fill="none" points="15.77417127089575,128.07504743582103 15.27071823226288,126.712643724808 14.823204420041293,124.63659433450084 14.319751381408423,123.27418322040467 13.816298342775553,122.4956612670212 12.641574585810304,121.19812254921999 12.361878453055397,120.6791063171695 12.25,120.09521254722495 12.361878453055397,119.64107257593423 12.697513812221587,119.12205506669125 13.200966851087287,118.6679143969086 13.92817679559812,118.21377340122126 15.662292817840353,117.43524522171356 18.45925414375961,115.87818598898593 19.18646408850327,115.29428778891452 21.53591160243377,113.02356744441204 24.276933701708913,111.40161935222568 25.451657458674163,110.88259508472402 27.633287292905152,110.29869227460586 30.82182320440188,109.06600679532858 32.66781767993234,108.48210230906261 34.34599447529763,108.15771069476614 36.975138121517375,107.83331891463604 38.09392265207134,107.44404855847824 39.43646408850327,106.73038561712019 40.94682320463471,106.66550712805474 42.009668508311734,106.40599310485413 43.68784530390985,105.88696473970776 45.70165745867416,105.04354273783974 46.261049723718315,105.04354273783974 46.87638121540658,105.49769318604376 47.65953038702719,106.600628632179 47.88328729290515,107.57380537048448 47.65953038702719,108.48210230906261 46.65262430952862,110.10405788494973 46.65262430952862,110.3635703913751 46.764502762351185,110.88259508472402 47.2120165748056,111.92064319411293 48.66643646429293,114.19136749644531 50.288674033246934,116.91622590314364 51.35151933715679,119.25180948385969 52.52624309388921,121.13324554351857 52.69406077358872,121.71713835565606 52.75,122.23615373641951 52.6381215469446,122.6902918452397 52.41436464106664,123.20930642762687 51.85497237555683,123.66344383812975 51.295580110512674,124.0527042162721 49.22582872956991,125.22048391395947 48.16298342542723,125.60974333435297 46.261049723718315,125.93412600160809 43.68784530390985,126.51801438390976 40.77900552516803,126.9072730060434 38.37361878459342,127.16677862097276 31.045580110745504,128.4643051000894 30.038674033246934,128.78868630412035 28.752071823226288,129.56720051559387 27.46546961320564,129.95645726216026" stroke="#4dd2ff" stroke-linecap="round" stroke-linejoin="round" stroke-width="0.5"><title>2023-04-12 2.0km</title></polyline><polyline fill="none" points="61.74058577371761,128.80059202277334 61.48640167340636,128.5057984252926 61.48640167340636,127.52315244625788 60.38493723794818,124.57520846405532 59.79184100404382,122.21684675000142 58.35146443499252,120.34980627743062 57.7583682006225,119.46541741571855 57.419456066563725,118.48276216810336 57.33472803328186,117.69663724431302 57.58891213405877,116.91051167598926 59.45292886951938,113.56947081623366 61.48640167340636,111.50588093773695 62.4184100413695,110.71975029166788 64.19769874447957,109.63881960004801 66.14644351461902,108.75442085473333 72.4163179914467,106.69082060852088 74.70397489517927,106.49428702000296 82.83786610839888,105.0202838217374 84.02405857760459,104.62721591920126 85.80334727978334,103.64454545796616 86.90481171570718,103.25147699093213 87.66736401664093,103.25147699093213 88.59937238506973,103.44801124470541 89.19246861943975,104.13588081451599 90.29393305443227,105.90468601259636 93.00523012550548,110.71975029166788 94.02196652721614,113.17640642018523 96.14016736391932,116.51744864985812 97.07217573234811,117.4018402317306 97.66527196625248,118.777558848029 97.75,119.46541741571855 97.58054393297061,120.64460238337051 97.32635983265936,121.52899015671574 96.98744769860059,122.02031634515151 95.63179916329682,123.10123307275353 92.49686192441732,124.67347340949345 90.63284518849105,125.06653309083777 88.5146443513222,125.85265196970431 83.6004184097983,127.03182907885639 80.29602510435507,127.32662312942557 76.73744769860059,127.42488779267296 72.75523012550548,128.21100473747356 68.85774058569223,128.80059202277334 64.96025104587898,129.9797655052971 63.604602510109544,130.07802989683114 63.09623430902138,129.7832366921939 62.75732217542827,128.99712103727506 61.74058577371761,125.75438714498887 60.38493723794818,122.31511193717597 58.690376568585634,119.85847923281835 57.50418410031125,118.38449658773607 57.25,117.69663724431302 57.25,116.51744864985812 58.182008367963135,114.15906710847048 59.28347280295566,112.88160801719641 61.65585773997009,111.21108202071628 64.87552301213145,109.34402010880876 65.97698744758964,108.65615427691955 67.5020920499228,108.06655459979083 74.28033472783864,106.39602021075552 77.5,106.29775339143816 80.97384937247261,105.5116184730432 82.41422594105825,105.11855077202199 85.46443514665589,103.74281254922971 87.66736401664093,103.25147699093213 88.5146443513222,103.25147699093213 89.0230125519447,103.74281254922971 91.14121338864788,107.96828795148758 92.6663179914467,110.42495113285258 94.27615062752739,113.76600295398384 96.14016736391932,115.92785380873829 97.49581589968875,118.38449658773607 97.66527196625248,119.26888644701103 97.32635983265936,121.43072488892358 96.90271966485307,122.11858155252412 95.97071129688993,122.90470284939511 92.6663179914467,124.67347340949345 90.71757322177291,125.36132774577709 87.92154811695218,125.85265196970431 84.53242677822709,126.73703493742505 82.24476987449452,127.13009377272101 80.12656903779134,127.42488779267296 78.00836820108816,127.42488779267296 67.16317991632968,129.19365001126425 63.77405857713893,130.07802989683114 63.09623430902138,130.47108736133669 62.4184100413695,131.25720180739881 61.910041840747,131.45373031834606 60.4696652716957,131.35546606802382 57.50418410031125,131.74852300900966" stroke="#4dd2ff" stroke-linecap="round" stroke-linejoin="round" stroke-width="0.5"><title>2023-04-11 2.4km</title></polyline><polyline fill="none" points="117.46333486773074,120.61543731647544 116.1202241666615,122.17312802630477 114.10555811412632,127.23561842506751 116.79177951812744,134.24520937539637 115.78444649092853,135.4134732768871 114.10555811412632,135.02405201573856 113.43400276452303,134.24520937539637 112.76244741305709,128.79330642079003 115.78444649092853,124.5096628954634 113.09822508879006,120.2260145386681 108.06155995838344,118.2789000524208 107.05422693304718,117.11063088220544 106.38267157971859,112.82697418099269 108.73311530798674,108.93273662426509 117.12755719199777,103.09137280401774 126.86510977707803,101.92309896158986 130.2228865325451,102.31252361577936 135.93110701441765,106.59619217342697 137.27421771548688,112.04812698927708 136.6026623658836,115.1635147978086 134.92377398721874,118.2789000524208 128.54399815574288,122.95197314233519 125.18622140213847,122.95197314233519 116.79177951812744,122.95197314233519 106.04689390398562,117.11063088220544 105.37533855438232,114.77409146190621 106.04689390398562,107.375040483661 118.80644556879997,99.97597509319894 122.83577767387033,98.41827527945861 126.52933210320771,97.63942513405345 129.55133118107915,98.41827527945861 133.5806632861495,102.31252361577936 136.6026623658836,108.15388863487169 135.93110701441765,113.99524466902949 132.57333026081324,117.88947703503072 128.54399815574288,120.2260145386681 120.14955627173185,121.00486005377024 115.11289113946259,122.56255060480908 108.39733763225377,119.05774596589617 107.39000460505486,117.11063088220544 107.72578228265047,114.77409146190621 111.41933671012521,110.10100831021555 116.79177951812744,106.98561634891666 122.49999999813735,100.75482476060279 125.52199907787144,100.36539994738996 128.2082204800099,101.53367426851764 132.57333026081324,105.42791941110045 134.5879963133484,108.93273662426509 135.2595516629517,113.60582121275365 133.91644096188247,117.11063088220544 131.56599723361433,119.4471688636113 127.87244280613959,121.39428275101818 119.81377859413624,121.00486005377024 114.77711346372962,121.78370540821925 110.74778136052191,119.05774596589617 106.38267157971859,117.5000539785251 104.70378320291638,115.94236135110259 104.36800552904606,113.21639771782793 105.37533855438232,106.20676795905456 106.71844925545156,104.2596462869551 111.08355903625488,100.36539994738996 114.10555811412632,98.80770029197447 122.49999999813735,97.25 127.87244280613959,98.02885022666305 130.2228865325451,99.5865502001252 134.25221863761544,103.87022183323279 136.26688469015062,107.76446457928978 136.26688469015062,109.3221605590079 135.93110701441765,111.65870333276689 134.25221863761544,114.38466808479279 132.23755258508027,116.72120774374343 127.53666512854397,119.05774596589617 116.45600184239447,121.78370540821925 114.77711346372962,121.39428275101818 112.09089206159115,119.05774596589617 108.06155995838344,117.11063088220544 107.05422693304718,115.1635147978086 107.39000460505486,110.10100831021555 109.40467065759003,106.98561634891666 120.48533394560218,99.19712526584044 124.1788883768022,98.41827527945861 126.19355442747474,99.19712526584044 129.88710885681212,101.92309896158986 133.24488561041653,105.42791941110045 134.25221863761544,107.76446457928978 134.25221863761544,110.49043212644756 133.24488561041653,115.1635147978086 130.2228865325451,119.83659172151238 126.86510977707803,121.39428275101818 116.1202241666615,122.17312802630477 107.72578228265047,116.72120774374343 106.38267157971859,114.77409146190621 106.04689390398562,112.82697418099269 106.71844925545156,107.375040483661 108.06155995838344,105.03849507588893 122.83577767387033,97.63942513405345 125.18622140213847,97.63942513405345 130.55866420827806,101.14424953376874 136.6026623658836,107.375040483661 137.27421771548688,109.71158445533365 136.93844004161656,112.43755060480908 136.26688469015062,114.38466808479279 134.92377398721874,116.72120774374343 129.55133118107915,120.2260145386681 118.13489021919668,123.34139564097859 114.4413357898593,122.95197314233519 110.74778136052191,121.00486005377024 109.0688929837197,119.05774596589617 108.73311530798674,115.1635147978086 110.41200368478894,110.49043212644756 115.11289113946259,108.15388863487169 122.83577767387033,103.09137280401774 125.52199907787144,101.92309896158986 127.20088745467365,102.31252361577936 130.2228865325451,104.2596462869551 133.5806632861495,106.98561634891666 134.5879963133484,108.54331264854409 135.2595516629517,113.99524466902949 134.5879963133484,116.72120774374343 133.24488561041653,118.2789000524208 131.23021955788136,119.4471688636113 124.1788883768022,120.2260145386681 115.4486688170582,122.17312802630477 108.39733763225377,117.5000539785251 106.38267157971859,113.99524466902949 106.04689390398562,111.65870333276689 106.71844925545156,107.76446457928978 107.39000460505486,106.20676795905456 110.07622601091862,103.87022183323279 117.12755719199777,102.31252361577936 124.51466605067253,98.02885022666305 127.87244280613959,98.80770029197447 134.25221863761544,105.03849507588893 135.59532933868468,106.59619217342697 136.6026623658836,110.49043212644756 135.59532933868468,114.77409146190621 133.91644096188247,117.5000539785251 132.23755258508027,119.05774596589617 118.47066789492965,122.56255060480908 112.42666973732412,126.45677418680862 112.42666973732412,129.57215017848648 114.4413357898593,135.80289449705742 115.78444649092853,137.36057897889987 118.13489021919668,137.75 129.21555350720882,136.1923156771809 132.23755258508027,136.97115791821852 136.26688469015062,135.02405201573856 140.6319944690913,131.9086804955732" stroke="#4dd2ff" stroke-linecap="round" stroke-linejoin="round" stroke-width="0.5"><title>2023-04-10 2.2km</title></polyline><polyline fill="none" points="152.8354985374026,137.75 152.7668659251649,137.1408250030945 152.67535577574745,136.8759658638155 152.42370286444202,136.3197607935581 152.3550702522043,135.76355453391443 152.3550702522043,134.96897210009047 152.4923354765633,134.09492861942272 152.65247823833488,133.53871760261245 153.17866159812547,131.97602314286632 153.40743697190192,131.41980759517173 153.65908988320734,130.41331929489388 154.09376309346408,129.16844679918722 154.61994645325467,128.05600250681164 155.30627257481683,126.22840512590483 155.5808030234184,125.7251514182135 155.83245593460742,124.74512824576232 156.26712914486416,123.55320319446037 156.3815168318106,122.65263397747185 156.61029220558703,121.91098639849224 157.06784295325633,120.90446130148484 157.77704661211465,118.2821802549879 158.05157706083264,117.43456860582228 158.6006379579194,116.08368183008861 158.87516840652097,115.10362232621992 159.17257639265154,114.33546499814838 159.40135176642798,113.88516481989063 159.515739453258,113.6732585838181 159.8360249766847,113.30242225527763 159.92753512621857,113.0905155444052 160.29357572447043,111.84556013083784 160.97990184579976,110.17678075961885 161.39169751876034,109.32914269217872 161.68910550465807,108.26959122245898 162.0093910280848,107.50141370741767 162.30679901398253,106.57429989121738 162.58132946281694,105.93856279258034 162.8558599113021,105.40878068978782 163.01600267295726,105.2763349954621 163.29053312155884,105.30282413971145 165.55540932249278,105.96505186942522 165.89857238321565,106.12398627356743 166.37900066829752,105.88558463094523 167.13395940198097,104.6670839326398 167.8431630608393,103.63400278103654 168.20920365897473,103.13070534850704 168.59812179440632,102.70687517611077 169.51322328974493,101.938681227708 171.06889583182056,100.90558923629578 172.0297524021007,100.42877616352052 172.46442561224103,100.29632793250494 172.80758867308032,100.29632793250494 173.05924158426933,99.95196221632068 173.05924158426933,99.81951374252094 173.65405755618121,99.42216791631654 173.76844524312764,99.0778010423819 173.9285880047828,97.62085922155529 173.9972206169041,97.46191961996374 174.24887352820951,97.25 175.4385054721497,97.59436929467483 175.80454607016873,97.64734914569999 178.41258533205837,97.72681890195236 179.25905421515927,97.85926844170899 179.32768682739697,97.91224823877565 179.41919697681442,98.01820780045819 179.53358466376085,98.54800496116513 179.51070712634828,98.83939293943695 179.41919697681442,99.18376012903173 179.442074514227,99.39567817302304 179.64797235070728,99.42216791631654 179.945380336605,97.75330881529953 180.082645560964,97.59436929467483 180.38005354686175,97.56787936508772 180.51731877122074,97.62085922155529 180.6088289207546,97.80628863399033 180.6774615328759,98.83939293943695 180.7460941451136,99.0778010423819 180.83760429464746,99.23673965624766 181.15788981807418,99.39567817302304 181.91284855164122,99.63408576583606 182.3246442246018,99.63408576583606 182.6449297479121,99.55461659253342" stroke="#4dd2ff" stroke-linecap="round" stroke-linejoin="round" stroke-width="0.5"><title>2023-04-09 2.8km</title></polyline><polyline fill="none" points="43.09230769239366,162.7063643343863 42.54711538460106,165.32152342167683 42.39134615380317,165.59205667936476 42.15769230760634,165.68223441380542 42.469230769667774,165.32152342167683 43.17019230732694,166.5840112506412 43.01442307699472,168.20720724272542 42.85865384619683,168.7482719119871 42.469230769667774,169.19915888400283 42.469230769667774,170.91252728307154 42.70288461539894,171.9946529843146 41.92403846140951,174.42943097674288 41.6125000002794,175.0606686224346 40.98942307662219,175.6919058180647 40.98942307662219,175.87225921993377 41.30096153868362,175.96243590698577 40.98942307662219,175.96243590698577 40.75576923042536,176.41331920510856 39.976923076901585,178.48737941787113 38.88653846131638,179.93020104814786 38.18557692319155,181.46319645404583 38.029807691928,181.91407695086673 38.107692307792604,182.54530926031293 38.419230768922716,182.9961892060237 38.49711538432166,183.26671706303023 37.32884615380317,186.69339609832969 35.849038461223245,190.210237108171 35.849038461223245,190.48076276102802 36.00480769202113,190.48076276102802 36.70576923061162,189.8495361090172 36.62788461567834,191.4726894479827 36.082692307420075,192.19408997654682 35.69326923089102,193.72706414887216 34.447115384507924,193.27618966781301 33.35673076938838,193.09583981119795 33.12307692319155,193.1860147441621 33.12307692319155,193.54671438393416 33.278846153989434,193.0056648691534 33.045192307792604,192.73513998754788 31.253846153616905,191.65303963521728 29.77403846150264,191.02181381871924 28.60576923098415,190.9316386654973 28.37211538478732,191.4726894479827 28.13846153859049,190.210237108171 28.917307692114264,188.40673064312432 28.917307692114264,188.04602890915703 27.982692307792604,188.4969060534495 27.749038461130112,188.4969060534495 27.90480769239366,188.31655522348592 27.90480769239366,188.58708145469427 27.359615384601057,189.8495361090172 27.515384615398943,190.0298866268713 27.826923076994717,189.75936083617853 27.982692307792604,190.57093796040863 27.749038461130112,190.3905875524506 26.425000000279397,190.48076276102802 25.80192307708785,190.210237108171 24.94519230769947,189.75936083617853 24.86730769230053,189.75936083617853 24.86730769230053,189.93971137265908 25.17884615343064,190.0298866268713 25.490384615492076,189.93971137265908 25.724038461688906,189.75936083617853 25.724038461688906,189.30848433467327 25.56826923089102,188.76743223000085 24.71153846150264,188.13620435656048 24.010576923377812,187.95585345261497 22.375,188.13620435656048 19.259615384507924,186.78357168333605 18.091346153523773,186.42286928842077 16.37788461521268,187.23444947076496 15.443269230425358,188.04602890915703 14.742307692300528,188.31655522348592 15.521153846289963,188.40673064312432 16.61153846140951,187.95585345261497 15.131730769295245,188.31655522348592 14.975961538031697,188.31655522348592 14.898076923098415,188.58708145469427 15.365384615492076,189.12813366978662 15.521153846289963,189.48883496283088 15.287500000093132,190.7512883313466 15.754807692021132,190.9316386654973 16.923076923005283,191.1119889630354 16.066346153616905,191.3825143405702 14.742307692300528,192.1039149427088 14.197115384507924,192.55479002080392 13.574038461316377,193.63688927114708 13.340384615585208,194.1779384003603 13.41826923051849,194.44846284104278 13.41826923051849,194.26811322307913 12.25,196.25195699970936 12.48365384619683,196.52248080656864 13.184615384787321,196.9733536344138 15.131730769295245,197.51440072490368 18.091346153523773,199.22771433013259 19.64903846150264,199.76876004319638 20.583653846289963,199.85893429641146 20.739423076622188,199.76876004319638 20.427884615026414,199.58841150894295 20.427884615026414,199.49823722819565 21.596153846010566,198.77684265031712 22.920192307792604,197.2438772211899 23.932692307513207,195.07968621433247 25.10096153849736,194.628812422161 25.490384615492076,194.35828803642653 31.253846153616905,196.79300453100586 34.60288461530581,197.6045752078644 34.7586538461037,197.8750986016239 36.783653846010566,199.0473656859831 42.15769230760634,201.3017211011611 43.32596153812483,200.6705021635862 44.18269230797887,200.6705021635862 46.28557692328468,201.75259149546036 47.22019230760634,201.93293958890717 47.92115384619683,201.66241743485443 48.933653846383095,200.58032799273496 49.400961538311094,200.58032799273496 50.88076923089102,201.12137287913356 52.75,202.2936356656137" stroke="#4dd2ff" stroke-linecap="round" stroke-linejoin="round" stroke-width="0.5"><title>2023-04-09 2.5km</title></polyline><polyline fill="none" points="64.2047166567063,170.85330647215596 63.86515146319289,170.9138922491693 63.133780277334154,171.67121341484017 60.73070352373179,173.15555726911407 60.704583124257624,174.00375040981453 60.57398112677038,174.51872362877475 60.75682392320596,175.0639884120319 61.018027918296866,175.54866737461998 61.61879710666835,176.42714596827864 62.324047892936505,177.5782518966007 63.96963306120597,180.45599710129318 64.72712464665528,182.03117208281765 65.27565303596202,182.9399230608833 65.40625503356569,183.51546390162548 66.42495061375666,184.57566777948523 67.36528499552514,186.18111212577787 68.04441538243555,187.6653831024014 68.41010097542312,188.21062362991506 69.37655575678218,189.5737205479527 70.49973293510266,191.3003009527165 70.99602052546106,192.33018621613155 72.01471610588487,194.02646000348614 72.06695690494962,194.23849354239064 72.01471610588487,194.48081740076304 72.95505048776977,195.45011084686848 76.40294322115369,201.4475433647458 76.58578601758927,201.8413099295285 76.66414721612819,202.29565531390836 77.02983280911576,202.75 77.160434806603,202.75 79.35454836417921,200.8114578059176 79.95531755266711,200.20566076299292 82.09719031117857,198.50942243737518 83.45545108499937,197.6007193303376 86.11973183369264,195.38953009966644 86.82498261996079,194.9351740993734 88.33996579074301,193.6326830277103 89.77658776298631,192.54222097198362 92.25802571501117,190.2704121005081 93.30284169490915,189.08906458629644 93.59016608935781,188.81644525850425 94.00809248141013,188.30149695344153 94.1909352777293,187.6653831024014 94.37377807416487,186.48402517542127 94.42601887322962,185.87819876574213 94.37377807416487,185.63586785405641 93.11999889847357,183.2731310526433 91.7356177251786,181.09212646994274 89.95943055942189,177.79029723646818 89.51538376801182,177.0632840092876 88.2616045922041,174.82164863258367 87.45187220792286,173.4887762933795 86.74662142142188,172.06501965387724 85.93688903714065,170.82301357900724 85.41448104719166,169.79305336225661 84.60474866291042,168.3995720607927 82.33227390656248,164.27967586443992 81.4964211229235,162.9467559728073 81.20909672835842,162.64381879527355 80.55608674092218,162.3711750698276 79.79859515558928,162.25 79.40678916312754,162.2802937720844 78.80601997487247,162.49235008991673 76.11561882670503,164.1282079977682 73.32073608052451,165.7337634342257 72.69384649279527,166.1881643322995 71.3094653195003,167.03637747233734 68.12277658097446,168.85396885935916 65.92866302339826,169.97481130843516 65.19729183742311,170.45949861826375 64.83160624455195,170.61096323953825 64.54428185010329,170.67154906634823" stroke="#ffb800" stroke-linecap="round" stroke-linejoin="round" stroke-width="0.5"><title>2023-04-09 4.1km</title></polyline><polyline fill="none" points="111.80546349659562,178.45007972116582 112.02371934335679,181.7407079259865 112.02371934335679,187.5625778522808 113.98802196513861,184.77820699149743 116.8253479776904,182.50008304254152 118.78965060133487,181.7407079259865 124.02779092825949,180.72820740705356 127.08337278664112,178.70320512307808 128.17465202324092,175.66569858440198 128.17465202324092,172.8813143062871 127.5198844820261,170.60317938076332 126.21034939959645,168.83129520644434 124.68255846947432,167.5656628755387 122.71825584676117,166.8062831654679 121.40872076433152,166.8062831654679 119.88092983607203,167.0594097613357 114.86104535404593,169.3375479571987 110.05941672064364,169.3375479571987 109.18639333173633,170.3500531478785 108.5316257905215,172.37506228266284 108.74988163821399,174.1469439130742 110.71418426185846,176.6782011790201 118.13488306012005,181.48758283467032 127.73814032878727,178.19695429317653 129.7024429505691,178.19695429317653 129.04767540935427,176.6782011790201 128.17465202324092,175.66569858440198 126.42860524635762,174.65319557324983 124.46430262364447,174.1469439130742 122.06348830554634,173.8938180434052 116.38883628416806,174.1469439130742 112.24197519011796,173.3875662270002 108.09511409699917,173.64069214789197 111.1506959553808,174.65319557324983 114.64278950728476,178.19695429317653 116.60709212999791,178.70320512307808 124.24604677595198,178.70320512307808 127.5198844820261,177.69070335826837 128.61116371676326,176.93132676254027 128.8294195625931,175.66569858440198 128.3929078700021,172.12193623138592 128.61116371676326,172.37506228266284 128.3929078700021,171.86881015403196 124.46430262364447,169.59067429439165 122.06348830554634,169.08442159486003 121.19046491757035,169.08442159486003 117.26185967121273,170.85630558733828 116.38883628416806,170.60317938076332 113.5515102725476,166.5531565430574 113.5515102725476,165.54064979660325 113.98802196513861,165.28752304427326 116.60709212999791,164.02188889682293 121.84523245785385,162.25 124.46430262364447,162.25 125.55558185838163,163.2625080961734 126.21034939959645,164.27501577790827 126.21034939959645,167.31253633159213 123.59127923473716,173.64069214789197 121.19046491757035,177.43757785251364 119.2261622948572,177.9438288381789 115.95232458878309,174.65319557324983 112.24197519011796,172.62818830669858 111.1506959553808,172.62818830669858 109.84116087295115,173.1344402791001 108.5316257905215,174.65319557324983 108.09511409699917,175.41257287026383 108.74988163821399,175.66569858440198 112.24197519011796,175.41257287026383 113.33325442578644,176.6782011790201 113.76976611930877,180.72820740705356 112.67848688550293,184.2719574063085 112.67848688550293,188.82819993258454 113.5515102725476,190.60006975522265 115.29755704849958,191.61256622592919 116.8253479776904,192.118814305868 125.11907016392797,191.10631804238074 129.26593125704676,192.118814305868 131.23023388069123,193.63755792193115 132.53976896218956,195.91567159444094 132.10325726866722,198.19378316425718 131.23023388069123,199.20627652155235 122.5,201.73750809626654 119.2261622948572,200.97813889640383 117.69837136566639,199.96564626554027 116.38883628416806,197.9406597604975 114.64278950728476,196.1687952056527 113.76976611930877,193.63755792193115 113.76976611930877,191.10631804238074 115.51581289526075,186.29695512261242 115.29755704849958,184.2719574063085 114.2062778128311,182.50008304254152 110.2776725674048,178.19695429317653 109.18639333173633,175.91882427129894 109.18639333173633,173.64069214789197 110.05941672064364,171.61568405129947 111.80546349659562,169.59067429439165 117.04360382538289,168.07191588613205 122.5,165.28752304427326 124.68255846947432,165.28752304427326 127.08337278664112,166.04690322140232 128.61116371676326,167.5656628755387 129.26593125704676,169.08442159486003 129.04767540935427,173.64069214789197 127.95639617554843,176.4250755684916 126.42860524635762,177.9438288381789 124.9008143171668,178.70320512307808 117.48011551890522,180.98133257520385 115.95232458878309,181.23445771774277 114.4245336605236,180.2219569918234 111.80546349659562,177.18445232091472 109.40464917942882,175.66569858440198 108.5316257905215,174.1469439130742 108.96813748590648,171.86881015403196 110.49592841416597,170.0969268886838 118.13488306012005,165.79377652192488 119.88092983607203,165.28752304427326 122.93651169352233,165.54064979660325 126.42860524635762,166.5531565430574 128.3929078700021,168.07191588613205 129.26593125704676,169.84380060457624 129.48418710473925,172.37506228266284 129.26593125704676,174.1469439130742 128.3929078700021,176.6782011790201 127.30162863433361,178.45007972116582 123.37302338797599,180.72820740705356 113.98802196513861,184.52508221194148 112.67848688550293,185.53758117416874 112.24197519011796,187.8157023198437 113.33325442578644,196.1687952056527 114.2062778128311,198.95315322093666 115.51581289526075,200.47189263347536 117.69837136566639,201.48438505548984 123.59127923473716,202.75 125.11907016392797,202.75 126.42860524635762,202.2437541000545 130.13895464595407,199.20627652155235 130.79372218623757,195.15630060364492 131.23023388069123,194.3969293795526 133.1945365043357,192.8781862303149 136.250118361786,191.35944214696065 136.9048859020695,190.60006975522265 136.46837420854717,189.84069712972268 135.81360666826367,189.58757286914624 130.5754663394764,189.33444858295843" stroke="#4dd2ff" stroke-linecap="round" stroke-linejoin="round" stroke-width="0.5"><title>2023-04-06 2.2km</title></polyline><polyline fill="none" points="151.1506747044623,166.66820401349105 154.96022623032331,168.14093747688457 157.81738987378776,170.71821958431974 157.81738987378776,171.45458556106314 156.54753936454654,172.92731706099585 153.0554504673928,172.92731706099585 153.37291309423745,173.29549984214827 157.81738987378776,169.9818534576334 160.99201614409685,170.3500365400687 164.80156766995788,169.2454871777445 168.6111191958189,165.5636535200756 171.46828283928335,164.82728633540682 174.96037173829973,165.9318370553665 179.72231114283204,170.3500365400687 181.3096242789179,173.66368258465081 182.5794747862965,178.0818725565914 180.03977376967669,184.70914732245728 178.76992326043546,185.445510429563 169.88096970319748,185.445510429563 166.3888808041811,186.18187338742428 163.8491797875613,185.077328894753 158.7697777543217,179.18641920015216 152.7379878386855,176.60914317029528 151.1506747044623,173.66368258465081 152.7379878386855,171.08640259108506 155.5951514840126,169.9818534576334 161.3094787709415,169.9818534576334 168.92858182266355,165.5636535200756 171.46828283928335,164.82728633540682 174.64290910959244,165.5636535200756 176.23022224381566,166.66820401349105 180.99216165207326,171.82276849262416 181.9445495326072,174.03186529083177 182.5794747862965,177.71369026671164 182.2620121613145,181.39551146840677 181.3096242789179,183.23642065329477 178.45246063545346,184.70914732245728 173.37305860221386,184.70914732245728 164.80156766995788,185.81369192735292 153.0554504673928,175.87277825013734 152.7379878386855,175.13641318050213 153.37291309423745,173.29549984214827 160.03962826170027,168.50912074930966 171.15082021057606,165.19546994706616 175.59529699012637,166.30002055410296 180.67469902522862,171.45458556106314 181.3096242789179,172.55913424375467 182.2620121613145,178.45005480828695 181.9445495326072,181.76369338063523 180.03977376967669,184.34096571197733 176.54768487252295,185.445510429563 168.92858182266355,184.34096571197733 164.1666424162686,185.077328894753 162.26186665147543,183.972784063546 160.6745535172522,181.02732951869257 158.1348525006324,178.8182370236609 154.64276360161602,176.97732557356358 153.37291309423745,175.87277825013734 152.10306258499622,172.19095138716511 153.37291309423745,169.2454871777445 155.91261411085725,168.14093747688457 158.1348525006324,168.14093747688457 160.99201614409685,169.61367033678107 165.11903029680252,168.8773039826192 169.2460444495082,168.50912074930966 173.05559597536922,166.30002055410296 175.59529699012637,165.5636535200756 177.50007275305688,166.30002055410296 181.9445495326072,170.3500365400687 182.89693741500378,173.29549984214827 183.21440004184842,175.87277825013734 182.5794747862965,178.8182370236609 181.62708690576255,181.02732951869257 179.08738588914275,182.50005709240213 164.80156766995788,185.81369192735292 154.64276360161602,179.18641920015216 152.4205252137035,175.50459573301487 152.4205252137035,174.4000479578972 153.6903757210821,170.3500365400687 155.5951514840126,169.2454871777445 159.72216563485563,170.3500365400687 163.214254533872,169.61367033678107 168.92858182266355,166.66820401349105 171.78574546426535,165.9318370553665 173.69052122719586,165.9318370553665 175.91275961697102,167.0363874360919 179.72231114283204,170.3500365400687 180.67469902522862,172.55913424375467 181.62708690576255,176.97732557356358 181.3096242789179,181.39551146840677 180.03977376967669,183.23642065329477 178.13499800674617,184.34096571197733 166.0714181791991,185.81369192735292 161.94440402463078,183.972784063546 154.64276360161602,178.8182370236609 153.0554504673928,177.34550794004463 152.4205252137035,175.87277825013734 152.4205252137035,173.66368258465081 153.6903757210821,168.50912074930966 155.27768885716796,167.77275416790508 158.7697777543217,168.14093747688457 160.6745535172522,167.40457082074136 167.65873131342232,162.98636771366 170.8333575837314,162.25 174.0079838540405,162.98636771366 178.76992326043546,166.66820401349105 180.35723639838398,169.61367033678107 180.99216165207326,174.4000479578972 179.72231114283204,179.55460133985616 177.18261012621224,181.39551146840677 171.78574546426535,182.13187525584362 166.3888808041811,182.13187525584362 163.8491797875613,181.02732951869257 161.3094787709415,180.29096550378017 156.86500199139118,178.45005480828695 154.96022623032331,176.97732557356358 154.32530097477138,174.76823058794253 154.96022623032331,171.82276849262416 156.2300767377019,169.9818534576334 160.35709089040756,171.45458556106314 165.43649292364717,171.08640259108506 169.88096970319748,164.82728633540682 171.46828283928335,164.09091899939813 174.0079838540405,164.82728633540682 179.08738588914275,168.50912074930966 181.3096242789179,171.45458556106314 182.5794747862965,174.76823058794253 182.5794747862965,178.45005480828695 181.9445495326072,180.65914752916433 180.67469902522862,182.13187525584362 178.13499800674617,183.23642065329477 166.0714181791991,184.70914732245728 164.1666424162686,184.34096571197733 161.94440402463078,182.50005709240213 160.6745535172522,182.86823889124207 155.27768885716796,181.02732951869257 152.7379878386855,178.0818725565914 151.46813733130693,174.4000479578972 151.46813733130693,171.82276849262416 153.0554504673928,170.3500365400687 154.64276360161602,169.9818534576334 158.45231512747705,170.3500365400687 163.214254533872,168.8773039826192 167.34126868657768,168.14093747688457 171.78574546426535,165.5636535200756 174.96037173829973,166.66820401349105 179.4048485159874,171.82276849262416 180.67469902522862,175.87277825013734 180.99216165207326,180.65914752916433 180.67469902522862,182.50005709240213 179.4048485159874,184.34096571197733 177.50007275305688,185.077328894753 173.05559597536922,184.70914732245728 169.2460444495082,185.077328894753 160.99201614409685,190.23186695110053 160.35709089040756,192.07277160719968 160.99201614409685,200.17274088063277 161.94440402463078,201.27728073042817 163.53171716071665,202.38182023959234 168.92858182266355,202.01364044100046 172.73813334666193,202.75 174.96037173829973,202.38182023959234 180.99216165207326,199.06820069206879 183.8493252955377,198.33184037799947" stroke="#4dd2ff" stroke-linecap="round" stroke-linejoin="round" stroke-width="0.5"><title>2023-04-04 2.2km</title></polyline><polyline fill="none" points="27.780951271764934,249.68926510540769 26.60118909087032,249.41561666759662 26.129284217953682,249.9629135162104 25.657379345037043,250.78385857865214 26.129284217953682,252.15209978749044 27.073093962855637,252.15209978749044 33.44380974583328,246.67913074232638 43.3538120733574,243.12169484514743 44.297621820122004,242.0270982303191 44.53357425518334,240.38520246674307 43.82571694534272,235.18585921963677 43.3538120733574,233.54395924741402 41.46619258262217,231.3547577143181 37.4550011632964,228.0709520468954 35.33142923563719,227.25 32.73595243692398,228.0709520468954 27.544998835772276,231.08110739663243 25.185474472120404,231.08110739663243 23.29785498138517,230.80745705030859 21.174283053725958,231.9020582663361 20.46642574481666,233.27030915417708 20.230473308824003,234.09125935053453 20.70237818080932,234.63855934189633 24.713569599203765,237.92235692823306 28.72476101759821,242.84804573375732 32.028095128014684,244.4899399818387 38.39881090912968,244.4899399818387 44.53357425518334,243.3953439288307 45.7133364379406,242.30074742576107 45.241431564092636,240.9325011675246 45.00547912809998,237.92235692823306 42.645954764448106,234.63855934189633 39.81452552694827,232.9966590332333 33.679762181825936,232.17570849950425 28.96071345359087,232.9966590332333 25.657379345037043,232.72300888388418 22.354045235551894,228.8919038430322 19.994520872831345,227.79730139276944 18.578806254081428,228.0709520468954 18.342853817157447,228.34460267378017 18.342853817157447,229.43920489982702 21.174283053725958,232.44935870589688 24.477617163211107,235.18585921963677 28.488808581605554,243.12169484514743 31.320237818174064,245.5845355866477 33.915714617818594,247.226428152062 37.4550011632964,246.67913074232638 41.46619258262217,244.7635889253579 43.11785963643342,243.12169484514743 44.0616693822667,241.4797997546848 44.0616693822667,236.82775818067603 43.3538120733574,234.63855934189633 42.645954764448106,233.54395924741402 38.63476334605366,231.08110739663243 35.56738167256117,230.2601562740747 33.679762181825936,230.53380667651072 30.376428072340786,232.17570849950425 27.073093962855637,232.44935870589688 24.24166472721845,231.9020582663361 21.174283053725958,234.36490936018527 20.938330616801977,236.28045863984153 21.41023549064994,238.19600654556416 22.354045235551894,239.29060473036952 26.60118909087032,240.9325011675246 29.668570762500167,245.85818441724405 30.848332945257425,246.13183322083205 38.63476334605366,245.31088672787882 41.70214501861483,244.21629101014696 42.881907200440764,242.84804573375732 43.589764510281384,241.4797997546848 44.0616693822667,238.74330569338053 43.82571694534272,235.73315898608416 43.3538120733574,234.09125935053453 42.17404989246279,232.17570849950425 39.34262065496296,229.43920489982702 36.511191418394446,228.34460267378017 35.09547679964453,228.6182532729581 29.43261832743883,231.6284080047626 26.129284217953682,231.9020582663361 23.769759853370488,230.80745705030859 22.354045235551894,231.3547577143181 21.41023549064994,232.17570849950425 21.174283053725958,233.27030915417708 21.646187925711274,234.9122092940379 24.477617163211107,237.10140790999867 26.60118909087032,239.01695522549562 28.488808581605554,244.21629101014696 30.848332945257425,244.7635889253579 36.74714385531843,244.7635889253579 41.23024014569819,243.3953439288307 42.645954764448106,242.0270982303191 43.589764510281384,240.11155307479203 43.82571694534272,238.74330569338053 43.3538120733574,235.45950911636464 42.881907200440764,234.36490936018527 41.46619258262217,232.9966590332333 39.81452552694827,232.17570849950425 34.62357192765921,231.3547577143181 25.893331781961024,232.9966590332333 22.589997672475874,231.3547577143181 20.70237818080932,232.72300888388418 19.758568435907364,234.36490936018527 19.994520872831345,235.73315898608416 21.646187925711274,238.74330569338053 25.893331781961024,241.20615047519095 28.252856145612895,244.7635889253579 31.084285381250083,245.5845355866477 39.57857309188694,245.03723784023896 41.93809745460749,243.94264201121405 43.11785963643342,242.57439659372903 44.0616693822667,240.11155307479203 44.0616693822667,238.74330569338053 43.82571694534272,236.00680882669985 42.17404989246279,234.09125935053453 40.52238283678889,232.9966590332333 38.87071578204632,232.72300888388418 31.320237818174064,233.54395924741402 28.72476101759821,232.9966590332333 24.477617163211107,230.53380667651072 22.118092800490558,230.53380667651072 20.230473308824003,231.3547577143181 22.589997672475874,235.45950911636464 26.365236654877663,239.29060473036952 28.016903709620237,242.84804573375732 30.14047563727945,243.66899298410863 37.92690603621304,244.4899399818387 43.589764510281384,243.3953439288307 44.53357425518334,241.75344900693744 45.00547912809998,239.29060473036952 44.0616693822667,235.45950911636464 41.46619258262217,233.27030915417708 37.92690603621304,231.9020582663361 29.668570762500167,232.44935870589688 24.477617163211107,230.53380667651072 22.825950108468533,230.53380667651072 20.46642574481666,231.6284080047626 20.230473308824003,232.72300888388418 21.174283053725958,234.9122092940379 27.073093962855637,240.11155307479203 29.43261832743883,244.7635889253579 30.848332945257425,246.13183322083205 32.26404756400734,246.67913074232638 39.57857309188694,245.85818441724405 43.11785963643342,243.94264201121405 44.76952669210732,242.30074742576107 45.00547912809998,240.11155307479203 43.3538120733574,234.36490936018527 42.41000232845545,232.9966590332333 36.983096291311085,227.52365071047097 35.80333410855383,227.25 33.679762181825936,228.34460267378017 31.320237818174064,231.08110739663243 29.668570762500167,231.9020582663361 27.780951271764934,232.44935870589688 21.882140363566577,232.17570849950425 20.230473308824003,232.9966590332333 20.938330616801977,234.63855934189633 22.354045235551894,236.00680882669985 26.60118909087032,239.56425420637242 29.43261832743883,243.66899298410863 30.14047563727945,244.21629101014696 31.79214269015938,244.7635889253579 35.56738167256117,245.31088672787882 39.57857309188694,246.9527794616297 43.3538120733574,246.9527794616297 44.53357425518334,246.40548199601471 45.94928887300193,241.75344900693744 45.7133364379406,238.46965613309294 45.00547912809998,236.55410842527635 42.41000232845545,232.72300888388418 38.162858474068344,230.80745705030859 32.73595243692398,230.53380667651072 27.544998835772276,230.80745705030859 25.421426909044385,230.2601562740747 24.00571229122579,230.2601562740747 22.589997672475874,230.80745705030859 20.230473308824003,232.9966590332333 20.230473308824003,234.09125935053453 20.938330616801977,235.45950911636464 23.533807418309152,237.64870728366077 27.309046399779618,240.11155307479203 30.14047563727945,244.4899399818387 32.028095128014684,245.31088672787882 35.80333410855383,245.03723784023896 38.63476334605366,245.5845355866477 40.99428770877421,245.31088672787882 43.11785963643342,244.7635889253579 44.0616693822667,243.94264201121405 44.76952669210732,242.30074742576107 45.241431564092636,237.92235692823306 44.0616693822667,236.00680882669985 42.17404989246279,234.36490936018527 36.74714385531843,232.17570849950425 34.85952436365187,231.9020582663361 29.19666589051485,232.72300888388418 24.477617163211107,231.6284080047626 23.533807418309152,231.9020582663361 21.174283053725958,234.36490936018527 20.938330616801977,236.00680882669985 22.354045235551894,237.64870728366077 26.129284217953682,240.9325011675246 27.780951271764934,244.4899399818387 28.016903709620237,245.85818441724405 26.60118909087032,248.04737405572087 26.60118909087032,251.33115514577366 28.488808581605554,257.0777623327449 30.848332945257425,258.4460003164131 33.44380974583328,258.7196478282567 39.106668218038976,257.625057610916 43.589764510281384,257.3514099859167 45.47738400101662,258.4460003164131 46.421193746849895,259.8142375978641 46.421193746849895,260.6351796297822 45.241431564092636,262.55071005644277 40.286430400796235,264.73988600377925 37.21904872730374,266.9290601564571 34.85952436365187,267.75 33.44380974583328,267.47635341389105 31.084285381250083,266.381766786566 30.14047563727945,262.27706293715164 30.14047563727945,260.9088269181084 30.848332945257425,259.8142375978641 35.33142923563719,256.25681920722127 37.69095359928906,255.43587582791224 44.53357425518334,251.6048033873085 46.421193746849895,251.33115514577366 46.421193746849895,252.9730441761203 46.185241310857236,252.9730441761203 46.65714618284255,252.4257479449734 46.185241310857236,251.87845160160214 46.421193746849895,252.15209978749044" stroke="#ffd700" stroke-linecap="round" stroke-linejoin="round" stroke-width="0.5"><title>2023-04-01 3.2km</title></polyline><polyline fill="none" points="74.71966917067766,244.2755571261514 72.71783097460866,246.59721508133225 69.38143397960812,249.69275568891317 70.93841924425215,247.88702413020656 75.16452210396528,245.30740537075326 77.3887867666781,244.53351922682486 82.05974256061018,244.7914813007228 84.06158075667918,244.2755571261514 85.3961395546794,243.24370845849626 86.5082718860358,241.18000985356048 86.95312481932342,237.82649601064622 86.28584542032331,234.98890388407744 85.1737130889669,232.92519850935787 82.50459549296647,230.34556440962479 80.28033082932234,229.5716736635659 77.83363969996572,229.82963727228343 72.05055157560855,233.1831617737189 69.82628691196442,232.92519850935787 66.93474285118282,231.37741836719215 65.15533111989498,232.1513085567858 66.04503698460758,233.1831617737189 70.71599277760834,235.50482996366918 73.38511037267745,239.6322347894311 74.94209563732147,240.40612244047225 81.83731609396636,240.40612244047225 85.3961395546794,239.6322347894311 86.5082718860358,238.60038421768695 86.95312481932342,237.5685332233552 85.3961395546794,234.21501456713304 83.17187489196658,232.92519850935787 80.50275729503483,232.1513085567858 77.83363969996572,232.6672352179885 72.94025744032115,234.4729776987806 70.49356631096452,234.21501456713304 67.82444871496409,232.6672352179885 67.15716931596398,232.92519850935787 66.26746345125139,233.95705140870996 65.82261051796377,235.2468669367954 66.26746345125139,236.53668180434033 71.16084570996463,239.8901973660104 74.4972427058965,244.7914813007228 75.6093750372529,245.56536736548878 77.83363969996572,246.08129127626307 83.17187489196658,244.7914813007228 84.9512866223231,244.01759499916807 86.0634189536795,243.24370845849626 86.95312481932342,241.18000985356048 87.17555128596723,239.3742721863091 86.73069835174829,236.7946446989663 85.3961395546794,234.73094080435112 81.83731609396636,232.1513085567858 78.72334556560963,231.37741836719215 71.82812510896474,234.4729776987806 70.04871337953955,234.21501456713304 67.6020222492516,233.1831617737189 66.04503698460758,233.44112501107156 65.15533111989498,234.73094080435112 65.15533111989498,236.02075593639165 66.04503698460758,237.0526075665839 69.82628691196442,239.3742721863091 73.16268390696496,242.4698216803372 74.71966917067766,242.98574622510932 81.17003669403493,243.24370845849626 83.39430135861039,242.98574622510932 84.9512866223231,241.95389702916145 86.0634189536795,240.40612244047225 86.5082718860358,238.60038421768695 86.5082718860358,237.0526075665839 86.0634189536795,236.02075593639165 83.39430135861039,233.69908822327852 80.05790436360985,232.6672352179885 72.94025744032115,233.69908822327852 68.71415458060801,233.1831617737189 66.48988991696388,234.21501456713304 66.04503698460758,235.2468669367954 66.04503698460758,236.27871888387017 66.93474285118282,237.82649601064622 70.71599277760834,240.66408493858762 73.38511037267745,244.01759499916807 74.4972427058965,244.7914813007228 76.4990809019655,245.30740537075326 82.50459549296647,245.04944334900938 85.6185660213232,243.75963284540921 86.5082718860358,242.7277839658782 87.17555128596723,240.92204740899615 87.39797775167972,239.3742721863091 86.73069835174829,236.27871888387017 84.06158075667918,232.6672352179885 82.05974256061018,231.37741836719215 79.39062496367842,230.60352793894708 72.49540450889617,233.69908822327852 70.27113984525204,233.95705140870996 67.6020222492516,233.44112501107156 65.82261051796377,233.44112501107156 65.37775758560747,233.95705140870996 65.60018405131996,235.2468669367954 66.48988991696388,236.7946446989663 69.15900751296431,239.3742721863091 71.38327217567712,242.98574622510932 73.16268390696496,244.7914813007228 76.72150736767799,246.59721508133225 80.50275729503483,246.33925319160335 84.06158075667918,244.7914813007228 86.28584542032331,242.211859367555 86.95312481932342,239.8901973660104 86.95312481932342,233.1831617737189 81.83731609396636,231.11945491703227 78.0560661656782,230.60352793894708 72.71783097460866,233.44112501107156 67.15716931596398,233.69908822327852 65.37775758560747,234.73094080435112 64.93290465325117,235.76279296400025 65.60018405131996,237.0526075665839 68.71415458060801,239.1163095573429 71.38327217567712,242.7277839658782 72.49540450889617,243.5016706653405 78.27849263232201,244.2755571261514 82.50459549296647,244.01759499916807 84.28400722332299,243.24370845849626 85.3961395546794,241.95389702916145 86.28584542032331,240.14815991697833 86.5082718860358,238.34242150909267 85.6185660213232,236.27871888387017 81.17003669403493,232.1513085567858 79.61305143032223,231.89334518648684 78.0560661656782,232.1513085567858 71.82812510896474,234.4729776987806 69.82628691196442,234.21501456713304 67.15716931596398,232.6672352179885 66.26746345125139,233.1831617737189 65.60018405131996,234.73094080435112 66.04503698460758,237.5685332233552 67.3795957826078,239.6322347894311 71.82812510896474,241.6959346642252 74.94209563732147,244.53351922682486 75.83180150389671,244.7914813007228 79.39062496367842,243.75963284540921 83.61672782339156,243.5016706653405 85.1737130889669,242.7277839658782 86.5082718860358,241.18000985356048 87.17555128596723,238.85834690043703 87.39797775167972,236.7946446989663 86.95312481932342,233.95705140870996 86.28584542032331,232.4092719007749 84.9512866223231,230.86149144126102 83.39430135861039,229.5716736635659 81.17003669403493,229.3137100294698 79.16819849703461,229.82963727228343 74.4972427058965,233.69908822327852 72.94025744032115,234.4729776987806 70.93841924425215,234.4729776987806 68.4917281139642,233.44112501107156 66.48988991696388,233.69908822327852 65.60018405131996,234.4729776987806 65.60018405131996,235.50482996366918 66.04503698460758,237.82649601064622 66.71231638360769,238.85834690043703 70.71599277760834,240.40612244047225 73.16268390696496,244.01759499916807 75.16452210396528,244.7914813007228 82.72702195867896,244.2755571261514 84.72886015474796,243.75963284540921 86.0634189536795,242.4698216803372 86.95312481932342,239.8901973660104 86.73069835174829,238.08445877279155 85.3961395546794,236.27871888387017 82.94944842439145,234.73094080435112 79.39062496367842,233.95705140870996 72.94025744032115,235.2468669367954 68.26930164918303,234.4729776987806 66.48988991696388,235.2468669367954 66.04503698460758,236.7946446989663 66.48988991696388,238.08445877279155 67.6020222492516,239.1163095573429 72.71783097460866,241.6959346642252 74.4972427058965,244.53351922682486 76.05422796867788,245.82332933461294 77.3887867666781,246.08129127626307 83.61672782339156,244.53351922682486 85.3961395546794,242.98574622510932 86.0634189536795,241.6959346642252 86.28584542032331,239.1163095573429 86.0634189536795,233.95705140870996 85.6185660213232,231.89334518648684 84.72886015474796,230.60352793894708 80.94761022832245,227.50796384573914 79.83547789603472,227.25 78.94577203132212,227.76592766516842 74.94209563732147,231.63538178964518 72.49540450889617,233.1831617737189 70.71599277760834,233.44112501107156 68.0468751816079,233.1831617737189 66.93474285118282,233.69908822327852 65.82261051796377,234.73094080435112 65.37775758560747,236.02075593639165 65.37775758560747,237.0526075665839 66.26746345125139,238.34242150909267 70.93841924425215,241.18000985356048 72.71783097460866,244.53351922682486 72.94025744032115,246.85517694451846 70.93841924425215,249.17683251900598 70.71599277760834,251.49848595121875 71.60569864232093,254.07809836417437 72.71783097460866,255.88382547954097 75.83180150389671,256.915668962989 81.17003669403493,256.3997472743504 85.84099248796701,257.17362976819277 87.84283068496734,258.2054727235809 89.84466888103634,260.78507826058194 90.06709534768015,262.0748800362926 89.84466888103634,263.1067209823523 88.06525715067983,264.65448160655797 81.17003669403493,267.4920402788557 77.83363969996572,267.75 75.83180150389671,267.23408053140156 73.82996330689639,265.6863214939367 72.94025744032115,262.33284031273797 73.16268390696496,260.5271178255789 75.16452210396528,257.6895512987394 77.3887867666781,256.915668962989 82.05974256061018,257.43159054708667 85.84099248796701,253.8201372420881 88.95496301632375,253.04625371610746" stroke="#ffda00" stroke-linecap="round" stroke-linejoin="round" stroke-width="0.5"><title>2023-03-31 3.1km</title></polyline><polyline fill="none" points="120.50352112576365,255.93487563589588 119.93309859000146,257.9195372010581 116.22535211220384,260.89652726007625 113.37323943525553,261.5580802327022 110.52112676016986,261.22730376315303 110.23591549135745,260.5657507220749 113.08802816830575,256.2656526484061 117.93661971762776,252.29632626241073 119.93309859000146,251.6347713896539 126.77816901355982,250.6424388261512 129.9154929574579,248.6577727852855 131.34154929593205,245.6807714337483 131.62676056288183,242.3729889334645 131.05633802711964,238.40364545513876 129.63028168864548,235.09585549356416 128.4894366171211,233.44195924163796 124.21126760356128,230.46494385018013 119.0774647872895,229.47260477533564 117.93661971762776,230.13416419317946 115.08450704067945,233.77273855917156 112.51760563254356,235.75741375773214 107.95422535203397,237.41130882268772 102.82042253389955,240.7190964105539 104.81690140813589,243.36532404040918 110.80633802711964,246.3423275265377 115.94014084525406,250.6424388261512 117.65140845067799,250.97321638162248 126.20774647779763,249.9808836155571 131.34154929593205,248.32699499255978 132.4823943655938,246.01154949725606 131.9119718298316,241.71143202506937 129.3450704216957,238.07286661164835 119.36267605610192,234.4342970943544 113.08802816830575,236.0881928380113 109.6654929574579,235.75741375773214 107.66901408322155,235.09585549356416 104.2464788723737,236.4189718856942 104.2464788723737,238.07286661164835 105.10211267508566,239.7267604903318 111.94718309864402,246.01154949725606 115.36971830949187,251.6347713896539 117.93661971762776,253.28865831741132 120.21830985881388,253.28865831741132 128.20422535203397,250.6424388261512 131.62676056288183,247.66543930699117 133.05281690135598,245.01921520475298 131.9119718298316,238.73442426533438 128.20422535203397,237.742087733699 125.06690140813589,233.77273855917156 120.21830985881388,233.11117988848127 117.93661971762776,233.44195924163796 111.6619718298316,236.4189718856942 106.81338028050959,236.0881928380113 103.67605633661151,238.40364545513876 105.10211267508566,240.38831780478358 109.6654929574579,242.70376733574085 111.6619718298316,244.6884370399639 113.6584507022053,247.9962171667721 115.08450704067945,249.31932826829143 118.50704225338995,249.9808836155571 125.92253521084785,249.31932826829143 127.34859154932201,248.6577727852855 129.63028168864548,246.6731055234559 131.62676056288183,242.04221049603075 131.9119718298316,240.38831780478358 130.77112676016986,235.75741375773214 130.48591549135745,232.11884162854403 129.3450704216957,231.4572826186195 123.07042253389955,231.4572826186195 116.79577464796603,235.42663464322686 113.08802816830575,236.4189718856942 111.09154929593205,236.0881928380113 107.09859154932201,234.10351784387603 106.24295774661005,235.09585549356416 103.96126760356128,239.06520304153673 106.52816901355982,241.71143202506937 111.6619718298316,244.02688060724176 113.6584507022053,247.00388348498382 114.51408450677991,249.31932826829143 115.65492957644165,250.31166123785079 123.35563380271196,250.6424388261512 127.91901408322155,249.65010595903732 129.63028168864548,248.6577727852855 130.48591549135745,247.9962171667721 131.62676056288183,245.01921520475298 131.9119718298316,243.0345457047224 131.34154929593205,240.7190964105539 129.3450704216957,238.40364545513876 127.06338028050959,236.7497508993838 123.07042253389955,235.09585549356416 120.21830985881388,234.4342970943544 112.80281690135598,236.4189718856942 108.80985915288329,235.09585549356416 105.10211267508566,236.4189718856942 105.95774647779763,238.07286661164835 107.66901408322155,240.05753916408867 112.23239436559379,243.69610234024003 115.08450704067945,248.98855054401793 116.22535211220384,249.9808836155571 118.79225351847708,251.30399390286766 126.20774647779763,250.6424388261512 130.77112676016986,248.6577727852855 131.9119718298316,244.3576588400174 130.77112676016986,239.7267604903318 127.06338028050959,236.4189718856942 126.20774647779763,234.4342970943544 120.50352112576365,233.44195924163796 114.51408450677991,236.0881928380113 111.94718309864402,236.4189718856942 108.52464788593352,236.0881928380113 106.81338028050959,235.09585549356416 105.38732394203544,237.41130882268772 104.2464788723737,240.38831780478358 105.38732394203544,243.36532404040918 110.80633802711964,245.6807714337483 113.94366196915507,249.65010595903732 115.08450704067945,250.6424388261512 118.79225351847708,251.30399390286766 123.92605633661151,251.30399390286766 128.20422535203397,249.9808836155571 130.77112676016986,247.33466141251847 131.05633802711964,245.6807714337483 130.77112676016986,243.0345457047224 128.4894366171211,238.73442426533438 124.21126760356128,236.7497508993838 119.93309859000146,235.42663464322686 113.94366196915507,236.7497508993838 107.95422535203397,234.10351784387603 105.95774647779763,235.09585549356416 102.53521126694977,235.42663464322686 102.53521126694977,236.7497508993838 104.81690140813589,239.06520304153673 111.6619718298316,242.3729889334645 112.51760563254356,244.3576588400174 113.94366196915507,249.65010595903732 115.65492957644165,250.97321638162248 121.64436619542539,250.31166123785079 126.20774647779763,250.6424388261512 130.48591549135745,248.6577727852855 131.9119718298316,245.6807714337483 132.19718309864402,243.69610234024003 129.9154929574579,238.07286661164835 125.92253521084785,235.75741375773214 121.92957746423781,234.76507631107233 113.08802816830575,236.4189718856942 107.95422535203397,235.75741375773214 105.95774647779763,236.4189718856942 103.67605633661151,238.73442426533438 104.2464788723737,240.7190964105539 106.52816901355982,242.70376733574085 109.6654929574579,244.6884370399639 113.6584507022053,250.6424388261512 114.79929577372968,251.30399390286766 125.06690140813589,250.97321638162248 129.63028168864548,249.31932826829143 131.34154929593205,245.01921520475298 131.05633802711964,239.7267604903318 131.62676056288183,236.7497508993838 127.63380281627178,233.77273855917156 120.21830985881388,231.4572826186195 119.36267605610192,231.78806214104407 117.36619718186557,234.76507631107233 113.6584507022053,236.0881928380113 108.80985915288329,235.75741375773214 106.52816901355982,234.4342970943544 104.53169013932347,235.42663464322686 102.25,235.75741375773214 102.53521126694977,238.07286661164835 104.2464788723737,241.71143202506937 104.81690140813589,242.04221049603075 106.24295774661005,241.3806535222102 109.95070422440767,242.3729889334645 111.6619718298316,245.01921520475298 114.51408450677991,250.31166123785079 116.51056337915361,251.6347713896539 125.35211267508566,251.6347713896539 129.05985915474594,249.65010595903732 131.34154929593205,246.6731055234559 131.34154929593205,243.36532404040918 130.77112676016986,240.38831780478358 129.9154929574579,239.06520304153673 127.63380281627178,236.7497508993838 124.4964788723737,235.42663464322686 119.64788732305169,235.75741375773214 110.80633802711964,238.40364545513876 109.09507042169571,237.742087733699 107.09859154932201,235.75741375773214 103.96126760356128,237.742087733699 103.96126760356128,239.395981782116 104.53169013932347,240.7190964105539 108.23943661898375,242.70376733574085 111.6619718298316,246.3423275265377 112.23239436559379,250.97321638162248 111.09154929593205,252.62710364721715 109.09507042169571,254.6117672470864 108.52464788593352,255.93487563589588 109.95070422440767,259.57342090527527 110.23591549135745,260.89652726007625 112.51760563254356,264.86584306531586 114.79929577372968,265.52739522466436 118.79225351847708,265.196619162336 135.61971830949187,263.21196207311004 140.46830985881388,262.55040943901986 142.75,261.5580802327022 141.03873239271343,260.89652726007625 138.18661971762776,260.5657507220749" stroke="#ffdc00" stroke-linecap="round" stroke-linejoin="round" stroke-width="0.5"><title>2023-03-30 3.1km</title></polyline><polyline fill="none" points="147.53521126694977,256.59655635873787 147.60651408415288,256.59655635873787 147.74911971762776,256.5138620886719 148.3908450701274,256.59655635873787 149.1038732388988,257.0927218008437 150.10211267555133,256.5138620886719 150.95774647872895,256.5138620886719 151.88468309817836,256.67925062024733 153.09683098550886,256.59655635873787 155.164612676017,256.10039061127463 156.8045774642378,256.017696290568 157.44630281627178,255.6869189221179 157.58890845021233,255.1080582010327 157.58890845021233,253.61955729633337 156.8045774642378,251.6348851507064 156.16285211220384,248.49247759906575 155.44982394343242,247.16935496742371 153.4533450701274,244.6057986919186 153.16813380271196,243.9442344593699 153.2394366194494,243.28266968438402 154.80809859139845,241.6287553726579 156.66197183076292,240.14022959204158 161.22535211220384,237.6593471871456 164.64788732351735,236.17081408086233 171.77816901355982,235.01306421024492 175.62852112622932,234.02070585539332 178.83714788686484,232.69755948329112 179.69278169004247,232.69755948329112 180.33450704207644,233.276436288259 181.61795774661005,234.9303677274147 183.97095070406795,238.65170106489677 185.111795774661,241.04988456214778 186.0387323941104,242.53840866376413 186.39524647872895,243.53075653861742 187.4647887321189,245.59814402315533 187.60739436605945,246.50779283756856 187.4647887321189,247.665526208526 187.03697183076292,248.32708738883957 186.39524647872895,249.07134306791704 184.5413732388988,250.3117676738184 183.04401408461854,251.05602152168285 179.9779929574579,251.8829694361193 176.62676056288183,252.79261116246926 173.63204225338995,253.0406950918259 168.78345070406795,253.9503355124616 166.14524647872895,254.19841908558737 159.5140845067799,255.60422455862863 158.44454225338995,255.52153018699028 157.94542253483087,255.1080582010327 157.5176056334749,254.19841908558737 155.8776408447884,248.57517269160599 154.52288732351735,246.2597068991745 153.52464788686484,245.2673623818555 153.2394366194494,244.6884941830067 153.2394366194494,244.19232111028396 153.6672535208054,243.44806092884392 154.59419014072046,242.37301723263226 156.23415492940694,240.71910105558345 157.3036971827969,239.80944571248256 160.86883802805096,237.82473958469927 164.22007042216137,236.58429577498464 169.06866197148338,235.59193935326766 171.20774647872895,235.42654649785254 175.48591549275443,234.5168851854396 176.48415492940694,234.18609899951844 179.05105633754283,232.8629528983729 179.7640845067799,232.8629528983729 180.19190140860155,233.276436288259 181.4040492954664,234.7649747361429 182.54489436605945,236.8323846895364 183.97095070406795,238.81709325913107 184.89788732351735,240.80179694504477 185.9674295769073,242.53840866376413 187.75,246.09431623091223 187.6786971827969,248.16169714462012 187.32218309864402,248.8232579177129 186.53785211220384,249.4021231494262 184.39876760542393,250.47715747688198 183.47183098597452,251.22141117224237 182.75880281673744,251.4694955846644 178.19542253483087,252.37913777760696 176.91197183076292,252.79261116246926 171.42165492940694,253.53686272131745 170.13820422487333,253.9503355124616 167.28609154885635,254.44650258251932 164.50528169004247,254.61189153802115 159.08626760542393,255.76961327681784 158.01672535203397,256.4311678100494 156.8045774642378,257.5061927693896 154.30897887283936,258.49852222949266 153.3820422529243,258.41582815436414 153.16813380271196,258.58121629594825 153.09683098550886,258.8292984450236 153.59595070406795,259.90432020806475 153.4533450701274,260.31778973533073 152.81161971809343,260.8966467176215 152.0272887321189,261.31011573650176 150.60123239364475,262.3024405167089 149.888204225339,262.3024405167089 149.03257042216137,261.97166572563583 148.46214788686484,260.97934053844074 147.96302816830575,259.90432020806475 147.25,259.07738051738124 147.67781690135598,258.9119924775441 149.17517605610192,258.7466044037137 149.3890845067799,258.8292984450236 149.5316901402548,259.07738051738124 149.95950704207644,259.32546251348685" stroke="#4dd2ff" stroke-linecap="round" stroke-linejoin="round" stroke-width="0.5"><title>2023-03-28 2.9km</title></polyline></svg>