<?xml version="1.0" encoding="utf-8" ?>
<svg baseProfile="full" height="300mm" version="1.1" viewBox="0,0,200,300" width="200mm" xmlns="http://www.w3.org/2000/svg" xmlns:ev="http://www.w3.org/2001/xml-events" xmlns:xlink="http://www.w3.org/1999/xlink"><defs /><rect fill="#222222" height="300" width="200" x="0" y="0" /><text fill="#FFFFFF" style="font-size:12px; font-family:Arial; font-weight:bold;" x="10" y="20">Over 2km Workouts</text><text fill="#FFFFFF" style="font-size:4px; font-family:Arial" x="10" y="280">ATHLETE</text><text fill="#FFFFFF" style="font-size:9px; font-family:Arial" x="10" y="290">Koobai</text><text fill="#FFFFFF" style="font-size:4px; font-family:Arial" x="120" y="280">STATISTICS</text><text fill="#FFFFFF" style="font-size:3px; font-family:Arial" x="120" y="285">Number: 11</text><text fill="#FFFFFF" style="font-size:3px; font-family:Arial" x="120" y="290">Weekly: 3.7</text><text fill="#FFFFFF" style="font-size:3px; font-family:Arial" x="141" y="285">Total: 30.7 km</text><text fill="#FFFFFF" style="font-size:3px; font-family:Arial" x="141" y="290">Avg: 2.8 km</text><text fill="#FFFFFF" style="font-size:3px; font-family:Arial" x="167" y="285">Min: 2.2 km</text><text fill="#FFFFFF" style="font-size:3px; font-family:Arial" x="167" y="290">Max: 4.1 km</text><polyline fill="none" points="18.98744769813493,75.06745603028685 18.648535564541817,74.67439790046774 18.648535564541817,73.36420326167718 17.17991631757468,69.4336112854071 16.38912133825943,66.2891290000407 14.468619246501476,63.79974170331843 13.677824267186224,62.6205565542914 13.225941422395408,61.31034955754876 13.112970711197704,60.262182992417365 13.451882845256478,59.21401556802448 15.937238493002951,54.75929442164488 18.648535564541817,52.007841250277124 19.891213388647884,50.959667055518366 22.263598326127976,49.51842613343615 24.861924686003476,48.3392278063111 33.22175732208416,45.587760811438784 36.27196652721614,45.325716026709415 47.117154811508954,43.36037842894439 48.698744769673795,42.836287892307155 51.071129706688225,41.52606061066035 52.53974895412102,41.00196932128165 53.55648535583168,41.00196932128165 54.79916317993775,41.264014992979355 55.58995815878734,42.18117441935465 57.05857740575448,44.53958135016728 60.673640167340636,50.959667055518366 62.02928870311007,54.235208560246974 64.85355648491532,58.68993153318297 66.0962343099527,59.86912030901294 66.88702928833663,61.70341179741081 67.0,62.6205565542914 66.77405857713893,64.19280317786615 66.43514644354582,65.37198687565979 65.98326359828934,66.02708846016321 64.17573221772909,67.46831076371018 59.99581589922309,69.56463121261913 57.510460251010954,70.08871078782249 54.686192468274385,71.13686929293908 48.13389121275395,72.7091054385528 43.7280334723182,73.10216417256743 38.98326359828934,73.23318372364156 33.673640167340636,74.28133964992594 28.476987447123975,75.06745603028685 23.280334727372974,76.63968734035734 21.472803346812725,76.77070652914699 20.794979078695178,76.377648922964 20.34309623390436,75.32949471636675 18.98744769813493,71.00584952661302 17.17991631757468,66.42014924960677 14.920502091757953,63.144638977129944 13.338912133593112,61.17932878364809 13.0,60.262182992417365 13.0,58.68993153318297 14.242677824106067,55.545422811293975 15.711297070607543,53.84214402292855 18.874476986937225,51.6147760276217 23.16736401617527,49.125360145117156 24.635983263142407,48.20820570259821 26.669456066563725,47.42207279975992 35.70711297029629,45.1946936143795 40.0,45.06367118854541 44.63179916283116,44.01549129735213 46.55230125458911,43.49140102940146 50.61924686189741,41.65708339901175 53.55648535583168,41.00196932128165 54.686192468274385,41.00196932128165 55.36401673639193,41.65708339901175 58.18828451819718,47.29105060198344 60.22175732208416,50.56660151050892 62.36820083670318,55.02133727201726 64.85355648491532,57.90380507835653 66.66108786594123,61.17932878364809 66.88702928833663,62.358515262720175 66.43514644354582,65.24096651864238 65.87029288662598,66.15810873673763 64.62761506251991,67.20627046586014 60.22175732208416,69.56463121261913 57.62343096220866,70.48177032766398 53.895397489424795,71.13686929293908 49.37656903779134,72.3160465832334 46.3263598321937,72.84012503025588 43.502092049922794,73.23318372364156 40.677824267651886,73.23318372364156 26.21757322177291,75.59153334842995 21.698744769208133,76.77070652914699 20.794979078695178,77.29478314844891 19.891213388647884,78.34293574327603 19.213389120530337,78.60497375775594 17.292887029238045,78.4739547574427 13.338912133593112,78.99803067871835" stroke="#4dd2ff" stroke-linecap="round" stroke-linejoin="round" stroke-width="0.5"><title>2023-04-11 2.4km</title></polyline><polyline fill="none" points="93.28444649279118,64.15391642181203 91.4936322234571,66.23083736840636 88.80741082318127,72.98082456644624 92.38903935998678,82.32694583386183 91.0459286570549,83.88463103584945 88.80741082318127,83.36540268734097 87.91200368665159,82.32694583386183 87.0165965538472,75.05774189438671 91.0459286570549,69.34621719364077 87.46430012024939,63.63468605140224 80.74874661304057,61.038533403072506 79.40563591197133,59.4808411761187 78.51022877544165,53.76929890783504 81.6441537477076,48.576982165686786 92.83674292638898,40.78849707171321 105.82014637254179,39.2307986151427 110.29718204401433,39.75003148755059 117.90814268775284,45.461589564569294 119.69895695708692,52.73083598585799 118.80354982428253,56.884686396922916 116.56503198482096,61.038533403072506 108.0586642101407,67.26929752295837 103.58162853866816,67.26929752295837 92.38903935998678,67.26929752295837 78.06252520903945,59.4808411761187 77.16711807437241,56.36545528238639 78.06252520903945,46.50005397805944 95.07526076026261,36.634633457288146 100.44770356826484,34.55770037230104 105.37244280613959,33.51923351176083 109.40177491120994,34.55770037230104 114.77421771921217,39.75003148755059 118.80354982428253,47.5385181796737 117.90814268775284,55.32699289172888 113.4311070162803,60.519302713219076 108.0586642101407,63.63468605140224 96.86607503145933,64.6731467382051 90.15052152238786,66.75006747292355 81.19645017944276,62.07699462072924 79.85333947651088,59.4808411761187 80.30104304477572,56.36545528238639 85.22578228451312,50.13467774679884 92.38903935998678,45.98082179808989 100.00000000186265,37.673099680338055 104.029332106933,37.15386659651995 107.61096064373851,38.71156569104642 113.4311070162803,43.90389254782349 116.11732842028141,48.576982165686786 117.0127355530858,54.80776161700487 115.22192128561437,59.4808411761187 112.08799631521106,62.59622515132651 107.16325707547367,65.19237700104713 96.41837146319449,64.6731467382051 89.70281795412302,65.71160721080378 84.33037514984608,62.07699462072924 78.51022877544165,60.00007197121158 76.27171093970537,57.923148467671126 75.82400737330317,54.2885302901268 77.16711807437241,44.94235727889463 78.95793234370649,42.34619504911825 84.77807871811092,37.15386659651995 88.80741082318127,35.076933722477406 100.00000000186265,33.0 107.16325707547367,34.03846696857363 110.29718204401433,36.1154002668336 115.66962485201657,41.826962443999946 118.35584625601768,47.019286105409265 118.35584625601768,49.09621407883242 117.90814268775284,52.21160444337875 115.66962485201657,55.84622411290184 112.98340344801545,58.961610324680805 106.71555350720882,62.07699462072924 91.94133579172194,65.71160721080378 89.70281795412302,65.19237700104713 86.12118941731751,62.07699462072924 80.74874661304057,59.4808411761187 79.40563591197133,56.884686396922916 79.85333947651088,50.13467774679884 82.539560880512,45.98082179808989 97.31377859786153,35.59616702096537 102.23851783759892,34.55770037230104 104.92473923973739,35.59616702096537 109.84947847761214,39.2307986151427 114.32651414908469,43.90389254782349 115.66962485201657,47.019286105409265 115.66962485201657,50.65390950161964 114.32651414908469,56.884686396922916 110.29718204401433,63.11545562837273 105.82014637254179,65.19237700104713 91.4936322234571,66.23083736840636 80.30104304477572,58.961610324680805 78.51022877544165,56.36545528238639 78.06252520903945,53.76929890783504 78.95793234370649,46.50005397805944 80.74874661304057,43.38466010103002 100.44770356826484,33.51923351176083 103.58162853866816,33.51923351176083 110.74488561227918,38.19233271153644 118.80354982428253,46.50005397805944 119.69895695708692,49.615445940289646 119.25125339068472,53.25006747292355 118.35584625601768,55.84622411290184 116.56503198482096,58.961610324680805 109.40177491120994,63.63468605140224 94.17985362745821,67.78852752130479 89.25511438958347,67.26929752295837 84.33037514984608,64.6731467382051 82.0918573141098,62.07699462072924 81.6441537477076,56.884686396922916 83.88267158158123,50.65390950161964 90.15052152238786,47.5385181796737 100.44770356826484,40.78849707171321 104.029332106933,39.2307986151427 106.26784994080663,39.75003148755059 110.29718204401433,42.34619504911825 114.77421771921217,45.98082179808989 116.11732842028141,48.05775019759312 117.0127355530858,55.32699289172888 116.11732842028141,58.961610324680805 114.32651414908469,61.038533403072506 111.64029274694622,62.59622515132651 102.23851783759892,63.63468605140224 90.5982250906527,66.23083736840636 81.19645017944276,60.00007197121158 78.51022877544165,55.32699289172888 78.06252520903945,52.21160444337875 78.95793234370649,47.019286105409265 79.85333947651088,44.94235727889463 83.43496801704168,41.826962443999946 92.83674292638898,39.75003148755059 102.68622140400112,34.03846696857363 107.16325707547367,35.076933722477406 115.66962485201657,43.38466010103002 117.46043912135065,45.461589564569294 118.80354982428253,50.65390950161964 117.46043912135065,56.36545528238639 115.22192128561437,60.00007197121158 112.98340344801545,62.07699462072924 94.62755719572306,66.75006747292355 86.56889298558235,71.94236558210105 86.56889298558235,76.09620023751631 89.25511438958347,84.4038593294099 91.0459286570549,86.48077197140083 94.17985362745821,87.0 108.95407134480774,84.9230875694193 112.98340344801545,85.96154389111325 118.35584625601768,83.36540268734097 124.17599262855947,79.21157399378717" stroke="#4dd2ff" stroke-linecap="round" stroke-linejoin="round" stroke-width="0.5"><title>2023-04-10 2.2km</title></polyline><polyline fill="none" points="140.44733138312586,87.0 140.355821233592,86.18776667083148 140.233807700919,85.83462115176371 139.89827048580628,85.09301439140108 139.80676033627242,84.35140604525805 139.80676033627242,83.29196280011092 139.98978063534014,82.12657149258303 140.20330431777984,81.38495680349297 140.90488213079516,79.30136419049813 141.2099159625359,78.55974346023868 141.54545317753218,77.21775905988761 142.1250174579909,75.55792906560237 142.8265952708898,74.07467000911129 143.74169676622842,71.63787350122584 144.10773736448027,70.9668685576471 144.44327457936015,69.66017099437886 145.02283885981888,68.07093759262352 145.17535577574745,66.87017863665824 145.48038960737176,65.88131519799936 146.09045727096964,64.53928173534223 147.0360621494474,61.04290700666024 147.40210274769925,59.91275814111577 148.1341839438537,58.11157577345148 148.50022454198916,56.80482976831263 148.89676852338016,55.78061999756028 149.2018023552373,55.180219759844476 149.35431927104946,54.89767811176716 149.7813666354632,54.40322967371321 149.9033801681362,54.12068739256938 150.3914342991775,52.460746841155924 151.30653579439968,50.235707679530606 151.85559669160284,49.10552358959103 152.25214067287743,47.69278829661198 152.67918803740758,46.668551609880524 153.07573201868217,45.43239985499531 153.44177261693403,44.58475039014593 153.80781321506947,43.87837425307953 154.02133689727634,43.70177999394946 154.38737749529537,43.7370988529583 157.40721243002918,44.62006915922393 157.86476317758206,44.8319816981093 158.5053342244355,44.51411284127971 159.51194586930797,42.88944524351973 160.45755074778572,41.51200370807783 160.94560487847775,40.840940464666346 161.46416239254177,40.275833568157395 162.6842977196211,39.25157497031614 164.75852777576074,37.87411898173741 166.0396698693512,37.23836821803707 166.6192341496935,37.06177057669265 167.0767848973628,37.06177057669265 167.4123221123591,36.602616288437275 167.4123221123591,36.42601832340006 168.20541007479187,35.896223888441455 168.35792699083686,35.43706805651891 168.57145067304373,33.49447896212223 168.66296082246117,33.282559493294684 168.99849803745747,33.0 170.58467396278866,33.45915905959555 171.0727280935971,33.529798860952724 174.5501137758838,33.635758535936475 175.6787389535457,33.81235792231746 175.77024910307955,33.882997651729966 175.89226263563614,34.024277067306684 176.04477955156472,34.73067328159232 176.01427616842557,35.119190585945034 175.89226263563614,35.57834683873807 175.9227660188917,35.86090423070709 176.1972964674933,35.896223888441455 176.59384044876788,33.67107842038968 176.7768607478356,33.45915905959555 177.17340472899377,33.423839153459994 177.35642502829432,33.49447896212223 177.47843856096733,33.74171817864408 177.5699487105012,35.119190585945034 177.66145886003505,35.43706805651891 177.78347239282448,35.648986208369024 178.21051975723822,35.86090423070709 179.21713140211068,36.178781021153554 179.76619229931384,36.178781021153554 180.193239663844,36.072822123387596" stroke="#4dd2ff" stroke-linecap="round" stroke-linejoin="round" stroke-width="0.5"><title>2023-04-09 2.8km</title></polyline><polyline fill="none" points="54.12307692365721,93.60848577925935 53.39615384628996,97.09536456235219 53.18846153886989,97.45607557264157 52.876923077274114,97.57631255185697 53.292307693045586,97.09536456235219 54.226923076901585,98.77868166763801 54.01923076948151,100.94294299033936 53.811538462061435,101.66436254943255 53.292307693045586,102.26554517878685 53.292307693045586,104.55003637750633 53.6038461541757,105.99287064583041 52.56538461567834,109.23924130236264 52.15000000037253,110.08089149661828 51.319230769295245,110.92254109086934 51.319230769295245,111.16301229340024 51.73461538506672,111.28324787609745 51.319230769295245,111.28324787609745 51.00769230769947,111.88442560681142 49.96923076920211,114.64983922394458 48.51538461539894,116.5736013976857 47.580769231077284,118.61759527213871 47.37307692319155,119.21876926789992 47.476923077367246,120.06041234720033 47.89230769267306,120.66158560814802 47.996153846383095,121.02228941745125 46.43846153886989,125.59119479788933 44.46538461558521,130.2803161443444 44.46538461558521,130.64101701485924 44.67307692300528,130.64101701485924 45.607692307792604,129.79938147880603 45.50384615454823,131.96358593076002 44.77692307718098,132.92545330210123 44.25769230816513,134.9694188652793 42.59615384647623,134.36825289053377 41.14230769313872,134.127786415047 40.830769231077284,134.2480196589604 40.830769231077284,134.72895251202863 41.03846153896302,134.00755315891 40.726923077367246,133.64685331680812 38.338461538776755,132.2040528471116 36.365384615492076,131.3624184250366 34.80769230797887,131.24218488740735 34.496153846383095,131.96358593076002 34.18461538478732,130.2803161443444 35.22307692328468,127.87564085761551 35.22307692328468,127.39470521232579 33.976923077367246,127.99587473808788 33.66538461530581,127.99587473808788 33.87307692319155,127.7554069646867 33.87307692319155,128.11610860633664 33.14615384628996,129.79938147880603 33.3538461541757,130.039848835906 33.76923076948151,129.6791477816878 33.976923077367246,130.76125061395578 33.66538461530581,130.52078340330627 31.90000000037253,130.64101701485924 31.069230769295245,130.2803161443444 29.92692307708785,129.6791477816878 29.823076923377812,129.6791477816878 29.823076923377812,129.91961516358424 30.238461538683623,130.039848835906 30.653846153989434,129.91961516358424 30.965384615585208,129.6791477816878 30.965384615585208,129.0779791129753 30.757692308165133,128.3565763067454 29.615384615957737,127.51493914215825 28.680769231170416,127.27447127026971 26.50000000046566,127.51493914215825 22.346153846476227,125.71142891119234 20.78846153849736,125.23049238463864 18.503846154082566,126.31259929446969 17.25769230769947,127.39470521232579 16.323076923377812,127.7554069646867 17.36153846187517,127.87564085761551 18.81538461567834,127.27447127026971 16.84230769239366,127.7554069646867 16.634615384507924,127.7554069646867 16.530769231263548,128.11610860633664 17.153846153989434,128.8375115598319 17.36153846187517,129.31844661722425 17.050000000279397,131.0017177752452 17.673076923005283,131.24218488740735 19.23076923098415,131.48265195079148 18.088461538311094,131.84335245424882 16.323076923377812,132.80521992372815 15.596153846476227,133.40638669452164 14.765384615398943,134.8491856949404 14.453846154268831,135.57058453396894 14.557692307513207,135.93128378817346 14.557692307513207,135.69081763084978 13.0,138.33594266639557 13.311538461595774,138.69664107554127 14.246153846383095,139.29780484596267 16.84230769239366,140.01920096669346 20.78846153849736,142.30361910699867 22.865384615492076,143.02501339104492 24.11153846187517,143.14524572866503 24.319230769295245,143.02501339104492 23.903846153989434,142.78454867866822 23.903846153989434,142.66431630437728 25.461538461968303,141.7024568672059 27.226923077832907,139.65850296174176 28.57692307746038,136.7729149524821 30.134615384973586,136.17174989625346 30.653846153989434,135.8110507153906 38.338461538776755,139.0573393747909 42.80384615436196,140.13943361060228 43.0115384622477,140.5001314689871 45.7115384619683,142.06315424805507 52.876923077274114,145.0689614682924 54.43461538432166,144.22733621823136 55.57692307746038,144.22733621823136 58.38076923135668,145.67012199398596 59.626923077274114,145.91058611869812 60.561538462061435,145.54988991329446 61.91153846215457,144.1071039903909 62.53461538488045,144.1071039903909 64.50769230816513,144.82849717221688 67.0,146.39151422085706" stroke="#4dd2ff" stroke-linecap="round" stroke-linejoin="round" stroke-width="0.5"><title>2023-04-09 2.5km</title></polyline><polyline fill="none" points="82.27295554231387,104.47107529619825 81.82020195107907,104.55185633222573 80.84504036977887,105.56161788641475 77.64093803172,107.54074302548543 77.60611083242111,108.67166721305693 77.43197483569384,109.35829817168997 77.67576523101889,110.0853178827092 78.02403722435702,110.7315564994642 78.82506280892994,111.90286129101878 79.76539719069842,113.4376691954676 81.95951074827462,117.27466280170484 82.96949952887371,119.37489611038473 83.70087071473245,120.58656408116804 83.87500671145972,121.35395186880487 85.2332674851641,122.76755703927483 86.48704666085541,124.90814950101776 87.392553843325,126.88717746984912 87.8801346339751,127.61416483987705 89.16874100919813,129.43162739725085 90.66631058021449,131.7337346035929 91.32802736747544,133.10691495484207 92.68628814129625,135.3686133379524 92.75594254001044,135.65132472314872 92.68628814129625,135.9744232009689 93.94006731710397,137.2668144624913 98.53725762828253,145.2633911529847 98.78104802360758,145.78841323935194 98.88552962162066,146.39420708519174 99.37311041227076,147.0 99.54724640888162,147.0 102.47273115231656,144.4152770745277 103.27375673688948,143.60754768396146 106.12958708172664,141.3458965831378 107.94060144666582,140.13429244043073 111.49297577829566,137.1860401328886 112.43331016006414,136.58023213248816 114.4532877211459,134.8435773702513 116.36878368409816,133.38962796260603 119.67736762017012,130.36054946732474 121.07045559328981,128.78541944839526 121.45355478581041,128.421927011339 122.01078997529112,127.73532927123597 122.25458037038334,126.88717746984912 122.49837076570839,125.31203356722835 122.56802516442258,124.5042650209507 122.49837076570839,124.18115713875159 120.82666519796476,121.03084140349529 118.98082363361027,118.12283529323759 116.6125740793068,113.7203963152715 116.02051169076003,112.751045345678 114.3488061230164,109.76219817672973 113.26916294405237,107.98503505781991 112.32882856205106,106.08669287181692 111.2491853828542,104.43068477199995 110.55264139629435,103.05740448299912 109.4729982172139,101.19942941435147 106.44303187553305,95.7062344859005 105.32856149727013,93.92900796374306 104.94546230463311,93.52509172700229 104.07478232134599,93.16156675975071 103.06479354086332,93.0 102.54238555091433,93.04039169609314 101.74135996645782,93.3231334532029 98.15415843576193,95.50427733035758 94.42764810752124,97.64501791229122 93.59179532376584,98.25088577638962 91.74595375941135,99.38183662979282 87.49703544133808,101.80529181248858 84.57155069801956,103.29974841122748 83.59638911660295,103.9459981576656 83.10880832618568,104.147950986051 82.72570913354866,104.22873208846431" stroke="#ffbb00" stroke-linecap="round" stroke-linejoin="round" stroke-width="0.5"><title>2023-04-09 4.1km</title></polyline><polyline fill="none" points="145.74061799421906,114.60010629496537 146.0316257905215,118.98761056805961 146.0316257905215,126.75010380311869 148.65069595351815,123.0376093222294 152.4337973035872,120.00011072354391 155.0528674684465,118.98761056805961 162.03705457039177,117.6376098759938 166.1111637149006,114.93760683084838 167.5662026964128,110.8875981126912 167.5662026964128,107.17508574179374 166.69317930936813,104.13757250783965 164.9471325315535,101.77506027533673 162.9100779592991,100.08755050064065 160.29100779630244,99.07504422077909 158.54496102035046,99.07504422077909 156.50790644809604,99.41254634852521 149.8147271387279,102.45006394316442 143.41255562752485,102.45006394316442 142.2485244423151,103.80007086391561 141.3755010534078,106.50008304370567 141.66650885157287,108.86259188433178 144.28557901456952,112.2376015719492 154.17984407953918,118.65011044638231 166.98418710380793,114.2626057243906 169.60325726866722,114.2626057243906 168.7302338797599,112.2376015719492 167.5662026964128,110.8875981126912 165.23814032785594,109.53759409766644 162.6190701648593,108.86259188433178 159.41798440739512,108.52509072469547 151.85178171284497,108.86259188433178 146.32263358682394,107.85008830251172 140.79348546266556,108.18758953060023 144.8675946071744,109.53759409766644 149.52371934242547,114.2626057243906 152.14278950728476,114.93760683084838 162.32806236855686,114.93760683084838 166.69317930936813,113.5876044780016 168.14821828901768,112.57510234997608 168.43922608345747,110.8875981126912 167.85721049271524,106.1625816419255 168.14821828901768,106.50008304370567 167.85721049271524,105.82508020545356 162.6190701648593,102.78756572585553 159.41798440739512,102.11256212671287 158.25395322404802,102.11256212671287 153.01581289432943,104.47507411637343 151.85178171284497,104.13757250783965 148.06868036463857,98.73754205740988 148.06868036463857,97.38753306213766 148.65069595351815,97.05003072577529 152.14278950728476,95.36251852917485 159.1269766110927,93.0 162.6190701648593,93.0 164.07410914450884,94.3500107950531 164.9471325315535,95.70002103713341 164.9471325315535,99.75004844227806 161.45503897964954,108.18758953060023 158.25395322404802,113.25010380335152 155.63488305918872,113.92510511772707 151.26976611837745,109.53759409766644 146.32263358682394,106.83758440916426 144.8675946071744,106.83758440916426 143.12154783122241,107.51258703903295 141.3755010534078,109.53759409766644 140.79348546266556,110.550097160507 141.66650885157287,110.8875981126912 146.32263358682394,110.550097160507 147.77767256647348,112.2376015719492 148.35968815907836,117.6376098759938 146.90464917942882,122.36260987515561 146.90464917942882,128.43759991019033 148.06868036463857,130.80009300704114 150.39674273133278,132.15008830139413 152.4337973035872,132.8250857410021 163.49209355190396,131.47509072325192 169.02124167606235,132.8250857410021 171.64031184092164,134.85007722955197 173.38635861687362,137.88756212592125 172.80434302426875,140.92504421900958 171.64031184092164,142.27503536222503 160.0,145.65001079509966 155.63488305918872,144.63751852861606 153.5978284869343,143.28752835420892 151.85178171284497,140.58754634740762 149.52371934242547,138.225060274126 148.35968815907836,134.85007722955197 148.35968815907836,131.47509072325192 150.68775052763522,125.06260683014989 150.39674273133278,122.36260987515561 148.94170375168324,120.00011072354391 143.7035634238273,114.2626057243906 142.2485244423151,111.22509902855381 142.2485244423151,108.18758953060023 143.41255562752485,105.48757873498835 145.74061799421906,102.78756572585553 152.72480509988964,100.76255451468751 160.0,97.05003072577529 162.9100779592991,97.05003072577529 166.1111637149006,98.06253762869164 168.14821828901768,100.08755050064065 169.02124167606235,102.11256212671287 168.7302338797599,108.18758953060023 167.27519490011036,111.9001007580664 165.23814032785594,113.92510511772707 163.20108575560153,114.93760683084838 153.3068206924945,117.97511010058224 151.26976611837745,118.31261029024608 149.23271154798567,116.9626093225088 145.74061799421906,112.91260309470817 142.53953223861754,110.8875981126912 141.3755010534078,108.86259188433178 141.9575166478753,105.82508020545356 143.99457121826708,103.46256918483414 154.17984407953918,97.72503536264412 156.50790644809604,97.05003072577529 160.58201559074223,97.38753306213766 165.23814032785594,98.73754205740988 167.85721049271524,100.76255451468751 169.02124167606235,103.12506747292355 169.31224947422743,106.50008304370567 169.02124167606235,108.86259188433178 167.85721049271524,112.2376015719492 166.40217151120305,114.60010629496537 161.1640311833471,117.6376098759938 148.65069595351815,122.70010961592197 146.90464917942882,124.05010823230259 146.32263358682394,127.08760309335776 147.77767256647348,138.225060274126 148.94170375168324,141.93753762799315 150.68775052763522,143.9625235113781 153.5978284869343,145.31251340731978 161.45503897964954,147.0 163.49209355190396,147.0 165.23814032785594,146.32500546681695 170.1852728612721,142.27503536222503 171.05829624831676,136.87506747152656 171.64031184092164,135.86257250607014 174.25938200578094,133.83758164057508 178.33349115028977,131.81258952943608 179.20651453733444,130.80009300704114 178.62449894472957,129.7875961731188 177.7514755576849,129.45009715901688 170.76728845201433,129.11259811092168" stroke="#4dd2ff" stroke-linecap="round" stroke-linejoin="round" stroke-width="0.5"><title>2023-04-06 2.2km</title></polyline><polyline fill="none" points="18.200899604707956,158.89093868480995 23.280301639810205,160.85458330251276 27.08985316567123,164.29095944575965 27.08985316567123,165.2727807480842 25.396719152107835,167.23642274783924 20.740600621327758,167.23642274783924 21.16388412564993,167.72733312286437 27.08985316567123,163.30913794366643 31.32268819026649,163.80004872009158 36.40209022536874,162.32731623668224 41.481492260470986,157.41820469358936 45.291043784469366,156.43638178054243 49.94716231524944,157.90911607351154 56.29641485773027,163.80004872009158 58.4128323700279,168.2182434462011 60.10596638172865,174.10916340863332 56.719698360189795,182.94552976312116 55.0265643466264,183.9273472391069 43.17462627030909,183.9273472391069 38.518507739529014,184.90916451625526 35.132239716127515,183.43643852649257 28.359703671187162,175.58189226686954 20.317317117005587,172.14552422706038 18.200899604707956,168.2182434462011 20.317317117005587,164.7818701211363 24.12686864286661,163.30913794366643 31.74597169458866,163.30913794366643 41.90477576293051,157.41820469358936 45.291043784469366,156.43638178054243 49.52387881278992,157.41820469358936 51.64029632508755,158.89093868480995 57.989548867568374,165.76369132334366 59.2593993768096,168.70915372110903 60.10596638172865,173.61825368879363 59.68268288113177,178.52734862454236 58.4128323700279,180.98189420439303 54.60328084602952,182.94552976312116 47.83074480108917,182.94552976312116 36.40209022536874,184.4182559028268 20.740600621327758,171.16370433336124 20.317317117005587,170.18188424082473 21.16388412564993,167.72733312286437 30.052837682887912,161.34549433225766 44.867760280147195,156.9272932629101 50.793729320168495,158.4000274054706 57.56626536510885,165.2727807480842 58.4128323700279,166.745512324851 59.68268288113177,174.60007307771593 59.2593993768096,179.01825784053653 56.719698360189795,182.45462094945833 52.06357982940972,183.9273472391069 41.90477576293051,182.45462094945833 35.555523220449686,183.43643852649257 33.01582220196724,181.96371208457276 30.89940468966961,178.03643935825676 27.51313666626811,175.09098269836977 22.857018135488033,172.63643409824 21.16388412564993,171.16370433336124 19.47075011394918,166.25460184924304 21.16388412564993,162.32731623668224 24.550152147188783,160.85458330251276 27.51313666626811,160.85458330251276 31.32268819026649,162.81822711555287 36.825373727828264,161.8364053098485 42.32805926352739,161.34549433225766 47.40746129862964,158.4000274054706 50.793729320168495,157.41820469358936 53.3334303367883,158.4000274054706 59.2593993768096,163.80004872009158 60.52924988605082,167.72733312286437 60.952533388510346,171.16370433336124 60.10596638172865,175.09098269836977 58.836115872487426,178.03643935825676 55.44984785094857,180.00007612304762 36.40209022536874,184.4182559028268 22.857018135488033,175.58189226686954 19.894033616408706,170.6727943108417 19.894033616408706,169.20006394386292 21.58716762624681,163.80004872009158 24.12686864286661,162.32731623668224 29.62955417856574,163.80004872009158 34.28567271307111,162.81822711555287 41.90477576293051,158.89093868480995 45.71432728692889,157.90911607351154 48.254028303548694,157.90911607351154 51.21701282262802,159.3818499147892 56.29641485773027,163.80004872009158 57.56626536510885,166.745512324851 58.836115872487426,172.63643409824 58.4128323700279,178.52734862454236 56.719698360189795,180.98189420439303 54.17999734170735,182.45462094945833 38.09522423893213,184.4182559028268 32.59253869950771,181.96371208457276 22.857018135488033,175.09098269836977 20.740600621327758,173.1273439200595 19.894033616408706,171.16370433336124 19.894033616408706,168.2182434462011 21.58716762624681,161.34549433225766 23.70358514226973,160.36367222387344 28.359703671187162,160.85458330251276 30.89940468966961,159.87276109447703 40.21164175122976,153.98182361805812 44.44447677768767,153.0 48.67731180600822,153.98182361805812 55.0265643466264,158.89093868480995 57.14298186264932,162.81822711555287 57.989548867568374,169.20006394386292 56.29641485773027,176.07280178647488 52.91014683432877,178.52734862454236 45.71432728692889,179.50916700763628 38.518507739529014,179.50916700763628 35.132239716127515,178.03643935825676 31.74597169458866,177.05462067155167 25.82000265456736,174.60007307771593 23.280301639810205,172.63643409824 22.433734633028507,169.6909741172567 23.280301639810205,165.76369132334366 24.97343564964831,163.30913794366643 30.476121187210083,165.2727807480842 37.24865723028779,164.7818701211363 43.17462627030909,156.43638178054243 45.291043784469366,155.45455866586417 48.67731180600822,156.43638178054243 55.44984785094857,161.34549433225766 58.4128323700279,165.2727807480842 60.10596638172865,169.6909741172567 60.10596638172865,174.60007307771593 59.2593993768096,177.54553003888577 57.56626536510885,179.50916700763628 54.17999734170735,180.98189420439303 38.09522423893213,182.94552976312116 35.555523220449686,182.45462094945833 32.59253869950771,180.00007612304762 30.89940468966961,180.49098518816754 23.70358514226973,178.03643935825676 20.317317117005587,174.10916340863332 18.624183107167482,169.20006394386292 18.624183107167482,165.76369132334366 20.740600621327758,163.80004872009158 22.857018135488033,163.30913794366643 27.936420168727636,163.80004872009158 34.28567271307111,161.8364053098485 39.78835824690759,160.85458330251276 45.71432728692889,157.41820469358936 49.94716231524944,158.89093868480995 55.87313135527074,165.76369132334366 57.56626536510885,171.16370433336124 57.989548867568374,177.54553003888577 57.56626536510885,180.00007612304762 55.87313135527074,182.45462094945833 53.3334303367883,183.43643852649257 47.40746129862964,182.94552976312116 42.32805926352739,183.43643852649257 31.32268819026649,190.30915593449026 30.476121187210083,192.76369547611102 31.32268819026649,203.56365450751036 32.59253869950771,205.03637430723757 34.70895621366799,206.509093652945 41.90477576293051,206.01818725466728 46.98417779430747,207.0 49.94716231524944,206.509093652945 57.989548867568374,202.0909342560917 61.7991003934294,201.1091205039993" stroke="#4dd2ff" stroke-linecap="round" stroke-linejoin="round" stroke-width="0.5"><title>2023-04-04 2.2km</title></polyline><polyline fill="none" points="93.70793502777815,182.91902014054358 92.13491878658533,182.5541555567179 91.50571228936315,183.2838846880477 90.87650579214096,184.3784781047143 91.50571228936315,186.2027997164987 92.76412528194487,186.2027997164987 101.25841299444437,178.90550765627995 114.47174943052232,174.1622597933747 115.7301624249667,172.70279764034785 116.04476567171514,170.51360328891315 115.10095592588186,163.58114562602714 114.47174943052232,161.3919456631411 111.95492344349623,158.47301028575748 106.60666821710765,154.09460272896104 103.77523897960782,153.0 100.31460324861109,154.09460272896104 93.3933317810297,158.10814319527708 90.24729929491878,158.10814319527708 87.73047330789268,157.7432760670781 84.89904407039285,159.20274435495958 83.95523432455957,161.0270788720809 83.64063107781112,162.12167913396843 84.26983757317066,162.85141245578416 89.61809279769659,167.22980923764408 94.96634802222252,173.7973943115212 99.37079350277781,175.98658664221875 107.86508120968938,175.98658664221875 116.04476567171514,174.5271252382081 117.61778191663325,173.06766323419288 116.98857541754842,171.24333489011042 116.67397216893733,167.22980923764408 113.52793968468904,162.85141245578416 109.75270070135593,160.66221204423346 101.57301624119282,159.56761133274995 95.28095127083361,160.66221204423346 90.87650579214096,160.29734517843463 86.47206031344831,155.18920512404293 83.32602782920003,153.72973519028164 81.43840833753347,154.09460272896104 81.12380508892238,154.45947023155168 81.12380508892238,155.91893986635841 84.89904407039285,159.93247827445157 89.3034895490855,163.58114562602714 94.65174477361143,174.1622597933747 98.42698375694454,177.44604744878598 101.88761948980391,179.63523753592744 106.60666821710765,178.90550765627995 111.95492344349623,176.351451900322 114.15714618004858,174.1622597933747 115.4155591763556,171.9730663395021 115.4155591763556,165.77034424082376 114.47174943052232,162.85141245578416 113.52793968468904,161.3919456631411 108.17968446016312,158.10814319527708 104.08984223008156,157.01354169868864 101.57301624119282,157.37840890185907 97.16857076250017,159.56761133274995 92.76412528194487,159.93247827445157 88.98888630233705,159.20274435495958 84.89904407039285,162.48654581350274 84.58444082178175,165.04061151994392 85.21364732086658,167.5946753937751 86.47206031344831,169.0541396404151 92.13491878658533,171.24333489011042 96.22476101666689,177.81091255624779 97.79777725972235,178.17577762762085 108.17968446016312,177.08118230383843 112.26952669024467,175.6217213468626 113.84254293330014,173.7973943115212 114.78635267913342,171.9730663395021 115.4155591763556,168.32440759125166 115.10095592588186,164.310878647957 114.47174943052232,162.12167913396843 112.89873318746686,159.56761133274995 109.1234942059964,155.91893986635841 105.34825522266328,154.45947023155168 103.46063573099673,154.82433769712225 95.91015776991844,158.83787733968347 91.50571228936315,159.20274435495958 88.35967980325222,157.7432760670781 86.47206031344831,158.47301028575748 85.21364732086658,159.56761133274995 84.89904407039285,161.0270788720809 85.52825056761503,163.21627905848436 89.3034895490855,166.13521054643206 92.13491878658533,168.68927363399416 94.65174477361143,175.6217213468626 97.79777725972235,176.351451900322 105.66285847313702,176.351451900322 111.64032019302249,174.5271252382081 113.52793968468904,172.70279764034785 114.78635267913342,170.14873743290082 115.10095592588186,168.32440759125166 114.47174943052232,163.94601215492003 113.84254293330014,162.48654581350274 111.95492344349623,160.66221204423346 109.75270070135593,159.56761133274995 102.83142923563719,158.47301028575748 91.19110904075205,160.66221204423346 86.7866635620594,158.47301028575748 84.26983757317066,160.29734517843463 83.01142457872629,162.48654581350274 83.32602782920003,164.310878647957 85.52825056761503,168.32440759125166 91.19110904075205,171.60820063343272 94.33714152686298,176.351451900322 98.1123805064708,177.44604744878598 109.43809745460749,176.716317120241 112.58412993885577,175.25685601471923 114.15714618004858,173.4325287914835 115.4155591763556,170.14873743290082 115.4155591763556,168.32440759125166 115.10095592588186,164.67574510211125 112.89873318746686,162.12167913396843 110.69651044718921,160.66221204423346 108.49428770877421,160.29734517843463 98.42698375694454,161.3919456631411 94.96634802222252,160.66221204423346 89.3034895490855,157.37840890185907 86.15745706669986,157.37840890185907 83.64063107781112,158.47301028575748 86.7866635620594,163.94601215492003 91.82031553797424,169.0541396404151 94.02253827825189,173.7973943115212 96.85396751388907,174.89199064532295 107.23587471432984,175.98658664221875 114.78635267913342,174.5271252382081 116.04476567171514,172.3379320090171 116.67397216893733,169.0541396404151 115.4155591763556,163.94601215492003 111.95492344349623,161.0270788720809 107.23587471432984,159.20274435495958 96.22476101666689,159.93247827445157 89.3034895490855,157.37840890185907 87.1012668106705,157.37840890185907 83.95523432455957,158.83787733968347 83.64063107781112,160.29734517843463 84.89904407039285,163.21627905848436 92.76412528194487,170.14873743290082 95.91015776991844,176.351451900322 97.79777725972235,178.17577762762085 99.68539674952626,178.90550765627995 109.43809745460749,177.81091255624779 114.15714618004858,175.25685601471923 116.35936892218888,173.06766323419288 116.67397216893733,170.14873743290082 114.47174943052232,162.48654581350274 113.21333643607795,160.66221204423346 105.97746171988547,153.3648676138837 104.40444547683,153.0 101.57301624119282,154.45947023155168 98.42698375694454,158.10814319527708 96.22476101666689,159.20274435495958 93.70793502777815,159.93247827445157 85.84285381622612,159.56761133274995 83.64063107781112,160.66221204423346 84.58444082178175,162.85141245578416 86.47206031344831,164.67574510211125 92.13491878658533,169.41900560841896 95.91015776991844,174.89199064532295 96.85396751388907,175.6217213468626 99.05619025230408,176.351451900322 104.08984223008156,177.08118230383843 109.43809745460749,179.27037261542864 114.47174943052232,179.27037261542864 116.04476567171514,178.54064266127534 117.9323851633817,172.3379320090171 117.61778191663325,167.9595415107906 116.67397216893733,165.40547790029086 113.21333643607795,160.29734517843463 107.55047796294093,157.7432760670781 100.31460324861109,157.37840890185907 93.3933317810297,157.7432760670781 90.56190254539251,157.01354169868864 88.67428305372596,157.01354169868864 86.7866635620594,157.7432760670781 83.64063107781112,160.66221204423346 83.64063107781112,162.12167913396843 84.58444082178175,163.94601215492003 88.04507655650377,166.8649430447258 93.07872853241861,170.14873743290082 96.85396751388907,175.98658664221875 99.37079350277781,177.08118230383843 104.40444547683,176.716317120241 108.17968446016312,177.44604744878598 111.3257169444114,177.08118230383843 114.15714618004858,176.351451900322 115.4155591763556,175.25685601471923 116.35936892218888,173.06766323419288 116.98857541754842,167.22980923764408 115.4155591763556,164.67574510211125 112.89873318746686,162.48654581350274 105.66285847313702,159.56761133274995 103.14603248424828,159.20274435495958 95.5955545194447,160.29734517843463 89.3034895490855,158.83787733968347 88.04507655650377,159.20274435495958 84.89904407039285,162.48654581350274 84.58444082178175,164.67574510211125 86.47206031344831,166.8649430447258 91.50571228936315,171.24333489011042 93.70793502777815,175.98658664221875 94.02253827825189,177.81091255624779 92.13491878658533,180.72983207413927 92.13491878658533,185.10820686095394 94.65174477361143,192.7703497770708 97.79777725972235,194.59466708824039 101.25841299444437,194.959530437598 108.80889095552266,193.50007681455463 114.78635267913342,193.13521331432275 117.30317866615951,194.59466708824039 118.56159166060388,196.4189834636636 118.56159166060388,197.5135728395544 116.98857541754842,200.06761340843514 110.38190719857812,202.98651467170566 106.29206496849656,205.90541354194283 103.14603248424828,207.0 101.25841299444437,206.63513788511045 98.1123805064708,205.17568904859945 96.85396751388907,199.70275058294646 96.85396751388907,197.87843589065596 97.79777725972235,196.4189834636636 103.77523897960782,191.6757589429617 106.92127146571875,190.58116777054965 116.04476567171514,185.47307118284516 118.56159166060388,185.10820686095394 118.56159166060388,187.29739223467186 118.24698841199279,187.29739223467186 118.87619490921497,186.5676639266312 118.24698841199279,185.83793546864763 118.56159166060388,186.2027997164987" stroke="#ffdb00" stroke-linecap="round" stroke-linejoin="round" stroke-width="0.5"><title>2023-04-01 3.2km</title></polyline><polyline fill="none" points="156.29289222881198,175.70074283517897 153.62377463281155,178.79628677549772 149.17524530552328,182.92367425211705 151.25122565962374,180.5160321739968 156.8860294725746,177.0765404945705 159.851715689525,176.04469230258837 166.07965674810112,176.38864173460752 168.7487743422389,175.70074283517897 170.52818607352674,174.32494461140595 172.01102918200195,171.5733464716468 172.60416642576456,167.10199468093924 171.71446056105196,163.31853851210326 170.23161745257676,160.56693134619854 166.67279399000108,157.1274192132987 163.70710777305067,156.09556488506496 160.44485293328762,156.4395163631998 152.73406876809895,160.91088236519136 149.7683825492859,160.56693134619854 145.91299046762288,158.50322448974475 143.54044149257243,159.53507807594724 144.72671598009765,160.91088236519136 150.9546570368111,164.00643995171413 154.51348049752414,169.50964638614096 156.5894608516246,170.54149658768438 165.7830881252885,170.54149658768438 170.52818607352674,169.50964638614096 172.01102918200195,168.13384562381543 172.60416642576456,166.75804429803975 170.52818607352674,162.28668608982116 167.56249985657632,160.56693134619854 164.00367639400065,159.53507807594724 160.44485293328762,160.22298029088415 153.92034325376153,162.6306369320955 150.65808841586113,162.28668608982116 147.09926495328546,160.22298029088415 146.20955908857286,160.56693134619854 145.02328460291028,161.94273521192372 144.43014735728502,163.662489249371 145.02328460291028,165.38224240601994 151.54779428057373,169.8535964882467 155.996323607862,176.38864173460752 157.4791667163372,177.42048982088454 160.44485293328762,178.10838836873882 167.56249985657632,176.38864173460752 169.93504882976413,175.3567933323793 171.41789194010198,174.32494461140595 172.60416642576456,171.5733464716468 172.9007350485772,169.16569624864496 172.30759780295193,165.7261929323431 170.52818607352674,162.97458773921244 165.7830881252885,159.53507807594724 161.63112742081285,158.50322448974475 152.43750014714897,162.6306369320955 150.06495117209852,162.28668608982116 146.80269633233547,160.91088236519136 144.72671598009765,161.25483334832825 143.54044149257243,162.97458773921244 143.54044149257243,164.69434124883264 144.72671598009765,166.0701434223447 149.7683825492859,169.16569624864496 154.21691187657416,173.29309557401575 156.29289222881198,173.98099496704526 164.8933822605759,174.32494461140595 167.85906847938895,173.98099496704526 169.93504882976413,172.60519603895955 171.41789194010198,170.54149658768438 172.01102918200195,168.13384562381543 172.01102918200195,166.0701434223447 171.41789194010198,164.69434124883264 167.85906847938895,161.59878429793753 163.41053915210068,160.22298029088415 153.92034325376153,161.59878429793753 148.28553944267333,160.91088236519136 145.31985322386026,162.28668608982116 144.72671598009765,163.662489249371 144.72671598009765,165.03829184547067 145.91299046762288,167.10199468093924 150.9546570368111,170.88544658501633 154.51348049752414,175.3567933323793 155.996323607862,176.38864173460752 158.66544120386243,177.0765404945705 166.67279399000108,176.73259113216773 170.82475469447672,175.01284379395656 172.01102918200195,173.6370452879928 172.9007350485772,171.22939654579386 173.19730366952717,169.16569624864496 172.30759780295193,165.03829184547067 168.7487743422389,160.22298029088415 166.07965674810112,158.50322448974475 162.52083328552544,157.47137058572844 153.32720601186156,161.59878429793753 150.36151979491115,161.94273521192372 146.80269633233547,161.25483334832825 144.43014735728502,161.25483334832825 143.83701011538506,161.94273521192372 144.13357873633504,163.662489249371 145.31985322386026,165.7261929323431 148.8786766845733,169.16569624864496 151.8443629015237,173.98099496704526 154.21691187657416,176.38864173460752 158.9620098248124,178.79628677549772 164.00367639400065,178.4523375891149 168.7487743422389,176.38864173460752 171.71446056105196,172.94914582371712 172.60416642576456,169.8535964882467 172.60416642576456,160.91088236519136 165.7830881252885,158.1592732227873 160.74142155610025,157.47137058572844 153.62377463281155,161.25483334832825 146.20955908857286,161.59878429793753 143.83701011538506,162.97458773921244 143.24387287162244,164.35039061889984 144.13357873633504,166.0701434223447 148.28553944267333,168.82174607669003 151.8443629015237,173.6370452879928 153.32720601186156,174.66889422060922 161.03799017705023,175.70074283517897 166.67279399000108,175.3567933323793 169.04534296505153,174.32494461140595 170.52818607352674,172.60519603895955 171.71446056105196,170.19754655612633 172.01102918200195,167.7898953454569 170.82475469447672,165.03829184547067 164.8933822605759,159.53507807594724 162.81740190833807,159.19112691562623 160.74142155610025,159.53507807594724 152.43750014714897,162.6306369320955 149.7683825492859,162.28668608982116 146.20955908857286,160.22298029088415 145.02328460291028,160.91088236519136 144.13357873633504,162.97458773921244 144.72671598009765,166.75804429803975 146.5061277113855,169.50964638614096 152.43750014714897,172.26124621904455 156.5894608516246,176.04469230258837 157.77573533914983,176.38864173460752 162.52083328552544,175.01284379395656 168.1556370984763,174.66889422060922 170.23161745257676,173.6370452879928 172.01102918200195,171.5733464716468 172.9007350485772,168.4777958674822 173.19730366952717,165.7261929323431 172.60416642576456,161.94273521192372 171.71446056105196,159.87902920111082 169.93504882976413,157.81532192183658 167.85906847938895,156.09556488506496 164.8933822605759,155.751613372704 162.2242646627128,156.4395163631998 155.996323607862,161.59878429793753 153.92034325376153,162.6306369320955 151.25122565962374,162.6306369320955 147.9889708198607,161.25483334832825 145.31985322386026,161.59878429793753 144.13357873633504,162.6306369320955 144.13357873633504,164.00643995171413 144.72671598009765,167.10199468093924 145.61642184481025,168.4777958674822 150.9546570368111,170.54149658768438 154.21691187657416,175.3567933323793 156.8860294725746,176.38864173460752 166.9693626128137,175.70074283517897 169.6384802069515,175.01284379395656 171.41789194010198,173.29309557401575 172.60416642576456,169.8535964882467 172.30759780295193,167.44594503077678 170.52818607352674,165.03829184547067 167.2659312337637,162.97458773921244 162.52083328552544,161.94273521192372 153.92034325376153,163.662489249371 147.6924021989107,162.6306369320955 145.31985322386026,163.662489249371 144.72671598009765,165.7261929323431 145.31985322386026,167.44594503077678 146.80269633233547,168.82174607669003 153.62377463281155,172.26124621904455 155.996323607862,176.04469230258837 158.07230395823717,177.76443911297247 159.851715689525,178.10838836873882 168.1556370984763,176.04469230258837 170.52818607352674,173.98099496704526 171.41789194010198,172.26124621904455 171.71446056105196,168.82174607669003 171.41789194010198,161.94273521192372 170.82475469447672,159.19112691562623 169.6384802069515,157.47137058572844 164.59681363776326,153.34395179455169 163.11397052928805,153.0 161.92769604176283,153.68790355394594 156.5894608516246,158.84717571991496 153.32720601186156,160.91088236519136 150.9546570368111,161.25483334832825 147.39583357609808,160.91088236519136 145.91299046762288,161.59878429793753 144.43014735728502,162.97458773921244 143.83701011538506,164.69434124883264 143.83701011538506,166.0701434223447 145.02328460291028,167.7898953454569 151.25122565962374,171.5733464716468 153.62377463281155,176.04469230258837 153.92034325376153,179.14023592625745 151.25122565962374,182.2357766921632 150.9546570368111,185.33131460170262 152.14093152433634,188.77079781936482 153.62377463281155,191.17843397287652 157.77573533914983,192.55422528414056 164.8933822605759,191.86632969952188 171.12132331728935,192.89817302441224 173.79044091328979,194.27396363182925 176.45955850929022,197.71343768108636 176.7561271302402,199.4331733819563 176.45955850929022,200.80896131019108 174.08700953423977,202.87264214246534 164.8933822605759,206.65605370537378 160.44485293328762,207.0 157.77573533914983,206.3121073753573 155.1066177431494,204.2484286588151 153.92034325376153,199.7771204172168 154.21691187657416,197.3694904341828 156.8860294725746,193.58606839855202 159.851715689525,192.55422528414056 166.07965674810112,193.24212072975934 171.12132331728935,188.4268496565055 175.273284021765,187.39500495512038" stroke="#ffde00" stroke-linecap="round" stroke-linejoin="round" stroke-width="0.5"><title>2023-03-31 3.1km</title></polyline><polyline fill="none" points="37.338028168305755,251.24650084786117 36.5774647872895,253.8927162680775 31.633802816271782,257.86203634692356 27.8309859149158,258.74410697678104 24.02816901355982,258.30307168420404 23.64788732305169,257.4210009626113 27.450704224407673,251.68753686454147 33.9154929574579,246.3951016832143 36.5774647872895,245.51302851969376 45.70422535203397,244.1899184351787 49.88732394389808,241.54369704704732 51.78873239271343,237.57436191197485 52.1690140850842,233.16398524446413 51.4084507022053,227.87152727367356 49.50704225152731,223.46114065824077 47.985915491357446,221.25594565551728 42.28169013932347,217.2865918003954 35.436619717627764,215.96347303362563 33.9154929574579,216.84555225772783 30.112676056101918,221.69698474556208 26.69014084339142,224.34321834379807 20.605633802711964,226.54841176373884 13.76056337915361,230.95879521407187 16.422535210847855,234.48709872039035 24.408450704067945,238.45643670205027 31.253521125763655,244.1899184351787 33.53521126694977,244.63095517549664 44.94366196915507,243.30784482089803 51.78873239271343,241.1026599900797 53.309859154745936,238.01539932982996 52.54929577372968,232.2819093670696 49.12676056288183,227.43048881553113 35.81690140813589,222.57906279247254 27.450704224407673,224.7842571171932 22.887323943898082,224.34321834379807 20.22535211034119,223.46114065824077 15.661971827968955,225.22529584774747 15.661971827968955,227.43048881553113 16.802816899493337,229.63568065408617 25.92957746423781,238.01539932982996 30.492957746610045,245.51302851969376 33.9154929574579,247.71821108972654 36.95774647779763,247.71821108972654 47.605633802711964,244.1899184351787 52.1690140850842,240.22058574249968 54.070422533899546,236.69228693982586 52.54929577372968,228.3125656871125 47.605633802711964,226.9894503117539 43.422535210847855,221.69698474556208 36.95774647779763,220.81490651797503 33.9154929574579,221.25594565551728 25.549295773729682,225.22529584774747 19.084507040679455,224.7842571171932 14.901408448815346,227.87152727367356 16.802816899493337,230.51775707304478 22.887323943898082,233.60502311447635 25.549295773729682,236.25124938646331 28.211267603561282,240.66162288887426 30.112676056101918,242.4257710245438 34.676056338474154,243.30784482089803 44.56338028050959,242.4257710245438 46.46478873118758,241.54369704704732 49.50704225152731,238.89747403142974 52.1690140850842,232.72294732835144 52.54929577372968,230.51775707304478 51.02816901355982,224.34321834379807 50.64788732305169,219.4917888380587 49.12676056288183,218.60971015831456 40.76056337915361,218.60971015831456 32.394366197288036,223.90217952430248 27.450704224407673,225.22529584774747 24.788732392713428,224.7842571171932 19.464788731187582,222.1380237918347 18.323943661525846,223.46114065824077 15.281690139323473,228.7536040553823 18.704225350171328,232.2819093670696 25.549295773729682,235.3691741428338 28.211267603561282,239.33851131331176 29.352112675085664,242.4257710245438 30.873239435255527,243.74888165062293 41.14084506966174,244.1899184351787 47.22535211034119,242.8668079455383 49.50704225152731,241.54369704704732 50.64788732305169,240.66162288887426 52.1690140850842,236.69228693982586 52.54929577372968,234.0460609397851 51.78873239271343,230.95879521407187 49.12676056288183,227.87152727367356 46.084507040679455,225.66633453266695 40.76056337915361,223.46114065824077 36.95774647779763,222.57906279247254 27.070422533899546,225.22529584774747 21.7464788723737,223.46114065824077 16.802816899493337,225.22529584774747 17.943661969155073,227.43048881553113 20.22535211034119,230.07671888545156 26.309859154745936,234.92813645396382 30.112676056101918,241.9847340588458 31.633802816271782,243.30784482089803 35.05633802525699,245.07199187064543 44.94366196915507,244.1899184351787 51.02816901355982,241.54369704704732 52.54929577372968,235.81021178653464 51.02816901355982,229.63568065408617 46.084507040679455,225.22529584774747 44.94366196915507,222.57906279247254 37.338028168305755,221.25594565551728 29.352112675085664,224.7842571171932 25.92957746423781,225.22529584774747 21.366197181865573,224.7842571171932 19.084507040679455,223.46114065824077 17.183098590001464,226.54841176373884 15.661971827968955,230.51775707304478 17.183098590001464,234.48709872039035 24.408450704067945,237.57436191197485 28.59154929406941,242.8668079455383 30.112676056101918,244.1899184351787 35.05633802525699,245.07199187064543 41.901408448815346,245.07199187064543 47.605633802711964,243.30784482089803 51.02816901355982,239.77954855002463 51.4084507022053,237.57436191197485 51.02816901355982,234.0460609397851 47.985915491357446,228.3125656871125 42.28169013932347,225.66633453266695 36.5774647872895,223.90217952430248 28.59154929406941,225.66633453266695 20.605633802711964,222.1380237918347 17.943661969155073,223.46114065824077 13.380281688645482,223.90217952430248 13.380281688645482,225.66633453266695 16.422535210847855,228.7536040553823 25.549295773729682,233.16398524446413 26.69014084339142,235.81021178653464 28.59154929406941,242.8668079455383 30.873239435255527,244.63095517549664 38.85915492661297,243.74888165062293 44.94366196915507,244.1899184351787 50.64788732305169,241.54369704704732 52.54929577372968,237.57436191197485 52.92957746423781,234.92813645396382 49.88732394389808,227.43048881553113 44.56338028050959,224.34321834379807 39.239436618983746,223.02010174794123 27.450704224407673,225.22529584774747 20.605633802711964,224.34321834379807 17.943661969155073,225.22529584774747 14.901408448815346,228.3125656871125 15.661971827968955,230.95879521407187 18.704225350171328,233.60502311447635 22.887323943898082,236.25124938646331 28.211267603561282,244.1899184351787 29.732394363731146,245.07199187064543 43.422535210847855,244.63095517549664 49.50704225152731,242.4257710245438 51.78873239271343,236.69228693982586 51.4084507022053,229.63568065408617 52.1690140850842,225.66633453266695 46.84507042169571,221.69698474556208 36.95774647779763,218.60971015831456 35.81690140813589,219.05074952170253 33.154929576441646,223.02010174794123 28.211267603561282,224.7842571171932 21.7464788723737,224.34321834379807 18.704225350171328,222.57906279247254 16.042253520339727,223.90217952430248 13.0,224.34321834379807 13.380281688645482,227.43048881553113 15.661971827968955,232.2819093670696 16.422535210847855,232.72294732835144 18.323943661525846,231.84087136294693 23.267605632543564,233.16398524446413 25.549295773729682,236.69228693982586 29.352112675085664,243.74888165062293 32.014084504917264,245.51302851969376 43.80281689949334,245.51302851969376 48.7464788723737,242.8668079455383 51.78873239271343,238.89747403142974 51.78873239271343,234.48709872039035 51.02816901355982,230.51775707304478 49.88732394389808,228.7536040553823 46.84507042169571,225.66633453266695 42.661971827968955,223.90217952430248 36.19718309864402,224.34321834379807 24.408450704067945,227.87152727367356 22.126760561019182,226.9894503117539 19.464788731187582,224.34321834379807 15.281690139323473,226.9894503117539 15.281690139323473,229.19464237615466 16.042253520339727,230.95879521407187 20.985915491357446,233.60502311447635 25.549295773729682,238.45643670205027 26.309859154745936,244.63095517549664 24.788732392713428,246.83613819628954 22.126760561019182,249.48235632944852 21.366197181865573,251.24650084786117 23.267605632543564,256.09789454052225 23.64788732305169,257.86203634692356 26.69014084339142,263.15445742057636 29.732394363731146,264.03652696637437 35.05633802525699,263.59549221629277 57.4929577447474,260.94928276445717 63.95774647966027,260.0672125853598 67.0,258.74410697678104 64.71830985881388,257.86203634692356 60.9154929574579,257.4210009626113" stroke="#ffe000" stroke-linecap="round" stroke-linejoin="round" stroke-width="0.5"><title>2023-03-30 3.1km</title></polyline><polyline fill="none" points="73.3802816895768,252.1287418116117 73.47535211220384,252.1287418116117 73.6654929574579,252.01848278485704 74.52112676016986,252.1287418116117 75.47183098550886,252.7902957344195 76.80281690089032,252.01848278485704 77.94366197148338,252.01848278485704 79.17957746470347,252.23900082695764 80.79577464750037,252.1287418116117 83.55281690135598,251.4671874816995 85.7394366194494,251.35692838742398 86.59507042169571,250.9158918961184 86.78521126741543,250.14407760137692 86.78521126741543,248.1594097284833 85.7394366194494,245.51318020094186 84.88380281673744,241.3233034653822 83.93309859139845,239.55913995660376 81.27112676063552,236.14106492255814 80.89084507059306,235.25897927919868 80.98591549275443,234.37689291255083 83.07746478868648,232.17167383024935 85.549295774661,230.18697278946638 91.63380281673744,226.87912958289962 96.19718309817836,224.8944187745219 105.70422535203397,223.35075228032656 110.83802816877142,222.0276078071911 115.1161971827969,220.26341264438815 116.25704225338995,220.26341264438815 117.11267605610192,221.03524838434532 118.8239436619915,223.2404903032584 121.96126760542393,228.20226808649022 123.48239436605945,231.3998460827861 124.71830985927954,233.38454488501884 125.19366197148338,234.70767538482323 126.61971830995753,237.46419203083497 126.80985915474594,238.67705711675808 126.61971830995753,240.22070161136799 126.049295774661,241.10278318519704 125.19366197148338,242.09512409055606 122.72183098550886,243.7490235650912 120.7253521126695,244.74136202887166 116.63732394389808,245.84395924815908 112.16901408415288,247.05681488336995 108.1760563380085,247.38759345572907 101.71126760542393,248.6004473499488 98.19366197194904,248.93122544744983 89.35211267601699,250.80563274491578 87.9260563380085,250.6953735826537 87.26056338008493,250.14407760137692 86.6901408447884,248.93122544744983 84.50352112669498,241.43356358876918 82.69718309817836,238.34627586556599 81.3661971827969,237.0231498425128 80.98591549275443,236.25132557738107 80.98591549275443,235.58976148045622 81.5563380275853,234.5974145717919 82.79225352127105,233.16402297688182 84.97887323936448,230.958801407367 86.4049295769073,229.7459276166046 91.15845070406795,227.09965277963784 95.62676056288183,225.44572770001832 102.0915492954664,224.12258580431808 104.94366197194904,223.90206199709792 110.64788732398301,222.6891802472528 111.97887323936448,222.24813199939672 115.40140845021233,220.48393719783053 116.35211267601699,220.48393719783053 116.92253521131352,221.03524838434532 118.53873239457607,223.0199663147796 120.05985915474594,225.77651291934308 121.96126760542393,228.42279101221357 123.19718309864402,231.06906259339303 124.62323943618685,233.38454488501884 127.0,238.12575497454964 126.90492957737297,240.8822628594935 126.42957746516913,241.7643438903615 125.38380281627178,242.53616419923492 122.53169014072046,243.96954330254812 121.29577464796603,244.96188156295102 120.34507042262703,245.29266077955253 114.26056338008493,246.50551703677047 112.549295774661,247.05681488336995 105.22887323936448,248.04915029508993 103.51760563347489,248.6004473499488 99.7147887321189,249.26200344332028 96.00704225338995,249.48252205061726 88.78169014118612,251.02615103579592 87.35563380271196,251.9082237466937 85.7394366194494,253.34159035922494 82.41197183076292,254.66469630599022 81.17605633754283,254.55443753919099 80.89084507059306,254.77495506126434 80.79577464750037,255.10573126003146 81.46126760542393,256.5390936107142 81.27112676063552,257.0903863137355 80.4154929574579,257.8621956234565 79.36971830949187,258.4134876485914 77.46830985881388,259.73658735561185 76.51760563394055,259.73658735561185 75.37676056334749,259.2955543008866 74.6161971827969,257.9724540512543 73.95070422487333,256.5390936107142 73.0,255.43650735646952 73.57042253529653,255.21598997002002 75.56690140860155,254.99547253828496 75.85211267555133,255.10573126003146 76.04225352080539,255.43650735646952 76.61267605610192,255.76728335139342" stroke="#4dd2ff" stroke-linecap="round" stroke-linejoin="round" stroke-width="0.5"><title>2023-03-28 2.9km</title></polyline></svg>