<?xml version="1.0" encoding="utf-8" ?>
<svg baseProfile="full" height="300mm" version="1.1" viewBox="0,0,200,300" width="200mm" xmlns="http://www.w3.org/2000/svg" xmlns:ev="http://www.w3.org/2001/xml-events" xmlns:xlink="http://www.w3.org/1999/xlink"><defs /><rect fill="#222222" height="300" width="200" x="0" y="0" /><text fill="#FFFFFF" style="font-size:12px; font-family:Arial; font-weight:bold;" x="10" y="20">Over 2km Workouts</text><text fill="#FFFFFF" style="font-size:4px; font-family:Arial" x="10" y="280">ATHLETE</text><text fill="#FFFFFF" style="font-size:9px; font-family:Arial" x="10" y="290">Koobai</text><text fill="#FFFFFF" style="font-size:4px; font-family:Arial" x="120" y="280">STATISTICS</text><text fill="#FFFFFF" style="font-size:3px; font-family:Arial" x="120" y="285">Number: 15</text><text fill="#FFFFFF" style="font-size:3px; font-family:Arial" x="120" y="290">Weekly: 5.0</text><text fill="#FFFFFF" style="font-size:3px; font-family:Arial" x="141" y="285">Total: 39.0 km</text><text fill="#FFFFFF" style="font-size:3px; font-family:Arial" x="141" y="290">Avg: 2.6 km</text><text fill="#FFFFFF" style="font-size:3px; font-family:Arial" x="167" y="285">Min: 2.0 km</text><text fill="#FFFFFF" style="font-size:3px; font-family:Arial" x="167" y="290">Max: 4.1 km</text><polyline fill="none" points="15.341740226838738,60.76050192513503 14.796973518328741,59.244177719869185 14.143253467744216,56.527420854894444 13.59848675923422,55.579712153819855 12.508953341515735,53.87383281928487 12.399999999906868,53.43156703567365 12.508953341515735,52.92612003732938 12.835813366807997,52.35749166854657 13.489533417392522,51.85204378928756 18.66481715021655,48.629803812131286 20.73493064311333,46.60799757653149 21.55208070599474,45.91300015116576 23.458764186594635,44.523002948379144 24.60277427500114,43.82800317136571 25.31097099627368,43.57527578534791 27.05422446411103,43.25936640694272 29.233291298849508,42.311637300415896 32.93770491797477,41.36390673631104 36.478688524570316,41.04799622419523 40.727868852438405,39.46844123484334 44.105422446271405,38.583888672001194 44.922572509385645,38.52070629777154 45.46733921789564,38.71025340160122 46.28448928124271,39.53162351209903 46.556872635381296,40.100263716536574 46.50239596469328,40.85844983928837 45.848675914341584,42.75391106493771 45.794199243187904,43.196184511936735 45.848675914341584,43.638457641529385 47.918789407005534,48.187534264987335 48.57250945759006,48.88252912519965 49.22622950817458,49.2616169002722 49.77099621691741,49.2616169002722 51.0784363176208,48.945710437197704 51.45977301383391,49.00889174279291 51.78663303889334,49.2616169002722 52.71273644384928,50.33569766342407 54.238083228003234,51.28341442922829 54.89180327882059,51.97840579779586 55.491046658018604,53.05248182581272 55.5999999998603,53.7474711991963 55.38209331640974,54.63200199540006 54.72837326605804,55.579712153819855 53.42093316512182,56.71696242009057 47.918789407005534,60.44460135663394 41.92635561153293,63.54041994467843 37.731651954585686,66.69940247241175 36.478688524570316,67.5839146784856 34.62648171489127,68.40524630452273 31.63026481703855,69.47929370228667" stroke="#4dd2ff" stroke-linecap="round" stroke-linejoin="round" stroke-width="0.5"><title>2023-04-15 2.1km</title></polyline><polyline fill="none" points="81.39244332490489,60.78354162472533 79.92342569259927,56.303386165353004 79.48816120880656,55.546173570270184 78.6176322416868,54.41035293054301 78.39999999990687,53.77934055856895 78.39999999990687,53.274530194932595 78.67204030207358,52.64351665833965 79.05289672524668,52.201806797704194 79.70579345081933,51.63389365398325 82.15415617125109,50.3087609471404 84.76574307284318,48.79432007443393 85.30982367740944,48.352607451204676 86.61561712855473,46.83816176478285 87.15969773288816,46.333345707913395 89.71687657409348,44.56648624758236 90.96826196461916,43.87236150034005 93.19899244327098,43.36754301073961 95.64735516370274,42.35790478892159 97.76926952134818,41.853085056878626 99.61914357659407,41.53757251432398 102.77481108321808,41.34826491092099 103.53652392933145,41.09585468261503 105.49521410581656,40.14931540435646 106.85541561734863,39.64449386089109 109.08614609576762,39.139671902987175 110.7183879094664,38.50864387344336 111.37128463503905,38.571746705449186 112.56826196494512,39.64449386089109 112.84030226687901,40.2755207256414 112.84030226687901,40.78034175164066 112.67707808571868,41.22205980971921 111.58891687658615,43.115133610437624 111.4801007558126,43.430645344546065 111.53450881619938,43.74615691672079 111.8609571789857,44.50338403030764 114.03727959678508,48.54191289993469 114.58136020158418,49.23603238060605 115.2886649875436,49.48843927041162 115.88715365249664,49.48843927041162 117.08413098263554,48.92052362282993 117.51939546619542,48.85742185183335 117.90025188913569,49.04672714526532 119.26045340043493,50.056354393891525 120.56624685158022,51.44458915613359 121.32795969769359,52.58041526918532 121.54559193970636,53.274530194932595 121.60000000009313,53.842441824963316 121.60000000009313,54.28415050805779 121.4367758189328,54.78896004339913 121.16473551653326,55.2306680472102 120.45743073057383,56.05098207044648 117.13853904302232,58.57501836126903 115.34307304793037,59.52152930153534 112.29622166254558,61.47764729917981 107.45390428206883,64.0647615538328 105.7128463475965,65.3267645611777 103.808564231731,66.96736460231477 101.5234256926924,67.85076281317743 97.82367758196779,69.49135612655664" stroke="#4dd2ff" stroke-linecap="round" stroke-linejoin="round" stroke-width="0.5"><title>2023-04-14 2.2km</title></polyline><polyline fill="none" points="147.51135734072886,63.50707817735383 146.97285318537615,61.56406364304712 146.37451523565687,60.03740545286564 145.7761772852391,59.13528763112845 144.81883656512946,57.95559328061063 144.45983379497193,57.33104838052532 144.39999999990687,56.8452908374602 144.519667590037,56.35953294567298 145.05817174515687,55.80438064230839 145.8958448751364,55.17983375699259 148.8875346260611,53.583766876428854 151.34072022186592,52.47345726104686 151.87922437675297,51.98769623163389 154.1529085871298,49.42009642749326 155.88808864238672,47.962805718765594 157.80277008283883,47.13006676227087 163.90581717458554,44.90942453563912 170.18836565082893,43.8684959836537 174.01772853173316,42.61937960801879 176.71024930733256,41.50905200536363 178.38559556775726,41.09267868468305 179.7617728530895,40.60690948687261 180.47977839340456,40.60690948687261 181.13795013842173,41.02328310633311 182.2149584486615,42.41119332128437 182.4542936286889,42.96635661023902 182.51412742375396,43.52151944395155 182.3346260387916,44.14607708720723 181.5567867034115,45.11761005385779 181.25761772831902,45.67277112288866 181.13795013842173,46.297326781146694 181.19778393302113,46.85248688235879 181.7961218834389,48.0322005857015 183.1124653739389,50.11404328094795 184.9074792242609,53.51437257876387 185.98448753450066,55.87377470522188 187.36066481960006,58.094380958005786 187.5999999998603,59.06589390261797 187.5999999998603,60.10679908178281 187.36066481960006,60.52316070505185 186.46315789455548,61.14770265988773 183.41163434879854,62.6049649802153 182.39445983362384,62.95193173678126 175.93240997218527,64.13161737885093 173.00055401655845,64.40919017227134 170.6072022158187,64.75615600403398 164.62382271466777,65.8664454704267 163.48698060913011,66.21341055515222 162.23047091416083,67.18491184624145 161.75180055387318,67.39309051306918" stroke="#4dd2ff" stroke-linecap="round" stroke-linejoin="round" stroke-width="0.5"><title>2023-04-13 2.0km</title></polyline><polyline fill="none" points="16.15911602205597,113.28005059820134 15.622099447529763,111.82681997312466 15.144751381129026,109.61236729013035 14.60773480660282,108.15912876848597 14.070718232076615,107.32870535145048 12.817679557949305,105.94466405245475 12.519337016390637,105.39104673831025 12.399999999906868,104.76822671701666 12.519337016390637,104.28381074767094 12.877348066307604,103.73019207111793 13.41436464083381,103.24577535671415 14.190055248560384,102.76135829463601 16.0397790055722,101.93092823651386 19.023204419994727,100.27006505493773 19.79889502748847,99.64724030822981 22.30497237574309,97.22513860743493 25.228729281574488,95.4950606423663 26.481767955701798,94.94143475708552 28.80883977888152,94.3186050929362 32.20994475111365,93.00374058168381 34.1790055250749,92.38090912968619 35.969060773262754,92.03489140776219 38.77348066284321,91.68887350894511 39.96685082861222,91.27365179575281 41.39889502734877,90.5124113249476 43.00994475139305,90.44320760323899 44.14364640880376,90.16639264521655 45.93370165745728,89.6127623890061 48.08176795579493,88.71311225369573 48.678453038446605,88.71311225369573 49.33480662945658,89.19753939844668 50.170165746007115,90.37400387437083 50.40883977874182,91.41205906186951 50.170165746007115,92.38090912968619 49.09613259672187,94.11099507729523 49.09613259672187,94.38780841743574 49.21546961297281,94.94143475708552 49.69281767960638,96.04868607374374 51.244198895059526,98.47079199622385 52.97458563512191,101.37730763002764 54.10828729276545,103.86859678279143 55.36132596665993,105.87546191306319 55.54033149173483,106.49828091269592 55.5999999998603,107.05189731880091 55.4806629831437,107.53631130157737 55.241988950408995,108.08992685616249 54.64530386729166,108.57434009399731 54.048618784407154,108.98955116403522 51.84088397794403,110.23518284154125 50.70718232030049,110.65039289003471 48.678453038446605,110.99640106840525 45.93370165745728,111.61921534285648 42.83093922655098,112.03442453977186 40.26519337017089,112.3112305290415 32.44861878454685,113.69525877345586 31.37458563526161,114.04126539110439 30.00220994465053,114.87168054992799 28.62983425403945,115.28688774630427" stroke="#4dd2ff" stroke-linecap="round" stroke-linejoin="round" stroke-width="0.5"><title>2023-04-12 2.0km</title></polyline><polyline fill="none" points="83.18995815888047,114.05396482429933 82.91882845154032,113.73951832042076 82.91882845154032,112.6913626093883 81.74393305415288,109.54688902839553 81.11129707098007,107.03130320005585 79.57489539729431,105.03979336260818 78.94225941412151,104.0964452434564 78.5807531378232,103.04827964608558 78.49037656886503,102.20974639395718 78.76150627620518,101.3712124543963 80.7497907942161,97.80743553733919 82.91882845154032,95.6062730003614 83.91297071101144,94.76773364446126 85.81087866099551,93.61474090674892 87.88953974889591,92.67138224514201 94.57740585785359,90.47020864917431 97.01757322158664,90.26057282136753 105.6937238490209,88.68830274324864 106.95899581583217,88.26903031382244 108.85690376535058,87.220848488505 110.03179916320369,86.80157545709517 110.84518828475848,86.80157545709517 111.83933054376394,87.01121199445333 112.47196652693674,87.744939535507 113.64686192478985,89.63166508020367 116.53891213377938,94.76773364446126 117.62343096220866,97.38816684822086 119.88284518802539,100.95194522663951 120.87698744796216,101.89529624721035 121.50962343066931,103.3627294379985 121.60000000009313,104.0964452434564 121.41924686171114,105.35424254229292 121.14811715483665,106.29758950055111 120.78661087853834,106.82167076820042 119.3405857742764,107.97464861103799 115.99665271956474,109.65170497016516 114.0083682006225,110.070968630258 111.74895397480577,110.90949543437455 106.50711297011003,112.16728435084224 102.9824267779477,112.48173133807722 99.18661087844521,112.58654697891325 94.93891213368624,113.42507172003388 90.78158995788544,114.05396482429933 86.62426778208464,115.31174987240229 85.17824267735705,115.41656522336416 84.6359832631424,115.10211913846433 84.27447698730975,114.26359577313997 83.18995815888047,110.80467962136026 81.74393305415288,107.13611939968541 79.93640167312697,104.51571118179709 78.67112970678136,102.94346302689519 78.39999999990687,102.20974639395718 78.39999999990687,100.95194522663951 79.39414225937799,98.43633824912831 80.56903765629977,97.07371521834284 83.09958158945665,95.29182082216721 86.53389121312648,93.30028811609372 87.70878661051393,92.56656456214841 89.33556485315785,91.9376582398545 96.56569037633017,90.15575489157345 100.0,90.05093695095275 103.70543933054432,89.21239303797483 105.24184100376442,88.79312082356773 108.49539748951793,87.32566671923269 110.84518828475848,86.80157545709517 111.74895397480577,86.80157545709517 112.29121338902041,87.32566671923269 114.55062761483714,91.8328404816566 116.17740585748106,94.45328120840713 117.89456066954881,98.0170698176371 119.88284518802539,100.3230440627085 121.32887029275298,102.94346302689519 121.50962343066931,103.88681221019942 121.14811715483665,106.19277321489062 120.69623430911452,106.92648698936682 119.70209205010906,107.76501637278125 116.17740585748106,109.65170497016516 114.09874476958066,110.38541626220103 111.1163179911673,110.90949543437455 107.50125523004681,111.85283726663329 105.0610878658481,112.27210002427455 102.80167364003137,112.58654697891325 100.54225941421464,112.58654697891325 88.9740585773252,114.47322667879052 85.35899581573904,115.41656522336416 84.6359832631424,115.83582651882898 83.91297071101144,116.67434859462082 83.37071129633114,116.88397900632117 81.83430962311104,116.77916380600072 78.67112970678136,117.19842454302125" stroke="#4dd2ff" stroke-linecap="round" stroke-linejoin="round" stroke-width="0.5"><title>2023-04-11 2.4km</title></polyline><polyline fill="none" points="160.6275571938604,105.32313313754275 159.1949057802558,106.98466989491135 157.04592865891755,112.3846596532967 159.91123148798943,119.86155666713603 158.83674292638898,121.10770482872613 157.04592865891755,120.69232215010561 156.32960294932127,119.86155666713603 155.61327724345028,114.04619351541623 158.83674292638898,109.47697375505231 155.9714400973171,104.90774884121493 150.5989972911775,102.83082672278397 149.52450872957706,101.58467294089496 148.8081830199808,97.01543912640773 151.3153229970485,92.86158573254943 160.2693943399936,86.63079765764996 170.65611709840596,85.38463889225386 174.23774563521147,85.80002519022673 180.32651415094733,90.36927165160887 181.7591655664146,96.1846687886864 181.04283985868096,99.50774911767803 179.25202558748424,102.83082672278397 172.44693136774004,107.81543801841326 168.86530283093452,107.81543801841326 159.91123148798943,107.81543801841326 148.45002016797662,101.58467294089496 147.733694460243,99.09236422600225 148.45002016797662,91.20004318258725 162.06020860932767,83.30770676606335 166.35816285386682,81.6461602980271 170.29795424453914,80.8153868096415 173.52141992934048,81.6461602980271 177.81937417574227,85.80002519022673 181.04283985868096,92.0308145438321 180.32651415094733,98.26159431342967 176.74488561414182,102.41544217057526 172.44693136774004,104.90774884121493 163.49286002479494,105.73851739056408 158.12041721865535,107.40005397843197 150.95716014318168,103.66159569681622 149.88267158158123,101.58467294089496 150.2408344373107,99.09236422600225 154.18062582798302,94.10774219757877 159.91123148798943,90.78465743875131 166.00000000186265,84.13847974454984 169.22346568480134,83.72309327707626 172.08876851387322,84.96925255306996 176.74488561414182,89.12311403849162 178.89386273548007,92.86158573254943 179.6101884432137,97.84620929369703 178.17753702774644,101.58467294089496 175.67039705254138,104.0769801212009 171.73060566186905,106.1539016009774 163.13469717092812,105.73851739056408 157.7622543629259,106.56928576854989 153.4643001202494,103.66159569681622 148.8081830199808,102.00005757715553 147.01736875250936,100.33851877436973 146.65920589864254,97.4308242322877 147.733694460243,89.95388582302257 149.16634587571025,87.876956039574 153.8224629741162,83.72309327707626 157.04592865891755,82.06154697807506 166.00000000186265,80.4000000001397 171.73060566186905,81.2307735751383 174.23774563521147,82.89232021360658 178.53569988161325,87.46156995533966 180.68467700481415,91.61542888451368 180.68467700481415,93.2769712631125 180.32651415094733,95.76928355474956 178.53569988161325,98.67697929032147 176.38672275841236,101.16928825993091 171.3724428061396,103.66159569681622 159.5530686341226,106.56928576854989 157.7622543629259,106.1539016009774 154.896951533854,103.66159569681622 150.5989972911775,101.58467294089496 149.52450872957706,99.50774911767803 149.88267158158123,94.10774219757877 152.03164870478213,90.78465743875131 163.85102287866175,82.47693361691199 167.79081427119672,81.6461602980271 169.93979139253497,82.47693361691199 173.8795827832073,85.38463889225386 177.4612113200128,89.12311403849162 178.53569988161325,91.61542888451368 178.53569988161325,94.52312760148197 177.4612113200128,99.50774911767803 174.23774563521147,104.49236450297758 170.65611709840596,106.1539016009774 159.1949057802558,106.98466989491135 150.2408344373107,101.16928825993091 148.8081830199808,99.09236422600225 148.45002016797662,97.01543912640773 149.16634587571025,91.20004318258725 150.5989972911775,88.70772808114998 166.35816285386682,80.8153868096415 168.86530283093452,80.8153868096415 174.59590849094093,84.55386616941541 181.04283985868096,91.20004318258725 181.7591655664146,93.69235675223172 181.40100271254778,96.6000539783854 180.68467700481415,98.67697929032147 179.25202558748424,101.16928825993091 173.52141992934048,104.90774884121493 161.34388290159404,108.23082201718353 157.40409151092172,107.81543801841326 153.4643001202494,105.73851739056408 151.6734858509153,103.66159569681622 151.3153229970485,99.50774911767803 153.10613726638258,94.52312760148197 158.12041721865535,92.0308145438321 166.35816285386682,86.63079765764996 169.22346568480134,85.38463889225386 171.01427995413542,85.80002519022673 174.23774563521147,87.876956039574 177.81937417574227,90.78465743875131 178.89386273548007,92.44620015844703 179.6101884432137,98.26159431342967 178.89386273548007,101.16928825993091 177.4612113200128,102.83082672278397 175.31223419681191,104.0769801212009 167.79081427119672,104.90774884121493 158.47858007252216,106.98466989491135 150.95716014318168,102.00005757715553 148.8081830199808,98.26159431342967 148.45002016797662,95.76928355474956 149.16634587571025,91.61542888451368 149.88267158158123,89.95388582302257 152.7479744143784,87.46156995533966 160.2693943399936,85.80002519022673 168.1489771232009,81.2307735751383 171.73060566186905,82.06154697807506 178.53569988161325,88.70772808114998 179.96835129708052,90.36927165160887 181.04283985868096,94.52312760148197 179.96835129708052,99.09236422600225 178.17753702774644,102.00005757715553 176.38672275841236,103.66159569681622 161.7020457573235,107.40005397843197 155.25511438958347,111.5538924660068 155.25511438958347,114.87696019024588 157.40409151092172,121.52308746357448 158.83674292638898,123.18461757735349 161.34388290159404,123.60000000009313 173.16325707547367,121.938470055582 176.38672275841236,122.76923511293717 180.68467700481415,120.69232215010561 185.3407941032201,117.36925919516943" stroke="#4dd2ff" stroke-linecap="round" stroke-linejoin="round" stroke-width="0.5"><title>2023-04-10 2.2km</title></polyline><polyline fill="none" points="18.357865106430836,171.60000000000582 18.28465698682703,170.95021333667682 18.187046160688624,170.6676969214168 17.918616388575174,170.07441151313833 17.84540826897137,169.4811248361948 17.84540826897137,168.63357024011202 17.991824508295394,167.70125719407224 18.162643454154022,167.10796544278855 18.723905704682693,165.44109135240433 18.967932769912295,164.84779476819676 19.236362542025745,163.7742072479159 19.700013966299593,162.44634325249353 20.26127621671185,161.2597360072832 20.993357412982732,159.3102988009923 21.28618989151437,158.77349484612932 21.554619663511403,157.72813679551473 22.01827108778525,156.45675007411046 22.140284620574676,155.49614290933823 22.384311685920693,154.70505215841695 22.872365816729143,153.63142538827378 23.628849719534628,150.83432560533402 23.921682198066264,149.9302065129159 24.50734715501312,148.48926061877864 24.800179633544758,147.44386381463846 25.11741481872741,146.62449599805404 25.36144188407343,146.14417580788722 25.483455416746438,145.91814248941955 25.825093308347277,145.52258373898803 25.922704134485684,145.2965499140555 26.313147439272143,143.96859747293638 27.04522863542661,142.18856614362448 27.484477353282273,141.28441887168447 27.801712538232096,140.15423063730123 28.14335042994935,139.3348412879277 28.460585614899173,138.3459198839846 28.753418093547225,137.6678003121051 29.046250571962446,137.1026994024578 29.217069517704658,136.96142399517703 29.509901996236295,136.9896790823841 31.925769943976775,137.6960553273966 32.2918105419958,137.86558535849326 32.80426737945527,137.61129027302377 33.60955669544637,136.3115561948216 34.36604059813544,135.20960296646808 34.756483902805485,134.67275237175636 35.17132991401013,134.22066685452592 36.14743817562703,133.40125997626456 37.806822220562026,132.29929518539575 38.83173589548096,131.79069457444712 39.295387319638394,131.64941646138323 39.66142791789025,131.64941646138323 39.92985768977087,131.28209303077892 39.92985768977087,131.14081465872005 40.56432805978693,130.71697911075898 40.686341592576355,130.34965444522095 40.85716053843498,128.7955831697036 40.93036865792237,128.6260475946474 41.19879842991941,128.39999999999418 42.46773917018436,128.76732724768226 42.85818247473799,128.82383908875636 45.640091020730324,128.90860682877246 46.54299116274342,129.0498863378598 46.616199282347225,129.1063981213956 46.71381010848563,129.2194216538337 46.83582364115864,129.78453862527385 46.811420934740454,130.0953524687502 46.71381010848563,130.46267747099046 46.73821281502023,130.68872338457732 46.957837173948064,130.71697911075898 47.27507235889789,128.9368627363292 47.42148859822191,128.76732724768226 47.738723783171736,128.73907132277964 47.88514002249576,128.7955831697036 47.982750848750584,128.99337454291526 48.05595896835439,130.0953524687502 48.129167087958194,130.34965444522095 48.22677791421302,130.5191889666894 48.568415805813856,130.68872338457732 49.37370512157213,130.94302481692284 49.81295383942779,130.94302481692284 50.15459173102863,130.85825769871008" stroke="#4dd2ff" stroke-linecap="round" stroke-linejoin="round" stroke-width="0.5"><title>2023-04-09 2.8km</title></polyline><polyline fill="none" points="111.2984615387395,128.88678862334928 110.71692307665944,131.6762916498119 110.55076923081651,131.9648604579852 110.30153846181929,132.0610500414041 110.63384615443647,131.6762916498119 111.38153846142814,133.02294533402892 111.21538461558521,134.75435439223656 111.04923076927662,135.3314900394762 110.63384615443647,135.81243614293635 110.63384615443647,137.64002910198178 110.88307692296803,138.7942965166294 110.05230769235641,141.39139304187847 109.72000000020489,142.06471319723641 109.0553846154362,142.73803287261399 109.0553846154362,142.930409834662 109.38769230805337,143.02659830078483 109.0553846154362,143.02659830078483 108.80615384597331,143.5075404854142 107.97538461536169,145.71987137908582 106.81230769213289,147.25888111803215 106.06461538467556,148.8940762176644 105.89846153836697,149.37501541426172 105.98153846152127,150.04832987772534 106.31384615367278,150.52926848642528 106.39692307682708,150.8178315339028 105.15076923090965,154.47295583825326 103.57230769190937,158.2242529154173 103.57230769190937,158.51281361177098 103.73846153821796,158.51281361177098 104.48615384567529,157.8395051829284 104.40307692345232,159.57086874451488 103.82153846137226,160.34036264166934 103.40615384606645,161.97553509217687 102.07692307699472,161.49460231233388 100.91384615423158,161.3022291319794 100.6646153847687,161.3984157271334 100.6646153847687,161.78316200955305 100.83076923107728,161.20604252710473 100.5815384616144,160.91748265339993 98.67076923092827,159.7632422776078 97.09230769239366,159.0899347399827 95.84615384601057,158.9937479098444 95.59692307701334,159.57086874451488 95.34769230755046,158.2242529154173 96.17846153862774,156.30051268602256 96.17846153862774,155.9157641698257 95.18153846170753,156.39669979037717 94.93230769224465,156.39669979037717 95.09846153855324,156.20432557171443 95.09846153855324,156.4928868850111 94.51692307693884,157.8395051829284 94.68307692324743,158.03187906870153 95.01538461539894,157.7433182252571 95.18153846170753,158.60900049109478 94.93230769224465,158.4166267226101 93.52000000001863,158.51281361177098 92.85538461524993,158.2242529154173 91.94153846148401,157.7433182252571 91.85846153879538,157.7433182252571 91.85846153879538,157.93569213082083 92.19076923048124,158.03187906870153 92.52307692309842,157.93569213082083 92.7723076925613,157.7433182252571 92.7723076925613,157.26238329033367 92.60615384625271,156.68526104534976 91.69230769248679,156.0119513136451 90.94461538502946,155.819577016111 89.20000000018626,156.0119513136451 85.87692307680845,154.56914312887238 84.63076923042536,154.18439390766434 82.80307692289352,155.05007943545934 81.80615384597331,155.9157641698257 81.05846153851599,156.20432557171443 81.88923076912761,156.30051268602256 83.05230769235641,155.819577016111 81.4738461538218,156.20432557171443 81.30769230751321,156.20432557171443 81.22461538482457,156.4928868850111 81.72307692281902,157.07000924780732 81.88923076912761,157.45475729368627 81.64000000013039,158.80137422011467 82.13846153812483,158.9937479098444 83.38461538450792,159.18612156057497 82.47076923027635,159.474681963271 81.05846153851599,160.24417593888938 80.47692307690158,160.7251093555824 79.81230769213289,161.87934855592903 79.56307692313567,162.45646762708202 79.6461538458243,162.7450270304107 79.6461538458243,162.55265410465654 78.39999999990687,164.6687541330466 78.64923076936975,164.95731286035152 79.39692307682708,165.4382438767352 81.4738461538218,166.01536077325 84.63076923042536,167.84289528551744 86.29230769211426,168.42001071275445 87.28923076903448,168.5161965828156 87.45538461534306,168.42001071275445 87.12307692272589,168.227638942888 87.12307692272589,168.13145304343197 88.36923076910898,167.3619654936483 89.78153846180066,165.72680236928863 90.86153846140951,163.4183319619624 92.10769230732694,162.93739991699113 92.52307692309842,162.64884057221934 98.67076923092827,165.24587149970466 102.2430769233033,166.11154688842362 102.4092307696119,166.40010517509654 104.56923076929525,167.65052339842077 110.30153846181929,170.05516917456407 111.54769230727106,169.3818689744803 112.46153846150264,169.3818689744803 114.70461538480595,170.53609759517713 115.70153846172616,170.72846889484208 116.44923076918349,170.4399119305308 117.52923076925799,169.2856831922545 118.0276923077181,169.2856831922545 119.60615384625271,169.86279773776187 121.60000000009313,171.11321137665072" stroke="#4dd2ff" stroke-linecap="round" stroke-linejoin="round" stroke-width="0.5"><title>2023-04-09 2.5km</title></polyline><polyline fill="none" points="151.8183644338278,137.57686023696442 151.45616156083997,137.64148506577476 150.6760322957998,138.4492943091318 148.11275042535271,140.03259442036506 148.0848886659369,140.93733377044555 147.9455798685085,141.48663853734615 148.14061218476854,142.06825430615572 148.4192297795089,142.58524519955972 149.06005024712067,143.52228903281502 149.81231775251217,144.75013535635662 151.5676085986197,147.8197302413464 152.3755996230757,149.49991688830778 152.9606965717394,150.46925126493443 153.10000536905136,151.0831614950439 154.18661398801487,152.21404563143733 155.18963732861448,153.92651960082003 155.91404307459015,155.50974197589676 156.30410770711023,156.09133187189582 157.3349928073585,157.54530191779486 158.53304846410174,159.3869876828685 159.0624218939338,160.48553196387365 160.1490305130137,162.29489067036775 160.20475403196178,162.52105977851897 160.1490305130137,162.7795385607751 161.15205385361332,163.81345156999305 164.82980610255618,170.21071292238776 165.02483841881622,170.63073059148155 165.10842369718011,171.11536566817085 165.4984883298166,171.60000000000582 165.63779712701216,171.60000000000582 167.9781849217834,169.53222165963962 168.61900538951159,168.886038147175 170.90366966533475,167.07671726652188 172.3524811572861,166.10743395233294 175.19438062258996,163.74883210629923 175.94664812798146,163.264185706008 177.56263017689344,161.87486189621268 179.09502694720868,160.71170237008482 181.7418940961361,158.28843957386562 182.85636447463185,157.0283355587162 183.1628438286716,156.73754160906537 183.60863198013976,156.18826341698878 183.8036642962834,155.50974197589676 183.99869661254343,154.24962685376522 184.0544201314915,153.60341201676056 183.99869661254343,153.34492571098963 182.6613321583718,150.8246731227846 181.18465890688822,148.4982682345726 179.29005926346872,144.97631705220556 178.81640935258474,144.20083627654822 177.4790448982967,141.80975854137796 176.61533035512548,140.38802804626175 175.86306284961756,138.86935429743608 174.99934830632992,137.5445478176116 174.44211311708204,136.445923586376 173.578398573678,134.95954353149864 171.15442550042644,130.56498758873204 170.2628491978394,129.14320637099445 169.9563698436832,128.8200733815902 169.25982585700694,128.52925340781803 168.45183483266737,128.39999999999418 168.03390844073147,128.4323133568687 167.3930879731197,128.6585067625565 164.5233267485164,130.4034218642919 161.542118486017,132.11601432983298 160.8734362589894,132.60070862111752 159.3967630075058,133.50546930381097 155.99762835307047,135.44423344999086 153.65724055829924,136.639798728982 152.87711129325908,137.15679852612084 152.4870466608554,137.31836078883498 152.18056730681565,137.3829856707598" stroke="#ffb800" stroke-linecap="round" stroke-linejoin="round" stroke-width="0.5"><title>2023-04-09 4.1km</title></polyline><polyline fill="none" points="22.59249439649284,193.6800850359723 22.825300632975996,197.19008845440112 22.825300632975996,203.40008304268122 24.92055676318705,200.43008745787665 27.947037843056023,198.0000885790214 30.0422939741984,197.19008845440112 35.62964365724474,196.11008790088817 38.888930971734226,193.95008546486497 40.0529621578753,190.71007849019952 40.0529621578753,187.74006859352812 39.35454344749451,185.3100580063183 37.9577060258016,183.42004822031595 36.328062367625535,182.07004040060565 34.23280623648316,181.26003537676297 32.83596881572157,181.26003537676297 31.20632515847683,181.5300370787736 25.851781710982323,183.96005115448497 20.730044501833618,183.96005115448497 19.798819554038346,185.04005669103935 19.100400843657553,187.2000664351508 19.333207081072032,189.090073507512 21.42846321221441,191.79008125769906 29.34387526381761,196.92008835729212 39.58734968397766,193.4100845796056 41.68260581418872,193.4100845796056 40.984187103807926,191.79008125769906 40.0529621578753,190.71007849019952 38.190512262284756,189.6300752782263 36.0952561320737,189.090073507512 33.534387526102364,188.82007257989608 27.48142537008971,189.090073507512 23.058106869459152,188.2800706422422 18.63478837069124,188.55007162457332 21.894075685180724,189.6300752782263 25.618975474499166,193.4100845796056 27.714231605641544,193.95008546486497 35.86244989465922,193.95008546486497 39.35454344749451,192.8700835823547 40.51857463084161,192.060081880074 40.75138086732477,190.71007849019952 40.285768394358456,186.93006531358697 40.51857463084161,187.2000664351508 40.285768394358456,186.6600641645491 36.0952561320737,184.23005258082412 33.534387526102364,183.6900497013703 32.603162579238415,183.6900497013703 28.412650316022336,185.58005929319188 27.48142537008971,185.3100580063183 24.45494429115206,180.99003364611417 24.45494429115206,179.91002644971013 24.92055676318705,179.64002458075993 27.714231605641544,178.290014823433 33.301581288687885,176.4000000001397 36.0952561320737,176.4000000001397 37.259287315420806,177.4800086361356 37.9577060258016,178.5600168297533 37.9577060258016,181.8000387540087 35.16403118427843,188.55007162457332 32.603162579238415,192.60008304286748 30.507906447164714,193.1400840941351 27.01581289526075,189.6300752782263 23.058106869459152,187.47006752737798 21.894075685180724,187.47006752737798 20.49723826441914,188.01006963127293 19.100400843657553,189.6300752782263 18.63478837069124,190.44007772835903 19.333207081072032,190.71007849019952 23.058106869459152,190.44007772835903 24.22213805373758,191.79008125769906 24.687750527635217,196.11008790088817 23.52371934428811,199.89008790021762 23.52371934428811,204.75007992819883 24.45494429115206,206.64007440581918 26.31739418487996,207.720070641255 27.947037843056023,208.2600685930811 36.79367484152317,207.18007257883437 41.216993341222405,208.2600685930811 43.312249473296106,209.880061783595 44.70908689312637,212.31004970078357 44.243474420160055,214.74003537534736 43.312249473296106,215.82002828991972 34.0,218.52000863617286 30.507906447164714,217.71001482289284 28.878262789919972,216.6300226834137 27.48142537008971,214.47003707801923 25.618975474499166,212.58004821953364 24.687750527635217,209.880061783595 24.687750527635217,207.18007257883437 26.550200422294438,202.0500854642596 26.31739418487996,199.89008790021762 25.15336300060153,198.0000885790214 20.962850738316774,193.4100845796056 19.798819554038346,190.98007922293618 19.798819554038346,188.55007162457332 20.730044501833618,186.39006298803724 22.59249439649284,184.23005258082412 28.179844080470502,182.61004361184314 34.0,179.64002458075993 36.328062367625535,179.64002458075993 38.888930971734226,180.450030103093 40.51857463084161,182.07004040060565 41.216993341222405,183.6900497013703 40.984187103807926,188.55007162457332 39.82015592046082,191.52008060668595 38.190512262284756,193.1400840941351 36.560868605040014,193.95008546486497 28.645456553436816,196.38008808041923 27.01581289526075,196.65008823247626 25.38616923801601,195.57008745800704 22.59249439649284,192.33008247590624 20.031625791452825,190.71007849019952 19.100400843657553,189.090073507512 19.56601331848651,186.6600641645491 21.19565697479993,184.77005534805357 29.34387526381761,180.180028290255 31.20632515847683,179.64002458075993 34.46561247296631,179.91002644971013 38.190512262284756,180.99003364611417 40.285768394358456,182.61004361184314 41.216993341222405,184.50005397829227 41.449799578636885,187.2000664351508 41.216993341222405,189.090073507512 40.285768394358456,191.79008125769906 39.12173721008003,193.6800850359723 34.93122494779527,196.11008790088817 24.92055676318705,200.16008769278415 23.52371934428811,201.24008658598177 23.058106869459152,203.6700824748259 24.22213805373758,212.58004821953364 25.15336300060153,215.55003010248765 26.550200422294438,217.17001880914904 28.878262789919972,218.2500107260421 35.16403118427843,219.60000000009313 36.79367484152317,219.60000000009313 38.190512262284756,219.0600043735467 42.14821828901768,215.82002828991972 42.84663699846715,211.50005397736095 43.312249473296106,210.69005800504237 45.407505604438484,209.0700653125532 48.66679291985929,207.45007162354887 49.36521162930876,206.64007440581918 48.899599155411124,205.83007693849504 48.201180445961654,205.56007772730663 42.61383076198399,205.2900784886442" stroke="#4dd2ff" stroke-linecap="round" stroke-linejoin="round" stroke-width="0.5"><title>2023-04-06 2.2km</title></polyline><polyline fill="none" points="82.56071968376637,181.1127509479411 86.6242413111031,182.68366664205678 89.67188253067434,185.4327675565146 89.67188253067434,186.21822459832765 88.31737532094121,187.78913819836453 84.59248049743474,187.78913819836453 84.93110729940236,188.1818664984312 89.67188253067434,184.6473103549797 93.05815055221319,185.04003897611983 97.12167217954993,183.86185298953205 101.18519380688667,179.93456375482492 104.2328350264579,179.14910542452708 107.95772985182703,180.32729285908863 113.03713188506663,185.04003897611983 114.73026589490473,188.574594757054 116.08477310463786,193.28733072709292 113.37575868703425,200.3564238108229 112.02125147730112,201.14187779137865 102.5397010166198,201.14187779137865 98.81480618938804,201.9273316131439 96.10579177178442,200.74915082124062 90.6877629365772,194.4655138135422 84.25385369360447,191.71641938155517 82.56071968376637,188.574594757054 84.25385369360447,185.8254960970953 87.3014949131757,184.6473103549797 93.39677735604346,184.6473103549797 101.5238206088543,179.93456375482492 104.2328350264579,179.14910542452708 107.61910304799676,179.93456375482492 109.31223705969751,181.1127509479411 114.39163909293711,186.61095305881463 115.40751950070262,188.9673229767941 116.08477310463786,192.89460295112804 115.74614630453289,196.82187889982015 114.73026589490473,198.785515363561 111.6826246753335,200.3564238108229 106.26459584012628,200.3564238108229 97.12167217954993,201.53460472240113 84.59248049743474,190.93096346687526 84.25385369360447,190.14550739270635 84.93110729940236,188.1818664984312 92.04227014444768,183.0763954659924 103.89420822262764,179.5418346102815 108.63498345576227,180.72002192446962 114.05301229096949,186.21822459832765 114.73026589490473,187.39640986011364 115.74614630453289,193.68005846231245 115.40751950070262,197.2146062727552 113.37575868703425,199.9636967596598 109.65086386166513,201.14187779137865 101.5238206088543,199.9636967596598 96.44441857561469,200.74915082124062 94.41265776008368,199.57096966775134 92.71952375024557,196.4291514866054 90.01050933264196,194.07278615864925 86.28561450727284,192.109147278592 84.93110729940236,190.93096346687526 83.57660008966923,187.00368147948757 84.93110729940236,183.86185298953205 87.64012171700597,182.68366664205678 90.01050933264196,182.68366664205678 93.05815055221319,184.25458169262856 97.46029898151755,183.4691242480185 101.86244741082191,183.0763954659924 105.92596903815866,180.72002192446962 108.63498345576227,179.93456375482492 110.66674426943064,180.72002192446962 115.40751950070262,185.04003897611983 116.42339990660548,188.1818664984312 116.76202671043575,190.93096346687526 116.08477310463786,194.07278615864925 115.06889269687235,196.4291514866054 112.35987827926874,198.0000608987175 97.12167217954993,201.53460472240113 86.28561450727284,194.4655138135422 83.9152268934995,190.5382354487665 83.9152268934995,189.36005115509033 85.26973409950733,185.04003897611983 87.3014949131757,183.86185298953205 91.70364334248006,185.04003897611983 95.42853816971183,184.25458169262856 101.5238206088543,181.1127509479411 104.57146182842553,180.32729285908863 106.6032226420939,180.32729285908863 108.97361025772989,181.5054799320642 113.03713188506663,185.04003897611983 114.05301229096949,187.39640986011364 115.06889269687235,192.109147278592 114.73026589490473,196.82187889982015 113.37575868703425,198.785515363561 111.34399787336588,199.9636967596598 98.47617938928306,201.53460472240113 94.07403095811605,199.57096966775134 86.28561450727284,194.07278615864925 84.59248049743474,192.5018751360476 83.9152268934995,190.93096346687526 83.9152268934995,188.574594757054 85.26973409950733,183.0763954659924 86.96286811307073,182.29093777923845 90.6877629365772,182.68366664205678 92.71952375024557,181.89820887544192 100.16931340098381,177.1854588945862 103.55558142066002,176.4000000001397 106.94184944406152,177.1854588945862 112.02125147730112,181.1127509479411 113.71438548900187,184.25458169262856 114.39163909293711,189.36005115509033 113.03713188506663,194.8582414293196 110.32811746560037,196.82187889982015 104.57146182842553,197.60733360634185 98.81480618938804,197.60733360634185 96.10579177178442,196.4291514866054 93.39677735604346,195.64369653747417 88.65600212290883,193.68005846231245 86.6242413111031,192.109147278592 85.94698770530522,189.7527792940382 86.6242413111031,186.61095305881463 87.97874851897359,184.6473103549797 92.38089694827795,186.21822459832765 97.79892578348517,185.8254960970953 102.5397010166198,179.14910542452708 104.2328350264579,178.36364693264477 106.94184944406152,179.14910542452708 112.35987827926874,183.0763954659924 114.73026589490473,186.21822459832765 116.08477310463786,189.7527792940382 116.08477310463786,193.68005846231245 115.40751950070262,196.03642403124832 114.05301229096949,197.60733360634185 111.34399787336588,198.785515363561 98.47617938928306,200.3564238108229 96.44441857561469,199.9636967596598 94.07403095811605,198.0000608987175 92.71952375024557,198.39278815081343 86.96286811307073,196.4291514866054 84.25385369360447,193.28733072709292 82.89934648387134,189.36005115509033 82.89934648387134,186.61095305881463 84.59248049743474,185.04003897611983 86.28561450727284,184.6473103549797 90.34913613460958,185.04003897611983 95.42853816971183,183.4691242480185 99.83068659715354,182.68366664205678 104.57146182842553,179.93456375482492 107.95772985182703,181.1127509479411 112.69850508309901,186.61095305881463 114.05301229096949,190.93096346687526 114.39163909293711,196.03642403124832 114.05301229096949,198.0000608987175 112.69850508309901,199.9636967596598 110.66674426943064,200.74915082124062 105.92596903815866,200.3564238108229 101.86244741082191,200.74915082124062 93.05815055221319,206.2473247477319 92.38089694827795,208.2109563809354 93.05815055221319,216.85092360619456 94.07403095811605,218.02909944579005 95.7671649698168,219.20727492240258 101.5238206088543,218.81454980396666 105.58734223432839,219.60000000009313 107.95772985182703,219.20727492240258 114.39163909293711,215.67274740501307 117.43928031437099,214.88729640329257" stroke="#4dd2ff" stroke-linecap="round" stroke-linejoin="round" stroke-width="0.5"><title>2023-04-04 2.2km</title></polyline><polyline fill="none" points="160.96634802408516,200.33521611243486 159.70793503057212,200.0433244453743 159.20456983242184,200.62710775062442 158.70120463520288,201.502782483818 159.20456983242184,202.96223977324553 160.21130022779107,202.96223977324553 167.00673039630055,197.12440612516366 177.57739954534918,193.32980783493258 178.58412994164973,192.16223811241798 178.83581253886223,190.41088263131678 178.08076474256814,184.86491650086828 177.57739954534918,183.11355653055944 175.56393875554204,180.77840822865255 171.28533457498997,177.2756821832154 169.02019118517637,176.4000000001397 166.25168260000646,177.2756821832154 160.71466542501003,180.48651455622166 158.1978394370526,180.48651455622166 156.18437864724547,180.19462085375562 153.91923525743186,181.36219548410736 153.16418746113777,182.82166309771128 152.91250486299396,183.6973433070816 153.4158700602129,184.28112996462733 157.69447423890233,187.7838473902084 161.97307841852307,193.03791544935666 165.49663480278105,194.7892693139147 172.29206496942788,194.7892693139147 178.83581253886223,193.62170019070618 180.09422553423792,192.45413058740087 179.59086033515632,190.9946679121349 179.3391777370125,187.7838473902084 176.8223517490551,184.28112996462733 173.8021605629474,182.52976963552646 167.25841299444437,181.65408906619996 162.2247610175982,182.52976963552646 158.70120463520288,182.23787614284083 155.1776482509449,178.15136409923434 152.66082226391882,176.98378815222532 151.15072667133063,177.2756821832154 150.89904407132417,177.56757618533447 150.89904407132417,178.73515189322643 153.91923525743186,181.9459826196544 157.44279164075851,184.86491650086828 161.72139582037926,193.32980783493258 164.74158700648695,195.9568379591219 167.5100955935195,197.70819002878852 171.28533457498997,197.12440612516366 175.56393875554204,195.08116152044386 177.32571694534272,193.32980783493258 178.33244734164327,191.57845307164825 178.33244734164327,186.61627539270557 177.57739954534918,184.28112996462733 176.8223517490551,183.11355653055944 172.54374756943434,180.48651455622166 169.2718737842515,179.61083335918374 167.25841299444437,179.90272712148726 163.7348566101864,181.65408906619996 160.21130022779107,181.9459826196544 157.1911090426147,181.36219548410736 153.91923525743186,183.98923665075563 153.66755265835673,186.03248921595514 154.17091785743833,188.07574031525292 155.1776482509449,189.24331171251833 159.70793503057212,190.9946679121349 162.9798088138923,196.2487300450448 164.23822180833668,196.54062210209668 172.54374756943434,195.66494584316388 175.81562135368586,194.49737707758322 177.0740343471989,193.03791544935666 177.82908214442432,191.57845307164825 178.33244734164327,188.65952607314102 178.08076474256814,185.4487029183656 177.57739954534918,183.6973433070816 176.31898655183613,181.65408906619996 173.29879536572844,178.73515189322643 170.27860417962074,177.56757618533447 168.76850858703256,177.85947015788406 162.7281262166798,181.07030187174678 159.20456983242184,181.36219548410736 156.68774384446442,180.19462085375562 155.1776482509449,180.77840822865255 154.17091785743833,181.65408906619996 153.91923525743186,182.82166309771128 154.42260045465082,184.57302324683405 157.44279164075851,186.90816843719222 159.70793503057212,188.95141890714876 161.72139582037926,194.49737707758322 164.23822180833668,195.08116152044386 170.53028677869588,195.08116152044386 175.31225615553558,193.62170019070618 176.8223517490551,192.16223811241798 177.82908214442432,190.11898994655348 178.08076474256814,188.65952607314102 177.57739954534918,185.15680972416885 177.0740343471989,183.98923665075563 175.56393875554204,182.52976963552646 173.8021605629474,181.65408906619996 168.2651433898136,180.77840822865255 158.95288723427802,182.52976963552646 155.42933085095137,180.77840822865255 153.4158700602129,182.23787614284083 152.40913966484368,183.98923665075563 152.66082226391882,185.4487029183656 154.42260045465082,188.65952607314102 158.95288723427802,191.28656050679274 161.46971322223544,195.08116152044386 164.4899044074118,195.9568379591219 173.55047796480358,195.37305369623937 176.06730395182967,194.20548481191508 177.32571694534272,192.74602303327993 178.33244734164327,190.11898994655348 178.33244734164327,188.65952607314102 178.08076474256814,185.7405960818287 176.31898655183613,183.6973433070816 174.55720835924149,182.52976963552646 172.79543016757816,182.23787614284083 164.74158700648695,183.11355653055944 161.97307841852307,182.52976963552646 157.44279164075851,179.90272712148726 154.92596565373242,179.90272712148726 152.91250486299396,180.77840822865255 155.42933085095137,185.15680972416885 159.45625243149698,189.24331171251833 161.2180306231603,193.03791544935666 163.4831740129739,193.91359251644462 171.78869977220893,194.7892693139147 177.82908214442432,193.62170019070618 178.83581253886223,191.87034560739994 179.3391777370125,189.24331171251833 178.33244734164327,185.15680972416885 175.56393875554204,182.82166309771128 171.78869977220893,181.36219548410736 162.9798088138923,181.9459826196544 157.44279164075851,179.90272712148726 155.6810134490952,179.90272712148726 153.16418746113777,181.07030187174678 152.91250486299396,182.23787614284083 153.91923525743186,184.57302324683405 160.21130022779107,190.11898994655348 162.7281262166798,195.08116152044386 164.23822180833668,196.54062210209668 165.74831740185618,197.12440612516366 173.55047796480358,196.2487300450448 177.32571694534272,194.20548481191508 179.08749513793737,192.45413058740087 179.3391777370125,190.11898994655348 177.57739954534918,183.98923665075563 176.57066914997995,182.52976963552646 170.78196937777102,176.69189409120008 169.52355638332665,176.4000000001397 167.25841299444437,177.56757618533447 164.74158700648695,180.48651455622166 162.9798088138923,181.36219548410736 160.96634802408516,181.9459826196544 154.67428305465728,181.65408906619996 152.91250486299396,182.52976963552646 153.66755265835673,184.28112996462733 155.1776482509449,185.7405960818287 159.70793503057212,189.53520448692143 162.7281262166798,193.91359251644462 163.4831740129739,194.49737707758322 165.2449522037059,195.08116152044386 169.2718737842515,195.66494584316388 173.55047796480358,197.4162980923429 177.57739954534918,197.4162980923429 178.83581253886223,196.8325141291134 180.34590813145041,191.87034560739994 180.09422553423792,188.36763320863247 179.3391777370125,186.32438232027926 176.57066914997995,182.23787614284083 172.0403823722154,180.19462085375562 166.25168260000646,179.90272712148726 160.71466542501003,180.19462085375562 158.44952203705907,179.61083335918374 156.93942644353956,179.61083335918374 155.42933085095137,180.19462085375562 152.91250486299396,182.52976963552646 152.91250486299396,183.6973433070816 153.66755265835673,185.15680972416885 156.43606124725193,187.4919544358272 160.4629828268662,190.11898994655348 163.4831740129739,194.7892693139147 165.49663480278105,195.66494584316388 169.52355638332665,195.37305369623937 172.54374756943434,195.9568379591219 175.06057355646044,195.66494584316388 177.32571694534272,195.08116152044386 178.33244734164327,194.20548481191508 179.08749513793737,192.45413058740087 179.59086033515632,187.7838473902084 178.33244734164327,185.7405960818287 176.31898655183613,183.98923665075563 170.53028677869588,181.65408906619996 168.51682598795742,181.36219548410736 162.47644361667335,182.23787614284083 157.44279164075851,181.07030187174678 156.43606124725193,181.36219548410736 153.91923525743186,183.98923665075563 153.66755265835673,185.7405960818287 155.1776482509449,187.4919544358272 159.20456983242184,190.9946679121349 160.96634802408516,194.7892693139147 161.2180306231603,196.2487300450448 159.70793503057212,198.5838656593114 159.70793503057212,202.0865654887166 161.72139582037926,208.2162798217032 164.23822180833668,209.67573367082514 167.00673039630055,209.9676243502181 173.0471127666533,208.80006145173684 177.82908214442432,208.50817065150477 179.84254293516278,209.67573367082514 180.8492733296007,211.1351867709309 180.8492733296007,212.01085827173665 179.59086033515632,214.0540907268878 174.30552576109767,216.3892117375508 171.03365197591484,218.7243308336474 168.51682598795742,219.60000000009313 167.00673039630055,219.30811030813493 164.4899044074118,218.14055123901926 163.4831740129739,213.76220046635717 163.4831740129739,212.3027487124782 164.23822180833668,211.1351867709309 169.02019118517637,207.34060715441592 171.5370171731338,206.4649342163466 178.83581253886223,202.3784569464624 180.8492733296007,202.0865654887166 180.8492733296007,203.83791378792375 180.59759073145688,203.83791378792375 181.10095592867583,203.25413114135154 180.59759073145688,202.67034837510437 180.8492733296007,202.96223977324553" stroke="#ffd700" stroke-linecap="round" stroke-linejoin="round" stroke-width="0.5"><title>2023-04-01 3.2km</title></polyline><polyline fill="none" points="31.03431378118694,242.56059426814318 28.89901970513165,245.0370294204913 25.3401962434873,248.33893940178677 27.000980526208878,246.412825739244 31.508823576383293,243.6612323957961 33.88137255050242,242.83575384202413 38.86372539680451,243.11091338773258 40.9990194728598,242.56059426814318 42.42254885751754,241.45995568926446 43.60882334411144,239.258677177364 44.0833331393078,235.68159574479796 43.37156844697893,232.6548308096826 42.185293960385025,230.4535450770054 39.33823519106954,227.70193537068553 36.96568621695042,226.8764519081451 34.355882345698774,227.15161309065297 28.18725501280278,230.72870589210652 25.814706038683653,230.4535450770054 22.73039237316698,228.80257959174924 20.832353193312883,229.62806246080436 21.78137278277427,230.72870589210652 26.76372562814504,233.20515196141787 29.610784396529198,237.60771710891277 31.271568679250777,238.4331972701475 38.62647049874067,238.4331972701475 42.42254885751754,237.60771710891277 43.60882334411144,236.50707649905235 44.0833331393078,235.4064354384318 42.42254885751754,231.82934887171723 40.049999883398414,230.4535450770054 37.20294111408293,229.62806246080436 34.355882345698774,230.17838423280045 29.136274602264166,232.10450954572298 26.526470731012523,231.82934887171723 23.679411961697042,230.17838423280045 22.96764726936817,230.4535450770054 22.018627680838108,231.55418816953897 21.54411788471043,232.92999139940366 22.018627680838108,234.30579392472282 27.238235423341393,237.88287719059736 30.797058884985745,243.11091338773258 31.983333371579647,243.9363918567542 34.355882345698774,244.48671069485135 40.049999883398414,243.11091338773258 41.948039062321186,242.28543466585688 43.13431354984641,241.45995568926446 44.0833331393078,239.258677177364 44.320588037371635,237.33255699882284 43.84607824124396,234.5809543458745 42.42254885751754,232.37967019155622 38.62647049874067,229.62806246080436 35.30490193516016,228.80257959174924 27.950000115670264,232.10450954572298 26.05196093674749,231.82934887171723 23.442157064564526,230.72870589210652 21.78137278277427,231.0038666788023 20.832353193312883,232.37967019155622 20.832353193312883,233.75547299906611 21.78137278277427,234.8561147376895 25.814706038683653,237.33255699882284 29.373529499396682,240.63447645911947 31.03431378118694,241.18479597358964 37.9147058064118,241.45995568926446 40.28725478146225,241.18479597358964 41.948039062321186,240.08415683126077 43.13431354984641,238.4331972701475 43.60882334411144,236.50707649905235 43.60882334411144,234.8561147376895 43.13431354984641,233.75547299906611 40.28725478146225,231.2790274382569 36.7284313198179,230.17838423280045 29.136274602264166,231.2790274382569 24.62843155208975,230.72870589210652 22.2558825770393,231.82934887171723 21.78137278277427,232.92999139940366 21.78137278277427,234.03063347632997 22.73039237316698,235.68159574479796 26.76372562814504,238.70835726801306 29.610784396529198,242.28543466585688 30.797058884985745,243.11091338773258 32.93235296104103,243.6612323957961 39.33823519106954,243.38607290573418 42.659803754650056,242.01027503516525 43.60882334411144,240.9096362304408 44.320588037371635,238.98351723654196 44.55784293357283,237.33255699882284 43.84607824124396,234.03063347632997 40.9990194728598,230.17838423280045 38.86372539680451,228.80257959174924 36.01666662655771,227.97709646844305 28.661764807999134,231.2790274382569 26.289215833880007,231.55418816953897 23.442157064564526,231.0038666788023 21.54411788471043,231.0038666788023 21.0696080904454,231.55418816953897 21.306862987577915,232.92999139940366 22.2558825770393,234.5809543458745 25.102941346354783,237.33255699882284 27.475490319542587,241.18479597358964 29.373529499396682,243.11091338773258 33.16960785817355,245.0370294204913 37.20294111408293,244.76187007129192 40.9990194728598,243.11091338773258 43.37156844697893,240.35931665892713 44.0833331393078,237.88287719059736 44.0833331393078,230.72870589210652 38.62647049874067,228.5274185782764 34.59313724283129,227.97709646844305 28.89901970513165,231.0038666788023 22.96764726936817,231.2790274382569 21.0696080904454,232.37967019155622 20.595098296180367,233.48031249502674 21.306862987577915,234.8561147376895 24.62843155208975,237.0573968612589 27.475490319542587,240.9096362304408 28.661764807999134,241.73511537653394 34.830392139963806,242.56059426814318 39.33823519106954,242.28543466585688 41.236274369992316,241.45995568926446 42.42254885751754,240.08415683126077 43.37156844697893,238.15803724480793 43.60882334411144,236.23191627650522 42.659803754650056,234.03063347632997 37.9147058064118,229.62806246080436 36.253921524621546,229.35290153254755 34.59313724283129,229.62806246080436 27.950000115670264,232.10450954572298 25.814706038683653,231.82934887171723 22.96764726936817,230.17838423280045 22.018627680838108,230.72870589210652 21.306862987577915,232.37967019155622 21.78137278277427,235.4064354384318 23.20490216743201,237.60771710891277 27.950000115670264,239.80899697518907 31.271568679250777,242.83575384202413 32.220588269643486,243.11091338773258 36.01666662655771,242.01027503516525 40.524509677663445,241.73511537653394 42.185293960385025,240.9096362304408 43.60882334411144,239.258677177364 44.320588037371635,236.78223669412546 44.55784293357283,234.5809543458745 44.0833331393078,231.55418816953897 43.37156844697893,229.90322336088866 41.948039062321186,228.2522575375624 40.28725478146225,226.8764519081451 37.9147058064118,226.6012906981632 35.77941172942519,227.15161309065297 30.797058884985745,231.2790274382569 29.136274602264166,232.10450954572298 27.000980526208878,232.10450954572298 24.391176654025912,231.0038666788023 22.2558825770393,231.2790274382569 21.306862987577915,232.10450954572298 21.306862987577915,233.20515196141787 21.78137278277427,235.68159574479796 22.49313747510314,236.78223669412546 26.76372562814504,238.4331972701475 29.373529499396682,242.28543466585688 31.508823576383293,243.11091338773258 39.57549008820206,242.56059426814318 41.71078416425735,242.01027503516525 43.13431354984641,240.63447645911947 44.0833331393078,237.88287719059736 43.84607824124396,235.95675602462143 42.42254885751754,234.03063347632997 39.812744985334575,232.37967019155622 36.01666662655771,231.55418816953897 29.136274602264166,232.92999139940366 24.15392175782472,232.10450954572298 22.2558825770393,232.92999139940366 21.78137278277427,234.5809543458745 22.2558825770393,235.95675602462143 23.442157064564526,237.0573968612589 28.89901970513165,239.80899697518907 30.797058884985745,242.83575384202413 32.45784316584468,244.2115512904711 33.88137255050242,244.48671069485135 40.524509677663445,242.83575384202413 42.42254885751754,241.18479597358964 43.13431354984641,239.80899697518907 43.37156844697893,237.0573968612589 43.13431354984641,231.55418816953897 42.659803754650056,229.35290153254755 41.71078416425735,227.97709646844305 37.67745090927929,224.67516143550165 36.49117642175406,224.4000000001397 35.542156832292676,224.95032284315675 31.271568679250777,229.0777405758854 28.661764807999134,230.72870589210652 26.76372562814504,231.0038666788023 23.91666685976088,230.72870589210652 22.73039237316698,231.2790274382569 21.54411788471043,232.37967019155622 21.0696080904454,233.75547299906611 21.0696080904454,234.8561147376895 22.018627680838108,236.23191627650522 27.000980526208878,239.258677177364 28.89901970513165,242.83575384202413 29.136274602264166,245.31218874105252 27.000980526208878,247.788621353684 26.76372562814504,250.26505168131553 27.712745217606425,253.0166382554453 28.89901970513165,254.94274717825465 32.220588269643486,256.0433802274056 37.9147058064118,255.49306375952438 42.897058652713895,256.3185384196695 45.032352729700506,257.41917090537027 47.167646805755794,260.1707501448691 47.40490170288831,261.54653870570473 47.167646805755794,262.64716904819943 45.2696076259017,264.29811371397227 37.9147058064118,267.324842964299 34.355882345698774,267.60000000009313 32.220588269643486,267.0496859003324 30.085294192656875,265.3987429270055 29.136274602264166,261.82169633382 29.373529499396682,259.89559234748594 31.508823576383293,256.8688547189813 33.88137255050242,256.0433802274056 38.86372539680451,256.5936965837609 42.897058652713895,252.74147972511128 46.21862721629441,251.91600396414287" stroke="#ffda00" stroke-linecap="round" stroke-linejoin="round" stroke-width="0.5"><title>2023-03-31 3.1km</title></polyline><polyline fill="none" points="97.8704225346446,254.99720067856833 97.26197182945907,257.1141730148811 93.30704225227237,260.28962907753885 90.26478873193264,260.99528558179736 87.22253520973027,260.64245734759606 86.91830985806882,259.93680077046156 89.9605633802712,255.35002949205227 95.13239436596632,251.1160813467577 97.26197182945907,250.41042281594127 104.56338028237224,249.3519347482361 107.90985915437341,247.234957637731 109.43098591454327,244.05948952957988 109.73521126806736,240.53118819603696 109.12676056101918,236.29722181917168 107.60563380271196,232.76891252677888 106.3887323923409,231.00475652469322 101.82535211183131,227.82927344064228 96.34929577447474,226.77077842713334 95.13239436596632,227.4764418064151 92.09014084376395,231.35758779686876 89.35211267508566,233.47457467508502 84.48450704105198,235.23872941127047 79.00845070369542,238.76703617163002 81.13802816905081,241.5896789766848 87.52676056325436,244.7651493619196 93.00281690061092,249.3519347482361 94.82816901430488,249.704764140537 103.95492957532406,248.646275856765 109.43098591454327,246.88212799234316 110.64788732491434,244.41231946414337 110.03943661786616,239.82552749384195 107.30140845105052,235.9443910527043 96.65352112613618,232.06325023411773 89.9605633802712,233.82740569417365 86.30985915474594,233.47457467508502 84.18028168939054,232.76891252677888 80.52957746386528,234.18023667833768 80.52957746386528,235.9443910527043 81.44225351884961,237.7085445234552 88.74366197176278,244.41231946414337 92.39436619728804,250.41042281594127 95.13239436596632,252.17456887220033 97.56619718112051,252.17456887220033 106.0845070425421,249.3519347482361 109.73521126806736,246.1764685944654 111.25633802823722,243.35382955218665 110.03943661786616,236.65005255001597 106.0845070425421,235.59156024968252 102.73802816867828,231.35758779686876 97.56619718112051,230.65192521479912 95.13239436596632,231.00475652469322 88.43943661823869,234.18023667833768 83.26760563254356,233.82740569417365 79.92112675867975,236.29722181917168 81.44225351884961,238.41420565894805 86.30985915474594,240.88401849172078 88.43943661823869,243.00099950958975 90.56901408359408,246.52929831133224 92.09014084376395,247.94061681977473 95.74084506928921,248.646275856765 103.65070422366261,247.94061681977473 105.17183098569512,247.234957637731 107.60563380271196,245.11797922546975 109.73521126806736,240.17835786286741 110.03943661786616,238.41420565894805 108.82253520935774,233.47457467508502 108.5183098576963,229.59343107091263 107.30140845105052,228.88776812679134 100.60845070332289,228.88776812679134 93.9154929574579,233.12174361967482 89.9605633802712,234.18023667833768 87.8309859149158,233.82740569417365 83.57183098606765,231.71041903388686 82.65915492922068,232.76891252677888 80.22535211220384,237.00288324453868 82.96338028088212,239.82552749384195 88.43943661823869,242.2953393147327 90.56901408359408,245.4708090510685 91.48169014044106,247.94061681977473 92.69859154708683,248.9991053205449 100.91267605684698,249.3519347482361 105.78028168901801,248.29344635666348 107.60563380271196,247.234957637731 108.5183098576963,246.52929831133224 109.73521126806736,243.35382955218665 110.03943661786616,241.23684875201434 109.43098591454327,238.76703617163002 107.30140845105052,236.29722181917168 104.86760563217103,234.53306762618013 100.60845070332289,232.76891252677888 97.56619718112051,232.06325023411773 89.65633802860975,234.18023667833768 85.39718309789896,232.76891252677888 81.44225351884961,234.18023667833768 82.35492957569659,235.9443910527043 84.18028168939054,238.0613751085475 89.04788732342422,241.94250916340388 92.09014084376395,247.5877872472629 93.30704225227237,248.646275856765 96.04507042095065,250.05759349674918 103.95492957532406,249.3519347482361 108.82253520935774,247.234957637731 110.03943661786616,242.6481694295071 108.82253520935774,237.7085445234552 104.86760563217103,234.18023667833768 103.95492957532406,232.06325023411773 97.8704225346446,231.00475652469322 91.48169014044106,233.82740569417365 88.74366197176278,234.18023667833768 85.09295774623752,233.82740569417365 83.26760563254356,232.76891252677888 81.7464788723737,235.23872941127047 80.52957746386528,238.41420565894805 81.7464788723737,241.5896789766848 87.52676056325436,244.05948952957988 90.87323943525553,248.29344635666348 92.09014084376395,249.3519347482361 96.04507042095065,250.05759349674918 101.52112676016986,250.05759349674918 106.0845070425421,248.646275856765 108.82253520935774,245.82363884034567 109.12676056101918,244.05948952957988 108.82253520935774,241.23684875201434 106.3887323923409,236.65005255001597 101.82535211183131,234.53306762618013 97.26197182945907,233.12174361967482 90.87323943525553,234.53306762618013 84.48450704105198,231.71041903388686 82.35492957569659,232.76891252677888 78.70422535203397,233.12174361967482 78.70422535203397,234.53306762618013 81.13802816905081,237.00288324453868 88.43943661823869,240.53118819603696 89.35211267508566,242.6481694295071 90.87323943525553,248.29344635666348 92.69859154708683,249.704764140537 99.08732394129038,248.9991053205449 103.95492957532406,249.3519347482361 108.5183098576963,247.234957637731 110.03943661786616,244.05948952957988 110.34366197139025,241.94250916340388 107.90985915437341,235.9443910527043 103.65070422366261,233.47457467508502 99.39154929481447,232.4160813987255 89.9605633802712,234.18023667833768 84.48450704105198,233.47457467508502 82.35492957569659,234.18023667833768 79.92112675867975,236.65005255001597 80.52957746386528,238.76703617163002 82.96338028088212,240.88401849172078 86.30985915474594,243.00099950958975 90.56901408359408,249.3519347482361 91.7859154921025,250.05759349674918 102.73802816867828,249.704764140537 107.60563380271196,247.94061681977473 109.43098591454327,243.35382955218665 109.12676056101918,237.7085445234552 109.73521126806736,234.53306762618013 105.47605633735657,231.35758779686876 97.56619718112051,228.88776812679134 96.65352112613618,229.24059961759485 94.52394366078079,232.4160813987255 90.56901408359408,233.82740569417365 85.39718309789896,233.47457467508502 82.96338028088212,232.06325023411773 80.83380281552672,233.12174361967482 78.40000000037253,233.47457467508502 78.70422535203397,235.9443910527043 80.52957746386528,239.82552749384195 81.13802816905081,240.17835786286741 82.65915492922068,239.47269709059037 86.61408450640738,240.53118819603696 88.43943661823869,243.35382955218665 91.48169014044106,248.9991053205449 93.61126760393381,250.41042281594127 103.04225352033973,250.41042281594127 106.99718309752643,248.29344635666348 109.43098591454327,245.11797922546975 109.43098591454327,241.5896789766848 108.82253520935774,238.41420565894805 107.90985915437341,237.00288324453868 105.47605633735657,234.53306762618013 102.12957746349275,233.12174361967482 96.95774647779763,233.47457467508502 87.52676056325436,236.29722181917168 85.7014084495604,235.59156024968252 83.57183098606765,233.47457467508502 80.22535211220384,235.59156024968252 80.22535211220384,237.35571390111 80.83380281552672,238.76703617163002 84.78873239457607,240.88401849172078 88.43943661823869,244.7651493619196 89.04788732342422,249.704764140537 87.8309859149158,251.46891055745073 85.7014084495604,253.5858850639779 85.09295774623752,254.99720067856833 86.61408450640738,258.8783156326972 86.91830985806882,260.28962907753885 89.35211267508566,264.5235659366008 91.7859154921025,265.2292215730995 96.04507042095065,264.8763937733602 113.99436619691551,262.75942621170543 119.16619718261063,262.05377006856725 121.59999999962747,260.99528558179736 119.77464788593352,260.28962907753885 116.73239436559379,259.93680077046156" stroke="#ffdc00" stroke-linecap="round" stroke-linejoin="round" stroke-width="0.5"><title>2023-03-30 3.1km</title></polyline><polyline fill="none" points="144.7042253515683,255.70299344928935 144.78028168948367,255.70299344928935 144.93239436578006,255.614786227874 145.61690140794963,255.70299344928935 146.37746478803456,256.2322365875589 147.44225352071226,255.614786227874 148.35492957709357,255.614786227874 149.34366197139025,255.7912006615661 150.63661971781403,255.70299344928935 152.84225352061912,255.17374998534797 154.59154929500073,255.0855427099159 155.2760563371703,254.732713516918 155.42816901393235,254.1152620810317 155.42816901393235,252.5275277827168 154.59154929500073,250.41054416069528 153.90704225329682,247.0586427723174 153.14647887274623,245.64731196523644 151.01690140832216,242.91285193804651 150.71267605619505,242.20718342333566 150.7887323941104,241.50151432998246 152.46197183057666,239.73733906412963 154.43943661917,238.14957823150326 159.3070422532037,235.50330366630806 162.9577464782633,233.91553501959424 170.5633802814409,232.6806018241914 174.670422534924,231.62208624574123 178.09295774577186,230.2107301155338 179.00563380261883,230.2107301155338 179.6901408447884,230.8281987074297 181.0591549295932,232.5923922425136 183.56901408405975,236.5618144692271 184.78591549256817,239.11987686622888 185.77464788686484,240.70763590803836 186.1549295769073,241.76614030782366 187.29577464750037,243.97135362465633 187.4478873233311,244.94164569338318 187.29577464750037,246.17656128911767 186.83943661954254,246.88222654809942 186.1549295769073,247.67609927244484 184.17746478831396,248.9992188520846 182.58028169022873,249.79308962309733 179.30985915474594,250.67516739846906 175.73521126713604,251.64545190660283 172.54084507003427,251.91007476457162 167.36901408433914,252.8803578799707 164.55492957727984,253.14498035790166 157.48169014044106,254.64450619585114 156.34084507031366,254.55629886611132 155.8084507039748,254.1152620810317 155.35211267555133,253.14498035790166 153.60281690116972,247.14685087098042 152.15774647844955,244.67702069244115 151.09295774623752,243.6185198739986 150.7887323941104,243.0010604618583 150.7887323941104,242.47180918429513 151.24507042206824,241.67793165741023 152.23380281683058,240.53121838148218 153.98309859121218,238.76704112591688 155.12394366133958,237.79674209328368 158.92676056316122,235.6797222236637 162.50140845030546,234.35658215993317 167.67323943646625,233.2980686434894 169.9549295771867,233.12164959765505 174.51830985909328,232.15134419774404 175.58309859130532,231.79850559943588 178.3211267599836,230.3871497582295 179.0816901405342,230.3871497582295 179.53802816895768,230.8281987074297 180.83098591538146,232.4159730518586 182.04788732342422,234.62121033546282 183.56901408405975,236.7382328097592 184.55774647835642,238.85525007470278 185.69859154894948,240.70763590803836 187.59999999962747,244.50060397962807 187.5239436617121,246.70581028755987 187.14366197166964,247.41147511225427 186.30704225273803,248.028931359353 184.02535211248323,249.175634641957 183.03661971818656,249.96950525039574 182.27605633763596,250.23412862367695 177.40845070406795,251.20441362942802 176.0394366197288,251.64545190660283 170.18309859139845,252.43932023609523 168.81408450659364,252.8803578799707 165.7718309853226,253.40960275463294 162.80563380243257,253.58601764048217 157.02535211248323,254.82092082861345 155.88450704189017,255.52657899737824 154.59154929500073,256.67327228729846 151.9295774642378,257.7317570447922 150.94084506994113,257.6435500312946 150.71267605619505,257.81996404897654 150.63661971781403,258.0845850079786 151.16901408415288,259.2312748885597 151.01690140832216,259.67230905097676 150.33239436568692,260.2897564987652 149.49577464722097,260.7307901189197 147.97464788658544,261.7892698844662 147.21408450696617,261.7892698844662 146.3014084501192,261.43644344067434 145.69295774633065,260.3779632410151 145.16056337952614,259.2312748885597 144.39999999990687,258.3492058851989 144.8563380278647,258.172791976016 146.45352112641558,257.99637803056976 146.68169014016166,258.0845850079786 146.83380281645805,258.3492058851989 147.29014084488153,258.6138266810449" stroke="#4dd2ff" stroke-linecap="round" stroke-linejoin="round" stroke-width="0.5"><title>2023-03-28 2.9km</title></polyline></svg>