<?xml version="1.0" encoding="utf-8" ?>
<svg baseProfile="full" height="200mm" version="1.1" viewBox="0,0,200,200" width="200mm" xmlns="http://www.w3.org/2000/svg" xmlns:ev="http://www.w3.org/2001/xml-events" xmlns:xlink="http://www.w3.org/1999/xlink"><defs /><rect fill="#1a1a1a" height="200" width="200" x="0" y="0" /><text alignment-baseline="middle" fill="#e1ed5e" style="dominant-baseline: central; font-size:9.0px; font-family:Arial;" text-anchor="middle" x="100.0" y="100.0">2023</text><line stroke="#e1ed5e" stroke-width="0.3" x1="100.0" x2="100.0" y1="15.0" y2="10.0" /><path d="M 100.0 14.0 a86.0,86.0 0 0,1 42.46469731375804,11.215312516191453" fill="none" id="id1" stroke="none" /><text fill="#e1ed5e" style="font-size:6.75px; font-family:Arial;" text-anchor="middle"><textPath startOffset="22.20632615414155" xlink:href="#id1">January</textPath></text><line stroke="#e1ed5e" stroke-width="0.3" x1="143.23703022742887" x2="145.7803849466894" y1="26.81831364943548" y2="22.513508569990506" /><path d="M 143.74570117128098 25.957352633546492 a86.0,86.0 0 0,1 28.547481713284135,27.462654790039103" fill="none" id="id2" stroke="none" /><text fill="#e1ed5e" style="font-size:6.75px; font-family:Arial;" text-anchor="middle"><textPath startOffset="19.985693538727396" xlink:href="#id2">February</textPath></text><line stroke="#e1ed5e" stroke-width="0.3" x1="172.23445277983987" x2="176.4835382374775" y1="55.19839476539836" y2="52.563006222186495" /><path d="M 173.08426987136738 54.67131705675599 a86.0,86.0 0 0,1 12.851231095245387,41.99856678651699" fill="none" id="id3" stroke="none" /><text fill="#e1ed5e" style="font-size:6.75px; font-family:Arial;" text-anchor="middle"><textPath startOffset="22.20632615414155" xlink:href="#id3">March</textPath></text><path d="M 120.91429891909075 98.10471618934814 l 16.914546435106605 -1.5328204950591984 a37.98385762350389,37.98385762350389 0 0,0 0.0534044287076558,0.6516692986909545 l -16.938425347633757 1.241437279160475" fill="#ff9b0e" stroke="none" /><path d="M 120.96714384426684 98.82574320788733 l 17.641913883415867 -0.9880285725770123 a38.66955930209042,38.66955930209042 0 0,0 0.03149983956474283,0.6649118274175293 l -17.656307331214105 0.6842056385364832" fill="#ffa50f" stroke="none" /><path d="M 120.98425023603335 99.18683210126433 l 17.999479741814234 -0.6975040306588082 a39.01298928131492,39.01298928131492 0 0,0 0.020227873690171476,0.6712646507394101 l -18.00881930996005 0.38756923249439895" fill="#ffaa0f" stroke="none" /><line stroke="#e1ed5e" stroke-width="0.3" x1="184.98032266829074" x2="189.97916517819016" y1="98.17113171792111" y2="98.06355123074" /><path d="M 185.9800911702706 98.14961562048488 a86.0,86.0 0 0,1 -9.607161424134198,41.387399972396054" fill="none" id="id4" stroke="none" /><text fill="#e1ed5e" style="font-size:6.75px; font-family:Arial;" text-anchor="middle"><textPath startOffset="21.466115282336823" xlink:href="#id4">April</textPath></text><path d="M 120.99513854157772 99.54816195383933 l 18.38401510820633 -0.39564385110534867 a39.38827195675755,39.38827195675755 0 0,0 0.00875356118417484,0.6779729604772249 l -18.38810167650822 0.07913463256766101" fill="#ffaf10" stroke="none" /><path d="M 120.99980553446 99.90962569577887 l 10.679241438531436 -0.04595895009756131 a31.679340332040226,31.679340332040226 0 0,0 -0.002346839791491023,0.5453229174662989 l -10.678450301450441 -0.13787344557242232" fill="#ff3c05" stroke="none" /><path d="M 120.99824983174949 100.27111621757518 l 10.03565855336964 0.12957412211334485 a31.036495008365353,31.036495008365353 0 0,0 -0.011495233935816416,0.5341383513429764 l -10.031941256748816 -0.30230228924643604" fill="#ff3204" stroke="none" /><path d="M 120.9904718944345 100.63252640178507 l 12.6907240722276 0.38242199002594446 a33.696484712544354,33.696484712544354 0 0,0 -0.022460900780364685,0.5796160463721775 l -12.682261038596032 -0.6008152834121281" fill="#ff5b08" stroke="none" /><path d="M 120.95626037817324 101.35467743843564 l 12.48799086939661 0.807262325284992 a33.51405563420419,33.51405563420419 0 0,0 -0.042169365855738945,0.5753674933843991 l -12.472244944876534 -1.0221029551661613" fill="#ff5808" stroke="none" /><path d="M 120.92983693683757 101.71520430193887 l 10.575549420586254 0.8666683795147355 a31.61100182015407,31.61100182015407 0 0,0 -0.0491105569746968,0.5419309038990703 l -10.559064267334483 -1.0485806719623765" fill="#ff3b05" stroke="none" /><path d="M 120.89721153311464 102.0752229133903 l 10.33257631530619 1.0260890114405332 a31.383399827177293,31.383399827177293 0 0,0 -0.05801101677920517,0.5371099680784629 l -10.313382997025933 -1.2037953014037877" fill="#ff3705" stroke="none" /><path d="M 120.8583938346157 102.4346265915055 l 62.575181503847105 7.303879774516526 a84.0,84.0 0 0,0 -0.1799939630126075,1.4347289828504204 l -62.44018603158764 -8.379926511654341" fill="#4dd2ff" stroke="none" /><path d="M 120.81339534386255 102.79330883721812 l 12.592274467843666 1.6899746999749308 a33.70517181151293,33.70517181151293 0 0,0 -0.08212176673259797,0.5743594452584844 l -12.561318650094467 -1.9064796172138245" fill="#ff5b08" stroke="none" /><path d="M 120.76222939487914 103.15116336523771 l 13.858218401323565 2.1033150777384537 a35.01692375576842,35.01692375576842 0 0,0 -0.09557660177834137,0.5951555905087226 l -13.819960045183937 -2.3415498979403813" fill="#ff6f0a" stroke="none" /><path d="M 120.70491114924044 103.5080841355445 l 11.648439653007982 1.97362384489459 a32.814454597267925,32.814454597267925 0 0,0 -0.09915208985218163,0.5560975760039902 l -11.612741120816612 -2.1738401716317983" fill="#ff4d07" stroke="none" /><path d="M 120.64145759157962 103.86396538481128 l 11.529630326520579 2.1582822958936507 a32.72990016730709,32.72990016730709 0 0,0 -0.10842958801616079,0.5528801332756554 l -11.490770805528753 -2.356426156237251" fill="#ff4c07" stroke="none" /><path d="M 120.5718875245553 104.21870165774334 l 12.22036156567045 2.506044208815561 a33.47467411887996,33.47467411887996 0 0,0 -0.12061397121862183,0.5634683190748235 l -12.175413555727385 -2.7160263473065536" fill="#ff5808" stroke="none" /><path d="M 120.49622156327973 104.57218783832717 l 35.530841258099706 7.926030648344598 a57.404156937728665,57.404156937728665 0 0,0 -0.22343730006303192,0.9625620407740993 l -35.38914339210612 -8.536461346467263" fill="#67ff28" stroke="none" /><path d="M 120.41448212921028 104.9243191809786 l 12.404975985963288 2.9922905122267247 a33.76076924491184,33.76076924491184 0 0,0 -0.1411339790665972,0.563760090224723 l -12.35163069260163 -3.2053784418488434" fill="#ff5c08" stroke="none" /><path d="M 120.32669344350535 105.2749913415812 l 11.609994702481274 3.01291608010944 a32.99456711588314,32.99456711588314 0 0,0 -0.14739446721006366,0.5485096445763193 l -11.556412158929433 -3.2123166578613076" fill="#ff5007" stroke="none" /><path d="M 120.23288151984713 105.62410040840565 l 10.077753850727845 2.801296468429002 a31.459846298100786,31.459846298100786 0 0,0 -0.14952020490390697,0.5204994484785699 l -10.028041008937839 -2.9743533924121537" fill="#ff3805" stroke="none" /><path d="M 120.02730092923936 106.31721596034902 l 6.621701499530731 2.088684768122237 a27.943308635619864,27.943308635619864 0 0,0 -0.14864210032587438,0.4574733451040992 l -6.58476714818861 -2.2023570132041317" fill="#ff0100" stroke="none" /><path d="M 119.9155931802556 106.66101706037122 l 6.550714636453876 2.190967728458226 a27.907401959883067,27.907401959883067 0 0,0 -0.15629363595405238,0.45426246551177096 l -6.512030169556594 -2.303402897059297" fill="#ff0000" stroke="none" /><path d="M 119.79798401119884 107.00284435728193 l 35.24970066041279 12.468348657419748 a58.38985310069681,58.38985310069681 0 0,0 -0.34332048863832343,0.944670534450006 l -35.02985591076924 -13.073266988875885" fill="#5bff2a" stroke="none" /><path d="M 119.54520255179757 107.68017299344265 l 6.651499314845709 2.613667741145105 a28.14658675148462,28.14658675148462 0 0,0 -0.18107287084300402,0.44940801575428013 l -6.605523829745312 -2.7277751247421986" fill="#ff0400" stroke="none" /><path d="M 119.41010516605496 108.01547362559984 l 9.929697491229785 4.100504745864488 a31.743045724476474,31.743045724476474 0 0,0 -0.212903659250485,0.5032413597439044 l -9.85764285078699 -4.270820631274556" fill="#ff3d05" stroke="none" /><path d="M 119.26925614724726 108.34839909993367 l 6.594789637642402 2.8571905139685843 a28.187126546671323,28.187126546671323 0 0,0 -0.19671784243916624,0.44354680270660296 l -6.544630710471962 -2.9702856531678745" fill="#ff0500" stroke="none" /><path d="M 119.12269723197855 108.67885076344098 l 9.793741895582178 4.444897249394086 a31.755207663032486,31.755207663032486 0 0,0 -0.2301880311350402,0.49580454057627876 l -9.715779247607307 -4.6128218572491955" fill="#ff3d05" stroke="none" /><path d="M 118.97047184881838 109.00673069616215 l 9.97684078681123 4.736767692517483 a32.04419848872056,32.04419848872056 0 0,0 -0.24086058932553497,0.49624415456060744 l -9.89382694087098 -4.907800803043365" fill="#ff4106" stroke="none" /><path d="M 118.64920377521936 109.65438752849418 l 24.573705844164866 12.721405272327738 a48.67130591458145,48.67130591458145 0 0,0 -0.39156643122321255,0.7406961222118883 l -24.35108690471676 -13.142516409625761" fill="#d1ff1d" stroke="none" /><line stroke="#e1ed5e" stroke-width="0.3" x1="174.80103733775053" x2="179.2010983576182" y1="140.37084112569926" y2="142.7455964860345" /><path d="M 175.68104954172406 140.8457921977663 a86.0,86.0 0 0,1 -30.038265399797805,32.042727171017184" fill="none" id="id5" stroke="none" /><text fill="#e1ed5e" style="font-size:6.75px; font-family:Arial;" text-anchor="middle"><textPath startOffset="22.206326154141568" xlink:href="#id5">May</textPath></text><path d="M 118.48025628344425 109.97397251340804 l 40.74398582246926 21.98992202527274 a67.2993418028718,67.2993418028718 0 0,0 -0.5589806113717627,1.0147121765339155 l -40.35942880164599 -22.68800472020446" fill="#36ff6f" stroke="none" /><path d="M 118.12598468904814 110.60418214915192 l 10.76891640591727 6.3001019297084095 a33.47641153867368,33.47641153867368 0 0,0 -0.2952605538075667,0.4948736715368057 l -10.658874976411477 -6.484537695131319" fill="#ff5808" stroke="none" /><path d="M 117.94076556474637 110.91462005526583 l 9.179506449304277 5.584534552187314 a31.74478314427019,31.74478314427019 0 0,0 -0.28802398547885233,0.46438637342541095 l -9.082017824157463 -5.741717256977999" fill="#ff3d05" stroke="none" /><path d="M 117.55443506779139 111.5257021239791 l 8.882593847065769 5.832037908039062 a31.62605945836627,31.62605945836627 0 0,0 -0.30270189234416733,0.4524982579224456 l -8.78088884931088 -5.984073080167315" fill="#ff3b05" stroke="none" /><path d="M 117.14729908036423 112.12312394758627 l 8.641115150360234 6.1092600952614555 a31.582623963523375,31.582623963523375 0 0,0 -0.3176613519475557,0.4412038344081694 l -8.534674006037076 -6.2570975351207565" fill="#ff3a05" stroke="none" /><path d="M 116.93607887273984 112.41649034213515 l 8.724769355484733 6.396463741917349 a31.818333915537494,31.818333915537494 0 0,0 -0.3276360105604009,0.4389219776572933 l -8.613372078229242 -6.545698599083957" fill="#ff3e05" stroke="none" /><path d="M 116.71984013943494 112.70617746262583 l 9.783647149671738 7.435044586475558 a33.288191061021124,33.288191061021124 0 0,0 -0.35062480618287173,0.45322982669087863 l -9.654215526270798 -7.60235240727969" fill="#ff5507" stroke="none" /><path d="M 116.498646956653 112.99209946851258 l 20.293508657140354 15.980418499249767 a46.83022007317388,46.83022007317388 0 0,0 -0.5041654253844686,0.6290238871451174 l -20.01542531970103 -16.327370219973133" fill="#e9ff1a" stroke="none" /><path d="M 116.27256486870786 113.27417163493432 l 22.878554252677702 18.66293718043206 a50.525132834476295,50.525132834476295 0 0,0 -0.5555454893995547,0.6691903300352855 l -22.553912763384602 -19.053988767581117" fill="#b9ff1f" stroke="none" /><path d="M 115.80600337817218 113.82643327865902 l 34.68495233047393 30.340951326952357 a67.08274346858855,67.08274346858855 0 0,0 -0.7677497016183805,0.8625749286269566 l -34.1575437792072 -30.93350042532018" fill="#36ff6c" stroke="none" /><path d="M 115.56566222782051 114.09645910891815 l 8.776021729299773 7.9476754432550285 a32.83993675424243,32.83993675424243 0 0,0 -0.38306002234023784,0.41573599897708935 l -8.637915298963813 -8.097562697033453" fill="#ff4e07" stroke="none" /><path d="M 115.32070863581623 114.36230785411682 l 19.914864982457456 18.66907259645738 a48.2971815190013,48.2971815190013 0 0,0 -0.5738014464691322,0.6016285225949333 l -19.59055698460936 -19.00910823563482" fill="#d6ff1c" stroke="none" /><path d="M 115.07121518719521 114.62390073753431 l 16.73514207214137 16.238442186099217 a44.31849019139196,44.31849019139196 0 0,0 -0.5359569555946799,0.5429215663885835 l -16.45314449149116 -16.524104246468465" fill="#fff417" stroke="none" /><path d="M 114.81725581225074 114.88116024355365 l 7.98384504954188 8.018278083834216 a32.31523597654024,32.31523597654024 0 0,0 -0.39755441683460085,0.3890906709857618 l -7.8446406803314845 -8.15451885774255" fill="#ff4606" stroke="none" /><line stroke="#e1ed5e" stroke-width="0.3" x1="143.8653032363475" x2="146.44561519142675" y1="172.8068346515853" y2="177.08958963109032" /><path d="M 144.38136562736335 173.6633856474863 a86.0,86.0 0 0,1 -40.68145358897372,12.25698825130547" fill="none" id="id6" stroke="none" /><text fill="#e1ed5e" style="font-size:6.75px; font-family:Arial;" text-anchor="middle"><textPath startOffset="21.466115282336833" xlink:href="#id6">June</textPath></text><line stroke="#e1ed5e" stroke-width="0.3" x1="102.19456741930631" x2="102.32365962044197" y1="184.97166512339345" y2="189.96999836594603" /><path d="M 102.22038585953345 185.97133177190398 a86.0,86.0 0 0,1 -42.740103519485714,-10.115201625700543" fill="none" id="id7" stroke="none" /><text fill="#e1ed5e" style="font-size:6.75px; font-family:Arial;" text-anchor="middle"><textPath startOffset="22.20632615414155" xlink:href="#id7">July</textPath></text><line stroke="#e1ed5e" stroke-width="0.3" x1="58.666819895761336" x2="56.23545636021788" y1="174.27360380694188" y2="178.64263932499728" /><path d="M 58.180547188652646 175.14741091055294 a86.0,86.0 0 0,1 -31.652253787137756,-30.449443065178592" fill="none" id="id8" stroke="none" /><text fill="#e1ed5e" style="font-size:6.75px; font-family:Arial;" text-anchor="middle"><textPath startOffset="22.20632615414155" xlink:href="#id8">August</textPath></text><line stroke="#e1ed5e" stroke-width="0.3" x1="26.63291911575756" x2="22.317208475507996" y1="142.92168965132927" y2="145.44649492493687" /><path d="M 25.769776987707644 143.4266507060508 a86.0,86.0 0 0,1 -11.730757126820373,-40.83630448921669" fill="none" id="id9" stroke="none" /><text fill="#e1ed5e" style="font-size:6.75px; font-family:Arial;" text-anchor="middle"><textPath startOffset="21.46611528233685" xlink:href="#id9">September</textPath></text><line stroke="#e1ed5e" stroke-width="0.3" x1="15.007084014347285" x2="10.007500721073583" y1="101.09737516637583" y2="101.16192664675087" /><path d="M 14.007167355692545 101.11028546245083 a86.0,86.0 0 0,1 10.666146001902534,-42.60595125391555" fill="none" id="id10" stroke="none" /><text fill="#e1ed5e" style="font-size:6.75px; font-family:Arial;" text-anchor="middle"><textPath startOffset="22.20632615414155" xlink:href="#id10">October</textPath></text><line stroke="#e1ed5e" stroke-width="0.3" x1="26.266209847984243" x2="21.928928074336255" y1="57.711370442889674" y2="55.22380399835377" /><path d="M 25.398753493254645 57.213857153982495 a86.0,86.0 0 0,1 29.58750427330803,-30.492523968695096" fill="none" id="id11" stroke="none" /><text fill="#e1ed5e" style="font-size:6.75px; font-family:Arial;" text-anchor="middle"><textPath startOffset="21.46611528233685" xlink:href="#id11">November</textPath></text><line stroke="#e1ed5e" stroke-width="0.3" x1="56.762969772571076" x2="54.21961505331055" y1="26.818313649435495" y2="22.513508569990535" /><path d="M 56.25429882871897 25.957352633546506 a86.0,86.0 0 0,1 42.265352541879196,-11.944610805530505" fill="none" id="id12" stroke="none" /><text fill="#e1ed5e" style="font-size:6.75px; font-family:Arial;" text-anchor="middle"><textPath startOffset="22.20632615414155" xlink:href="#id12">December</textPath></text></svg>