<?xml version="1.0" encoding="utf-8" ?>
<svg baseProfile="full" height="200mm" version="1.1" viewBox="0,0,200,200" width="200mm" xmlns="http://www.w3.org/2000/svg" xmlns:ev="http://www.w3.org/2001/xml-events" xmlns:xlink="http://www.w3.org/1999/xlink"><defs /><rect fill="#1a1a1a" height="200" width="200" x="0" y="0" /><text alignment-baseline="middle" fill="#e1ed5e" style="dominant-baseline: central; font-size:9.0px; font-family:Arial;" text-anchor="middle" x="100.0" y="100.0">2024</text><line stroke="#e1ed5e" stroke-width="0.3" x1="100.0" x2="100.0" y1="15.0" y2="10.0" /><path d="M 100.0 14.0 a86.0,86.0 0 0,1 42.35913384403234,11.155469271406648" fill="none" id="id13" stroke="none" /><text fill="#e1ed5e" style="font-size:6.75px; font-family:Arial;" text-anchor="middle"><textPath startOffset="22.145653131862478" xlink:href="#id13">January</textPath></text><path d="M 100.36049292484886 79.00309439819443 l 0.4192503412517548 -24.41923053685094 a45.42282929679756,45.42282929679756 0 0,0 0.77951347218111,0.020077501918739384 l -0.8383771275036062 24.408435317582157" fill="#d9ff1c" stroke="none" /><path d="M 100.72087961077811 79.0123766808444 l 0.8759733239564877 -25.503007556259224 a46.51804701929398,46.51804701929398 0 0,0 0.7978382001670831,0.034262605201662355 l -1.313637284724407 25.48421238263173" fill="#ccff1d" stroke="none" /><path d="M 108.07796709384702 80.6158196554323 l 9.446892256326016 -22.66910239480995 a45.55874542172321,45.55874542172321 0 0,0 0.7193181905277701,0.30703416223273866 l -9.834645522024218 22.503593582917812" fill="#d7ff1c" stroke="none" /><path d="M 108.4095320186766 80.7573450057729 l 8.76911754589094 -20.065457050956983 a42.89794486241692,42.89794486241692 0 0,0 0.6722446999647392,0.30068650368684424 l -9.11227564871131 19.911966796360286" fill="#f8ff18" stroke="none" /><line stroke="#e1ed5e" stroke-width="0.3" x1="143.13028292997686" x2="145.6673583964461" y1="26.7553504044142" y2="22.446841604673864" /><path d="M 143.63769802327073 25.89364864446614 a86.0,86.0 0 0,1 29.32050498858742,28.57503671076993" fill="none" id="id14" stroke="none" /><text fill="#e1ed5e" style="font-size:6.75px; font-family:Arial;" text-anchor="middle"><textPath startOffset="20.669276256404974" xlink:href="#id14">February</textPath></text><path d="M 117.42321728460499 88.27688183743584 l 2.3155990832528626 -1.5580384051161758 a23.79096449031127,23.79096449031127 0 0,0 0.22508015327284356,0.34080003963840816 l -2.3420036754464304 1.5180584871387088" fill="#ff0000" stroke="none" /><line stroke="#e1ed5e" stroke-width="0.3" x1="172.87174338648825" x2="177.1583165268699" y1="56.24261187166439" y2="53.66864786411523" /><path d="M 173.72905801456457 55.72781907015455 a86.0,86.0 0 0,1 12.242430191666344,42.057860355516425" fill="none" id="id15" stroke="none" /><text fill="#e1ed5e" style="font-size:6.75px; font-family:Arial;" text-anchor="middle"><textPath startOffset="22.145653131862474" xlink:href="#id15">March</textPath></text><path d="M 118.18653347947321 89.5 l 29.704532182805128 -17.149919651894447 a55.299839303788886,55.299839303788886 0 0,0 0.4675907800015451,0.8261881045795458 l -29.994556327828047 16.637474777215782" fill="#68ff28" stroke="none" /><path d="M 118.36410011445183 89.81374322990088 l 27.760436012181405 -15.398245898662541 a52.74504346102074,52.74504346102074 0 0,0 0.43239545316931693,0.795558932116681 l -28.020676814966063 14.919432133071256" fill="#84ff25" stroke="none" /><path d="M 119.0197475246899 91.09779779509293 l 34.94151471915278 -16.35439318907081 a59.57947158077072,59.57947158077072 0 0,0 0.4256117291829798,0.9300384389525594 l -35.21711091319081 15.752165767903566" fill="#3cff2e" stroke="none" /><path d="M 119.58574465831526 92.42381321644754 l 3.366034816007562 -1.3020545774953196 a24.60909081422892,24.60909081422892 0 0,0 0.1490248214663725,0.3953060441534284 l -3.3878903212883746 1.2440802531477333" fill="#ff0c01" stroke="none" /><path d="M 119.71291397450082 92.76114493625339 l 27.843953595936622 -10.224685439372001 a50.6619275197479,50.6619275197479 0 0,0 0.29277728138298464,0.8189501635865739 l -28.01537104736355 9.74520031940451" fill="#9bff22" stroke="none" /><path d="M 119.83427380445688 93.10060997987247 l 25.956152331290337 -9.028897156556024 a48.48168167541452,48.48168167541452 0 0,0 0.2666829057237289,0.7884006243252752 l -26.10732065858643 8.581994857756586" fill="#b4ff20" stroke="none" /><path d="M 120.05942366710727 93.78553927170692 l 21.646042382963735 -6.705999262205836 a43.66101447309382,43.66101447309382 0 0,0 0.21565148064400852,0.7178336422209752 l -21.757970183611373 6.333428016394137" fill="#eeff19" stroke="none" /><path d="M 120.16314734710363 94.1308016681162 l 60.48944204131091 -17.607594995651397 a84.0,84.0 0 0,0 0.3911260317016718,1.3879683043879474 l -60.782786565087164 16.56661876736044" fill="#4dd2ff" stroke="none" /><path d="M 120.26092885502905 94.47779374421319 l 3.213782095158209 -0.8759306010895551 a24.33101332526374,24.33101332526374 0 0,0 0.10637347456854715,0.4039174092167696 l -3.2283450505314866 0.8206326874999869" fill="#ff0801" stroke="none" /><path d="M 120.43855184770803 95.1765574152323 l 43.9062142512058 -10.361747012861363 a66.11232039067963,66.11232039067963 0 0,0 0.2511926230664691,1.1068010453802752 l -44.07761773582994 9.606511633542063" fill="#36ff70" stroke="none" /><path d="M 120.51834098615036 95.52812308129327 l 54.46867701510056 -11.87119463999218 a76.7473052080181,76.7473052080181 0 0,0 0.2695010463857262,1.2896600674327425 l -54.66443577231065 10.934418121274032" fill="#44ffe5" stroke="none" /><path d="M 120.592083275326 95.88100663000786 l 42.38918364296915 -8.47902390691963 a64.22888775265307,64.22888775265307 0 0,0 0.2069812846102474,1.0830135430465528 l -42.52849121986156 7.750107798839764" fill="#34ff59" stroke="none" /><path d="M 120.65975698304385 96.23510406497455 l 51.23607012526334 -9.33691874011883 a73.07987071259379,73.07987071259379 0 0,0 0.21431605597519088,1.2361180585893163 l -51.38880099873076 8.456007648608919" fill="#3fffbe" stroke="none" /><path d="M 120.77682067341334 96.94652285012252 l 43.76686825034156 -6.432222437917445 a65.2370008243507,65.2370008243507 0 0,0 0.15332398638922987,1.109375987254109 l -43.87083675328601 5.67995814246325" fill="#35ff65" stroke="none" /><path d="M 120.86939407059847 97.66154086499901 l 3.362724383976958 -0.37680028119647124 a24.38376916093621,24.38376916093621 0 0,0 0.04304038024167801,0.41637663575279266 l -3.368697156700302 0.3190191231607472" fill="#ff0901" stroke="none" /><path d="M 120.9064616781168 98.02013634271609 l 29.82775257457552 -2.8247191806097294 a50.961205952020705,50.961205952020705 0 0,0 0.0750012504252995,0.8716282180152369 l -29.87184744769856 2.3122699152188306" fill="#98ff23" stroke="none" /><path d="M 120.93736805541906 98.37931529534042 l 24.781427581814818 -1.9182392235341723 a45.85555862803001,45.85555862803001 0 0,0 0.05401356566764473,0.7853453904594025 l -24.81070510864753 1.4925504089204358" fill="#d3ff1c" stroke="none" /><path d="M 120.96210409425399 98.7389718711861 l 29.40120313723958 -1.7687033711083375 a50.45435549341042,50.45435549341042 0 0,0 0.04458822109289231,0.8649995773631167 l -29.427232947789044 1.26373200036849" fill="#9eff22" stroke="none" /><path d="M 120.98066250479742 99.09900007780936 l 18.762798079131414 -0.8057552808692566 a39.78009140901359,39.78009140901359 0 0,0 0.023442432499073133,0.6825008442730603 l -18.773865198627334 0.4835481720320763" fill="#ffdf14" stroke="none" /><path d="M 120.99303781780057 99.45929381324524 l 3.6673686791262763 -0.09445840812199188 a24.668584934208468,24.668584934208468 0 0,0 0.007269677391879324,0.42342226277211753 l -3.6684497881168214 0.03148922938080797" fill="#ff0d01" stroke="none" /><line stroke="#e1ed5e" stroke-width="0.3" x1="184.99686870605535" x2="189.99668451229388" y1="99.2704041080226" y2="99.22748670261217" /><path d="M 185.99683186730306 99.26182062694052 a86.0,86.0 0 0,1 -10.086455211305974,41.156179273409016" fill="none" id="id16" stroke="none" /><text fill="#e1ed5e" style="font-size:6.75px; font-family:Arial;" text-anchor="middle"><textPath startOffset="21.40746469413373" xlink:href="#id16">April</textPath></text><path d="M 120.99922638620191 99.81974689727618 l 26.365935169650832 -0.22631984308086925 a47.366906493587805,47.366906493587805 0 0,0 0.0,0.813145891609389 l -26.365935169650832 -0.22631984308086603" fill="#c1ff1e" stroke="none" /><path d="M 120.99303781780057 100.54070618675476 l 38.08135701986028 0.9808406729585142 a59.093986413865785,59.093986413865785 0 0,0 -0.034824122784558605,1.0138663384213997 l -38.05890821007887 -1.6344132759440246" fill="#41ff2d" stroke="none" /><path d="M 120.96210409425399 101.26102812881392 l 17.385883785080683 1.0458915955524781 a38.417314495006934,38.417314495006934 0 0,0 -0.04525200872773148,0.6579542754504715 l -17.365367815187884 -1.3441892951572931" fill="#ffcd13" stroke="none" /><path d="M 120.9064616781168 101.97986365728391 l 3.1856104541723695 0.3016806220768247 a24.199863303872363,24.199863303872363 0 0,0 -0.04271576356882251,0.41323626391142226 l -3.179962298121881 -0.35632140827117836" fill="#ff0601" stroke="none" /><path d="M 120.86939407059847 102.33845913500097 l 3.354721397196887 0.37590352983513087 a24.375716089447266,24.375716089447266 0 0,0 -0.050165123586317174,0.4154391865682372 l -3.347774187350906 -0.43343639332677664" fill="#ff0901" stroke="none" /><path d="M 120.82617615685814 102.69636545807757 l 34.15251232801895 4.4217264779792025 a55.43756326108961,55.43756326108961 0 0,0 -0.1302927493215331,0.94273342883012 l -34.07157506214221 -5.007348215009408" fill="#67ff28" stroke="none" /><path d="M 120.77682067341334 103.0534771498775 l 3.6248812773710815 0.5327327181311672 a24.663818830674195,24.663818830674195 0 0,0 -0.06515770794751923,0.4183592260089419 l -3.615202077285295 -0.5948801260715596" fill="#ff0d01" stroke="none" /><path d="M 120.7213421655516 103.40968896794604 l 52.6934392579045 8.670685377682858 a74.40205357236026,74.40205357236026 0 0,0 -0.21819352610506504,1.258482275900858 l -52.5368309143072 -9.573960686504304" fill="#41ffcc" stroke="none" /><path d="M 120.592083275326 104.11899336999214 l 28.123171508983333 5.625421937150754 a49.680274540085364,49.680274540085364 0 0,0 -0.17445415102190182,0.8348262657533554 l -28.022459647137065 -6.107364654189518" fill="#a7ff21" stroke="none" /><path d="M 120.16314734710363 105.8691983318838 l 24.534918627892026 7.141757236843964 a46.55321757640897,46.55321757640897 0 0,0 -0.22993671631889745,0.7653845457615911 l -24.408705591569497 -7.561879386196278" fill="#cbff1d" stroke="none" /><line stroke="#e1ed5e" stroke-width="0.3" x1="174.33088141563837" x2="178.70328620479359" y1="141.23008692659167" y2="143.65538615756765" /><path d="M 175.20536237346943 141.71514677278685 a86.0,86.0 0 0,1 -30.301960400862466,31.631185727798858" fill="none" id="id17" stroke="none" /><text fill="#e1ed5e" style="font-size:6.75px; font-family:Arial;" text-anchor="middle"><textPath startOffset="22.145653131862474" xlink:href="#id17">May</textPath></text><line stroke="#e1ed5e" stroke-width="0.3" x1="143.1302829299769" x2="145.66735839644613" y1="173.24464959558577" y2="177.55315839532614" /><path d="M 143.63769802327073 174.10635135553383 a86.0,86.0 0 0,1 -40.68552437913181,11.842963189579606" fill="none" id="id18" stroke="none" /><text fill="#e1ed5e" style="font-size:6.75px; font-family:Arial;" text-anchor="middle"><textPath startOffset="21.407464694133747" xlink:href="#id18">June</textPath></text><line stroke="#e1ed5e" stroke-width="0.3" x1="101.45913802915013" x2="101.54496967792366" y1="184.9874750549273" y2="189.98673829345242" /><path d="M 101.47630435890484 185.9873277026323 a86.0,86.0 0 0,1 -42.54439059252881,-10.42667462771756" fill="none" id="id19" stroke="none" /><text fill="#e1ed5e" style="font-size:6.75px; font-family:Arial;" text-anchor="middle"><textPath startOffset="22.145653131862474" xlink:href="#id19">July</textPath></text><line stroke="#e1ed5e" stroke-width="0.3" x1="58.13341422392154" x2="55.67067388415222" y1="173.97424548756322" y2="178.32567169271397" /><path d="M 57.64086615596768 174.84453072859336 a86.0,86.0 0 0,1 -31.369924170532247,-30.572349798747897" fill="none" id="id20" stroke="none" /><text fill="#e1ed5e" style="font-size:6.75px; font-family:Arial;" text-anchor="middle"><textPath startOffset="22.145653131862474" xlink:href="#id20">August</textPath></text><line stroke="#e1ed5e" stroke-width="0.3" x1="26.387840678322732" x2="22.057713659400548" y1="142.50000000000003" y2="145.00000000000006" /><path d="M 25.521815274538298 143.00000000000003 a86.0,86.0 0 0,1 -11.493303480769221,-40.785679425670985" fill="none" id="id21" stroke="none" /><text fill="#e1ed5e" style="font-size:6.75px; font-family:Arial;" text-anchor="middle"><textPath startOffset="21.40746469413373" xlink:href="#id21">September</textPath></text><line stroke="#e1ed5e" stroke-width="0.3" x1="15.003131293944662" x2="10.003315487706104" y1="100.72959589197737" y2="100.7725132973878" /><path d="M 14.003168132696942 100.73817937305945 a86.0,86.0 0 0,1 10.791469493833604,-42.45332614584628" fill="none" id="id22" stroke="none" /><text fill="#e1ed5e" style="font-size:6.75px; font-family:Arial;" text-anchor="middle"><textPath startOffset="22.145653131862435" xlink:href="#id22">October</textPath></text><line stroke="#e1ed5e" stroke-width="0.3" x1="26.387840678322718" x2="22.05771365940052" y1="57.49999999999999" y2="54.99999999999999" /><path d="M 25.521815274538284 56.99999999999999 a86.0,86.0 0 0,1 29.574782752854787,-30.34633250058573" fill="none" id="id23" stroke="none" /><text fill="#e1ed5e" style="font-size:6.75px; font-family:Arial;" text-anchor="middle"><textPath startOffset="21.40746469413373" xlink:href="#id23">November</textPath></text><line stroke="#e1ed5e" stroke-width="0.3" x1="56.869717070023135" x2="54.33264160355391" y1="26.7553504044142" y2="22.446841604673864" /><path d="M 56.362301976729285 25.89364864446614 a86.0,86.0 0 0,1 42.16139366436587,-11.88097634709845" fill="none" id="id24" stroke="none" /><text fill="#e1ed5e" style="font-size:6.75px; font-family:Arial;" text-anchor="middle"><textPath startOffset="22.145653131862474" xlink:href="#id24">December</textPath></text></svg>