<?xml version="1.0" encoding="utf-8" ?>
<svg baseProfile="full" height="200mm" version="1.1" viewBox="0,0,200,200" width="200mm" xmlns="http://www.w3.org/2000/svg" xmlns:ev="http://www.w3.org/2001/xml-events" xmlns:xlink="http://www.w3.org/1999/xlink"><defs /><rect fill="#1a1a1a" height="200" width="200" x="0" y="0" /><text alignment-baseline="middle" fill="#e1ed5e" style="dominant-baseline: central; font-size:9.0px; font-family:Arial;" text-anchor="middle" x="100.0" y="100.0">2024</text><line stroke="#e1ed5e" stroke-width="0.3" x1="100.0" x2="100.0" y1="15.0" y2="10.0" /><path d="M 100.0 14.0 a86.0,86.0 0 0,1 42.35913384403234,11.155469271406648" fill="none" id="id13" stroke="none" /><text fill="#e1ed5e" style="font-size:6.75px; font-family:Arial;" text-anchor="middle"><textPath startOffset="22.145653131862478" xlink:href="#id13">January</textPath></text><path d="M 100.36049292484886 79.00309439819443 l 0.35540749774479735 -20.700704967927585 a41.70375571384658,41.70375571384658 0 0,0 0.7156894434531692,0.0184336213381236 l -0.7107102552687079 20.691553629239415" fill="#fffb17" stroke="none" /><path d="M 100.72087961077811 79.0123766808444 l 0.742581356592432 -21.619445969857786 a42.63219524492969,42.63219524492969 0 0,0 0.7311913569647236,0.03140050299083649 l -1.1135984741579918 21.603512898441117" fill="#f7ff18" stroke="none" /><path d="M 108.07796709384702 80.6158196554323 l 8.008332988498145 -19.21708384113635 a41.81897472528202,41.81897472528202 0 0,0 0.6602716767256105,0.28183071661334136 l -8.337039740394186 19.07677847486361" fill="#fffd17" stroke="none" /><path d="M 108.4095320186766 80.7573450057729 l 7.433768843478673 -17.009917893672007 a39.56335707698738,39.56335707698738 0 0,0 0.6199890739082544,0.27731322681650855 l -7.724671320242559 16.879800915945648" fill="#ffe015" stroke="none" /><line stroke="#e1ed5e" stroke-width="0.3" x1="143.13028292997686" x2="145.6673583964461" y1="26.7553504044142" y2="22.446841604673864" /><path d="M 143.63769802327073 25.89364864446614 a86.0,86.0 0 0,1 29.32050498858742,28.57503671076993" fill="none" id="id14" stroke="none" /><text fill="#e1ed5e" style="font-size:6.75px; font-family:Arial;" text-anchor="middle"><textPath startOffset="20.669276256404974" xlink:href="#id14">February</textPath></text><path d="M 117.42321728460499 88.27688183743584 l 1.962982960256808 -1.3207825408068579 a23.365960401688668,23.365960401688668 0 0,0 0.22105929966483967,0.3347119547981296 l -1.985366698842372 1.2868907076696696" fill="#ff0000" stroke="none" /><line stroke="#e1ed5e" stroke-width="0.3" x1="172.87174338648825" x2="177.1583165268699" y1="56.24261187166439" y2="53.66864786411523" /><path d="M 173.72905801456457 55.72781907015455 a86.0,86.0 0 0,1 12.242430191666344,42.057860355516425" fill="none" id="id15" stroke="none" /><text fill="#e1ed5e" style="font-size:6.75px; font-family:Arial;" text-anchor="middle"><textPath startOffset="22.145653131862474" xlink:href="#id15">March</textPath></text><path d="M 118.18653347947321 89.5 l 25.18116842373921 -14.53835436795514 a50.07670873591027,50.07670873591027 0 0,0 0.42342631719239293,0.7481537305528666 l -25.427028105952978 14.103943867303155" fill="#9fff22" stroke="none" /><path d="M 118.36410011445183 89.81374322990088 l 23.533116442878164 -13.053422993438852 a47.91095355723577,47.91095355723577 0 0,0 0.39276635520197833,0.7226458553751044 l -23.753728147695483 12.647522304589144" fill="#b8ff1f" stroke="none" /><path d="M 119.0197475246899 91.09779779509293 l 29.620670734982056 -13.86396953931611 a53.704644718714,53.704644718714 0 0,0 0.3836443341546294,0.8383321069066867 l -29.85429953399174 13.35344845019474" fill="#77ff27" stroke="none" /><path d="M 119.58574465831526 92.42381321644754 l 2.853459839072008 -1.1037795650520148 a24.05950361683448,24.05950361683448 0 0,0 0.14569669631984922,0.3864777967972218 l -2.8719872192062974 1.0546334880606354" fill="#ff0a01" stroke="none" /><path d="M 119.71291397450082 92.76114493625339 l 23.603916088196307 -8.66768493589069 a46.145051537956306,46.145051537956306 0 0,0 0.2666740765695168,0.7459348539589133 l -23.749230334809766 8.26121512555086" fill="#cdff1d" stroke="none" /><path d="M 119.83427380445688 93.10060997987247 l 22.00358650538863 -7.653989585854061 a44.2968104186063,44.2968104186063 0 0,0 0.24366320862829416,0.7203469801947411 l -22.131735135589288 7.275140931185159" fill="#e3ff1b" stroke="none" /><path d="M 120.05942366710727 93.78553927170692 l 18.349813947527156 -5.68481926703514 a40.21022753659405,40.21022753659405 0 0,0 0.1986072749327149,0.661099024735559 l -18.4446975424635 5.368982638708857" fill="#ffe815" stroke="none" /><path d="M 120.16314734710363 94.1308016681162 l 51.27819615290837 -14.926335563673405 a74.406449929344,74.406449929344 0 0,0 0.3464559463556364,1.229449930285218 l -51.52687059133859 14.043877709485173" fill="#41ffcd" stroke="none" /><path d="M 120.26092885502905 94.47779374421319 l 2.724391945220462 -0.7425451395026906 a23.82377137094723,23.82377137094723 0 0,0 0.10415584851219371,0.3954967218703517 l -2.7367372745373864 0.6956679132595404" fill="#ff0701" stroke="none" /><path d="M 120.43855184770803 95.1765574152323 l 37.220238618953545 -8.783874968617624 a59.24268063716439,59.24268063716439 0 0,0 0.22509154509779358,0.9917948798782024 l -37.365541025609005 8.143645754800396" fill="#3dff2e" stroke="none" /><path d="M 120.51834098615036 95.52812308129327 l 46.17426463054889 -10.063466065749834 a68.25818514742664,68.25818514742664 0 0,0 0.23969118227359268,1.1470090763638958 l -46.340213523646845 9.269340538100534" fill="#39ff8a" stroke="none" /><path d="M 120.592083275326 95.88100663000786 l 35.93421926625397 -7.187850249755779 a57.646054432750766,57.646054432750766 0 0,0 0.18576772565565944,0.9720152385993798 l -36.05231328419178 6.569932446123085" fill="#4eff2c" stroke="none" /><path d="M 120.65975698304385 96.23510406497455 l 43.43391450351167 -7.915106082357303 a65.14922234188651,65.14922234188651 0 0,0 0.1910584165792422,1.1019741750306415 l -43.56338773758315 7.168338874406069" fill="#35ff66" stroke="none" /><path d="M 120.77682067341334 96.94652285012252 l 37.10211202819147 -5.452732786746683 a58.500653484921195,58.500653484921195 0 0,0 0.1374918111706798,0.9948222541619411 l -37.19024835591736 4.8150222243846565" fill="#45ff2d" stroke="none" /><path d="M 120.86939407059847 97.66154086499901 l 2.8506535149055505 -0.3194216722393984 a23.868493623269813,23.868493623269813 0 0,0 0.042130854937201034,0.40757780348682116 l -2.8557167623244175 0.2704393464696458" fill="#ff0701" stroke="none" /><path d="M 120.9064616781168 98.02013634271609 l 25.28562499014173 -2.3945749759316053 a46.398756277767575,46.398756277767575 0 0,0 0.06828654608934535,0.7935931753771659 l -25.323005158928815 1.9601607531787772" fill="#caff1d" stroke="none" /><path d="M 120.93736805541906 98.37931529534042 l 21.0077471639025 -1.6261324927647858 a42.0705896402184,42.0705896402184 0 0,0 0.04955522567376242,0.7205221054194806 l -21.03256635074133 1.265266963190971" fill="#feff18" stroke="none" /><path d="M 120.96210409425399 98.7389718711861 l 24.924029892245365 -1.499367746491419 a45.969088283490834,45.969088283490834 0 0,0 0.04062443869867038,0.788103257848188 l -24.94609592040061 1.0712926952665005" fill="#cfff1d" stroke="none" /><path d="M 120.98066250479742 99.09900007780936 l 15.905625970595624 -0.6830560168737856 a36.92028589688871,36.92028589688871 0 0,0 0.02175714733999292,0.6334356056738416 l -15.915007804932465 0.4099141466358241" fill="#ffbe11" stroke="none" /><path d="M 120.99303781780057 99.45929381324524 l 3.1089070116539967 -0.08007441656782058 a24.109938057148415,24.109938057148415 0 0,0 0.0071050476580280025,0.41383340611875824 l -3.1098234909106908 0.026694094479995992" fill="#ff0b01" stroke="none" /><line stroke="#e1ed5e" stroke-width="0.3" x1="184.99686870605535" x2="189.99668451229388" y1="99.2704041080226" y2="99.22748670261217" /><path d="M 185.99683186730306 99.26182062694052 a86.0,86.0 0 0,1 -10.086455211305974,41.156179273409016" fill="none" id="id16" stroke="none" /><text fill="#e1ed5e" style="font-size:6.75px; font-family:Arial;" text-anchor="middle"><textPath startOffset="21.40746469413373" xlink:href="#id16">April</textPath></text><path d="M 120.99922638620191 99.81974689727618 l 22.35096819806805 -0.19185618043675293 a43.35179161018242,43.35179161018242 0 0,0 0.0,0.7442185663211569 l -22.35096819806805 -0.1918561804367502" fill="#eeff19" stroke="none" /><path d="M 120.99303781780057 100.54070618675476 l 32.28238233210541 0.8314796553813171 a53.29308854001959,53.29308854001959 0 0,0 -0.03140565007559773,0.9143412353809163 l -32.26335199503297 -1.385527155326344" fill="#7cff26" stroke="none" /><path d="M 120.96210409425399 101.26102812881392 l 14.73838621976676 0.8866247163396059 a35.765030706051206,35.765030706051206 0 0,0 -0.04212786611797555,0.6125299275596734 l -14.720994392483718 -1.1394980680536229" fill="#ffaf10" stroke="none" /><path d="M 120.9064616781168 101.97986365728391 l 2.700510241510341 0.25574112758094114 a23.712592687603248,23.712592687603248 0 0,0 -0.041855670427913924,0.40491564298673116 l -2.6957221786007612 -0.3020612928506037" fill="#ff0500" stroke="none" /><path d="M 120.86939407059847 102.33845913500097 l 2.843869211528485 0.31866147689529517 a23.861666862011848,23.861666862011848 0 0,0 -0.049107212387765255,0.4066781642410099 l -2.8379799128810563 -0.36743331805971363" fill="#ff0701" stroke="none" /><path d="M 120.82617615685814 102.69636545807757 l 28.9518165017087 3.7483922817055704 a50.193460285587285,50.193460285587285 0 0,0 -0.11796773800771511,0.8535557866608532 l -28.883204247145773 -4.244836376566509" fill="#9eff22" stroke="none" /><path d="M 120.77682067341334 103.0534771498775 l 3.072889530789448 0.45160894026342085 a24.10589772905697,24.10589772905697 0 0,0 -0.06368377317502887,0.4088955074400905 l -3.0646842654761515 -0.5042926296349619" fill="#ff0b01" stroke="none" /><path d="M 120.7213421655516 103.40968896794604 l 44.66935754495567 7.350325785338332 a66.27006508311754,66.27006508311754 0 0,0 -0.1943454310926335,1.120932801253782 l -44.53659729637081 -8.116051619512703" fill="#36ff73" stroke="none" /><path d="M 120.592083275326 104.11899336999214 l 23.84061509601385 4.768790714569446 a45.31288327277633,45.31288327277633 0 0,0 -0.15911789246109,0.761436716751778 l -23.755239492728396 -5.177343882606634" fill="#d7ff1c" stroke="none" /><path d="M 120.16314734710363 105.8691983318838 l 20.79877624160389 6.0542206393180535 a42.66201007981141,42.66201007981141 0 0,0 -0.21071717531048972,0.7014089445615428 l -20.691782746289768 -6.410367187470319" fill="#f7ff19" stroke="none" /><path d="M 119.31412917781788 108.2440532568976 l 15.456266514476795 6.597361088611404 a37.80539639223248,37.80539639223248 0 0,0 -0.2598961102836388,0.5946931616911346 l -15.340736522176192 -6.861716320078383" fill="#ffca12" stroke="none" /><path d="M 119.16976305983485 108.57439118712176 l 20.375633831780778 9.113761845356178 a43.32100152369242,43.32100152369242 0 0,0 -0.3094677726948405,0.6762429333790775 l -20.216181594230882 -9.462193760949944" fill="#efff19" stroke="none" /><path d="M 119.0197475246899 108.90220220490707 l 33.63193204311756 15.74144237198056 a58.13354091523272,58.13354091523272 0 0,0 -0.4307992749831588,0.90020479601526 l -33.35675351017449 -16.316459670060922" fill="#49ff2c" stroke="none" /><line stroke="#e1ed5e" stroke-width="0.3" x1="174.33088141563837" x2="178.70328620479359" y1="141.23008692659167" y2="143.65538615756765" /><path d="M 175.20536237346943 141.71514677278685 a86.0,86.0 0 0,1 -30.301960400862466,31.631185727798858" fill="none" id="id17" stroke="none" /><text fill="#e1ed5e" style="font-size:6.75px; font-family:Arial;" text-anchor="middle"><textPath startOffset="22.145653131862474" xlink:href="#id17">May</textPath></text><path d="M 118.36410011445183 110.18625677009912 l 17.811298022508566 9.879626768275577 a41.36785119562309,41.36785119562309 0 0,0 -0.34978810157634016,0.6180420594368408 l -17.639076555910847 -10.18392559781154" fill="#fff717" stroke="none" /><path d="M 118.18653347947321 110.5 l 6.548006297765842 3.780493198670472 a28.560986397340947,28.560986397340947 0 0,0 -0.24878834650951515,0.42249700270084717 l -6.482144241126562 -3.8923413696648685" fill="#ff4c07" stroke="none" /><path d="M 118.00360718960297 110.81064883170644 l 54.010821568808936 32.43194649511934 a84.0,84.0 0 0,0 -0.7529281421783813,1.2298515355017718 l -53.44612546217515 -33.35433514674567" fill="#4dd2ff" stroke="none" /><path d="M 114.91283532996324 114.78537596483092 l 11.940729222651035 11.838672321179175 a37.814730943340315,37.814730943340315 0 0,0 -0.46099412664793127,0.4570540295830736 l -11.735743175873138 -12.04190636099091" fill="#ffca12" stroke="none" /><line stroke="#e1ed5e" stroke-width="0.3" x1="143.1302829299769" x2="145.66735839644613" y1="173.24464959558577" y2="177.55315839532614" /><path d="M 143.63769802327073 174.10635135553383 a86.0,86.0 0 0,1 -40.68552437913181,11.842963189579606" fill="none" id="id18" stroke="none" /><text fill="#e1ed5e" style="font-size:6.75px; font-family:Arial;" text-anchor="middle"><textPath startOffset="21.407464694133747" xlink:href="#id18">June</textPath></text><line stroke="#e1ed5e" stroke-width="0.3" x1="101.45913802915013" x2="101.54496967792366" y1="184.9874750549273" y2="189.98673829345242" /><path d="M 101.47630435890484 185.9873277026323 a86.0,86.0 0 0,1 -42.54439059252881,-10.42667462771756" fill="none" id="id19" stroke="none" /><text fill="#e1ed5e" style="font-size:6.75px; font-family:Arial;" text-anchor="middle"><textPath startOffset="22.145653131862474" xlink:href="#id19">July</textPath></text><path d="M 97.84075906011543 120.88869738790638 l -1.734623153731604 16.78090548908002 a37.870320285012305,37.870320285012305 0 0,0 -0.6460750549047093,-0.07239405748567874 l 2.0224341102371124 -16.74865567108737" fill="#ffcb12" stroke="none" /><path d="M 95.70440661134978 120.55596938700252 l -1.744566200209279 8.34838080807499 a29.528714636071925,29.528714636071925 0 0,0 -0.4952915754168148,-0.10794649360936948 l 1.8876201922452303 -8.317202856331901" fill="#ff5a08" stroke="none" /><path d="M 92.59220618246901 119.65005319985036 l -2.6529505323910056 7.037266476651168 a28.520722438084793,28.520722438084793 0 0,0 -0.45664085606701493,-0.17663849288958117 l 2.7733636509515485 -6.990688095623546" fill="#ff4b07" stroke="none" /><path d="M 91.26138138417905 119.09545874513695 l -9.481261381350086 20.718267213498486 a43.78466400260067,43.78466400260067 0 0,0 -0.6807708074378012,-0.3186351120140831 l 9.835520902659377 -20.552455869913878" fill="#e9ff1a" stroke="none" /><line stroke="#e1ed5e" stroke-width="0.3" x1="58.13341422392154" x2="55.67067388415222" y1="173.97424548756322" y2="178.32567169271397" /><path d="M 57.64086615596768 174.84453072859336 a86.0,86.0 0 0,1 -31.369924170532247,-30.572349798747897" fill="none" id="id20" stroke="none" /><text fill="#e1ed5e" style="font-size:6.75px; font-family:Arial;" text-anchor="middle"><textPath startOffset="22.145653131862474" xlink:href="#id20">August</textPath></text><line stroke="#e1ed5e" stroke-width="0.3" x1="26.387840678322732" x2="22.057713659400548" y1="142.50000000000003" y2="145.00000000000006" /><path d="M 25.521815274538298 143.00000000000003 a86.0,86.0 0 0,1 -11.493303480769221,-40.785679425670985" fill="none" id="id21" stroke="none" /><text fill="#e1ed5e" style="font-size:6.75px; font-family:Arial;" text-anchor="middle"><textPath startOffset="21.40746469413373" xlink:href="#id21">September</textPath></text><line stroke="#e1ed5e" stroke-width="0.3" x1="15.003131293944662" x2="10.003315487706104" y1="100.72959589197737" y2="100.7725132973878" /><path d="M 14.003168132696942 100.73817937305945 a86.0,86.0 0 0,1 10.791469493833604,-42.45332614584628" fill="none" id="id22" stroke="none" /><text fill="#e1ed5e" style="font-size:6.75px; font-family:Arial;" text-anchor="middle"><textPath startOffset="22.145653131862435" xlink:href="#id22">October</textPath></text><line stroke="#e1ed5e" stroke-width="0.3" x1="26.387840678322718" x2="22.05771365940052" y1="57.49999999999999" y2="54.99999999999999" /><path d="M 25.521815274538284 56.99999999999999 a86.0,86.0 0 0,1 29.574782752854787,-30.34633250058573" fill="none" id="id23" stroke="none" /><text fill="#e1ed5e" style="font-size:6.75px; font-family:Arial;" text-anchor="middle"><textPath startOffset="21.40746469413373" xlink:href="#id23">November</textPath></text><line stroke="#e1ed5e" stroke-width="0.3" x1="56.869717070023135" x2="54.33264160355391" y1="26.7553504044142" y2="22.446841604673864" /><path d="M 56.362301976729285 25.89364864446614 a86.0,86.0 0 0,1 42.16139366436587,-11.88097634709845" fill="none" id="id24" stroke="none" /><text fill="#e1ed5e" style="font-size:6.75px; font-family:Arial;" text-anchor="middle"><textPath startOffset="22.145653131862474" xlink:href="#id24">December</textPath></text></svg>