<?xml version="1.0" encoding="utf-8" ?>
<svg baseProfile="full" height="200mm" version="1.1" viewBox="0,0,200,200" width="200mm" xmlns="http://www.w3.org/2000/svg" xmlns:ev="http://www.w3.org/2001/xml-events" xmlns:xlink="http://www.w3.org/1999/xlink"><defs /><rect fill="#1a1a1a" height="200" width="200" x="0" y="0" /><text alignment-baseline="middle" fill="#e1ed5e" style="dominant-baseline: central; font-size:9.0px; font-family:Arial;" text-anchor="middle" x="100.0" y="100.0">2023</text><line stroke="#e1ed5e" stroke-width="0.3" x1="100.0" x2="100.0" y1="15.0" y2="10.0" /><path d="M 100.0 14.0 a86.0,86.0 0 0,1 42.46469731375804,11.215312516191453" fill="none" id="id1" stroke="none" /><text fill="#e1ed5e" style="font-size:6.75px; font-family:Arial;" text-anchor="middle"><textPath startOffset="22.20632615414155" xlink:href="#id1">January</textPath></text><line stroke="#e1ed5e" stroke-width="0.3" x1="143.23703022742887" x2="145.7803849466894" y1="26.81831364943548" y2="22.513508569990506" /><path d="M 143.74570117128098 25.957352633546492 a86.0,86.0 0 0,1 28.547481713284135,27.462654790039103" fill="none" id="id2" stroke="none" /><text fill="#e1ed5e" style="font-size:6.75px; font-family:Arial;" text-anchor="middle"><textPath startOffset="19.985693538727396" xlink:href="#id2">February</textPath></text><line stroke="#e1ed5e" stroke-width="0.3" x1="172.23445277983987" x2="176.4835382374775" y1="55.19839476539836" y2="52.563006222186495" /><path d="M 173.08426987136738 54.67131705675599 a86.0,86.0 0 0,1 12.851231095245387,41.99856678651699" fill="none" id="id3" stroke="none" /><text fill="#e1ed5e" style="font-size:6.75px; font-family:Arial;" text-anchor="middle"><textPath startOffset="22.20632615414155" xlink:href="#id3">March</textPath></text><path d="M 120.91429891909075 98.10471618934814 l 4.409452029916643 -0.3995908769630581 a25.427520759193357,25.427520759193357 0 0,0 0.03575050836217603,0.436246754735615 l -4.415677022098315 0.3236302050196743" fill="#ff2904" stroke="none" /><path d="M 120.96714384426684 98.82574320788733 l 4.599069403562902 -0.25756910548443535 a25.60627628599159,25.60627628599159 0 0,0 0.020858618753785762,0.44029247464830606 l -4.602821630550184 0.1783655242131295" fill="#ff2b04" stroke="none" /><path d="M 120.98425023603335 99.18683210126433 l 4.692283224352747 -0.18183228120619352 a25.69580502534239,25.69580502534239 0 0,0 0.013323036967814238,0.4421267353144254 l -4.694717955776206 0.101035398466769" fill="#ff2d04" stroke="none" /><line stroke="#e1ed5e" stroke-width="0.3" x1="184.98032266829074" x2="189.97916517819016" y1="98.17113171792111" y2="98.06355123074" /><path d="M 185.9800911702706 98.14961562048488 a86.0,86.0 0 0,1 -9.607161424134198,41.387399972396054" fill="none" id="id4" stroke="none" /><text fill="#e1ed5e" style="font-size:6.75px; font-family:Arial;" text-anchor="middle"><textPath startOffset="21.466115282336823" xlink:href="#id4">April</textPath></text><path d="M 120.99513854157772 99.54816195383933 l 4.792527724459067 -0.10314037027677019 a25.79363744203602,25.79363744203602 0 0,0 0.005732320111914655,0.44397450990619497 l -4.793593051688696 0.02062960231011252" fill="#ff2e04" stroke="none" /><path d="M 120.99980553446 99.90962569577887 l 2.7839707685786155 -0.011981035765754624 a23.783996549121106,23.783996549121106 0 0,0 -0.0017619441856151755,0.40941377728302625 l -2.7837645271034974 -0.03594221972095631" fill="#ff1101" stroke="none" /><path d="M 120.99824983174949 100.27111621757518 l 2.616195187348349 0.03377866961844752 a23.61641324274776,23.61641324274776 0 0,0 -0.008746999133669138,0.40643867906848763 l -2.6152261255296723 -0.07880716447704997" fill="#ff0f01" stroke="none" /><path d="M 120.9904718944345 100.63252640178507 l 3.308344047893078 0.09969356415639742 a24.309845788849348,24.309845788849348 0 0,0 -0.016204094845716697,0.4181556866911014 l -3.3061378201961578 -0.15662649786150504" fill="#ff1902" stroke="none" /><path d="M 120.95626037817324 101.35467743843564 l 3.255493542194669 0.2104451640225554 a24.262288364067725,24.262288364067725 0 0,0 -0.030528245393184102,0.41653365358610683 l -3.2513887381371473 -0.2664519541054325" fill="#ff1802" stroke="none" /><path d="M 120.92983693683757 101.71520430193887 l 2.7569393030427976 0.22593172450572616 a23.766181386821955,23.766181386821955 0 0,0 -0.036922917271301134,0.4074413153517356 l -2.752641789494421 -0.2733544284060323" fill="#ff1101" stroke="none" /><path d="M 120.89721153311464 102.0752229133903 l 2.6935986597448687 0.26749107886102796 a23.70684783780869,23.70684783780869 0 0,0 -0.04382120341564275,0.4057299194964773 l -2.6885951548281737 -0.3138173202422967" fill="#ff1001" stroke="none" /><path d="M 120.8583938346157 102.4346265915055 l 16.312720069859918 1.9040479519547953 a37.42346597649089,37.42346597649089 0 0,0 -0.0801904517949533,0.6391968008950962 l -16.277528108818117 -2.1845625071372865" fill="#ffcc13" stroke="none" /><path d="M 120.81339534386255 102.79330883721812 l 3.2826792268137344 0.4405593966058518 a24.31211042812466,24.31211042812466 0 0,0 -0.059235819135437184,0.4142951810674628 l -3.274609356661696 -0.4970000496537239" fill="#ff1902" stroke="none" /><path d="M 120.76222939487914 103.15116336523771 l 3.6126980699828177 0.5483130732869489 a24.654070958697293,24.654070958697293 0 0,0 -0.06729181405737318,0.4190261903703154 l -3.6027245015641562 -0.6104184933504693" fill="#ff1e03" stroke="none" /><path d="M 120.70491114924044 103.5080841355445 l 3.036630989212443 0.5145038740796417 a24.079909414428986,24.079909414428986 0 0,0 -0.07275980573788488,0.408075630697044 l -3.027324741135369 -0.566698255509904" fill="#ff1502" stroke="none" /><path d="M 120.64145759157962 103.86396538481128 l 3.005658593478227 0.5626424738773337 a24.057866925482585,24.057866925482585 0 0,0 -0.07970035306992271,0.40639038323052623 l -2.99552830743264 -0.6142965841758048" fill="#ff1502" stroke="none" /><path d="M 120.5718875245553 104.21870165774334 l 3.1857252760984993 0.6533005047470536 a24.25202199935296,24.25202199935296 0 0,0 -0.08738345511699978,0.4082264108564915 l -3.1740077822570565 -0.7080407350197141" fill="#ff1802" stroke="none" /><path d="M 120.49622156327973 104.57218783832717 l 9.262532738388877 2.0662364235192308 a30.49019734713685,30.49019734713685 0 0,0 -0.11867864170574884,0.5112644823597392 l -9.225593530752576 -2.225369563227535" fill="#ff700a" stroke="none" /><path d="M 120.41448212921028 104.9243191809786 l 3.233852397534199 0.7800600225290809 a24.32660411948668,24.32660411948668 0 0,0 -0.10169526682448067,0.4062220393668859 l -3.2199458164146577 -0.8356099012933628" fill="#ff1902" stroke="none" /><path d="M 120.32669344350535 105.2749913415812 l 3.02660877751493 0.7854369005031694 a24.12686293540386,24.12686293540386 0 0,0 -0.10778035351469102,0.40109079070382353 l -3.012640347658462 -0.8374186243825412" fill="#ff1602" stroke="none" /><path d="M 120.23288151984713 105.62410040840565 l 2.6271690077282366 0.7302697974493306 a23.72677666343147,23.72677666343147 0 0,0 -0.11276700066521558,0.3925567229562667 l -2.614209370176922 -0.7753839959101793" fill="#ff1001" stroke="none" /><path d="M 120.02730092923936 106.31721596034902 l 1.7262109410162179 0.5444990988074657 a22.810050684783782,22.810050684783782 0 0,0 -0.12133616267631002,0.3734343103329004 l -1.7165825273236608 -0.5741323091181614" fill="#ff0300" stroke="none" /><path d="M 119.9155931802556 106.66101706037122 l 1.7077053802143054 0.5711632372051307 a22.800690175779145,22.800690175779145 0 0,0 -0.12769382026162984,0.37113801383261574 l -1.6976207290094447 -0.6004739541270468" fill="#ff0300" stroke="none" /><path d="M 119.79798401119884 107.00284435728193 l 9.189242213932982 3.250373015208874 a30.747158416909308,30.747158416909308 0 0,0 -0.18078705273891618,0.4974483241879245 l -9.13193090018884 -3.4080691364029296" fill="#ff740a" stroke="none" /><path d="M 119.54520255179757 107.68017299344265 l 1.7339789315876344 0.6813568765166418 a22.863043243826162,22.863043243826162 0 0,0 -0.14708273201719527,0.3650472786996192 l -1.7219935853130468 -0.7111035230590745" fill="#ff0400" stroke="none" /><path d="M 119.41010516605496 108.01547362559984 l 2.58857220482634 1.0689603203197602 a23.800603903806753,23.800603903806753 0 0,0 -0.15963293842293727,0.37732511162412496 l -2.569788285211094 -1.1133599576100486" fill="#ff1101" stroke="none" /><path d="M 119.26925614724726 108.34839909993367 l 1.7191952894592792 0.7448408126113576 a22.8736115604443,22.8736115604443 0 0,0 -0.15963484278937776,0.35993442812232895 l -1.7061193619386286 -0.7743235772263742" fill="#ff0400" stroke="none" /><path d="M 119.12269723197855 108.67885076344098 l 2.5531299492797985 1.158739980070186 a23.803774398792193,23.803774398792193 0 0,0 -0.17254946088163595,0.3716561880183752 l -2.532805871558331 -1.202516235367392" fill="#ff1101" stroke="none" /><path d="M 118.97047184881838 109.00673069616215 l 2.6008619875406467 1.2348276672476524 a23.87911139868435,23.87911139868435 0 0,0 -0.1794876175817514,0.36979765469464904 l -2.579221113344181 -1.2794142779075768" fill="#ff1202" stroke="none" /><path d="M 118.64920377521936 109.65438752849418 l 6.406117807110111 3.316342327987721 a28.21363097163809,28.21363097163809 0 0,0 -0.22698200888222514,0.42936442040173006 l -6.348083290002993 -3.4261217634755856" fill="#ff5107" stroke="none" /><line stroke="#e1ed5e" stroke-width="0.3" x1="174.80103733775053" x2="179.2010983576182" y1="140.37084112569926" y2="142.7455964860345" /><path d="M 175.68104954172406 140.8457921977663 a86.0,86.0 0 0,1 -30.038265399797805,32.042727171017184" fill="none" id="id5" stroke="none" /><text fill="#e1ed5e" style="font-size:6.75px; font-family:Arial;" text-anchor="middle"><textPath startOffset="22.206326154141568" xlink:href="#id5">May</textPath></text><path d="M 118.48025628344425 109.97397251340804 l 10.62154706193573 5.732551368377054 a33.06977245767281,33.06977245767281 0 0,0 -0.274673735747089,0.4986126147607375 l -10.521296916737132 -5.914534501535597" fill="#ff930d" stroke="none" /><path d="M 118.12598468904814 110.60418214915192 l 2.807348130099314 1.642373169698264 a24.252474927208024,24.252474927208024 0 0,0 -0.21390581753181767,0.3585184540229628 l -2.7786614368692693 -1.6904537176073309" fill="#ff1802" stroke="none" /><path d="M 117.94076556474637 110.91462005526583 l 2.3930049500178967 1.4558319557521613 a23.801056831661814,23.801056831661814 0 0,0 -0.2159496637954275,0.34817961790810137 l -2.3675906465545067 -1.496807905025536" fill="#ff1101" stroke="none" /><path d="M 117.55443506779139 111.5257021239791 l 2.3156028227027288 1.5203535897822953 a23.770106761565835,23.770106761565835 0 0,0 -0.2275103639585883,0.34009712510654694 l -2.289089353333419 -1.559987629094649" fill="#ff1101" stroke="none" /><path d="M 117.14729908036423 112.12312394758627 l 2.2526517566806543 1.5926226240644443 a23.75878356518926,23.75878356518926 0 0,0 -0.23896834274011386,0.33190612730411867 l -2.2249036215649376 -1.631162356819694" fill="#ff1101" stroke="none" /><path d="M 116.93607887273984 112.41649034213515 l 2.2744595660719678 1.6674937243688452 a23.820230777526152,23.820230777526152 0 0,0 -0.24527888239823037,0.3285911458745306 l -2.2454194169786454 -1.7063977497526908" fill="#ff1202" stroke="none" /><path d="M 116.71984013943494 112.70617746262583 l 2.5504983506131094 1.938241298407526 a24.203407742909523,24.203407742909523 0 0,0 -0.25493470442014304,0.32953747100702485 l -2.516756828974898 -1.9818567635278033" fill="#ff1702" stroke="none" /><path d="M 116.498646956653 112.99209946851258 l 5.290313475780441 4.1659342779764135 a27.733678421222905,27.733678421222905 0 0,0 -0.2985756154223484,0.372518988338975 l -5.217819948303239 -4.256381099893638" fill="#ff4a06" stroke="none" /><path d="M 116.27256486870786 113.27417163493432 l 5.964208846986558 4.865239901654171 a28.696904992990405,28.696904992990405 0 0,0 -0.31553476921697293,0.38008195616551976 l -5.879578077876042 -4.967183114933461" fill="#ff5708" stroke="none" /><path d="M 115.80600337817218 113.82643327865902 l 9.042018007869 7.909580663691559 a33.01330745174162,33.01330745174162 0 0,0 -0.3778312518983174,0.42449741686936043 l -8.904527906322343 -8.064052250301787" fill="#ff920d" stroke="none" /><path d="M 115.56566222782051 114.09645910891815 l 2.2878205441285653 2.071879003722082 a24.086552356303248,24.086552356303248 0 0,0 -0.28095654850836127,0.30492284381357954 l -2.251817587624482 -2.110953102336996" fill="#ff1602" stroke="none" /><path d="M 115.32070863581623 114.36230785411682 l 5.191604880409521 4.866839342865971 a28.116100506847836,28.116100506847836 0 0,0 -0.3340372798680529,0.3502367524782075 l -5.107061049162504 -4.955483211926685" fill="#ff4f07" stroke="none" /><path d="M 115.07121518719521 114.62390073753431 l 4.362683117992937 4.233198456422457 a27.07889571875337,27.07889571875337 0 0,0 -0.3274733062343304,0.33172873029312316 l -4.28916918670307 -4.307667680696245" fill="#ff4106" stroke="none" /><path d="M 114.81725581225074 114.88116024355365 l 2.0813080560750206 2.090284401585617 a23.949768144074195,23.949768144074195 0 0,0 -0.29463922574334545,0.288366495726544 l -2.045018877955881 -2.1258010002347327" fill="#ff1402" stroke="none" /><path d="M 114.55890576462653 115.13401014063108 l 3.614736766823949 3.7575257213177626 a26.21395449153456,26.21395449153456 0 0,0 -0.3278793563731555,0.3100303966483745 l -3.549521576059986 -3.819190754712059" fill="#ff3405" stroke="none" /><path d="M 114.29624159901734 115.38237550388516 l 10.778787511931748 11.597688513918145 a36.833150005392,36.833150005392 0 0,0 -0.46813258719017653,0.42762801908171477 l -10.577555375274708 -11.781509299586443" fill="#ffc412" stroke="none" /><path d="M 114.0293411484842 115.62618273729858 l 2.0961053075078095 2.334687297505583 a24.137582227973688,24.137582227973688 0 0,0 -0.3115560116780149,0.2749119563095135 l -2.055606942923207 -2.3704223955873855" fill="#ff1602" stroke="none" /><path d="M 113.75828350139079 115.86535959552629 l 3.124558161870905 3.6030831033687742 a25.76917933786261,25.76917933786261 0 0,0 -0.33761861314873476,0.2877259066047417 l -3.062074072145123 -3.6563334001964627" fill="#ff2e04" stroke="none" /><path d="M 113.48314897796784 116.09983520530334 l 1.6198777998549225 1.9342488667157265 a23.522959128653078,23.522959128653078 0 0,0 -0.3126647884680675,0.25730183479879554 l -1.5863428828421637 -1.9618458203717004" fill="#ff0d01" stroke="none" /><path d="M 113.20401910651253 116.32954008644616 l 1.226850303264444 1.5172578171553979 a22.951213199611775,22.951213199611775 0 0,0 -0.3093413775807973,0.2457594990966947 l -1.2005514329662956 -1.5381512302572187" fill="#ff0500" stroke="none" /><path d="M 112.92097659922987 116.55440617244103 l 2.041420480568501 2.6154759699885974 a24.317847514288793,24.317847514288793 0 0,0 -0.33219484936787425,0.2547128449802182 l -1.9960969027071331 -2.650228156796187" fill="#ff1902" stroke="none" /><path d="M 112.63410532772338 116.77436683061366 l 2.273857383617147 3.0190121804348293 a24.77953197454977,24.77953197454977 0 0,0 -0.3429192579903768,0.25368346901966604 l -2.2215531552082055 -3.0577055981942642" fill="#ff2003" stroke="none" /><path d="M 112.34349029814194 116.9893568818739 l 2.0989124880955683 2.888905201265907 a24.570883209317373,24.570883209317373 0 0,0 -0.34431140281518086,0.24565704387389084 l -2.048873757431503 -2.924606506984017" fill="#ff1d02" stroke="none" /><path d="M 112.04921762599082 117.19931262002967 l 0.9300147412389907 1.3275230618544054 a22.620877817319098,22.620877817319098 0 0,0 -0.3208320343654968,0.2206711987392687 l -0.9070258222506108 -1.3433350499587682" fill="#ff0000" stroke="none" /><path d="M 111.7513745106137 117.40417183066458 l 1.0805570293019102 1.600340470284337 a22.930982422085624,22.930982422085624 0 0,0 -0.3290326279296923,0.2180648841909853 l -1.0528497026322539 -1.6187033755666405" fill="#ff0500" stroke="none" /><path d="M 111.45004920935366 117.60387380957326 l 1.7690179913656874 2.7197760391655295 a24.244473201768574,24.244473201768574 0 0,0 -0.3517967706840193,0.22453334373865813 l -1.7219394186347377 -2.749823811727996" fill="#ff1802" stroke="none" /><path d="M 111.1453310114006 117.79835938074945 l 2.5780213520313664 4.116930261448887 a25.857500269599914,25.857500269599914 0 0,0 -0.3792689486091766,0.23297796523793454 l -2.5067732034898813 -4.1606966935152" fill="#ff2f04" stroke="none" /><line stroke="#e1ed5e" stroke-width="0.3" x1="143.8653032363475" x2="146.44561519142675" y1="172.8068346515853" y2="177.08958963109032" /><path d="M 144.38136562736335 173.6633856474863 a86.0,86.0 0 0,1 -40.68145358897372,12.25698825130547" fill="none" id="id6" stroke="none" /><text fill="#e1ed5e" style="font-size:6.75px; font-family:Arial;" text-anchor="middle"><textPath startOffset="21.466115282336833" xlink:href="#id6">June</textPath></text><path d="M 110.8373102113329 117.98757091392108 l 1.6692862524016512 2.770651043033604 a24.234659764908876,24.234659764908876 0 0,0 -0.35917165493025704,0.21220494464507947 l -1.621346726443012 -2.798974559972433" fill="#ff1802" stroke="none" /><path d="M 110.21172684928248 118.3499491758327 l 5.3034612018068055 9.530047654574053 a31.90635177396743,31.90635177396743 0 0,0 -0.48220705759769217,0.26293773536791876 l -5.138631332340465 -9.619926041701742" fill="#ff830c" stroke="none" /><path d="M 109.89434966115114 118.52300852407294 l 3.178754112713332 5.950880203567682 a27.746662353068047,27.746662353068047 0 0,0 -0.4232146845815851,0.22140592061182687 l -3.0758485256052515 -6.0047155431242265" fill="#ff4a06" stroke="none" /><path d="M 109.57404056367764 118.69057910512821 l 0.8344375696715487 1.6290009740930262 a22.830281462309934,22.830281462309934 0 0,0 -0.3513102971927699,0.17615427609459117 l -0.8062733647960184 -1.6431230910969197" fill="#ff0300" stroke="none" /><path d="M 109.2508944713604 118.85261126421891 l 1.4125579472822414 2.878684428920847 a24.206578237894963,24.206578237894963 0 0,0 -0.375648438037677,0.18033407837607057 l -1.3627968412443316 -2.902572783796478" fill="#ff1702" stroke="none" /><path d="M 108.92500713936063 119.00905698771935 l 1.3698549726317264 2.9176056481600363 a24.22318559258061,24.22318559258061 0 0,0 -0.3789567481727751,0.1739604564313582 l -1.319430228691532 -2.9407531749254687" fill="#ff1702" stroke="none" /><path d="M 108.59647513512805 119.15986991738527 l 1.3400105962101168 2.9866228085031614 a24.27346058449261,24.27346058449261 0 0,0 -0.3826876644778771,0.16775902595332312 l -1.288402257074486 -3.009246387750939" fill="#ff1802" stroke="none" /><path d="M 106.91757812671514 119.82793768551818 l 1.004552001017428 2.879359526293411 a24.049563248139762,24.049563248139762 0 0,0 -0.39204254330851124,0.13300211628779174 l -0.9548397247716898 -2.896224629479326" fill="#ff1502" stroke="none" /><path d="M 106.57524785965236 119.94407469862006 l 0.9904825364196849 3.004336584062593 a24.163399115712284,24.163399115712284 0 0,0 -0.396140121218485,0.12683155712144423 l -0.9386210701102594 -3.0209409878437437" fill="#ff1702" stroke="none" /><path d="M 104.83641907484287 120.43548508189849 l 0.8486116966146516 3.5856677012747737 a24.684719076889895,24.684719076889895 0 0,0 -0.414326956785777,0.09429946643168353 l -0.7867645904360124 -3.5997439012841417" fill="#ff1e03" stroke="none" /><path d="M 104.48393922423573 120.51570834832081 l 0.6511132999109471 2.979088229047655 a24.04941227218807,24.04941227218807 0 0,0 -0.4051851147383449,0.08491048033449854 l -0.5997367237432242 -2.989854690108695" fill="#ff1502" stroke="none" /><path d="M 102.70371172650421 120.8252237178851 l 0.3937919829415061 3.033165874406947 a24.058621805241025,24.058621805241025 0 0,0 -0.4111418859561476,0.04978355667349962 l -0.34152267393397817 -3.039494959805798" fill="#ff1502" stroke="none" /><path d="M 102.34483914955558 120.86867818915974 l 0.34408506331341243 3.0622997988348923 a24.08157014989755,24.08157014989755 0 0,0 -0.4123308404027948,0.042739777526839925 l -0.29132162630501496 -3.0677689448174905" fill="#ff1502" stroke="none" /><path d="M 101.98527174616119 120.90594882070398 l 0.3094623243126418 3.2587999736187743 a24.27346058449261,24.27346058449261 0 0,0 -0.41629641702770154,0.03591980654511904 l -0.25332158954339856 -3.263644032442557" fill="#ff1802" stroke="none" /><path d="M 101.62511606390274 120.93702456842531 l 0.2389508878028591 3.078500495872854 a24.087760163916748,24.087760163916748 0 0,0 -0.41366396783496173,0.028528689151013704 l -0.18592415918896704 -3.082157529540153" fill="#ff1602" stroke="none" /><line stroke="#e1ed5e" stroke-width="0.3" x1="102.19456741930631" x2="102.32365962044197" y1="184.97166512339345" y2="189.96999836594603" /><path d="M 102.22038585953345 185.97133177190398 a86.0,86.0 0 0,1 -42.740103519485714,-10.115201625700543" fill="none" id="id7" stroke="none" /><text fill="#e1ed5e" style="font-size:6.75px; font-family:Arial;" text-anchor="middle"><textPath startOffset="22.20632615414155" xlink:href="#id7">July</textPath></text><path d="M 100.54218724476979 120.99299961872073 l 0.07936643654162831 3.072996622716653 a24.074021352313167,24.074021352313167 0 0,0 -0.41434865443383834,0.007133387849845913 l -0.026458092215122055 -3.0739074878456587" fill="#ff1502" stroke="none" /><path d="M 99.81925306533755 120.99922214144158 l -0.028481335158931226 3.3089683374392784 a24.30909090909091,24.30909090909091 0 0,0 -0.41839454079091165,-0.007203041452609121 l 0.0854355658425108 -3.3079878187075096" fill="#ff1902" stroke="none" /><path d="M 99.45781275523022 120.99299961872073 l -0.08004858016889328 3.0994086068517865 a24.100442143858515,24.100442143858515 0 0,0 -0.4146190124866103,-0.014280317124585521 l 0.13338794433014664 -3.097571491301107" fill="#ff1602" stroke="none" /><path d="M 98.73552117531835 120.96189622390904 l -0.1868241441175639 3.0970770286319027 a24.10270678313383,24.10270678313383 0 0,0 -0.4139206491440162,-0.028546391396909586 l 0.24010755404051015 -3.0934022927187077" fill="#ff1602" stroke="none" /><path d="M 98.37488393609728 120.93702456842531 l -0.2371048952215519 3.054717830199672 a24.06390596355009,24.06390596355009 0 0,0 -0.41270249857646507,-0.03560970813872617 l 0.28965171153955865 -3.0501838697822823" fill="#ff1502" stroke="none" /><path d="M 97.65516085044442 120.86867818915974 l -0.36465160964834686 3.245338638410541 a24.26576081095654,24.26576081095654 0 0,0 -0.4146817197069801,-0.050212181243679654 l 0.42046075240671626 -3.238580928441513" fill="#ff1802" stroke="none" /><path d="M 97.2962882734958 120.8252237178851 l -0.3960856526185412 3.0508327668093362 a24.07643696754017,24.07643696754017 0 0,0 -0.4105277954365986,-0.05689541170971862 l 0.4485420392419708 -3.0435627896070128" fill="#ff1502" stroke="none" /><path d="M 96.58105272829116 120.7198165907248 l -0.49690814223995106 3.011408118178888 a24.05212983931845,24.05212983931845 0 0,0 -0.407913846693384,-0.0709210509165677 l 0.548670960405385 -3.002408488741314" fill="#ff1502" stroke="none" /><path d="M 96.22490169976321 120.6578951692458 l -0.6001020778355499 3.283847155449112 a24.338229267766636,24.338229267766636 0 0,0 -0.41146950447791314,-0.07885910983886442 l 0.6565391968851582 -3.2730308472617793" fill="#ff1902" stroke="none" /><path d="M 94.46302465271185 120.25689768951611 l -0.8120260261643552 2.970778647459931 a24.0797584384773,24.0797584384773 0 0,0 -0.3988855923960078,-0.11272905277160122 l 0.8630427866649768 -2.9563608013498084" fill="#ff1502" stroke="none" /><line stroke="#e1ed5e" stroke-width="0.3" x1="58.666819895761336" x2="56.23545636021788" y1="174.27360380694188" y2="178.64263932499728" /><path d="M 58.180547188652646 175.14741091055294 a86.0,86.0 0 0,1 -31.652253787137756,-30.449443065178592" fill="none" id="id8" stroke="none" /><text fill="#e1ed5e" style="font-size:6.75px; font-family:Arial;" text-anchor="middle"><textPath startOffset="22.20632615414155" xlink:href="#id8">August</textPath></text><line stroke="#e1ed5e" stroke-width="0.3" x1="26.63291911575756" x2="22.317208475507996" y1="142.92168965132927" y2="145.44649492493687" /><path d="M 25.769776987707644 143.4266507060508 a86.0,86.0 0 0,1 -11.730757126820373,-40.83630448921669" fill="none" id="id9" stroke="none" /><text fill="#e1ed5e" style="font-size:6.75px; font-family:Arial;" text-anchor="middle"><textPath startOffset="21.46611528233685" xlink:href="#id9">September</textPath></text><line stroke="#e1ed5e" stroke-width="0.3" x1="15.007084014347285" x2="10.007500721073583" y1="101.09737516637583" y2="101.16192664675087" /><path d="M 14.007167355692545 101.11028546245083 a86.0,86.0 0 0,1 10.666146001902534,-42.60595125391555" fill="none" id="id10" stroke="none" /><text fill="#e1ed5e" style="font-size:6.75px; font-family:Arial;" text-anchor="middle"><textPath startOffset="22.20632615414155" xlink:href="#id10">October</textPath></text><path d="M 79.00019446554 99.90962569577889 l -11.002119619815506 -0.047348481583161996 a32.00222150328912,32.00222150328912 0 0,0 0.007112101903482888,-0.5508401302360244 l 10.999674510794307 0.2367248698796584" fill="#ff850c" stroke="none" /><path d="M 79.00486145842228 99.54816195383935 l -10.64435939431367 -0.22907810500196923 a31.646824113016283,31.646824113016283 0 0,0 0.01640858525957051,-0.5445210614868241 l 10.638839114598454 0.41226931391378774" fill="#ff800b" stroke="none" /><path d="M 79.03285615573316 98.82574320788736 l -46.40055538299996 -2.5986451812884885 a67.47326647255474,67.47326647255474 0 0,0 0.07492555700674855,-1.1590652040578706 l 46.3489492349888 3.396969449599371" fill="#38ff83" stroke="none" /><path d="M 79.05617556472873 98.46500227214037 l -48.845434436734344 -3.5799398103449955 a69.97644775153672,69.97644775153672 0 0,0 0.0983852733496245,-1.2005495356245586 l 48.77657467956522 4.420203263177332" fill="#3bff9f" stroke="none" /><path d="M 79.12142395522702 97.74499172005258 l -3.2360704622686733 -0.3495145296911215 a24.254890542435028,24.254890542435028 0 0,0 0.04840542383666866,-0.41470811073839936 l 3.2295746854284157 0.40516637875438266" fill="#ff1802" stroke="none" /><path d="M 79.26566170972629 96.67025291283419 l -37.911066906327136 -6.088174256417253 a59.396807937021464,59.396807937021464 0 0,0 0.1708029839503604,-1.0080888798776038 l 37.80065206085656 6.739848924610684" fill="#39ff2e" stroke="none" /><path d="M 79.46518482838121 95.60439243477599 l -22.20880970219851 -4.753936722865009 a43.71191631618678,43.71191631618678 0 0,0 0.1638272937610055,-0.7344056346264773 l 22.12368802143547 5.135520527041446" fill="#e4ff1a" stroke="none" /><path d="M 79.54389044137918 95.25157060432595 l -25.650030413301536 -5.954082229830708 a47.332017685754344,47.332017685754344 0 0,0 0.19105726653461838,-0.7920557157206046 l 25.5437403465061 6.394723177210709" fill="#baff1f" stroke="none" /><path d="M 79.62865764111835 94.90015583598534 l -16.099650762623686 -4.030451628468332 a37.596484417124984,37.596484417124984 0 0,0 0.16256660446932278,-0.626435442111832 l 16.027887826284054 4.306983496129027" fill="#ffce13" stroke="none" /><path d="M 79.71946130924805 94.55025226153421 l -18.667222894978053 -5.016220589926127 a40.329451094575646,40.329451094575646 0 0,0 0.18592497151199452,-0.6688710455028215 l 18.578111152899698 5.3368029388478915" fill="#fff116" stroke="none" /><path d="M 79.81627453868168 94.20196356495316 l -13.116555677051547 -3.7679004237158376 a34.64701822495417,34.64701822495417 0 0,0 0.16959567410421442,-0.5717923025536285 l 13.049754105835627 3.993122113016005" fill="#ffa80f" stroke="none" /><path d="M 79.91906864156998 93.8553929516997 l -18.01285312621815 -5.511791375796607 a39.83726949207376,39.83726949207376 0 0,0 0.20628974280529774,-0.6539948584485001 l 17.91530789964465 5.821036400671522" fill="#ffeb16" stroke="none" /><path d="M 80.02781315780177 93.51064311812611 l -27.262799638579224 -8.858220577025744 a49.66580394694274,49.66580394694274 0 0,0 0.2711816898836687,-0.8107987360951744 l 27.106280654923786 9.326192416043241" fill="#9fff22" stroke="none" /><path d="M 80.14247586403 93.16781622104843 l -33.61395799928596 -11.565225202122743 a56.54789172867465,56.54789172867465 0 0,0 0.32460353021867533,-0.9176978915096823 l 33.409901388257474 12.142120720059037" fill="#55ff2b" stroke="none" /><path d="M 80.2630227832202 92.82701384747504 l -15.539419719912335 -5.647472824483018 a37.533829397174586,37.533829397174586 0 0,0 0.22590970532217092,-0.6053256950243321 l 15.439905426088536 5.914121656536692" fill="#ffcd13" stroke="none" /><path d="M 80.38941819471856 92.48833698450439 l -13.122079732290583 -5.0262986580482645 a35.051784751428876,35.051784751428876 0 0,0 0.22067009677607058,-0.5615813266570358 l 13.033616085632822 5.251428989601064" fill="#ffad10" stroke="none" /><path d="M 80.52162464483688 92.15188598940014 l -15.781272024693578 -6.358498582339695 a38.01408389949315,38.01408389949315 0 0,0 0.2497675795723114,-0.6048320053210482 l 15.669482758235068 6.629205158114054" fill="#ffd413" stroke="none" /><path d="M 80.65960295795068 91.81776055985345 l -13.562124064038297 -5.737656066091616 a35.72589237571444,35.72589237571444 0 0,0 0.24448298255003362,-0.5643004314967414 l 13.461350371645583 5.970255642174957" fill="#ffb610" stroke="none" /><path d="M 80.803312248108 91.48605970444005 l -18.086524508955748 -8.021570794589499 a40.78554944462418,40.78554944462418 0 0,0 0.2901555518287387,-0.6393192968787513 l 17.945766640163658 8.331712100310321" fill="#fff617" stroke="none" /><path d="M 80.95270993114464 91.15688171328213 l -25.0555498845288 -11.632583457630078 a48.62422085624932,48.62422085624932 0 0,0 0.3589898583138319,-0.7561241954370491 l 24.851601832373216 12.062150068707659" fill="#abff21" stroke="none" /><path d="M 81.10775173730289 90.83032412892265 l -20.444157595524157 -9.9229216132171 a43.72505122398361,43.72505122398361 0 0,0 0.33447579343962336,-0.6742827895847067 l 20.27032178913112 10.27336399130077" fill="#e4ff1a" stroke="none" /><path d="M 81.26839172434947 90.50648371742162 l -25.177209964406128 -12.760263252872413 a49.226161975628166,49.226161975628166 0 0,0 0.389567798194366,-0.752520989171795 l 24.953832733051648 13.191756964304544" fill="#a4ff21" stroke="none" /><path d="M 81.43458229118936 90.18545643968196 l -55.69625312643191 -29.44363068095413 a84.0,84.0 0 0,0 0.6867676031261127,-1.2724760666701092 l 55.18117742408733 30.39798773095671" fill="#4dd2ff" stroke="none" /><path d="M 81.6062741919709 89.86733742301443 l -53.523566776661866 -29.484849764800387 a82.10751644559474,82.10751644559474 0 0,0 0.6926056728949139,-1.2320682090622745 l 53.00810346247452 30.401801483797446" fill="#4be3ff" stroke="none" /><line stroke="#e1ed5e" stroke-width="0.3" x1="26.266209847984243" x2="21.928928074336255" y1="57.711370442889674" y2="55.22380399835377" /><path d="M 25.398753493254645 57.213857153982495 a86.0,86.0 0 0,1 29.58750427330803,-30.492523968695096" fill="none" id="id11" stroke="none" /><text fill="#e1ed5e" style="font-size:6.75px; font-family:Arial;" text-anchor="middle"><textPath startOffset="21.46611528233685" xlink:href="#id11">November</textPath></text><path d="M 81.78341655067845 89.55222093294921 l -28.614815421180936 -16.41148958566491 a53.98703763614796,53.98703763614796 0 0,0 0.4692767344992984,-0.8021460575477831 l 28.32807901221131 16.901615055566584" fill="#70ff27" stroke="none" /><path d="M 82.15384107792192 88.93136811851018 l -19.337155815089833 -11.993385259359572 a43.75449153456271,43.75449153456271 0 0,0 0.40248382403653127,-0.6366327529263848 l 19.12784439480734 12.324465660000174" fill="#e4ff1b" stroke="none" /><path d="M 82.34701348167596 88.62581576622439 l -22.59016241634944 -14.555308753437265 a47.87326647255473,47.87326647255473 0 0,0 0.4522960545029394,-0.6888779212566493 l 22.33626972648858 14.942004738671582" fill="#b3ff20" stroke="none" /><path d="M 82.54541684631803 88.32363383020206 l -26.23552032740421 -17.5504358540541 a52.56454221934649,52.56454221934649 0 0,0 0.5095645128181675,-0.7477230456023272 l 25.9295313489173 17.99943692292684" fill="#7fff26" stroke="none" /><path d="M 82.7489923806493 88.02491185347247 l -15.74821845134558 -10.931900806425617 a40.17062439340019,40.17062439340019 0 0,0 0.39919535073814805,-0.5646335136217739 l 15.557710480803552 11.201360820379177" fill="#ffef16" stroke="none" /><path d="M 82.95767976084542 87.72973835380427 l -11.721519052729718 -8.439350020980289 a35.443567346058444,35.443567346058444 0 0,0 0.3607435946544583,-0.49205385769687965 l 11.574512845561626 8.639866322348668" fill="#ffb210" stroke="none" /><path d="M 83.84228863543731 86.58626213691792 l -24.887603341050813 -20.66108124628309 a53.34614472123369,53.34614472123369 0 0,0 0.5926233035639855,-0.7014790684075555 l 24.528269423999703 21.08641926431976" fill="#77ff27" stroke="none" /><path d="M 84.07557802195018 86.31012108654704 l -19.305993220478783 -16.59694209664905 a46.45937668499946,46.45937668499946 0 0,0 0.5265576030538908,-0.6019463649760015 l 19.017443753847047 16.926804017827997" fill="#c4ff1e" stroke="none" /><path d="M 84.80347519578584 85.50635884689758 l -19.052822557651357 -18.171573873768548 a47.32899816672059,47.32899816672059 0 0,0 0.5673523905568175,-0.584706510151899 l 18.73720590339142 18.49684457947057" fill="#baff1f" stroke="none" /><path d="M 85.31137513191541 84.99185889309783 l -11.881106404136233 -12.139551729368113 a37.98615334843093,37.98615334843093 0 0,0 0.4712394979987691,-0.453332023712246 l 11.670383662525037 12.342266839842672" fill="#ffd313" stroke="none" /><line stroke="#e1ed5e" stroke-width="0.3" x1="56.762969772571076" x2="54.21961505331055" y1="26.818313649435495" y2="22.513508569990535" /><path d="M 56.25429882871897 25.957352633546506 a86.0,86.0 0 0,1 42.265352541879196,-11.944610805530505" fill="none" id="id12" stroke="none" /><text fill="#e1ed5e" style="font-size:6.75px; font-family:Arial;" text-anchor="middle"><textPath startOffset="22.20632615414155" xlink:href="#id12">December</textPath></text><path d="M 89.94658935756843 81.56283822128135 l -15.660321966250752 -28.719794691361795 a53.71195945217298,53.71195945217298 0 0,0 0.8155392539045794,-0.4356328255228808 l 15.163637665817868 28.985106243386426" fill="#73ff27" stroke="none" /><path d="M 93.59665428221793 80.00007090966166 l -10.665383532929871 -33.311791020045476 a55.97750458319853,55.97750458319853 0 0,0 0.9202025419653502,-0.28591140910508095 l 10.090395618253792 33.49044256403308" fill="#5bff2a" stroke="none" /><path d="M 95.692805502759 79.44645832069477 l -5.148722357027637 -24.56923633890333 a46.102922463064814,46.102922463064814 0 0,0 0.7781154448877273,-0.15608263811442893 l 4.725040502672773 24.65422293309497" fill="#c8ff1d" stroke="none" /></svg>